<?xml version="1.0" encoding="utf-8" standalone="no"?>
<!DOCTYPE svg PUBLIC "-//W3C//DTD SVG 1.1//EN"
  "http://www.w3.org/Graphics/SVG/1.1/DTD/svg11.dtd">
<!-- Created with matplotlib (https://matplotlib.org/) -->
<svg height="297.637795pt" version="1.1" viewBox="0 0 439.370079 297.637795" width="439.370079pt" xmlns="http://www.w3.org/2000/svg" xmlns:xlink="http://www.w3.org/1999/xlink">
 <defs>
  <style type="text/css">
*{stroke-linecap:butt;stroke-linejoin:round;}
  </style>
 </defs>
 <g id="figure_1">
  <g id="patch_1">
   <path d="M 0 297.637795 
L 439.370079 297.637795 
L 439.370079 0 
L 0 0 
z
" style="fill:#ffffff;"/>
  </g>
  <g id="axes_1">
   <g id="patch_2">
    <path d="M 56.597402 261.630551 
L 415.388976 261.630551 
L 415.388976 43.8 
L 56.597402 43.8 
z
" style="fill:#ffffff;"/>
   </g>
   <g id="matplotlib.axis_1">
    <g id="xtick_1">
     <g id="line2d_1">
      <path clip-path="url(#p1a36fed435)" d="M 56.597402 261.630551 
L 56.597402 43.8 
" style="fill:none;stroke:#000000;stroke-dasharray:0.7,1.155;stroke-dashoffset:0;stroke-width:0.7;"/>
     </g>
     <g id="line2d_2">
      <defs>
       <path d="M 0 0 
L 0 3.5 
" id="m3c34ab35fb" style="stroke:#000000;stroke-width:0.8;"/>
      </defs>
      <g>
       <use style="stroke:#000000;stroke-width:0.8;" x="56.597402" xlink:href="#m3c34ab35fb" y="261.630551"/>
      </g>
     </g>
     <g id="text_1">
      <!-- 0 -->
      <defs>
       <path d="M 31.78125 66.40625 
Q 24.171875 66.40625 20.328125 58.90625 
Q 16.5 51.421875 16.5 36.375 
Q 16.5 21.390625 20.328125 13.890625 
Q 24.171875 6.390625 31.78125 6.390625 
Q 39.453125 6.390625 43.28125 13.890625 
Q 47.125 21.390625 47.125 36.375 
Q 47.125 51.421875 43.28125 58.90625 
Q 39.453125 66.40625 31.78125 66.40625 
z
M 31.78125 74.21875 
Q 44.046875 74.21875 50.515625 64.515625 
Q 56.984375 54.828125 56.984375 36.375 
Q 56.984375 17.96875 50.515625 8.265625 
Q 44.046875 -1.421875 31.78125 -1.421875 
Q 19.53125 -1.421875 13.0625 8.265625 
Q 6.59375 17.96875 6.59375 36.375 
Q 6.59375 54.828125 13.0625 64.515625 
Q 19.53125 74.21875 31.78125 74.21875 
z
" id="DejaVuSans-48"/>
      </defs>
      <g transform="translate(53.416152 276.228989)scale(0.1 -0.1)">
       <use xlink:href="#DejaVuSans-48"/>
      </g>
     </g>
    </g>
    <g id="xtick_2">
     <g id="line2d_3">
      <path clip-path="url(#p1a36fed435)" d="M 101.558752 261.630551 
L 101.558752 43.8 
" style="fill:none;stroke:#000000;stroke-dasharray:0.7,1.155;stroke-dashoffset:0;stroke-width:0.7;"/>
     </g>
     <g id="line2d_4">
      <g>
       <use style="stroke:#000000;stroke-width:0.8;" x="101.558752" xlink:href="#m3c34ab35fb" y="261.630551"/>
      </g>
     </g>
     <g id="text_2">
      <!-- 5 -->
      <defs>
       <path d="M 10.796875 72.90625 
L 49.515625 72.90625 
L 49.515625 64.59375 
L 19.828125 64.59375 
L 19.828125 46.734375 
Q 21.96875 47.46875 24.109375 47.828125 
Q 26.265625 48.1875 28.421875 48.1875 
Q 40.625 48.1875 47.75 41.5 
Q 54.890625 34.8125 54.890625 23.390625 
Q 54.890625 11.625 47.5625 5.09375 
Q 40.234375 -1.421875 26.90625 -1.421875 
Q 22.3125 -1.421875 17.546875 -0.640625 
Q 12.796875 0.140625 7.71875 1.703125 
L 7.71875 11.625 
Q 12.109375 9.234375 16.796875 8.0625 
Q 21.484375 6.890625 26.703125 6.890625 
Q 35.15625 6.890625 40.078125 11.328125 
Q 45.015625 15.765625 45.015625 23.390625 
Q 45.015625 31 40.078125 35.4375 
Q 35.15625 39.890625 26.703125 39.890625 
Q 22.75 39.890625 18.8125 39.015625 
Q 14.890625 38.140625 10.796875 36.28125 
z
" id="DejaVuSans-53"/>
      </defs>
      <g transform="translate(98.377502 276.228989)scale(0.1 -0.1)">
       <use xlink:href="#DejaVuSans-53"/>
      </g>
     </g>
    </g>
    <g id="xtick_3">
     <g id="line2d_5">
      <path clip-path="url(#p1a36fed435)" d="M 146.520102 261.630551 
L 146.520102 43.8 
" style="fill:none;stroke:#000000;stroke-dasharray:0.7,1.155;stroke-dashoffset:0;stroke-width:0.7;"/>
     </g>
     <g id="line2d_6">
      <g>
       <use style="stroke:#000000;stroke-width:0.8;" x="146.520102" xlink:href="#m3c34ab35fb" y="261.630551"/>
      </g>
     </g>
     <g id="text_3">
      <!-- 10 -->
      <defs>
       <path d="M 12.40625 8.296875 
L 28.515625 8.296875 
L 28.515625 63.921875 
L 10.984375 60.40625 
L 10.984375 69.390625 
L 28.421875 72.90625 
L 38.28125 72.90625 
L 38.28125 8.296875 
L 54.390625 8.296875 
L 54.390625 0 
L 12.40625 0 
z
" id="DejaVuSans-49"/>
      </defs>
      <g transform="translate(140.157602 276.228989)scale(0.1 -0.1)">
       <use xlink:href="#DejaVuSans-49"/>
       <use x="63.623047" xlink:href="#DejaVuSans-48"/>
      </g>
     </g>
    </g>
    <g id="xtick_4">
     <g id="line2d_7">
      <path clip-path="url(#p1a36fed435)" d="M 191.481452 261.630551 
L 191.481452 43.8 
" style="fill:none;stroke:#000000;stroke-dasharray:0.7,1.155;stroke-dashoffset:0;stroke-width:0.7;"/>
     </g>
     <g id="line2d_8">
      <g>
       <use style="stroke:#000000;stroke-width:0.8;" x="191.481452" xlink:href="#m3c34ab35fb" y="261.630551"/>
      </g>
     </g>
     <g id="text_4">
      <!-- 15 -->
      <g transform="translate(185.118952 276.228989)scale(0.1 -0.1)">
       <use xlink:href="#DejaVuSans-49"/>
       <use x="63.623047" xlink:href="#DejaVuSans-53"/>
      </g>
     </g>
    </g>
    <g id="xtick_5">
     <g id="line2d_9">
      <path clip-path="url(#p1a36fed435)" d="M 236.442802 261.630551 
L 236.442802 43.8 
" style="fill:none;stroke:#000000;stroke-dasharray:0.7,1.155;stroke-dashoffset:0;stroke-width:0.7;"/>
     </g>
     <g id="line2d_10">
      <g>
       <use style="stroke:#000000;stroke-width:0.8;" x="236.442802" xlink:href="#m3c34ab35fb" y="261.630551"/>
      </g>
     </g>
     <g id="text_5">
      <!-- 20 -->
      <defs>
       <path d="M 19.1875 8.296875 
L 53.609375 8.296875 
L 53.609375 0 
L 7.328125 0 
L 7.328125 8.296875 
Q 12.9375 14.109375 22.625 23.890625 
Q 32.328125 33.6875 34.8125 36.53125 
Q 39.546875 41.84375 41.421875 45.53125 
Q 43.3125 49.21875 43.3125 52.78125 
Q 43.3125 58.59375 39.234375 62.25 
Q 35.15625 65.921875 28.609375 65.921875 
Q 23.96875 65.921875 18.8125 64.3125 
Q 13.671875 62.703125 7.8125 59.421875 
L 7.8125 69.390625 
Q 13.765625 71.78125 18.9375 73 
Q 24.125 74.21875 28.421875 74.21875 
Q 39.75 74.21875 46.484375 68.546875 
Q 53.21875 62.890625 53.21875 53.421875 
Q 53.21875 48.921875 51.53125 44.890625 
Q 49.859375 40.875 45.40625 35.40625 
Q 44.1875 33.984375 37.640625 27.21875 
Q 31.109375 20.453125 19.1875 8.296875 
z
" id="DejaVuSans-50"/>
      </defs>
      <g transform="translate(230.080302 276.228989)scale(0.1 -0.1)">
       <use xlink:href="#DejaVuSans-50"/>
       <use x="63.623047" xlink:href="#DejaVuSans-48"/>
      </g>
     </g>
    </g>
    <g id="xtick_6">
     <g id="line2d_11">
      <path clip-path="url(#p1a36fed435)" d="M 281.404153 261.630551 
L 281.404153 43.8 
" style="fill:none;stroke:#000000;stroke-dasharray:0.7,1.155;stroke-dashoffset:0;stroke-width:0.7;"/>
     </g>
     <g id="line2d_12">
      <g>
       <use style="stroke:#000000;stroke-width:0.8;" x="281.404153" xlink:href="#m3c34ab35fb" y="261.630551"/>
      </g>
     </g>
     <g id="text_6">
      <!-- 25 -->
      <g transform="translate(275.041653 276.228989)scale(0.1 -0.1)">
       <use xlink:href="#DejaVuSans-50"/>
       <use x="63.623047" xlink:href="#DejaVuSans-53"/>
      </g>
     </g>
    </g>
    <g id="xtick_7">
     <g id="line2d_13">
      <path clip-path="url(#p1a36fed435)" d="M 326.365503 261.630551 
L 326.365503 43.8 
" style="fill:none;stroke:#000000;stroke-dasharray:0.7,1.155;stroke-dashoffset:0;stroke-width:0.7;"/>
     </g>
     <g id="line2d_14">
      <g>
       <use style="stroke:#000000;stroke-width:0.8;" x="326.365503" xlink:href="#m3c34ab35fb" y="261.630551"/>
      </g>
     </g>
     <g id="text_7">
      <!-- 30 -->
      <defs>
       <path d="M 40.578125 39.3125 
Q 47.65625 37.796875 51.625 33 
Q 55.609375 28.21875 55.609375 21.1875 
Q 55.609375 10.40625 48.1875 4.484375 
Q 40.765625 -1.421875 27.09375 -1.421875 
Q 22.515625 -1.421875 17.65625 -0.515625 
Q 12.796875 0.390625 7.625 2.203125 
L 7.625 11.71875 
Q 11.71875 9.328125 16.59375 8.109375 
Q 21.484375 6.890625 26.8125 6.890625 
Q 36.078125 6.890625 40.9375 10.546875 
Q 45.796875 14.203125 45.796875 21.1875 
Q 45.796875 27.640625 41.28125 31.265625 
Q 36.765625 34.90625 28.71875 34.90625 
L 20.21875 34.90625 
L 20.21875 43.015625 
L 29.109375 43.015625 
Q 36.375 43.015625 40.234375 45.921875 
Q 44.09375 48.828125 44.09375 54.296875 
Q 44.09375 59.90625 40.109375 62.90625 
Q 36.140625 65.921875 28.71875 65.921875 
Q 24.65625 65.921875 20.015625 65.03125 
Q 15.375 64.15625 9.8125 62.3125 
L 9.8125 71.09375 
Q 15.4375 72.65625 20.34375 73.4375 
Q 25.25 74.21875 29.59375 74.21875 
Q 40.828125 74.21875 47.359375 69.109375 
Q 53.90625 64.015625 53.90625 55.328125 
Q 53.90625 49.265625 50.4375 45.09375 
Q 46.96875 40.921875 40.578125 39.3125 
z
" id="DejaVuSans-51"/>
      </defs>
      <g transform="translate(320.003003 276.228989)scale(0.1 -0.1)">
       <use xlink:href="#DejaVuSans-51"/>
       <use x="63.623047" xlink:href="#DejaVuSans-48"/>
      </g>
     </g>
    </g>
    <g id="xtick_8">
     <g id="line2d_15">
      <path clip-path="url(#p1a36fed435)" d="M 371.326853 261.630551 
L 371.326853 43.8 
" style="fill:none;stroke:#000000;stroke-dasharray:0.7,1.155;stroke-dashoffset:0;stroke-width:0.7;"/>
     </g>
     <g id="line2d_16">
      <g>
       <use style="stroke:#000000;stroke-width:0.8;" x="371.326853" xlink:href="#m3c34ab35fb" y="261.630551"/>
      </g>
     </g>
     <g id="text_8">
      <!-- 35 -->
      <g transform="translate(364.964353 276.228989)scale(0.1 -0.1)">
       <use xlink:href="#DejaVuSans-51"/>
       <use x="63.623047" xlink:href="#DejaVuSans-53"/>
      </g>
     </g>
    </g>
    <g id="text_9">
     <!-- Tempo (s) -->
     <defs>
      <path d="M -0.296875 72.90625 
L 61.375 72.90625 
L 61.375 64.59375 
L 35.5 64.59375 
L 35.5 0 
L 25.59375 0 
L 25.59375 64.59375 
L -0.296875 64.59375 
z
" id="DejaVuSans-84"/>
      <path d="M 56.203125 29.59375 
L 56.203125 25.203125 
L 14.890625 25.203125 
Q 15.484375 15.921875 20.484375 11.0625 
Q 25.484375 6.203125 34.421875 6.203125 
Q 39.59375 6.203125 44.453125 7.46875 
Q 49.3125 8.734375 54.109375 11.28125 
L 54.109375 2.78125 
Q 49.265625 0.734375 44.1875 -0.34375 
Q 39.109375 -1.421875 33.890625 -1.421875 
Q 20.796875 -1.421875 13.15625 6.1875 
Q 5.515625 13.8125 5.515625 26.8125 
Q 5.515625 40.234375 12.765625 48.109375 
Q 20.015625 56 32.328125 56 
Q 43.359375 56 49.78125 48.890625 
Q 56.203125 41.796875 56.203125 29.59375 
z
M 47.21875 32.234375 
Q 47.125 39.59375 43.09375 43.984375 
Q 39.0625 48.390625 32.421875 48.390625 
Q 24.90625 48.390625 20.390625 44.140625 
Q 15.875 39.890625 15.1875 32.171875 
z
" id="DejaVuSans-101"/>
      <path d="M 52 44.1875 
Q 55.375 50.25 60.0625 53.125 
Q 64.75 56 71.09375 56 
Q 79.640625 56 84.28125 50.015625 
Q 88.921875 44.046875 88.921875 33.015625 
L 88.921875 0 
L 79.890625 0 
L 79.890625 32.71875 
Q 79.890625 40.578125 77.09375 44.375 
Q 74.3125 48.1875 68.609375 48.1875 
Q 61.625 48.1875 57.5625 43.546875 
Q 53.515625 38.921875 53.515625 30.90625 
L 53.515625 0 
L 44.484375 0 
L 44.484375 32.71875 
Q 44.484375 40.625 41.703125 44.40625 
Q 38.921875 48.1875 33.109375 48.1875 
Q 26.21875 48.1875 22.15625 43.53125 
Q 18.109375 38.875 18.109375 30.90625 
L 18.109375 0 
L 9.078125 0 
L 9.078125 54.6875 
L 18.109375 54.6875 
L 18.109375 46.1875 
Q 21.1875 51.21875 25.484375 53.609375 
Q 29.78125 56 35.6875 56 
Q 41.65625 56 45.828125 52.96875 
Q 50 49.953125 52 44.1875 
z
" id="DejaVuSans-109"/>
      <path d="M 18.109375 8.203125 
L 18.109375 -20.796875 
L 9.078125 -20.796875 
L 9.078125 54.6875 
L 18.109375 54.6875 
L 18.109375 46.390625 
Q 20.953125 51.265625 25.265625 53.625 
Q 29.59375 56 35.59375 56 
Q 45.5625 56 51.78125 48.09375 
Q 58.015625 40.1875 58.015625 27.296875 
Q 58.015625 14.40625 51.78125 6.484375 
Q 45.5625 -1.421875 35.59375 -1.421875 
Q 29.59375 -1.421875 25.265625 0.953125 
Q 20.953125 3.328125 18.109375 8.203125 
z
M 48.6875 27.296875 
Q 48.6875 37.203125 44.609375 42.84375 
Q 40.53125 48.484375 33.40625 48.484375 
Q 26.265625 48.484375 22.1875 42.84375 
Q 18.109375 37.203125 18.109375 27.296875 
Q 18.109375 17.390625 22.1875 11.75 
Q 26.265625 6.109375 33.40625 6.109375 
Q 40.53125 6.109375 44.609375 11.75 
Q 48.6875 17.390625 48.6875 27.296875 
z
" id="DejaVuSans-112"/>
      <path d="M 30.609375 48.390625 
Q 23.390625 48.390625 19.1875 42.75 
Q 14.984375 37.109375 14.984375 27.296875 
Q 14.984375 17.484375 19.15625 11.84375 
Q 23.34375 6.203125 30.609375 6.203125 
Q 37.796875 6.203125 41.984375 11.859375 
Q 46.1875 17.53125 46.1875 27.296875 
Q 46.1875 37.015625 41.984375 42.703125 
Q 37.796875 48.390625 30.609375 48.390625 
z
M 30.609375 56 
Q 42.328125 56 49.015625 48.375 
Q 55.71875 40.765625 55.71875 27.296875 
Q 55.71875 13.875 49.015625 6.21875 
Q 42.328125 -1.421875 30.609375 -1.421875 
Q 18.84375 -1.421875 12.171875 6.21875 
Q 5.515625 13.875 5.515625 27.296875 
Q 5.515625 40.765625 12.171875 48.375 
Q 18.84375 56 30.609375 56 
z
" id="DejaVuSans-111"/>
      <path id="DejaVuSans-32"/>
      <path d="M 31 75.875 
Q 24.46875 64.65625 21.28125 53.65625 
Q 18.109375 42.671875 18.109375 31.390625 
Q 18.109375 20.125 21.3125 9.0625 
Q 24.515625 -2 31 -13.1875 
L 23.1875 -13.1875 
Q 15.875 -1.703125 12.234375 9.375 
Q 8.59375 20.453125 8.59375 31.390625 
Q 8.59375 42.28125 12.203125 53.3125 
Q 15.828125 64.359375 23.1875 75.875 
z
" id="DejaVuSans-40"/>
      <path d="M 44.28125 53.078125 
L 44.28125 44.578125 
Q 40.484375 46.53125 36.375 47.5 
Q 32.28125 48.484375 27.875 48.484375 
Q 21.1875 48.484375 17.84375 46.4375 
Q 14.5 44.390625 14.5 40.28125 
Q 14.5 37.15625 16.890625 35.375 
Q 19.28125 33.59375 26.515625 31.984375 
L 29.59375 31.296875 
Q 39.15625 29.25 43.1875 25.515625 
Q 47.21875 21.78125 47.21875 15.09375 
Q 47.21875 7.46875 41.1875 3.015625 
Q 35.15625 -1.421875 24.609375 -1.421875 
Q 20.21875 -1.421875 15.453125 -0.5625 
Q 10.6875 0.296875 5.421875 2 
L 5.421875 11.28125 
Q 10.40625 8.6875 15.234375 7.390625 
Q 20.0625 6.109375 24.8125 6.109375 
Q 31.15625 6.109375 34.5625 8.28125 
Q 37.984375 10.453125 37.984375 14.40625 
Q 37.984375 18.0625 35.515625 20.015625 
Q 33.0625 21.96875 24.703125 23.78125 
L 21.578125 24.515625 
Q 13.234375 26.265625 9.515625 29.90625 
Q 5.8125 33.546875 5.8125 39.890625 
Q 5.8125 47.609375 11.28125 51.796875 
Q 16.75 56 26.8125 56 
Q 31.78125 56 36.171875 55.265625 
Q 40.578125 54.546875 44.28125 53.078125 
z
" id="DejaVuSans-115"/>
      <path d="M 8.015625 75.875 
L 15.828125 75.875 
Q 23.140625 64.359375 26.78125 53.3125 
Q 30.421875 42.28125 30.421875 31.390625 
Q 30.421875 20.453125 26.78125 9.375 
Q 23.140625 -1.703125 15.828125 -13.1875 
L 8.015625 -13.1875 
Q 14.5 -2 17.703125 9.0625 
Q 20.90625 20.125 20.90625 31.390625 
Q 20.90625 42.671875 17.703125 53.65625 
Q 14.5 64.65625 8.015625 75.875 
z
" id="DejaVuSans-41"/>
     </defs>
     <g transform="translate(211.513501 289.907114)scale(0.1 -0.1)">
      <use xlink:href="#DejaVuSans-84"/>
      <use x="44.083984" xlink:href="#DejaVuSans-101"/>
      <use x="105.607422" xlink:href="#DejaVuSans-109"/>
      <use x="203.019531" xlink:href="#DejaVuSans-112"/>
      <use x="266.496094" xlink:href="#DejaVuSans-111"/>
      <use x="327.677734" xlink:href="#DejaVuSans-32"/>
      <use x="359.464844" xlink:href="#DejaVuSans-40"/>
      <use x="398.478516" xlink:href="#DejaVuSans-115"/>
      <use x="450.578125" xlink:href="#DejaVuSans-41"/>
     </g>
    </g>
   </g>
   <g id="matplotlib.axis_2">
    <g id="ytick_1">
     <g id="line2d_17">
      <path clip-path="url(#p1a36fed435)" d="M 56.597402 251.729162 
L 415.388976 251.729162 
" style="fill:none;stroke:#000000;stroke-dasharray:0.7,1.155;stroke-dashoffset:0;stroke-width:0.7;"/>
     </g>
     <g id="line2d_18">
      <defs>
       <path d="M 0 0 
L -3.5 0 
" id="me71386c47d" style="stroke:#000000;stroke-width:0.8;"/>
      </defs>
      <g>
       <use style="stroke:#000000;stroke-width:0.8;" x="56.597402" xlink:href="#me71386c47d" y="251.729162"/>
      </g>
     </g>
     <g id="text_10">
      <!-- 0.0 -->
      <defs>
       <path d="M 10.6875 12.40625 
L 21 12.40625 
L 21 0 
L 10.6875 0 
z
" id="DejaVuSans-46"/>
      </defs>
      <g transform="translate(33.694277 255.528381)scale(0.1 -0.1)">
       <use xlink:href="#DejaVuSans-48"/>
       <use x="63.623047" xlink:href="#DejaVuSans-46"/>
       <use x="95.410156" xlink:href="#DejaVuSans-48"/>
      </g>
     </g>
    </g>
    <g id="ytick_2">
     <g id="line2d_19">
      <path clip-path="url(#p1a36fed435)" d="M 56.597402 225.526801 
L 415.388976 225.526801 
" style="fill:none;stroke:#000000;stroke-dasharray:0.7,1.155;stroke-dashoffset:0;stroke-width:0.7;"/>
     </g>
     <g id="line2d_20">
      <g>
       <use style="stroke:#000000;stroke-width:0.8;" x="56.597402" xlink:href="#me71386c47d" y="225.526801"/>
      </g>
     </g>
     <g id="text_11">
      <!-- 0.2 -->
      <g transform="translate(33.694277 229.326019)scale(0.1 -0.1)">
       <use xlink:href="#DejaVuSans-48"/>
       <use x="63.623047" xlink:href="#DejaVuSans-46"/>
       <use x="95.410156" xlink:href="#DejaVuSans-50"/>
      </g>
     </g>
    </g>
    <g id="ytick_3">
     <g id="line2d_21">
      <path clip-path="url(#p1a36fed435)" d="M 56.597402 199.324439 
L 415.388976 199.324439 
" style="fill:none;stroke:#000000;stroke-dasharray:0.7,1.155;stroke-dashoffset:0;stroke-width:0.7;"/>
     </g>
     <g id="line2d_22">
      <g>
       <use style="stroke:#000000;stroke-width:0.8;" x="56.597402" xlink:href="#me71386c47d" y="199.324439"/>
      </g>
     </g>
     <g id="text_12">
      <!-- 0.4 -->
      <defs>
       <path d="M 37.796875 64.3125 
L 12.890625 25.390625 
L 37.796875 25.390625 
z
M 35.203125 72.90625 
L 47.609375 72.90625 
L 47.609375 25.390625 
L 58.015625 25.390625 
L 58.015625 17.1875 
L 47.609375 17.1875 
L 47.609375 0 
L 37.796875 0 
L 37.796875 17.1875 
L 4.890625 17.1875 
L 4.890625 26.703125 
z
" id="DejaVuSans-52"/>
      </defs>
      <g transform="translate(33.694277 203.123658)scale(0.1 -0.1)">
       <use xlink:href="#DejaVuSans-48"/>
       <use x="63.623047" xlink:href="#DejaVuSans-46"/>
       <use x="95.410156" xlink:href="#DejaVuSans-52"/>
      </g>
     </g>
    </g>
    <g id="ytick_4">
     <g id="line2d_23">
      <path clip-path="url(#p1a36fed435)" d="M 56.597402 173.122077 
L 415.388976 173.122077 
" style="fill:none;stroke:#000000;stroke-dasharray:0.7,1.155;stroke-dashoffset:0;stroke-width:0.7;"/>
     </g>
     <g id="line2d_24">
      <g>
       <use style="stroke:#000000;stroke-width:0.8;" x="56.597402" xlink:href="#me71386c47d" y="173.122077"/>
      </g>
     </g>
     <g id="text_13">
      <!-- 0.6 -->
      <defs>
       <path d="M 33.015625 40.375 
Q 26.375 40.375 22.484375 35.828125 
Q 18.609375 31.296875 18.609375 23.390625 
Q 18.609375 15.53125 22.484375 10.953125 
Q 26.375 6.390625 33.015625 6.390625 
Q 39.65625 6.390625 43.53125 10.953125 
Q 47.40625 15.53125 47.40625 23.390625 
Q 47.40625 31.296875 43.53125 35.828125 
Q 39.65625 40.375 33.015625 40.375 
z
M 52.59375 71.296875 
L 52.59375 62.3125 
Q 48.875 64.0625 45.09375 64.984375 
Q 41.3125 65.921875 37.59375 65.921875 
Q 27.828125 65.921875 22.671875 59.328125 
Q 17.53125 52.734375 16.796875 39.40625 
Q 19.671875 43.65625 24.015625 45.921875 
Q 28.375 48.1875 33.59375 48.1875 
Q 44.578125 48.1875 50.953125 41.515625 
Q 57.328125 34.859375 57.328125 23.390625 
Q 57.328125 12.15625 50.6875 5.359375 
Q 44.046875 -1.421875 33.015625 -1.421875 
Q 20.359375 -1.421875 13.671875 8.265625 
Q 6.984375 17.96875 6.984375 36.375 
Q 6.984375 53.65625 15.1875 63.9375 
Q 23.390625 74.21875 37.203125 74.21875 
Q 40.921875 74.21875 44.703125 73.484375 
Q 48.484375 72.75 52.59375 71.296875 
z
" id="DejaVuSans-54"/>
      </defs>
      <g transform="translate(33.694277 176.921296)scale(0.1 -0.1)">
       <use xlink:href="#DejaVuSans-48"/>
       <use x="63.623047" xlink:href="#DejaVuSans-46"/>
       <use x="95.410156" xlink:href="#DejaVuSans-54"/>
      </g>
     </g>
    </g>
    <g id="ytick_5">
     <g id="line2d_25">
      <path clip-path="url(#p1a36fed435)" d="M 56.597402 146.919715 
L 415.388976 146.919715 
" style="fill:none;stroke:#000000;stroke-dasharray:0.7,1.155;stroke-dashoffset:0;stroke-width:0.7;"/>
     </g>
     <g id="line2d_26">
      <g>
       <use style="stroke:#000000;stroke-width:0.8;" x="56.597402" xlink:href="#me71386c47d" y="146.919715"/>
      </g>
     </g>
     <g id="text_14">
      <!-- 0.8 -->
      <defs>
       <path d="M 31.78125 34.625 
Q 24.75 34.625 20.71875 30.859375 
Q 16.703125 27.09375 16.703125 20.515625 
Q 16.703125 13.921875 20.71875 10.15625 
Q 24.75 6.390625 31.78125 6.390625 
Q 38.8125 6.390625 42.859375 10.171875 
Q 46.921875 13.96875 46.921875 20.515625 
Q 46.921875 27.09375 42.890625 30.859375 
Q 38.875 34.625 31.78125 34.625 
z
M 21.921875 38.8125 
Q 15.578125 40.375 12.03125 44.71875 
Q 8.5 49.078125 8.5 55.328125 
Q 8.5 64.0625 14.71875 69.140625 
Q 20.953125 74.21875 31.78125 74.21875 
Q 42.671875 74.21875 48.875 69.140625 
Q 55.078125 64.0625 55.078125 55.328125 
Q 55.078125 49.078125 51.53125 44.71875 
Q 48 40.375 41.703125 38.8125 
Q 48.828125 37.15625 52.796875 32.3125 
Q 56.78125 27.484375 56.78125 20.515625 
Q 56.78125 9.90625 50.3125 4.234375 
Q 43.84375 -1.421875 31.78125 -1.421875 
Q 19.734375 -1.421875 13.25 4.234375 
Q 6.78125 9.90625 6.78125 20.515625 
Q 6.78125 27.484375 10.78125 32.3125 
Q 14.796875 37.15625 21.921875 38.8125 
z
M 18.3125 54.390625 
Q 18.3125 48.734375 21.84375 45.5625 
Q 25.390625 42.390625 31.78125 42.390625 
Q 38.140625 42.390625 41.71875 45.5625 
Q 45.3125 48.734375 45.3125 54.390625 
Q 45.3125 60.0625 41.71875 63.234375 
Q 38.140625 66.40625 31.78125 66.40625 
Q 25.390625 66.40625 21.84375 63.234375 
Q 18.3125 60.0625 18.3125 54.390625 
z
" id="DejaVuSans-56"/>
      </defs>
      <g transform="translate(33.694277 150.718934)scale(0.1 -0.1)">
       <use xlink:href="#DejaVuSans-48"/>
       <use x="63.623047" xlink:href="#DejaVuSans-46"/>
       <use x="95.410156" xlink:href="#DejaVuSans-56"/>
      </g>
     </g>
    </g>
    <g id="ytick_6">
     <g id="line2d_27">
      <path clip-path="url(#p1a36fed435)" d="M 56.597402 120.717353 
L 415.388976 120.717353 
" style="fill:none;stroke:#000000;stroke-dasharray:0.7,1.155;stroke-dashoffset:0;stroke-width:0.7;"/>
     </g>
     <g id="line2d_28">
      <g>
       <use style="stroke:#000000;stroke-width:0.8;" x="56.597402" xlink:href="#me71386c47d" y="120.717353"/>
      </g>
     </g>
     <g id="text_15">
      <!-- 1.0 -->
      <g transform="translate(33.694277 124.516572)scale(0.1 -0.1)">
       <use xlink:href="#DejaVuSans-49"/>
       <use x="63.623047" xlink:href="#DejaVuSans-46"/>
       <use x="95.410156" xlink:href="#DejaVuSans-48"/>
      </g>
     </g>
    </g>
    <g id="ytick_7">
     <g id="line2d_29">
      <path clip-path="url(#p1a36fed435)" d="M 56.597402 94.514992 
L 415.388976 94.514992 
" style="fill:none;stroke:#000000;stroke-dasharray:0.7,1.155;stroke-dashoffset:0;stroke-width:0.7;"/>
     </g>
     <g id="line2d_30">
      <g>
       <use style="stroke:#000000;stroke-width:0.8;" x="56.597402" xlink:href="#me71386c47d" y="94.514992"/>
      </g>
     </g>
     <g id="text_16">
      <!-- 1.2 -->
      <g transform="translate(33.694277 98.31421)scale(0.1 -0.1)">
       <use xlink:href="#DejaVuSans-49"/>
       <use x="63.623047" xlink:href="#DejaVuSans-46"/>
       <use x="95.410156" xlink:href="#DejaVuSans-50"/>
      </g>
     </g>
    </g>
    <g id="ytick_8">
     <g id="line2d_31">
      <path clip-path="url(#p1a36fed435)" d="M 56.597402 68.31263 
L 415.388976 68.31263 
" style="fill:none;stroke:#000000;stroke-dasharray:0.7,1.155;stroke-dashoffset:0;stroke-width:0.7;"/>
     </g>
     <g id="line2d_32">
      <g>
       <use style="stroke:#000000;stroke-width:0.8;" x="56.597402" xlink:href="#me71386c47d" y="68.31263"/>
      </g>
     </g>
     <g id="text_17">
      <!-- 1.4 -->
      <g transform="translate(33.694277 72.111849)scale(0.1 -0.1)">
       <use xlink:href="#DejaVuSans-49"/>
       <use x="63.623047" xlink:href="#DejaVuSans-46"/>
       <use x="95.410156" xlink:href="#DejaVuSans-52"/>
      </g>
     </g>
    </g>
    <g id="text_18">
     <!-- Valor -->
     <defs>
      <path d="M 28.609375 0 
L 0.78125 72.90625 
L 11.078125 72.90625 
L 34.1875 11.53125 
L 57.328125 72.90625 
L 67.578125 72.90625 
L 39.796875 0 
z
" id="DejaVuSans-86"/>
      <path d="M 34.28125 27.484375 
Q 23.390625 27.484375 19.1875 25 
Q 14.984375 22.515625 14.984375 16.5 
Q 14.984375 11.71875 18.140625 8.90625 
Q 21.296875 6.109375 26.703125 6.109375 
Q 34.1875 6.109375 38.703125 11.40625 
Q 43.21875 16.703125 43.21875 25.484375 
L 43.21875 27.484375 
z
M 52.203125 31.203125 
L 52.203125 0 
L 43.21875 0 
L 43.21875 8.296875 
Q 40.140625 3.328125 35.546875 0.953125 
Q 30.953125 -1.421875 24.3125 -1.421875 
Q 15.921875 -1.421875 10.953125 3.296875 
Q 6 8.015625 6 15.921875 
Q 6 25.140625 12.171875 29.828125 
Q 18.359375 34.515625 30.609375 34.515625 
L 43.21875 34.515625 
L 43.21875 35.40625 
Q 43.21875 41.609375 39.140625 45 
Q 35.0625 48.390625 27.6875 48.390625 
Q 23 48.390625 18.546875 47.265625 
Q 14.109375 46.140625 10.015625 43.890625 
L 10.015625 52.203125 
Q 14.9375 54.109375 19.578125 55.046875 
Q 24.21875 56 28.609375 56 
Q 40.484375 56 46.34375 49.84375 
Q 52.203125 43.703125 52.203125 31.203125 
z
" id="DejaVuSans-97"/>
      <path d="M 9.421875 75.984375 
L 18.40625 75.984375 
L 18.40625 0 
L 9.421875 0 
z
" id="DejaVuSans-108"/>
      <path d="M 41.109375 46.296875 
Q 39.59375 47.171875 37.8125 47.578125 
Q 36.03125 48 33.890625 48 
Q 26.265625 48 22.1875 43.046875 
Q 18.109375 38.09375 18.109375 28.8125 
L 18.109375 0 
L 9.078125 0 
L 9.078125 54.6875 
L 18.109375 54.6875 
L 18.109375 46.1875 
Q 20.953125 51.171875 25.484375 53.578125 
Q 30.03125 56 36.53125 56 
Q 37.453125 56 38.578125 55.875 
Q 39.703125 55.765625 41.0625 55.515625 
z
" id="DejaVuSans-114"/>
     </defs>
     <g transform="translate(27.614589 165.316057)rotate(-90)scale(0.1 -0.1)">
      <use xlink:href="#DejaVuSans-86"/>
      <use x="60.658203" xlink:href="#DejaVuSans-97"/>
      <use x="121.9375" xlink:href="#DejaVuSans-108"/>
      <use x="149.720703" xlink:href="#DejaVuSans-111"/>
      <use x="210.902344" xlink:href="#DejaVuSans-114"/>
     </g>
    </g>
   </g>
   <g id="line2d_33">
    <path clip-path="url(#p1a36fed435)" d="M 56.597402 251.729162 
L 101.558752 251.729162 
L 101.558752 55.211449 
L 191.481452 55.211449 
L 191.481452 186.223258 
L 281.404153 186.223258 
L 281.404153 120.717353 
L 371.326853 120.717353 
L 371.326853 55.211449 
L 415.388976 55.211449 
L 415.388976 55.211449 
" style="fill:none;stroke:#ff0000;stroke-dasharray:3.7,1.6;stroke-dashoffset:0;"/>
   </g>
   <g id="line2d_34">
    <path clip-path="url(#p1a36fed435)" d="M 56.597402 120.717353 
L 146.520102 120.717353 
L 146.520102 186.223258 
L 236.442802 186.223258 
L 236.442802 55.211449 
L 326.365503 55.211449 
L 326.365503 251.729162 
L 415.388976 251.729162 
L 415.388976 251.729162 
" style="fill:none;stroke:#008000;stroke-dasharray:3.7,1.6;stroke-dashoffset:0;"/>
   </g>
   <g id="line2d_35">
    <path clip-path="url(#p1a36fed435)" d="M 56.597402 249.061913 
L 57.496629 249.061913 
L 57.496629 245.441696 
L 58.395856 245.441696 
L 58.395856 241.97363 
L 59.295083 241.97363 
L 59.295083 237.984673 
L 60.19431 237.984673 
L 60.19431 232.424532 
L 61.093537 232.424532 
L 61.093537 223.681123 
L 61.992764 223.681123 
L 61.992764 209.324624 
L 62.891991 209.324624 
L 62.891991 185.837733 
L 63.791218 185.837733 
L 63.791218 149.953225 
L 64.690445 149.953225 
L 64.690445 114.651529 
L 65.589672 114.651529 
L 65.589672 93.581019 
L 66.488899 93.581019 
L 66.488899 88.558876 
L 67.388126 88.558876 
L 67.388126 91.591379 
L 68.287353 91.591379 
L 68.287353 96.267448 
L 69.18658 96.267448 
L 69.18658 101.223974 
L 70.085807 101.223974 
L 70.085807 105.907783 
L 70.985034 105.907783 
L 70.985034 110.060076 
L 71.884261 110.060076 
L 71.884261 113.578797 
L 72.783488 113.578797 
L 72.783488 116.426737 
L 73.682715 116.426737 
L 73.682715 118.639243 
L 74.581942 118.639243 
L 74.581942 120.271691 
L 75.481169 120.271691 
L 75.481169 121.410228 
L 76.380396 121.410228 
L 76.380396 122.136752 
L 77.279623 122.136752 
L 77.279623 122.54162 
L 78.17885 122.54162 
L 78.17885 122.699633 
L 79.977304 122.683972 
L 79.977304 122.549268 
L 80.876531 122.549268 
L 80.876531 122.345664 
L 81.775758 122.345664 
L 81.775758 122.106305 
L 82.674985 122.106305 
L 82.674985 121.860589 
L 83.574212 121.860589 
L 83.574212 121.624329 
L 84.473439 121.624329 
L 84.473439 121.411635 
L 85.372666 121.411635 
L 85.372666 121.226679 
L 86.271893 121.226679 
L 86.271893 121.073986 
L 87.17112 121.073986 
L 87.17112 120.95122 
L 88.969574 120.857915 
L 88.969574 120.788997 
L 102.457979 120.750366 
L 102.457979 119.374838 
L 103.357206 119.374838 
L 103.357206 115.773957 
L 104.256433 115.773957 
L 104.256433 110.854495 
L 105.15566 110.854495 
L 105.15566 105.442089 
L 106.054887 105.442089 
L 106.054887 100.144054 
L 106.954114 100.144054 
L 106.954114 95.38224 
L 107.853341 95.38224 
L 107.853341 91.40959 
L 108.752568 91.40959 
L 108.752568 88.348098 
L 109.651795 88.348098 
L 109.651795 86.203588 
L 110.551022 86.203588 
L 110.551022 84.918275 
L 111.450249 84.918275 
L 111.450249 84.377552 
L 113.248703 84.456335 
L 113.248703 85.014416 
L 114.14793 85.014416 
L 114.14793 85.928258 
L 115.047157 85.928258 
L 115.047157 87.079598 
L 115.946384 87.079598 
L 115.946384 88.374795 
L 116.845611 88.374795 
L 116.845611 89.732101 
L 117.744838 89.732101 
L 117.744838 91.092814 
L 118.644065 91.092814 
L 118.644065 92.410003 
L 119.543292 92.410003 
L 119.543292 93.654704 
L 120.442519 93.654704 
L 120.442519 94.806852 
L 121.341746 94.806852 
L 121.341746 95.858641 
L 122.240973 95.858641 
L 122.240973 96.807612 
L 123.1402 96.807612 
L 123.1402 97.658524 
L 124.039427 97.658524 
L 124.039427 98.418321 
L 124.938654 98.418321 
L 124.938654 99.097348 
L 125.837881 99.097348 
L 125.837881 99.705858 
L 126.737108 99.705858 
L 126.737108 100.255017 
L 127.636335 100.255017 
L 127.636335 100.754615 
L 128.535562 100.754615 
L 128.535562 101.214032 
L 129.434789 101.214032 
L 129.434789 101.640816 
L 130.334016 101.640816 
L 130.334016 102.041634 
L 131.233243 102.041634 
L 131.233243 102.421424 
L 132.13247 102.421424 
L 132.13247 102.784285 
L 133.031697 102.784285 
L 133.031697 103.132962 
L 133.930924 103.132962 
L 133.930924 103.469631 
L 134.830151 103.469631 
L 134.830151 103.795549 
L 135.729378 103.795549 
L 135.729378 104.1117 
L 136.628605 104.1117 
L 136.628605 104.418528 
L 137.527832 104.418528 
L 137.527832 104.716427 
L 138.427059 104.716427 
L 138.427059 105.005513 
L 139.326286 105.005513 
L 139.326286 105.285985 
L 140.225513 105.285985 
L 140.225513 105.557915 
L 141.12474 105.557915 
L 141.12474 105.821506 
L 142.023967 105.821506 
L 142.023967 106.076902 
L 142.923194 106.076902 
L 142.923194 106.324377 
L 143.822421 106.324377 
L 143.822421 106.564161 
L 144.721648 106.564161 
L 144.721648 106.796588 
L 145.620875 106.796588 
L 145.620875 107.021946 
L 146.520102 107.021946 
L 146.520102 107.240593 
L 147.419329 107.240593 
L 147.419329 110.231792 
L 148.318556 110.231792 
L 148.318556 117.256104 
L 149.217783 117.256104 
L 149.217783 126.30114 
L 150.11701 126.30114 
L 150.11701 135.793757 
L 151.016237 135.793757 
L 151.016237 144.701375 
L 151.915464 144.701375 
L 151.915464 152.4252 
L 152.814691 152.4252 
L 152.814691 158.694176 
L 153.713918 158.694176 
L 153.713918 163.450118 
L 154.613145 163.450118 
L 154.613145 166.787703 
L 155.512372 166.787703 
L 155.512372 168.874754 
L 156.411599 168.874754 
L 156.411599 169.941036 
L 157.310826 169.941036 
L 157.310826 170.215725 
L 158.210053 170.215725 
L 158.210053 169.942059 
L 159.10928 169.942059 
L 159.10928 169.322898 
L 160.008507 169.322898 
L 160.008507 168.548501 
L 160.907734 168.548501 
L 160.907734 167.751494 
L 161.806961 167.751494 
L 161.806961 167.041766 
L 162.706188 167.041766 
L 162.706188 166.473635 
L 163.605415 166.473635 
L 163.605415 166.082998 
L 164.504642 166.082998 
L 164.504642 165.865326 
L 167.202323 165.882646 
L 167.202323 166.056107 
L 168.10155 166.056107 
L 168.10155 166.29352 
L 169.000777 166.29352 
L 169.000777 166.569114 
L 169.900004 166.569114 
L 169.900004 166.856556 
L 170.799231 166.856556 
L 170.799231 167.140853 
L 171.698458 167.140853 
L 171.698458 167.408743 
L 172.597685 167.408743 
L 172.597685 167.655732 
L 173.496912 167.655732 
L 173.496912 167.878685 
L 174.396139 167.878685 
L 174.396139 168.079622 
L 175.295366 168.079622 
L 175.295366 168.260885 
L 176.194593 168.260885 
L 176.194593 168.426767 
L 177.09382 168.426767 
L 177.09382 168.581239 
L 177.993047 168.581239 
L 177.993047 168.72802 
L 178.892274 168.72802 
L 178.892274 168.87053 
L 179.791501 168.87053 
L 179.791501 169.010746 
L 180.690728 169.010746 
L 180.690728 169.150853 
L 181.589955 169.150853 
L 181.589955 169.291117 
L 182.489182 169.291117 
L 182.489182 169.432694 
L 183.388409 169.432694 
L 183.388409 169.574729 
L 184.287636 169.574729 
L 184.287636 169.717849 
L 185.186863 169.717849 
L 185.186863 169.860718 
L 186.08609 169.860718 
L 186.08609 170.003854 
L 186.985317 170.003854 
L 186.985317 170.14589 
L 187.884544 170.14589 
L 187.884544 170.287444 
L 188.783771 170.287444 
L 188.783771 170.427327 
L 189.682998 170.427327 
L 189.682998 170.566294 
L 190.582225 170.566294 
L 190.582225 170.703372 
L 191.481452 170.703372 
L 191.481452 170.839386 
L 192.380679 170.839386 
L 192.380679 171.892263 
L 193.279906 171.892263 
L 193.279906 174.389649 
L 194.179133 174.389649 
L 194.179133 177.588713 
L 195.07836 177.588713 
L 195.07836 180.797576 
L 195.977587 180.797576 
L 195.977587 183.59574 
L 196.876814 183.59574 
L 196.876814 185.791615 
L 197.776041 185.791615 
L 197.776041 187.351785 
L 198.675268 187.351785 
L 198.675268 188.339431 
L 199.574495 188.339431 
L 199.574495 188.864132 
L 200.473722 188.864132 
L 200.473722 189.049267 
L 202.272176 189.009885 
L 202.272176 188.842457 
L 203.171403 188.842457 
L 203.171403 188.619724 
L 204.07063 188.619724 
L 204.07063 188.391874 
L 204.969857 188.391874 
L 204.969857 188.188905 
L 205.869084 188.188905 
L 205.869084 188.02559 
L 206.768311 188.02559 
L 206.768311 187.905419 
L 208.566765 187.825177 
L 208.566765 187.77775 
L 233.745121 187.671236 
L 233.745121 187.665005 
L 237.342029 187.646218 
L 237.342029 180.803201 
L 238.241256 180.803201 
L 238.241256 164.462864 
L 239.140483 164.462864 
L 239.140483 145.74553 
L 240.03971 145.74553 
L 240.03971 127.373922 
L 240.938938 127.373922 
L 240.938938 111.063111 
L 241.838165 111.063111 
L 241.838165 97.706433 
L 242.737392 97.706433 
L 242.737392 87.421064 
L 243.636619 87.421064 
L 243.636619 79.997175 
L 244.535846 79.997175 
L 244.535846 75.122874 
L 245.435073 75.122874 
L 245.435073 72.293092 
L 246.3343 72.293092 
L 246.3343 71.108199 
L 248.132754 71.000044 
L 248.132754 71.621553 
L 249.031981 71.621553 
L 249.031981 72.50695 
L 249.931208 72.50695 
L 249.931208 73.455916 
L 250.830435 73.455916 
L 250.830435 74.203466 
L 251.729662 74.203466 
L 251.729662 74.708655 
L 252.628889 74.708655 
L 252.628889 74.892723 
L 254.427343 74.810901 
L 254.427343 74.488295 
L 255.32657 74.488295 
L 255.32657 74.002318 
L 256.225797 74.002318 
L 256.225797 73.407019 
L 257.125024 73.407019 
L 257.125024 72.758842 
L 258.024251 72.758842 
L 258.024251 72.102419 
L 258.923478 72.102419 
L 258.923478 71.461989 
L 259.822705 71.461989 
L 259.822705 70.86397 
L 260.721932 70.86397 
L 260.721932 70.30694 
L 261.621159 70.30694 
L 261.621159 69.804288 
L 262.520386 69.804288 
L 262.520386 69.340427 
L 263.419613 69.340427 
L 263.419613 68.923423 
L 264.31884 68.923423 
L 264.31884 68.53296 
L 265.218067 68.53296 
L 265.218067 68.176885 
L 266.117294 68.176885 
L 266.117294 67.835543 
L 267.016521 67.835543 
L 267.016521 67.518348 
L 267.915748 67.518348 
L 267.915748 67.208359 
L 268.814975 67.208359 
L 268.814975 66.916231 
L 269.714202 66.916231 
L 269.714202 66.627923 
L 270.613429 66.627923 
L 270.613429 66.354264 
L 271.512656 66.354264 
L 271.512656 66.083635 
L 272.411883 66.083635 
L 272.411883 65.826081 
L 273.31111 65.826081 
L 273.31111 65.571888 
L 274.210337 65.571888 
L 274.210337 65.32977 
L 275.109564 65.32977 
L 275.109564 65.091562 
L 276.008791 65.091562 
L 276.008791 64.864485 
L 276.908018 64.864485 
L 276.908018 64.641706 
L 277.807245 64.641706 
L 277.807245 64.429032 
L 278.706472 64.429032 
L 278.706472 64.220821 
L 279.605699 64.220821 
L 279.605699 64.02165 
L 280.504926 64.02165 
L 280.504926 63.826936 
L 281.404153 63.826936 
L 281.404153 63.640239 
L 282.30338 63.640239 
L 282.30338 62.998539 
L 283.202607 62.998539 
L 283.202607 61.671737 
L 284.101834 61.671737 
L 284.101834 60.042311 
L 285.001061 60.042311 
L 285.001061 58.424156 
L 285.900288 58.424156 
L 285.900288 56.996172 
L 286.799515 56.996172 
L 286.799515 55.84305 
L 287.698742 55.84305 
L 287.698742 54.979071 
L 288.597969 54.979071 
L 288.597969 54.380866 
L 289.497196 54.380866 
L 289.497196 54.002616 
L 290.396423 54.002616 
L 290.396423 53.794493 
L 295.791785 53.884285 
L 295.791785 53.957442 
L 297.590239 54.023282 
L 297.590239 54.079763 
L 300.28792 54.164259 
L 300.28792 54.194692 
L 306.582509 54.301547 
L 306.582509 54.315083 
L 314.675552 54.419389 
L 314.675552 54.431646 
L 324.567049 54.540367 
L 324.567049 54.549986 
L 327.26473 54.56864 
L 327.26473 64.132938 
L 328.163957 64.132938 
L 328.163957 87.62073 
L 329.063184 87.62073 
L 329.063184 116.235266 
L 329.962411 116.235266 
L 329.962411 144.129141 
L 330.861638 144.129141 
L 330.861638 169.061046 
L 331.760865 169.061046 
L 331.760865 190.189664 
L 332.660092 190.189664 
L 332.660092 207.2835 
L 333.559319 207.2835 
L 333.559319 220.441234 
L 334.458546 220.441234 
L 334.458546 229.978778 
L 335.357773 229.978778 
L 335.357773 236.345489 
L 336.257 236.345489 
L 336.257 240.056292 
L 337.156227 240.056292 
L 337.156227 241.649498 
L 338.954681 241.643944 
L 338.954681 240.523578 
L 339.853908 240.523578 
L 339.853908 238.709486 
L 340.753135 238.709486 
L 340.753135 236.559683 
L 341.652362 236.559683 
L 341.652362 234.351961 
L 342.551589 234.351961 
L 342.551589 232.294244 
L 343.450816 232.294244 
L 343.450816 230.518551 
L 344.350043 230.518551 
L 344.350043 229.098979 
L 345.24927 229.098979 
L 345.24927 228.054623 
L 346.148497 228.054623 
L 346.148497 227.369715 
L 347.047724 227.369715 
L 347.047724 227.000032 
L 349.745405 226.975189 
L 349.745405 227.197936 
L 350.644632 227.197936 
L 350.644632 227.504186 
L 351.543859 227.504186 
L 351.543859 227.850561 
L 352.443086 227.850561 
L 352.443086 228.203573 
L 353.342313 228.203573 
L 353.342313 228.540004 
L 354.24154 228.540004 
L 354.24154 228.84557 
L 355.140767 228.84557 
L 355.140767 229.113204 
L 356.039994 229.113204 
L 356.039994 229.341796 
L 356.939221 229.341796 
L 356.939221 229.533753 
L 357.838448 229.533753 
L 357.838448 229.694467 
L 358.737675 229.694467 
L 358.737675 229.829883 
L 359.636902 229.829883 
L 359.636902 229.946883 
L 361.435356 230.051137 
L 361.435356 230.148257 
L 363.23381 230.241966 
L 363.23381 230.335726 
L 365.032264 230.431143 
L 365.032264 230.529785 
L 366.830718 230.631722 
L 366.830718 230.737318 
L 368.629172 230.845856 
L 368.629172 230.957162 
L 369.528399 230.957162 
L 369.528399 231.070323 
L 370.427626 231.070323 
L 370.427626 231.185072 
L 371.326853 231.185072 
L 371.326853 231.300626 
L 372.22608 231.300626 
L 372.22608 230.957475 
L 373.125307 230.957475 
L 373.125307 229.890112 
L 374.024534 229.890112 
L 374.024534 228.452531 
L 374.923761 228.452531 
L 374.923761 226.972494 
L 375.822988 226.972494 
L 375.822988 225.667438 
L 376.722215 225.667438 
L 376.722215 224.655739 
L 377.621442 224.655739 
L 377.621442 223.977607 
L 378.520669 223.977607 
L 378.520669 223.617595 
L 381.21835 223.645062 
L 381.21835 223.907377 
L 382.117577 223.907377 
L 382.117577 224.259636 
L 383.016804 224.259636 
L 383.016804 224.658972 
L 383.916031 224.658972 
L 383.916031 225.074919 
L 384.815258 225.074919 
L 384.815258 225.488235 
L 385.714485 225.488235 
L 385.714485 225.888407 
L 386.613712 225.888407 
L 386.613712 226.271227 
L 387.512939 226.271227 
L 387.512939 226.636398 
L 388.412166 226.636398 
L 388.412166 226.985784 
L 389.311393 226.985784 
L 389.311393 227.322065 
L 390.21062 227.322065 
L 390.21062 227.647963 
L 391.109847 227.647963 
L 391.109847 227.965794 
L 392.009074 227.965794 
L 392.009074 228.277329 
L 392.908301 228.277329 
L 392.908301 228.583793 
L 393.807528 228.583793 
L 393.807528 228.88597 
L 394.706755 228.88597 
L 394.706755 229.184313 
L 395.605982 229.184313 
L 395.605982 229.479062 
L 396.505209 229.479062 
L 396.505209 229.770332 
L 397.404436 229.770332 
L 397.404436 230.05817 
L 398.303663 230.05817 
L 398.303663 230.342599 
L 399.20289 230.342599 
L 399.20289 230.623633 
L 400.102117 230.623633 
L 400.102117 230.901292 
L 401.001344 230.901292 
L 401.001344 231.175597 
L 401.900571 231.175597 
L 401.900571 231.446578 
L 402.799798 231.446578 
L 402.799798 231.714266 
L 403.699025 231.714266 
L 403.699025 231.978693 
L 404.598252 231.978693 
L 404.598252 232.239896 
L 405.497479 232.239896 
L 405.497479 232.497908 
L 406.396706 232.497908 
L 406.396706 232.752765 
L 407.295933 232.752765 
L 407.295933 233.004502 
L 408.19516 233.004502 
L 408.19516 233.253153 
L 409.094387 233.253153 
L 409.094387 233.498755 
L 409.993614 233.498755 
L 409.993614 233.74134 
L 410.892841 233.74134 
L 410.892841 233.980943 
L 411.792068 233.980943 
L 411.792068 234.217598 
L 412.691295 234.217598 
L 412.691295 234.451339 
L 413.590522 234.451339 
L 413.590522 234.682198 
L 414.489749 234.682198 
L 414.489749 234.910209 
L 415.388976 234.910209 
L 415.388976 235.135405 
L 415.388976 235.135405 
" style="fill:none;stroke:#0000ff;stroke-linecap:square;"/>
   </g>
   <g id="patch_3">
    <path d="M 56.597402 261.630551 
L 56.597402 43.8 
" style="fill:none;stroke:#000000;stroke-linecap:square;stroke-linejoin:miter;stroke-width:0.8;"/>
   </g>
   <g id="patch_4">
    <path d="M 415.388976 261.630551 
L 415.388976 43.8 
" style="fill:none;stroke:#000000;stroke-linecap:square;stroke-linejoin:miter;stroke-width:0.8;"/>
   </g>
   <g id="patch_5">
    <path d="M 56.597402 261.630551 
L 415.388976 261.630551 
" style="fill:none;stroke:#000000;stroke-linecap:square;stroke-linejoin:miter;stroke-width:0.8;"/>
   </g>
   <g id="patch_6">
    <path d="M 56.597402 43.8 
L 415.388976 43.8 
" style="fill:none;stroke:#000000;stroke-linecap:square;stroke-linejoin:miter;stroke-width:0.8;"/>
   </g>
   <g id="text_19">
    <!-- Saída do sistema sem rejeição de -->
    <defs>
     <path d="M 53.515625 70.515625 
L 53.515625 60.890625 
Q 47.90625 63.578125 42.921875 64.890625 
Q 37.9375 66.21875 33.296875 66.21875 
Q 25.25 66.21875 20.875 63.09375 
Q 16.5 59.96875 16.5 54.203125 
Q 16.5 49.359375 19.40625 46.890625 
Q 22.3125 44.4375 30.421875 42.921875 
L 36.375 41.703125 
Q 47.40625 39.59375 52.65625 34.296875 
Q 57.90625 29 57.90625 20.125 
Q 57.90625 9.515625 50.796875 4.046875 
Q 43.703125 -1.421875 29.984375 -1.421875 
Q 24.8125 -1.421875 18.96875 -0.25 
Q 13.140625 0.921875 6.890625 3.21875 
L 6.890625 13.375 
Q 12.890625 10.015625 18.65625 8.296875 
Q 24.421875 6.59375 29.984375 6.59375 
Q 38.421875 6.59375 43.015625 9.90625 
Q 47.609375 13.234375 47.609375 19.390625 
Q 47.609375 24.75 44.3125 27.78125 
Q 41.015625 30.8125 33.5 32.328125 
L 27.484375 33.5 
Q 16.453125 35.6875 11.515625 40.375 
Q 6.59375 45.0625 6.59375 53.421875 
Q 6.59375 63.09375 13.40625 68.65625 
Q 20.21875 74.21875 32.171875 74.21875 
Q 37.3125 74.21875 42.625 73.28125 
Q 47.953125 72.359375 53.515625 70.515625 
z
" id="DejaVuSans-83"/>
     <path d="M 20.703125 79.984375 
L 30.421875 79.984375 
L 14.5 61.625 
L 7.03125 61.625 
z
M 9.421875 54.6875 
L 18.40625 54.6875 
L 18.40625 0 
L 9.421875 0 
z
M 13.921875 56 
z
" id="DejaVuSans-237"/>
     <path d="M 45.40625 46.390625 
L 45.40625 75.984375 
L 54.390625 75.984375 
L 54.390625 0 
L 45.40625 0 
L 45.40625 8.203125 
Q 42.578125 3.328125 38.25 0.953125 
Q 33.9375 -1.421875 27.875 -1.421875 
Q 17.96875 -1.421875 11.734375 6.484375 
Q 5.515625 14.40625 5.515625 27.296875 
Q 5.515625 40.1875 11.734375 48.09375 
Q 17.96875 56 27.875 56 
Q 33.9375 56 38.25 53.625 
Q 42.578125 51.265625 45.40625 46.390625 
z
M 14.796875 27.296875 
Q 14.796875 17.390625 18.875 11.75 
Q 22.953125 6.109375 30.078125 6.109375 
Q 37.203125 6.109375 41.296875 11.75 
Q 45.40625 17.390625 45.40625 27.296875 
Q 45.40625 37.203125 41.296875 42.84375 
Q 37.203125 48.484375 30.078125 48.484375 
Q 22.953125 48.484375 18.875 42.84375 
Q 14.796875 37.203125 14.796875 27.296875 
z
" id="DejaVuSans-100"/>
     <path d="M 9.421875 54.6875 
L 18.40625 54.6875 
L 18.40625 0 
L 9.421875 0 
z
M 9.421875 75.984375 
L 18.40625 75.984375 
L 18.40625 64.59375 
L 9.421875 64.59375 
z
" id="DejaVuSans-105"/>
     <path d="M 18.3125 70.21875 
L 18.3125 54.6875 
L 36.8125 54.6875 
L 36.8125 47.703125 
L 18.3125 47.703125 
L 18.3125 18.015625 
Q 18.3125 11.328125 20.140625 9.421875 
Q 21.96875 7.515625 27.59375 7.515625 
L 36.8125 7.515625 
L 36.8125 0 
L 27.59375 0 
Q 17.1875 0 13.234375 3.875 
Q 9.28125 7.765625 9.28125 18.015625 
L 9.28125 47.703125 
L 2.6875 47.703125 
L 2.6875 54.6875 
L 9.28125 54.6875 
L 9.28125 70.21875 
z
" id="DejaVuSans-116"/>
     <path d="M 9.421875 54.6875 
L 18.40625 54.6875 
L 18.40625 -0.984375 
Q 18.40625 -11.421875 14.421875 -16.109375 
Q 10.453125 -20.796875 1.609375 -20.796875 
L -1.8125 -20.796875 
L -1.8125 -13.1875 
L 0.59375 -13.1875 
Q 5.71875 -13.1875 7.5625 -10.8125 
Q 9.421875 -8.453125 9.421875 -0.984375 
z
M 9.421875 75.984375 
L 18.40625 75.984375 
L 18.40625 64.59375 
L 9.421875 64.59375 
z
" id="DejaVuSans-106"/>
     <path d="M 48.78125 52.59375 
L 48.78125 44.1875 
Q 44.96875 46.296875 41.140625 47.34375 
Q 37.3125 48.390625 33.40625 48.390625 
Q 24.65625 48.390625 19.8125 42.84375 
Q 14.984375 37.3125 14.984375 27.296875 
Q 14.984375 17.28125 19.8125 11.734375 
Q 24.65625 6.203125 33.40625 6.203125 
Q 37.3125 6.203125 41.140625 7.25 
Q 44.96875 8.296875 48.78125 10.40625 
L 48.78125 2.09375 
Q 45.015625 0.34375 40.984375 -0.53125 
Q 36.96875 -1.421875 32.421875 -1.421875 
Q 20.0625 -1.421875 12.78125 6.34375 
Q 5.515625 14.109375 5.515625 27.296875 
Q 5.515625 40.671875 12.859375 48.328125 
Q 20.21875 56 33.015625 56 
Q 37.15625 56 41.109375 55.140625 
Q 45.0625 54.296875 48.78125 52.59375 
z
M 36.078125 0 
Q 38.765625 -3.03125 40.078125 -5.59375 
Q 41.40625 -8.15625 41.40625 -10.5 
Q 41.40625 -14.84375 38.46875 -17.0625 
Q 35.546875 -19.28125 29.78125 -19.28125 
Q 27.546875 -19.28125 25.421875 -18.984375 
Q 23.296875 -18.703125 21.1875 -18.109375 
L 21.1875 -11.71875 
Q 22.859375 -12.546875 24.65625 -12.90625 
Q 26.46875 -13.28125 28.765625 -13.28125 
Q 31.640625 -13.28125 33.109375 -12.109375 
Q 34.578125 -10.9375 34.578125 -8.6875 
Q 34.578125 -7.234375 33.515625 -5.109375 
Q 32.46875 -2.984375 30.28125 0 
z
" id="DejaVuSans-231"/>
     <path d="M 34.28125 27.484375 
Q 23.390625 27.484375 19.1875 25 
Q 14.984375 22.515625 14.984375 16.5 
Q 14.984375 11.71875 18.140625 8.90625 
Q 21.296875 6.109375 26.703125 6.109375 
Q 34.1875 6.109375 38.703125 11.40625 
Q 43.21875 16.703125 43.21875 25.484375 
L 43.21875 27.484375 
z
M 52.203125 31.203125 
L 52.203125 0 
L 43.21875 0 
L 43.21875 8.296875 
Q 40.140625 3.328125 35.546875 0.953125 
Q 30.953125 -1.421875 24.3125 -1.421875 
Q 15.921875 -1.421875 10.953125 3.296875 
Q 6 8.015625 6 15.921875 
Q 6 25.140625 12.171875 29.828125 
Q 18.359375 34.515625 30.609375 34.515625 
L 43.21875 34.515625 
L 43.21875 35.40625 
Q 43.21875 41.609375 39.140625 45 
Q 35.0625 48.390625 27.6875 48.390625 
Q 23 48.390625 18.546875 47.265625 
Q 14.109375 46.140625 10.015625 43.890625 
L 10.015625 52.203125 
Q 14.9375 54.109375 19.578125 55.046875 
Q 24.21875 56 28.609375 56 
Q 40.484375 56 46.34375 49.84375 
Q 52.203125 43.703125 52.203125 31.203125 
z
M 28.8125 66.890625 
L 26.03125 69.578125 
Q 24.953125 70.5625 24.140625 71.015625 
Q 23.34375 71.484375 22.703125 71.484375 
Q 20.84375 71.484375 19.96875 69.703125 
Q 19.09375 67.921875 19 63.921875 
L 12.890625 63.921875 
Q 12.984375 70.515625 15.46875 74.09375 
Q 17.96875 77.6875 22.40625 77.6875 
Q 24.265625 77.6875 25.828125 77 
Q 27.390625 76.3125 29.203125 74.703125 
L 31.984375 72.015625 
Q 33.0625 71.046875 33.859375 70.578125 
Q 34.671875 70.125 35.296875 70.125 
Q 37.15625 70.125 38.03125 71.90625 
Q 38.921875 73.6875 39.015625 77.6875 
L 45.125 77.6875 
Q 45.015625 71.09375 42.53125 67.5 
Q 40.046875 63.921875 35.59375 63.921875 
Q 33.734375 63.921875 32.171875 64.59375 
Q 30.609375 65.28125 28.8125 66.890625 
z
" id="DejaVuSans-227"/>
    </defs>
    <g transform="translate(118.164595 21.836938)scale(0.14 -0.14)">
     <use xlink:href="#DejaVuSans-83"/>
     <use x="63.476562" xlink:href="#DejaVuSans-97"/>
     <use x="124.755859" xlink:href="#DejaVuSans-237"/>
     <use x="152.539062" xlink:href="#DejaVuSans-100"/>
     <use x="216.015625" xlink:href="#DejaVuSans-97"/>
     <use x="277.294922" xlink:href="#DejaVuSans-32"/>
     <use x="309.082031" xlink:href="#DejaVuSans-100"/>
     <use x="372.558594" xlink:href="#DejaVuSans-111"/>
     <use x="433.740234" xlink:href="#DejaVuSans-32"/>
     <use x="465.527344" xlink:href="#DejaVuSans-115"/>
     <use x="517.626953" xlink:href="#DejaVuSans-105"/>
     <use x="545.410156" xlink:href="#DejaVuSans-115"/>
     <use x="597.509766" xlink:href="#DejaVuSans-116"/>
     <use x="636.71875" xlink:href="#DejaVuSans-101"/>
     <use x="698.242188" xlink:href="#DejaVuSans-109"/>
     <use x="795.654297" xlink:href="#DejaVuSans-97"/>
     <use x="856.933594" xlink:href="#DejaVuSans-32"/>
     <use x="888.720703" xlink:href="#DejaVuSans-115"/>
     <use x="940.820312" xlink:href="#DejaVuSans-101"/>
     <use x="1002.34375" xlink:href="#DejaVuSans-109"/>
     <use x="1099.755859" xlink:href="#DejaVuSans-32"/>
     <use x="1131.542969" xlink:href="#DejaVuSans-114"/>
     <use x="1170.40625" xlink:href="#DejaVuSans-101"/>
     <use x="1231.929688" xlink:href="#DejaVuSans-106"/>
     <use x="1259.712891" xlink:href="#DejaVuSans-101"/>
     <use x="1321.236328" xlink:href="#DejaVuSans-105"/>
     <use x="1349.019531" xlink:href="#DejaVuSans-231"/>
     <use x="1404" xlink:href="#DejaVuSans-227"/>
     <use x="1465.279297" xlink:href="#DejaVuSans-111"/>
     <use x="1526.460938" xlink:href="#DejaVuSans-32"/>
     <use x="1558.248047" xlink:href="#DejaVuSans-100"/>
     <use x="1621.724609" xlink:href="#DejaVuSans-101"/>
    </g>
    <!-- perturbações do tipo degrau -->
    <defs>
     <path d="M 8.5 21.578125 
L 8.5 54.6875 
L 17.484375 54.6875 
L 17.484375 21.921875 
Q 17.484375 14.15625 20.5 10.265625 
Q 23.53125 6.390625 29.59375 6.390625 
Q 36.859375 6.390625 41.078125 11.03125 
Q 45.3125 15.671875 45.3125 23.6875 
L 45.3125 54.6875 
L 54.296875 54.6875 
L 54.296875 0 
L 45.3125 0 
L 45.3125 8.40625 
Q 42.046875 3.421875 37.71875 1 
Q 33.40625 -1.421875 27.6875 -1.421875 
Q 18.265625 -1.421875 13.375 4.4375 
Q 8.5 10.296875 8.5 21.578125 
z
M 31.109375 56 
z
" id="DejaVuSans-117"/>
     <path d="M 48.6875 27.296875 
Q 48.6875 37.203125 44.609375 42.84375 
Q 40.53125 48.484375 33.40625 48.484375 
Q 26.265625 48.484375 22.1875 42.84375 
Q 18.109375 37.203125 18.109375 27.296875 
Q 18.109375 17.390625 22.1875 11.75 
Q 26.265625 6.109375 33.40625 6.109375 
Q 40.53125 6.109375 44.609375 11.75 
Q 48.6875 17.390625 48.6875 27.296875 
z
M 18.109375 46.390625 
Q 20.953125 51.265625 25.265625 53.625 
Q 29.59375 56 35.59375 56 
Q 45.5625 56 51.78125 48.09375 
Q 58.015625 40.1875 58.015625 27.296875 
Q 58.015625 14.40625 51.78125 6.484375 
Q 45.5625 -1.421875 35.59375 -1.421875 
Q 29.59375 -1.421875 25.265625 0.953125 
Q 20.953125 3.328125 18.109375 8.203125 
L 18.109375 0 
L 9.078125 0 
L 9.078125 75.984375 
L 18.109375 75.984375 
z
" id="DejaVuSans-98"/>
     <path d="M 30.609375 48.390625 
Q 23.390625 48.390625 19.1875 42.75 
Q 14.984375 37.109375 14.984375 27.296875 
Q 14.984375 17.484375 19.15625 11.84375 
Q 23.34375 6.203125 30.609375 6.203125 
Q 37.796875 6.203125 41.984375 11.859375 
Q 46.1875 17.53125 46.1875 27.296875 
Q 46.1875 37.015625 41.984375 42.703125 
Q 37.796875 48.390625 30.609375 48.390625 
z
M 30.609375 56 
Q 42.328125 56 49.015625 48.375 
Q 55.71875 40.765625 55.71875 27.296875 
Q 55.71875 13.875 49.015625 6.21875 
Q 42.328125 -1.421875 30.609375 -1.421875 
Q 18.84375 -1.421875 12.171875 6.21875 
Q 5.515625 13.875 5.515625 27.296875 
Q 5.515625 40.765625 12.171875 48.375 
Q 18.84375 56 30.609375 56 
z
M 30.421875 66.890625 
L 27.640625 69.578125 
Q 26.5625 70.5625 25.75 71.015625 
Q 24.953125 71.484375 24.3125 71.484375 
Q 22.46875 71.484375 21.578125 69.703125 
Q 20.703125 67.921875 20.609375 63.921875 
L 14.5 63.921875 
Q 14.59375 70.515625 17.078125 74.09375 
Q 19.578125 77.6875 24.03125 77.6875 
Q 25.875 77.6875 27.4375 77 
Q 29 76.3125 30.8125 74.703125 
L 33.59375 72.015625 
Q 34.671875 71.046875 35.46875 70.578125 
Q 36.28125 70.125 36.921875 70.125 
Q 38.765625 70.125 39.640625 71.90625 
Q 40.53125 73.6875 40.625 77.6875 
L 46.734375 77.6875 
Q 46.625 71.09375 44.140625 67.5 
Q 41.65625 63.921875 37.203125 63.921875 
Q 35.359375 63.921875 33.796875 64.59375 
Q 32.234375 65.28125 30.421875 66.890625 
z
" id="DejaVuSans-245"/>
     <path d="M 45.40625 27.984375 
Q 45.40625 37.75 41.375 43.109375 
Q 37.359375 48.484375 30.078125 48.484375 
Q 22.859375 48.484375 18.828125 43.109375 
Q 14.796875 37.75 14.796875 27.984375 
Q 14.796875 18.265625 18.828125 12.890625 
Q 22.859375 7.515625 30.078125 7.515625 
Q 37.359375 7.515625 41.375 12.890625 
Q 45.40625 18.265625 45.40625 27.984375 
z
M 54.390625 6.78125 
Q 54.390625 -7.171875 48.1875 -13.984375 
Q 42 -20.796875 29.203125 -20.796875 
Q 24.46875 -20.796875 20.265625 -20.09375 
Q 16.0625 -19.390625 12.109375 -17.921875 
L 12.109375 -9.1875 
Q 16.0625 -11.328125 19.921875 -12.34375 
Q 23.78125 -13.375 27.78125 -13.375 
Q 36.625 -13.375 41.015625 -8.765625 
Q 45.40625 -4.15625 45.40625 5.171875 
L 45.40625 9.625 
Q 42.625 4.78125 38.28125 2.390625 
Q 33.9375 0 27.875 0 
Q 17.828125 0 11.671875 7.65625 
Q 5.515625 15.328125 5.515625 27.984375 
Q 5.515625 40.671875 11.671875 48.328125 
Q 17.828125 56 27.875 56 
Q 33.9375 56 38.28125 53.609375 
Q 42.625 51.21875 45.40625 46.390625 
L 45.40625 54.6875 
L 54.390625 54.6875 
z
" id="DejaVuSans-103"/>
    </defs>
    <g transform="translate(135.871314 37.8)scale(0.14 -0.14)">
     <use xlink:href="#DejaVuSans-112"/>
     <use x="63.476562" xlink:href="#DejaVuSans-101"/>
     <use x="125" xlink:href="#DejaVuSans-114"/>
     <use x="166.113281" xlink:href="#DejaVuSans-116"/>
     <use x="205.322266" xlink:href="#DejaVuSans-117"/>
     <use x="268.701172" xlink:href="#DejaVuSans-114"/>
     <use x="309.814453" xlink:href="#DejaVuSans-98"/>
     <use x="373.291016" xlink:href="#DejaVuSans-97"/>
     <use x="434.570312" xlink:href="#DejaVuSans-231"/>
     <use x="489.550781" xlink:href="#DejaVuSans-245"/>
     <use x="550.732422" xlink:href="#DejaVuSans-101"/>
     <use x="612.255859" xlink:href="#DejaVuSans-115"/>
     <use x="664.355469" xlink:href="#DejaVuSans-32"/>
     <use x="696.142578" xlink:href="#DejaVuSans-100"/>
     <use x="759.619141" xlink:href="#DejaVuSans-111"/>
     <use x="820.800781" xlink:href="#DejaVuSans-32"/>
     <use x="852.587891" xlink:href="#DejaVuSans-116"/>
     <use x="891.796875" xlink:href="#DejaVuSans-105"/>
     <use x="919.580078" xlink:href="#DejaVuSans-112"/>
     <use x="983.056641" xlink:href="#DejaVuSans-111"/>
     <use x="1044.238281" xlink:href="#DejaVuSans-32"/>
     <use x="1076.025391" xlink:href="#DejaVuSans-100"/>
     <use x="1139.501953" xlink:href="#DejaVuSans-101"/>
     <use x="1201.025391" xlink:href="#DejaVuSans-103"/>
     <use x="1264.501953" xlink:href="#DejaVuSans-114"/>
     <use x="1305.615234" xlink:href="#DejaVuSans-97"/>
     <use x="1366.894531" xlink:href="#DejaVuSans-117"/>
    </g>
   </g>
   <g id="legend_1">
    <g id="patch_7">
     <path d="M 173.132251 256.630551 
L 298.854126 256.630551 
Q 300.854126 256.630551 300.854126 254.630551 
L 300.854126 211.577426 
Q 300.854126 209.577426 298.854126 209.577426 
L 173.132251 209.577426 
Q 171.132251 209.577426 171.132251 211.577426 
L 171.132251 254.630551 
Q 171.132251 256.630551 173.132251 256.630551 
z
" style="fill:#ffffff;opacity:0.8;stroke:#cccccc;stroke-linejoin:miter;"/>
    </g>
    <g id="line2d_36">
     <path d="M 175.132251 217.694614 
L 195.132251 217.694614 
" style="fill:none;stroke:#ff0000;stroke-dasharray:3.7,1.6;stroke-dashoffset:0;"/>
    </g>
    <g id="line2d_37"/>
    <g id="text_20">
     <!-- Perturbação -->
     <defs>
      <path d="M 19.671875 64.796875 
L 19.671875 37.40625 
L 32.078125 37.40625 
Q 38.96875 37.40625 42.71875 40.96875 
Q 46.484375 44.53125 46.484375 51.125 
Q 46.484375 57.671875 42.71875 61.234375 
Q 38.96875 64.796875 32.078125 64.796875 
z
M 9.8125 72.90625 
L 32.078125 72.90625 
Q 44.34375 72.90625 50.609375 67.359375 
Q 56.890625 61.8125 56.890625 51.125 
Q 56.890625 40.328125 50.609375 34.8125 
Q 44.34375 29.296875 32.078125 29.296875 
L 19.671875 29.296875 
L 19.671875 0 
L 9.8125 0 
z
" id="DejaVuSans-80"/>
     </defs>
     <g transform="translate(203.132251 221.194614)scale(0.1 -0.1)">
      <use xlink:href="#DejaVuSans-80"/>
      <use x="56.677734" xlink:href="#DejaVuSans-101"/>
      <use x="118.201172" xlink:href="#DejaVuSans-114"/>
      <use x="159.314453" xlink:href="#DejaVuSans-116"/>
      <use x="198.523438" xlink:href="#DejaVuSans-117"/>
      <use x="261.902344" xlink:href="#DejaVuSans-114"/>
      <use x="303.015625" xlink:href="#DejaVuSans-98"/>
      <use x="366.492188" xlink:href="#DejaVuSans-97"/>
      <use x="427.771484" xlink:href="#DejaVuSans-231"/>
      <use x="482.751953" xlink:href="#DejaVuSans-227"/>
      <use x="544.03125" xlink:href="#DejaVuSans-111"/>
     </g>
    </g>
    <g id="line2d_38">
     <path d="M 175.132251 232.372739 
L 195.132251 232.372739 
" style="fill:none;stroke:#008000;stroke-dasharray:3.7,1.6;stroke-dashoffset:0;"/>
    </g>
    <g id="line2d_39"/>
    <g id="text_21">
     <!-- Sinal de referência -->
     <defs>
      <path d="M 54.890625 33.015625 
L 54.890625 0 
L 45.90625 0 
L 45.90625 32.71875 
Q 45.90625 40.484375 42.875 44.328125 
Q 39.84375 48.1875 33.796875 48.1875 
Q 26.515625 48.1875 22.3125 43.546875 
Q 18.109375 38.921875 18.109375 30.90625 
L 18.109375 0 
L 9.078125 0 
L 9.078125 54.6875 
L 18.109375 54.6875 
L 18.109375 46.1875 
Q 21.34375 51.125 25.703125 53.5625 
Q 30.078125 56 35.796875 56 
Q 45.21875 56 50.046875 50.171875 
Q 54.890625 44.34375 54.890625 33.015625 
z
" id="DejaVuSans-110"/>
      <path d="M 37.109375 75.984375 
L 37.109375 68.5 
L 28.515625 68.5 
Q 23.6875 68.5 21.796875 66.546875 
Q 19.921875 64.59375 19.921875 59.515625 
L 19.921875 54.6875 
L 34.71875 54.6875 
L 34.71875 47.703125 
L 19.921875 47.703125 
L 19.921875 0 
L 10.890625 0 
L 10.890625 47.703125 
L 2.296875 47.703125 
L 2.296875 54.6875 
L 10.890625 54.6875 
L 10.890625 58.5 
Q 10.890625 67.625 15.140625 71.796875 
Q 19.390625 75.984375 28.609375 75.984375 
z
" id="DejaVuSans-102"/>
      <path d="M 56.203125 29.59375 
L 56.203125 25.203125 
L 14.890625 25.203125 
Q 15.484375 15.921875 20.484375 11.0625 
Q 25.484375 6.203125 34.421875 6.203125 
Q 39.59375 6.203125 44.453125 7.46875 
Q 49.3125 8.734375 54.109375 11.28125 
L 54.109375 2.78125 
Q 49.265625 0.734375 44.1875 -0.34375 
Q 39.109375 -1.421875 33.890625 -1.421875 
Q 20.796875 -1.421875 13.15625 6.1875 
Q 5.515625 13.8125 5.515625 26.8125 
Q 5.515625 40.234375 12.765625 48.109375 
Q 20.015625 56 32.328125 56 
Q 43.359375 56 49.78125 48.890625 
Q 56.203125 41.796875 56.203125 29.59375 
z
M 47.21875 32.234375 
Q 47.125 39.59375 43.09375 43.984375 
Q 39.0625 48.390625 32.421875 48.390625 
Q 24.90625 48.390625 20.390625 44.140625 
Q 15.875 39.890625 15.1875 32.171875 
z
M 28.171875 79.984375 
L 35.40625 79.984375 
L 47.359375 61.625 
L 40.578125 61.625 
L 31.78125 73.578125 
L 23 61.625 
L 16.21875 61.625 
z
" id="DejaVuSans-234"/>
      <path d="M 48.78125 52.59375 
L 48.78125 44.1875 
Q 44.96875 46.296875 41.140625 47.34375 
Q 37.3125 48.390625 33.40625 48.390625 
Q 24.65625 48.390625 19.8125 42.84375 
Q 14.984375 37.3125 14.984375 27.296875 
Q 14.984375 17.28125 19.8125 11.734375 
Q 24.65625 6.203125 33.40625 6.203125 
Q 37.3125 6.203125 41.140625 7.25 
Q 44.96875 8.296875 48.78125 10.40625 
L 48.78125 2.09375 
Q 45.015625 0.34375 40.984375 -0.53125 
Q 36.96875 -1.421875 32.421875 -1.421875 
Q 20.0625 -1.421875 12.78125 6.34375 
Q 5.515625 14.109375 5.515625 27.296875 
Q 5.515625 40.671875 12.859375 48.328125 
Q 20.21875 56 33.015625 56 
Q 37.15625 56 41.109375 55.140625 
Q 45.0625 54.296875 48.78125 52.59375 
z
" id="DejaVuSans-99"/>
     </defs>
     <g transform="translate(203.132251 235.872739)scale(0.1 -0.1)">
      <use xlink:href="#DejaVuSans-83"/>
      <use x="63.476562" xlink:href="#DejaVuSans-105"/>
      <use x="91.259766" xlink:href="#DejaVuSans-110"/>
      <use x="154.638672" xlink:href="#DejaVuSans-97"/>
      <use x="215.917969" xlink:href="#DejaVuSans-108"/>
      <use x="243.701172" xlink:href="#DejaVuSans-32"/>
      <use x="275.488281" xlink:href="#DejaVuSans-100"/>
      <use x="338.964844" xlink:href="#DejaVuSans-101"/>
      <use x="400.488281" xlink:href="#DejaVuSans-32"/>
      <use x="432.275391" xlink:href="#DejaVuSans-114"/>
      <use x="471.138672" xlink:href="#DejaVuSans-101"/>
      <use x="532.662109" xlink:href="#DejaVuSans-102"/>
      <use x="567.867188" xlink:href="#DejaVuSans-101"/>
      <use x="629.390625" xlink:href="#DejaVuSans-114"/>
      <use x="668.253906" xlink:href="#DejaVuSans-234"/>
      <use x="729.777344" xlink:href="#DejaVuSans-110"/>
      <use x="793.15625" xlink:href="#DejaVuSans-99"/>
      <use x="848.136719" xlink:href="#DejaVuSans-105"/>
      <use x="875.919922" xlink:href="#DejaVuSans-97"/>
     </g>
    </g>
    <g id="line2d_40">
     <path d="M 175.132251 247.050864 
L 195.132251 247.050864 
" style="fill:none;stroke:#0000ff;stroke-linecap:square;"/>
    </g>
    <g id="line2d_41"/>
    <g id="text_22">
     <!-- Saída -->
     <g transform="translate(203.132251 250.550864)scale(0.1 -0.1)">
      <use xlink:href="#DejaVuSans-83"/>
      <use x="63.476562" xlink:href="#DejaVuSans-97"/>
      <use x="124.755859" xlink:href="#DejaVuSans-237"/>
      <use x="152.539062" xlink:href="#DejaVuSans-100"/>
      <use x="216.015625" xlink:href="#DejaVuSans-97"/>
     </g>
    </g>
   </g>
  </g>
 </g>
 <defs>
  <clipPath id="p1a36fed435">
   <rect height="217.830551" width="358.791575" x="56.597402" y="43.8"/>
  </clipPath>
 </defs>
</svg>
