<?xml version="1.0" encoding="utf-8" standalone="no"?>
<!DOCTYPE svg PUBLIC "-//W3C//DTD SVG 1.1//EN"
  "http://www.w3.org/Graphics/SVG/1.1/DTD/svg11.dtd">
<!-- Created with matplotlib (https://matplotlib.org/) -->
<svg height="283.464567pt" version="1.1" viewBox="0 0 425.19685 283.464567" width="425.19685pt" xmlns="http://www.w3.org/2000/svg" xmlns:xlink="http://www.w3.org/1999/xlink">
 <defs>
  <style type="text/css">
*{stroke-linecap:butt;stroke-linejoin:round;}
  </style>
 </defs>
 <g id="figure_1">
  <g id="patch_1">
   <path d="M 0 283.464567 
L 425.19685 283.464567 
L 425.19685 0 
L 0 0 
z
" style="fill:#ffffff;"/>
  </g>
  <g id="axes_1">
   <g id="patch_2">
    <path d="M 44.645669 246.614173 
L 395.433071 246.614173 
L 395.433071 34.015748 
L 44.645669 34.015748 
z
" style="fill:#ffffff;"/>
   </g>
   <g id="matplotlib.axis_1">
    <g id="xtick_1">
     <g id="line2d_1">
      <path clip-path="url(#p770db3a7cc)" d="M 44.645669 246.614173 
L 44.645669 34.015748 
" style="fill:none;stroke:#000000;stroke-dasharray:0.7,1.155;stroke-dashoffset:0;stroke-width:0.7;"/>
     </g>
     <g id="line2d_2">
      <defs>
       <path d="M 0 0 
L 0 3.5 
" id="ma8db748df2" style="stroke:#000000;stroke-width:0.8;"/>
      </defs>
      <g>
       <use style="stroke:#000000;stroke-width:0.8;" x="44.645669" xlink:href="#ma8db748df2" y="246.614173"/>
      </g>
     </g>
     <g id="text_1">
      <!-- 0.0 -->
      <defs>
       <path d="M 31.78125 66.40625 
Q 24.171875 66.40625 20.328125 58.90625 
Q 16.5 51.421875 16.5 36.375 
Q 16.5 21.390625 20.328125 13.890625 
Q 24.171875 6.390625 31.78125 6.390625 
Q 39.453125 6.390625 43.28125 13.890625 
Q 47.125 21.390625 47.125 36.375 
Q 47.125 51.421875 43.28125 58.90625 
Q 39.453125 66.40625 31.78125 66.40625 
z
M 31.78125 74.21875 
Q 44.046875 74.21875 50.515625 64.515625 
Q 56.984375 54.828125 56.984375 36.375 
Q 56.984375 17.96875 50.515625 8.265625 
Q 44.046875 -1.421875 31.78125 -1.421875 
Q 19.53125 -1.421875 13.0625 8.265625 
Q 6.59375 17.96875 6.59375 36.375 
Q 6.59375 54.828125 13.0625 64.515625 
Q 19.53125 74.21875 31.78125 74.21875 
z
" id="DejaVuSans-48"/>
       <path d="M 10.6875 12.40625 
L 21 12.40625 
L 21 0 
L 10.6875 0 
z
" id="DejaVuSans-46"/>
      </defs>
      <g transform="translate(37.489263 260.452767)scale(0.09 -0.09)">
       <use xlink:href="#DejaVuSans-48"/>
       <use x="63.623047" xlink:href="#DejaVuSans-46"/>
       <use x="95.410156" xlink:href="#DejaVuSans-48"/>
      </g>
     </g>
    </g>
    <g id="xtick_2">
     <g id="line2d_3">
      <path clip-path="url(#p770db3a7cc)" d="M 88.548974 246.614173 
L 88.548974 34.015748 
" style="fill:none;stroke:#000000;stroke-dasharray:0.7,1.155;stroke-dashoffset:0;stroke-width:0.7;"/>
     </g>
     <g id="line2d_4">
      <g>
       <use style="stroke:#000000;stroke-width:0.8;" x="88.548974" xlink:href="#ma8db748df2" y="246.614173"/>
      </g>
     </g>
     <g id="text_2">
      <!-- 2.5 -->
      <defs>
       <path d="M 19.1875 8.296875 
L 53.609375 8.296875 
L 53.609375 0 
L 7.328125 0 
L 7.328125 8.296875 
Q 12.9375 14.109375 22.625 23.890625 
Q 32.328125 33.6875 34.8125 36.53125 
Q 39.546875 41.84375 41.421875 45.53125 
Q 43.3125 49.21875 43.3125 52.78125 
Q 43.3125 58.59375 39.234375 62.25 
Q 35.15625 65.921875 28.609375 65.921875 
Q 23.96875 65.921875 18.8125 64.3125 
Q 13.671875 62.703125 7.8125 59.421875 
L 7.8125 69.390625 
Q 13.765625 71.78125 18.9375 73 
Q 24.125 74.21875 28.421875 74.21875 
Q 39.75 74.21875 46.484375 68.546875 
Q 53.21875 62.890625 53.21875 53.421875 
Q 53.21875 48.921875 51.53125 44.890625 
Q 49.859375 40.875 45.40625 35.40625 
Q 44.1875 33.984375 37.640625 27.21875 
Q 31.109375 20.453125 19.1875 8.296875 
z
" id="DejaVuSans-50"/>
       <path d="M 10.796875 72.90625 
L 49.515625 72.90625 
L 49.515625 64.59375 
L 19.828125 64.59375 
L 19.828125 46.734375 
Q 21.96875 47.46875 24.109375 47.828125 
Q 26.265625 48.1875 28.421875 48.1875 
Q 40.625 48.1875 47.75 41.5 
Q 54.890625 34.8125 54.890625 23.390625 
Q 54.890625 11.625 47.5625 5.09375 
Q 40.234375 -1.421875 26.90625 -1.421875 
Q 22.3125 -1.421875 17.546875 -0.640625 
Q 12.796875 0.140625 7.71875 1.703125 
L 7.71875 11.625 
Q 12.109375 9.234375 16.796875 8.0625 
Q 21.484375 6.890625 26.703125 6.890625 
Q 35.15625 6.890625 40.078125 11.328125 
Q 45.015625 15.765625 45.015625 23.390625 
Q 45.015625 31 40.078125 35.4375 
Q 35.15625 39.890625 26.703125 39.890625 
Q 22.75 39.890625 18.8125 39.015625 
Q 14.890625 38.140625 10.796875 36.28125 
z
" id="DejaVuSans-53"/>
      </defs>
      <g transform="translate(81.392567 260.452767)scale(0.09 -0.09)">
       <use xlink:href="#DejaVuSans-50"/>
       <use x="63.623047" xlink:href="#DejaVuSans-46"/>
       <use x="95.410156" xlink:href="#DejaVuSans-53"/>
      </g>
     </g>
    </g>
    <g id="xtick_3">
     <g id="line2d_5">
      <path clip-path="url(#p770db3a7cc)" d="M 132.452278 246.614173 
L 132.452278 34.015748 
" style="fill:none;stroke:#000000;stroke-dasharray:0.7,1.155;stroke-dashoffset:0;stroke-width:0.7;"/>
     </g>
     <g id="line2d_6">
      <g>
       <use style="stroke:#000000;stroke-width:0.8;" x="132.452278" xlink:href="#ma8db748df2" y="246.614173"/>
      </g>
     </g>
     <g id="text_3">
      <!-- 5.0 -->
      <g transform="translate(125.295872 260.452767)scale(0.09 -0.09)">
       <use xlink:href="#DejaVuSans-53"/>
       <use x="63.623047" xlink:href="#DejaVuSans-46"/>
       <use x="95.410156" xlink:href="#DejaVuSans-48"/>
      </g>
     </g>
    </g>
    <g id="xtick_4">
     <g id="line2d_7">
      <path clip-path="url(#p770db3a7cc)" d="M 176.355582 246.614173 
L 176.355582 34.015748 
" style="fill:none;stroke:#000000;stroke-dasharray:0.7,1.155;stroke-dashoffset:0;stroke-width:0.7;"/>
     </g>
     <g id="line2d_8">
      <g>
       <use style="stroke:#000000;stroke-width:0.8;" x="176.355582" xlink:href="#ma8db748df2" y="246.614173"/>
      </g>
     </g>
     <g id="text_4">
      <!-- 7.5 -->
      <defs>
       <path d="M 8.203125 72.90625 
L 55.078125 72.90625 
L 55.078125 68.703125 
L 28.609375 0 
L 18.3125 0 
L 43.21875 64.59375 
L 8.203125 64.59375 
z
" id="DejaVuSans-55"/>
      </defs>
      <g transform="translate(169.199176 260.452767)scale(0.09 -0.09)">
       <use xlink:href="#DejaVuSans-55"/>
       <use x="63.623047" xlink:href="#DejaVuSans-46"/>
       <use x="95.410156" xlink:href="#DejaVuSans-53"/>
      </g>
     </g>
    </g>
    <g id="xtick_5">
     <g id="line2d_9">
      <path clip-path="url(#p770db3a7cc)" d="M 220.258887 246.614173 
L 220.258887 34.015748 
" style="fill:none;stroke:#000000;stroke-dasharray:0.7,1.155;stroke-dashoffset:0;stroke-width:0.7;"/>
     </g>
     <g id="line2d_10">
      <g>
       <use style="stroke:#000000;stroke-width:0.8;" x="220.258887" xlink:href="#ma8db748df2" y="246.614173"/>
      </g>
     </g>
     <g id="text_5">
      <!-- 10.0 -->
      <defs>
       <path d="M 12.40625 8.296875 
L 28.515625 8.296875 
L 28.515625 63.921875 
L 10.984375 60.40625 
L 10.984375 69.390625 
L 28.421875 72.90625 
L 38.28125 72.90625 
L 38.28125 8.296875 
L 54.390625 8.296875 
L 54.390625 0 
L 12.40625 0 
z
" id="DejaVuSans-49"/>
      </defs>
      <g transform="translate(210.239355 260.452767)scale(0.09 -0.09)">
       <use xlink:href="#DejaVuSans-49"/>
       <use x="63.623047" xlink:href="#DejaVuSans-48"/>
       <use x="127.246094" xlink:href="#DejaVuSans-46"/>
       <use x="159.033203" xlink:href="#DejaVuSans-48"/>
      </g>
     </g>
    </g>
    <g id="xtick_6">
     <g id="line2d_11">
      <path clip-path="url(#p770db3a7cc)" d="M 264.162191 246.614173 
L 264.162191 34.015748 
" style="fill:none;stroke:#000000;stroke-dasharray:0.7,1.155;stroke-dashoffset:0;stroke-width:0.7;"/>
     </g>
     <g id="line2d_12">
      <g>
       <use style="stroke:#000000;stroke-width:0.8;" x="264.162191" xlink:href="#ma8db748df2" y="246.614173"/>
      </g>
     </g>
     <g id="text_6">
      <!-- 12.5 -->
      <g transform="translate(254.14266 260.452767)scale(0.09 -0.09)">
       <use xlink:href="#DejaVuSans-49"/>
       <use x="63.623047" xlink:href="#DejaVuSans-50"/>
       <use x="127.246094" xlink:href="#DejaVuSans-46"/>
       <use x="159.033203" xlink:href="#DejaVuSans-53"/>
      </g>
     </g>
    </g>
    <g id="xtick_7">
     <g id="line2d_13">
      <path clip-path="url(#p770db3a7cc)" d="M 308.065495 246.614173 
L 308.065495 34.015748 
" style="fill:none;stroke:#000000;stroke-dasharray:0.7,1.155;stroke-dashoffset:0;stroke-width:0.7;"/>
     </g>
     <g id="line2d_14">
      <g>
       <use style="stroke:#000000;stroke-width:0.8;" x="308.065495" xlink:href="#ma8db748df2" y="246.614173"/>
      </g>
     </g>
     <g id="text_7">
      <!-- 15.0 -->
      <g transform="translate(298.045964 260.452767)scale(0.09 -0.09)">
       <use xlink:href="#DejaVuSans-49"/>
       <use x="63.623047" xlink:href="#DejaVuSans-53"/>
       <use x="127.246094" xlink:href="#DejaVuSans-46"/>
       <use x="159.033203" xlink:href="#DejaVuSans-48"/>
      </g>
     </g>
    </g>
    <g id="xtick_8">
     <g id="line2d_15">
      <path clip-path="url(#p770db3a7cc)" d="M 351.9688 246.614173 
L 351.9688 34.015748 
" style="fill:none;stroke:#000000;stroke-dasharray:0.7,1.155;stroke-dashoffset:0;stroke-width:0.7;"/>
     </g>
     <g id="line2d_16">
      <g>
       <use style="stroke:#000000;stroke-width:0.8;" x="351.9688" xlink:href="#ma8db748df2" y="246.614173"/>
      </g>
     </g>
     <g id="text_8">
      <!-- 17.5 -->
      <g transform="translate(341.949268 260.452767)scale(0.09 -0.09)">
       <use xlink:href="#DejaVuSans-49"/>
       <use x="63.623047" xlink:href="#DejaVuSans-55"/>
       <use x="127.246094" xlink:href="#DejaVuSans-46"/>
       <use x="159.033203" xlink:href="#DejaVuSans-53"/>
      </g>
     </g>
    </g>
    <g id="text_9">
     <!-- Tempo (s) -->
     <defs>
      <path d="M -0.296875 72.90625 
L 61.375 72.90625 
L 61.375 64.59375 
L 35.5 64.59375 
L 35.5 0 
L 25.59375 0 
L 25.59375 64.59375 
L -0.296875 64.59375 
z
" id="DejaVuSans-84"/>
      <path d="M 56.203125 29.59375 
L 56.203125 25.203125 
L 14.890625 25.203125 
Q 15.484375 15.921875 20.484375 11.0625 
Q 25.484375 6.203125 34.421875 6.203125 
Q 39.59375 6.203125 44.453125 7.46875 
Q 49.3125 8.734375 54.109375 11.28125 
L 54.109375 2.78125 
Q 49.265625 0.734375 44.1875 -0.34375 
Q 39.109375 -1.421875 33.890625 -1.421875 
Q 20.796875 -1.421875 13.15625 6.1875 
Q 5.515625 13.8125 5.515625 26.8125 
Q 5.515625 40.234375 12.765625 48.109375 
Q 20.015625 56 32.328125 56 
Q 43.359375 56 49.78125 48.890625 
Q 56.203125 41.796875 56.203125 29.59375 
z
M 47.21875 32.234375 
Q 47.125 39.59375 43.09375 43.984375 
Q 39.0625 48.390625 32.421875 48.390625 
Q 24.90625 48.390625 20.390625 44.140625 
Q 15.875 39.890625 15.1875 32.171875 
z
" id="DejaVuSans-101"/>
      <path d="M 52 44.1875 
Q 55.375 50.25 60.0625 53.125 
Q 64.75 56 71.09375 56 
Q 79.640625 56 84.28125 50.015625 
Q 88.921875 44.046875 88.921875 33.015625 
L 88.921875 0 
L 79.890625 0 
L 79.890625 32.71875 
Q 79.890625 40.578125 77.09375 44.375 
Q 74.3125 48.1875 68.609375 48.1875 
Q 61.625 48.1875 57.5625 43.546875 
Q 53.515625 38.921875 53.515625 30.90625 
L 53.515625 0 
L 44.484375 0 
L 44.484375 32.71875 
Q 44.484375 40.625 41.703125 44.40625 
Q 38.921875 48.1875 33.109375 48.1875 
Q 26.21875 48.1875 22.15625 43.53125 
Q 18.109375 38.875 18.109375 30.90625 
L 18.109375 0 
L 9.078125 0 
L 9.078125 54.6875 
L 18.109375 54.6875 
L 18.109375 46.1875 
Q 21.1875 51.21875 25.484375 53.609375 
Q 29.78125 56 35.6875 56 
Q 41.65625 56 45.828125 52.96875 
Q 50 49.953125 52 44.1875 
z
" id="DejaVuSans-109"/>
      <path d="M 18.109375 8.203125 
L 18.109375 -20.796875 
L 9.078125 -20.796875 
L 9.078125 54.6875 
L 18.109375 54.6875 
L 18.109375 46.390625 
Q 20.953125 51.265625 25.265625 53.625 
Q 29.59375 56 35.59375 56 
Q 45.5625 56 51.78125 48.09375 
Q 58.015625 40.1875 58.015625 27.296875 
Q 58.015625 14.40625 51.78125 6.484375 
Q 45.5625 -1.421875 35.59375 -1.421875 
Q 29.59375 -1.421875 25.265625 0.953125 
Q 20.953125 3.328125 18.109375 8.203125 
z
M 48.6875 27.296875 
Q 48.6875 37.203125 44.609375 42.84375 
Q 40.53125 48.484375 33.40625 48.484375 
Q 26.265625 48.484375 22.1875 42.84375 
Q 18.109375 37.203125 18.109375 27.296875 
Q 18.109375 17.390625 22.1875 11.75 
Q 26.265625 6.109375 33.40625 6.109375 
Q 40.53125 6.109375 44.609375 11.75 
Q 48.6875 17.390625 48.6875 27.296875 
z
" id="DejaVuSans-112"/>
      <path d="M 30.609375 48.390625 
Q 23.390625 48.390625 19.1875 42.75 
Q 14.984375 37.109375 14.984375 27.296875 
Q 14.984375 17.484375 19.15625 11.84375 
Q 23.34375 6.203125 30.609375 6.203125 
Q 37.796875 6.203125 41.984375 11.859375 
Q 46.1875 17.53125 46.1875 27.296875 
Q 46.1875 37.015625 41.984375 42.703125 
Q 37.796875 48.390625 30.609375 48.390625 
z
M 30.609375 56 
Q 42.328125 56 49.015625 48.375 
Q 55.71875 40.765625 55.71875 27.296875 
Q 55.71875 13.875 49.015625 6.21875 
Q 42.328125 -1.421875 30.609375 -1.421875 
Q 18.84375 -1.421875 12.171875 6.21875 
Q 5.515625 13.875 5.515625 27.296875 
Q 5.515625 40.765625 12.171875 48.375 
Q 18.84375 56 30.609375 56 
z
" id="DejaVuSans-111"/>
      <path id="DejaVuSans-32"/>
      <path d="M 31 75.875 
Q 24.46875 64.65625 21.28125 53.65625 
Q 18.109375 42.671875 18.109375 31.390625 
Q 18.109375 20.125 21.3125 9.0625 
Q 24.515625 -2 31 -13.1875 
L 23.1875 -13.1875 
Q 15.875 -1.703125 12.234375 9.375 
Q 8.59375 20.453125 8.59375 31.390625 
Q 8.59375 42.28125 12.203125 53.3125 
Q 15.828125 64.359375 23.1875 75.875 
z
" id="DejaVuSans-40"/>
      <path d="M 44.28125 53.078125 
L 44.28125 44.578125 
Q 40.484375 46.53125 36.375 47.5 
Q 32.28125 48.484375 27.875 48.484375 
Q 21.1875 48.484375 17.84375 46.4375 
Q 14.5 44.390625 14.5 40.28125 
Q 14.5 37.15625 16.890625 35.375 
Q 19.28125 33.59375 26.515625 31.984375 
L 29.59375 31.296875 
Q 39.15625 29.25 43.1875 25.515625 
Q 47.21875 21.78125 47.21875 15.09375 
Q 47.21875 7.46875 41.1875 3.015625 
Q 35.15625 -1.421875 24.609375 -1.421875 
Q 20.21875 -1.421875 15.453125 -0.5625 
Q 10.6875 0.296875 5.421875 2 
L 5.421875 11.28125 
Q 10.40625 8.6875 15.234375 7.390625 
Q 20.0625 6.109375 24.8125 6.109375 
Q 31.15625 6.109375 34.5625 8.28125 
Q 37.984375 10.453125 37.984375 14.40625 
Q 37.984375 18.0625 35.515625 20.015625 
Q 33.0625 21.96875 24.703125 23.78125 
L 21.578125 24.515625 
Q 13.234375 26.265625 9.515625 29.90625 
Q 5.8125 33.546875 5.8125 39.890625 
Q 5.8125 47.609375 11.28125 51.796875 
Q 16.75 56 26.8125 56 
Q 31.78125 56 36.171875 55.265625 
Q 40.578125 54.546875 44.28125 53.078125 
z
" id="DejaVuSans-115"/>
      <path d="M 8.015625 75.875 
L 15.828125 75.875 
Q 23.140625 64.359375 26.78125 53.3125 
Q 30.421875 42.28125 30.421875 31.390625 
Q 30.421875 20.453125 26.78125 9.375 
Q 23.140625 -1.703125 15.828125 -13.1875 
L 8.015625 -13.1875 
Q 14.5 -2 17.703125 9.0625 
Q 20.90625 20.125 20.90625 31.390625 
Q 20.90625 42.671875 17.703125 53.65625 
Q 14.5 64.65625 8.015625 75.875 
z
" id="DejaVuSans-41"/>
     </defs>
     <g transform="translate(195.559683 273.922923)scale(0.1 -0.1)">
      <use xlink:href="#DejaVuSans-84"/>
      <use x="44.083984" xlink:href="#DejaVuSans-101"/>
      <use x="105.607422" xlink:href="#DejaVuSans-109"/>
      <use x="203.019531" xlink:href="#DejaVuSans-112"/>
      <use x="266.496094" xlink:href="#DejaVuSans-111"/>
      <use x="327.677734" xlink:href="#DejaVuSans-32"/>
      <use x="359.464844" xlink:href="#DejaVuSans-40"/>
      <use x="398.478516" xlink:href="#DejaVuSans-115"/>
      <use x="450.578125" xlink:href="#DejaVuSans-41"/>
     </g>
    </g>
   </g>
   <g id="matplotlib.axis_2">
    <g id="ytick_1">
     <g id="line2d_17">
      <path clip-path="url(#p770db3a7cc)" d="M 44.645669 236.950608 
L 395.433071 236.950608 
" style="fill:none;stroke:#000000;stroke-dasharray:0.7,1.155;stroke-dashoffset:0;stroke-width:0.7;"/>
     </g>
     <g id="line2d_18">
      <defs>
       <path d="M 0 0 
L -3.5 0 
" id="m198b21898b" style="stroke:#000000;stroke-width:0.8;"/>
      </defs>
      <g>
       <use style="stroke:#000000;stroke-width:0.8;" x="44.645669" xlink:href="#m198b21898b" y="236.950608"/>
      </g>
     </g>
     <g id="text_10">
      <!-- 0.0 -->
      <g transform="translate(23.332857 240.369905)scale(0.09 -0.09)">
       <use xlink:href="#DejaVuSans-48"/>
       <use x="63.623047" xlink:href="#DejaVuSans-46"/>
       <use x="95.410156" xlink:href="#DejaVuSans-48"/>
      </g>
     </g>
    </g>
    <g id="ytick_2">
     <g id="line2d_19">
      <path clip-path="url(#p770db3a7cc)" d="M 44.645669 198.499662 
L 395.433071 198.499662 
" style="fill:none;stroke:#000000;stroke-dasharray:0.7,1.155;stroke-dashoffset:0;stroke-width:0.7;"/>
     </g>
     <g id="line2d_20">
      <g>
       <use style="stroke:#000000;stroke-width:0.8;" x="44.645669" xlink:href="#m198b21898b" y="198.499662"/>
      </g>
     </g>
     <g id="text_11">
      <!-- 0.2 -->
      <g transform="translate(23.332857 201.918959)scale(0.09 -0.09)">
       <use xlink:href="#DejaVuSans-48"/>
       <use x="63.623047" xlink:href="#DejaVuSans-46"/>
       <use x="95.410156" xlink:href="#DejaVuSans-50"/>
      </g>
     </g>
    </g>
    <g id="ytick_3">
     <g id="line2d_21">
      <path clip-path="url(#p770db3a7cc)" d="M 44.645669 160.048715 
L 395.433071 160.048715 
" style="fill:none;stroke:#000000;stroke-dasharray:0.7,1.155;stroke-dashoffset:0;stroke-width:0.7;"/>
     </g>
     <g id="line2d_22">
      <g>
       <use style="stroke:#000000;stroke-width:0.8;" x="44.645669" xlink:href="#m198b21898b" y="160.048715"/>
      </g>
     </g>
     <g id="text_12">
      <!-- 0.4 -->
      <defs>
       <path d="M 37.796875 64.3125 
L 12.890625 25.390625 
L 37.796875 25.390625 
z
M 35.203125 72.90625 
L 47.609375 72.90625 
L 47.609375 25.390625 
L 58.015625 25.390625 
L 58.015625 17.1875 
L 47.609375 17.1875 
L 47.609375 0 
L 37.796875 0 
L 37.796875 17.1875 
L 4.890625 17.1875 
L 4.890625 26.703125 
z
" id="DejaVuSans-52"/>
      </defs>
      <g transform="translate(23.332857 163.468012)scale(0.09 -0.09)">
       <use xlink:href="#DejaVuSans-48"/>
       <use x="63.623047" xlink:href="#DejaVuSans-46"/>
       <use x="95.410156" xlink:href="#DejaVuSans-52"/>
      </g>
     </g>
    </g>
    <g id="ytick_4">
     <g id="line2d_23">
      <path clip-path="url(#p770db3a7cc)" d="M 44.645669 121.597768 
L 395.433071 121.597768 
" style="fill:none;stroke:#000000;stroke-dasharray:0.7,1.155;stroke-dashoffset:0;stroke-width:0.7;"/>
     </g>
     <g id="line2d_24">
      <g>
       <use style="stroke:#000000;stroke-width:0.8;" x="44.645669" xlink:href="#m198b21898b" y="121.597768"/>
      </g>
     </g>
     <g id="text_13">
      <!-- 0.6 -->
      <defs>
       <path d="M 33.015625 40.375 
Q 26.375 40.375 22.484375 35.828125 
Q 18.609375 31.296875 18.609375 23.390625 
Q 18.609375 15.53125 22.484375 10.953125 
Q 26.375 6.390625 33.015625 6.390625 
Q 39.65625 6.390625 43.53125 10.953125 
Q 47.40625 15.53125 47.40625 23.390625 
Q 47.40625 31.296875 43.53125 35.828125 
Q 39.65625 40.375 33.015625 40.375 
z
M 52.59375 71.296875 
L 52.59375 62.3125 
Q 48.875 64.0625 45.09375 64.984375 
Q 41.3125 65.921875 37.59375 65.921875 
Q 27.828125 65.921875 22.671875 59.328125 
Q 17.53125 52.734375 16.796875 39.40625 
Q 19.671875 43.65625 24.015625 45.921875 
Q 28.375 48.1875 33.59375 48.1875 
Q 44.578125 48.1875 50.953125 41.515625 
Q 57.328125 34.859375 57.328125 23.390625 
Q 57.328125 12.15625 50.6875 5.359375 
Q 44.046875 -1.421875 33.015625 -1.421875 
Q 20.359375 -1.421875 13.671875 8.265625 
Q 6.984375 17.96875 6.984375 36.375 
Q 6.984375 53.65625 15.1875 63.9375 
Q 23.390625 74.21875 37.203125 74.21875 
Q 40.921875 74.21875 44.703125 73.484375 
Q 48.484375 72.75 52.59375 71.296875 
z
" id="DejaVuSans-54"/>
      </defs>
      <g transform="translate(23.332857 125.017065)scale(0.09 -0.09)">
       <use xlink:href="#DejaVuSans-48"/>
       <use x="63.623047" xlink:href="#DejaVuSans-46"/>
       <use x="95.410156" xlink:href="#DejaVuSans-54"/>
      </g>
     </g>
    </g>
    <g id="ytick_5">
     <g id="line2d_25">
      <path clip-path="url(#p770db3a7cc)" d="M 44.645669 83.146822 
L 395.433071 83.146822 
" style="fill:none;stroke:#000000;stroke-dasharray:0.7,1.155;stroke-dashoffset:0;stroke-width:0.7;"/>
     </g>
     <g id="line2d_26">
      <g>
       <use style="stroke:#000000;stroke-width:0.8;" x="44.645669" xlink:href="#m198b21898b" y="83.146822"/>
      </g>
     </g>
     <g id="text_14">
      <!-- 0.8 -->
      <defs>
       <path d="M 31.78125 34.625 
Q 24.75 34.625 20.71875 30.859375 
Q 16.703125 27.09375 16.703125 20.515625 
Q 16.703125 13.921875 20.71875 10.15625 
Q 24.75 6.390625 31.78125 6.390625 
Q 38.8125 6.390625 42.859375 10.171875 
Q 46.921875 13.96875 46.921875 20.515625 
Q 46.921875 27.09375 42.890625 30.859375 
Q 38.875 34.625 31.78125 34.625 
z
M 21.921875 38.8125 
Q 15.578125 40.375 12.03125 44.71875 
Q 8.5 49.078125 8.5 55.328125 
Q 8.5 64.0625 14.71875 69.140625 
Q 20.953125 74.21875 31.78125 74.21875 
Q 42.671875 74.21875 48.875 69.140625 
Q 55.078125 64.0625 55.078125 55.328125 
Q 55.078125 49.078125 51.53125 44.71875 
Q 48 40.375 41.703125 38.8125 
Q 48.828125 37.15625 52.796875 32.3125 
Q 56.78125 27.484375 56.78125 20.515625 
Q 56.78125 9.90625 50.3125 4.234375 
Q 43.84375 -1.421875 31.78125 -1.421875 
Q 19.734375 -1.421875 13.25 4.234375 
Q 6.78125 9.90625 6.78125 20.515625 
Q 6.78125 27.484375 10.78125 32.3125 
Q 14.796875 37.15625 21.921875 38.8125 
z
M 18.3125 54.390625 
Q 18.3125 48.734375 21.84375 45.5625 
Q 25.390625 42.390625 31.78125 42.390625 
Q 38.140625 42.390625 41.71875 45.5625 
Q 45.3125 48.734375 45.3125 54.390625 
Q 45.3125 60.0625 41.71875 63.234375 
Q 38.140625 66.40625 31.78125 66.40625 
Q 25.390625 66.40625 21.84375 63.234375 
Q 18.3125 60.0625 18.3125 54.390625 
z
" id="DejaVuSans-56"/>
      </defs>
      <g transform="translate(23.332857 86.566119)scale(0.09 -0.09)">
       <use xlink:href="#DejaVuSans-48"/>
       <use x="63.623047" xlink:href="#DejaVuSans-46"/>
       <use x="95.410156" xlink:href="#DejaVuSans-56"/>
      </g>
     </g>
    </g>
    <g id="ytick_6">
     <g id="line2d_27">
      <path clip-path="url(#p770db3a7cc)" d="M 44.645669 44.695875 
L 395.433071 44.695875 
" style="fill:none;stroke:#000000;stroke-dasharray:0.7,1.155;stroke-dashoffset:0;stroke-width:0.7;"/>
     </g>
     <g id="line2d_28">
      <g>
       <use style="stroke:#000000;stroke-width:0.8;" x="44.645669" xlink:href="#m198b21898b" y="44.695875"/>
      </g>
     </g>
     <g id="text_15">
      <!-- 1.0 -->
      <g transform="translate(23.332857 48.115172)scale(0.09 -0.09)">
       <use xlink:href="#DejaVuSans-49"/>
       <use x="63.623047" xlink:href="#DejaVuSans-46"/>
       <use x="95.410156" xlink:href="#DejaVuSans-48"/>
      </g>
     </g>
    </g>
    <g id="text_16">
     <!-- Valor -->
     <defs>
      <path d="M 28.609375 0 
L 0.78125 72.90625 
L 11.078125 72.90625 
L 34.1875 11.53125 
L 57.328125 72.90625 
L 67.578125 72.90625 
L 39.796875 0 
z
" id="DejaVuSans-86"/>
      <path d="M 34.28125 27.484375 
Q 23.390625 27.484375 19.1875 25 
Q 14.984375 22.515625 14.984375 16.5 
Q 14.984375 11.71875 18.140625 8.90625 
Q 21.296875 6.109375 26.703125 6.109375 
Q 34.1875 6.109375 38.703125 11.40625 
Q 43.21875 16.703125 43.21875 25.484375 
L 43.21875 27.484375 
z
M 52.203125 31.203125 
L 52.203125 0 
L 43.21875 0 
L 43.21875 8.296875 
Q 40.140625 3.328125 35.546875 0.953125 
Q 30.953125 -1.421875 24.3125 -1.421875 
Q 15.921875 -1.421875 10.953125 3.296875 
Q 6 8.015625 6 15.921875 
Q 6 25.140625 12.171875 29.828125 
Q 18.359375 34.515625 30.609375 34.515625 
L 43.21875 34.515625 
L 43.21875 35.40625 
Q 43.21875 41.609375 39.140625 45 
Q 35.0625 48.390625 27.6875 48.390625 
Q 23 48.390625 18.546875 47.265625 
Q 14.109375 46.140625 10.015625 43.890625 
L 10.015625 52.203125 
Q 14.9375 54.109375 19.578125 55.046875 
Q 24.21875 56 28.609375 56 
Q 40.484375 56 46.34375 49.84375 
Q 52.203125 43.703125 52.203125 31.203125 
z
" id="DejaVuSans-97"/>
      <path d="M 9.421875 75.984375 
L 18.40625 75.984375 
L 18.40625 0 
L 9.421875 0 
z
" id="DejaVuSans-108"/>
      <path d="M 41.109375 46.296875 
Q 39.59375 47.171875 37.8125 47.578125 
Q 36.03125 48 33.890625 48 
Q 26.265625 48 22.1875 43.046875 
Q 18.109375 38.09375 18.109375 28.8125 
L 18.109375 0 
L 9.078125 0 
L 9.078125 54.6875 
L 18.109375 54.6875 
L 18.109375 46.1875 
Q 20.953125 51.171875 25.484375 53.578125 
Q 30.03125 56 36.53125 56 
Q 37.453125 56 38.578125 55.875 
Q 39.703125 55.765625 41.0625 55.515625 
z
" id="DejaVuSans-114"/>
     </defs>
     <g transform="translate(17.253169 152.915742)rotate(-90)scale(0.1 -0.1)">
      <use xlink:href="#DejaVuSans-86"/>
      <use x="60.658203" xlink:href="#DejaVuSans-97"/>
      <use x="121.9375" xlink:href="#DejaVuSans-108"/>
      <use x="149.720703" xlink:href="#DejaVuSans-111"/>
      <use x="210.902344" xlink:href="#DejaVuSans-114"/>
     </g>
    </g>
   </g>
   <g id="line2d_29">
    <path clip-path="url(#p770db3a7cc)" d="M 44.645669 236.950608 
L 45.084702 44.695875 
L 46.401801 44.695875 
L 46.840835 236.950608 
L 47.279868 44.695875 
L 47.718901 236.950608 
L 48.157934 44.695875 
L 48.596967 236.950608 
L 49.036 44.695875 
L 49.475033 236.950608 
L 49.914066 44.695875 
L 50.353099 44.695875 
L 50.792132 236.950608 
L 51.231165 236.950608 
L 51.670198 44.695875 
L 52.109231 236.950608 
L 54.743429 236.950608 
L 55.182462 44.695875 
L 56.499561 44.695875 
L 56.938595 236.950608 
L 58.694727 236.950608 
L 59.13376 44.695875 
L 59.572793 236.950608 
L 60.450859 236.950608 
L 60.889892 44.695875 
L 63.085057 44.695875 
L 63.52409 236.950608 
L 63.963123 236.950608 
L 64.402156 44.695875 
L 64.841189 236.950608 
L 66.597321 236.950608 
L 67.036354 44.695875 
L 67.914421 44.695875 
L 68.353454 236.950608 
L 69.670553 236.950608 
L 70.109586 44.695875 
L 70.548619 236.950608 
L 70.987652 44.695875 
L 71.865718 44.695875 
L 72.304751 236.950608 
L 73.62185 236.950608 
L 74.060883 44.695875 
L 74.499916 236.950608 
L 74.938949 236.950608 
L 75.377982 44.695875 
L 75.817015 44.695875 
L 76.256048 236.950608 
L 77.573148 236.950608 
L 78.012181 44.695875 
L 78.451214 236.950608 
L 78.890247 44.695875 
L 79.32928 44.695875 
L 79.768313 236.950608 
L 80.207346 44.695875 
L 80.646379 236.950608 
L 81.085412 44.695875 
L 81.524445 236.950608 
L 81.963478 44.695875 
L 84.158643 44.695875 
L 84.597676 236.950608 
L 85.036709 44.695875 
L 85.475742 44.695875 
L 85.914775 236.950608 
L 86.353808 236.950608 
L 86.792841 44.695875 
L 87.231874 236.950608 
L 87.670908 44.695875 
L 88.109941 236.950608 
L 88.548974 44.695875 
L 88.988007 236.950608 
L 89.42704 44.695875 
L 89.866073 236.950608 
L 90.305106 236.950608 
L 90.744139 44.695875 
L 92.061238 44.695875 
L 92.500271 236.950608 
L 95.573502 236.950608 
L 96.012535 44.695875 
L 96.451568 236.950608 
L 96.890601 236.950608 
L 97.329634 44.695875 
L 97.768668 236.950608 
L 99.085767 236.950608 
L 99.5248 44.695875 
L 99.963833 236.950608 
L 100.402866 236.950608 
L 100.841899 44.695875 
L 101.280932 236.950608 
L 104.354163 236.950608 
L 104.793196 44.695875 
L 105.232229 236.950608 
L 106.549328 236.950608 
L 106.988361 44.695875 
L 107.866428 44.695875 
L 108.305461 236.950608 
L 108.744494 44.695875 
L 109.183527 44.695875 
L 109.62256 236.950608 
L 110.061593 236.950608 
L 110.500626 44.695875 
L 110.939659 236.950608 
L 111.378692 44.695875 
L 111.817725 44.695875 
L 112.256758 236.950608 
L 112.695791 44.695875 
L 113.134824 236.950608 
L 113.573857 44.695875 
L 114.451923 44.695875 
L 114.890956 236.950608 
L 115.329989 44.695875 
L 115.769022 236.950608 
L 116.208055 44.695875 
L 116.647088 236.950608 
L 117.086121 44.695875 
L 117.525154 236.950608 
L 117.964188 44.695875 
L 118.403221 236.950608 
L 118.842254 236.950608 
L 119.281287 44.695875 
L 119.72032 236.950608 
L 120.159353 44.695875 
L 120.598386 236.950608 
L 121.037419 44.695875 
L 121.915485 44.695875 
L 122.354518 236.950608 
L 122.793551 44.695875 
L 123.232584 236.950608 
L 123.671617 44.695875 
L 124.549683 44.695875 
L 124.988716 236.950608 
L 125.866782 236.950608 
L 126.305815 44.695875 
L 126.744848 44.695875 
L 127.183881 236.950608 
L 127.622914 44.695875 
L 128.940014 44.695875 
L 129.379047 236.950608 
L 130.696146 236.950608 
L 131.135179 44.695875 
L 131.574212 236.950608 
L 132.013245 44.695875 
L 132.452278 236.950608 
L 132.891311 44.695875 
L 133.330344 44.695875 
L 133.769377 236.950608 
L 134.20841 236.950608 
L 134.647443 44.695875 
L 135.086476 236.950608 
L 136.842608 236.950608 
L 137.281641 44.695875 
L 137.720674 236.950608 
L 138.598741 236.950608 
L 139.037774 44.695875 
L 139.476807 236.950608 
L 139.91584 236.950608 
L 140.354873 44.695875 
L 140.793906 236.950608 
L 141.232939 44.695875 
L 141.671972 236.950608 
L 142.550038 236.950608 
L 142.989071 44.695875 
L 143.428104 236.950608 
L 143.867137 44.695875 
L 144.30617 236.950608 
L 145.623269 236.950608 
L 146.062302 44.695875 
L 146.501335 44.695875 
L 146.940368 236.950608 
L 147.379401 44.695875 
L 147.818434 44.695875 
L 148.257468 236.950608 
L 148.696501 236.950608 
L 149.135534 44.695875 
L 150.0136 44.695875 
L 150.452633 236.950608 
L 152.208765 236.950608 
L 152.647798 44.695875 
L 153.525864 44.695875 
L 153.964897 236.950608 
L 154.40393 44.695875 
L 154.842963 236.950608 
L 155.281996 236.950608 
L 155.721029 44.695875 
L 157.477161 44.695875 
L 157.916194 236.950608 
L 158.355227 236.950608 
L 158.794261 44.695875 
L 159.233294 236.950608 
L 160.11136 236.950608 
L 160.550393 44.695875 
L 160.989426 44.695875 
L 161.428459 236.950608 
L 161.867492 44.695875 
L 162.306525 44.695875 
L 162.745558 236.950608 
L 163.623624 236.950608 
L 164.062657 44.695875 
L 164.50169 236.950608 
L 164.940723 44.695875 
L 165.379756 236.950608 
L 167.135888 236.950608 
L 167.574921 44.695875 
L 168.013954 44.695875 
L 168.452987 236.950608 
L 168.892021 44.695875 
L 169.770087 44.695875 
L 170.20912 236.950608 
L 170.648153 44.695875 
L 171.087186 44.695875 
L 171.526219 236.950608 
L 171.965252 44.695875 
L 172.404285 236.950608 
L 173.282351 236.950608 
L 173.721384 44.695875 
L 175.038483 44.695875 
L 175.477516 236.950608 
L 175.916549 236.950608 
L 176.355582 44.695875 
L 176.794615 236.950608 
L 177.233648 44.695875 
L 178.111714 44.695875 
L 178.550747 236.950608 
L 178.989781 44.695875 
L 179.428814 236.950608 
L 182.941078 236.950608 
L 183.380111 44.695875 
L 183.819144 44.695875 
L 184.258177 236.950608 
L 184.69721 236.950608 
L 185.136243 44.695875 
L 185.575276 236.950608 
L 186.014309 44.695875 
L 186.453342 236.950608 
L 186.892375 44.695875 
L 187.331408 236.950608 
L 187.770441 236.950608 
L 188.209474 44.695875 
L 189.526574 44.695875 
L 189.965607 236.950608 
L 190.40464 44.695875 
L 190.843673 236.950608 
L 191.282706 44.695875 
L 192.599805 44.695875 
L 193.038838 236.950608 
L 193.477871 44.695875 
L 194.355937 44.695875 
L 194.79497 236.950608 
L 195.673036 236.950608 
L 196.112069 44.695875 
L 196.551102 236.950608 
L 197.868201 236.950608 
L 198.307234 44.695875 
L 198.746267 236.950608 
L 199.185301 44.695875 
L 200.063367 44.695875 
L 200.5024 236.950608 
L 200.941433 44.695875 
L 201.819499 44.695875 
L 202.258532 236.950608 
L 202.697565 44.695875 
L 203.136598 236.950608 
L 204.014664 236.950608 
L 204.453697 44.695875 
L 204.89273 236.950608 
L 205.331763 44.695875 
L 205.770796 44.695875 
L 206.209829 236.950608 
L 206.648862 44.695875 
L 207.087895 236.950608 
L 207.526928 44.695875 
L 207.965961 236.950608 
L 208.844027 236.950608 
L 209.283061 44.695875 
L 209.722094 236.950608 
L 210.161127 236.950608 
L 210.60016 44.695875 
L 211.917259 44.695875 
L 212.356292 236.950608 
L 212.795325 44.695875 
L 213.234358 236.950608 
L 214.551457 236.950608 
L 214.99049 44.695875 
L 216.746622 44.695875 
L 217.185655 236.950608 
L 217.624688 44.695875 
L 218.063721 44.695875 
L 218.502754 236.950608 
L 218.941787 44.695875 
L 219.380821 236.950608 
L 219.819854 44.695875 
L 220.258887 236.950608 
L 220.69792 44.695875 
L 221.136953 236.950608 
L 221.575986 44.695875 
L 222.454052 44.695875 
L 222.893085 236.950608 
L 223.332118 236.950608 
L 223.771151 44.695875 
L 224.210184 44.695875 
L 224.649217 236.950608 
L 225.08825 44.695875 
L 225.527283 236.950608 
L 225.966316 44.695875 
L 226.405349 236.950608 
L 226.844382 44.695875 
L 227.283415 44.695875 
L 227.722448 236.950608 
L 228.161481 44.695875 
L 228.600514 236.950608 
L 229.039547 44.695875 
L 230.79568 44.695875 
L 231.234713 236.950608 
L 231.673746 44.695875 
L 232.112779 44.695875 
L 232.551812 236.950608 
L 232.990845 44.695875 
L 233.429878 44.695875 
L 233.868911 236.950608 
L 234.307944 44.695875 
L 234.746977 44.695875 
L 235.18601 236.950608 
L 235.625043 44.695875 
L 236.064076 236.950608 
L 236.503109 44.695875 
L 236.942142 236.950608 
L 237.381175 44.695875 
L 239.137307 44.695875 
L 239.576341 236.950608 
L 240.015374 44.695875 
L 240.454407 236.950608 
L 240.89344 44.695875 
L 241.332473 236.950608 
L 241.771506 44.695875 
L 243.088605 44.695875 
L 243.527638 236.950608 
L 243.966671 236.950608 
L 244.405704 44.695875 
L 244.844737 44.695875 
L 245.28377 236.950608 
L 245.722803 44.695875 
L 248.796034 44.695875 
L 249.235067 236.950608 
L 249.6741 236.950608 
L 250.113134 44.695875 
L 250.552167 236.950608 
L 250.9912 236.950608 
L 251.430233 44.695875 
L 251.869266 236.950608 
L 252.308299 236.950608 
L 252.747332 44.695875 
L 253.186365 236.950608 
L 253.625398 44.695875 
L 254.064431 236.950608 
L 254.503464 236.950608 
L 254.942497 44.695875 
L 256.259596 44.695875 
L 256.698629 236.950608 
L 257.137662 44.695875 
L 257.576695 44.695875 
L 258.015728 236.950608 
L 259.332827 236.950608 
L 259.77186 44.695875 
L 260.210894 236.950608 
L 261.527993 236.950608 
L 261.967026 44.695875 
L 262.406059 236.950608 
L 262.845092 44.695875 
L 263.723158 44.695875 
L 264.162191 236.950608 
L 265.918323 236.950608 
L 266.357356 44.695875 
L 266.796389 236.950608 
L 267.235422 44.695875 
L 267.674455 236.950608 
L 268.113488 44.695875 
L 268.552521 236.950608 
L 268.991554 44.695875 
L 269.430587 236.950608 
L 269.86962 44.695875 
L 270.308654 236.950608 
L 270.747687 44.695875 
L 271.18672 236.950608 
L 271.625753 236.950608 
L 272.064786 44.695875 
L 272.503819 236.950608 
L 272.942852 236.950608 
L 273.381885 44.695875 
L 273.820918 44.695875 
L 274.259951 236.950608 
L 275.138017 236.950608 
L 275.57705 44.695875 
L 276.016083 236.950608 
L 276.894149 236.950608 
L 277.333182 44.695875 
L 277.772215 236.950608 
L 278.211248 236.950608 
L 278.650281 44.695875 
L 279.089314 236.950608 
L 279.528347 44.695875 
L 279.96738 44.695875 
L 280.406414 236.950608 
L 282.162546 236.950608 
L 282.601579 44.695875 
L 283.040612 44.695875 
L 283.479645 236.950608 
L 283.918678 236.950608 
L 284.357711 44.695875 
L 285.67481 44.695875 
L 286.113843 236.950608 
L 286.552876 44.695875 
L 286.991909 44.695875 
L 287.430942 236.950608 
L 287.869975 44.695875 
L 288.309008 236.950608 
L 288.748041 44.695875 
L 289.187074 236.950608 
L 290.504174 236.950608 
L 290.943207 44.695875 
L 292.699339 44.695875 
L 293.138372 236.950608 
L 293.577405 44.695875 
L 294.455471 44.695875 
L 294.894504 236.950608 
L 296.211603 236.950608 
L 296.650636 44.695875 
L 298.845801 44.695875 
L 299.284834 236.950608 
L 299.723867 236.950608 
L 300.1629 44.695875 
L 300.601934 44.695875 
L 301.040967 236.950608 
L 301.48 44.695875 
L 301.919033 236.950608 
L 302.358066 44.695875 
L 302.797099 236.950608 
L 303.675165 236.950608 
L 304.114198 44.695875 
L 304.553231 44.695875 
L 304.992264 236.950608 
L 305.431297 236.950608 
L 305.87033 44.695875 
L 306.309363 236.950608 
L 306.748396 236.950608 
L 307.187429 44.695875 
L 308.065495 44.695875 
L 308.504528 236.950608 
L 308.943561 44.695875 
L 309.382594 236.950608 
L 310.699694 236.950608 
L 311.138727 44.695875 
L 311.57776 236.950608 
L 313.772925 236.950608 
L 314.211958 44.695875 
L 314.650991 236.950608 
L 315.090024 44.695875 
L 315.96809 44.695875 
L 316.407123 236.950608 
L 316.846156 44.695875 
L 317.285189 236.950608 
L 319.041321 236.950608 
L 319.480354 44.695875 
L 319.919387 44.695875 
L 320.35842 236.950608 
L 320.797454 236.950608 
L 321.236487 44.695875 
L 321.67552 44.695875 
L 322.114553 236.950608 
L 322.553586 236.950608 
L 322.992619 44.695875 
L 323.431652 236.950608 
L 323.870685 44.695875 
L 325.626817 44.695875 
L 326.06585 236.950608 
L 326.504883 236.950608 
L 326.943916 44.695875 
L 327.382949 44.695875 
L 327.821982 236.950608 
L 329.139081 236.950608 
L 329.578114 44.695875 
L 330.017147 236.950608 
L 330.45618 236.950608 
L 330.895214 44.695875 
L 331.334247 236.950608 
L 332.212313 236.950608 
L 332.651346 44.695875 
L 333.090379 44.695875 
L 333.529412 236.950608 
L 335.285544 236.950608 
L 335.724577 44.695875 
L 336.16361 44.695875 
L 336.602643 236.950608 
L 337.041676 44.695875 
L 342.310073 44.695875 
L 342.749106 236.950608 
L 343.188139 236.950608 
L 343.627172 44.695875 
L 344.066205 236.950608 
L 344.505238 236.950608 
L 344.944271 44.695875 
L 345.383304 44.695875 
L 345.822337 236.950608 
L 346.700403 236.950608 
L 347.139436 44.695875 
L 347.578469 236.950608 
L 348.017502 44.695875 
L 348.456535 236.950608 
L 348.895568 236.950608 
L 349.334601 44.695875 
L 349.773634 236.950608 
L 350.212667 236.950608 
L 350.6517 44.695875 
L 351.529767 44.695875 
L 351.9688 236.950608 
L 352.407833 44.695875 
L 353.724932 44.695875 
L 354.163965 236.950608 
L 354.602998 44.695875 
L 355.042031 44.695875 
L 355.481064 236.950608 
L 355.920097 236.950608 
L 356.35913 44.695875 
L 357.676229 44.695875 
L 358.115262 236.950608 
L 358.554295 236.950608 
L 358.993328 44.695875 
L 359.432361 236.950608 
L 360.74946 236.950608 
L 361.188493 44.695875 
L 361.627527 236.950608 
L 362.06656 44.695875 
L 362.505593 44.695875 
L 362.944626 236.950608 
L 363.383659 236.950608 
L 363.822692 44.695875 
L 364.261725 44.695875 
L 364.700758 236.950608 
L 365.139791 44.695875 
L 365.578824 236.950608 
L 366.017857 44.695875 
L 366.895923 44.695875 
L 367.334956 236.950608 
L 367.773989 44.695875 
L 369.969154 44.695875 
L 370.408187 236.950608 
L 370.84722 44.695875 
L 371.286253 44.695875 
L 371.725287 236.950608 
L 372.16432 44.695875 
L 372.603353 236.950608 
L 373.042386 236.950608 
L 373.481419 44.695875 
L 373.920452 44.695875 
L 374.359485 236.950608 
L 375.237551 236.950608 
L 375.676584 44.695875 
L 376.115617 44.695875 
L 376.55465 236.950608 
L 376.993683 236.950608 
L 377.432716 44.695875 
L 378.749815 44.695875 
L 379.188848 236.950608 
L 379.627881 44.695875 
L 380.066914 236.950608 
L 380.505947 236.950608 
L 380.94498 44.695875 
L 381.384013 44.695875 
L 381.823047 236.950608 
L 382.26208 236.950608 
L 382.701113 44.695875 
L 383.140146 44.695875 
L 383.579179 236.950608 
L 384.018212 236.950608 
L 384.457245 44.695875 
L 384.896278 44.695875 
L 385.335311 236.950608 
L 386.213377 236.950608 
L 386.65241 44.695875 
L 387.091443 236.950608 
L 387.530476 236.950608 
L 387.969509 44.695875 
L 389.286608 44.695875 
L 389.725641 236.950608 
L 391.04274 236.950608 
L 391.481773 44.695875 
L 391.920807 44.695875 
L 392.35984 236.950608 
L 392.798873 236.950608 
L 393.237906 44.695875 
L 393.676939 236.950608 
L 394.115972 44.695875 
L 394.555005 44.695875 
L 394.994038 236.950608 
L 395.433071 44.695875 
L 395.433071 44.695875 
" style="fill:none;stroke:#008000;stroke-linecap:square;stroke-opacity:0.55;"/>
   </g>
   <g id="line2d_30">
    <path clip-path="url(#p770db3a7cc)" d="M 44.645669 236.950608 
L 45.084702 236.950608 
L 45.523735 231.613514 
L 45.962768 218.046689 
L 47.279868 161.485667 
L 47.718901 148.37767 
L 48.157934 139.038491 
L 48.596967 132.256731 
L 49.036 128.221292 
L 49.475033 125.744493 
L 49.914066 125.084346 
L 50.353099 125.15064 
L 50.792132 120.976641 
L 51.231165 119.370622 
L 52.109231 128.523454 
L 52.548264 132.363558 
L 52.987297 140.556347 
L 53.865363 163.507339 
L 55.182462 198.826427 
L 55.621495 203.232568 
L 56.060528 198.020571 
L 56.499561 186.304212 
L 57.377628 158.296817 
L 57.816661 153.73979 
L 58.255694 154.893808 
L 58.694727 160.011792 
L 59.13376 167.654641 
L 59.572793 171.338689 
L 60.011826 172.628113 
L 60.450859 176.91116 
L 60.889892 183.079086 
L 61.328925 184.914596 
L 61.767958 178.85208 
L 62.206991 167.541963 
L 63.963123 111.286127 
L 64.402156 110.852048 
L 64.841189 111.824288 
L 65.280222 114.324902 
L 65.719255 122.52009 
L 66.597321 147.9834 
L 67.036354 162.294447 
L 67.475388 170.958695 
L 67.914421 170.440445 
L 68.792487 157.678316 
L 69.23152 157.749616 
L 69.670553 161.954803 
L 70.109586 168.852484 
L 70.548619 171.948581 
L 70.987652 172.791687 
L 71.426685 171.414544 
L 71.865718 163.796332 
L 72.304751 152.179771 
L 72.743784 143.692128 
L 73.182817 142.603396 
L 73.62185 146.785705 
L 74.060883 154.463045 
L 74.499916 158.86344 
L 74.938949 161.312125 
L 75.377982 167.005735 
L 75.817015 169.35022 
L 76.695081 160.072877 
L 77.134114 161.012349 
L 77.573148 165.658161 
L 78.012181 172.672064 
L 78.451214 175.649683 
L 78.890247 176.215137 
L 79.32928 174.462739 
L 80.207346 159.70403 
L 81.085412 149.06548 
L 81.524445 145.082485 
L 82.402511 140.044317 
L 82.841544 133.419977 
L 83.71961 113.362349 
L 84.597676 91.309429 
L 85.036709 86.53005 
L 85.475742 85.716158 
L 85.914775 82.990664 
L 86.353808 84.398162 
L 87.670908 110.273249 
L 88.548974 124.051199 
L 89.42704 133.862221 
L 90.305106 139.975543 
L 90.744139 147.044755 
L 91.183172 151.405777 
L 91.622205 148.880857 
L 92.061238 141.635955 
L 92.500271 131.44501 
L 92.939304 125.049743 
L 93.378337 126.413477 
L 93.81737 133.173344 
L 94.695436 155.483232 
L 96.012535 192.744645 
L 96.451568 198.067129 
L 96.890601 199.108945 
L 97.329634 201.828302 
L 97.768668 200.250048 
L 98.207701 196.314479 
L 98.646734 195.672931 
L 99.085767 197.386298 
L 99.5248 200.66926 
L 99.963833 199.548976 
L 100.402866 195.972912 
L 100.841899 195.602622 
L 101.280932 192.173735 
L 101.719965 187.357736 
L 102.158998 186.565637 
L 102.598031 188.650688 
L 103.037064 192.653848 
L 104.354163 209.236322 
L 104.793196 214.747984 
L 105.232229 214.459659 
L 105.671262 210.687639 
L 106.110295 209.407317 
L 106.549328 209.950031 
L 106.988361 211.748945 
L 107.427394 209.001622 
L 107.866428 198.446015 
L 108.744494 170.100706 
L 109.183527 159.22167 
L 109.62256 145.547235 
L 110.061593 135.957381 
L 110.500626 134.497705 
L 110.939659 133.506749 
L 111.817725 133.562848 
L 112.256758 128.954662 
L 112.695791 126.624144 
L 113.134824 125.432569 
L 113.573857 125.694469 
L 114.01289 126.378511 
L 114.451923 122.575416 
L 114.890956 115.809801 
L 115.329989 112.648559 
L 115.769022 111.604752 
L 116.208055 112.696199 
L 116.647088 114.646713 
L 118.842254 130.452121 
L 119.281287 138.258492 
L 119.72032 143.599916 
L 120.159353 147.512468 
L 120.598386 149.624494 
L 121.037419 150.945275 
L 121.476452 151.050823 
L 121.915485 145.545742 
L 122.354518 136.375718 
L 122.793551 130.441213 
L 123.232584 126.509706 
L 123.671617 124.7843 
L 124.11065 124.115659 
L 124.549683 119.478056 
L 124.988716 112.286864 
L 125.427749 109.010537 
L 125.866782 113.41358 
L 126.744848 130.391641 
L 127.183881 131.106756 
L 128.061948 133.483171 
L 128.500981 129.57833 
L 128.940014 122.373639 
L 129.379047 113.221545 
L 129.81808 108.514361 
L 130.257113 111.935126 
L 130.696146 120.904102 
L 131.135179 133.312319 
L 131.574212 142.156088 
L 132.013245 148.612447 
L 132.452278 152.459357 
L 132.891311 154.853971 
L 133.330344 155.511183 
L 133.769377 150.160859 
L 134.20841 146.194873 
L 134.647443 148.161203 
L 135.086476 148.867715 
L 135.525509 149.237749 
L 135.964542 154.099989 
L 136.842608 171.288773 
L 137.281641 181.368796 
L 137.720674 186.050837 
L 138.159708 187.271724 
L 138.598741 190.738259 
L 139.037774 195.60542 
L 139.476807 195.867154 
L 139.91584 193.458133 
L 140.354873 194.042172 
L 140.793906 191.367651 
L 141.232939 187.125532 
L 142.111005 175.55214 
L 142.550038 174.643122 
L 142.989071 177.271244 
L 143.428104 176.91698 
L 143.867137 175.068012 
L 144.745203 167.958633 
L 145.184236 168.959562 
L 145.623269 173.231765 
L 146.062302 179.585074 
L 146.501335 181.734519 
L 147.818434 164.742355 
L 148.257468 154.382376 
L 148.696501 146.664681 
L 149.135534 145.96258 
L 149.574567 144.904023 
L 150.0136 138.901077 
L 150.452633 129.728797 
L 150.891666 124.141405 
L 151.330699 126.122091 
L 151.769732 133.332003 
L 153.086831 163.710144 
L 153.525864 162.798477 
L 154.40393 150.641574 
L 154.842963 146.084283 
L 155.281996 142.890998 
L 155.721029 145.575165 
L 156.160062 146.923194 
L 156.599095 142.510214 
L 157.038128 134.269026 
L 157.916194 112.210758 
L 158.355227 105.865608 
L 158.794261 108.271072 
L 159.233294 111.379703 
L 159.672327 115.40913 
L 160.11136 124.624775 
L 160.550393 137.011627 
L 160.989426 145.646272 
L 161.428459 146.435072 
L 161.867492 146.99071 
L 162.306525 146.76453 
L 162.745558 141.250546 
L 163.184591 137.636673 
L 163.623624 140.300102 
L 164.062657 147.247346 
L 164.50169 151.511791 
L 164.940723 154.250347 
L 165.379756 155.181597 
L 165.818789 155.37877 
L 166.257822 159.797034 
L 167.135888 175.676221 
L 167.574921 185.0343 
L 168.013954 189.015301 
L 168.892021 178.907205 
L 169.331054 172.850416 
L 169.770087 161.859187 
L 170.20912 147.967324 
L 170.648153 138.097292 
L 171.087186 130.990821 
L 171.526219 121.455879 
L 171.965252 116.046927 
L 172.404285 113.240905 
L 172.843318 113.004706 
L 173.282351 119.340554 
L 173.721384 129.975261 
L 174.160417 137.744323 
L 174.59945 138.337699 
L 175.038483 133.843324 
L 175.477516 125.99945 
L 175.916549 121.543814 
L 177.233648 129.936773 
L 177.672681 132.229339 
L 178.111714 129.252813 
L 178.550747 122.71937 
L 178.989781 119.359255 
L 179.428814 117.823257 
L 179.867847 118.241636 
L 180.30688 124.764023 
L 181.184946 147.967466 
L 182.941078 199.545714 
L 183.380111 209.67405 
L 183.819144 212.905222 
L 184.69721 198.600105 
L 185.136243 195.145244 
L 186.014309 183.372613 
L 187.331408 163.688337 
L 187.770441 158.300913 
L 188.209474 158.630481 
L 188.648507 157.634361 
L 189.087541 151.00757 
L 190.40464 120.800779 
L 190.843673 116.131449 
L 191.282706 114.430559 
L 191.721739 114.322361 
L 192.160772 110.593457 
L 193.038838 97.083031 
L 193.477871 94.439071 
L 193.916904 94.71507 
L 194.355937 92.28552 
L 194.79497 88.076856 
L 195.234003 88.172357 
L 195.673036 96.044673 
L 196.551102 119.478698 
L 196.990135 128.287957 
L 197.868201 153.663704 
L 198.307234 167.523345 
L 198.746267 175.595179 
L 199.185301 179.753325 
L 199.624334 180.347038 
L 200.063367 173.64906 
L 200.941433 153.245402 
L 201.380466 146.014647 
L 202.697565 116.171094 
L 203.136598 112.006596 
L 203.575631 110.877848 
L 204.014664 116.696303 
L 204.453697 127.105129 
L 205.331763 140.941011 
L 205.770796 144.921932 
L 206.209829 142.469305 
L 207.087895 139.576545 
L 207.965961 138.34416 
L 208.404994 138.327995 
L 208.844027 143.49042 
L 209.283061 152.031309 
L 209.722094 157.167807 
L 210.161127 160.22417 
L 210.60016 166.403078 
L 211.039193 169.121162 
L 211.478226 164.509121 
L 211.917259 154.973579 
L 212.356292 142.468746 
L 212.795325 133.864596 
L 213.234358 127.872228 
L 213.673391 124.62308 
L 214.112424 128.226229 
L 214.551457 136.469086 
L 214.99049 147.549065 
L 215.429523 154.709971 
L 215.868556 153.984755 
L 216.307589 147.740328 
L 217.624688 118.880927 
L 218.063721 114.627736 
L 218.502754 107.961886 
L 218.941787 105.282653 
L 219.380821 104.964934 
L 219.819854 106.916376 
L 220.258887 109.776132 
L 222.015019 125.582599 
L 222.454052 123.948721 
L 222.893085 118.639684 
L 223.332118 116.356417 
L 224.210184 125.140115 
L 224.649217 123.785373 
L 225.08825 124.018704 
L 225.527283 124.770526 
L 226.844382 130.186362 
L 227.283415 131.940666 
L 227.722448 128.599976 
L 228.161481 127.181255 
L 228.600514 126.602986 
L 229.039547 127.235674 
L 229.478581 128.100154 
L 229.917614 124.333892 
L 230.356647 117.501983 
L 231.234713 99.417475 
L 231.673746 95.224052 
L 232.112779 94.366982 
L 232.551812 91.157232 
L 232.990845 91.795057 
L 233.429878 94.522397 
L 233.868911 93.830386 
L 234.307944 96.102195 
L 234.746977 99.75503 
L 235.18601 99.440694 
L 235.625043 101.684327 
L 236.064076 105.024463 
L 237.820208 123.279302 
L 238.259241 122.186853 
L 238.698274 117.351783 
L 239.576341 101.613103 
L 240.015374 97.960419 
L 240.454407 97.34085 
L 240.89344 99.479547 
L 241.332473 102.861401 
L 242.210539 112.27271 
L 242.649572 112.069541 
L 243.088605 108.391898 
L 243.527638 102.458766 
L 243.966671 100.584569 
L 244.844737 112.03901 
L 245.28377 112.467404 
L 246.161836 117.103427 
L 246.600869 115.103512 
L 247.039902 110.000559 
L 247.917968 94.972814 
L 249.235067 71.210682 
L 249.6741 69.910042 
L 250.552167 86.300264 
L 250.9912 95.475402 
L 251.869266 120.505518 
L 252.308299 129.717647 
L 252.747332 141.834845 
L 253.186365 150.026439 
L 253.625398 155.610333 
L 254.064431 158.475313 
L 254.503464 159.862372 
L 254.942497 164.883921 
L 255.38153 166.866125 
L 255.820563 161.853818 
L 256.259596 152.175512 
L 256.698629 139.716864 
L 257.137662 131.289627 
L 257.576695 125.557011 
L 258.015728 117.275271 
L 258.454761 112.968752 
L 258.893794 116.43818 
L 259.332827 125.205216 
L 259.77186 137.245488 
L 260.210894 145.623634 
L 260.649927 151.569963 
L 261.527993 170.37298 
L 261.967026 181.006703 
L 262.406059 186.097925 
L 262.845092 187.604687 
L 263.284125 185.918113 
L 263.723158 177.320981 
L 264.601224 154.195226 
L 265.040257 151.412345 
L 265.47929 153.938683 
L 265.918323 160.07383 
L 266.357356 168.430208 
L 266.796389 172.576385 
L 267.235422 174.126534 
L 267.674455 173.177609 
L 268.113488 171.10576 
L 269.430587 160.314396 
L 270.747687 150.264528 
L 271.18672 147.429277 
L 271.625753 145.378934 
L 272.064786 148.737999 
L 272.503819 150.395697 
L 272.942852 151.35586 
L 273.381885 156.52284 
L 273.820918 159.046154 
L 274.698984 151.410709 
L 275.138017 153.491901 
L 275.57705 159.336798 
L 276.016083 162.19021 
L 276.455116 163.374231 
L 276.894149 168.068467 
L 277.333182 174.990048 
L 277.772215 177.781006 
L 278.211248 178.10311 
L 278.650281 181.417277 
L 279.089314 181.328956 
L 279.528347 179.435939 
L 279.96738 175.78212 
L 280.845447 158.626002 
L 281.28448 157.305746 
L 281.723513 160.553606 
L 282.162546 166.850178 
L 282.601579 174.964817 
L 283.040612 178.597833 
L 283.918678 169.53404 
L 284.357711 169.829663 
L 284.796744 168.222106 
L 285.235777 160.609001 
L 286.552876 126.638635 
L 286.991909 120.761552 
L 287.430942 112.62958 
L 287.869975 108.672318 
L 288.309008 107.276162 
L 288.748041 108.346394 
L 289.187074 110.510152 
L 289.626107 113.919355 
L 290.06514 122.77609 
L 291.38224 158.094637 
L 291.821273 158.572841 
L 292.260306 152.935756 
L 293.577405 123.668247 
L 294.016438 118.88742 
L 294.894504 102.99823 
L 295.333537 99.196652 
L 295.77257 103.7444 
L 296.211603 113.937241 
L 296.650636 127.573386 
L 297.089669 137.583531 
L 297.528702 139.764606 
L 297.967735 136.314207 
L 298.406768 129.076387 
L 299.284834 108.908837 
L 299.723867 103.379052 
L 300.601934 110.188457 
L 301.040967 109.359248 
L 301.48 110.719721 
L 301.919033 112.963502 
L 303.236132 123.405731 
L 303.675165 132.013111 
L 304.114198 143.583729 
L 304.553231 151.298406 
L 304.992264 151.142399 
L 305.431297 150.785295 
L 305.87033 155.053943 
L 306.309363 157.021274 
L 306.748396 157.85205 
L 307.187429 162.587057 
L 307.626462 164.487832 
L 308.065495 159.542911 
L 308.504528 150.033323 
L 309.382594 137.871666 
L 309.821627 134.606012 
L 310.26066 137.673819 
L 310.699694 145.043799 
L 311.138727 155.058836 
L 311.57776 161.075321 
L 312.016793 164.54681 
L 312.455826 170.791483 
L 314.211958 204.198653 
L 314.650991 206.40134 
L 315.090024 204.807453 
L 315.529057 200.033419 
L 315.96809 188.520092 
L 316.846156 160.440776 
L 317.285189 150.364593 
L 317.724222 143.057662 
L 318.163255 142.834248 
L 318.602288 147.614226 
L 319.919387 171.020014 
L 320.797454 165.079963 
L 321.236487 166.647766 
L 321.67552 166.103623 
L 322.553586 153.914761 
L 322.992619 154.440008 
L 323.431652 153.801616 
L 323.870685 152.965075 
L 324.309718 151.444423 
L 324.748751 144.77273 
L 325.626817 123.080371 
L 326.06585 110.694666 
L 326.504883 103.841357 
L 326.943916 105.994921 
L 327.382949 109.04545 
L 327.821982 107.819296 
L 328.261015 108.980832 
L 328.700048 116.512742 
L 330.017147 151.477514 
L 330.45618 157.863519 
L 330.895214 166.512628 
L 331.334247 170.965686 
L 331.77328 172.81659 
L 332.212313 177.485418 
L 332.651346 183.895074 
L 333.090379 185.85812 
L 333.968445 173.839792 
L 334.407478 172.925192 
L 334.846511 175.639504 
L 335.285544 180.768674 
L 335.724577 187.330484 
L 336.16361 189.220528 
L 337.480709 170.021257 
L 338.358775 144.866617 
L 340.114907 87.437088 
L 340.992974 66.3546 
L 341.87104 52.07111 
L 342.310073 47.226203 
L 342.749106 43.679313 
L 343.188139 46.570285 
L 344.505238 83.844644 
L 345.383304 114.662691 
L 346.26137 126.328355 
L 347.578469 156.147197 
L 348.017502 161.198128 
L 348.456535 163.394397 
L 348.895568 164.052163 
L 349.334601 168.339989 
L 349.773634 169.623839 
L 350.212667 169.311833 
L 350.6517 172.640347 
L 351.090733 173.02258 
L 351.529767 166.559822 
L 352.407833 147.416411 
L 352.846866 141.000647 
L 353.724932 120.131106 
L 354.163965 108.213414 
L 354.602998 101.820076 
L 355.042031 99.06672 
L 355.481064 94.274128 
L 355.920097 93.633028 
L 356.798163 107.490393 
L 357.237196 108.981396 
L 357.676229 106.659622 
L 358.115262 101.772832 
L 358.554295 100.671964 
L 359.871394 118.974075 
L 360.74946 142.327676 
L 361.188493 156.427889 
L 361.627527 165.251328 
L 362.06656 170.481767 
L 362.505593 172.317505 
L 363.383659 162.034964 
L 363.822692 162.525484 
L 364.261725 161.438451 
L 365.139791 149.266601 
L 365.578824 144.807714 
L 366.45689 139.253693 
L 366.895923 132.533478 
L 367.334956 123.189797 
L 367.773989 117.824662 
L 368.213022 114.956256 
L 368.652055 109.249012 
L 369.969154 85.26412 
L 370.408187 77.245999 
L 370.84722 75.225216 
L 371.286253 76.948333 
L 371.725287 76.470606 
L 372.16432 79.804126 
L 372.603353 85.060144 
L 373.042386 91.983552 
L 373.920452 114.877815 
L 374.798518 122.570759 
L 375.237551 131.417232 
L 375.676584 143.187596 
L 376.115617 151.063814 
L 376.55465 151.03395 
L 376.993683 150.771425 
L 377.432716 155.107451 
L 377.871749 157.119455 
L 378.310782 152.639466 
L 378.749815 143.81967 
L 379.188848 132.404357 
L 379.627881 125.095965 
L 380.066914 120.476711 
L 380.505947 118.583153 
L 381.384013 127.510769 
L 381.823047 126.021873 
L 382.26208 126.043338 
L 382.701113 131.876742 
L 383.140146 136.162631 
L 383.579179 134.384432 
L 384.018212 133.763322 
L 384.457245 138.738916 
L 384.896278 142.06032 
L 385.335311 139.293064 
L 385.774344 137.717467 
L 386.213377 141.813007 
L 386.65241 149.690074 
L 387.091443 154.481607 
L 387.530476 157.435797 
L 387.969509 163.688986 
L 388.408542 166.601798 
L 388.847575 162.259147 
L 389.286608 153.031476 
L 389.725641 140.84548 
L 390.164674 132.551169 
L 390.603707 132.183139 
L 391.04274 137.419971 
L 391.481773 146.331756 
L 391.920807 152.028622 
L 392.798873 149.064562 
L 393.237906 152.725338 
L 393.676939 154.386469 
L 394.115972 155.139692 
L 394.555005 154.625247 
L 394.994038 148.495747 
L 395.433071 144.068038 
L 395.433071 144.068038 
" style="fill:none;stroke:#0000ff;stroke-linecap:square;"/>
   </g>
   <g id="line2d_31">
    <path clip-path="url(#p770db3a7cc)" d="M 44.645669 236.950608 
L 45.084702 236.950608 
L 45.523735 231.613514 
L 45.962768 218.046689 
L 47.279868 161.485667 
L 47.718901 148.37767 
L 48.157934 139.038491 
L 48.596967 132.256731 
L 49.036 128.221292 
L 49.475033 125.744493 
L 49.914066 125.084346 
L 50.353099 125.15064 
L 50.792132 120.976641 
L 51.231165 119.370622 
L 52.109231 128.523454 
L 52.548264 132.363558 
L 52.987297 140.556347 
L 53.865363 163.507339 
L 55.182462 198.826427 
L 55.621495 203.232568 
L 56.060528 198.020571 
L 56.499561 186.304212 
L 57.377628 158.296817 
L 57.816661 153.73979 
L 58.255694 154.893808 
L 58.694727 160.011792 
L 59.13376 167.654641 
L 59.572793 171.338689 
L 60.011826 172.628113 
L 60.450859 176.91116 
L 60.889892 183.079086 
L 61.328925 184.914596 
L 61.767958 178.85208 
L 62.206991 167.541963 
L 63.963123 111.286127 
L 64.402156 110.852048 
L 64.841189 111.824288 
L 65.280222 114.324902 
L 65.719255 122.52009 
L 66.597321 147.9834 
L 67.036354 162.294447 
L 67.475388 170.958695 
L 67.914421 170.440445 
L 68.792487 157.678316 
L 69.23152 157.749616 
L 69.670553 161.954803 
L 70.109586 168.852484 
L 70.548619 171.948581 
L 70.987652 172.791687 
L 71.426685 171.414544 
L 71.865718 163.796332 
L 72.304751 152.179771 
L 72.743784 143.692128 
L 73.182817 142.603396 
L 73.62185 146.785705 
L 74.060883 154.463045 
L 74.499916 158.86344 
L 74.938949 161.312125 
L 75.377982 167.005735 
L 75.817015 169.35022 
L 76.695081 160.072877 
L 77.134114 161.012349 
L 77.573148 165.658161 
L 78.012181 172.672064 
L 78.451214 175.649683 
L 78.890247 176.215137 
L 79.32928 174.462739 
L 80.207346 159.70403 
L 81.085412 149.06548 
L 81.524445 145.082485 
L 82.402511 140.044317 
L 82.841544 133.419977 
L 83.71961 113.362349 
L 84.597676 91.309429 
L 85.036709 86.53005 
L 85.475742 85.716158 
L 85.914775 82.990664 
L 86.353808 84.398162 
L 87.670908 110.273249 
L 88.548974 124.051199 
L 89.42704 133.862221 
L 90.305106 139.975543 
L 90.744139 147.044755 
L 91.183172 151.405777 
L 91.622205 148.880857 
L 92.061238 141.635955 
L 92.500271 131.44501 
L 92.939304 125.049743 
L 93.378337 126.413477 
L 93.81737 133.173344 
L 94.695436 155.483232 
L 96.012535 192.744645 
L 96.451568 198.067129 
L 96.890601 199.108945 
L 97.329634 201.828302 
L 97.768668 200.250048 
L 98.207701 196.314479 
L 98.646734 195.672931 
L 99.085767 197.386298 
L 99.5248 200.66926 
L 99.963833 199.548976 
L 100.402866 195.972912 
L 100.841899 195.602622 
L 101.280932 192.173735 
L 101.719965 187.357736 
L 102.158998 186.565637 
L 102.598031 188.650688 
L 103.037064 192.653848 
L 104.354163 209.236322 
L 104.793196 214.747984 
L 105.232229 214.459659 
L 105.671262 210.687639 
L 106.110295 209.407317 
L 106.549328 209.950031 
L 106.988361 211.748945 
L 107.427394 209.001622 
L 107.866428 198.446015 
L 108.744494 170.100706 
L 109.183527 159.22167 
L 109.62256 145.547235 
L 110.061593 135.957381 
L 110.500626 134.497705 
L 110.939659 133.506749 
L 111.817725 133.562848 
L 112.256758 128.954662 
L 112.695791 126.624144 
L 113.134824 125.432569 
L 113.573857 125.694469 
L 114.01289 126.378511 
L 114.451923 122.575416 
L 114.890956 115.809801 
L 115.329989 112.648559 
L 115.769022 111.604752 
L 116.208055 112.696199 
L 116.647088 114.646713 
L 118.842254 130.452121 
L 119.281287 138.258492 
L 119.72032 143.599916 
L 120.159353 147.512468 
L 120.598386 149.624494 
L 121.037419 150.945275 
L 121.476452 151.050823 
L 121.915485 145.545742 
L 122.354518 136.375718 
L 122.793551 130.441213 
L 123.232584 126.509706 
L 123.671617 124.7843 
L 124.11065 124.115659 
L 124.549683 119.478056 
L 124.988716 112.286864 
L 125.427749 109.010537 
L 125.866782 113.41358 
L 126.744848 130.391641 
L 127.183881 131.106756 
L 128.061948 133.483171 
L 128.500981 129.57833 
L 128.940014 122.373639 
L 129.379047 113.221545 
L 129.81808 108.514361 
L 130.257113 111.935126 
L 130.696146 120.904102 
L 131.135179 133.312319 
L 131.574212 142.156088 
L 132.013245 148.612447 
L 132.452278 152.459357 
L 132.891311 154.853971 
L 133.330344 155.511183 
L 133.769377 150.160859 
L 134.20841 146.194873 
L 134.647443 148.161203 
L 135.086476 148.867715 
L 135.525509 149.237749 
L 135.964542 154.099989 
L 136.842608 171.288773 
L 137.281641 181.368796 
L 137.720674 186.050837 
L 138.159708 187.271724 
L 138.598741 190.738259 
L 139.037774 195.60542 
L 139.476807 195.867154 
L 139.91584 193.458133 
L 140.354873 194.042172 
L 140.793906 191.367651 
L 141.232939 187.125532 
L 142.111005 175.55214 
L 142.550038 174.643122 
L 142.989071 177.271244 
L 143.428104 176.91698 
L 143.867137 175.068012 
L 144.745203 167.958633 
L 145.184236 168.959562 
L 145.623269 173.231765 
L 146.062302 179.585074 
L 146.501335 181.734519 
L 147.818434 164.742355 
L 148.257468 154.382376 
L 148.696501 146.664681 
L 149.135534 145.96258 
L 149.574567 144.904023 
L 150.0136 138.901077 
L 150.452633 129.728797 
L 150.891666 124.141405 
L 151.330699 126.122091 
L 151.769732 133.332003 
L 153.086831 163.710144 
L 153.525864 162.798477 
L 154.40393 150.641574 
L 154.842963 146.084283 
L 155.281996 142.890998 
L 155.721029 145.575165 
L 156.160062 146.923194 
L 156.599095 142.510214 
L 157.038128 134.269026 
L 157.916194 112.210758 
L 158.355227 105.865608 
L 158.794261 108.271072 
L 159.233294 111.379703 
L 159.672327 115.40913 
L 160.11136 124.624775 
L 160.550393 137.011627 
L 160.989426 145.646272 
L 161.428459 146.435072 
L 161.867492 146.99071 
L 162.306525 146.76453 
L 162.745558 141.250546 
L 163.184591 137.636673 
L 163.623624 140.300102 
L 164.062657 147.247346 
L 164.50169 151.511791 
L 164.940723 154.250347 
L 165.379756 155.181597 
L 165.818789 155.37877 
L 166.257822 159.797034 
L 167.135888 175.676221 
L 167.574921 185.0343 
L 168.013954 189.015301 
L 168.892021 178.907205 
L 169.331054 172.850416 
L 169.770087 161.859187 
L 170.20912 147.967324 
L 170.648153 138.097292 
L 171.087186 130.990821 
L 171.526219 121.455879 
L 171.965252 116.046927 
L 172.404285 113.240905 
L 172.843318 113.004706 
L 173.282351 119.340554 
L 173.721384 129.975261 
L 174.160417 137.744323 
L 174.59945 138.337699 
L 175.038483 133.843324 
L 175.477516 125.99945 
L 175.916549 121.543814 
L 177.233648 129.936773 
L 177.672681 132.229339 
L 178.111714 129.252813 
L 178.550747 122.71937 
L 178.989781 119.359255 
L 179.428814 117.823257 
L 179.867847 118.241636 
L 180.30688 124.764023 
L 181.184946 147.967466 
L 182.941078 199.545714 
L 183.380111 209.67405 
L 183.819144 212.905222 
L 184.69721 198.600105 
L 185.136243 195.145244 
L 186.014309 183.372613 
L 187.331408 163.688337 
L 187.770441 158.300913 
L 188.209474 158.630481 
L 188.648507 157.634361 
L 189.087541 151.00757 
L 190.40464 120.800779 
L 190.843673 116.131449 
L 191.282706 114.430559 
L 191.721739 114.322361 
L 192.160772 110.593457 
L 193.038838 97.083031 
L 193.477871 94.439071 
L 193.916904 94.71507 
L 194.355937 92.28552 
L 194.79497 88.076856 
L 195.234003 88.172357 
L 195.673036 96.044673 
L 196.551102 119.478698 
L 196.990135 128.287957 
L 197.868201 153.663704 
L 198.307234 167.523345 
L 198.746267 175.595179 
L 199.185301 179.753325 
L 199.624334 180.347038 
L 200.063367 173.64906 
L 200.941433 153.245402 
L 201.380466 146.014647 
L 202.697565 116.171094 
L 203.136598 112.006596 
L 203.575631 110.877848 
L 204.014664 116.696303 
L 204.453697 127.105129 
L 205.331763 140.941011 
L 205.770796 144.921932 
L 206.209829 142.469305 
L 207.087895 139.576545 
L 207.965961 138.34416 
L 208.404994 138.327995 
L 208.844027 143.49042 
L 209.283061 152.031309 
L 209.722094 157.167807 
L 210.161127 160.22417 
L 210.60016 166.403078 
L 211.039193 169.121162 
L 211.478226 164.509121 
L 211.917259 154.973579 
L 212.356292 142.468746 
L 212.795325 133.864596 
L 213.234358 127.872228 
L 213.673391 124.62308 
L 214.112424 128.226229 
L 214.551457 136.469086 
L 214.99049 147.549065 
L 215.429523 154.709971 
L 215.868556 153.984755 
L 216.307589 147.740328 
L 217.624688 118.880927 
L 218.063721 114.627736 
L 218.502754 107.961886 
L 218.941787 105.282653 
L 219.380821 104.964934 
L 219.819854 106.916376 
L 220.258887 109.776132 
L 222.015019 125.582599 
L 222.454052 123.948721 
L 222.893085 118.639684 
L 223.332118 116.356417 
L 224.210184 125.140115 
L 224.649217 123.785373 
L 225.08825 124.018704 
L 225.527283 124.770526 
L 226.844382 130.186362 
L 227.283415 131.940666 
L 227.722448 128.599976 
L 228.161481 127.181255 
L 228.600514 126.602986 
L 229.039547 127.235674 
L 229.478581 128.100154 
L 229.917614 124.333892 
L 230.356647 117.501983 
L 231.234713 99.417475 
L 231.673746 95.224052 
L 232.112779 94.366982 
L 232.551812 91.157232 
L 232.990845 91.795057 
L 233.429878 94.522397 
L 233.868911 93.830386 
L 234.307944 96.102195 
L 234.746977 99.75503 
L 235.18601 99.440694 
L 235.625043 101.684327 
L 236.064076 105.024463 
L 237.820208 123.279302 
L 238.259241 122.186853 
L 238.698274 117.351783 
L 239.576341 101.613103 
L 240.015374 97.960419 
L 240.454407 97.34085 
L 240.89344 99.479547 
L 241.332473 102.861401 
L 242.210539 112.27271 
L 242.649572 112.069541 
L 243.088605 108.391898 
L 243.527638 102.458766 
L 243.966671 100.584569 
L 244.844737 112.03901 
L 245.28377 112.467404 
L 246.161836 117.103427 
L 246.600869 115.103512 
L 247.039902 110.000559 
L 247.917968 94.972814 
L 249.235067 71.210682 
L 249.6741 69.910042 
L 250.552167 86.300264 
L 250.9912 95.475402 
L 251.869266 120.505518 
L 252.308299 129.717647 
L 252.747332 141.834845 
L 253.186365 150.026439 
L 253.625398 155.610333 
L 254.064431 158.475313 
L 254.503464 159.862372 
L 254.942497 164.883921 
L 255.38153 166.866125 
L 255.820563 161.853818 
L 256.259596 152.175512 
L 256.698629 139.716864 
L 257.137662 131.289627 
L 257.576695 125.557011 
L 258.015728 117.275271 
L 258.454761 112.968752 
L 258.893794 116.43818 
L 259.332827 125.205216 
L 259.77186 137.245488 
L 260.210894 145.623634 
L 260.649927 151.569963 
L 261.527993 170.37298 
L 261.967026 181.006703 
L 262.406059 186.097925 
L 262.845092 187.604687 
L 263.284125 185.918113 
L 263.723158 177.320981 
L 264.601224 154.195226 
L 265.040257 151.412345 
L 265.47929 153.938683 
L 265.918323 160.07383 
L 266.357356 168.430208 
L 266.796389 172.576385 
L 267.235422 174.126534 
L 267.674455 173.177609 
L 268.113488 171.10576 
L 269.430587 160.314396 
L 270.747687 150.264528 
L 271.18672 147.429277 
L 271.625753 145.378934 
L 272.064786 148.737999 
L 272.503819 150.395697 
L 272.942852 151.35586 
L 273.381885 156.52284 
L 273.820918 159.046154 
L 274.698984 151.410709 
L 275.138017 153.491901 
L 275.57705 159.336798 
L 276.016083 162.19021 
L 276.455116 163.374231 
L 276.894149 168.068467 
L 277.333182 174.990048 
L 277.772215 177.781006 
L 278.211248 178.10311 
L 278.650281 181.417277 
L 279.089314 181.328956 
L 279.528347 179.435939 
L 279.96738 175.78212 
L 280.845447 158.626002 
L 281.28448 157.305746 
L 281.723513 160.553606 
L 282.162546 166.850178 
L 282.601579 174.964817 
L 283.040612 178.597833 
L 283.918678 169.53404 
L 284.357711 169.829663 
L 284.796744 168.222106 
L 285.235777 160.609001 
L 286.552876 126.638635 
L 286.991909 120.761552 
L 287.430942 112.62958 
L 287.869975 108.672318 
L 288.309008 107.276162 
L 288.748041 108.346394 
L 289.187074 110.510152 
L 289.626107 113.919355 
L 290.06514 122.77609 
L 291.38224 158.094637 
L 291.821273 158.572841 
L 292.260306 152.935756 
L 293.577405 123.668247 
L 294.016438 118.88742 
L 294.894504 102.99823 
L 295.333537 99.196652 
L 295.77257 103.7444 
L 296.211603 113.937241 
L 296.650636 127.573386 
L 297.089669 137.583531 
L 297.528702 139.764606 
L 297.967735 136.314207 
L 298.406768 129.076387 
L 299.284834 108.908837 
L 299.723867 103.379052 
L 300.601934 110.188457 
L 301.040967 109.359248 
L 301.48 110.719721 
L 301.919033 112.963502 
L 303.236132 123.405731 
L 303.675165 132.013111 
L 304.114198 143.583729 
L 304.553231 151.298406 
L 304.992264 151.142399 
L 305.431297 150.785295 
L 305.87033 155.053943 
L 306.309363 157.021274 
L 306.748396 157.85205 
L 307.187429 162.587057 
L 307.626462 164.487832 
L 308.065495 159.542911 
L 308.504528 150.033323 
L 309.382594 137.871666 
L 309.821627 134.606012 
L 310.26066 137.673819 
L 310.699694 145.043799 
L 311.138727 155.058836 
L 311.57776 161.075321 
L 312.016793 164.54681 
L 312.455826 170.791483 
L 314.211958 204.198653 
L 314.650991 206.40134 
L 315.090024 204.807453 
L 315.529057 200.033419 
L 315.96809 188.520092 
L 316.846156 160.440776 
L 317.285189 150.364593 
L 317.724222 143.057662 
L 318.163255 142.834248 
L 318.602288 147.614226 
L 319.919387 171.020014 
L 320.797454 165.079963 
L 321.236487 166.647766 
L 321.67552 166.103623 
L 322.553586 153.914761 
L 322.992619 154.440008 
L 323.431652 153.801616 
L 323.870685 152.965075 
L 324.309718 151.444423 
L 324.748751 144.77273 
L 325.626817 123.080371 
L 326.06585 110.694666 
L 326.504883 103.841357 
L 326.943916 105.994921 
L 327.382949 109.04545 
L 327.821982 107.819296 
L 328.261015 108.980832 
L 328.700048 116.512742 
L 330.017147 151.477514 
L 330.45618 157.863519 
L 330.895214 166.512628 
L 331.334247 170.965686 
L 331.77328 172.81659 
L 332.212313 177.485418 
L 332.651346 183.895074 
L 333.090379 185.85812 
L 333.968445 173.839792 
L 334.407478 172.925192 
L 334.846511 175.639504 
L 335.285544 180.768674 
L 335.724577 187.330484 
L 336.16361 189.220528 
L 337.480709 170.021257 
L 338.358775 144.866617 
L 340.114907 87.437088 
L 340.992974 66.3546 
L 341.87104 52.07111 
L 342.310073 47.226203 
L 342.749106 43.679313 
L 343.188139 46.570285 
L 344.505238 83.844644 
L 345.383304 114.662691 
L 346.26137 126.328355 
L 347.578469 156.147197 
L 348.017502 161.198128 
L 348.456535 163.394397 
L 348.895568 164.052163 
L 349.334601 168.339989 
L 349.773634 169.623839 
L 350.212667 169.311833 
L 350.6517 172.640347 
L 351.090733 173.02258 
L 351.529767 166.559822 
L 352.407833 147.416411 
L 352.846866 141.000647 
L 353.724932 120.131106 
L 354.163965 108.213414 
L 354.602998 101.820076 
L 355.042031 99.06672 
L 355.481064 94.274128 
L 355.920097 93.633028 
L 356.798163 107.490393 
L 357.237196 108.981396 
L 357.676229 106.659622 
L 358.115262 101.772832 
L 358.554295 100.671964 
L 359.871394 118.974075 
L 360.74946 142.327676 
L 361.188493 156.427889 
L 361.627527 165.251328 
L 362.06656 170.481767 
L 362.505593 172.317505 
L 363.383659 162.034964 
L 363.822692 162.525484 
L 364.261725 161.438451 
L 365.139791 149.266601 
L 365.578824 144.807714 
L 366.45689 139.253693 
L 366.895923 132.533478 
L 367.334956 123.189797 
L 367.773989 117.824662 
L 368.213022 114.956256 
L 368.652055 109.249012 
L 369.969154 85.26412 
L 370.408187 77.245999 
L 370.84722 75.225216 
L 371.286253 76.948333 
L 371.725287 76.470606 
L 372.16432 79.804126 
L 372.603353 85.060144 
L 373.042386 91.983552 
L 373.920452 114.877815 
L 374.798518 122.570759 
L 375.237551 131.417232 
L 375.676584 143.187596 
L 376.115617 151.063814 
L 376.55465 151.03395 
L 376.993683 150.771425 
L 377.432716 155.107451 
L 377.871749 157.119455 
L 378.310782 152.639466 
L 378.749815 143.81967 
L 379.188848 132.404357 
L 379.627881 125.095965 
L 380.066914 120.476711 
L 380.505947 118.583153 
L 381.384013 127.510769 
L 381.823047 126.021873 
L 382.26208 126.043338 
L 382.701113 131.876742 
L 383.140146 136.162631 
L 383.579179 134.384432 
L 384.018212 133.763322 
L 384.457245 138.738916 
L 384.896278 142.06032 
L 385.335311 139.293064 
L 385.774344 137.717467 
L 386.213377 141.813007 
L 386.65241 149.690074 
L 387.091443 154.481607 
L 387.530476 157.435797 
L 387.969509 163.688986 
L 388.408542 166.601798 
L 388.847575 162.259147 
L 389.286608 153.031476 
L 389.725641 140.84548 
L 390.164674 132.551169 
L 390.603707 132.183139 
L 391.04274 137.419971 
L 391.481773 146.331756 
L 391.920807 152.028622 
L 392.798873 149.064562 
L 393.237906 152.725338 
L 393.676939 154.386469 
L 394.115972 155.139692 
L 394.555005 154.625247 
L 394.994038 148.495747 
L 395.433071 144.068038 
L 395.433071 144.068038 
" style="fill:none;stroke:#ff0000;stroke-linecap:square;"/>
   </g>
   <g id="patch_3">
    <path d="M 44.645669 246.614173 
L 44.645669 34.015748 
" style="fill:none;stroke:#000000;stroke-linecap:square;stroke-linejoin:miter;stroke-width:0.8;"/>
   </g>
   <g id="patch_4">
    <path d="M 395.433071 246.614173 
L 395.433071 34.015748 
" style="fill:none;stroke:#000000;stroke-linecap:square;stroke-linejoin:miter;stroke-width:0.8;"/>
   </g>
   <g id="patch_5">
    <path d="M 44.645669 246.614173 
L 395.433071 246.614173 
" style="fill:none;stroke:#000000;stroke-linecap:square;stroke-linejoin:miter;stroke-width:0.8;"/>
   </g>
   <g id="patch_6">
    <path d="M 44.645669 34.015748 
L 395.433071 34.015748 
" style="fill:none;stroke:#000000;stroke-linecap:square;stroke-linejoin:miter;stroke-width:0.8;"/>
   </g>
   <g id="text_17">
    <!-- Sinal PRBS (primeiras 20 amostras) -->
    <defs>
     <path d="M 53.515625 70.515625 
L 53.515625 60.890625 
Q 47.90625 63.578125 42.921875 64.890625 
Q 37.9375 66.21875 33.296875 66.21875 
Q 25.25 66.21875 20.875 63.09375 
Q 16.5 59.96875 16.5 54.203125 
Q 16.5 49.359375 19.40625 46.890625 
Q 22.3125 44.4375 30.421875 42.921875 
L 36.375 41.703125 
Q 47.40625 39.59375 52.65625 34.296875 
Q 57.90625 29 57.90625 20.125 
Q 57.90625 9.515625 50.796875 4.046875 
Q 43.703125 -1.421875 29.984375 -1.421875 
Q 24.8125 -1.421875 18.96875 -0.25 
Q 13.140625 0.921875 6.890625 3.21875 
L 6.890625 13.375 
Q 12.890625 10.015625 18.65625 8.296875 
Q 24.421875 6.59375 29.984375 6.59375 
Q 38.421875 6.59375 43.015625 9.90625 
Q 47.609375 13.234375 47.609375 19.390625 
Q 47.609375 24.75 44.3125 27.78125 
Q 41.015625 30.8125 33.5 32.328125 
L 27.484375 33.5 
Q 16.453125 35.6875 11.515625 40.375 
Q 6.59375 45.0625 6.59375 53.421875 
Q 6.59375 63.09375 13.40625 68.65625 
Q 20.21875 74.21875 32.171875 74.21875 
Q 37.3125 74.21875 42.625 73.28125 
Q 47.953125 72.359375 53.515625 70.515625 
z
" id="DejaVuSans-83"/>
     <path d="M 9.421875 54.6875 
L 18.40625 54.6875 
L 18.40625 0 
L 9.421875 0 
z
M 9.421875 75.984375 
L 18.40625 75.984375 
L 18.40625 64.59375 
L 9.421875 64.59375 
z
" id="DejaVuSans-105"/>
     <path d="M 54.890625 33.015625 
L 54.890625 0 
L 45.90625 0 
L 45.90625 32.71875 
Q 45.90625 40.484375 42.875 44.328125 
Q 39.84375 48.1875 33.796875 48.1875 
Q 26.515625 48.1875 22.3125 43.546875 
Q 18.109375 38.921875 18.109375 30.90625 
L 18.109375 0 
L 9.078125 0 
L 9.078125 54.6875 
L 18.109375 54.6875 
L 18.109375 46.1875 
Q 21.34375 51.125 25.703125 53.5625 
Q 30.078125 56 35.796875 56 
Q 45.21875 56 50.046875 50.171875 
Q 54.890625 44.34375 54.890625 33.015625 
z
" id="DejaVuSans-110"/>
     <path d="M 19.671875 64.796875 
L 19.671875 37.40625 
L 32.078125 37.40625 
Q 38.96875 37.40625 42.71875 40.96875 
Q 46.484375 44.53125 46.484375 51.125 
Q 46.484375 57.671875 42.71875 61.234375 
Q 38.96875 64.796875 32.078125 64.796875 
z
M 9.8125 72.90625 
L 32.078125 72.90625 
Q 44.34375 72.90625 50.609375 67.359375 
Q 56.890625 61.8125 56.890625 51.125 
Q 56.890625 40.328125 50.609375 34.8125 
Q 44.34375 29.296875 32.078125 29.296875 
L 19.671875 29.296875 
L 19.671875 0 
L 9.8125 0 
z
" id="DejaVuSans-80"/>
     <path d="M 44.390625 34.1875 
Q 47.5625 33.109375 50.5625 29.59375 
Q 53.5625 26.078125 56.59375 19.921875 
L 66.609375 0 
L 56 0 
L 46.6875 18.703125 
Q 43.0625 26.03125 39.671875 28.421875 
Q 36.28125 30.8125 30.421875 30.8125 
L 19.671875 30.8125 
L 19.671875 0 
L 9.8125 0 
L 9.8125 72.90625 
L 32.078125 72.90625 
Q 44.578125 72.90625 50.734375 67.671875 
Q 56.890625 62.453125 56.890625 51.90625 
Q 56.890625 45.015625 53.6875 40.46875 
Q 50.484375 35.9375 44.390625 34.1875 
z
M 19.671875 64.796875 
L 19.671875 38.921875 
L 32.078125 38.921875 
Q 39.203125 38.921875 42.84375 42.21875 
Q 46.484375 45.515625 46.484375 51.90625 
Q 46.484375 58.296875 42.84375 61.546875 
Q 39.203125 64.796875 32.078125 64.796875 
z
" id="DejaVuSans-82"/>
     <path d="M 19.671875 34.8125 
L 19.671875 8.109375 
L 35.5 8.109375 
Q 43.453125 8.109375 47.28125 11.40625 
Q 51.125 14.703125 51.125 21.484375 
Q 51.125 28.328125 47.28125 31.5625 
Q 43.453125 34.8125 35.5 34.8125 
z
M 19.671875 64.796875 
L 19.671875 42.828125 
L 34.28125 42.828125 
Q 41.5 42.828125 45.03125 45.53125 
Q 48.578125 48.25 48.578125 53.8125 
Q 48.578125 59.328125 45.03125 62.0625 
Q 41.5 64.796875 34.28125 64.796875 
z
M 9.8125 72.90625 
L 35.015625 72.90625 
Q 46.296875 72.90625 52.390625 68.21875 
Q 58.5 63.53125 58.5 54.890625 
Q 58.5 48.1875 55.375 44.234375 
Q 52.25 40.28125 46.1875 39.3125 
Q 53.46875 37.75 57.5 32.78125 
Q 61.53125 27.828125 61.53125 20.40625 
Q 61.53125 10.640625 54.890625 5.3125 
Q 48.25 0 35.984375 0 
L 9.8125 0 
z
" id="DejaVuSans-66"/>
     <path d="M 18.3125 70.21875 
L 18.3125 54.6875 
L 36.8125 54.6875 
L 36.8125 47.703125 
L 18.3125 47.703125 
L 18.3125 18.015625 
Q 18.3125 11.328125 20.140625 9.421875 
Q 21.96875 7.515625 27.59375 7.515625 
L 36.8125 7.515625 
L 36.8125 0 
L 27.59375 0 
Q 17.1875 0 13.234375 3.875 
Q 9.28125 7.765625 9.28125 18.015625 
L 9.28125 47.703125 
L 2.6875 47.703125 
L 2.6875 54.6875 
L 9.28125 54.6875 
L 9.28125 70.21875 
z
" id="DejaVuSans-116"/>
    </defs>
    <g transform="translate(95.756558 28.015748)scale(0.14 -0.14)">
     <use xlink:href="#DejaVuSans-83"/>
     <use x="63.476562" xlink:href="#DejaVuSans-105"/>
     <use x="91.259766" xlink:href="#DejaVuSans-110"/>
     <use x="154.638672" xlink:href="#DejaVuSans-97"/>
     <use x="215.917969" xlink:href="#DejaVuSans-108"/>
     <use x="243.701172" xlink:href="#DejaVuSans-32"/>
     <use x="275.488281" xlink:href="#DejaVuSans-80"/>
     <use x="335.791016" xlink:href="#DejaVuSans-82"/>
     <use x="405.273438" xlink:href="#DejaVuSans-66"/>
     <use x="472.126953" xlink:href="#DejaVuSans-83"/>
     <use x="535.603516" xlink:href="#DejaVuSans-32"/>
     <use x="567.390625" xlink:href="#DejaVuSans-40"/>
     <use x="606.404297" xlink:href="#DejaVuSans-112"/>
     <use x="669.880859" xlink:href="#DejaVuSans-114"/>
     <use x="710.994141" xlink:href="#DejaVuSans-105"/>
     <use x="738.777344" xlink:href="#DejaVuSans-109"/>
     <use x="836.189453" xlink:href="#DejaVuSans-101"/>
     <use x="897.712891" xlink:href="#DejaVuSans-105"/>
     <use x="925.496094" xlink:href="#DejaVuSans-114"/>
     <use x="966.609375" xlink:href="#DejaVuSans-97"/>
     <use x="1027.888672" xlink:href="#DejaVuSans-115"/>
     <use x="1079.988281" xlink:href="#DejaVuSans-32"/>
     <use x="1111.775391" xlink:href="#DejaVuSans-50"/>
     <use x="1175.398438" xlink:href="#DejaVuSans-48"/>
     <use x="1239.021484" xlink:href="#DejaVuSans-32"/>
     <use x="1270.808594" xlink:href="#DejaVuSans-97"/>
     <use x="1332.087891" xlink:href="#DejaVuSans-109"/>
     <use x="1429.5" xlink:href="#DejaVuSans-111"/>
     <use x="1490.681641" xlink:href="#DejaVuSans-115"/>
     <use x="1542.78125" xlink:href="#DejaVuSans-116"/>
     <use x="1581.990234" xlink:href="#DejaVuSans-114"/>
     <use x="1623.103516" xlink:href="#DejaVuSans-97"/>
     <use x="1684.382812" xlink:href="#DejaVuSans-115"/>
     <use x="1736.482422" xlink:href="#DejaVuSans-41"/>
    </g>
   </g>
   <g id="legend_1">
    <g id="patch_7">
     <path d="M 237.665883 241.614173 
L 388.433071 241.614173 
Q 390.433071 241.614173 390.433071 239.614173 
L 390.433071 196.579798 
Q 390.433071 194.579798 388.433071 194.579798 
L 237.665883 194.579798 
Q 235.665883 194.579798 235.665883 196.579798 
L 235.665883 239.614173 
Q 235.665883 241.614173 237.665883 241.614173 
z
" style="fill:#ffffff;opacity:0.8;stroke:#cccccc;stroke-linejoin:miter;"/>
    </g>
    <g id="line2d_32">
     <path d="M 239.665883 202.678236 
L 259.665883 202.678236 
" style="fill:none;stroke:#008000;stroke-linecap:square;stroke-opacity:0.55;"/>
    </g>
    <g id="line2d_33"/>
    <g id="text_18">
     <!-- Entrada do sistema -->
     <defs>
      <path d="M 9.8125 72.90625 
L 55.90625 72.90625 
L 55.90625 64.59375 
L 19.671875 64.59375 
L 19.671875 43.015625 
L 54.390625 43.015625 
L 54.390625 34.71875 
L 19.671875 34.71875 
L 19.671875 8.296875 
L 56.78125 8.296875 
L 56.78125 0 
L 9.8125 0 
z
" id="DejaVuSans-69"/>
      <path d="M 45.40625 46.390625 
L 45.40625 75.984375 
L 54.390625 75.984375 
L 54.390625 0 
L 45.40625 0 
L 45.40625 8.203125 
Q 42.578125 3.328125 38.25 0.953125 
Q 33.9375 -1.421875 27.875 -1.421875 
Q 17.96875 -1.421875 11.734375 6.484375 
Q 5.515625 14.40625 5.515625 27.296875 
Q 5.515625 40.1875 11.734375 48.09375 
Q 17.96875 56 27.875 56 
Q 33.9375 56 38.25 53.625 
Q 42.578125 51.265625 45.40625 46.390625 
z
M 14.796875 27.296875 
Q 14.796875 17.390625 18.875 11.75 
Q 22.953125 6.109375 30.078125 6.109375 
Q 37.203125 6.109375 41.296875 11.75 
Q 45.40625 17.390625 45.40625 27.296875 
Q 45.40625 37.203125 41.296875 42.84375 
Q 37.203125 48.484375 30.078125 48.484375 
Q 22.953125 48.484375 18.875 42.84375 
Q 14.796875 37.203125 14.796875 27.296875 
z
" id="DejaVuSans-100"/>
     </defs>
     <g transform="translate(267.665883 206.178236)scale(0.1 -0.1)">
      <use xlink:href="#DejaVuSans-69"/>
      <use x="63.183594" xlink:href="#DejaVuSans-110"/>
      <use x="126.5625" xlink:href="#DejaVuSans-116"/>
      <use x="165.771484" xlink:href="#DejaVuSans-114"/>
      <use x="206.884766" xlink:href="#DejaVuSans-97"/>
      <use x="268.164062" xlink:href="#DejaVuSans-100"/>
      <use x="331.640625" xlink:href="#DejaVuSans-97"/>
      <use x="392.919922" xlink:href="#DejaVuSans-32"/>
      <use x="424.707031" xlink:href="#DejaVuSans-100"/>
      <use x="488.183594" xlink:href="#DejaVuSans-111"/>
      <use x="549.365234" xlink:href="#DejaVuSans-32"/>
      <use x="581.152344" xlink:href="#DejaVuSans-115"/>
      <use x="633.251953" xlink:href="#DejaVuSans-105"/>
      <use x="661.035156" xlink:href="#DejaVuSans-115"/>
      <use x="713.134766" xlink:href="#DejaVuSans-116"/>
      <use x="752.34375" xlink:href="#DejaVuSans-101"/>
      <use x="813.867188" xlink:href="#DejaVuSans-109"/>
      <use x="911.279297" xlink:href="#DejaVuSans-97"/>
     </g>
    </g>
    <g id="line2d_34">
     <path d="M 239.665883 217.356361 
L 259.665883 217.356361 
" style="fill:none;stroke:#0000ff;stroke-linecap:square;"/>
    </g>
    <g id="line2d_35"/>
    <g id="text_19">
     <!-- Sada - Planta Real -->
     <defs>
      <path d="M 20.703125 79.984375 
L 30.421875 79.984375 
L 14.5 61.625 
L 7.03125 61.625 
z
M 9.421875 54.6875 
L 18.40625 54.6875 
L 18.40625 0 
L 9.421875 0 
z
M 13.921875 56 
z
" id="DejaVuSans-237"/>
      <path d="M 4.890625 31.390625 
L 31.203125 31.390625 
L 31.203125 23.390625 
L 4.890625 23.390625 
z
" id="DejaVuSans-45"/>
     </defs>
     <g transform="translate(267.665883 220.856361)scale(0.1 -0.1)">
      <use xlink:href="#DejaVuSans-83"/>
      <use x="63.476562" xlink:href="#DejaVuSans-97"/>
      <use x="124.755859" xlink:href="#DejaVuSans-237"/>
      <use x="152.539062" xlink:href="#DejaVuSans-100"/>
      <use x="216.015625" xlink:href="#DejaVuSans-97"/>
      <use x="277.294922" xlink:href="#DejaVuSans-32"/>
      <use x="309.082031" xlink:href="#DejaVuSans-45"/>
      <use x="345.166016" xlink:href="#DejaVuSans-32"/>
      <use x="376.953125" xlink:href="#DejaVuSans-80"/>
      <use x="437.255859" xlink:href="#DejaVuSans-108"/>
      <use x="465.039062" xlink:href="#DejaVuSans-97"/>
      <use x="526.318359" xlink:href="#DejaVuSans-110"/>
      <use x="589.697266" xlink:href="#DejaVuSans-116"/>
      <use x="628.90625" xlink:href="#DejaVuSans-97"/>
      <use x="690.185547" xlink:href="#DejaVuSans-32"/>
      <use x="721.972656" xlink:href="#DejaVuSans-82"/>
      <use x="786.955078" xlink:href="#DejaVuSans-101"/>
      <use x="848.478516" xlink:href="#DejaVuSans-97"/>
      <use x="909.757812" xlink:href="#DejaVuSans-108"/>
     </g>
    </g>
    <g id="line2d_36">
     <path d="M 239.665883 232.034486 
L 259.665883 232.034486 
" style="fill:none;stroke:#ff0000;stroke-linecap:square;"/>
    </g>
    <g id="line2d_37"/>
    <g id="text_20">
     <!-- Sada - Planta Estimada -->
     <g transform="translate(267.665883 235.534486)scale(0.1 -0.1)">
      <use xlink:href="#DejaVuSans-83"/>
      <use x="63.476562" xlink:href="#DejaVuSans-97"/>
      <use x="124.755859" xlink:href="#DejaVuSans-237"/>
      <use x="152.539062" xlink:href="#DejaVuSans-100"/>
      <use x="216.015625" xlink:href="#DejaVuSans-97"/>
      <use x="277.294922" xlink:href="#DejaVuSans-32"/>
      <use x="309.082031" xlink:href="#DejaVuSans-45"/>
      <use x="345.166016" xlink:href="#DejaVuSans-32"/>
      <use x="376.953125" xlink:href="#DejaVuSans-80"/>
      <use x="437.255859" xlink:href="#DejaVuSans-108"/>
      <use x="465.039062" xlink:href="#DejaVuSans-97"/>
      <use x="526.318359" xlink:href="#DejaVuSans-110"/>
      <use x="589.697266" xlink:href="#DejaVuSans-116"/>
      <use x="628.90625" xlink:href="#DejaVuSans-97"/>
      <use x="690.185547" xlink:href="#DejaVuSans-32"/>
      <use x="721.972656" xlink:href="#DejaVuSans-69"/>
      <use x="785.15625" xlink:href="#DejaVuSans-115"/>
      <use x="837.255859" xlink:href="#DejaVuSans-116"/>
      <use x="876.464844" xlink:href="#DejaVuSans-105"/>
      <use x="904.248047" xlink:href="#DejaVuSans-109"/>
      <use x="1001.660156" xlink:href="#DejaVuSans-97"/>
      <use x="1062.939453" xlink:href="#DejaVuSans-100"/>
      <use x="1126.416016" xlink:href="#DejaVuSans-97"/>
     </g>
    </g>
   </g>
  </g>
 </g>
 <defs>
  <clipPath id="p770db3a7cc">
   <rect height="212.598425" width="350.787402" x="44.645669" y="34.015748"/>
  </clipPath>
 </defs>
</svg>
