<?xml version="1.0" encoding="utf-8" standalone="no"?>
<!DOCTYPE svg PUBLIC "-//W3C//DTD SVG 1.1//EN"
  "http://www.w3.org/Graphics/SVG/1.1/DTD/svg11.dtd">
<!-- Created with matplotlib (https://matplotlib.org/) -->
<svg height="283.464567pt" version="1.1" viewBox="0 0 425.19685 283.464567" width="425.19685pt" xmlns="http://www.w3.org/2000/svg" xmlns:xlink="http://www.w3.org/1999/xlink">
 <defs>
  <style type="text/css">
*{stroke-linecap:butt;stroke-linejoin:round;}
  </style>
 </defs>
 <g id="figure_1">
  <g id="patch_1">
   <path d="M 0 283.464567 
L 425.19685 283.464567 
L 425.19685 0 
L 0 0 
z
" style="fill:#ffffff;"/>
  </g>
  <g id="axes_1">
   <g id="patch_2">
    <path d="M 44.645669 246.614173 
L 395.433071 246.614173 
L 395.433071 34.015748 
L 44.645669 34.015748 
z
" style="fill:#ffffff;"/>
   </g>
   <g id="matplotlib.axis_1">
    <g id="xtick_1">
     <g id="line2d_1">
      <path clip-path="url(#pdab19339d3)" d="M 44.645669 246.614173 
L 44.645669 34.015748 
" style="fill:none;stroke:#000000;stroke-dasharray:0.7,1.155;stroke-dashoffset:0;stroke-width:0.7;"/>
     </g>
     <g id="line2d_2">
      <defs>
       <path d="M 0 0 
L 0 3.5 
" id="m2f8131b616" style="stroke:#000000;stroke-width:0.8;"/>
      </defs>
      <g>
       <use style="stroke:#000000;stroke-width:0.8;" x="44.645669" xlink:href="#m2f8131b616" y="246.614173"/>
      </g>
     </g>
     <g id="text_1">
      <!-- 0.0 -->
      <defs>
       <path d="M 31.78125 66.40625 
Q 24.171875 66.40625 20.328125 58.90625 
Q 16.5 51.421875 16.5 36.375 
Q 16.5 21.390625 20.328125 13.890625 
Q 24.171875 6.390625 31.78125 6.390625 
Q 39.453125 6.390625 43.28125 13.890625 
Q 47.125 21.390625 47.125 36.375 
Q 47.125 51.421875 43.28125 58.90625 
Q 39.453125 66.40625 31.78125 66.40625 
z
M 31.78125 74.21875 
Q 44.046875 74.21875 50.515625 64.515625 
Q 56.984375 54.828125 56.984375 36.375 
Q 56.984375 17.96875 50.515625 8.265625 
Q 44.046875 -1.421875 31.78125 -1.421875 
Q 19.53125 -1.421875 13.0625 8.265625 
Q 6.59375 17.96875 6.59375 36.375 
Q 6.59375 54.828125 13.0625 64.515625 
Q 19.53125 74.21875 31.78125 74.21875 
z
" id="DejaVuSans-48"/>
       <path d="M 10.6875 12.40625 
L 21 12.40625 
L 21 0 
L 10.6875 0 
z
" id="DejaVuSans-46"/>
      </defs>
      <g transform="translate(37.489263 260.452767)scale(0.09 -0.09)">
       <use xlink:href="#DejaVuSans-48"/>
       <use x="63.623047" xlink:href="#DejaVuSans-46"/>
       <use x="95.410156" xlink:href="#DejaVuSans-48"/>
      </g>
     </g>
    </g>
    <g id="xtick_2">
     <g id="line2d_3">
      <path clip-path="url(#pdab19339d3)" d="M 88.548974 246.614173 
L 88.548974 34.015748 
" style="fill:none;stroke:#000000;stroke-dasharray:0.7,1.155;stroke-dashoffset:0;stroke-width:0.7;"/>
     </g>
     <g id="line2d_4">
      <g>
       <use style="stroke:#000000;stroke-width:0.8;" x="88.548974" xlink:href="#m2f8131b616" y="246.614173"/>
      </g>
     </g>
     <g id="text_2">
      <!-- 2.5 -->
      <defs>
       <path d="M 19.1875 8.296875 
L 53.609375 8.296875 
L 53.609375 0 
L 7.328125 0 
L 7.328125 8.296875 
Q 12.9375 14.109375 22.625 23.890625 
Q 32.328125 33.6875 34.8125 36.53125 
Q 39.546875 41.84375 41.421875 45.53125 
Q 43.3125 49.21875 43.3125 52.78125 
Q 43.3125 58.59375 39.234375 62.25 
Q 35.15625 65.921875 28.609375 65.921875 
Q 23.96875 65.921875 18.8125 64.3125 
Q 13.671875 62.703125 7.8125 59.421875 
L 7.8125 69.390625 
Q 13.765625 71.78125 18.9375 73 
Q 24.125 74.21875 28.421875 74.21875 
Q 39.75 74.21875 46.484375 68.546875 
Q 53.21875 62.890625 53.21875 53.421875 
Q 53.21875 48.921875 51.53125 44.890625 
Q 49.859375 40.875 45.40625 35.40625 
Q 44.1875 33.984375 37.640625 27.21875 
Q 31.109375 20.453125 19.1875 8.296875 
z
" id="DejaVuSans-50"/>
       <path d="M 10.796875 72.90625 
L 49.515625 72.90625 
L 49.515625 64.59375 
L 19.828125 64.59375 
L 19.828125 46.734375 
Q 21.96875 47.46875 24.109375 47.828125 
Q 26.265625 48.1875 28.421875 48.1875 
Q 40.625 48.1875 47.75 41.5 
Q 54.890625 34.8125 54.890625 23.390625 
Q 54.890625 11.625 47.5625 5.09375 
Q 40.234375 -1.421875 26.90625 -1.421875 
Q 22.3125 -1.421875 17.546875 -0.640625 
Q 12.796875 0.140625 7.71875 1.703125 
L 7.71875 11.625 
Q 12.109375 9.234375 16.796875 8.0625 
Q 21.484375 6.890625 26.703125 6.890625 
Q 35.15625 6.890625 40.078125 11.328125 
Q 45.015625 15.765625 45.015625 23.390625 
Q 45.015625 31 40.078125 35.4375 
Q 35.15625 39.890625 26.703125 39.890625 
Q 22.75 39.890625 18.8125 39.015625 
Q 14.890625 38.140625 10.796875 36.28125 
z
" id="DejaVuSans-53"/>
      </defs>
      <g transform="translate(81.392567 260.452767)scale(0.09 -0.09)">
       <use xlink:href="#DejaVuSans-50"/>
       <use x="63.623047" xlink:href="#DejaVuSans-46"/>
       <use x="95.410156" xlink:href="#DejaVuSans-53"/>
      </g>
     </g>
    </g>
    <g id="xtick_3">
     <g id="line2d_5">
      <path clip-path="url(#pdab19339d3)" d="M 132.452278 246.614173 
L 132.452278 34.015748 
" style="fill:none;stroke:#000000;stroke-dasharray:0.7,1.155;stroke-dashoffset:0;stroke-width:0.7;"/>
     </g>
     <g id="line2d_6">
      <g>
       <use style="stroke:#000000;stroke-width:0.8;" x="132.452278" xlink:href="#m2f8131b616" y="246.614173"/>
      </g>
     </g>
     <g id="text_3">
      <!-- 5.0 -->
      <g transform="translate(125.295872 260.452767)scale(0.09 -0.09)">
       <use xlink:href="#DejaVuSans-53"/>
       <use x="63.623047" xlink:href="#DejaVuSans-46"/>
       <use x="95.410156" xlink:href="#DejaVuSans-48"/>
      </g>
     </g>
    </g>
    <g id="xtick_4">
     <g id="line2d_7">
      <path clip-path="url(#pdab19339d3)" d="M 176.355582 246.614173 
L 176.355582 34.015748 
" style="fill:none;stroke:#000000;stroke-dasharray:0.7,1.155;stroke-dashoffset:0;stroke-width:0.7;"/>
     </g>
     <g id="line2d_8">
      <g>
       <use style="stroke:#000000;stroke-width:0.8;" x="176.355582" xlink:href="#m2f8131b616" y="246.614173"/>
      </g>
     </g>
     <g id="text_4">
      <!-- 7.5 -->
      <defs>
       <path d="M 8.203125 72.90625 
L 55.078125 72.90625 
L 55.078125 68.703125 
L 28.609375 0 
L 18.3125 0 
L 43.21875 64.59375 
L 8.203125 64.59375 
z
" id="DejaVuSans-55"/>
      </defs>
      <g transform="translate(169.199176 260.452767)scale(0.09 -0.09)">
       <use xlink:href="#DejaVuSans-55"/>
       <use x="63.623047" xlink:href="#DejaVuSans-46"/>
       <use x="95.410156" xlink:href="#DejaVuSans-53"/>
      </g>
     </g>
    </g>
    <g id="xtick_5">
     <g id="line2d_9">
      <path clip-path="url(#pdab19339d3)" d="M 220.258887 246.614173 
L 220.258887 34.015748 
" style="fill:none;stroke:#000000;stroke-dasharray:0.7,1.155;stroke-dashoffset:0;stroke-width:0.7;"/>
     </g>
     <g id="line2d_10">
      <g>
       <use style="stroke:#000000;stroke-width:0.8;" x="220.258887" xlink:href="#m2f8131b616" y="246.614173"/>
      </g>
     </g>
     <g id="text_5">
      <!-- 10.0 -->
      <defs>
       <path d="M 12.40625 8.296875 
L 28.515625 8.296875 
L 28.515625 63.921875 
L 10.984375 60.40625 
L 10.984375 69.390625 
L 28.421875 72.90625 
L 38.28125 72.90625 
L 38.28125 8.296875 
L 54.390625 8.296875 
L 54.390625 0 
L 12.40625 0 
z
" id="DejaVuSans-49"/>
      </defs>
      <g transform="translate(210.239355 260.452767)scale(0.09 -0.09)">
       <use xlink:href="#DejaVuSans-49"/>
       <use x="63.623047" xlink:href="#DejaVuSans-48"/>
       <use x="127.246094" xlink:href="#DejaVuSans-46"/>
       <use x="159.033203" xlink:href="#DejaVuSans-48"/>
      </g>
     </g>
    </g>
    <g id="xtick_6">
     <g id="line2d_11">
      <path clip-path="url(#pdab19339d3)" d="M 264.162191 246.614173 
L 264.162191 34.015748 
" style="fill:none;stroke:#000000;stroke-dasharray:0.7,1.155;stroke-dashoffset:0;stroke-width:0.7;"/>
     </g>
     <g id="line2d_12">
      <g>
       <use style="stroke:#000000;stroke-width:0.8;" x="264.162191" xlink:href="#m2f8131b616" y="246.614173"/>
      </g>
     </g>
     <g id="text_6">
      <!-- 12.5 -->
      <g transform="translate(254.14266 260.452767)scale(0.09 -0.09)">
       <use xlink:href="#DejaVuSans-49"/>
       <use x="63.623047" xlink:href="#DejaVuSans-50"/>
       <use x="127.246094" xlink:href="#DejaVuSans-46"/>
       <use x="159.033203" xlink:href="#DejaVuSans-53"/>
      </g>
     </g>
    </g>
    <g id="xtick_7">
     <g id="line2d_13">
      <path clip-path="url(#pdab19339d3)" d="M 308.065495 246.614173 
L 308.065495 34.015748 
" style="fill:none;stroke:#000000;stroke-dasharray:0.7,1.155;stroke-dashoffset:0;stroke-width:0.7;"/>
     </g>
     <g id="line2d_14">
      <g>
       <use style="stroke:#000000;stroke-width:0.8;" x="308.065495" xlink:href="#m2f8131b616" y="246.614173"/>
      </g>
     </g>
     <g id="text_7">
      <!-- 15.0 -->
      <g transform="translate(298.045964 260.452767)scale(0.09 -0.09)">
       <use xlink:href="#DejaVuSans-49"/>
       <use x="63.623047" xlink:href="#DejaVuSans-53"/>
       <use x="127.246094" xlink:href="#DejaVuSans-46"/>
       <use x="159.033203" xlink:href="#DejaVuSans-48"/>
      </g>
     </g>
    </g>
    <g id="xtick_8">
     <g id="line2d_15">
      <path clip-path="url(#pdab19339d3)" d="M 351.9688 246.614173 
L 351.9688 34.015748 
" style="fill:none;stroke:#000000;stroke-dasharray:0.7,1.155;stroke-dashoffset:0;stroke-width:0.7;"/>
     </g>
     <g id="line2d_16">
      <g>
       <use style="stroke:#000000;stroke-width:0.8;" x="351.9688" xlink:href="#m2f8131b616" y="246.614173"/>
      </g>
     </g>
     <g id="text_8">
      <!-- 17.5 -->
      <g transform="translate(341.949268 260.452767)scale(0.09 -0.09)">
       <use xlink:href="#DejaVuSans-49"/>
       <use x="63.623047" xlink:href="#DejaVuSans-55"/>
       <use x="127.246094" xlink:href="#DejaVuSans-46"/>
       <use x="159.033203" xlink:href="#DejaVuSans-53"/>
      </g>
     </g>
    </g>
    <g id="text_9">
     <!-- Tempo (s) -->
     <defs>
      <path d="M -0.296875 72.90625 
L 61.375 72.90625 
L 61.375 64.59375 
L 35.5 64.59375 
L 35.5 0 
L 25.59375 0 
L 25.59375 64.59375 
L -0.296875 64.59375 
z
" id="DejaVuSans-84"/>
      <path d="M 56.203125 29.59375 
L 56.203125 25.203125 
L 14.890625 25.203125 
Q 15.484375 15.921875 20.484375 11.0625 
Q 25.484375 6.203125 34.421875 6.203125 
Q 39.59375 6.203125 44.453125 7.46875 
Q 49.3125 8.734375 54.109375 11.28125 
L 54.109375 2.78125 
Q 49.265625 0.734375 44.1875 -0.34375 
Q 39.109375 -1.421875 33.890625 -1.421875 
Q 20.796875 -1.421875 13.15625 6.1875 
Q 5.515625 13.8125 5.515625 26.8125 
Q 5.515625 40.234375 12.765625 48.109375 
Q 20.015625 56 32.328125 56 
Q 43.359375 56 49.78125 48.890625 
Q 56.203125 41.796875 56.203125 29.59375 
z
M 47.21875 32.234375 
Q 47.125 39.59375 43.09375 43.984375 
Q 39.0625 48.390625 32.421875 48.390625 
Q 24.90625 48.390625 20.390625 44.140625 
Q 15.875 39.890625 15.1875 32.171875 
z
" id="DejaVuSans-101"/>
      <path d="M 52 44.1875 
Q 55.375 50.25 60.0625 53.125 
Q 64.75 56 71.09375 56 
Q 79.640625 56 84.28125 50.015625 
Q 88.921875 44.046875 88.921875 33.015625 
L 88.921875 0 
L 79.890625 0 
L 79.890625 32.71875 
Q 79.890625 40.578125 77.09375 44.375 
Q 74.3125 48.1875 68.609375 48.1875 
Q 61.625 48.1875 57.5625 43.546875 
Q 53.515625 38.921875 53.515625 30.90625 
L 53.515625 0 
L 44.484375 0 
L 44.484375 32.71875 
Q 44.484375 40.625 41.703125 44.40625 
Q 38.921875 48.1875 33.109375 48.1875 
Q 26.21875 48.1875 22.15625 43.53125 
Q 18.109375 38.875 18.109375 30.90625 
L 18.109375 0 
L 9.078125 0 
L 9.078125 54.6875 
L 18.109375 54.6875 
L 18.109375 46.1875 
Q 21.1875 51.21875 25.484375 53.609375 
Q 29.78125 56 35.6875 56 
Q 41.65625 56 45.828125 52.96875 
Q 50 49.953125 52 44.1875 
z
" id="DejaVuSans-109"/>
      <path d="M 18.109375 8.203125 
L 18.109375 -20.796875 
L 9.078125 -20.796875 
L 9.078125 54.6875 
L 18.109375 54.6875 
L 18.109375 46.390625 
Q 20.953125 51.265625 25.265625 53.625 
Q 29.59375 56 35.59375 56 
Q 45.5625 56 51.78125 48.09375 
Q 58.015625 40.1875 58.015625 27.296875 
Q 58.015625 14.40625 51.78125 6.484375 
Q 45.5625 -1.421875 35.59375 -1.421875 
Q 29.59375 -1.421875 25.265625 0.953125 
Q 20.953125 3.328125 18.109375 8.203125 
z
M 48.6875 27.296875 
Q 48.6875 37.203125 44.609375 42.84375 
Q 40.53125 48.484375 33.40625 48.484375 
Q 26.265625 48.484375 22.1875 42.84375 
Q 18.109375 37.203125 18.109375 27.296875 
Q 18.109375 17.390625 22.1875 11.75 
Q 26.265625 6.109375 33.40625 6.109375 
Q 40.53125 6.109375 44.609375 11.75 
Q 48.6875 17.390625 48.6875 27.296875 
z
" id="DejaVuSans-112"/>
      <path d="M 30.609375 48.390625 
Q 23.390625 48.390625 19.1875 42.75 
Q 14.984375 37.109375 14.984375 27.296875 
Q 14.984375 17.484375 19.15625 11.84375 
Q 23.34375 6.203125 30.609375 6.203125 
Q 37.796875 6.203125 41.984375 11.859375 
Q 46.1875 17.53125 46.1875 27.296875 
Q 46.1875 37.015625 41.984375 42.703125 
Q 37.796875 48.390625 30.609375 48.390625 
z
M 30.609375 56 
Q 42.328125 56 49.015625 48.375 
Q 55.71875 40.765625 55.71875 27.296875 
Q 55.71875 13.875 49.015625 6.21875 
Q 42.328125 -1.421875 30.609375 -1.421875 
Q 18.84375 -1.421875 12.171875 6.21875 
Q 5.515625 13.875 5.515625 27.296875 
Q 5.515625 40.765625 12.171875 48.375 
Q 18.84375 56 30.609375 56 
z
" id="DejaVuSans-111"/>
      <path id="DejaVuSans-32"/>
      <path d="M 31 75.875 
Q 24.46875 64.65625 21.28125 53.65625 
Q 18.109375 42.671875 18.109375 31.390625 
Q 18.109375 20.125 21.3125 9.0625 
Q 24.515625 -2 31 -13.1875 
L 23.1875 -13.1875 
Q 15.875 -1.703125 12.234375 9.375 
Q 8.59375 20.453125 8.59375 31.390625 
Q 8.59375 42.28125 12.203125 53.3125 
Q 15.828125 64.359375 23.1875 75.875 
z
" id="DejaVuSans-40"/>
      <path d="M 44.28125 53.078125 
L 44.28125 44.578125 
Q 40.484375 46.53125 36.375 47.5 
Q 32.28125 48.484375 27.875 48.484375 
Q 21.1875 48.484375 17.84375 46.4375 
Q 14.5 44.390625 14.5 40.28125 
Q 14.5 37.15625 16.890625 35.375 
Q 19.28125 33.59375 26.515625 31.984375 
L 29.59375 31.296875 
Q 39.15625 29.25 43.1875 25.515625 
Q 47.21875 21.78125 47.21875 15.09375 
Q 47.21875 7.46875 41.1875 3.015625 
Q 35.15625 -1.421875 24.609375 -1.421875 
Q 20.21875 -1.421875 15.453125 -0.5625 
Q 10.6875 0.296875 5.421875 2 
L 5.421875 11.28125 
Q 10.40625 8.6875 15.234375 7.390625 
Q 20.0625 6.109375 24.8125 6.109375 
Q 31.15625 6.109375 34.5625 8.28125 
Q 37.984375 10.453125 37.984375 14.40625 
Q 37.984375 18.0625 35.515625 20.015625 
Q 33.0625 21.96875 24.703125 23.78125 
L 21.578125 24.515625 
Q 13.234375 26.265625 9.515625 29.90625 
Q 5.8125 33.546875 5.8125 39.890625 
Q 5.8125 47.609375 11.28125 51.796875 
Q 16.75 56 26.8125 56 
Q 31.78125 56 36.171875 55.265625 
Q 40.578125 54.546875 44.28125 53.078125 
z
" id="DejaVuSans-115"/>
      <path d="M 8.015625 75.875 
L 15.828125 75.875 
Q 23.140625 64.359375 26.78125 53.3125 
Q 30.421875 42.28125 30.421875 31.390625 
Q 30.421875 20.453125 26.78125 9.375 
Q 23.140625 -1.703125 15.828125 -13.1875 
L 8.015625 -13.1875 
Q 14.5 -2 17.703125 9.0625 
Q 20.90625 20.125 20.90625 31.390625 
Q 20.90625 42.671875 17.703125 53.65625 
Q 14.5 64.65625 8.015625 75.875 
z
" id="DejaVuSans-41"/>
     </defs>
     <g transform="translate(195.559683 273.922923)scale(0.1 -0.1)">
      <use xlink:href="#DejaVuSans-84"/>
      <use x="44.083984" xlink:href="#DejaVuSans-101"/>
      <use x="105.607422" xlink:href="#DejaVuSans-109"/>
      <use x="203.019531" xlink:href="#DejaVuSans-112"/>
      <use x="266.496094" xlink:href="#DejaVuSans-111"/>
      <use x="327.677734" xlink:href="#DejaVuSans-32"/>
      <use x="359.464844" xlink:href="#DejaVuSans-40"/>
      <use x="398.478516" xlink:href="#DejaVuSans-115"/>
      <use x="450.578125" xlink:href="#DejaVuSans-41"/>
     </g>
    </g>
   </g>
   <g id="matplotlib.axis_2">
    <g id="ytick_1">
     <g id="line2d_17">
      <path clip-path="url(#pdab19339d3)" d="M 44.645669 236.950608 
L 395.433071 236.950608 
" style="fill:none;stroke:#000000;stroke-dasharray:0.7,1.155;stroke-dashoffset:0;stroke-width:0.7;"/>
     </g>
     <g id="line2d_18">
      <defs>
       <path d="M 0 0 
L -3.5 0 
" id="m6ec767c186" style="stroke:#000000;stroke-width:0.8;"/>
      </defs>
      <g>
       <use style="stroke:#000000;stroke-width:0.8;" x="44.645669" xlink:href="#m6ec767c186" y="236.950608"/>
      </g>
     </g>
     <g id="text_10">
      <!-- 0.0 -->
      <g transform="translate(23.332857 240.369905)scale(0.09 -0.09)">
       <use xlink:href="#DejaVuSans-48"/>
       <use x="63.623047" xlink:href="#DejaVuSans-46"/>
       <use x="95.410156" xlink:href="#DejaVuSans-48"/>
      </g>
     </g>
    </g>
    <g id="ytick_2">
     <g id="line2d_19">
      <path clip-path="url(#pdab19339d3)" d="M 44.645669 198.296349 
L 395.433071 198.296349 
" style="fill:none;stroke:#000000;stroke-dasharray:0.7,1.155;stroke-dashoffset:0;stroke-width:0.7;"/>
     </g>
     <g id="line2d_20">
      <g>
       <use style="stroke:#000000;stroke-width:0.8;" x="44.645669" xlink:href="#m6ec767c186" y="198.296349"/>
      </g>
     </g>
     <g id="text_11">
      <!-- 0.2 -->
      <g transform="translate(23.332857 201.715646)scale(0.09 -0.09)">
       <use xlink:href="#DejaVuSans-48"/>
       <use x="63.623047" xlink:href="#DejaVuSans-46"/>
       <use x="95.410156" xlink:href="#DejaVuSans-50"/>
      </g>
     </g>
    </g>
    <g id="ytick_3">
     <g id="line2d_21">
      <path clip-path="url(#pdab19339d3)" d="M 44.645669 159.64209 
L 395.433071 159.64209 
" style="fill:none;stroke:#000000;stroke-dasharray:0.7,1.155;stroke-dashoffset:0;stroke-width:0.7;"/>
     </g>
     <g id="line2d_22">
      <g>
       <use style="stroke:#000000;stroke-width:0.8;" x="44.645669" xlink:href="#m6ec767c186" y="159.64209"/>
      </g>
     </g>
     <g id="text_12">
      <!-- 0.4 -->
      <defs>
       <path d="M 37.796875 64.3125 
L 12.890625 25.390625 
L 37.796875 25.390625 
z
M 35.203125 72.90625 
L 47.609375 72.90625 
L 47.609375 25.390625 
L 58.015625 25.390625 
L 58.015625 17.1875 
L 47.609375 17.1875 
L 47.609375 0 
L 37.796875 0 
L 37.796875 17.1875 
L 4.890625 17.1875 
L 4.890625 26.703125 
z
" id="DejaVuSans-52"/>
      </defs>
      <g transform="translate(23.332857 163.061387)scale(0.09 -0.09)">
       <use xlink:href="#DejaVuSans-48"/>
       <use x="63.623047" xlink:href="#DejaVuSans-46"/>
       <use x="95.410156" xlink:href="#DejaVuSans-52"/>
      </g>
     </g>
    </g>
    <g id="ytick_4">
     <g id="line2d_23">
      <path clip-path="url(#pdab19339d3)" d="M 44.645669 120.987831 
L 395.433071 120.987831 
" style="fill:none;stroke:#000000;stroke-dasharray:0.7,1.155;stroke-dashoffset:0;stroke-width:0.7;"/>
     </g>
     <g id="line2d_24">
      <g>
       <use style="stroke:#000000;stroke-width:0.8;" x="44.645669" xlink:href="#m6ec767c186" y="120.987831"/>
      </g>
     </g>
     <g id="text_13">
      <!-- 0.6 -->
      <defs>
       <path d="M 33.015625 40.375 
Q 26.375 40.375 22.484375 35.828125 
Q 18.609375 31.296875 18.609375 23.390625 
Q 18.609375 15.53125 22.484375 10.953125 
Q 26.375 6.390625 33.015625 6.390625 
Q 39.65625 6.390625 43.53125 10.953125 
Q 47.40625 15.53125 47.40625 23.390625 
Q 47.40625 31.296875 43.53125 35.828125 
Q 39.65625 40.375 33.015625 40.375 
z
M 52.59375 71.296875 
L 52.59375 62.3125 
Q 48.875 64.0625 45.09375 64.984375 
Q 41.3125 65.921875 37.59375 65.921875 
Q 27.828125 65.921875 22.671875 59.328125 
Q 17.53125 52.734375 16.796875 39.40625 
Q 19.671875 43.65625 24.015625 45.921875 
Q 28.375 48.1875 33.59375 48.1875 
Q 44.578125 48.1875 50.953125 41.515625 
Q 57.328125 34.859375 57.328125 23.390625 
Q 57.328125 12.15625 50.6875 5.359375 
Q 44.046875 -1.421875 33.015625 -1.421875 
Q 20.359375 -1.421875 13.671875 8.265625 
Q 6.984375 17.96875 6.984375 36.375 
Q 6.984375 53.65625 15.1875 63.9375 
Q 23.390625 74.21875 37.203125 74.21875 
Q 40.921875 74.21875 44.703125 73.484375 
Q 48.484375 72.75 52.59375 71.296875 
z
" id="DejaVuSans-54"/>
      </defs>
      <g transform="translate(23.332857 124.407128)scale(0.09 -0.09)">
       <use xlink:href="#DejaVuSans-48"/>
       <use x="63.623047" xlink:href="#DejaVuSans-46"/>
       <use x="95.410156" xlink:href="#DejaVuSans-54"/>
      </g>
     </g>
    </g>
    <g id="ytick_5">
     <g id="line2d_25">
      <path clip-path="url(#pdab19339d3)" d="M 44.645669 82.333572 
L 395.433071 82.333572 
" style="fill:none;stroke:#000000;stroke-dasharray:0.7,1.155;stroke-dashoffset:0;stroke-width:0.7;"/>
     </g>
     <g id="line2d_26">
      <g>
       <use style="stroke:#000000;stroke-width:0.8;" x="44.645669" xlink:href="#m6ec767c186" y="82.333572"/>
      </g>
     </g>
     <g id="text_14">
      <!-- 0.8 -->
      <defs>
       <path d="M 31.78125 34.625 
Q 24.75 34.625 20.71875 30.859375 
Q 16.703125 27.09375 16.703125 20.515625 
Q 16.703125 13.921875 20.71875 10.15625 
Q 24.75 6.390625 31.78125 6.390625 
Q 38.8125 6.390625 42.859375 10.171875 
Q 46.921875 13.96875 46.921875 20.515625 
Q 46.921875 27.09375 42.890625 30.859375 
Q 38.875 34.625 31.78125 34.625 
z
M 21.921875 38.8125 
Q 15.578125 40.375 12.03125 44.71875 
Q 8.5 49.078125 8.5 55.328125 
Q 8.5 64.0625 14.71875 69.140625 
Q 20.953125 74.21875 31.78125 74.21875 
Q 42.671875 74.21875 48.875 69.140625 
Q 55.078125 64.0625 55.078125 55.328125 
Q 55.078125 49.078125 51.53125 44.71875 
Q 48 40.375 41.703125 38.8125 
Q 48.828125 37.15625 52.796875 32.3125 
Q 56.78125 27.484375 56.78125 20.515625 
Q 56.78125 9.90625 50.3125 4.234375 
Q 43.84375 -1.421875 31.78125 -1.421875 
Q 19.734375 -1.421875 13.25 4.234375 
Q 6.78125 9.90625 6.78125 20.515625 
Q 6.78125 27.484375 10.78125 32.3125 
Q 14.796875 37.15625 21.921875 38.8125 
z
M 18.3125 54.390625 
Q 18.3125 48.734375 21.84375 45.5625 
Q 25.390625 42.390625 31.78125 42.390625 
Q 38.140625 42.390625 41.71875 45.5625 
Q 45.3125 48.734375 45.3125 54.390625 
Q 45.3125 60.0625 41.71875 63.234375 
Q 38.140625 66.40625 31.78125 66.40625 
Q 25.390625 66.40625 21.84375 63.234375 
Q 18.3125 60.0625 18.3125 54.390625 
z
" id="DejaVuSans-56"/>
      </defs>
      <g transform="translate(23.332857 85.752869)scale(0.09 -0.09)">
       <use xlink:href="#DejaVuSans-48"/>
       <use x="63.623047" xlink:href="#DejaVuSans-46"/>
       <use x="95.410156" xlink:href="#DejaVuSans-56"/>
      </g>
     </g>
    </g>
    <g id="ytick_6">
     <g id="line2d_27">
      <path clip-path="url(#pdab19339d3)" d="M 44.645669 43.679313 
L 395.433071 43.679313 
" style="fill:none;stroke:#000000;stroke-dasharray:0.7,1.155;stroke-dashoffset:0;stroke-width:0.7;"/>
     </g>
     <g id="line2d_28">
      <g>
       <use style="stroke:#000000;stroke-width:0.8;" x="44.645669" xlink:href="#m6ec767c186" y="43.679313"/>
      </g>
     </g>
     <g id="text_15">
      <!-- 1.0 -->
      <g transform="translate(23.332857 47.09861)scale(0.09 -0.09)">
       <use xlink:href="#DejaVuSans-49"/>
       <use x="63.623047" xlink:href="#DejaVuSans-46"/>
       <use x="95.410156" xlink:href="#DejaVuSans-48"/>
      </g>
     </g>
    </g>
    <g id="text_16">
     <!-- Valor -->
     <defs>
      <path d="M 28.609375 0 
L 0.78125 72.90625 
L 11.078125 72.90625 
L 34.1875 11.53125 
L 57.328125 72.90625 
L 67.578125 72.90625 
L 39.796875 0 
z
" id="DejaVuSans-86"/>
      <path d="M 34.28125 27.484375 
Q 23.390625 27.484375 19.1875 25 
Q 14.984375 22.515625 14.984375 16.5 
Q 14.984375 11.71875 18.140625 8.90625 
Q 21.296875 6.109375 26.703125 6.109375 
Q 34.1875 6.109375 38.703125 11.40625 
Q 43.21875 16.703125 43.21875 25.484375 
L 43.21875 27.484375 
z
M 52.203125 31.203125 
L 52.203125 0 
L 43.21875 0 
L 43.21875 8.296875 
Q 40.140625 3.328125 35.546875 0.953125 
Q 30.953125 -1.421875 24.3125 -1.421875 
Q 15.921875 -1.421875 10.953125 3.296875 
Q 6 8.015625 6 15.921875 
Q 6 25.140625 12.171875 29.828125 
Q 18.359375 34.515625 30.609375 34.515625 
L 43.21875 34.515625 
L 43.21875 35.40625 
Q 43.21875 41.609375 39.140625 45 
Q 35.0625 48.390625 27.6875 48.390625 
Q 23 48.390625 18.546875 47.265625 
Q 14.109375 46.140625 10.015625 43.890625 
L 10.015625 52.203125 
Q 14.9375 54.109375 19.578125 55.046875 
Q 24.21875 56 28.609375 56 
Q 40.484375 56 46.34375 49.84375 
Q 52.203125 43.703125 52.203125 31.203125 
z
" id="DejaVuSans-97"/>
      <path d="M 9.421875 75.984375 
L 18.40625 75.984375 
L 18.40625 0 
L 9.421875 0 
z
" id="DejaVuSans-108"/>
      <path d="M 41.109375 46.296875 
Q 39.59375 47.171875 37.8125 47.578125 
Q 36.03125 48 33.890625 48 
Q 26.265625 48 22.1875 43.046875 
Q 18.109375 38.09375 18.109375 28.8125 
L 18.109375 0 
L 9.078125 0 
L 9.078125 54.6875 
L 18.109375 54.6875 
L 18.109375 46.1875 
Q 20.953125 51.171875 25.484375 53.578125 
Q 30.03125 56 36.53125 56 
Q 37.453125 56 38.578125 55.875 
Q 39.703125 55.765625 41.0625 55.515625 
z
" id="DejaVuSans-114"/>
     </defs>
     <g transform="translate(17.253169 152.915742)rotate(-90)scale(0.1 -0.1)">
      <use xlink:href="#DejaVuSans-86"/>
      <use x="60.658203" xlink:href="#DejaVuSans-97"/>
      <use x="121.9375" xlink:href="#DejaVuSans-108"/>
      <use x="149.720703" xlink:href="#DejaVuSans-111"/>
      <use x="210.902344" xlink:href="#DejaVuSans-114"/>
     </g>
    </g>
   </g>
   <g id="line2d_29">
    <path clip-path="url(#pdab19339d3)" d="M 44.645669 43.679313 
L 46.401801 43.679313 
L 46.840835 236.950608 
L 48.596967 236.950608 
L 49.036 43.679313 
L 50.792132 43.679313 
L 51.231165 236.950608 
L 52.987297 236.950608 
L 53.42633 43.679313 
L 55.182462 43.679313 
L 55.621495 236.950608 
L 57.377628 236.950608 
L 57.816661 43.679313 
L 59.572793 43.679313 
L 60.011826 236.950608 
L 61.767958 236.950608 
L 62.206991 43.679313 
L 63.963123 43.679313 
L 64.402156 236.950608 
L 66.158288 236.950608 
L 66.597321 43.679313 
L 68.792487 43.679313 
L 69.23152 236.950608 
L 70.548619 236.950608 
L 70.987652 43.679313 
L 72.743784 43.679313 
L 73.182817 236.950608 
L 74.938949 236.950608 
L 75.377982 43.679313 
L 77.573148 43.679313 
L 78.012181 236.950608 
L 79.32928 236.950608 
L 79.768313 43.679313 
L 81.524445 43.679313 
L 81.963478 236.950608 
L 83.71961 236.950608 
L 84.158643 43.679313 
L 86.353808 43.679313 
L 86.792841 236.950608 
L 88.109941 236.950608 
L 88.548974 43.679313 
L 90.305106 43.679313 
L 90.744139 236.950608 
L 92.939304 236.950608 
L 93.378337 43.679313 
L 95.134469 43.679313 
L 95.573502 236.950608 
L 96.890601 236.950608 
L 97.329634 43.679313 
L 99.085767 43.679313 
L 99.5248 236.950608 
L 101.280932 236.950608 
L 101.719965 43.679313 
L 103.91513 43.679313 
L 104.354163 236.950608 
L 105.671262 236.950608 
L 106.110295 43.679313 
L 107.866428 43.679313 
L 108.305461 236.950608 
L 110.500626 236.950608 
L 110.939659 43.679313 
L 112.695791 43.679313 
L 113.134824 236.950608 
L 114.451923 236.950608 
L 114.890956 43.679313 
L 116.647088 43.679313 
L 117.086121 236.950608 
L 118.842254 236.950608 
L 119.281287 43.679313 
L 121.476452 43.679313 
L 121.915485 236.950608 
L 123.232584 236.950608 
L 123.671617 43.679313 
L 125.427749 43.679313 
L 125.866782 236.950608 
L 128.061948 236.950608 
L 128.500981 43.679313 
L 130.257113 43.679313 
L 130.696146 236.950608 
L 132.013245 236.950608 
L 132.452278 43.679313 
L 134.647443 43.679313 
L 135.086476 236.950608 
L 136.403575 236.950608 
L 136.842608 43.679313 
L 139.037774 43.679313 
L 139.476807 236.950608 
L 141.232939 236.950608 
L 141.671972 43.679313 
L 142.989071 43.679313 
L 143.428104 236.950608 
L 145.623269 236.950608 
L 146.062302 43.679313 
L 147.379401 43.679313 
L 147.818434 236.950608 
L 149.574567 236.950608 
L 150.0136 43.679313 
L 152.208765 43.679313 
L 152.647798 236.950608 
L 153.964897 236.950608 
L 154.40393 43.679313 
L 156.599095 43.679313 
L 157.038128 236.950608 
L 158.355227 236.950608 
L 158.794261 43.679313 
L 160.550393 43.679313 
L 160.989426 236.950608 
L 163.184591 236.950608 
L 163.623624 43.679313 
L 164.940723 43.679313 
L 165.379756 236.950608 
L 167.135888 236.950608 
L 167.574921 43.679313 
L 169.770087 43.679313 
L 170.20912 236.950608 
L 171.526219 236.950608 
L 171.965252 43.679313 
L 174.160417 43.679313 
L 174.59945 236.950608 
L 176.355582 236.950608 
L 176.794615 43.679313 
L 178.111714 43.679313 
L 178.550747 236.950608 
L 180.745913 236.950608 
L 181.184946 43.679313 
L 182.502045 43.679313 
L 182.941078 236.950608 
L 184.69721 236.950608 
L 185.136243 43.679313 
L 187.331408 43.679313 
L 187.770441 236.950608 
L 189.087541 236.950608 
L 189.526574 43.679313 
L 191.721739 43.679313 
L 192.160772 236.950608 
L 193.477871 236.950608 
L 193.916904 43.679313 
L 195.673036 43.679313 
L 196.112069 236.950608 
L 198.307234 236.950608 
L 198.746267 43.679313 
L 200.063367 43.679313 
L 200.5024 236.950608 
L 202.258532 236.950608 
L 202.697565 43.679313 
L 204.89273 43.679313 
L 205.331763 236.950608 
L 206.648862 236.950608 
L 207.087895 43.679313 
L 209.283061 43.679313 
L 209.722094 236.950608 
L 211.478226 236.950608 
L 211.917259 43.679313 
L 213.234358 43.679313 
L 213.673391 236.950608 
L 215.868556 236.950608 
L 216.307589 43.679313 
L 217.624688 43.679313 
L 218.063721 236.950608 
L 219.819854 236.950608 
L 220.258887 43.679313 
L 222.454052 43.679313 
L 222.893085 236.950608 
L 224.649217 236.950608 
L 225.08825 43.679313 
L 226.405349 43.679313 
L 226.844382 236.950608 
L 228.600514 236.950608 
L 229.039547 43.679313 
L 230.79568 43.679313 
L 231.234713 236.950608 
L 233.429878 236.950608 
L 233.868911 43.679313 
L 235.625043 43.679313 
L 236.064076 236.950608 
L 237.820208 236.950608 
L 238.259241 43.679313 
L 239.576341 43.679313 
L 240.015374 236.950608 
L 241.771506 236.950608 
L 242.210539 43.679313 
L 244.405704 43.679313 
L 244.844737 236.950608 
L 246.600869 236.950608 
L 247.039902 43.679313 
L 248.796034 43.679313 
L 249.235067 236.950608 
L 250.552167 236.950608 
L 250.9912 43.679313 
L 252.747332 43.679313 
L 253.186365 236.950608 
L 254.942497 236.950608 
L 255.38153 43.679313 
L 257.576695 43.679313 
L 258.015728 236.950608 
L 259.77186 236.950608 
L 260.210894 43.679313 
L 261.527993 43.679313 
L 261.967026 236.950608 
L 263.723158 236.950608 
L 264.162191 43.679313 
L 265.918323 43.679313 
L 266.357356 236.950608 
L 268.552521 236.950608 
L 268.991554 43.679313 
L 270.747687 43.679313 
L 271.18672 236.950608 
L 272.503819 236.950608 
L 272.942852 43.679313 
L 274.698984 43.679313 
L 275.138017 236.950608 
L 276.894149 236.950608 
L 277.333182 43.679313 
L 279.528347 43.679313 
L 279.96738 236.950608 
L 281.723513 236.950608 
L 282.162546 43.679313 
L 283.918678 43.679313 
L 284.357711 236.950608 
L 285.67481 236.950608 
L 286.113843 43.679313 
L 287.869975 43.679313 
L 288.309008 236.950608 
L 290.06514 236.950608 
L 290.504174 43.679313 
L 292.699339 43.679313 
L 293.138372 236.950608 
L 294.894504 236.950608 
L 295.333537 43.679313 
L 296.650636 43.679313 
L 297.089669 236.950608 
L 298.845801 236.950608 
L 299.284834 43.679313 
L 301.040967 43.679313 
L 301.48 236.950608 
L 303.675165 236.950608 
L 304.114198 43.679313 
L 305.87033 43.679313 
L 306.309363 236.950608 
L 308.065495 236.950608 
L 308.504528 43.679313 
L 309.821627 43.679313 
L 310.26066 236.950608 
L 312.016793 236.950608 
L 312.455826 43.679313 
L 314.650991 43.679313 
L 315.090024 236.950608 
L 316.846156 236.950608 
L 317.285189 43.679313 
L 319.041321 43.679313 
L 319.480354 236.950608 
L 320.797454 236.950608 
L 321.236487 43.679313 
L 322.992619 43.679313 
L 323.431652 236.950608 
L 325.187784 236.950608 
L 325.626817 43.679313 
L 327.821982 43.679313 
L 328.261015 236.950608 
L 330.017147 236.950608 
L 330.45618 43.679313 
L 331.77328 43.679313 
L 332.212313 236.950608 
L 333.968445 236.950608 
L 334.407478 43.679313 
L 336.16361 43.679313 
L 336.602643 236.950608 
L 338.797808 236.950608 
L 339.236841 43.679313 
L 340.992974 43.679313 
L 341.432007 236.950608 
L 342.749106 236.950608 
L 343.188139 43.679313 
L 344.944271 43.679313 
L 345.383304 236.950608 
L 347.139436 236.950608 
L 347.578469 43.679313 
L 349.773634 43.679313 
L 350.212667 236.950608 
L 351.9688 236.950608 
L 352.407833 43.679313 
L 354.163965 43.679313 
L 354.602998 236.950608 
L 355.920097 236.950608 
L 356.35913 43.679313 
L 358.115262 43.679313 
L 358.554295 236.950608 
L 360.310427 236.950608 
L 360.74946 43.679313 
L 362.944626 43.679313 
L 363.383659 236.950608 
L 365.139791 236.950608 
L 365.578824 43.679313 
L 366.895923 43.679313 
L 367.334956 236.950608 
L 369.091088 236.950608 
L 369.530121 43.679313 
L 371.286253 43.679313 
L 371.725287 236.950608 
L 373.920452 236.950608 
L 374.359485 43.679313 
L 376.115617 43.679313 
L 376.55465 236.950608 
L 378.310782 236.950608 
L 378.749815 43.679313 
L 380.066914 43.679313 
L 380.505947 236.950608 
L 382.26208 236.950608 
L 382.701113 43.679313 
L 384.896278 43.679313 
L 385.335311 236.950608 
L 387.091443 236.950608 
L 387.530476 43.679313 
L 389.286608 43.679313 
L 389.725641 236.950608 
L 391.04274 236.950608 
L 391.481773 43.679313 
L 393.237906 43.679313 
L 393.676939 236.950608 
L 395.433071 236.950608 
L 395.433071 236.950608 
" style="fill:none;stroke:#008000;stroke-linecap:square;stroke-opacity:0.55;"/>
   </g>
   <g id="line2d_30">
    <path clip-path="url(#pdab19339d3)" d="M 44.645669 236.950608 
L 45.084702 231.585294 
L 45.523735 217.946733 
L 46.401801 177.820102 
L 46.840835 155.721325 
L 47.279868 139.636088 
L 47.718901 133.406204 
L 48.157934 134.448096 
L 48.596967 140.559662 
L 49.036 149.923151 
L 49.475033 155.7217 
L 49.914066 153.930041 
L 50.353099 146.883646 
L 51.670198 116.868736 
L 52.109231 117.917596 
L 52.548264 124.901275 
L 53.865363 156.997065 
L 54.304396 156.953642 
L 54.743429 150.980588 
L 56.060528 121.492148 
L 56.499561 122.190512 
L 56.938595 128.703041 
L 58.255694 159.19357 
L 58.694727 158.663034 
L 59.13376 152.257041 
L 60.450859 121.837533 
L 60.889892 122.342035 
L 61.328925 128.710002 
L 62.646024 158.992518 
L 63.085057 158.445236 
L 63.52409 152.038867 
L 64.841189 121.67236 
L 65.280222 122.201791 
L 65.719255 128.594683 
L 67.036354 158.941067 
L 67.475388 158.409733 
L 67.914421 152.016466 
L 68.792487 129.498959 
L 69.23152 116.308838 
L 69.670553 108.569033 
L 70.109586 109.849877 
L 70.548619 117.420271 
L 70.987652 129.025688 
L 71.426685 137.500393 
L 71.865718 138.550494 
L 72.304751 134.313475 
L 72.743784 126.572962 
L 73.182817 116.769653 
L 73.62185 111.39232 
L 74.060883 114.189858 
L 74.499916 122.601369 
L 75.817015 157.299185 
L 76.256048 157.67653 
L 76.695081 151.962062 
L 77.573148 130.242454 
L 78.012181 117.236506 
L 78.451214 109.577819 
L 78.890247 110.862905 
L 79.32928 118.383143 
L 79.768313 129.902703 
L 80.207346 138.270897 
L 80.646379 139.205519 
L 81.085412 134.852761 
L 81.524445 127.002397 
L 81.963478 117.099149 
L 82.402511 111.634103 
L 82.841544 114.357148 
L 83.280577 122.707388 
L 84.597676 157.291748 
L 85.036709 157.650199 
L 85.475742 151.923798 
L 86.353808 130.19562 
L 86.792841 117.190601 
L 87.231874 109.534977 
L 87.670908 110.824469 
L 88.109941 118.349829 
L 88.548974 129.874745 
L 88.988007 138.24818 
L 89.42704 139.187688 
L 89.866073 134.839307 
L 90.305106 126.992735 
L 90.744139 117.092664 
L 91.183172 111.630199 
L 91.622205 114.355266 
L 92.061238 122.707031 
L 92.939304 148.326634 
L 93.378337 162.658969 
L 93.81737 171.290874 
L 94.256403 170.679078 
L 94.695436 163.585451 
L 96.012535 129.404854 
L 96.451568 128.536893 
L 96.890601 133.612715 
L 97.329634 142.610769 
L 97.768668 148.535414 
L 98.207701 147.209611 
L 98.646734 140.844058 
L 99.963833 113.282776 
L 100.402866 115.098015 
L 100.841899 122.76967 
L 102.158998 156.37033 
L 102.598031 156.646784 
L 103.037064 150.915242 
L 103.91513 129.321405 
L 104.354163 116.422185 
L 104.793196 108.881429 
L 105.232229 110.286152 
L 105.671262 117.920954 
L 106.110295 129.545492 
L 106.549328 138.006403 
L 106.988361 139.020237 
L 107.427394 134.733018 
L 107.866428 126.935122 
L 108.305461 117.072375 
L 108.744494 111.637276 
L 109.183527 114.381256 
L 109.62256 122.744985 
L 110.500626 148.373237 
L 110.939659 162.704685 
L 111.378692 171.333566 
L 111.817725 170.7174 
L 112.256758 163.618682 
L 113.573857 129.422666 
L 114.01289 128.55034 
L 114.451923 133.622381 
L 114.890956 142.617263 
L 115.329989 148.539332 
L 115.769022 147.211509 
L 116.208055 140.844432 
L 117.525154 113.280884 
L 117.964188 115.095913 
L 118.403221 122.767529 
L 119.72032 156.368659 
L 120.159353 156.645355 
L 120.598386 150.914057 
L 121.476452 129.32067 
L 121.915485 116.421641 
L 122.354518 108.881047 
L 122.793551 110.285904 
L 123.232584 117.920814 
L 123.671617 129.545436 
L 124.11065 138.006409 
L 124.549683 139.020286 
L 124.988716 134.733095 
L 125.427749 126.935214 
L 125.866782 117.072473 
L 126.305815 111.637373 
L 126.744848 114.381348 
L 127.183881 122.745068 
L 128.061948 148.373298 
L 128.500981 162.704735 
L 128.940014 171.333606 
L 129.379047 170.71743 
L 129.81808 163.618704 
L 131.135179 129.422671 
L 131.574212 128.550342 
L 132.013245 133.62238 
L 132.452278 142.617261 
L 132.891311 148.539328 
L 133.330344 147.211504 
L 133.769377 140.844427 
L 134.647443 119.911867 
L 135.086476 107.915566 
L 135.525509 101.457349 
L 135.964542 104.014397 
L 136.403575 112.790251 
L 136.842608 125.488035 
L 137.281641 134.918106 
L 137.720674 136.77691 
L 138.159708 133.202819 
L 138.598741 125.987729 
L 139.476807 106.134952 
L 139.91584 100.859505 
L 140.354873 104.2814 
L 140.793906 113.652694 
L 142.111005 151.916048 
L 142.550038 153.423508 
L 142.989071 148.728535 
L 143.428104 139.909084 
L 143.867137 134.011152 
L 144.30617 135.255229 
L 144.745203 141.46693 
L 145.623269 161.984635 
L 146.062302 173.761464 
L 146.501335 180.010089 
L 146.940368 177.261407 
L 147.379401 168.316628 
L 147.818434 155.474783 
L 148.257468 145.925729 
L 148.696501 143.971858 
L 149.135534 147.472722 
L 149.574567 154.633815 
L 150.0136 163.998552 
L 150.452633 169.059575 
L 150.891666 166.048476 
L 151.330699 157.507014 
L 152.208765 131.724409 
L 152.647798 117.386404 
L 153.086831 108.781168 
L 153.525864 109.441025 
L 153.964897 116.595266 
L 154.40393 127.950704 
L 154.842963 136.305647 
L 155.281996 137.33403 
L 155.721029 133.145523 
L 156.160062 125.500469 
L 157.038128 105.214877 
L 157.477161 99.8782 
L 157.916194 103.308427 
L 158.355227 112.736636 
L 158.794261 125.896939 
L 159.233294 135.63149 
L 159.672327 137.667434 
L 160.11136 134.171452 
L 160.550393 126.960591 
L 160.989426 117.510185 
L 161.428459 112.34269 
L 161.867492 115.238241 
L 162.306525 123.663822 
L 163.184591 149.236244 
L 163.623624 163.486327 
L 164.062657 172.016867 
L 164.50169 171.295554 
L 164.940723 164.092411 
L 165.379756 152.699481 
L 165.818789 144.317055 
L 166.257822 143.269684 
L 166.696855 147.446185 
L 167.135888 155.084784 
L 167.574921 164.762356 
L 168.013954 170.003759 
L 168.452987 167.07024 
L 168.892021 158.529844 
L 169.770087 132.606168 
L 170.20912 118.159775 
L 170.648153 109.437589 
L 171.087186 109.980596 
L 171.526219 117.024187 
L 171.965252 128.279151 
L 172.404285 136.54606 
L 172.843318 137.499795 
L 173.282351 133.249988 
L 173.721384 125.556255 
L 174.59945 105.206226 
L 175.038483 99.850829 
L 175.477516 103.269301 
L 175.916549 112.691278 
L 177.233648 151.262873 
L 177.672681 152.885964 
L 178.111714 148.300675 
L 178.550747 139.580963 
L 178.989781 133.770528 
L 179.428814 135.088888 
L 179.867847 141.361661 
L 180.745913 161.96512 
L 181.184946 173.769182 
L 181.623979 180.036594 
L 182.063012 177.299761 
L 182.502045 168.361319 
L 182.941078 155.521595 
L 183.380111 145.971581 
L 183.819144 144.014626 
L 184.258177 147.511074 
L 184.69721 154.667044 
L 185.136243 164.026427 
L 185.575276 169.082215 
L 186.014309 166.066239 
L 186.453342 157.520408 
L 187.331408 131.730854 
L 187.770441 117.390277 
L 188.209474 108.783026 
L 188.648507 109.441366 
L 189.087541 116.594519 
L 189.526574 127.949231 
L 189.965607 136.303739 
L 190.40464 137.331915 
L 190.843673 133.143374 
L 191.282706 125.498408 
L 192.160772 105.213206 
L 192.599805 99.876771 
L 193.038838 103.307244 
L 193.477871 112.735687 
L 193.916904 125.896206 
L 194.355937 135.630948 
L 194.79497 137.667054 
L 195.234003 134.171207 
L 195.673036 126.960453 
L 196.112069 117.510131 
L 196.551102 112.342696 
L 196.990135 115.238291 
L 197.429168 123.6639 
L 198.307234 149.236343 
L 198.746267 163.486425 
L 199.185301 172.016959 
L 199.624334 171.295637 
L 200.063367 164.092483 
L 200.5024 152.699542 
L 200.941433 144.317105 
L 201.380466 143.269724 
L 201.819499 147.446215 
L 202.258532 155.084806 
L 202.697565 164.76237 
L 203.136598 170.003768 
L 203.575631 167.070245 
L 204.014664 158.529846 
L 204.89273 132.606165 
L 205.331763 118.159771 
L 205.770796 109.437585 
L 206.209829 109.980591 
L 206.648862 117.024183 
L 207.087895 128.279147 
L 207.526928 136.546057 
L 207.965961 137.499791 
L 208.404994 133.249985 
L 208.844027 125.556253 
L 209.722094 105.206225 
L 210.161127 99.850828 
L 210.60016 103.2693 
L 211.039193 112.691277 
L 212.356292 151.262873 
L 212.795325 152.885964 
L 213.234358 148.300675 
L 213.673391 139.580963 
L 214.112424 133.770528 
L 214.551457 135.088888 
L 214.99049 141.361662 
L 215.868556 161.96512 
L 216.307589 173.769182 
L 216.746622 180.036594 
L 217.185655 177.299761 
L 217.624688 168.361319 
L 218.063721 155.521595 
L 218.502754 145.971581 
L 218.941787 144.014626 
L 219.380821 147.511074 
L 219.819854 154.667044 
L 220.258887 164.026427 
L 220.69792 169.082215 
L 221.136953 166.066239 
L 221.575986 157.520408 
L 222.454052 131.730854 
L 222.893085 117.390277 
L 223.332118 108.783026 
L 223.771151 109.441366 
L 224.210184 116.594519 
L 225.527283 150.970476 
L 225.966316 151.896503 
L 226.405349 146.871909 
L 226.844382 137.917578 
L 227.283415 132.029073 
L 227.722448 133.383775 
L 228.161481 139.771611 
L 229.478581 167.368188 
L 229.917614 165.557039 
L 230.356647 157.886948 
L 231.673746 124.281968 
L 232.112779 124.002631 
L 232.551812 129.731119 
L 233.429878 151.319112 
L 233.868911 164.215783 
L 234.307944 171.754321 
L 234.746977 170.347729 
L 235.18601 162.711401 
L 236.503109 127.970784 
L 236.942142 127.142988 
L 237.381175 132.320238 
L 238.698274 160.017592 
L 239.137307 158.925728 
L 239.576341 152.110393 
L 240.015374 141.619332 
L 240.454407 134.453716 
L 240.89344 134.781254 
L 241.332473 140.371947 
L 242.649572 166.683603 
L 243.088605 164.715794 
L 243.527638 156.979438 
L 244.405704 132.20763 
L 244.844737 118.137263 
L 245.28377 109.681238 
L 245.722803 110.399023 
L 246.161836 117.543828 
L 247.478935 151.674929 
L 247.917968 152.491382 
L 248.357001 147.358365 
L 249.6741 119.957572 
L 250.113134 121.163199 
L 250.552167 128.087083 
L 250.9912 138.677323 
L 251.430233 145.930313 
L 251.869266 145.677246 
L 252.308299 140.148025 
L 253.625398 113.951076 
L 254.064431 115.938251 
L 254.503464 123.686988 
L 255.820563 157.172561 
L 256.259596 157.352529 
L 256.698629 151.515968 
L 257.576695 129.716276 
L 258.015728 116.725635 
L 258.454761 109.104535 
L 258.893794 110.440937 
L 259.332827 118.019474 
L 260.649927 152.652847 
L 261.08896 153.462713 
L 261.527993 148.274097 
L 261.967026 139.130622 
L 262.406059 133.045192 
L 262.845092 134.207817 
L 263.284125 140.417068 
L 264.601224 167.600404 
L 265.040257 165.695676 
L 265.47929 157.952368 
L 266.796389 124.226847 
L 267.235422 123.931943 
L 267.674455 129.653171 
L 268.552521 151.243556 
L 268.991554 164.1466 
L 269.430587 171.693258 
L 269.86962 170.295592 
L 270.308654 162.66829 
L 271.625753 127.951131 
L 272.064786 127.129264 
L 272.503819 132.311414 
L 272.942852 141.452663 
L 273.381885 147.53897 
L 273.820918 146.379363 
L 274.259951 140.174482 
L 275.57705 113.006797 
L 276.016083 114.916399 
L 276.455116 122.664078 
L 277.772215 156.399143 
L 278.211248 156.696071 
L 278.650281 150.97637 
L 279.528347 129.387816 
L 279.96738 116.485214 
L 280.406414 108.938767 
L 280.845447 110.336472 
L 281.28448 117.963689 
L 282.601579 152.680222 
L 283.040612 153.501844 
L 283.479645 148.319459 
L 284.796744 120.612381 
L 285.235777 121.702559 
L 285.67481 128.516792 
L 286.113843 139.00722 
L 286.552876 146.172567 
L 286.991909 145.84503 
L 287.430942 140.254529 
L 288.748041 113.943992 
L 289.187074 115.912216 
L 289.626107 123.648965 
L 290.943207 157.126759 
L 291.38224 157.309756 
L 291.821273 151.477574 
L 292.699339 129.688322 
L 293.138372 116.70291 
L 293.577405 109.086688 
L 294.016438 110.427463 
L 294.455471 118.00979 
L 295.77257 152.650945 
L 296.211603 153.462338 
L 296.650636 148.274817 
L 297.089669 139.132076 
L 297.528702 133.047087 
L 297.967735 134.209924 
L 298.406768 140.419213 
L 299.723867 167.602078 
L 300.1629 165.697108 
L 300.601934 157.953555 
L 301.919033 124.227393 
L 302.358066 123.932326 
L 302.797099 129.65342 
L 303.675165 151.243613 
L 304.114198 164.146595 
L 304.553231 171.69321 
L 304.992264 170.295516 
L 305.431297 162.668198 
L 306.748396 127.951039 
L 307.187429 127.129181 
L 307.626462 132.311341 
L 308.943561 160.017884 
L 309.382594 158.927581 
L 309.821627 152.113247 
L 310.26066 141.622743 
L 310.699694 134.45734 
L 311.138727 134.784838 
L 311.57776 140.375315 
L 312.894859 166.685836 
L 313.333892 164.717617 
L 313.772925 156.980878 
L 314.650991 132.208422 
L 315.090024 118.137801 
L 315.529057 109.681569 
L 315.96809 110.399191 
L 316.407123 117.543872 
L 317.724222 151.674785 
L 318.163255 152.49122 
L 318.602288 147.358198 
L 319.919387 119.957439 
L 320.35842 121.163084 
L 320.797454 128.086988 
L 321.236487 138.677246 
L 321.67552 145.930254 
L 322.114553 145.677202 
L 322.553586 140.147994 
L 323.870685 113.951071 
L 324.309718 115.938251 
L 324.748751 123.686991 
L 326.06585 157.172569 
L 326.504883 157.352536 
L 326.943916 151.515976 
L 327.821982 129.716282 
L 328.261015 116.725639 
L 328.700048 109.104539 
L 329.139081 110.44094 
L 329.578114 118.019477 
L 330.895214 152.652847 
L 331.334247 153.462713 
L 331.77328 148.274097 
L 332.212313 139.130621 
L 332.651346 133.045192 
L 333.090379 134.207817 
L 333.529412 140.417068 
L 334.846511 167.600404 
L 335.285544 165.695676 
L 335.724577 157.952367 
L 337.041676 124.226847 
L 337.480709 123.931943 
L 337.919742 129.653171 
L 338.797808 151.243556 
L 339.236841 164.1466 
L 339.675874 171.693258 
L 340.114907 170.295592 
L 340.55394 162.66829 
L 341.87104 127.951131 
L 342.310073 127.129265 
L 342.749106 132.311414 
L 343.188139 141.452663 
L 343.627172 147.53897 
L 344.066205 146.379363 
L 344.505238 140.174482 
L 345.822337 113.006797 
L 346.26137 114.916399 
L 346.700403 122.664078 
L 348.017502 156.399143 
L 348.456535 156.696071 
L 348.895568 150.97637 
L 349.773634 129.387816 
L 350.212667 116.485214 
L 350.6517 108.938767 
L 351.090733 110.336472 
L 351.529767 117.963689 
L 352.846866 152.680222 
L 353.285899 153.501844 
L 353.724932 148.319459 
L 355.042031 120.612381 
L 355.481064 121.702559 
L 355.920097 128.516792 
L 356.35913 139.00722 
L 356.798163 146.172567 
L 357.237196 145.84503 
L 357.676229 140.254529 
L 358.993328 113.943992 
L 359.432361 115.912216 
L 359.871394 123.648965 
L 361.188493 157.126759 
L 361.627527 157.309756 
L 362.06656 151.477574 
L 362.944626 129.688322 
L 363.383659 116.70291 
L 363.822692 109.086688 
L 364.261725 110.427463 
L 364.700758 118.00979 
L 366.017857 152.650945 
L 366.45689 153.462338 
L 366.895923 148.274817 
L 367.334956 139.132076 
L 367.773989 133.047087 
L 368.213022 134.209924 
L 368.652055 140.419213 
L 369.969154 167.602078 
L 370.408187 165.697108 
L 370.84722 157.953555 
L 372.16432 124.227393 
L 372.603353 123.932326 
L 373.042386 129.65342 
L 373.920452 151.243613 
L 374.359485 164.146595 
L 374.798518 171.69321 
L 375.237551 170.295516 
L 375.676584 162.668198 
L 376.993683 127.951039 
L 377.432716 127.129181 
L 377.871749 132.311341 
L 379.188848 160.017884 
L 379.627881 158.927581 
L 380.066914 152.113247 
L 380.505947 141.622743 
L 380.94498 134.45734 
L 381.384013 134.784838 
L 381.823047 140.375315 
L 383.140146 166.685836 
L 383.579179 164.717617 
L 384.018212 156.980878 
L 384.896278 132.208422 
L 385.335311 118.137801 
L 385.774344 109.681569 
L 386.213377 110.399191 
L 386.65241 117.543872 
L 387.969509 151.674785 
L 388.408542 152.49122 
L 388.847575 147.358198 
L 390.164674 119.957439 
L 390.603707 121.163084 
L 391.04274 128.086988 
L 391.481773 138.677246 
L 391.920807 145.930254 
L 392.35984 145.677202 
L 392.798873 140.147994 
L 394.115972 113.951071 
L 394.555005 115.938251 
L 394.994038 123.686991 
L 395.433071 135.08933 
L 395.433071 135.08933 
" style="fill:none;stroke:#0000ff;stroke-linecap:square;"/>
   </g>
   <g id="line2d_31">
    <path clip-path="url(#pdab19339d3)" d="M 44.645669 236.950608 
L 45.084702 231.585294 
L 45.523735 217.946733 
L 46.401801 177.820102 
L 46.840835 155.721325 
L 47.279868 139.636088 
L 47.718901 133.406204 
L 48.157934 134.448096 
L 48.596967 140.559662 
L 49.036 149.923151 
L 49.475033 155.7217 
L 49.914066 153.930041 
L 50.353099 146.883646 
L 51.670198 116.868736 
L 52.109231 117.917596 
L 52.548264 124.901275 
L 53.865363 156.997065 
L 54.304396 156.953642 
L 54.743429 150.980588 
L 56.060528 121.492148 
L 56.499561 122.190512 
L 56.938595 128.703041 
L 58.255694 159.19357 
L 58.694727 158.663034 
L 59.13376 152.257041 
L 60.450859 121.837533 
L 60.889892 122.342035 
L 61.328925 128.710002 
L 62.646024 158.992518 
L 63.085057 158.445236 
L 63.52409 152.038867 
L 64.841189 121.67236 
L 65.280222 122.201791 
L 65.719255 128.594683 
L 67.036354 158.941067 
L 67.475388 158.409733 
L 67.914421 152.016466 
L 68.792487 129.498959 
L 69.23152 116.308838 
L 69.670553 108.569033 
L 70.109586 109.849877 
L 70.548619 117.420271 
L 70.987652 129.025688 
L 71.426685 137.500393 
L 71.865718 138.550494 
L 72.304751 134.313475 
L 72.743784 126.572962 
L 73.182817 116.769653 
L 73.62185 111.39232 
L 74.060883 114.189858 
L 74.499916 122.601369 
L 75.817015 157.299185 
L 76.256048 157.67653 
L 76.695081 151.962062 
L 77.573148 130.242454 
L 78.012181 117.236506 
L 78.451214 109.577819 
L 78.890247 110.862905 
L 79.32928 118.383143 
L 79.768313 129.902703 
L 80.207346 138.270897 
L 80.646379 139.205519 
L 81.085412 134.852761 
L 81.524445 127.002397 
L 81.963478 117.099149 
L 82.402511 111.634103 
L 82.841544 114.357148 
L 83.280577 122.707388 
L 84.597676 157.291748 
L 85.036709 157.650199 
L 85.475742 151.923798 
L 86.353808 130.19562 
L 86.792841 117.190601 
L 87.231874 109.534977 
L 87.670908 110.824469 
L 88.109941 118.349829 
L 88.548974 129.874745 
L 88.988007 138.24818 
L 89.42704 139.187688 
L 89.866073 134.839307 
L 90.305106 126.992735 
L 90.744139 117.092664 
L 91.183172 111.630199 
L 91.622205 114.355266 
L 92.061238 122.707031 
L 92.939304 148.326634 
L 93.378337 162.658969 
L 93.81737 171.290874 
L 94.256403 170.679078 
L 94.695436 163.585451 
L 96.012535 129.404854 
L 96.451568 128.536893 
L 96.890601 133.612715 
L 97.329634 142.610769 
L 97.768668 148.535414 
L 98.207701 147.209611 
L 98.646734 140.844058 
L 99.963833 113.282776 
L 100.402866 115.098015 
L 100.841899 122.76967 
L 102.158998 156.37033 
L 102.598031 156.646784 
L 103.037064 150.915242 
L 103.91513 129.321405 
L 104.354163 116.422185 
L 104.793196 108.881429 
L 105.232229 110.286152 
L 105.671262 117.920954 
L 106.110295 129.545492 
L 106.549328 138.006403 
L 106.988361 139.020237 
L 107.427394 134.733018 
L 107.866428 126.935122 
L 108.305461 117.072375 
L 108.744494 111.637276 
L 109.183527 114.381256 
L 109.62256 122.744985 
L 110.500626 148.373237 
L 110.939659 162.704685 
L 111.378692 171.333566 
L 111.817725 170.7174 
L 112.256758 163.618682 
L 113.573857 129.422666 
L 114.01289 128.55034 
L 114.451923 133.622381 
L 114.890956 142.617263 
L 115.329989 148.539332 
L 115.769022 147.211509 
L 116.208055 140.844432 
L 117.525154 113.280884 
L 117.964188 115.095913 
L 118.403221 122.767529 
L 119.72032 156.368659 
L 120.159353 156.645355 
L 120.598386 150.914057 
L 121.476452 129.32067 
L 121.915485 116.421641 
L 122.354518 108.881047 
L 122.793551 110.285904 
L 123.232584 117.920814 
L 123.671617 129.545436 
L 124.11065 138.006409 
L 124.549683 139.020286 
L 124.988716 134.733095 
L 125.427749 126.935214 
L 125.866782 117.072473 
L 126.305815 111.637373 
L 126.744848 114.381348 
L 127.183881 122.745068 
L 128.061948 148.373298 
L 128.500981 162.704735 
L 128.940014 171.333606 
L 129.379047 170.71743 
L 129.81808 163.618704 
L 131.135179 129.422671 
L 131.574212 128.550342 
L 132.013245 133.62238 
L 132.452278 142.617261 
L 132.891311 148.539328 
L 133.330344 147.211504 
L 133.769377 140.844427 
L 134.647443 119.911867 
L 135.086476 107.915566 
L 135.525509 101.457349 
L 135.964542 104.014397 
L 136.403575 112.790251 
L 136.842608 125.488035 
L 137.281641 134.918106 
L 137.720674 136.77691 
L 138.159708 133.202819 
L 138.598741 125.987729 
L 139.476807 106.134952 
L 139.91584 100.859505 
L 140.354873 104.2814 
L 140.793906 113.652694 
L 142.111005 151.916048 
L 142.550038 153.423508 
L 142.989071 148.728535 
L 143.428104 139.909084 
L 143.867137 134.011152 
L 144.30617 135.255229 
L 144.745203 141.46693 
L 145.623269 161.984635 
L 146.062302 173.761464 
L 146.501335 180.010089 
L 146.940368 177.261407 
L 147.379401 168.316628 
L 147.818434 155.474783 
L 148.257468 145.925729 
L 148.696501 143.971858 
L 149.135534 147.472722 
L 149.574567 154.633815 
L 150.0136 163.998552 
L 150.452633 169.059575 
L 150.891666 166.048476 
L 151.330699 157.507014 
L 152.208765 131.724409 
L 152.647798 117.386404 
L 153.086831 108.781168 
L 153.525864 109.441025 
L 153.964897 116.595266 
L 154.40393 127.950704 
L 154.842963 136.305647 
L 155.281996 137.33403 
L 155.721029 133.145523 
L 156.160062 125.500469 
L 157.038128 105.214877 
L 157.477161 99.8782 
L 157.916194 103.308427 
L 158.355227 112.736636 
L 158.794261 125.896939 
L 159.233294 135.63149 
L 159.672327 137.667434 
L 160.11136 134.171452 
L 160.550393 126.960591 
L 160.989426 117.510185 
L 161.428459 112.34269 
L 161.867492 115.238241 
L 162.306525 123.663822 
L 163.184591 149.236244 
L 163.623624 163.486327 
L 164.062657 172.016867 
L 164.50169 171.295554 
L 164.940723 164.092411 
L 165.379756 152.699481 
L 165.818789 144.317055 
L 166.257822 143.269684 
L 166.696855 147.446185 
L 167.135888 155.084784 
L 167.574921 164.762356 
L 168.013954 170.003759 
L 168.452987 167.07024 
L 168.892021 158.529844 
L 169.770087 132.606168 
L 170.20912 118.159775 
L 170.648153 109.437589 
L 171.087186 109.980596 
L 171.526219 117.024187 
L 171.965252 128.279151 
L 172.404285 136.54606 
L 172.843318 137.499795 
L 173.282351 133.249988 
L 173.721384 125.556255 
L 174.59945 105.206226 
L 175.038483 99.850829 
L 175.477516 103.269301 
L 175.916549 112.691278 
L 177.233648 151.262873 
L 177.672681 152.885964 
L 178.111714 148.300675 
L 178.550747 139.580963 
L 178.989781 133.770528 
L 179.428814 135.088888 
L 179.867847 141.361661 
L 180.745913 161.96512 
L 181.184946 173.769182 
L 181.623979 180.036594 
L 182.063012 177.299761 
L 182.502045 168.361319 
L 182.941078 155.521595 
L 183.380111 145.971581 
L 183.819144 144.014626 
L 184.258177 147.511074 
L 184.69721 154.667044 
L 185.136243 164.026427 
L 185.575276 169.082215 
L 186.014309 166.066239 
L 186.453342 157.520408 
L 187.331408 131.730854 
L 187.770441 117.390277 
L 188.209474 108.783026 
L 188.648507 109.441366 
L 189.087541 116.594519 
L 189.526574 127.949231 
L 189.965607 136.303739 
L 190.40464 137.331915 
L 190.843673 133.143374 
L 191.282706 125.498408 
L 192.160772 105.213206 
L 192.599805 99.876771 
L 193.038838 103.307244 
L 193.477871 112.735687 
L 193.916904 125.896206 
L 194.355937 135.630948 
L 194.79497 137.667054 
L 195.234003 134.171207 
L 195.673036 126.960453 
L 196.112069 117.510131 
L 196.551102 112.342696 
L 196.990135 115.238291 
L 197.429168 123.6639 
L 198.307234 149.236343 
L 198.746267 163.486425 
L 199.185301 172.016959 
L 199.624334 171.295637 
L 200.063367 164.092483 
L 200.5024 152.699542 
L 200.941433 144.317105 
L 201.380466 143.269724 
L 201.819499 147.446215 
L 202.258532 155.084806 
L 202.697565 164.76237 
L 203.136598 170.003768 
L 203.575631 167.070245 
L 204.014664 158.529846 
L 204.89273 132.606165 
L 205.331763 118.159771 
L 205.770796 109.437585 
L 206.209829 109.980591 
L 206.648862 117.024183 
L 207.087895 128.279147 
L 207.526928 136.546057 
L 207.965961 137.499791 
L 208.404994 133.249985 
L 208.844027 125.556253 
L 209.722094 105.206225 
L 210.161127 99.850828 
L 210.60016 103.2693 
L 211.039193 112.691277 
L 212.356292 151.262873 
L 212.795325 152.885964 
L 213.234358 148.300675 
L 213.673391 139.580963 
L 214.112424 133.770528 
L 214.551457 135.088888 
L 214.99049 141.361662 
L 215.868556 161.96512 
L 216.307589 173.769182 
L 216.746622 180.036594 
L 217.185655 177.299761 
L 217.624688 168.361319 
L 218.063721 155.521595 
L 218.502754 145.971581 
L 218.941787 144.014626 
L 219.380821 147.511074 
L 219.819854 154.667044 
L 220.258887 164.026427 
L 220.69792 169.082215 
L 221.136953 166.066239 
L 221.575986 157.520408 
L 222.454052 131.730854 
L 222.893085 117.390277 
L 223.332118 108.783026 
L 223.771151 109.441366 
L 224.210184 116.594519 
L 225.527283 150.970476 
L 225.966316 151.896503 
L 226.405349 146.871909 
L 226.844382 137.917578 
L 227.283415 132.029073 
L 227.722448 133.383775 
L 228.161481 139.771611 
L 229.478581 167.368188 
L 229.917614 165.557039 
L 230.356647 157.886948 
L 231.673746 124.281968 
L 232.112779 124.002631 
L 232.551812 129.731119 
L 233.429878 151.319112 
L 233.868911 164.215783 
L 234.307944 171.754321 
L 234.746977 170.347729 
L 235.18601 162.711401 
L 236.503109 127.970784 
L 236.942142 127.142988 
L 237.381175 132.320238 
L 238.698274 160.017592 
L 239.137307 158.925728 
L 239.576341 152.110393 
L 240.015374 141.619332 
L 240.454407 134.453716 
L 240.89344 134.781254 
L 241.332473 140.371947 
L 242.649572 166.683603 
L 243.088605 164.715794 
L 243.527638 156.979438 
L 244.405704 132.20763 
L 244.844737 118.137263 
L 245.28377 109.681238 
L 245.722803 110.399023 
L 246.161836 117.543828 
L 247.478935 151.674929 
L 247.917968 152.491382 
L 248.357001 147.358365 
L 249.6741 119.957572 
L 250.113134 121.163199 
L 250.552167 128.087083 
L 250.9912 138.677323 
L 251.430233 145.930313 
L 251.869266 145.677246 
L 252.308299 140.148025 
L 253.625398 113.951076 
L 254.064431 115.938251 
L 254.503464 123.686988 
L 255.820563 157.172561 
L 256.259596 157.352529 
L 256.698629 151.515968 
L 257.576695 129.716276 
L 258.015728 116.725635 
L 258.454761 109.104535 
L 258.893794 110.440937 
L 259.332827 118.019474 
L 260.649927 152.652847 
L 261.08896 153.462713 
L 261.527993 148.274097 
L 261.967026 139.130622 
L 262.406059 133.045192 
L 262.845092 134.207817 
L 263.284125 140.417068 
L 264.601224 167.600404 
L 265.040257 165.695676 
L 265.47929 157.952368 
L 266.796389 124.226847 
L 267.235422 123.931943 
L 267.674455 129.653171 
L 268.552521 151.243556 
L 268.991554 164.1466 
L 269.430587 171.693258 
L 269.86962 170.295592 
L 270.308654 162.66829 
L 271.625753 127.951131 
L 272.064786 127.129264 
L 272.503819 132.311414 
L 272.942852 141.452663 
L 273.381885 147.53897 
L 273.820918 146.379363 
L 274.259951 140.174482 
L 275.57705 113.006797 
L 276.016083 114.916399 
L 276.455116 122.664078 
L 277.772215 156.399143 
L 278.211248 156.696071 
L 278.650281 150.97637 
L 279.528347 129.387816 
L 279.96738 116.485214 
L 280.406414 108.938767 
L 280.845447 110.336472 
L 281.28448 117.963689 
L 282.601579 152.680222 
L 283.040612 153.501844 
L 283.479645 148.319459 
L 284.796744 120.612381 
L 285.235777 121.702559 
L 285.67481 128.516792 
L 286.113843 139.00722 
L 286.552876 146.172567 
L 286.991909 145.84503 
L 287.430942 140.254529 
L 288.748041 113.943992 
L 289.187074 115.912216 
L 289.626107 123.648965 
L 290.943207 157.126759 
L 291.38224 157.309756 
L 291.821273 151.477574 
L 292.699339 129.688322 
L 293.138372 116.70291 
L 293.577405 109.086688 
L 294.016438 110.427463 
L 294.455471 118.00979 
L 295.77257 152.650945 
L 296.211603 153.462338 
L 296.650636 148.274817 
L 297.089669 139.132076 
L 297.528702 133.047087 
L 297.967735 134.209924 
L 298.406768 140.419213 
L 299.723867 167.602078 
L 300.1629 165.697108 
L 300.601934 157.953555 
L 301.919033 124.227393 
L 302.358066 123.932326 
L 302.797099 129.65342 
L 303.675165 151.243613 
L 304.114198 164.146595 
L 304.553231 171.69321 
L 304.992264 170.295516 
L 305.431297 162.668198 
L 306.748396 127.951039 
L 307.187429 127.129181 
L 307.626462 132.311341 
L 308.943561 160.017884 
L 309.382594 158.927581 
L 309.821627 152.113247 
L 310.26066 141.622743 
L 310.699694 134.45734 
L 311.138727 134.784838 
L 311.57776 140.375315 
L 312.894859 166.685836 
L 313.333892 164.717617 
L 313.772925 156.980878 
L 314.650991 132.208422 
L 315.090024 118.137801 
L 315.529057 109.681569 
L 315.96809 110.399191 
L 316.407123 117.543872 
L 317.724222 151.674785 
L 318.163255 152.49122 
L 318.602288 147.358198 
L 319.919387 119.957439 
L 320.35842 121.163084 
L 320.797454 128.086988 
L 321.236487 138.677246 
L 321.67552 145.930254 
L 322.114553 145.677202 
L 322.553586 140.147994 
L 323.870685 113.951071 
L 324.309718 115.938251 
L 324.748751 123.686991 
L 326.06585 157.172569 
L 326.504883 157.352536 
L 326.943916 151.515976 
L 327.821982 129.716282 
L 328.261015 116.725639 
L 328.700048 109.104539 
L 329.139081 110.44094 
L 329.578114 118.019477 
L 330.895214 152.652847 
L 331.334247 153.462713 
L 331.77328 148.274097 
L 332.212313 139.130621 
L 332.651346 133.045192 
L 333.090379 134.207817 
L 333.529412 140.417068 
L 334.846511 167.600404 
L 335.285544 165.695676 
L 335.724577 157.952367 
L 337.041676 124.226847 
L 337.480709 123.931943 
L 337.919742 129.653171 
L 338.797808 151.243556 
L 339.236841 164.1466 
L 339.675874 171.693258 
L 340.114907 170.295592 
L 340.55394 162.66829 
L 341.87104 127.951131 
L 342.310073 127.129265 
L 342.749106 132.311414 
L 343.188139 141.452663 
L 343.627172 147.53897 
L 344.066205 146.379363 
L 344.505238 140.174482 
L 345.822337 113.006797 
L 346.26137 114.916399 
L 346.700403 122.664078 
L 348.017502 156.399143 
L 348.456535 156.696071 
L 348.895568 150.97637 
L 349.773634 129.387816 
L 350.212667 116.485214 
L 350.6517 108.938767 
L 351.090733 110.336472 
L 351.529767 117.963689 
L 352.846866 152.680222 
L 353.285899 153.501844 
L 353.724932 148.319459 
L 355.042031 120.612381 
L 355.481064 121.702559 
L 355.920097 128.516792 
L 356.35913 139.00722 
L 356.798163 146.172567 
L 357.237196 145.84503 
L 357.676229 140.254529 
L 358.993328 113.943992 
L 359.432361 115.912216 
L 359.871394 123.648965 
L 361.188493 157.126759 
L 361.627527 157.309756 
L 362.06656 151.477574 
L 362.944626 129.688322 
L 363.383659 116.70291 
L 363.822692 109.086688 
L 364.261725 110.427463 
L 364.700758 118.00979 
L 366.017857 152.650945 
L 366.45689 153.462338 
L 366.895923 148.274817 
L 367.334956 139.132076 
L 367.773989 133.047087 
L 368.213022 134.209924 
L 368.652055 140.419213 
L 369.969154 167.602078 
L 370.408187 165.697108 
L 370.84722 157.953555 
L 372.16432 124.227393 
L 372.603353 123.932326 
L 373.042386 129.65342 
L 373.920452 151.243613 
L 374.359485 164.146595 
L 374.798518 171.69321 
L 375.237551 170.295516 
L 375.676584 162.668198 
L 376.993683 127.951039 
L 377.432716 127.129181 
L 377.871749 132.311341 
L 379.188848 160.017884 
L 379.627881 158.927581 
L 380.066914 152.113247 
L 380.505947 141.622743 
L 380.94498 134.45734 
L 381.384013 134.784838 
L 381.823047 140.375315 
L 383.140146 166.685836 
L 383.579179 164.717617 
L 384.018212 156.980878 
L 384.896278 132.208422 
L 385.335311 118.137801 
L 385.774344 109.681569 
L 386.213377 110.399191 
L 386.65241 117.543872 
L 387.969509 151.674785 
L 388.408542 152.49122 
L 388.847575 147.358198 
L 390.164674 119.957439 
L 390.603707 121.163084 
L 391.04274 128.086988 
L 391.481773 138.677246 
L 391.920807 145.930254 
L 392.35984 145.677202 
L 392.798873 140.147994 
L 394.115972 113.951071 
L 394.555005 115.938251 
L 394.994038 123.686991 
L 395.433071 135.08933 
L 395.433071 135.08933 
" style="fill:none;stroke:#ff0000;stroke-linecap:square;"/>
   </g>
   <g id="patch_3">
    <path d="M 44.645669 246.614173 
L 44.645669 34.015748 
" style="fill:none;stroke:#000000;stroke-linecap:square;stroke-linejoin:miter;stroke-width:0.8;"/>
   </g>
   <g id="patch_4">
    <path d="M 395.433071 246.614173 
L 395.433071 34.015748 
" style="fill:none;stroke:#000000;stroke-linecap:square;stroke-linejoin:miter;stroke-width:0.8;"/>
   </g>
   <g id="patch_5">
    <path d="M 44.645669 246.614173 
L 395.433071 246.614173 
" style="fill:none;stroke:#000000;stroke-linecap:square;stroke-linejoin:miter;stroke-width:0.8;"/>
   </g>
   <g id="patch_6">
    <path d="M 44.645669 34.015748 
L 395.433071 34.015748 
" style="fill:none;stroke:#000000;stroke-linecap:square;stroke-linejoin:miter;stroke-width:0.8;"/>
   </g>
   <g id="text_17">
    <!-- Onda quadrada com frequncia 4Hz  -->
    <defs>
     <path d="M 39.40625 66.21875 
Q 28.65625 66.21875 22.328125 58.203125 
Q 16.015625 50.203125 16.015625 36.375 
Q 16.015625 22.609375 22.328125 14.59375 
Q 28.65625 6.59375 39.40625 6.59375 
Q 50.140625 6.59375 56.421875 14.59375 
Q 62.703125 22.609375 62.703125 36.375 
Q 62.703125 50.203125 56.421875 58.203125 
Q 50.140625 66.21875 39.40625 66.21875 
z
M 39.40625 74.21875 
Q 54.734375 74.21875 63.90625 63.9375 
Q 73.09375 53.65625 73.09375 36.375 
Q 73.09375 19.140625 63.90625 8.859375 
Q 54.734375 -1.421875 39.40625 -1.421875 
Q 24.03125 -1.421875 14.8125 8.828125 
Q 5.609375 19.09375 5.609375 36.375 
Q 5.609375 53.65625 14.8125 63.9375 
Q 24.03125 74.21875 39.40625 74.21875 
z
" id="DejaVuSans-79"/>
     <path d="M 54.890625 33.015625 
L 54.890625 0 
L 45.90625 0 
L 45.90625 32.71875 
Q 45.90625 40.484375 42.875 44.328125 
Q 39.84375 48.1875 33.796875 48.1875 
Q 26.515625 48.1875 22.3125 43.546875 
Q 18.109375 38.921875 18.109375 30.90625 
L 18.109375 0 
L 9.078125 0 
L 9.078125 54.6875 
L 18.109375 54.6875 
L 18.109375 46.1875 
Q 21.34375 51.125 25.703125 53.5625 
Q 30.078125 56 35.796875 56 
Q 45.21875 56 50.046875 50.171875 
Q 54.890625 44.34375 54.890625 33.015625 
z
" id="DejaVuSans-110"/>
     <path d="M 45.40625 46.390625 
L 45.40625 75.984375 
L 54.390625 75.984375 
L 54.390625 0 
L 45.40625 0 
L 45.40625 8.203125 
Q 42.578125 3.328125 38.25 0.953125 
Q 33.9375 -1.421875 27.875 -1.421875 
Q 17.96875 -1.421875 11.734375 6.484375 
Q 5.515625 14.40625 5.515625 27.296875 
Q 5.515625 40.1875 11.734375 48.09375 
Q 17.96875 56 27.875 56 
Q 33.9375 56 38.25 53.625 
Q 42.578125 51.265625 45.40625 46.390625 
z
M 14.796875 27.296875 
Q 14.796875 17.390625 18.875 11.75 
Q 22.953125 6.109375 30.078125 6.109375 
Q 37.203125 6.109375 41.296875 11.75 
Q 45.40625 17.390625 45.40625 27.296875 
Q 45.40625 37.203125 41.296875 42.84375 
Q 37.203125 48.484375 30.078125 48.484375 
Q 22.953125 48.484375 18.875 42.84375 
Q 14.796875 37.203125 14.796875 27.296875 
z
" id="DejaVuSans-100"/>
     <path d="M 14.796875 27.296875 
Q 14.796875 17.390625 18.875 11.75 
Q 22.953125 6.109375 30.078125 6.109375 
Q 37.203125 6.109375 41.296875 11.75 
Q 45.40625 17.390625 45.40625 27.296875 
Q 45.40625 37.203125 41.296875 42.84375 
Q 37.203125 48.484375 30.078125 48.484375 
Q 22.953125 48.484375 18.875 42.84375 
Q 14.796875 37.203125 14.796875 27.296875 
z
M 45.40625 8.203125 
Q 42.578125 3.328125 38.25 0.953125 
Q 33.9375 -1.421875 27.875 -1.421875 
Q 17.96875 -1.421875 11.734375 6.484375 
Q 5.515625 14.40625 5.515625 27.296875 
Q 5.515625 40.1875 11.734375 48.09375 
Q 17.96875 56 27.875 56 
Q 33.9375 56 38.25 53.625 
Q 42.578125 51.265625 45.40625 46.390625 
L 45.40625 54.6875 
L 54.390625 54.6875 
L 54.390625 -20.796875 
L 45.40625 -20.796875 
z
" id="DejaVuSans-113"/>
     <path d="M 8.5 21.578125 
L 8.5 54.6875 
L 17.484375 54.6875 
L 17.484375 21.921875 
Q 17.484375 14.15625 20.5 10.265625 
Q 23.53125 6.390625 29.59375 6.390625 
Q 36.859375 6.390625 41.078125 11.03125 
Q 45.3125 15.671875 45.3125 23.6875 
L 45.3125 54.6875 
L 54.296875 54.6875 
L 54.296875 0 
L 45.3125 0 
L 45.3125 8.40625 
Q 42.046875 3.421875 37.71875 1 
Q 33.40625 -1.421875 27.6875 -1.421875 
Q 18.265625 -1.421875 13.375 4.4375 
Q 8.5 10.296875 8.5 21.578125 
z
M 31.109375 56 
z
" id="DejaVuSans-117"/>
     <path d="M 48.78125 52.59375 
L 48.78125 44.1875 
Q 44.96875 46.296875 41.140625 47.34375 
Q 37.3125 48.390625 33.40625 48.390625 
Q 24.65625 48.390625 19.8125 42.84375 
Q 14.984375 37.3125 14.984375 27.296875 
Q 14.984375 17.28125 19.8125 11.734375 
Q 24.65625 6.203125 33.40625 6.203125 
Q 37.3125 6.203125 41.140625 7.25 
Q 44.96875 8.296875 48.78125 10.40625 
L 48.78125 2.09375 
Q 45.015625 0.34375 40.984375 -0.53125 
Q 36.96875 -1.421875 32.421875 -1.421875 
Q 20.0625 -1.421875 12.78125 6.34375 
Q 5.515625 14.109375 5.515625 27.296875 
Q 5.515625 40.671875 12.859375 48.328125 
Q 20.21875 56 33.015625 56 
Q 37.15625 56 41.109375 55.140625 
Q 45.0625 54.296875 48.78125 52.59375 
z
" id="DejaVuSans-99"/>
     <path d="M 37.109375 75.984375 
L 37.109375 68.5 
L 28.515625 68.5 
Q 23.6875 68.5 21.796875 66.546875 
Q 19.921875 64.59375 19.921875 59.515625 
L 19.921875 54.6875 
L 34.71875 54.6875 
L 34.71875 47.703125 
L 19.921875 47.703125 
L 19.921875 0 
L 10.890625 0 
L 10.890625 47.703125 
L 2.296875 47.703125 
L 2.296875 54.6875 
L 10.890625 54.6875 
L 10.890625 58.5 
Q 10.890625 67.625 15.140625 71.796875 
Q 19.390625 75.984375 28.609375 75.984375 
z
" id="DejaVuSans-102"/>
     <path d="M 56.203125 29.59375 
L 56.203125 25.203125 
L 14.890625 25.203125 
Q 15.484375 15.921875 20.484375 11.0625 
Q 25.484375 6.203125 34.421875 6.203125 
Q 39.59375 6.203125 44.453125 7.46875 
Q 49.3125 8.734375 54.109375 11.28125 
L 54.109375 2.78125 
Q 49.265625 0.734375 44.1875 -0.34375 
Q 39.109375 -1.421875 33.890625 -1.421875 
Q 20.796875 -1.421875 13.15625 6.1875 
Q 5.515625 13.8125 5.515625 26.8125 
Q 5.515625 40.234375 12.765625 48.109375 
Q 20.015625 56 32.328125 56 
Q 43.359375 56 49.78125 48.890625 
Q 56.203125 41.796875 56.203125 29.59375 
z
M 47.21875 32.234375 
Q 47.125 39.59375 43.09375 43.984375 
Q 39.0625 48.390625 32.421875 48.390625 
Q 24.90625 48.390625 20.390625 44.140625 
Q 15.875 39.890625 15.1875 32.171875 
z
M 28.171875 79.984375 
L 35.40625 79.984375 
L 47.359375 61.625 
L 40.578125 61.625 
L 31.78125 73.578125 
L 23 61.625 
L 16.21875 61.625 
z
" id="DejaVuSans-234"/>
     <path d="M 9.421875 54.6875 
L 18.40625 54.6875 
L 18.40625 0 
L 9.421875 0 
z
M 9.421875 75.984375 
L 18.40625 75.984375 
L 18.40625 64.59375 
L 9.421875 64.59375 
z
" id="DejaVuSans-105"/>
     <path d="M 9.8125 72.90625 
L 19.671875 72.90625 
L 19.671875 43.015625 
L 55.515625 43.015625 
L 55.515625 72.90625 
L 65.375 72.90625 
L 65.375 0 
L 55.515625 0 
L 55.515625 34.71875 
L 19.671875 34.71875 
L 19.671875 0 
L 9.8125 0 
z
" id="DejaVuSans-72"/>
     <path d="M 5.515625 54.6875 
L 48.1875 54.6875 
L 48.1875 46.484375 
L 14.40625 7.171875 
L 48.1875 7.171875 
L 48.1875 0 
L 4.296875 0 
L 4.296875 8.203125 
L 38.09375 47.515625 
L 5.515625 47.515625 
z
" id="DejaVuSans-122"/>
    </defs>
    <g transform="translate(91.180308 12.338811)scale(0.14 -0.14)">
     <use xlink:href="#DejaVuSans-79"/>
     <use x="78.710938" xlink:href="#DejaVuSans-110"/>
     <use x="142.089844" xlink:href="#DejaVuSans-100"/>
     <use x="205.566406" xlink:href="#DejaVuSans-97"/>
     <use x="266.845703" xlink:href="#DejaVuSans-32"/>
     <use x="298.632812" xlink:href="#DejaVuSans-113"/>
     <use x="362.109375" xlink:href="#DejaVuSans-117"/>
     <use x="425.488281" xlink:href="#DejaVuSans-97"/>
     <use x="486.767578" xlink:href="#DejaVuSans-100"/>
     <use x="550.244141" xlink:href="#DejaVuSans-114"/>
     <use x="591.357422" xlink:href="#DejaVuSans-97"/>
     <use x="652.636719" xlink:href="#DejaVuSans-100"/>
     <use x="716.113281" xlink:href="#DejaVuSans-97"/>
     <use x="777.392578" xlink:href="#DejaVuSans-32"/>
     <use x="809.179688" xlink:href="#DejaVuSans-99"/>
     <use x="864.160156" xlink:href="#DejaVuSans-111"/>
     <use x="925.341797" xlink:href="#DejaVuSans-109"/>
     <use x="1022.753906" xlink:href="#DejaVuSans-32"/>
     <use x="1054.541016" xlink:href="#DejaVuSans-102"/>
     <use x="1089.746094" xlink:href="#DejaVuSans-114"/>
     <use x="1128.609375" xlink:href="#DejaVuSans-101"/>
     <use x="1190.132812" xlink:href="#DejaVuSans-113"/>
     <use x="1253.609375" xlink:href="#DejaVuSans-117"/>
     <use x="1316.988281" xlink:href="#DejaVuSans-234"/>
     <use x="1378.511719" xlink:href="#DejaVuSans-110"/>
     <use x="1441.890625" xlink:href="#DejaVuSans-99"/>
     <use x="1496.871094" xlink:href="#DejaVuSans-105"/>
     <use x="1524.654297" xlink:href="#DejaVuSans-97"/>
     <use x="1585.933594" xlink:href="#DejaVuSans-32"/>
     <use x="1617.720703" xlink:href="#DejaVuSans-52"/>
     <use x="1681.34375" xlink:href="#DejaVuSans-72"/>
     <use x="1756.539062" xlink:href="#DejaVuSans-122"/>
     <use x="1809.029297" xlink:href="#DejaVuSans-32"/>
    </g>
    <!-- (primeiras 20 amostras) -->
    <defs>
     <path d="M 18.3125 70.21875 
L 18.3125 54.6875 
L 36.8125 54.6875 
L 36.8125 47.703125 
L 18.3125 47.703125 
L 18.3125 18.015625 
Q 18.3125 11.328125 20.140625 9.421875 
Q 21.96875 7.515625 27.59375 7.515625 
L 36.8125 7.515625 
L 36.8125 0 
L 27.59375 0 
Q 17.1875 0 13.234375 3.875 
Q 9.28125 7.765625 9.28125 18.015625 
L 9.28125 47.703125 
L 2.6875 47.703125 
L 2.6875 54.6875 
L 9.28125 54.6875 
L 9.28125 70.21875 
z
" id="DejaVuSans-116"/>
    </defs>
    <g transform="translate(135.473901 28.015748)scale(0.14 -0.14)">
     <use xlink:href="#DejaVuSans-40"/>
     <use x="39.013672" xlink:href="#DejaVuSans-112"/>
     <use x="102.490234" xlink:href="#DejaVuSans-114"/>
     <use x="143.603516" xlink:href="#DejaVuSans-105"/>
     <use x="171.386719" xlink:href="#DejaVuSans-109"/>
     <use x="268.798828" xlink:href="#DejaVuSans-101"/>
     <use x="330.322266" xlink:href="#DejaVuSans-105"/>
     <use x="358.105469" xlink:href="#DejaVuSans-114"/>
     <use x="399.21875" xlink:href="#DejaVuSans-97"/>
     <use x="460.498047" xlink:href="#DejaVuSans-115"/>
     <use x="512.597656" xlink:href="#DejaVuSans-32"/>
     <use x="544.384766" xlink:href="#DejaVuSans-50"/>
     <use x="608.007812" xlink:href="#DejaVuSans-48"/>
     <use x="671.630859" xlink:href="#DejaVuSans-32"/>
     <use x="703.417969" xlink:href="#DejaVuSans-97"/>
     <use x="764.697266" xlink:href="#DejaVuSans-109"/>
     <use x="862.109375" xlink:href="#DejaVuSans-111"/>
     <use x="923.291016" xlink:href="#DejaVuSans-115"/>
     <use x="975.390625" xlink:href="#DejaVuSans-116"/>
     <use x="1014.599609" xlink:href="#DejaVuSans-114"/>
     <use x="1055.712891" xlink:href="#DejaVuSans-97"/>
     <use x="1116.992188" xlink:href="#DejaVuSans-115"/>
     <use x="1169.091797" xlink:href="#DejaVuSans-41"/>
    </g>
   </g>
   <g id="legend_1">
    <g id="patch_7">
     <path d="M 237.665883 241.614173 
L 388.433071 241.614173 
Q 390.433071 241.614173 390.433071 239.614173 
L 390.433071 196.579798 
Q 390.433071 194.579798 388.433071 194.579798 
L 237.665883 194.579798 
Q 235.665883 194.579798 235.665883 196.579798 
L 235.665883 239.614173 
Q 235.665883 241.614173 237.665883 241.614173 
z
" style="fill:#ffffff;opacity:0.8;stroke:#cccccc;stroke-linejoin:miter;"/>
    </g>
    <g id="line2d_32">
     <path d="M 239.665883 202.678236 
L 259.665883 202.678236 
" style="fill:none;stroke:#008000;stroke-linecap:square;stroke-opacity:0.55;"/>
    </g>
    <g id="line2d_33"/>
    <g id="text_18">
     <!-- Entrada do sistema -->
     <defs>
      <path d="M 9.8125 72.90625 
L 55.90625 72.90625 
L 55.90625 64.59375 
L 19.671875 64.59375 
L 19.671875 43.015625 
L 54.390625 43.015625 
L 54.390625 34.71875 
L 19.671875 34.71875 
L 19.671875 8.296875 
L 56.78125 8.296875 
L 56.78125 0 
L 9.8125 0 
z
" id="DejaVuSans-69"/>
     </defs>
     <g transform="translate(267.665883 206.178236)scale(0.1 -0.1)">
      <use xlink:href="#DejaVuSans-69"/>
      <use x="63.183594" xlink:href="#DejaVuSans-110"/>
      <use x="126.5625" xlink:href="#DejaVuSans-116"/>
      <use x="165.771484" xlink:href="#DejaVuSans-114"/>
      <use x="206.884766" xlink:href="#DejaVuSans-97"/>
      <use x="268.164062" xlink:href="#DejaVuSans-100"/>
      <use x="331.640625" xlink:href="#DejaVuSans-97"/>
      <use x="392.919922" xlink:href="#DejaVuSans-32"/>
      <use x="424.707031" xlink:href="#DejaVuSans-100"/>
      <use x="488.183594" xlink:href="#DejaVuSans-111"/>
      <use x="549.365234" xlink:href="#DejaVuSans-32"/>
      <use x="581.152344" xlink:href="#DejaVuSans-115"/>
      <use x="633.251953" xlink:href="#DejaVuSans-105"/>
      <use x="661.035156" xlink:href="#DejaVuSans-115"/>
      <use x="713.134766" xlink:href="#DejaVuSans-116"/>
      <use x="752.34375" xlink:href="#DejaVuSans-101"/>
      <use x="813.867188" xlink:href="#DejaVuSans-109"/>
      <use x="911.279297" xlink:href="#DejaVuSans-97"/>
     </g>
    </g>
    <g id="line2d_34">
     <path d="M 239.665883 217.356361 
L 259.665883 217.356361 
" style="fill:none;stroke:#0000ff;stroke-linecap:square;"/>
    </g>
    <g id="line2d_35"/>
    <g id="text_19">
     <!-- Sada - Planta Real -->
     <defs>
      <path d="M 53.515625 70.515625 
L 53.515625 60.890625 
Q 47.90625 63.578125 42.921875 64.890625 
Q 37.9375 66.21875 33.296875 66.21875 
Q 25.25 66.21875 20.875 63.09375 
Q 16.5 59.96875 16.5 54.203125 
Q 16.5 49.359375 19.40625 46.890625 
Q 22.3125 44.4375 30.421875 42.921875 
L 36.375 41.703125 
Q 47.40625 39.59375 52.65625 34.296875 
Q 57.90625 29 57.90625 20.125 
Q 57.90625 9.515625 50.796875 4.046875 
Q 43.703125 -1.421875 29.984375 -1.421875 
Q 24.8125 -1.421875 18.96875 -0.25 
Q 13.140625 0.921875 6.890625 3.21875 
L 6.890625 13.375 
Q 12.890625 10.015625 18.65625 8.296875 
Q 24.421875 6.59375 29.984375 6.59375 
Q 38.421875 6.59375 43.015625 9.90625 
Q 47.609375 13.234375 47.609375 19.390625 
Q 47.609375 24.75 44.3125 27.78125 
Q 41.015625 30.8125 33.5 32.328125 
L 27.484375 33.5 
Q 16.453125 35.6875 11.515625 40.375 
Q 6.59375 45.0625 6.59375 53.421875 
Q 6.59375 63.09375 13.40625 68.65625 
Q 20.21875 74.21875 32.171875 74.21875 
Q 37.3125 74.21875 42.625 73.28125 
Q 47.953125 72.359375 53.515625 70.515625 
z
" id="DejaVuSans-83"/>
      <path d="M 20.703125 79.984375 
L 30.421875 79.984375 
L 14.5 61.625 
L 7.03125 61.625 
z
M 9.421875 54.6875 
L 18.40625 54.6875 
L 18.40625 0 
L 9.421875 0 
z
M 13.921875 56 
z
" id="DejaVuSans-237"/>
      <path d="M 4.890625 31.390625 
L 31.203125 31.390625 
L 31.203125 23.390625 
L 4.890625 23.390625 
z
" id="DejaVuSans-45"/>
      <path d="M 19.671875 64.796875 
L 19.671875 37.40625 
L 32.078125 37.40625 
Q 38.96875 37.40625 42.71875 40.96875 
Q 46.484375 44.53125 46.484375 51.125 
Q 46.484375 57.671875 42.71875 61.234375 
Q 38.96875 64.796875 32.078125 64.796875 
z
M 9.8125 72.90625 
L 32.078125 72.90625 
Q 44.34375 72.90625 50.609375 67.359375 
Q 56.890625 61.8125 56.890625 51.125 
Q 56.890625 40.328125 50.609375 34.8125 
Q 44.34375 29.296875 32.078125 29.296875 
L 19.671875 29.296875 
L 19.671875 0 
L 9.8125 0 
z
" id="DejaVuSans-80"/>
      <path d="M 44.390625 34.1875 
Q 47.5625 33.109375 50.5625 29.59375 
Q 53.5625 26.078125 56.59375 19.921875 
L 66.609375 0 
L 56 0 
L 46.6875 18.703125 
Q 43.0625 26.03125 39.671875 28.421875 
Q 36.28125 30.8125 30.421875 30.8125 
L 19.671875 30.8125 
L 19.671875 0 
L 9.8125 0 
L 9.8125 72.90625 
L 32.078125 72.90625 
Q 44.578125 72.90625 50.734375 67.671875 
Q 56.890625 62.453125 56.890625 51.90625 
Q 56.890625 45.015625 53.6875 40.46875 
Q 50.484375 35.9375 44.390625 34.1875 
z
M 19.671875 64.796875 
L 19.671875 38.921875 
L 32.078125 38.921875 
Q 39.203125 38.921875 42.84375 42.21875 
Q 46.484375 45.515625 46.484375 51.90625 
Q 46.484375 58.296875 42.84375 61.546875 
Q 39.203125 64.796875 32.078125 64.796875 
z
" id="DejaVuSans-82"/>
     </defs>
     <g transform="translate(267.665883 220.856361)scale(0.1 -0.1)">
      <use xlink:href="#DejaVuSans-83"/>
      <use x="63.476562" xlink:href="#DejaVuSans-97"/>
      <use x="124.755859" xlink:href="#DejaVuSans-237"/>
      <use x="152.539062" xlink:href="#DejaVuSans-100"/>
      <use x="216.015625" xlink:href="#DejaVuSans-97"/>
      <use x="277.294922" xlink:href="#DejaVuSans-32"/>
      <use x="309.082031" xlink:href="#DejaVuSans-45"/>
      <use x="345.166016" xlink:href="#DejaVuSans-32"/>
      <use x="376.953125" xlink:href="#DejaVuSans-80"/>
      <use x="437.255859" xlink:href="#DejaVuSans-108"/>
      <use x="465.039062" xlink:href="#DejaVuSans-97"/>
      <use x="526.318359" xlink:href="#DejaVuSans-110"/>
      <use x="589.697266" xlink:href="#DejaVuSans-116"/>
      <use x="628.90625" xlink:href="#DejaVuSans-97"/>
      <use x="690.185547" xlink:href="#DejaVuSans-32"/>
      <use x="721.972656" xlink:href="#DejaVuSans-82"/>
      <use x="786.955078" xlink:href="#DejaVuSans-101"/>
      <use x="848.478516" xlink:href="#DejaVuSans-97"/>
      <use x="909.757812" xlink:href="#DejaVuSans-108"/>
     </g>
    </g>
    <g id="line2d_36">
     <path d="M 239.665883 232.034486 
L 259.665883 232.034486 
" style="fill:none;stroke:#ff0000;stroke-linecap:square;"/>
    </g>
    <g id="line2d_37"/>
    <g id="text_20">
     <!-- Sada - Planta Estimada -->
     <g transform="translate(267.665883 235.534486)scale(0.1 -0.1)">
      <use xlink:href="#DejaVuSans-83"/>
      <use x="63.476562" xlink:href="#DejaVuSans-97"/>
      <use x="124.755859" xlink:href="#DejaVuSans-237"/>
      <use x="152.539062" xlink:href="#DejaVuSans-100"/>
      <use x="216.015625" xlink:href="#DejaVuSans-97"/>
      <use x="277.294922" xlink:href="#DejaVuSans-32"/>
      <use x="309.082031" xlink:href="#DejaVuSans-45"/>
      <use x="345.166016" xlink:href="#DejaVuSans-32"/>
      <use x="376.953125" xlink:href="#DejaVuSans-80"/>
      <use x="437.255859" xlink:href="#DejaVuSans-108"/>
      <use x="465.039062" xlink:href="#DejaVuSans-97"/>
      <use x="526.318359" xlink:href="#DejaVuSans-110"/>
      <use x="589.697266" xlink:href="#DejaVuSans-116"/>
      <use x="628.90625" xlink:href="#DejaVuSans-97"/>
      <use x="690.185547" xlink:href="#DejaVuSans-32"/>
      <use x="721.972656" xlink:href="#DejaVuSans-69"/>
      <use x="785.15625" xlink:href="#DejaVuSans-115"/>
      <use x="837.255859" xlink:href="#DejaVuSans-116"/>
      <use x="876.464844" xlink:href="#DejaVuSans-105"/>
      <use x="904.248047" xlink:href="#DejaVuSans-109"/>
      <use x="1001.660156" xlink:href="#DejaVuSans-97"/>
      <use x="1062.939453" xlink:href="#DejaVuSans-100"/>
      <use x="1126.416016" xlink:href="#DejaVuSans-97"/>
     </g>
    </g>
   </g>
  </g>
 </g>
 <defs>
  <clipPath id="pdab19339d3">
   <rect height="212.598425" width="350.787402" x="44.645669" y="34.015748"/>
  </clipPath>
 </defs>
</svg>
