<?xml version="1.0" encoding="utf-8" standalone="no"?>
<!DOCTYPE svg PUBLIC "-//W3C//DTD SVG 1.1//EN"
  "http://www.w3.org/Graphics/SVG/1.1/DTD/svg11.dtd">
<!-- Created with matplotlib (https://matplotlib.org/) -->
<svg height="283.464567pt" version="1.1" viewBox="0 0 425.19685 283.464567" width="425.19685pt" xmlns="http://www.w3.org/2000/svg" xmlns:xlink="http://www.w3.org/1999/xlink">
 <defs>
  <style type="text/css">
*{stroke-linecap:butt;stroke-linejoin:round;}
  </style>
 </defs>
 <g id="figure_1">
  <g id="patch_1">
   <path d="M 0 283.464567 
L 425.19685 283.464567 
L 425.19685 0 
L 0 0 
z
" style="fill:#ffffff;"/>
  </g>
  <g id="axes_1">
   <g id="patch_2">
    <path d="M 44.645669 246.614173 
L 395.433071 246.614173 
L 395.433071 34.015748 
L 44.645669 34.015748 
z
" style="fill:#ffffff;"/>
   </g>
   <g id="matplotlib.axis_1">
    <g id="xtick_1">
     <g id="line2d_1">
      <path clip-path="url(#p8076e00d54)" d="M 44.645669 246.614173 
L 44.645669 34.015748 
" style="fill:none;stroke:#000000;stroke-dasharray:0.7,1.155;stroke-dashoffset:0;stroke-width:0.7;"/>
     </g>
     <g id="line2d_2">
      <defs>
       <path d="M 0 0 
L 0 3.5 
" id="mfb430ec418" style="stroke:#000000;stroke-width:0.8;"/>
      </defs>
      <g>
       <use style="stroke:#000000;stroke-width:0.8;" x="44.645669" xlink:href="#mfb430ec418" y="246.614173"/>
      </g>
     </g>
     <g id="text_1">
      <!-- 0.0 -->
      <defs>
       <path d="M 31.78125 66.40625 
Q 24.171875 66.40625 20.328125 58.90625 
Q 16.5 51.421875 16.5 36.375 
Q 16.5 21.390625 20.328125 13.890625 
Q 24.171875 6.390625 31.78125 6.390625 
Q 39.453125 6.390625 43.28125 13.890625 
Q 47.125 21.390625 47.125 36.375 
Q 47.125 51.421875 43.28125 58.90625 
Q 39.453125 66.40625 31.78125 66.40625 
z
M 31.78125 74.21875 
Q 44.046875 74.21875 50.515625 64.515625 
Q 56.984375 54.828125 56.984375 36.375 
Q 56.984375 17.96875 50.515625 8.265625 
Q 44.046875 -1.421875 31.78125 -1.421875 
Q 19.53125 -1.421875 13.0625 8.265625 
Q 6.59375 17.96875 6.59375 36.375 
Q 6.59375 54.828125 13.0625 64.515625 
Q 19.53125 74.21875 31.78125 74.21875 
z
" id="DejaVuSans-48"/>
       <path d="M 10.6875 12.40625 
L 21 12.40625 
L 21 0 
L 10.6875 0 
z
" id="DejaVuSans-46"/>
      </defs>
      <g transform="translate(37.489263 260.452767)scale(0.09 -0.09)">
       <use xlink:href="#DejaVuSans-48"/>
       <use x="63.623047" xlink:href="#DejaVuSans-46"/>
       <use x="95.410156" xlink:href="#DejaVuSans-48"/>
      </g>
     </g>
    </g>
    <g id="xtick_2">
     <g id="line2d_3">
      <path clip-path="url(#p8076e00d54)" d="M 88.548974 246.614173 
L 88.548974 34.015748 
" style="fill:none;stroke:#000000;stroke-dasharray:0.7,1.155;stroke-dashoffset:0;stroke-width:0.7;"/>
     </g>
     <g id="line2d_4">
      <g>
       <use style="stroke:#000000;stroke-width:0.8;" x="88.548974" xlink:href="#mfb430ec418" y="246.614173"/>
      </g>
     </g>
     <g id="text_2">
      <!-- 2.5 -->
      <defs>
       <path d="M 19.1875 8.296875 
L 53.609375 8.296875 
L 53.609375 0 
L 7.328125 0 
L 7.328125 8.296875 
Q 12.9375 14.109375 22.625 23.890625 
Q 32.328125 33.6875 34.8125 36.53125 
Q 39.546875 41.84375 41.421875 45.53125 
Q 43.3125 49.21875 43.3125 52.78125 
Q 43.3125 58.59375 39.234375 62.25 
Q 35.15625 65.921875 28.609375 65.921875 
Q 23.96875 65.921875 18.8125 64.3125 
Q 13.671875 62.703125 7.8125 59.421875 
L 7.8125 69.390625 
Q 13.765625 71.78125 18.9375 73 
Q 24.125 74.21875 28.421875 74.21875 
Q 39.75 74.21875 46.484375 68.546875 
Q 53.21875 62.890625 53.21875 53.421875 
Q 53.21875 48.921875 51.53125 44.890625 
Q 49.859375 40.875 45.40625 35.40625 
Q 44.1875 33.984375 37.640625 27.21875 
Q 31.109375 20.453125 19.1875 8.296875 
z
" id="DejaVuSans-50"/>
       <path d="M 10.796875 72.90625 
L 49.515625 72.90625 
L 49.515625 64.59375 
L 19.828125 64.59375 
L 19.828125 46.734375 
Q 21.96875 47.46875 24.109375 47.828125 
Q 26.265625 48.1875 28.421875 48.1875 
Q 40.625 48.1875 47.75 41.5 
Q 54.890625 34.8125 54.890625 23.390625 
Q 54.890625 11.625 47.5625 5.09375 
Q 40.234375 -1.421875 26.90625 -1.421875 
Q 22.3125 -1.421875 17.546875 -0.640625 
Q 12.796875 0.140625 7.71875 1.703125 
L 7.71875 11.625 
Q 12.109375 9.234375 16.796875 8.0625 
Q 21.484375 6.890625 26.703125 6.890625 
Q 35.15625 6.890625 40.078125 11.328125 
Q 45.015625 15.765625 45.015625 23.390625 
Q 45.015625 31 40.078125 35.4375 
Q 35.15625 39.890625 26.703125 39.890625 
Q 22.75 39.890625 18.8125 39.015625 
Q 14.890625 38.140625 10.796875 36.28125 
z
" id="DejaVuSans-53"/>
      </defs>
      <g transform="translate(81.392567 260.452767)scale(0.09 -0.09)">
       <use xlink:href="#DejaVuSans-50"/>
       <use x="63.623047" xlink:href="#DejaVuSans-46"/>
       <use x="95.410156" xlink:href="#DejaVuSans-53"/>
      </g>
     </g>
    </g>
    <g id="xtick_3">
     <g id="line2d_5">
      <path clip-path="url(#p8076e00d54)" d="M 132.452278 246.614173 
L 132.452278 34.015748 
" style="fill:none;stroke:#000000;stroke-dasharray:0.7,1.155;stroke-dashoffset:0;stroke-width:0.7;"/>
     </g>
     <g id="line2d_6">
      <g>
       <use style="stroke:#000000;stroke-width:0.8;" x="132.452278" xlink:href="#mfb430ec418" y="246.614173"/>
      </g>
     </g>
     <g id="text_3">
      <!-- 5.0 -->
      <g transform="translate(125.295872 260.452767)scale(0.09 -0.09)">
       <use xlink:href="#DejaVuSans-53"/>
       <use x="63.623047" xlink:href="#DejaVuSans-46"/>
       <use x="95.410156" xlink:href="#DejaVuSans-48"/>
      </g>
     </g>
    </g>
    <g id="xtick_4">
     <g id="line2d_7">
      <path clip-path="url(#p8076e00d54)" d="M 176.355582 246.614173 
L 176.355582 34.015748 
" style="fill:none;stroke:#000000;stroke-dasharray:0.7,1.155;stroke-dashoffset:0;stroke-width:0.7;"/>
     </g>
     <g id="line2d_8">
      <g>
       <use style="stroke:#000000;stroke-width:0.8;" x="176.355582" xlink:href="#mfb430ec418" y="246.614173"/>
      </g>
     </g>
     <g id="text_4">
      <!-- 7.5 -->
      <defs>
       <path d="M 8.203125 72.90625 
L 55.078125 72.90625 
L 55.078125 68.703125 
L 28.609375 0 
L 18.3125 0 
L 43.21875 64.59375 
L 8.203125 64.59375 
z
" id="DejaVuSans-55"/>
      </defs>
      <g transform="translate(169.199176 260.452767)scale(0.09 -0.09)">
       <use xlink:href="#DejaVuSans-55"/>
       <use x="63.623047" xlink:href="#DejaVuSans-46"/>
       <use x="95.410156" xlink:href="#DejaVuSans-53"/>
      </g>
     </g>
    </g>
    <g id="xtick_5">
     <g id="line2d_9">
      <path clip-path="url(#p8076e00d54)" d="M 220.258887 246.614173 
L 220.258887 34.015748 
" style="fill:none;stroke:#000000;stroke-dasharray:0.7,1.155;stroke-dashoffset:0;stroke-width:0.7;"/>
     </g>
     <g id="line2d_10">
      <g>
       <use style="stroke:#000000;stroke-width:0.8;" x="220.258887" xlink:href="#mfb430ec418" y="246.614173"/>
      </g>
     </g>
     <g id="text_5">
      <!-- 10.0 -->
      <defs>
       <path d="M 12.40625 8.296875 
L 28.515625 8.296875 
L 28.515625 63.921875 
L 10.984375 60.40625 
L 10.984375 69.390625 
L 28.421875 72.90625 
L 38.28125 72.90625 
L 38.28125 8.296875 
L 54.390625 8.296875 
L 54.390625 0 
L 12.40625 0 
z
" id="DejaVuSans-49"/>
      </defs>
      <g transform="translate(210.239355 260.452767)scale(0.09 -0.09)">
       <use xlink:href="#DejaVuSans-49"/>
       <use x="63.623047" xlink:href="#DejaVuSans-48"/>
       <use x="127.246094" xlink:href="#DejaVuSans-46"/>
       <use x="159.033203" xlink:href="#DejaVuSans-48"/>
      </g>
     </g>
    </g>
    <g id="xtick_6">
     <g id="line2d_11">
      <path clip-path="url(#p8076e00d54)" d="M 264.162191 246.614173 
L 264.162191 34.015748 
" style="fill:none;stroke:#000000;stroke-dasharray:0.7,1.155;stroke-dashoffset:0;stroke-width:0.7;"/>
     </g>
     <g id="line2d_12">
      <g>
       <use style="stroke:#000000;stroke-width:0.8;" x="264.162191" xlink:href="#mfb430ec418" y="246.614173"/>
      </g>
     </g>
     <g id="text_6">
      <!-- 12.5 -->
      <g transform="translate(254.14266 260.452767)scale(0.09 -0.09)">
       <use xlink:href="#DejaVuSans-49"/>
       <use x="63.623047" xlink:href="#DejaVuSans-50"/>
       <use x="127.246094" xlink:href="#DejaVuSans-46"/>
       <use x="159.033203" xlink:href="#DejaVuSans-53"/>
      </g>
     </g>
    </g>
    <g id="xtick_7">
     <g id="line2d_13">
      <path clip-path="url(#p8076e00d54)" d="M 308.065495 246.614173 
L 308.065495 34.015748 
" style="fill:none;stroke:#000000;stroke-dasharray:0.7,1.155;stroke-dashoffset:0;stroke-width:0.7;"/>
     </g>
     <g id="line2d_14">
      <g>
       <use style="stroke:#000000;stroke-width:0.8;" x="308.065495" xlink:href="#mfb430ec418" y="246.614173"/>
      </g>
     </g>
     <g id="text_7">
      <!-- 15.0 -->
      <g transform="translate(298.045964 260.452767)scale(0.09 -0.09)">
       <use xlink:href="#DejaVuSans-49"/>
       <use x="63.623047" xlink:href="#DejaVuSans-53"/>
       <use x="127.246094" xlink:href="#DejaVuSans-46"/>
       <use x="159.033203" xlink:href="#DejaVuSans-48"/>
      </g>
     </g>
    </g>
    <g id="xtick_8">
     <g id="line2d_15">
      <path clip-path="url(#p8076e00d54)" d="M 351.9688 246.614173 
L 351.9688 34.015748 
" style="fill:none;stroke:#000000;stroke-dasharray:0.7,1.155;stroke-dashoffset:0;stroke-width:0.7;"/>
     </g>
     <g id="line2d_16">
      <g>
       <use style="stroke:#000000;stroke-width:0.8;" x="351.9688" xlink:href="#mfb430ec418" y="246.614173"/>
      </g>
     </g>
     <g id="text_8">
      <!-- 17.5 -->
      <g transform="translate(341.949268 260.452767)scale(0.09 -0.09)">
       <use xlink:href="#DejaVuSans-49"/>
       <use x="63.623047" xlink:href="#DejaVuSans-55"/>
       <use x="127.246094" xlink:href="#DejaVuSans-46"/>
       <use x="159.033203" xlink:href="#DejaVuSans-53"/>
      </g>
     </g>
    </g>
    <g id="text_9">
     <!-- Tempo (s) -->
     <defs>
      <path d="M -0.296875 72.90625 
L 61.375 72.90625 
L 61.375 64.59375 
L 35.5 64.59375 
L 35.5 0 
L 25.59375 0 
L 25.59375 64.59375 
L -0.296875 64.59375 
z
" id="DejaVuSans-84"/>
      <path d="M 56.203125 29.59375 
L 56.203125 25.203125 
L 14.890625 25.203125 
Q 15.484375 15.921875 20.484375 11.0625 
Q 25.484375 6.203125 34.421875 6.203125 
Q 39.59375 6.203125 44.453125 7.46875 
Q 49.3125 8.734375 54.109375 11.28125 
L 54.109375 2.78125 
Q 49.265625 0.734375 44.1875 -0.34375 
Q 39.109375 -1.421875 33.890625 -1.421875 
Q 20.796875 -1.421875 13.15625 6.1875 
Q 5.515625 13.8125 5.515625 26.8125 
Q 5.515625 40.234375 12.765625 48.109375 
Q 20.015625 56 32.328125 56 
Q 43.359375 56 49.78125 48.890625 
Q 56.203125 41.796875 56.203125 29.59375 
z
M 47.21875 32.234375 
Q 47.125 39.59375 43.09375 43.984375 
Q 39.0625 48.390625 32.421875 48.390625 
Q 24.90625 48.390625 20.390625 44.140625 
Q 15.875 39.890625 15.1875 32.171875 
z
" id="DejaVuSans-101"/>
      <path d="M 52 44.1875 
Q 55.375 50.25 60.0625 53.125 
Q 64.75 56 71.09375 56 
Q 79.640625 56 84.28125 50.015625 
Q 88.921875 44.046875 88.921875 33.015625 
L 88.921875 0 
L 79.890625 0 
L 79.890625 32.71875 
Q 79.890625 40.578125 77.09375 44.375 
Q 74.3125 48.1875 68.609375 48.1875 
Q 61.625 48.1875 57.5625 43.546875 
Q 53.515625 38.921875 53.515625 30.90625 
L 53.515625 0 
L 44.484375 0 
L 44.484375 32.71875 
Q 44.484375 40.625 41.703125 44.40625 
Q 38.921875 48.1875 33.109375 48.1875 
Q 26.21875 48.1875 22.15625 43.53125 
Q 18.109375 38.875 18.109375 30.90625 
L 18.109375 0 
L 9.078125 0 
L 9.078125 54.6875 
L 18.109375 54.6875 
L 18.109375 46.1875 
Q 21.1875 51.21875 25.484375 53.609375 
Q 29.78125 56 35.6875 56 
Q 41.65625 56 45.828125 52.96875 
Q 50 49.953125 52 44.1875 
z
" id="DejaVuSans-109"/>
      <path d="M 18.109375 8.203125 
L 18.109375 -20.796875 
L 9.078125 -20.796875 
L 9.078125 54.6875 
L 18.109375 54.6875 
L 18.109375 46.390625 
Q 20.953125 51.265625 25.265625 53.625 
Q 29.59375 56 35.59375 56 
Q 45.5625 56 51.78125 48.09375 
Q 58.015625 40.1875 58.015625 27.296875 
Q 58.015625 14.40625 51.78125 6.484375 
Q 45.5625 -1.421875 35.59375 -1.421875 
Q 29.59375 -1.421875 25.265625 0.953125 
Q 20.953125 3.328125 18.109375 8.203125 
z
M 48.6875 27.296875 
Q 48.6875 37.203125 44.609375 42.84375 
Q 40.53125 48.484375 33.40625 48.484375 
Q 26.265625 48.484375 22.1875 42.84375 
Q 18.109375 37.203125 18.109375 27.296875 
Q 18.109375 17.390625 22.1875 11.75 
Q 26.265625 6.109375 33.40625 6.109375 
Q 40.53125 6.109375 44.609375 11.75 
Q 48.6875 17.390625 48.6875 27.296875 
z
" id="DejaVuSans-112"/>
      <path d="M 30.609375 48.390625 
Q 23.390625 48.390625 19.1875 42.75 
Q 14.984375 37.109375 14.984375 27.296875 
Q 14.984375 17.484375 19.15625 11.84375 
Q 23.34375 6.203125 30.609375 6.203125 
Q 37.796875 6.203125 41.984375 11.859375 
Q 46.1875 17.53125 46.1875 27.296875 
Q 46.1875 37.015625 41.984375 42.703125 
Q 37.796875 48.390625 30.609375 48.390625 
z
M 30.609375 56 
Q 42.328125 56 49.015625 48.375 
Q 55.71875 40.765625 55.71875 27.296875 
Q 55.71875 13.875 49.015625 6.21875 
Q 42.328125 -1.421875 30.609375 -1.421875 
Q 18.84375 -1.421875 12.171875 6.21875 
Q 5.515625 13.875 5.515625 27.296875 
Q 5.515625 40.765625 12.171875 48.375 
Q 18.84375 56 30.609375 56 
z
" id="DejaVuSans-111"/>
      <path id="DejaVuSans-32"/>
      <path d="M 31 75.875 
Q 24.46875 64.65625 21.28125 53.65625 
Q 18.109375 42.671875 18.109375 31.390625 
Q 18.109375 20.125 21.3125 9.0625 
Q 24.515625 -2 31 -13.1875 
L 23.1875 -13.1875 
Q 15.875 -1.703125 12.234375 9.375 
Q 8.59375 20.453125 8.59375 31.390625 
Q 8.59375 42.28125 12.203125 53.3125 
Q 15.828125 64.359375 23.1875 75.875 
z
" id="DejaVuSans-40"/>
      <path d="M 44.28125 53.078125 
L 44.28125 44.578125 
Q 40.484375 46.53125 36.375 47.5 
Q 32.28125 48.484375 27.875 48.484375 
Q 21.1875 48.484375 17.84375 46.4375 
Q 14.5 44.390625 14.5 40.28125 
Q 14.5 37.15625 16.890625 35.375 
Q 19.28125 33.59375 26.515625 31.984375 
L 29.59375 31.296875 
Q 39.15625 29.25 43.1875 25.515625 
Q 47.21875 21.78125 47.21875 15.09375 
Q 47.21875 7.46875 41.1875 3.015625 
Q 35.15625 -1.421875 24.609375 -1.421875 
Q 20.21875 -1.421875 15.453125 -0.5625 
Q 10.6875 0.296875 5.421875 2 
L 5.421875 11.28125 
Q 10.40625 8.6875 15.234375 7.390625 
Q 20.0625 6.109375 24.8125 6.109375 
Q 31.15625 6.109375 34.5625 8.28125 
Q 37.984375 10.453125 37.984375 14.40625 
Q 37.984375 18.0625 35.515625 20.015625 
Q 33.0625 21.96875 24.703125 23.78125 
L 21.578125 24.515625 
Q 13.234375 26.265625 9.515625 29.90625 
Q 5.8125 33.546875 5.8125 39.890625 
Q 5.8125 47.609375 11.28125 51.796875 
Q 16.75 56 26.8125 56 
Q 31.78125 56 36.171875 55.265625 
Q 40.578125 54.546875 44.28125 53.078125 
z
" id="DejaVuSans-115"/>
      <path d="M 8.015625 75.875 
L 15.828125 75.875 
Q 23.140625 64.359375 26.78125 53.3125 
Q 30.421875 42.28125 30.421875 31.390625 
Q 30.421875 20.453125 26.78125 9.375 
Q 23.140625 -1.703125 15.828125 -13.1875 
L 8.015625 -13.1875 
Q 14.5 -2 17.703125 9.0625 
Q 20.90625 20.125 20.90625 31.390625 
Q 20.90625 42.671875 17.703125 53.65625 
Q 14.5 64.65625 8.015625 75.875 
z
" id="DejaVuSans-41"/>
     </defs>
     <g transform="translate(195.559683 273.922923)scale(0.1 -0.1)">
      <use xlink:href="#DejaVuSans-84"/>
      <use x="44.083984" xlink:href="#DejaVuSans-101"/>
      <use x="105.607422" xlink:href="#DejaVuSans-109"/>
      <use x="203.019531" xlink:href="#DejaVuSans-112"/>
      <use x="266.496094" xlink:href="#DejaVuSans-111"/>
      <use x="327.677734" xlink:href="#DejaVuSans-32"/>
      <use x="359.464844" xlink:href="#DejaVuSans-40"/>
      <use x="398.478516" xlink:href="#DejaVuSans-115"/>
      <use x="450.578125" xlink:href="#DejaVuSans-41"/>
     </g>
    </g>
   </g>
   <g id="matplotlib.axis_2">
    <g id="ytick_1">
     <g id="line2d_17">
      <path clip-path="url(#p8076e00d54)" d="M 44.645669 234.106825 
L 395.433071 234.106825 
" style="fill:none;stroke:#000000;stroke-dasharray:0.7,1.155;stroke-dashoffset:0;stroke-width:0.7;"/>
     </g>
     <g id="line2d_18">
      <defs>
       <path d="M 0 0 
L -3.5 0 
" id="m08cdb8adb8" style="stroke:#000000;stroke-width:0.8;"/>
      </defs>
      <g>
       <use style="stroke:#000000;stroke-width:0.8;" x="44.645669" xlink:href="#m08cdb8adb8" y="234.106825"/>
      </g>
     </g>
     <g id="text_10">
      <!-- 0.0 -->
      <g transform="translate(23.332857 237.526122)scale(0.09 -0.09)">
       <use xlink:href="#DejaVuSans-48"/>
       <use x="63.623047" xlink:href="#DejaVuSans-46"/>
       <use x="95.410156" xlink:href="#DejaVuSans-48"/>
      </g>
     </g>
    </g>
    <g id="ytick_2">
     <g id="line2d_19">
      <path clip-path="url(#p8076e00d54)" d="M 44.645669 196.590193 
L 395.433071 196.590193 
" style="fill:none;stroke:#000000;stroke-dasharray:0.7,1.155;stroke-dashoffset:0;stroke-width:0.7;"/>
     </g>
     <g id="line2d_20">
      <g>
       <use style="stroke:#000000;stroke-width:0.8;" x="44.645669" xlink:href="#m08cdb8adb8" y="196.590193"/>
      </g>
     </g>
     <g id="text_11">
      <!-- 0.2 -->
      <g transform="translate(23.332857 200.00949)scale(0.09 -0.09)">
       <use xlink:href="#DejaVuSans-48"/>
       <use x="63.623047" xlink:href="#DejaVuSans-46"/>
       <use x="95.410156" xlink:href="#DejaVuSans-50"/>
      </g>
     </g>
    </g>
    <g id="ytick_3">
     <g id="line2d_21">
      <path clip-path="url(#p8076e00d54)" d="M 44.645669 159.07356 
L 395.433071 159.07356 
" style="fill:none;stroke:#000000;stroke-dasharray:0.7,1.155;stroke-dashoffset:0;stroke-width:0.7;"/>
     </g>
     <g id="line2d_22">
      <g>
       <use style="stroke:#000000;stroke-width:0.8;" x="44.645669" xlink:href="#m08cdb8adb8" y="159.07356"/>
      </g>
     </g>
     <g id="text_12">
      <!-- 0.4 -->
      <defs>
       <path d="M 37.796875 64.3125 
L 12.890625 25.390625 
L 37.796875 25.390625 
z
M 35.203125 72.90625 
L 47.609375 72.90625 
L 47.609375 25.390625 
L 58.015625 25.390625 
L 58.015625 17.1875 
L 47.609375 17.1875 
L 47.609375 0 
L 37.796875 0 
L 37.796875 17.1875 
L 4.890625 17.1875 
L 4.890625 26.703125 
z
" id="DejaVuSans-52"/>
      </defs>
      <g transform="translate(23.332857 162.492857)scale(0.09 -0.09)">
       <use xlink:href="#DejaVuSans-48"/>
       <use x="63.623047" xlink:href="#DejaVuSans-46"/>
       <use x="95.410156" xlink:href="#DejaVuSans-52"/>
      </g>
     </g>
    </g>
    <g id="ytick_4">
     <g id="line2d_23">
      <path clip-path="url(#p8076e00d54)" d="M 44.645669 121.556928 
L 395.433071 121.556928 
" style="fill:none;stroke:#000000;stroke-dasharray:0.7,1.155;stroke-dashoffset:0;stroke-width:0.7;"/>
     </g>
     <g id="line2d_24">
      <g>
       <use style="stroke:#000000;stroke-width:0.8;" x="44.645669" xlink:href="#m08cdb8adb8" y="121.556928"/>
      </g>
     </g>
     <g id="text_13">
      <!-- 0.6 -->
      <defs>
       <path d="M 33.015625 40.375 
Q 26.375 40.375 22.484375 35.828125 
Q 18.609375 31.296875 18.609375 23.390625 
Q 18.609375 15.53125 22.484375 10.953125 
Q 26.375 6.390625 33.015625 6.390625 
Q 39.65625 6.390625 43.53125 10.953125 
Q 47.40625 15.53125 47.40625 23.390625 
Q 47.40625 31.296875 43.53125 35.828125 
Q 39.65625 40.375 33.015625 40.375 
z
M 52.59375 71.296875 
L 52.59375 62.3125 
Q 48.875 64.0625 45.09375 64.984375 
Q 41.3125 65.921875 37.59375 65.921875 
Q 27.828125 65.921875 22.671875 59.328125 
Q 17.53125 52.734375 16.796875 39.40625 
Q 19.671875 43.65625 24.015625 45.921875 
Q 28.375 48.1875 33.59375 48.1875 
Q 44.578125 48.1875 50.953125 41.515625 
Q 57.328125 34.859375 57.328125 23.390625 
Q 57.328125 12.15625 50.6875 5.359375 
Q 44.046875 -1.421875 33.015625 -1.421875 
Q 20.359375 -1.421875 13.671875 8.265625 
Q 6.984375 17.96875 6.984375 36.375 
Q 6.984375 53.65625 15.1875 63.9375 
Q 23.390625 74.21875 37.203125 74.21875 
Q 40.921875 74.21875 44.703125 73.484375 
Q 48.484375 72.75 52.59375 71.296875 
z
" id="DejaVuSans-54"/>
      </defs>
      <g transform="translate(23.332857 124.976225)scale(0.09 -0.09)">
       <use xlink:href="#DejaVuSans-48"/>
       <use x="63.623047" xlink:href="#DejaVuSans-46"/>
       <use x="95.410156" xlink:href="#DejaVuSans-54"/>
      </g>
     </g>
    </g>
    <g id="ytick_5">
     <g id="line2d_25">
      <path clip-path="url(#p8076e00d54)" d="M 44.645669 84.040295 
L 395.433071 84.040295 
" style="fill:none;stroke:#000000;stroke-dasharray:0.7,1.155;stroke-dashoffset:0;stroke-width:0.7;"/>
     </g>
     <g id="line2d_26">
      <g>
       <use style="stroke:#000000;stroke-width:0.8;" x="44.645669" xlink:href="#m08cdb8adb8" y="84.040295"/>
      </g>
     </g>
     <g id="text_14">
      <!-- 0.8 -->
      <defs>
       <path d="M 31.78125 34.625 
Q 24.75 34.625 20.71875 30.859375 
Q 16.703125 27.09375 16.703125 20.515625 
Q 16.703125 13.921875 20.71875 10.15625 
Q 24.75 6.390625 31.78125 6.390625 
Q 38.8125 6.390625 42.859375 10.171875 
Q 46.921875 13.96875 46.921875 20.515625 
Q 46.921875 27.09375 42.890625 30.859375 
Q 38.875 34.625 31.78125 34.625 
z
M 21.921875 38.8125 
Q 15.578125 40.375 12.03125 44.71875 
Q 8.5 49.078125 8.5 55.328125 
Q 8.5 64.0625 14.71875 69.140625 
Q 20.953125 74.21875 31.78125 74.21875 
Q 42.671875 74.21875 48.875 69.140625 
Q 55.078125 64.0625 55.078125 55.328125 
Q 55.078125 49.078125 51.53125 44.71875 
Q 48 40.375 41.703125 38.8125 
Q 48.828125 37.15625 52.796875 32.3125 
Q 56.78125 27.484375 56.78125 20.515625 
Q 56.78125 9.90625 50.3125 4.234375 
Q 43.84375 -1.421875 31.78125 -1.421875 
Q 19.734375 -1.421875 13.25 4.234375 
Q 6.78125 9.90625 6.78125 20.515625 
Q 6.78125 27.484375 10.78125 32.3125 
Q 14.796875 37.15625 21.921875 38.8125 
z
M 18.3125 54.390625 
Q 18.3125 48.734375 21.84375 45.5625 
Q 25.390625 42.390625 31.78125 42.390625 
Q 38.140625 42.390625 41.71875 45.5625 
Q 45.3125 48.734375 45.3125 54.390625 
Q 45.3125 60.0625 41.71875 63.234375 
Q 38.140625 66.40625 31.78125 66.40625 
Q 25.390625 66.40625 21.84375 63.234375 
Q 18.3125 60.0625 18.3125 54.390625 
z
" id="DejaVuSans-56"/>
      </defs>
      <g transform="translate(23.332857 87.459592)scale(0.09 -0.09)">
       <use xlink:href="#DejaVuSans-48"/>
       <use x="63.623047" xlink:href="#DejaVuSans-46"/>
       <use x="95.410156" xlink:href="#DejaVuSans-56"/>
      </g>
     </g>
    </g>
    <g id="ytick_6">
     <g id="line2d_27">
      <path clip-path="url(#p8076e00d54)" d="M 44.645669 46.523663 
L 395.433071 46.523663 
" style="fill:none;stroke:#000000;stroke-dasharray:0.7,1.155;stroke-dashoffset:0;stroke-width:0.7;"/>
     </g>
     <g id="line2d_28">
      <g>
       <use style="stroke:#000000;stroke-width:0.8;" x="44.645669" xlink:href="#m08cdb8adb8" y="46.523663"/>
      </g>
     </g>
     <g id="text_15">
      <!-- 1.0 -->
      <g transform="translate(23.332857 49.94296)scale(0.09 -0.09)">
       <use xlink:href="#DejaVuSans-49"/>
       <use x="63.623047" xlink:href="#DejaVuSans-46"/>
       <use x="95.410156" xlink:href="#DejaVuSans-48"/>
      </g>
     </g>
    </g>
    <g id="text_16">
     <!-- Valor -->
     <defs>
      <path d="M 28.609375 0 
L 0.78125 72.90625 
L 11.078125 72.90625 
L 34.1875 11.53125 
L 57.328125 72.90625 
L 67.578125 72.90625 
L 39.796875 0 
z
" id="DejaVuSans-86"/>
      <path d="M 34.28125 27.484375 
Q 23.390625 27.484375 19.1875 25 
Q 14.984375 22.515625 14.984375 16.5 
Q 14.984375 11.71875 18.140625 8.90625 
Q 21.296875 6.109375 26.703125 6.109375 
Q 34.1875 6.109375 38.703125 11.40625 
Q 43.21875 16.703125 43.21875 25.484375 
L 43.21875 27.484375 
z
M 52.203125 31.203125 
L 52.203125 0 
L 43.21875 0 
L 43.21875 8.296875 
Q 40.140625 3.328125 35.546875 0.953125 
Q 30.953125 -1.421875 24.3125 -1.421875 
Q 15.921875 -1.421875 10.953125 3.296875 
Q 6 8.015625 6 15.921875 
Q 6 25.140625 12.171875 29.828125 
Q 18.359375 34.515625 30.609375 34.515625 
L 43.21875 34.515625 
L 43.21875 35.40625 
Q 43.21875 41.609375 39.140625 45 
Q 35.0625 48.390625 27.6875 48.390625 
Q 23 48.390625 18.546875 47.265625 
Q 14.109375 46.140625 10.015625 43.890625 
L 10.015625 52.203125 
Q 14.9375 54.109375 19.578125 55.046875 
Q 24.21875 56 28.609375 56 
Q 40.484375 56 46.34375 49.84375 
Q 52.203125 43.703125 52.203125 31.203125 
z
" id="DejaVuSans-97"/>
      <path d="M 9.421875 75.984375 
L 18.40625 75.984375 
L 18.40625 0 
L 9.421875 0 
z
" id="DejaVuSans-108"/>
      <path d="M 41.109375 46.296875 
Q 39.59375 47.171875 37.8125 47.578125 
Q 36.03125 48 33.890625 48 
Q 26.265625 48 22.1875 43.046875 
Q 18.109375 38.09375 18.109375 28.8125 
L 18.109375 0 
L 9.078125 0 
L 9.078125 54.6875 
L 18.109375 54.6875 
L 18.109375 46.1875 
Q 20.953125 51.171875 25.484375 53.578125 
Q 30.03125 56 36.53125 56 
Q 37.453125 56 38.578125 55.875 
Q 39.703125 55.765625 41.0625 55.515625 
z
" id="DejaVuSans-114"/>
     </defs>
     <g transform="translate(17.253169 152.915742)rotate(-90)scale(0.1 -0.1)">
      <use xlink:href="#DejaVuSans-86"/>
      <use x="60.658203" xlink:href="#DejaVuSans-97"/>
      <use x="121.9375" xlink:href="#DejaVuSans-108"/>
      <use x="149.720703" xlink:href="#DejaVuSans-111"/>
      <use x="210.902344" xlink:href="#DejaVuSans-114"/>
     </g>
    </g>
   </g>
   <g id="line2d_29">
    <path clip-path="url(#p8076e00d54)" d="M 44.645669 46.523663 
L 61.767958 46.523663 
L 62.206991 234.106825 
L 79.32928 234.106825 
L 79.768313 46.523663 
L 96.890601 46.523663 
L 97.329634 234.106825 
L 114.451923 234.106825 
L 114.890956 46.523663 
L 132.013245 46.523663 
L 132.452278 234.106825 
L 149.574567 234.106825 
L 150.0136 46.523663 
L 167.135888 46.523663 
L 167.574921 234.106825 
L 184.69721 234.106825 
L 185.136243 46.523663 
L 202.258532 46.523663 
L 202.697565 234.106825 
L 219.819854 234.106825 
L 220.258887 46.523663 
L 237.820208 46.523663 
L 238.259241 234.106825 
L 254.942497 234.106825 
L 255.38153 46.523663 
L 272.503819 46.523663 
L 272.942852 234.106825 
L 290.06514 234.106825 
L 290.504174 46.523663 
L 308.065495 46.523663 
L 308.504528 234.106825 
L 325.187784 234.106825 
L 325.626817 46.523663 
L 342.749106 46.523663 
L 343.188139 234.106825 
L 360.310427 234.106825 
L 360.74946 46.523663 
L 378.310782 46.523663 
L 378.749815 234.106825 
L 395.433071 234.106825 
L 395.433071 234.106825 
" style="fill:none;stroke:#008000;stroke-linecap:square;"/>
   </g>
   <g id="line2d_30">
    <path clip-path="url(#p8076e00d54)" d="M 44.645669 234.106825 
L 45.084702 228.980193 
L 45.523735 216.193638 
L 46.401801 179.544039 
L 47.718901 123.039727 
L 48.596967 93.653847 
L 49.475033 72.505347 
L 50.353099 58.62307 
L 51.231165 50.345805 
L 51.670198 47.771722 
L 52.109231 45.982305 
L 52.548264 44.810565 
L 52.987297 44.112913 
L 53.42633 43.768803 
L 53.865363 43.679313 
L 54.743429 43.963946 
L 58.255694 45.993333 
L 59.572793 46.34473 
L 61.328925 46.533094 
L 62.206991 46.56064 
L 62.646024 51.692238 
L 63.085057 64.479971 
L 63.963123 101.125062 
L 65.280222 157.616292 
L 66.158288 186.993809 
L 67.036354 208.135658 
L 67.914421 222.013173 
L 68.792487 230.287328 
L 69.23152 232.860357 
L 69.670553 234.648985 
L 70.109586 235.820155 
L 70.548619 236.517414 
L 70.987652 236.861269 
L 71.426685 236.950608 
L 72.304751 236.665888 
L 75.817015 234.636952 
L 77.134114 234.285672 
L 78.890247 234.097382 
L 79.768313 234.069851 
L 80.207346 228.938257 
L 80.646379 216.150526 
L 81.524445 179.505436 
L 82.841544 123.014204 
L 83.71961 93.636685 
L 84.597676 72.494834 
L 85.475742 58.617317 
L 86.353808 50.343161 
L 86.792841 47.770132 
L 87.231874 45.981503 
L 87.670908 44.810333 
L 88.109941 44.113074 
L 88.548974 43.76922 
L 88.988007 43.67988 
L 89.866073 43.964599 
L 93.378337 45.993536 
L 94.695436 46.344816 
L 96.451568 46.533106 
L 97.329634 46.560637 
L 97.768668 51.692231 
L 98.207701 64.479962 
L 99.085767 101.125052 
L 100.402866 157.616284 
L 101.280932 186.993803 
L 102.158998 208.135654 
L 103.037064 222.013171 
L 103.91513 230.287327 
L 104.354163 232.860356 
L 104.793196 234.648985 
L 105.232229 235.820155 
L 105.671262 236.517414 
L 106.110295 236.861268 
L 106.549328 236.950608 
L 107.427394 236.665889 
L 110.939659 234.636952 
L 112.256758 234.285672 
L 114.01289 234.097382 
L 114.890956 234.069851 
L 115.329989 228.938257 
L 115.769022 216.150526 
L 116.647088 179.505436 
L 117.964188 123.014204 
L 118.842254 93.636685 
L 119.72032 72.494834 
L 120.598386 58.617317 
L 121.476452 50.343161 
L 121.915485 47.770132 
L 122.354518 45.981503 
L 122.793551 44.810333 
L 123.232584 44.113074 
L 123.671617 43.76922 
L 124.11065 43.67988 
L 124.988716 43.964599 
L 128.500981 45.993536 
L 129.81808 46.344816 
L 131.574212 46.533106 
L 132.452278 46.560637 
L 132.891311 51.692231 
L 133.330344 64.479962 
L 134.20841 101.125052 
L 135.525509 157.616284 
L 136.403575 186.993803 
L 137.281641 208.135654 
L 138.159708 222.013171 
L 139.037774 230.287327 
L 139.476807 232.860356 
L 139.91584 234.648985 
L 140.354873 235.820155 
L 140.793906 236.517414 
L 141.232939 236.861268 
L 141.671972 236.950608 
L 142.550038 236.665889 
L 146.062302 234.636952 
L 147.379401 234.285672 
L 149.135534 234.097382 
L 150.0136 234.069851 
L 150.452633 228.938257 
L 150.891666 216.150526 
L 151.769732 179.505436 
L 153.086831 123.014204 
L 153.964897 93.636685 
L 154.842963 72.494834 
L 155.721029 58.617317 
L 156.599095 50.343161 
L 157.038128 47.770132 
L 157.477161 45.981503 
L 157.916194 44.810333 
L 158.355227 44.113074 
L 158.794261 43.76922 
L 159.233294 43.67988 
L 160.11136 43.964599 
L 163.623624 45.993536 
L 164.940723 46.344816 
L 166.696855 46.533106 
L 167.574921 46.560637 
L 168.013954 51.692231 
L 168.452987 64.479962 
L 169.331054 101.125052 
L 170.648153 157.616284 
L 171.526219 186.993803 
L 172.404285 208.135654 
L 173.282351 222.013171 
L 174.160417 230.287327 
L 174.59945 232.860356 
L 175.038483 234.648985 
L 175.477516 235.820155 
L 175.916549 236.517414 
L 176.355582 236.861268 
L 176.794615 236.950608 
L 177.672681 236.665889 
L 181.184946 234.636952 
L 182.502045 234.285672 
L 184.258177 234.097382 
L 185.136243 234.069851 
L 185.575276 228.938257 
L 186.014309 216.150526 
L 186.892375 179.505436 
L 188.209474 123.014204 
L 189.087541 93.636685 
L 189.965607 72.494834 
L 190.843673 58.617317 
L 191.721739 50.343161 
L 192.160772 47.770132 
L 192.599805 45.981503 
L 193.038838 44.810333 
L 193.477871 44.113074 
L 193.916904 43.76922 
L 194.355937 43.67988 
L 195.234003 43.964599 
L 198.746267 45.993536 
L 200.063367 46.344816 
L 201.819499 46.533106 
L 202.697565 46.560637 
L 203.136598 51.692231 
L 203.575631 64.479962 
L 204.453697 101.125052 
L 205.770796 157.616284 
L 206.648862 186.993803 
L 207.526928 208.135654 
L 208.404994 222.013171 
L 209.283061 230.287327 
L 209.722094 232.860356 
L 210.161127 234.648985 
L 210.60016 235.820155 
L 211.039193 236.517414 
L 211.478226 236.861268 
L 211.917259 236.950608 
L 212.795325 236.665889 
L 216.307589 234.636952 
L 217.624688 234.285672 
L 219.380821 234.097382 
L 220.258887 234.069851 
L 220.69792 228.938257 
L 221.136953 216.150526 
L 222.015019 179.505436 
L 223.332118 123.014204 
L 224.210184 93.636685 
L 225.08825 72.494834 
L 225.966316 58.617317 
L 226.844382 50.343161 
L 227.283415 47.770132 
L 227.722448 45.981503 
L 228.161481 44.810333 
L 228.600514 44.113074 
L 229.039547 43.76922 
L 229.478581 43.67988 
L 230.356647 43.964599 
L 233.868911 45.993536 
L 235.18601 46.344816 
L 236.942142 46.533106 
L 238.259241 46.565599 
L 238.698274 51.693408 
L 239.137307 64.478542 
L 240.015374 101.121003 
L 241.332473 157.611928 
L 242.210539 186.99024 
L 243.088605 208.133047 
L 243.966671 222.011433 
L 244.844737 230.286273 
L 245.28377 232.859568 
L 245.722803 234.648415 
L 246.161836 235.819762 
L 246.600869 236.517158 
L 247.039902 236.861119 
L 247.478935 236.950537 
L 248.357001 236.665912 
L 251.869266 234.636998 
L 253.186365 234.285698 
L 254.942497 234.097391 
L 255.38153 234.080085 
L 255.820563 228.943222 
L 256.259596 216.151705 
L 257.137662 179.502348 
L 258.454761 123.009656 
L 259.332827 93.632679 
L 260.210894 72.491747 
L 261.08896 58.615164 
L 261.967026 50.34179 
L 262.406059 47.769078 
L 262.845092 45.980715 
L 263.284125 44.809763 
L 263.723158 44.112681 
L 264.162191 43.768964 
L 264.601224 43.67973 
L 265.47929 43.964584 
L 268.991554 45.99359 
L 270.308654 46.344848 
L 272.064786 46.533118 
L 272.942852 46.560643 
L 273.381885 51.692235 
L 273.820918 64.479965 
L 274.698984 101.125052 
L 276.016083 157.616283 
L 276.894149 186.993802 
L 277.772215 208.135653 
L 278.650281 222.01317 
L 279.528347 230.287326 
L 279.96738 232.860355 
L 280.406414 234.648984 
L 280.845447 235.820155 
L 281.28448 236.517414 
L 281.723513 236.861268 
L 282.162546 236.950608 
L 283.040612 236.665889 
L 286.552876 234.636952 
L 287.869975 234.285672 
L 289.626107 234.097382 
L 290.504174 234.069851 
L 290.943207 228.938257 
L 291.38224 216.150526 
L 292.260306 179.505436 
L 293.577405 123.014204 
L 294.455471 93.636685 
L 295.333537 72.494834 
L 296.211603 58.617317 
L 297.089669 50.343161 
L 297.528702 47.770132 
L 297.967735 45.981503 
L 298.406768 44.810333 
L 298.845801 44.113074 
L 299.284834 43.76922 
L 299.723867 43.67988 
L 300.601934 43.964599 
L 304.114198 45.993536 
L 305.431297 46.344816 
L 307.187429 46.533106 
L 308.504528 46.565599 
L 308.943561 51.693408 
L 309.382594 64.478542 
L 310.26066 101.121003 
L 311.57776 157.611928 
L 312.455826 186.99024 
L 313.333892 208.133047 
L 314.211958 222.011433 
L 315.090024 230.286273 
L 315.529057 232.859568 
L 315.96809 234.648415 
L 316.407123 235.819762 
L 316.846156 236.517158 
L 317.285189 236.861119 
L 317.724222 236.950537 
L 318.602288 236.665912 
L 322.114553 234.636998 
L 323.431652 234.285698 
L 325.187784 234.097391 
L 325.626817 234.080085 
L 326.06585 228.943222 
L 326.504883 216.151705 
L 327.382949 179.502348 
L 328.700048 123.009656 
L 329.578114 93.632679 
L 330.45618 72.491747 
L 331.334247 58.615164 
L 332.212313 50.34179 
L 332.651346 47.769078 
L 333.090379 45.980715 
L 333.529412 44.809763 
L 333.968445 44.112681 
L 334.407478 43.768964 
L 334.846511 43.67973 
L 335.724577 43.964584 
L 339.236841 45.99359 
L 340.55394 46.344848 
L 342.310073 46.533118 
L 343.188139 46.560643 
L 343.627172 51.692235 
L 344.066205 64.479965 
L 344.944271 101.125052 
L 346.26137 157.616283 
L 347.139436 186.993802 
L 348.017502 208.135653 
L 348.895568 222.01317 
L 349.773634 230.287326 
L 350.212667 232.860355 
L 350.6517 234.648984 
L 351.090733 235.820155 
L 351.529767 236.517414 
L 351.9688 236.861268 
L 352.407833 236.950608 
L 353.285899 236.665889 
L 356.798163 234.636952 
L 358.115262 234.285672 
L 359.871394 234.097382 
L 360.74946 234.069851 
L 361.188493 228.938257 
L 361.627527 216.150526 
L 362.505593 179.505436 
L 363.822692 123.014204 
L 364.700758 93.636685 
L 365.578824 72.494834 
L 366.45689 58.617317 
L 367.334956 50.343161 
L 367.773989 47.770132 
L 368.213022 45.981503 
L 368.652055 44.810333 
L 369.091088 44.113074 
L 369.530121 43.76922 
L 369.969154 43.67988 
L 370.84722 43.964599 
L 374.359485 45.993536 
L 375.676584 46.344816 
L 377.432716 46.533106 
L 378.749815 46.565599 
L 379.188848 51.693408 
L 379.627881 64.478542 
L 380.505947 101.121003 
L 381.823047 157.611928 
L 382.701113 186.99024 
L 383.579179 208.133047 
L 384.457245 222.011433 
L 385.335311 230.286273 
L 385.774344 232.859568 
L 386.213377 234.648415 
L 386.65241 235.819762 
L 387.091443 236.517158 
L 387.530476 236.861119 
L 387.969509 236.950537 
L 388.847575 236.665912 
L 392.35984 234.636998 
L 393.676939 234.285698 
L 395.433071 234.097391 
L 395.433071 234.097391 
" style="fill:none;stroke:#0000ff;stroke-linecap:square;"/>
   </g>
   <g id="line2d_31">
    <path clip-path="url(#p8076e00d54)" d="M 44.645669 234.106825 
L 45.084702 228.980193 
L 45.523735 216.193638 
L 46.401801 179.544039 
L 47.718901 123.039727 
L 48.596967 93.653847 
L 49.475033 72.505347 
L 50.353099 58.62307 
L 51.231165 50.345805 
L 51.670198 47.771722 
L 52.109231 45.982305 
L 52.548264 44.810565 
L 52.987297 44.112913 
L 53.42633 43.768803 
L 53.865363 43.679313 
L 54.743429 43.963946 
L 58.255694 45.993333 
L 59.572793 46.34473 
L 61.328925 46.533094 
L 62.206991 46.56064 
L 62.646024 51.692238 
L 63.085057 64.479971 
L 63.963123 101.125062 
L 65.280222 157.616292 
L 66.158288 186.993809 
L 67.036354 208.135658 
L 67.914421 222.013173 
L 68.792487 230.287328 
L 69.23152 232.860357 
L 69.670553 234.648985 
L 70.109586 235.820155 
L 70.548619 236.517414 
L 70.987652 236.861269 
L 71.426685 236.950608 
L 72.304751 236.665888 
L 75.817015 234.636952 
L 77.134114 234.285672 
L 78.890247 234.097382 
L 79.768313 234.069851 
L 80.207346 228.938257 
L 80.646379 216.150526 
L 81.524445 179.505436 
L 82.841544 123.014204 
L 83.71961 93.636685 
L 84.597676 72.494834 
L 85.475742 58.617317 
L 86.353808 50.343161 
L 86.792841 47.770132 
L 87.231874 45.981503 
L 87.670908 44.810333 
L 88.109941 44.113074 
L 88.548974 43.76922 
L 88.988007 43.67988 
L 89.866073 43.964599 
L 93.378337 45.993536 
L 94.695436 46.344816 
L 96.451568 46.533106 
L 97.329634 46.560637 
L 97.768668 51.692231 
L 98.207701 64.479962 
L 99.085767 101.125052 
L 100.402866 157.616284 
L 101.280932 186.993803 
L 102.158998 208.135654 
L 103.037064 222.013171 
L 103.91513 230.287327 
L 104.354163 232.860356 
L 104.793196 234.648985 
L 105.232229 235.820155 
L 105.671262 236.517414 
L 106.110295 236.861268 
L 106.549328 236.950608 
L 107.427394 236.665889 
L 110.939659 234.636952 
L 112.256758 234.285672 
L 114.01289 234.097382 
L 114.890956 234.069851 
L 115.329989 228.938257 
L 115.769022 216.150526 
L 116.647088 179.505436 
L 117.964188 123.014204 
L 118.842254 93.636685 
L 119.72032 72.494834 
L 120.598386 58.617317 
L 121.476452 50.343161 
L 121.915485 47.770132 
L 122.354518 45.981503 
L 122.793551 44.810333 
L 123.232584 44.113074 
L 123.671617 43.76922 
L 124.11065 43.67988 
L 124.988716 43.964599 
L 128.500981 45.993536 
L 129.81808 46.344816 
L 131.574212 46.533106 
L 132.452278 46.560637 
L 132.891311 51.692231 
L 133.330344 64.479962 
L 134.20841 101.125052 
L 135.525509 157.616284 
L 136.403575 186.993803 
L 137.281641 208.135654 
L 138.159708 222.013171 
L 139.037774 230.287327 
L 139.476807 232.860356 
L 139.91584 234.648985 
L 140.354873 235.820155 
L 140.793906 236.517414 
L 141.232939 236.861268 
L 141.671972 236.950608 
L 142.550038 236.665889 
L 146.062302 234.636952 
L 147.379401 234.285672 
L 149.135534 234.097382 
L 150.0136 234.069851 
L 150.452633 228.938257 
L 150.891666 216.150526 
L 151.769732 179.505436 
L 153.086831 123.014204 
L 153.964897 93.636685 
L 154.842963 72.494834 
L 155.721029 58.617317 
L 156.599095 50.343161 
L 157.038128 47.770132 
L 157.477161 45.981503 
L 157.916194 44.810333 
L 158.355227 44.113074 
L 158.794261 43.76922 
L 159.233294 43.67988 
L 160.11136 43.964599 
L 163.623624 45.993536 
L 164.940723 46.344816 
L 166.696855 46.533106 
L 167.574921 46.560637 
L 168.013954 51.692231 
L 168.452987 64.479962 
L 169.331054 101.125052 
L 170.648153 157.616284 
L 171.526219 186.993803 
L 172.404285 208.135654 
L 173.282351 222.013171 
L 174.160417 230.287327 
L 174.59945 232.860356 
L 175.038483 234.648985 
L 175.477516 235.820155 
L 175.916549 236.517414 
L 176.355582 236.861268 
L 176.794615 236.950608 
L 177.672681 236.665889 
L 181.184946 234.636952 
L 182.502045 234.285672 
L 184.258177 234.097382 
L 185.136243 234.069851 
L 185.575276 228.938257 
L 186.014309 216.150526 
L 186.892375 179.505436 
L 188.209474 123.014204 
L 189.087541 93.636685 
L 189.965607 72.494834 
L 190.843673 58.617317 
L 191.721739 50.343161 
L 192.160772 47.770132 
L 192.599805 45.981503 
L 193.038838 44.810333 
L 193.477871 44.113074 
L 193.916904 43.76922 
L 194.355937 43.67988 
L 195.234003 43.964599 
L 198.746267 45.993536 
L 200.063367 46.344816 
L 201.819499 46.533106 
L 202.697565 46.560637 
L 203.136598 51.692231 
L 203.575631 64.479962 
L 204.453697 101.125052 
L 205.770796 157.616284 
L 206.648862 186.993803 
L 207.526928 208.135654 
L 208.404994 222.013171 
L 209.283061 230.287327 
L 209.722094 232.860356 
L 210.161127 234.648985 
L 210.60016 235.820155 
L 211.039193 236.517414 
L 211.478226 236.861268 
L 211.917259 236.950608 
L 212.795325 236.665889 
L 216.307589 234.636952 
L 217.624688 234.285672 
L 219.380821 234.097382 
L 220.258887 234.069851 
L 220.69792 228.938257 
L 221.136953 216.150526 
L 222.015019 179.505436 
L 223.332118 123.014204 
L 224.210184 93.636685 
L 225.08825 72.494834 
L 225.966316 58.617317 
L 226.844382 50.343161 
L 227.283415 47.770132 
L 227.722448 45.981503 
L 228.161481 44.810333 
L 228.600514 44.113074 
L 229.039547 43.76922 
L 229.478581 43.67988 
L 230.356647 43.964599 
L 233.868911 45.993536 
L 235.18601 46.344816 
L 236.942142 46.533106 
L 238.259241 46.565599 
L 238.698274 51.693408 
L 239.137307 64.478542 
L 240.015374 101.121003 
L 241.332473 157.611928 
L 242.210539 186.99024 
L 243.088605 208.133047 
L 243.966671 222.011433 
L 244.844737 230.286273 
L 245.28377 232.859568 
L 245.722803 234.648415 
L 246.161836 235.819762 
L 246.600869 236.517158 
L 247.039902 236.861119 
L 247.478935 236.950537 
L 248.357001 236.665912 
L 251.869266 234.636998 
L 253.186365 234.285698 
L 254.942497 234.097391 
L 255.38153 234.080085 
L 255.820563 228.943222 
L 256.259596 216.151705 
L 257.137662 179.502348 
L 258.454761 123.009656 
L 259.332827 93.632679 
L 260.210894 72.491747 
L 261.08896 58.615164 
L 261.967026 50.34179 
L 262.406059 47.769078 
L 262.845092 45.980715 
L 263.284125 44.809763 
L 263.723158 44.112681 
L 264.162191 43.768964 
L 264.601224 43.67973 
L 265.47929 43.964584 
L 268.991554 45.99359 
L 270.308654 46.344848 
L 272.064786 46.533118 
L 272.942852 46.560643 
L 273.381885 51.692235 
L 273.820918 64.479965 
L 274.698984 101.125052 
L 276.016083 157.616283 
L 276.894149 186.993802 
L 277.772215 208.135653 
L 278.650281 222.01317 
L 279.528347 230.287326 
L 279.96738 232.860355 
L 280.406414 234.648984 
L 280.845447 235.820155 
L 281.28448 236.517414 
L 281.723513 236.861268 
L 282.162546 236.950608 
L 283.040612 236.665889 
L 286.552876 234.636952 
L 287.869975 234.285672 
L 289.626107 234.097382 
L 290.504174 234.069851 
L 290.943207 228.938257 
L 291.38224 216.150526 
L 292.260306 179.505436 
L 293.577405 123.014204 
L 294.455471 93.636685 
L 295.333537 72.494834 
L 296.211603 58.617317 
L 297.089669 50.343161 
L 297.528702 47.770132 
L 297.967735 45.981503 
L 298.406768 44.810333 
L 298.845801 44.113074 
L 299.284834 43.76922 
L 299.723867 43.67988 
L 300.601934 43.964599 
L 304.114198 45.993536 
L 305.431297 46.344816 
L 307.187429 46.533106 
L 308.504528 46.565599 
L 308.943561 51.693408 
L 309.382594 64.478542 
L 310.26066 101.121003 
L 311.57776 157.611928 
L 312.455826 186.99024 
L 313.333892 208.133047 
L 314.211958 222.011433 
L 315.090024 230.286273 
L 315.529057 232.859568 
L 315.96809 234.648415 
L 316.407123 235.819762 
L 316.846156 236.517158 
L 317.285189 236.861119 
L 317.724222 236.950537 
L 318.602288 236.665912 
L 322.114553 234.636998 
L 323.431652 234.285698 
L 325.187784 234.097391 
L 325.626817 234.080085 
L 326.06585 228.943222 
L 326.504883 216.151705 
L 327.382949 179.502348 
L 328.700048 123.009656 
L 329.578114 93.632679 
L 330.45618 72.491747 
L 331.334247 58.615164 
L 332.212313 50.34179 
L 332.651346 47.769078 
L 333.090379 45.980715 
L 333.529412 44.809763 
L 333.968445 44.112681 
L 334.407478 43.768964 
L 334.846511 43.67973 
L 335.724577 43.964584 
L 339.236841 45.99359 
L 340.55394 46.344848 
L 342.310073 46.533118 
L 343.188139 46.560643 
L 343.627172 51.692235 
L 344.066205 64.479965 
L 344.944271 101.125052 
L 346.26137 157.616283 
L 347.139436 186.993802 
L 348.017502 208.135653 
L 348.895568 222.01317 
L 349.773634 230.287326 
L 350.212667 232.860355 
L 350.6517 234.648984 
L 351.090733 235.820155 
L 351.529767 236.517414 
L 351.9688 236.861268 
L 352.407833 236.950608 
L 353.285899 236.665889 
L 356.798163 234.636952 
L 358.115262 234.285672 
L 359.871394 234.097382 
L 360.74946 234.069851 
L 361.188493 228.938257 
L 361.627527 216.150526 
L 362.505593 179.505436 
L 363.822692 123.014204 
L 364.700758 93.636685 
L 365.578824 72.494834 
L 366.45689 58.617317 
L 367.334956 50.343161 
L 367.773989 47.770132 
L 368.213022 45.981503 
L 368.652055 44.810333 
L 369.091088 44.113074 
L 369.530121 43.76922 
L 369.969154 43.67988 
L 370.84722 43.964599 
L 374.359485 45.993536 
L 375.676584 46.344816 
L 377.432716 46.533106 
L 378.749815 46.565599 
L 379.188848 51.693408 
L 379.627881 64.478542 
L 380.505947 101.121003 
L 381.823047 157.611928 
L 382.701113 186.99024 
L 383.579179 208.133047 
L 384.457245 222.011433 
L 385.335311 230.286273 
L 385.774344 232.859568 
L 386.213377 234.648415 
L 386.65241 235.819762 
L 387.091443 236.517158 
L 387.530476 236.861119 
L 387.969509 236.950537 
L 388.847575 236.665912 
L 392.35984 234.636998 
L 393.676939 234.285698 
L 395.433071 234.097391 
L 395.433071 234.097391 
" style="fill:none;stroke:#ff0000;stroke-linecap:square;"/>
   </g>
   <g id="patch_3">
    <path d="M 44.645669 246.614173 
L 44.645669 34.015748 
" style="fill:none;stroke:#000000;stroke-linecap:square;stroke-linejoin:miter;stroke-width:0.8;"/>
   </g>
   <g id="patch_4">
    <path d="M 395.433071 246.614173 
L 395.433071 34.015748 
" style="fill:none;stroke:#000000;stroke-linecap:square;stroke-linejoin:miter;stroke-width:0.8;"/>
   </g>
   <g id="patch_5">
    <path d="M 44.645669 246.614173 
L 395.433071 246.614173 
" style="fill:none;stroke:#000000;stroke-linecap:square;stroke-linejoin:miter;stroke-width:0.8;"/>
   </g>
   <g id="patch_6">
    <path d="M 44.645669 34.015748 
L 395.433071 34.015748 
" style="fill:none;stroke:#000000;stroke-linecap:square;stroke-linejoin:miter;stroke-width:0.8;"/>
   </g>
   <g id="text_17">
    <!-- Validação do métodos de Mínimos Quadrados -->
    <defs>
     <path d="M 9.421875 54.6875 
L 18.40625 54.6875 
L 18.40625 0 
L 9.421875 0 
z
M 9.421875 75.984375 
L 18.40625 75.984375 
L 18.40625 64.59375 
L 9.421875 64.59375 
z
" id="DejaVuSans-105"/>
     <path d="M 45.40625 46.390625 
L 45.40625 75.984375 
L 54.390625 75.984375 
L 54.390625 0 
L 45.40625 0 
L 45.40625 8.203125 
Q 42.578125 3.328125 38.25 0.953125 
Q 33.9375 -1.421875 27.875 -1.421875 
Q 17.96875 -1.421875 11.734375 6.484375 
Q 5.515625 14.40625 5.515625 27.296875 
Q 5.515625 40.1875 11.734375 48.09375 
Q 17.96875 56 27.875 56 
Q 33.9375 56 38.25 53.625 
Q 42.578125 51.265625 45.40625 46.390625 
z
M 14.796875 27.296875 
Q 14.796875 17.390625 18.875 11.75 
Q 22.953125 6.109375 30.078125 6.109375 
Q 37.203125 6.109375 41.296875 11.75 
Q 45.40625 17.390625 45.40625 27.296875 
Q 45.40625 37.203125 41.296875 42.84375 
Q 37.203125 48.484375 30.078125 48.484375 
Q 22.953125 48.484375 18.875 42.84375 
Q 14.796875 37.203125 14.796875 27.296875 
z
" id="DejaVuSans-100"/>
     <path d="M 48.78125 52.59375 
L 48.78125 44.1875 
Q 44.96875 46.296875 41.140625 47.34375 
Q 37.3125 48.390625 33.40625 48.390625 
Q 24.65625 48.390625 19.8125 42.84375 
Q 14.984375 37.3125 14.984375 27.296875 
Q 14.984375 17.28125 19.8125 11.734375 
Q 24.65625 6.203125 33.40625 6.203125 
Q 37.3125 6.203125 41.140625 7.25 
Q 44.96875 8.296875 48.78125 10.40625 
L 48.78125 2.09375 
Q 45.015625 0.34375 40.984375 -0.53125 
Q 36.96875 -1.421875 32.421875 -1.421875 
Q 20.0625 -1.421875 12.78125 6.34375 
Q 5.515625 14.109375 5.515625 27.296875 
Q 5.515625 40.671875 12.859375 48.328125 
Q 20.21875 56 33.015625 56 
Q 37.15625 56 41.109375 55.140625 
Q 45.0625 54.296875 48.78125 52.59375 
z
M 36.078125 0 
Q 38.765625 -3.03125 40.078125 -5.59375 
Q 41.40625 -8.15625 41.40625 -10.5 
Q 41.40625 -14.84375 38.46875 -17.0625 
Q 35.546875 -19.28125 29.78125 -19.28125 
Q 27.546875 -19.28125 25.421875 -18.984375 
Q 23.296875 -18.703125 21.1875 -18.109375 
L 21.1875 -11.71875 
Q 22.859375 -12.546875 24.65625 -12.90625 
Q 26.46875 -13.28125 28.765625 -13.28125 
Q 31.640625 -13.28125 33.109375 -12.109375 
Q 34.578125 -10.9375 34.578125 -8.6875 
Q 34.578125 -7.234375 33.515625 -5.109375 
Q 32.46875 -2.984375 30.28125 0 
z
" id="DejaVuSans-231"/>
     <path d="M 34.28125 27.484375 
Q 23.390625 27.484375 19.1875 25 
Q 14.984375 22.515625 14.984375 16.5 
Q 14.984375 11.71875 18.140625 8.90625 
Q 21.296875 6.109375 26.703125 6.109375 
Q 34.1875 6.109375 38.703125 11.40625 
Q 43.21875 16.703125 43.21875 25.484375 
L 43.21875 27.484375 
z
M 52.203125 31.203125 
L 52.203125 0 
L 43.21875 0 
L 43.21875 8.296875 
Q 40.140625 3.328125 35.546875 0.953125 
Q 30.953125 -1.421875 24.3125 -1.421875 
Q 15.921875 -1.421875 10.953125 3.296875 
Q 6 8.015625 6 15.921875 
Q 6 25.140625 12.171875 29.828125 
Q 18.359375 34.515625 30.609375 34.515625 
L 43.21875 34.515625 
L 43.21875 35.40625 
Q 43.21875 41.609375 39.140625 45 
Q 35.0625 48.390625 27.6875 48.390625 
Q 23 48.390625 18.546875 47.265625 
Q 14.109375 46.140625 10.015625 43.890625 
L 10.015625 52.203125 
Q 14.9375 54.109375 19.578125 55.046875 
Q 24.21875 56 28.609375 56 
Q 40.484375 56 46.34375 49.84375 
Q 52.203125 43.703125 52.203125 31.203125 
z
M 28.8125 66.890625 
L 26.03125 69.578125 
Q 24.953125 70.5625 24.140625 71.015625 
Q 23.34375 71.484375 22.703125 71.484375 
Q 20.84375 71.484375 19.96875 69.703125 
Q 19.09375 67.921875 19 63.921875 
L 12.890625 63.921875 
Q 12.984375 70.515625 15.46875 74.09375 
Q 17.96875 77.6875 22.40625 77.6875 
Q 24.265625 77.6875 25.828125 77 
Q 27.390625 76.3125 29.203125 74.703125 
L 31.984375 72.015625 
Q 33.0625 71.046875 33.859375 70.578125 
Q 34.671875 70.125 35.296875 70.125 
Q 37.15625 70.125 38.03125 71.90625 
Q 38.921875 73.6875 39.015625 77.6875 
L 45.125 77.6875 
Q 45.015625 71.09375 42.53125 67.5 
Q 40.046875 63.921875 35.59375 63.921875 
Q 33.734375 63.921875 32.171875 64.59375 
Q 30.609375 65.28125 28.8125 66.890625 
z
" id="DejaVuSans-227"/>
     <path d="M 56.203125 29.59375 
L 56.203125 25.203125 
L 14.890625 25.203125 
Q 15.484375 15.921875 20.484375 11.0625 
Q 25.484375 6.203125 34.421875 6.203125 
Q 39.59375 6.203125 44.453125 7.46875 
Q 49.3125 8.734375 54.109375 11.28125 
L 54.109375 2.78125 
Q 49.265625 0.734375 44.1875 -0.34375 
Q 39.109375 -1.421875 33.890625 -1.421875 
Q 20.796875 -1.421875 13.15625 6.1875 
Q 5.515625 13.8125 5.515625 26.8125 
Q 5.515625 40.234375 12.765625 48.109375 
Q 20.015625 56 32.328125 56 
Q 43.359375 56 49.78125 48.890625 
Q 56.203125 41.796875 56.203125 29.59375 
z
M 47.21875 32.234375 
Q 47.125 39.59375 43.09375 43.984375 
Q 39.0625 48.390625 32.421875 48.390625 
Q 24.90625 48.390625 20.390625 44.140625 
Q 15.875 39.890625 15.1875 32.171875 
z
M 38.578125 79.984375 
L 48.296875 79.984375 
L 32.375 61.625 
L 24.90625 61.625 
z
" id="DejaVuSans-233"/>
     <path d="M 18.3125 70.21875 
L 18.3125 54.6875 
L 36.8125 54.6875 
L 36.8125 47.703125 
L 18.3125 47.703125 
L 18.3125 18.015625 
Q 18.3125 11.328125 20.140625 9.421875 
Q 21.96875 7.515625 27.59375 7.515625 
L 36.8125 7.515625 
L 36.8125 0 
L 27.59375 0 
Q 17.1875 0 13.234375 3.875 
Q 9.28125 7.765625 9.28125 18.015625 
L 9.28125 47.703125 
L 2.6875 47.703125 
L 2.6875 54.6875 
L 9.28125 54.6875 
L 9.28125 70.21875 
z
" id="DejaVuSans-116"/>
     <path d="M 9.8125 72.90625 
L 24.515625 72.90625 
L 43.109375 23.296875 
L 61.8125 72.90625 
L 76.515625 72.90625 
L 76.515625 0 
L 66.890625 0 
L 66.890625 64.015625 
L 48.09375 14.015625 
L 38.1875 14.015625 
L 19.390625 64.015625 
L 19.390625 0 
L 9.8125 0 
z
" id="DejaVuSans-77"/>
     <path d="M 20.703125 79.984375 
L 30.421875 79.984375 
L 14.5 61.625 
L 7.03125 61.625 
z
M 9.421875 54.6875 
L 18.40625 54.6875 
L 18.40625 0 
L 9.421875 0 
z
M 13.921875 56 
z
" id="DejaVuSans-237"/>
     <path d="M 54.890625 33.015625 
L 54.890625 0 
L 45.90625 0 
L 45.90625 32.71875 
Q 45.90625 40.484375 42.875 44.328125 
Q 39.84375 48.1875 33.796875 48.1875 
Q 26.515625 48.1875 22.3125 43.546875 
Q 18.109375 38.921875 18.109375 30.90625 
L 18.109375 0 
L 9.078125 0 
L 9.078125 54.6875 
L 18.109375 54.6875 
L 18.109375 46.1875 
Q 21.34375 51.125 25.703125 53.5625 
Q 30.078125 56 35.796875 56 
Q 45.21875 56 50.046875 50.171875 
Q 54.890625 44.34375 54.890625 33.015625 
z
" id="DejaVuSans-110"/>
     <path d="M 39.40625 66.21875 
Q 28.65625 66.21875 22.328125 58.203125 
Q 16.015625 50.203125 16.015625 36.375 
Q 16.015625 22.609375 22.328125 14.59375 
Q 28.65625 6.59375 39.40625 6.59375 
Q 50.140625 6.59375 56.421875 14.59375 
Q 62.703125 22.609375 62.703125 36.375 
Q 62.703125 50.203125 56.421875 58.203125 
Q 50.140625 66.21875 39.40625 66.21875 
z
M 53.21875 1.3125 
L 66.21875 -12.890625 
L 54.296875 -12.890625 
L 43.5 -1.21875 
Q 41.890625 -1.3125 41.03125 -1.359375 
Q 40.1875 -1.421875 39.40625 -1.421875 
Q 24.03125 -1.421875 14.8125 8.859375 
Q 5.609375 19.140625 5.609375 36.375 
Q 5.609375 53.65625 14.8125 63.9375 
Q 24.03125 74.21875 39.40625 74.21875 
Q 54.734375 74.21875 63.90625 63.9375 
Q 73.09375 53.65625 73.09375 36.375 
Q 73.09375 23.6875 67.984375 14.640625 
Q 62.890625 5.609375 53.21875 1.3125 
z
" id="DejaVuSans-81"/>
     <path d="M 8.5 21.578125 
L 8.5 54.6875 
L 17.484375 54.6875 
L 17.484375 21.921875 
Q 17.484375 14.15625 20.5 10.265625 
Q 23.53125 6.390625 29.59375 6.390625 
Q 36.859375 6.390625 41.078125 11.03125 
Q 45.3125 15.671875 45.3125 23.6875 
L 45.3125 54.6875 
L 54.296875 54.6875 
L 54.296875 0 
L 45.3125 0 
L 45.3125 8.40625 
Q 42.046875 3.421875 37.71875 1 
Q 33.40625 -1.421875 27.6875 -1.421875 
Q 18.265625 -1.421875 13.375 4.4375 
Q 8.5 10.296875 8.5 21.578125 
z
M 31.109375 56 
z
" id="DejaVuSans-117"/>
    </defs>
    <g transform="translate(82.859683 28.015748)scale(0.12 -0.12)">
     <use xlink:href="#DejaVuSans-86"/>
     <use x="60.658203" xlink:href="#DejaVuSans-97"/>
     <use x="121.9375" xlink:href="#DejaVuSans-108"/>
     <use x="149.720703" xlink:href="#DejaVuSans-105"/>
     <use x="177.503906" xlink:href="#DejaVuSans-100"/>
     <use x="240.980469" xlink:href="#DejaVuSans-97"/>
     <use x="302.259766" xlink:href="#DejaVuSans-231"/>
     <use x="357.240234" xlink:href="#DejaVuSans-227"/>
     <use x="418.519531" xlink:href="#DejaVuSans-111"/>
     <use x="479.701172" xlink:href="#DejaVuSans-32"/>
     <use x="511.488281" xlink:href="#DejaVuSans-100"/>
     <use x="574.964844" xlink:href="#DejaVuSans-111"/>
     <use x="636.146484" xlink:href="#DejaVuSans-32"/>
     <use x="667.933594" xlink:href="#DejaVuSans-109"/>
     <use x="765.345703" xlink:href="#DejaVuSans-233"/>
     <use x="826.869141" xlink:href="#DejaVuSans-116"/>
     <use x="866.078125" xlink:href="#DejaVuSans-111"/>
     <use x="927.259766" xlink:href="#DejaVuSans-100"/>
     <use x="990.736328" xlink:href="#DejaVuSans-111"/>
     <use x="1051.917969" xlink:href="#DejaVuSans-115"/>
     <use x="1104.017578" xlink:href="#DejaVuSans-32"/>
     <use x="1135.804688" xlink:href="#DejaVuSans-100"/>
     <use x="1199.28125" xlink:href="#DejaVuSans-101"/>
     <use x="1260.804688" xlink:href="#DejaVuSans-32"/>
     <use x="1292.591797" xlink:href="#DejaVuSans-77"/>
     <use x="1378.871094" xlink:href="#DejaVuSans-237"/>
     <use x="1406.654297" xlink:href="#DejaVuSans-110"/>
     <use x="1470.033203" xlink:href="#DejaVuSans-105"/>
     <use x="1497.816406" xlink:href="#DejaVuSans-109"/>
     <use x="1595.228516" xlink:href="#DejaVuSans-111"/>
     <use x="1656.410156" xlink:href="#DejaVuSans-115"/>
     <use x="1708.509766" xlink:href="#DejaVuSans-32"/>
     <use x="1740.296875" xlink:href="#DejaVuSans-81"/>
     <use x="1819.007812" xlink:href="#DejaVuSans-117"/>
     <use x="1882.386719" xlink:href="#DejaVuSans-97"/>
     <use x="1943.666016" xlink:href="#DejaVuSans-100"/>
     <use x="2007.142578" xlink:href="#DejaVuSans-114"/>
     <use x="2048.255859" xlink:href="#DejaVuSans-97"/>
     <use x="2109.535156" xlink:href="#DejaVuSans-100"/>
     <use x="2173.011719" xlink:href="#DejaVuSans-111"/>
     <use x="2234.193359" xlink:href="#DejaVuSans-115"/>
    </g>
   </g>
   <g id="legend_1">
    <g id="patch_7">
     <path d="M 237.831508 241.614173 
L 388.433071 241.614173 
Q 390.433071 241.614173 390.433071 239.614173 
L 390.433071 196.579798 
Q 390.433071 194.579798 388.433071 194.579798 
L 237.831508 194.579798 
Q 235.831508 194.579798 235.831508 196.579798 
L 235.831508 239.614173 
Q 235.831508 241.614173 237.831508 241.614173 
z
" style="fill:#ffffff;opacity:0.8;stroke:#cccccc;stroke-linejoin:miter;"/>
    </g>
    <g id="line2d_32">
     <path d="M 239.831508 202.678236 
L 259.831508 202.678236 
" style="fill:none;stroke:#008000;stroke-linecap:square;"/>
    </g>
    <g id="line2d_33"/>
    <g id="text_18">
     <!-- Entrada do sistema -->
     <defs>
      <path d="M 9.8125 72.90625 
L 55.90625 72.90625 
L 55.90625 64.59375 
L 19.671875 64.59375 
L 19.671875 43.015625 
L 54.390625 43.015625 
L 54.390625 34.71875 
L 19.671875 34.71875 
L 19.671875 8.296875 
L 56.78125 8.296875 
L 56.78125 0 
L 9.8125 0 
z
" id="DejaVuSans-69"/>
     </defs>
     <g transform="translate(267.831508 206.178236)scale(0.1 -0.1)">
      <use xlink:href="#DejaVuSans-69"/>
      <use x="63.183594" xlink:href="#DejaVuSans-110"/>
      <use x="126.5625" xlink:href="#DejaVuSans-116"/>
      <use x="165.771484" xlink:href="#DejaVuSans-114"/>
      <use x="206.884766" xlink:href="#DejaVuSans-97"/>
      <use x="268.164062" xlink:href="#DejaVuSans-100"/>
      <use x="331.640625" xlink:href="#DejaVuSans-97"/>
      <use x="392.919922" xlink:href="#DejaVuSans-32"/>
      <use x="424.707031" xlink:href="#DejaVuSans-100"/>
      <use x="488.183594" xlink:href="#DejaVuSans-111"/>
      <use x="549.365234" xlink:href="#DejaVuSans-32"/>
      <use x="581.152344" xlink:href="#DejaVuSans-115"/>
      <use x="633.251953" xlink:href="#DejaVuSans-105"/>
      <use x="661.035156" xlink:href="#DejaVuSans-115"/>
      <use x="713.134766" xlink:href="#DejaVuSans-116"/>
      <use x="752.34375" xlink:href="#DejaVuSans-101"/>
      <use x="813.867188" xlink:href="#DejaVuSans-109"/>
      <use x="911.279297" xlink:href="#DejaVuSans-97"/>
     </g>
    </g>
    <g id="line2d_34">
     <path d="M 239.831508 217.356361 
L 259.831508 217.356361 
" style="fill:none;stroke:#0000ff;stroke-linecap:square;"/>
    </g>
    <g id="line2d_35"/>
    <g id="text_19">
     <!-- Saída - Planta real -->
     <defs>
      <path d="M 53.515625 70.515625 
L 53.515625 60.890625 
Q 47.90625 63.578125 42.921875 64.890625 
Q 37.9375 66.21875 33.296875 66.21875 
Q 25.25 66.21875 20.875 63.09375 
Q 16.5 59.96875 16.5 54.203125 
Q 16.5 49.359375 19.40625 46.890625 
Q 22.3125 44.4375 30.421875 42.921875 
L 36.375 41.703125 
Q 47.40625 39.59375 52.65625 34.296875 
Q 57.90625 29 57.90625 20.125 
Q 57.90625 9.515625 50.796875 4.046875 
Q 43.703125 -1.421875 29.984375 -1.421875 
Q 24.8125 -1.421875 18.96875 -0.25 
Q 13.140625 0.921875 6.890625 3.21875 
L 6.890625 13.375 
Q 12.890625 10.015625 18.65625 8.296875 
Q 24.421875 6.59375 29.984375 6.59375 
Q 38.421875 6.59375 43.015625 9.90625 
Q 47.609375 13.234375 47.609375 19.390625 
Q 47.609375 24.75 44.3125 27.78125 
Q 41.015625 30.8125 33.5 32.328125 
L 27.484375 33.5 
Q 16.453125 35.6875 11.515625 40.375 
Q 6.59375 45.0625 6.59375 53.421875 
Q 6.59375 63.09375 13.40625 68.65625 
Q 20.21875 74.21875 32.171875 74.21875 
Q 37.3125 74.21875 42.625 73.28125 
Q 47.953125 72.359375 53.515625 70.515625 
z
" id="DejaVuSans-83"/>
      <path d="M 4.890625 31.390625 
L 31.203125 31.390625 
L 31.203125 23.390625 
L 4.890625 23.390625 
z
" id="DejaVuSans-45"/>
      <path d="M 19.671875 64.796875 
L 19.671875 37.40625 
L 32.078125 37.40625 
Q 38.96875 37.40625 42.71875 40.96875 
Q 46.484375 44.53125 46.484375 51.125 
Q 46.484375 57.671875 42.71875 61.234375 
Q 38.96875 64.796875 32.078125 64.796875 
z
M 9.8125 72.90625 
L 32.078125 72.90625 
Q 44.34375 72.90625 50.609375 67.359375 
Q 56.890625 61.8125 56.890625 51.125 
Q 56.890625 40.328125 50.609375 34.8125 
Q 44.34375 29.296875 32.078125 29.296875 
L 19.671875 29.296875 
L 19.671875 0 
L 9.8125 0 
z
" id="DejaVuSans-80"/>
     </defs>
     <g transform="translate(267.831508 220.856361)scale(0.1 -0.1)">
      <use xlink:href="#DejaVuSans-83"/>
      <use x="63.476562" xlink:href="#DejaVuSans-97"/>
      <use x="124.755859" xlink:href="#DejaVuSans-237"/>
      <use x="152.539062" xlink:href="#DejaVuSans-100"/>
      <use x="216.015625" xlink:href="#DejaVuSans-97"/>
      <use x="277.294922" xlink:href="#DejaVuSans-32"/>
      <use x="309.082031" xlink:href="#DejaVuSans-45"/>
      <use x="345.166016" xlink:href="#DejaVuSans-32"/>
      <use x="376.953125" xlink:href="#DejaVuSans-80"/>
      <use x="437.255859" xlink:href="#DejaVuSans-108"/>
      <use x="465.039062" xlink:href="#DejaVuSans-97"/>
      <use x="526.318359" xlink:href="#DejaVuSans-110"/>
      <use x="589.697266" xlink:href="#DejaVuSans-116"/>
      <use x="628.90625" xlink:href="#DejaVuSans-97"/>
      <use x="690.185547" xlink:href="#DejaVuSans-32"/>
      <use x="721.972656" xlink:href="#DejaVuSans-114"/>
      <use x="760.835938" xlink:href="#DejaVuSans-101"/>
      <use x="822.359375" xlink:href="#DejaVuSans-97"/>
      <use x="883.638672" xlink:href="#DejaVuSans-108"/>
     </g>
    </g>
    <g id="line2d_36">
     <path d="M 239.831508 232.034486 
L 259.831508 232.034486 
" style="fill:none;stroke:#ff0000;stroke-linecap:square;"/>
    </g>
    <g id="line2d_37"/>
    <g id="text_20">
     <!-- Saída - Planta estimada -->
     <g transform="translate(267.831508 235.534486)scale(0.1 -0.1)">
      <use xlink:href="#DejaVuSans-83"/>
      <use x="63.476562" xlink:href="#DejaVuSans-97"/>
      <use x="124.755859" xlink:href="#DejaVuSans-237"/>
      <use x="152.539062" xlink:href="#DejaVuSans-100"/>
      <use x="216.015625" xlink:href="#DejaVuSans-97"/>
      <use x="277.294922" xlink:href="#DejaVuSans-32"/>
      <use x="309.082031" xlink:href="#DejaVuSans-45"/>
      <use x="345.166016" xlink:href="#DejaVuSans-32"/>
      <use x="376.953125" xlink:href="#DejaVuSans-80"/>
      <use x="437.255859" xlink:href="#DejaVuSans-108"/>
      <use x="465.039062" xlink:href="#DejaVuSans-97"/>
      <use x="526.318359" xlink:href="#DejaVuSans-110"/>
      <use x="589.697266" xlink:href="#DejaVuSans-116"/>
      <use x="628.90625" xlink:href="#DejaVuSans-97"/>
      <use x="690.185547" xlink:href="#DejaVuSans-32"/>
      <use x="721.972656" xlink:href="#DejaVuSans-101"/>
      <use x="783.496094" xlink:href="#DejaVuSans-115"/>
      <use x="835.595703" xlink:href="#DejaVuSans-116"/>
      <use x="874.804688" xlink:href="#DejaVuSans-105"/>
      <use x="902.587891" xlink:href="#DejaVuSans-109"/>
      <use x="1000" xlink:href="#DejaVuSans-97"/>
      <use x="1061.279297" xlink:href="#DejaVuSans-100"/>
      <use x="1124.755859" xlink:href="#DejaVuSans-97"/>
     </g>
    </g>
   </g>
  </g>
 </g>
 <defs>
  <clipPath id="p8076e00d54">
   <rect height="212.598425" width="350.787402" x="44.645669" y="34.015748"/>
  </clipPath>
 </defs>
</svg>
