<?xml version="1.0" encoding="utf-8" standalone="no"?>
<!DOCTYPE svg PUBLIC "-//W3C//DTD SVG 1.1//EN"
  "http://www.w3.org/Graphics/SVG/1.1/DTD/svg11.dtd">
<!-- Created with matplotlib (https://matplotlib.org/) -->
<svg height="297.637795pt" version="1.1" viewBox="0 0 439.370079 297.637795" width="439.370079pt" xmlns="http://www.w3.org/2000/svg" xmlns:xlink="http://www.w3.org/1999/xlink">
 <defs>
  <style type="text/css">
*{stroke-linecap:butt;stroke-linejoin:round;}
  </style>
 </defs>
 <g id="figure_1">
  <g id="patch_1">
   <path d="M 0 297.637795 
L 439.370079 297.637795 
L 439.370079 0 
L 0 0 
z
" style="fill:#ffffff;"/>
  </g>
  <g id="axes_1">
   <g id="patch_2">
    <path d="M 56.597402 261.630551 
L 415.388976 261.630551 
L 415.388976 43.8 
L 56.597402 43.8 
z
" style="fill:#ffffff;"/>
   </g>
   <g id="matplotlib.axis_1">
    <g id="xtick_1">
     <g id="line2d_1">
      <path clip-path="url(#pc8b4b81fda)" d="M 56.597402 261.630551 
L 56.597402 43.8 
" style="fill:none;stroke:#000000;stroke-dasharray:0.7,1.155;stroke-dashoffset:0;stroke-width:0.7;"/>
     </g>
     <g id="line2d_2">
      <defs>
       <path d="M 0 0 
L 0 3.5 
" id="mbc977d77c9" style="stroke:#000000;stroke-width:0.8;"/>
      </defs>
      <g>
       <use style="stroke:#000000;stroke-width:0.8;" x="56.597402" xlink:href="#mbc977d77c9" y="261.630551"/>
      </g>
     </g>
     <g id="text_1">
      <!-- 0 -->
      <defs>
       <path d="M 31.78125 66.40625 
Q 24.171875 66.40625 20.328125 58.90625 
Q 16.5 51.421875 16.5 36.375 
Q 16.5 21.390625 20.328125 13.890625 
Q 24.171875 6.390625 31.78125 6.390625 
Q 39.453125 6.390625 43.28125 13.890625 
Q 47.125 21.390625 47.125 36.375 
Q 47.125 51.421875 43.28125 58.90625 
Q 39.453125 66.40625 31.78125 66.40625 
z
M 31.78125 74.21875 
Q 44.046875 74.21875 50.515625 64.515625 
Q 56.984375 54.828125 56.984375 36.375 
Q 56.984375 17.96875 50.515625 8.265625 
Q 44.046875 -1.421875 31.78125 -1.421875 
Q 19.53125 -1.421875 13.0625 8.265625 
Q 6.59375 17.96875 6.59375 36.375 
Q 6.59375 54.828125 13.0625 64.515625 
Q 19.53125 74.21875 31.78125 74.21875 
z
" id="DejaVuSans-48"/>
      </defs>
      <g transform="translate(53.416152 276.228989)scale(0.1 -0.1)">
       <use xlink:href="#DejaVuSans-48"/>
      </g>
     </g>
    </g>
    <g id="xtick_2">
     <g id="line2d_3">
      <path clip-path="url(#pc8b4b81fda)" d="M 101.558752 261.630551 
L 101.558752 43.8 
" style="fill:none;stroke:#000000;stroke-dasharray:0.7,1.155;stroke-dashoffset:0;stroke-width:0.7;"/>
     </g>
     <g id="line2d_4">
      <g>
       <use style="stroke:#000000;stroke-width:0.8;" x="101.558752" xlink:href="#mbc977d77c9" y="261.630551"/>
      </g>
     </g>
     <g id="text_2">
      <!-- 5 -->
      <defs>
       <path d="M 10.796875 72.90625 
L 49.515625 72.90625 
L 49.515625 64.59375 
L 19.828125 64.59375 
L 19.828125 46.734375 
Q 21.96875 47.46875 24.109375 47.828125 
Q 26.265625 48.1875 28.421875 48.1875 
Q 40.625 48.1875 47.75 41.5 
Q 54.890625 34.8125 54.890625 23.390625 
Q 54.890625 11.625 47.5625 5.09375 
Q 40.234375 -1.421875 26.90625 -1.421875 
Q 22.3125 -1.421875 17.546875 -0.640625 
Q 12.796875 0.140625 7.71875 1.703125 
L 7.71875 11.625 
Q 12.109375 9.234375 16.796875 8.0625 
Q 21.484375 6.890625 26.703125 6.890625 
Q 35.15625 6.890625 40.078125 11.328125 
Q 45.015625 15.765625 45.015625 23.390625 
Q 45.015625 31 40.078125 35.4375 
Q 35.15625 39.890625 26.703125 39.890625 
Q 22.75 39.890625 18.8125 39.015625 
Q 14.890625 38.140625 10.796875 36.28125 
z
" id="DejaVuSans-53"/>
      </defs>
      <g transform="translate(98.377502 276.228989)scale(0.1 -0.1)">
       <use xlink:href="#DejaVuSans-53"/>
      </g>
     </g>
    </g>
    <g id="xtick_3">
     <g id="line2d_5">
      <path clip-path="url(#pc8b4b81fda)" d="M 146.520102 261.630551 
L 146.520102 43.8 
" style="fill:none;stroke:#000000;stroke-dasharray:0.7,1.155;stroke-dashoffset:0;stroke-width:0.7;"/>
     </g>
     <g id="line2d_6">
      <g>
       <use style="stroke:#000000;stroke-width:0.8;" x="146.520102" xlink:href="#mbc977d77c9" y="261.630551"/>
      </g>
     </g>
     <g id="text_3">
      <!-- 10 -->
      <defs>
       <path d="M 12.40625 8.296875 
L 28.515625 8.296875 
L 28.515625 63.921875 
L 10.984375 60.40625 
L 10.984375 69.390625 
L 28.421875 72.90625 
L 38.28125 72.90625 
L 38.28125 8.296875 
L 54.390625 8.296875 
L 54.390625 0 
L 12.40625 0 
z
" id="DejaVuSans-49"/>
      </defs>
      <g transform="translate(140.157602 276.228989)scale(0.1 -0.1)">
       <use xlink:href="#DejaVuSans-49"/>
       <use x="63.623047" xlink:href="#DejaVuSans-48"/>
      </g>
     </g>
    </g>
    <g id="xtick_4">
     <g id="line2d_7">
      <path clip-path="url(#pc8b4b81fda)" d="M 191.481452 261.630551 
L 191.481452 43.8 
" style="fill:none;stroke:#000000;stroke-dasharray:0.7,1.155;stroke-dashoffset:0;stroke-width:0.7;"/>
     </g>
     <g id="line2d_8">
      <g>
       <use style="stroke:#000000;stroke-width:0.8;" x="191.481452" xlink:href="#mbc977d77c9" y="261.630551"/>
      </g>
     </g>
     <g id="text_4">
      <!-- 15 -->
      <g transform="translate(185.118952 276.228989)scale(0.1 -0.1)">
       <use xlink:href="#DejaVuSans-49"/>
       <use x="63.623047" xlink:href="#DejaVuSans-53"/>
      </g>
     </g>
    </g>
    <g id="xtick_5">
     <g id="line2d_9">
      <path clip-path="url(#pc8b4b81fda)" d="M 236.442802 261.630551 
L 236.442802 43.8 
" style="fill:none;stroke:#000000;stroke-dasharray:0.7,1.155;stroke-dashoffset:0;stroke-width:0.7;"/>
     </g>
     <g id="line2d_10">
      <g>
       <use style="stroke:#000000;stroke-width:0.8;" x="236.442802" xlink:href="#mbc977d77c9" y="261.630551"/>
      </g>
     </g>
     <g id="text_5">
      <!-- 20 -->
      <defs>
       <path d="M 19.1875 8.296875 
L 53.609375 8.296875 
L 53.609375 0 
L 7.328125 0 
L 7.328125 8.296875 
Q 12.9375 14.109375 22.625 23.890625 
Q 32.328125 33.6875 34.8125 36.53125 
Q 39.546875 41.84375 41.421875 45.53125 
Q 43.3125 49.21875 43.3125 52.78125 
Q 43.3125 58.59375 39.234375 62.25 
Q 35.15625 65.921875 28.609375 65.921875 
Q 23.96875 65.921875 18.8125 64.3125 
Q 13.671875 62.703125 7.8125 59.421875 
L 7.8125 69.390625 
Q 13.765625 71.78125 18.9375 73 
Q 24.125 74.21875 28.421875 74.21875 
Q 39.75 74.21875 46.484375 68.546875 
Q 53.21875 62.890625 53.21875 53.421875 
Q 53.21875 48.921875 51.53125 44.890625 
Q 49.859375 40.875 45.40625 35.40625 
Q 44.1875 33.984375 37.640625 27.21875 
Q 31.109375 20.453125 19.1875 8.296875 
z
" id="DejaVuSans-50"/>
      </defs>
      <g transform="translate(230.080302 276.228989)scale(0.1 -0.1)">
       <use xlink:href="#DejaVuSans-50"/>
       <use x="63.623047" xlink:href="#DejaVuSans-48"/>
      </g>
     </g>
    </g>
    <g id="xtick_6">
     <g id="line2d_11">
      <path clip-path="url(#pc8b4b81fda)" d="M 281.404153 261.630551 
L 281.404153 43.8 
" style="fill:none;stroke:#000000;stroke-dasharray:0.7,1.155;stroke-dashoffset:0;stroke-width:0.7;"/>
     </g>
     <g id="line2d_12">
      <g>
       <use style="stroke:#000000;stroke-width:0.8;" x="281.404153" xlink:href="#mbc977d77c9" y="261.630551"/>
      </g>
     </g>
     <g id="text_6">
      <!-- 25 -->
      <g transform="translate(275.041653 276.228989)scale(0.1 -0.1)">
       <use xlink:href="#DejaVuSans-50"/>
       <use x="63.623047" xlink:href="#DejaVuSans-53"/>
      </g>
     </g>
    </g>
    <g id="xtick_7">
     <g id="line2d_13">
      <path clip-path="url(#pc8b4b81fda)" d="M 326.365503 261.630551 
L 326.365503 43.8 
" style="fill:none;stroke:#000000;stroke-dasharray:0.7,1.155;stroke-dashoffset:0;stroke-width:0.7;"/>
     </g>
     <g id="line2d_14">
      <g>
       <use style="stroke:#000000;stroke-width:0.8;" x="326.365503" xlink:href="#mbc977d77c9" y="261.630551"/>
      </g>
     </g>
     <g id="text_7">
      <!-- 30 -->
      <defs>
       <path d="M 40.578125 39.3125 
Q 47.65625 37.796875 51.625 33 
Q 55.609375 28.21875 55.609375 21.1875 
Q 55.609375 10.40625 48.1875 4.484375 
Q 40.765625 -1.421875 27.09375 -1.421875 
Q 22.515625 -1.421875 17.65625 -0.515625 
Q 12.796875 0.390625 7.625 2.203125 
L 7.625 11.71875 
Q 11.71875 9.328125 16.59375 8.109375 
Q 21.484375 6.890625 26.8125 6.890625 
Q 36.078125 6.890625 40.9375 10.546875 
Q 45.796875 14.203125 45.796875 21.1875 
Q 45.796875 27.640625 41.28125 31.265625 
Q 36.765625 34.90625 28.71875 34.90625 
L 20.21875 34.90625 
L 20.21875 43.015625 
L 29.109375 43.015625 
Q 36.375 43.015625 40.234375 45.921875 
Q 44.09375 48.828125 44.09375 54.296875 
Q 44.09375 59.90625 40.109375 62.90625 
Q 36.140625 65.921875 28.71875 65.921875 
Q 24.65625 65.921875 20.015625 65.03125 
Q 15.375 64.15625 9.8125 62.3125 
L 9.8125 71.09375 
Q 15.4375 72.65625 20.34375 73.4375 
Q 25.25 74.21875 29.59375 74.21875 
Q 40.828125 74.21875 47.359375 69.109375 
Q 53.90625 64.015625 53.90625 55.328125 
Q 53.90625 49.265625 50.4375 45.09375 
Q 46.96875 40.921875 40.578125 39.3125 
z
" id="DejaVuSans-51"/>
      </defs>
      <g transform="translate(320.003003 276.228989)scale(0.1 -0.1)">
       <use xlink:href="#DejaVuSans-51"/>
       <use x="63.623047" xlink:href="#DejaVuSans-48"/>
      </g>
     </g>
    </g>
    <g id="xtick_8">
     <g id="line2d_15">
      <path clip-path="url(#pc8b4b81fda)" d="M 371.326853 261.630551 
L 371.326853 43.8 
" style="fill:none;stroke:#000000;stroke-dasharray:0.7,1.155;stroke-dashoffset:0;stroke-width:0.7;"/>
     </g>
     <g id="line2d_16">
      <g>
       <use style="stroke:#000000;stroke-width:0.8;" x="371.326853" xlink:href="#mbc977d77c9" y="261.630551"/>
      </g>
     </g>
     <g id="text_8">
      <!-- 35 -->
      <g transform="translate(364.964353 276.228989)scale(0.1 -0.1)">
       <use xlink:href="#DejaVuSans-51"/>
       <use x="63.623047" xlink:href="#DejaVuSans-53"/>
      </g>
     </g>
    </g>
    <g id="text_9">
     <!-- Tempo (s) -->
     <defs>
      <path d="M -0.296875 72.90625 
L 61.375 72.90625 
L 61.375 64.59375 
L 35.5 64.59375 
L 35.5 0 
L 25.59375 0 
L 25.59375 64.59375 
L -0.296875 64.59375 
z
" id="DejaVuSans-84"/>
      <path d="M 56.203125 29.59375 
L 56.203125 25.203125 
L 14.890625 25.203125 
Q 15.484375 15.921875 20.484375 11.0625 
Q 25.484375 6.203125 34.421875 6.203125 
Q 39.59375 6.203125 44.453125 7.46875 
Q 49.3125 8.734375 54.109375 11.28125 
L 54.109375 2.78125 
Q 49.265625 0.734375 44.1875 -0.34375 
Q 39.109375 -1.421875 33.890625 -1.421875 
Q 20.796875 -1.421875 13.15625 6.1875 
Q 5.515625 13.8125 5.515625 26.8125 
Q 5.515625 40.234375 12.765625 48.109375 
Q 20.015625 56 32.328125 56 
Q 43.359375 56 49.78125 48.890625 
Q 56.203125 41.796875 56.203125 29.59375 
z
M 47.21875 32.234375 
Q 47.125 39.59375 43.09375 43.984375 
Q 39.0625 48.390625 32.421875 48.390625 
Q 24.90625 48.390625 20.390625 44.140625 
Q 15.875 39.890625 15.1875 32.171875 
z
" id="DejaVuSans-101"/>
      <path d="M 52 44.1875 
Q 55.375 50.25 60.0625 53.125 
Q 64.75 56 71.09375 56 
Q 79.640625 56 84.28125 50.015625 
Q 88.921875 44.046875 88.921875 33.015625 
L 88.921875 0 
L 79.890625 0 
L 79.890625 32.71875 
Q 79.890625 40.578125 77.09375 44.375 
Q 74.3125 48.1875 68.609375 48.1875 
Q 61.625 48.1875 57.5625 43.546875 
Q 53.515625 38.921875 53.515625 30.90625 
L 53.515625 0 
L 44.484375 0 
L 44.484375 32.71875 
Q 44.484375 40.625 41.703125 44.40625 
Q 38.921875 48.1875 33.109375 48.1875 
Q 26.21875 48.1875 22.15625 43.53125 
Q 18.109375 38.875 18.109375 30.90625 
L 18.109375 0 
L 9.078125 0 
L 9.078125 54.6875 
L 18.109375 54.6875 
L 18.109375 46.1875 
Q 21.1875 51.21875 25.484375 53.609375 
Q 29.78125 56 35.6875 56 
Q 41.65625 56 45.828125 52.96875 
Q 50 49.953125 52 44.1875 
z
" id="DejaVuSans-109"/>
      <path d="M 18.109375 8.203125 
L 18.109375 -20.796875 
L 9.078125 -20.796875 
L 9.078125 54.6875 
L 18.109375 54.6875 
L 18.109375 46.390625 
Q 20.953125 51.265625 25.265625 53.625 
Q 29.59375 56 35.59375 56 
Q 45.5625 56 51.78125 48.09375 
Q 58.015625 40.1875 58.015625 27.296875 
Q 58.015625 14.40625 51.78125 6.484375 
Q 45.5625 -1.421875 35.59375 -1.421875 
Q 29.59375 -1.421875 25.265625 0.953125 
Q 20.953125 3.328125 18.109375 8.203125 
z
M 48.6875 27.296875 
Q 48.6875 37.203125 44.609375 42.84375 
Q 40.53125 48.484375 33.40625 48.484375 
Q 26.265625 48.484375 22.1875 42.84375 
Q 18.109375 37.203125 18.109375 27.296875 
Q 18.109375 17.390625 22.1875 11.75 
Q 26.265625 6.109375 33.40625 6.109375 
Q 40.53125 6.109375 44.609375 11.75 
Q 48.6875 17.390625 48.6875 27.296875 
z
" id="DejaVuSans-112"/>
      <path d="M 30.609375 48.390625 
Q 23.390625 48.390625 19.1875 42.75 
Q 14.984375 37.109375 14.984375 27.296875 
Q 14.984375 17.484375 19.15625 11.84375 
Q 23.34375 6.203125 30.609375 6.203125 
Q 37.796875 6.203125 41.984375 11.859375 
Q 46.1875 17.53125 46.1875 27.296875 
Q 46.1875 37.015625 41.984375 42.703125 
Q 37.796875 48.390625 30.609375 48.390625 
z
M 30.609375 56 
Q 42.328125 56 49.015625 48.375 
Q 55.71875 40.765625 55.71875 27.296875 
Q 55.71875 13.875 49.015625 6.21875 
Q 42.328125 -1.421875 30.609375 -1.421875 
Q 18.84375 -1.421875 12.171875 6.21875 
Q 5.515625 13.875 5.515625 27.296875 
Q 5.515625 40.765625 12.171875 48.375 
Q 18.84375 56 30.609375 56 
z
" id="DejaVuSans-111"/>
      <path id="DejaVuSans-32"/>
      <path d="M 31 75.875 
Q 24.46875 64.65625 21.28125 53.65625 
Q 18.109375 42.671875 18.109375 31.390625 
Q 18.109375 20.125 21.3125 9.0625 
Q 24.515625 -2 31 -13.1875 
L 23.1875 -13.1875 
Q 15.875 -1.703125 12.234375 9.375 
Q 8.59375 20.453125 8.59375 31.390625 
Q 8.59375 42.28125 12.203125 53.3125 
Q 15.828125 64.359375 23.1875 75.875 
z
" id="DejaVuSans-40"/>
      <path d="M 44.28125 53.078125 
L 44.28125 44.578125 
Q 40.484375 46.53125 36.375 47.5 
Q 32.28125 48.484375 27.875 48.484375 
Q 21.1875 48.484375 17.84375 46.4375 
Q 14.5 44.390625 14.5 40.28125 
Q 14.5 37.15625 16.890625 35.375 
Q 19.28125 33.59375 26.515625 31.984375 
L 29.59375 31.296875 
Q 39.15625 29.25 43.1875 25.515625 
Q 47.21875 21.78125 47.21875 15.09375 
Q 47.21875 7.46875 41.1875 3.015625 
Q 35.15625 -1.421875 24.609375 -1.421875 
Q 20.21875 -1.421875 15.453125 -0.5625 
Q 10.6875 0.296875 5.421875 2 
L 5.421875 11.28125 
Q 10.40625 8.6875 15.234375 7.390625 
Q 20.0625 6.109375 24.8125 6.109375 
Q 31.15625 6.109375 34.5625 8.28125 
Q 37.984375 10.453125 37.984375 14.40625 
Q 37.984375 18.0625 35.515625 20.015625 
Q 33.0625 21.96875 24.703125 23.78125 
L 21.578125 24.515625 
Q 13.234375 26.265625 9.515625 29.90625 
Q 5.8125 33.546875 5.8125 39.890625 
Q 5.8125 47.609375 11.28125 51.796875 
Q 16.75 56 26.8125 56 
Q 31.78125 56 36.171875 55.265625 
Q 40.578125 54.546875 44.28125 53.078125 
z
" id="DejaVuSans-115"/>
      <path d="M 8.015625 75.875 
L 15.828125 75.875 
Q 23.140625 64.359375 26.78125 53.3125 
Q 30.421875 42.28125 30.421875 31.390625 
Q 30.421875 20.453125 26.78125 9.375 
Q 23.140625 -1.703125 15.828125 -13.1875 
L 8.015625 -13.1875 
Q 14.5 -2 17.703125 9.0625 
Q 20.90625 20.125 20.90625 31.390625 
Q 20.90625 42.671875 17.703125 53.65625 
Q 14.5 64.65625 8.015625 75.875 
z
" id="DejaVuSans-41"/>
     </defs>
     <g transform="translate(211.513501 289.907114)scale(0.1 -0.1)">
      <use xlink:href="#DejaVuSans-84"/>
      <use x="44.083984" xlink:href="#DejaVuSans-101"/>
      <use x="105.607422" xlink:href="#DejaVuSans-109"/>
      <use x="203.019531" xlink:href="#DejaVuSans-112"/>
      <use x="266.496094" xlink:href="#DejaVuSans-111"/>
      <use x="327.677734" xlink:href="#DejaVuSans-32"/>
      <use x="359.464844" xlink:href="#DejaVuSans-40"/>
      <use x="398.478516" xlink:href="#DejaVuSans-115"/>
      <use x="450.578125" xlink:href="#DejaVuSans-41"/>
     </g>
    </g>
   </g>
   <g id="matplotlib.axis_2">
    <g id="ytick_1">
     <g id="line2d_17">
      <path clip-path="url(#pc8b4b81fda)" d="M 56.597402 243.839486 
L 415.388976 243.839486 
" style="fill:none;stroke:#000000;stroke-dasharray:0.7,1.155;stroke-dashoffset:0;stroke-width:0.7;"/>
     </g>
     <g id="line2d_18">
      <defs>
       <path d="M 0 0 
L -3.5 0 
" id="mc92dd92c95" style="stroke:#000000;stroke-width:0.8;"/>
      </defs>
      <g>
       <use style="stroke:#000000;stroke-width:0.8;" x="56.597402" xlink:href="#mc92dd92c95" y="243.839486"/>
      </g>
     </g>
     <g id="text_10">
      <!-- 0.0 -->
      <defs>
       <path d="M 10.6875 12.40625 
L 21 12.40625 
L 21 0 
L 10.6875 0 
z
" id="DejaVuSans-46"/>
      </defs>
      <g transform="translate(33.694277 247.638705)scale(0.1 -0.1)">
       <use xlink:href="#DejaVuSans-48"/>
       <use x="63.623047" xlink:href="#DejaVuSans-46"/>
       <use x="95.410156" xlink:href="#DejaVuSans-48"/>
      </g>
     </g>
    </g>
    <g id="ytick_2">
     <g id="line2d_19">
      <path clip-path="url(#pc8b4b81fda)" d="M 56.597402 219.265429 
L 415.388976 219.265429 
" style="fill:none;stroke:#000000;stroke-dasharray:0.7,1.155;stroke-dashoffset:0;stroke-width:0.7;"/>
     </g>
     <g id="line2d_20">
      <g>
       <use style="stroke:#000000;stroke-width:0.8;" x="56.597402" xlink:href="#mc92dd92c95" y="219.265429"/>
      </g>
     </g>
     <g id="text_11">
      <!-- 0.2 -->
      <g transform="translate(33.694277 223.064648)scale(0.1 -0.1)">
       <use xlink:href="#DejaVuSans-48"/>
       <use x="63.623047" xlink:href="#DejaVuSans-46"/>
       <use x="95.410156" xlink:href="#DejaVuSans-50"/>
      </g>
     </g>
    </g>
    <g id="ytick_3">
     <g id="line2d_21">
      <path clip-path="url(#pc8b4b81fda)" d="M 56.597402 194.691372 
L 415.388976 194.691372 
" style="fill:none;stroke:#000000;stroke-dasharray:0.7,1.155;stroke-dashoffset:0;stroke-width:0.7;"/>
     </g>
     <g id="line2d_22">
      <g>
       <use style="stroke:#000000;stroke-width:0.8;" x="56.597402" xlink:href="#mc92dd92c95" y="194.691372"/>
      </g>
     </g>
     <g id="text_12">
      <!-- 0.4 -->
      <defs>
       <path d="M 37.796875 64.3125 
L 12.890625 25.390625 
L 37.796875 25.390625 
z
M 35.203125 72.90625 
L 47.609375 72.90625 
L 47.609375 25.390625 
L 58.015625 25.390625 
L 58.015625 17.1875 
L 47.609375 17.1875 
L 47.609375 0 
L 37.796875 0 
L 37.796875 17.1875 
L 4.890625 17.1875 
L 4.890625 26.703125 
z
" id="DejaVuSans-52"/>
      </defs>
      <g transform="translate(33.694277 198.490591)scale(0.1 -0.1)">
       <use xlink:href="#DejaVuSans-48"/>
       <use x="63.623047" xlink:href="#DejaVuSans-46"/>
       <use x="95.410156" xlink:href="#DejaVuSans-52"/>
      </g>
     </g>
    </g>
    <g id="ytick_4">
     <g id="line2d_23">
      <path clip-path="url(#pc8b4b81fda)" d="M 56.597402 170.117315 
L 415.388976 170.117315 
" style="fill:none;stroke:#000000;stroke-dasharray:0.7,1.155;stroke-dashoffset:0;stroke-width:0.7;"/>
     </g>
     <g id="line2d_24">
      <g>
       <use style="stroke:#000000;stroke-width:0.8;" x="56.597402" xlink:href="#mc92dd92c95" y="170.117315"/>
      </g>
     </g>
     <g id="text_13">
      <!-- 0.6 -->
      <defs>
       <path d="M 33.015625 40.375 
Q 26.375 40.375 22.484375 35.828125 
Q 18.609375 31.296875 18.609375 23.390625 
Q 18.609375 15.53125 22.484375 10.953125 
Q 26.375 6.390625 33.015625 6.390625 
Q 39.65625 6.390625 43.53125 10.953125 
Q 47.40625 15.53125 47.40625 23.390625 
Q 47.40625 31.296875 43.53125 35.828125 
Q 39.65625 40.375 33.015625 40.375 
z
M 52.59375 71.296875 
L 52.59375 62.3125 
Q 48.875 64.0625 45.09375 64.984375 
Q 41.3125 65.921875 37.59375 65.921875 
Q 27.828125 65.921875 22.671875 59.328125 
Q 17.53125 52.734375 16.796875 39.40625 
Q 19.671875 43.65625 24.015625 45.921875 
Q 28.375 48.1875 33.59375 48.1875 
Q 44.578125 48.1875 50.953125 41.515625 
Q 57.328125 34.859375 57.328125 23.390625 
Q 57.328125 12.15625 50.6875 5.359375 
Q 44.046875 -1.421875 33.015625 -1.421875 
Q 20.359375 -1.421875 13.671875 8.265625 
Q 6.984375 17.96875 6.984375 36.375 
Q 6.984375 53.65625 15.1875 63.9375 
Q 23.390625 74.21875 37.203125 74.21875 
Q 40.921875 74.21875 44.703125 73.484375 
Q 48.484375 72.75 52.59375 71.296875 
z
" id="DejaVuSans-54"/>
      </defs>
      <g transform="translate(33.694277 173.916534)scale(0.1 -0.1)">
       <use xlink:href="#DejaVuSans-48"/>
       <use x="63.623047" xlink:href="#DejaVuSans-46"/>
       <use x="95.410156" xlink:href="#DejaVuSans-54"/>
      </g>
     </g>
    </g>
    <g id="ytick_5">
     <g id="line2d_25">
      <path clip-path="url(#pc8b4b81fda)" d="M 56.597402 145.543258 
L 415.388976 145.543258 
" style="fill:none;stroke:#000000;stroke-dasharray:0.7,1.155;stroke-dashoffset:0;stroke-width:0.7;"/>
     </g>
     <g id="line2d_26">
      <g>
       <use style="stroke:#000000;stroke-width:0.8;" x="56.597402" xlink:href="#mc92dd92c95" y="145.543258"/>
      </g>
     </g>
     <g id="text_14">
      <!-- 0.8 -->
      <defs>
       <path d="M 31.78125 34.625 
Q 24.75 34.625 20.71875 30.859375 
Q 16.703125 27.09375 16.703125 20.515625 
Q 16.703125 13.921875 20.71875 10.15625 
Q 24.75 6.390625 31.78125 6.390625 
Q 38.8125 6.390625 42.859375 10.171875 
Q 46.921875 13.96875 46.921875 20.515625 
Q 46.921875 27.09375 42.890625 30.859375 
Q 38.875 34.625 31.78125 34.625 
z
M 21.921875 38.8125 
Q 15.578125 40.375 12.03125 44.71875 
Q 8.5 49.078125 8.5 55.328125 
Q 8.5 64.0625 14.71875 69.140625 
Q 20.953125 74.21875 31.78125 74.21875 
Q 42.671875 74.21875 48.875 69.140625 
Q 55.078125 64.0625 55.078125 55.328125 
Q 55.078125 49.078125 51.53125 44.71875 
Q 48 40.375 41.703125 38.8125 
Q 48.828125 37.15625 52.796875 32.3125 
Q 56.78125 27.484375 56.78125 20.515625 
Q 56.78125 9.90625 50.3125 4.234375 
Q 43.84375 -1.421875 31.78125 -1.421875 
Q 19.734375 -1.421875 13.25 4.234375 
Q 6.78125 9.90625 6.78125 20.515625 
Q 6.78125 27.484375 10.78125 32.3125 
Q 14.796875 37.15625 21.921875 38.8125 
z
M 18.3125 54.390625 
Q 18.3125 48.734375 21.84375 45.5625 
Q 25.390625 42.390625 31.78125 42.390625 
Q 38.140625 42.390625 41.71875 45.5625 
Q 45.3125 48.734375 45.3125 54.390625 
Q 45.3125 60.0625 41.71875 63.234375 
Q 38.140625 66.40625 31.78125 66.40625 
Q 25.390625 66.40625 21.84375 63.234375 
Q 18.3125 60.0625 18.3125 54.390625 
z
" id="DejaVuSans-56"/>
      </defs>
      <g transform="translate(33.694277 149.342477)scale(0.1 -0.1)">
       <use xlink:href="#DejaVuSans-48"/>
       <use x="63.623047" xlink:href="#DejaVuSans-46"/>
       <use x="95.410156" xlink:href="#DejaVuSans-56"/>
      </g>
     </g>
    </g>
    <g id="ytick_6">
     <g id="line2d_27">
      <path clip-path="url(#pc8b4b81fda)" d="M 56.597402 120.969201 
L 415.388976 120.969201 
" style="fill:none;stroke:#000000;stroke-dasharray:0.7,1.155;stroke-dashoffset:0;stroke-width:0.7;"/>
     </g>
     <g id="line2d_28">
      <g>
       <use style="stroke:#000000;stroke-width:0.8;" x="56.597402" xlink:href="#mc92dd92c95" y="120.969201"/>
      </g>
     </g>
     <g id="text_15">
      <!-- 1.0 -->
      <g transform="translate(33.694277 124.76842)scale(0.1 -0.1)">
       <use xlink:href="#DejaVuSans-49"/>
       <use x="63.623047" xlink:href="#DejaVuSans-46"/>
       <use x="95.410156" xlink:href="#DejaVuSans-48"/>
      </g>
     </g>
    </g>
    <g id="ytick_7">
     <g id="line2d_29">
      <path clip-path="url(#pc8b4b81fda)" d="M 56.597402 96.395144 
L 415.388976 96.395144 
" style="fill:none;stroke:#000000;stroke-dasharray:0.7,1.155;stroke-dashoffset:0;stroke-width:0.7;"/>
     </g>
     <g id="line2d_30">
      <g>
       <use style="stroke:#000000;stroke-width:0.8;" x="56.597402" xlink:href="#mc92dd92c95" y="96.395144"/>
      </g>
     </g>
     <g id="text_16">
      <!-- 1.2 -->
      <g transform="translate(33.694277 100.194363)scale(0.1 -0.1)">
       <use xlink:href="#DejaVuSans-49"/>
       <use x="63.623047" xlink:href="#DejaVuSans-46"/>
       <use x="95.410156" xlink:href="#DejaVuSans-50"/>
      </g>
     </g>
    </g>
    <g id="ytick_8">
     <g id="line2d_31">
      <path clip-path="url(#pc8b4b81fda)" d="M 56.597402 71.821087 
L 415.388976 71.821087 
" style="fill:none;stroke:#000000;stroke-dasharray:0.7,1.155;stroke-dashoffset:0;stroke-width:0.7;"/>
     </g>
     <g id="line2d_32">
      <g>
       <use style="stroke:#000000;stroke-width:0.8;" x="56.597402" xlink:href="#mc92dd92c95" y="71.821087"/>
      </g>
     </g>
     <g id="text_17">
      <!-- 1.4 -->
      <g transform="translate(33.694277 75.620306)scale(0.1 -0.1)">
       <use xlink:href="#DejaVuSans-49"/>
       <use x="63.623047" xlink:href="#DejaVuSans-46"/>
       <use x="95.410156" xlink:href="#DejaVuSans-52"/>
      </g>
     </g>
    </g>
    <g id="ytick_9">
     <g id="line2d_33">
      <path clip-path="url(#pc8b4b81fda)" d="M 56.597402 47.247031 
L 415.388976 47.247031 
" style="fill:none;stroke:#000000;stroke-dasharray:0.7,1.155;stroke-dashoffset:0;stroke-width:0.7;"/>
     </g>
     <g id="line2d_34">
      <g>
       <use style="stroke:#000000;stroke-width:0.8;" x="56.597402" xlink:href="#mc92dd92c95" y="47.247031"/>
      </g>
     </g>
     <g id="text_18">
      <!-- 1.6 -->
      <g transform="translate(33.694277 51.046249)scale(0.1 -0.1)">
       <use xlink:href="#DejaVuSans-49"/>
       <use x="63.623047" xlink:href="#DejaVuSans-46"/>
       <use x="95.410156" xlink:href="#DejaVuSans-54"/>
      </g>
     </g>
    </g>
    <g id="text_19">
     <!-- Valor -->
     <defs>
      <path d="M 28.609375 0 
L 0.78125 72.90625 
L 11.078125 72.90625 
L 34.1875 11.53125 
L 57.328125 72.90625 
L 67.578125 72.90625 
L 39.796875 0 
z
" id="DejaVuSans-86"/>
      <path d="M 34.28125 27.484375 
Q 23.390625 27.484375 19.1875 25 
Q 14.984375 22.515625 14.984375 16.5 
Q 14.984375 11.71875 18.140625 8.90625 
Q 21.296875 6.109375 26.703125 6.109375 
Q 34.1875 6.109375 38.703125 11.40625 
Q 43.21875 16.703125 43.21875 25.484375 
L 43.21875 27.484375 
z
M 52.203125 31.203125 
L 52.203125 0 
L 43.21875 0 
L 43.21875 8.296875 
Q 40.140625 3.328125 35.546875 0.953125 
Q 30.953125 -1.421875 24.3125 -1.421875 
Q 15.921875 -1.421875 10.953125 3.296875 
Q 6 8.015625 6 15.921875 
Q 6 25.140625 12.171875 29.828125 
Q 18.359375 34.515625 30.609375 34.515625 
L 43.21875 34.515625 
L 43.21875 35.40625 
Q 43.21875 41.609375 39.140625 45 
Q 35.0625 48.390625 27.6875 48.390625 
Q 23 48.390625 18.546875 47.265625 
Q 14.109375 46.140625 10.015625 43.890625 
L 10.015625 52.203125 
Q 14.9375 54.109375 19.578125 55.046875 
Q 24.21875 56 28.609375 56 
Q 40.484375 56 46.34375 49.84375 
Q 52.203125 43.703125 52.203125 31.203125 
z
" id="DejaVuSans-97"/>
      <path d="M 9.421875 75.984375 
L 18.40625 75.984375 
L 18.40625 0 
L 9.421875 0 
z
" id="DejaVuSans-108"/>
      <path d="M 41.109375 46.296875 
Q 39.59375 47.171875 37.8125 47.578125 
Q 36.03125 48 33.890625 48 
Q 26.265625 48 22.1875 43.046875 
Q 18.109375 38.09375 18.109375 28.8125 
L 18.109375 0 
L 9.078125 0 
L 9.078125 54.6875 
L 18.109375 54.6875 
L 18.109375 46.1875 
Q 20.953125 51.171875 25.484375 53.578125 
Q 30.03125 56 36.53125 56 
Q 37.453125 56 38.578125 55.875 
Q 39.703125 55.765625 41.0625 55.515625 
z
" id="DejaVuSans-114"/>
     </defs>
     <g transform="translate(27.614589 165.316057)rotate(-90)scale(0.1 -0.1)">
      <use xlink:href="#DejaVuSans-86"/>
      <use x="60.658203" xlink:href="#DejaVuSans-97"/>
      <use x="121.9375" xlink:href="#DejaVuSans-108"/>
      <use x="149.720703" xlink:href="#DejaVuSans-111"/>
      <use x="210.902344" xlink:href="#DejaVuSans-114"/>
     </g>
    </g>
   </g>
   <g id="line2d_35">
    <path clip-path="url(#pc8b4b81fda)" d="M 56.597402 243.839486 
L 101.558752 243.839486 
L 101.558752 59.534059 
L 191.481452 59.534059 
L 191.481452 182.404344 
L 281.404153 182.404344 
L 281.404153 120.969201 
L 371.326853 120.969201 
L 371.326853 59.534059 
L 415.388976 59.534059 
L 415.388976 59.534059 
" style="fill:none;stroke:#ff0000;stroke-dasharray:3.7,1.6;stroke-dashoffset:0;"/>
   </g>
   <g id="line2d_36">
    <path clip-path="url(#pc8b4b81fda)" d="M 56.597402 120.969201 
L 146.520102 120.969201 
L 146.520102 182.404344 
L 236.442802 182.404344 
L 236.442802 59.534059 
L 326.365503 59.534059 
L 326.365503 243.839486 
L 415.388976 243.839486 
L 415.388976 243.839486 
" style="fill:none;stroke:#008000;stroke-dasharray:3.7,1.6;stroke-dashoffset:0;"/>
   </g>
   <g id="line2d_37">
    <path clip-path="url(#pc8b4b81fda)" d="M 56.597402 240.503558 
L 57.496629 240.503558 
L 57.496629 234.159589 
L 58.395856 234.159589 
L 58.395856 225.013438 
L 59.295083 225.013438 
L 59.295083 212.915181 
L 60.19431 212.915181 
L 60.19431 198.776933 
L 61.093537 198.776933 
L 61.093537 184.194528 
L 61.992764 184.194528 
L 61.992764 170.266631 
L 62.891991 170.266631 
L 62.891991 157.686905 
L 63.791218 157.686905 
L 63.791218 146.832268 
L 64.690445 146.832268 
L 64.690445 137.842731 
L 65.589672 137.842731 
L 65.589672 130.690349 
L 66.488899 130.690349 
L 66.488899 125.236439 
L 67.388126 125.236439 
L 67.388126 121.277128 
L 68.287353 121.277128 
L 68.287353 118.578175 
L 69.18658 118.578175 
L 69.18658 116.900265 
L 70.085807 116.900265 
L 70.085807 116.016322 
L 70.985034 116.016322 
L 70.985034 115.722287 
L 71.884261 115.722287 
L 71.884261 115.842867 
L 72.783488 115.842867 
L 72.783488 116.233487 
L 73.682715 116.233487 
L 73.682715 116.779608 
L 74.581942 116.779608 
L 74.581942 117.394299 
L 75.481169 117.394299 
L 75.481169 118.014816 
L 76.380396 118.014816 
L 76.380396 118.598719 
L 77.279623 118.598719 
L 77.279623 119.119954 
L 78.17885 119.119954 
L 78.17885 119.565147 
L 79.078077 119.565147 
L 79.078077 119.9303 
L 79.977304 119.9303 
L 79.977304 120.217957 
L 80.876531 120.217957 
L 80.876531 120.434889 
L 81.775758 120.434889 
L 81.775758 120.590247 
L 83.574212 120.694188 
L 83.574212 120.756878 
L 91.667255 120.666652 
L 91.667255 120.64511 
L 102.457979 120.579763 
L 102.457979 118.857585 
L 103.357206 118.857585 
L 103.357206 115.293879 
L 104.256433 115.293879 
L 104.256433 112.399596 
L 105.15566 112.399596 
L 105.15566 110.994288 
L 106.054887 110.994288 
L 106.054887 110.678752 
L 106.954114 110.678752 
L 106.954114 111.114248 
L 107.853341 111.114248 
L 107.853341 112.02472 
L 108.752568 112.02472 
L 108.752568 113.194115 
L 109.651795 113.194115 
L 109.651795 114.460708 
L 110.551022 114.460708 
L 110.551022 115.709746 
L 111.450249 115.709746 
L 111.450249 116.865459 
L 112.349476 116.865459 
L 112.349476 117.883152 
L 113.248703 117.883152 
L 113.248703 118.741879 
L 114.14793 118.741879 
L 114.14793 119.437978 
L 115.047157 119.437978 
L 115.047157 119.979615 
L 115.946384 119.979615 
L 115.946384 120.382351 
L 116.845611 120.382351 
L 116.845611 120.665683 
L 117.744838 120.665683 
L 117.744838 120.850479 
L 119.543292 120.957161 
L 119.543292 121.004516 
L 123.1402 120.942112 
L 123.1402 120.890538 
L 125.837881 120.783467 
L 125.837881 120.735333 
L 129.434789 120.630236 
L 129.434789 120.608576 
L 147.419329 120.587861 
L 147.419329 122.732074 
L 148.318556 122.732074 
L 148.318556 128.053408 
L 149.217783 128.053408 
L 149.217783 135.156856 
L 150.11701 135.156856 
L 150.11701 142.990923 
L 151.016237 142.990923 
L 151.016237 150.803177 
L 151.915464 150.803177 
L 151.915464 158.090694 
L 152.814691 158.090694 
L 152.814691 164.550626 
L 153.713918 164.550626 
L 153.713918 170.034018 
L 154.613145 170.034018 
L 154.613145 174.504788 
L 155.512372 174.504788 
L 155.512372 178.004875 
L 156.411599 178.004875 
L 156.411599 180.625771 
L 157.310826 180.625771 
L 157.310826 182.486213 
L 158.210053 182.486213 
L 158.210053 183.715442 
L 159.10928 183.715442 
L 159.10928 184.44131 
L 160.008507 184.44131 
L 160.008507 184.782377 
L 162.706188 184.712322 
L 162.706188 184.461391 
L 163.605415 184.461391 
L 163.605415 184.146404 
L 164.504642 184.146404 
L 164.504642 183.809049 
L 165.403869 183.809049 
L 165.403869 183.478728 
L 166.303096 183.478728 
L 166.303096 183.174692 
L 167.202323 183.174692 
L 167.202323 182.908126 
L 168.10155 182.908126 
L 168.10155 182.684084 
L 169.000777 182.684084 
L 169.000777 182.503173 
L 169.900004 182.503173 
L 169.900004 182.362987 
L 171.698458 182.259252 
L 171.698458 182.186723 
L 192.380679 182.217221 
L 192.380679 183.365454 
L 193.279906 183.365454 
L 193.279906 185.741402 
L 194.179133 185.741402 
L 194.179133 187.67108 
L 195.07836 187.67108 
L 195.07836 188.608105 
L 195.977587 188.608105 
L 195.977587 188.818604 
L 196.876814 188.818604 
L 196.876814 188.528398 
L 197.776041 188.528398 
L 197.776041 187.921521 
L 198.675268 187.921521 
L 198.675268 187.142009 
L 199.574495 187.142009 
L 199.574495 186.29768 
L 200.473722 186.29768 
L 200.473722 185.465037 
L 201.372949 185.465037 
L 201.372949 184.694595 
L 202.272176 184.694595 
L 202.272176 184.016156 
L 203.171403 184.016156 
L 203.171403 183.443684 
L 204.07063 183.443684 
L 204.07063 182.979624 
L 204.969857 182.979624 
L 204.969857 182.618532 
L 205.869084 182.618532 
L 205.869084 182.350039 
L 206.768311 182.350039 
L 206.768311 182.161145 
L 207.667538 182.161145 
L 207.667538 182.037941 
L 217.559035 182.142622 
L 217.559035 182.16598 
L 237.342029 182.212983 
L 237.342029 177.924741 
L 238.241256 177.924741 
L 238.241256 167.282134 
L 239.140483 167.282134 
L 239.140483 153.075212 
L 240.03971 153.075212 
L 240.03971 137.406993 
L 240.938938 137.406993 
L 240.938938 121.782369 
L 241.838165 121.782369 
L 241.838165 107.207204 
L 242.737392 107.207204 
L 242.737392 94.287209 
L 243.636619 94.287209 
L 243.636619 83.3203 
L 244.535846 83.3203 
L 244.535846 74.37865 
L 245.435073 74.37865 
L 245.435073 67.378381 
L 246.3343 67.378381 
L 246.3343 62.136513 
L 247.233527 62.136513 
L 247.233527 58.415569 
L 248.132754 58.415569 
L 248.132754 55.957063 
L 249.031981 55.957063 
L 249.031981 54.505295 
L 249.931208 54.505295 
L 249.931208 53.823139 
L 250.830435 53.823139 
L 250.830435 53.701389 
L 251.729662 53.701389 
L 251.729662 53.96323 
L 252.628889 53.96323 
L 252.628889 54.46509 
L 253.528116 54.46509 
L 253.528116 55.095066 
L 254.427343 55.095066 
L 254.427343 55.769781 
L 255.32657 55.769781 
L 255.32657 56.430428 
L 256.225797 56.430428 
L 256.225797 57.038505 
L 257.125024 57.038505 
L 257.125024 57.571642 
L 258.024251 57.571642 
L 258.024251 58.019731 
L 258.923478 58.019731 
L 258.923478 58.381558 
L 259.822705 58.381558 
L 259.822705 58.661934 
L 260.721932 58.661934 
L 260.721932 58.869408 
L 261.621159 58.869408 
L 261.621159 59.014468 
L 263.419613 59.10822 
L 263.419613 59.161459 
L 270.613429 59.062857 
L 270.613429 59.037559 
L 282.30338 58.953475 
L 282.30338 58.380264 
L 283.202607 58.380264 
L 283.202607 57.193215 
L 284.101834 57.193215 
L 284.101834 56.229253 
L 285.001061 56.229253 
L 285.001061 55.761527 
L 287.698742 55.802614 
L 287.698742 56.106493 
L 288.597969 56.106493 
L 288.597969 56.496584 
L 289.497196 56.496584 
L 289.497196 56.91899 
L 290.396423 56.91899 
L 290.396423 57.335475 
L 291.29565 57.335475 
L 291.29565 57.720795 
L 292.194877 57.720795 
L 292.194877 58.060066 
L 293.094104 58.060066 
L 293.094104 58.346317 
L 293.993331 58.346317 
L 293.993331 58.578337 
L 294.892558 58.578337 
L 294.892558 58.758857 
L 295.791785 58.758857 
L 295.791785 58.893068 
L 297.590239 58.987475 
L 297.590239 59.049038 
L 327.26473 58.961358 
L 327.26473 65.393629 
L 328.163957 65.393629 
L 328.163957 81.35751 
L 329.063184 81.35751 
L 329.063184 102.667906 
L 329.962411 102.667906 
L 329.962411 126.170277 
L 330.861638 126.170277 
L 330.861638 149.607271 
L 331.760865 149.607271 
L 331.760865 171.470084 
L 332.660092 171.470084 
L 332.660092 190.850143 
L 333.559319 190.850143 
L 333.559319 207.300567 
L 334.458546 207.300567 
L 334.458546 220.713098 
L 335.357773 220.713098 
L 335.357773 231.213548 
L 336.257 231.213548 
L 336.257 239.076389 
L 337.156227 239.076389 
L 337.156227 244.657836 
L 338.055454 244.657836 
L 338.055454 248.345616 
L 338.954681 248.345616 
L 338.954681 250.523285 
L 339.853908 250.523285 
L 339.853908 251.546531 
L 340.753135 251.546531 
L 340.753135 251.729162 
L 341.652362 251.729162 
L 341.652362 251.336404 
L 342.551589 251.336404 
L 342.551589 250.583615 
L 343.450816 250.583615 
L 343.450816 249.638649 
L 344.350043 249.638649 
L 344.350043 248.626576 
L 345.24927 248.626576 
L 345.24927 247.635603 
L 346.148497 247.635603 
L 346.148497 246.723483 
L 347.047724 246.723483 
L 347.047724 245.923776 
L 347.946951 245.923776 
L 347.946951 245.251639 
L 348.846178 245.251639 
L 348.846178 244.708897 
L 349.745405 244.708897 
L 349.745405 244.288331 
L 350.644632 244.288331 
L 350.644632 243.977118 
L 351.543859 243.977118 
L 351.543859 243.759528 
L 352.443086 243.759528 
L 352.443086 243.618898 
L 354.24154 243.539039 
L 354.24154 243.505127 
L 358.737675 243.601828 
L 358.737675 243.64519 
L 361.435356 243.724888 
L 361.435356 243.757806 
L 372.22608 243.851015 
L 372.22608 243.274784 
L 373.125307 243.274784 
L 373.125307 242.084653 
L 374.024534 242.084653 
L 374.024534 241.117768 
L 374.923761 241.117768 
L 374.923761 240.647419 
L 377.621442 240.684396 
L 377.621442 240.986805 
L 378.520669 240.986805 
L 378.520669 241.37578 
L 379.419896 241.37578 
L 379.419896 241.797381 
L 380.319123 241.797381 
L 380.319123 242.213323 
L 381.21835 242.213323 
L 381.21835 242.59831 
L 382.117577 242.59831 
L 382.117577 242.937411 
L 383.016804 242.937411 
L 383.016804 243.223611 
L 383.916031 243.223611 
L 383.916031 243.455665 
L 384.815258 243.455665 
L 384.815258 243.636272 
L 385.714485 243.636272 
L 385.714485 243.770602 
L 387.512939 243.86514 
L 387.512939 243.926834 
L 415.388976 243.839452 
L 415.388976 243.839594 
" style="fill:none;stroke:#0000ff;stroke-linecap:square;"/>
   </g>
   <g id="patch_3">
    <path d="M 56.597402 261.630551 
L 56.597402 43.8 
" style="fill:none;stroke:#000000;stroke-linecap:square;stroke-linejoin:miter;stroke-width:0.8;"/>
   </g>
   <g id="patch_4">
    <path d="M 415.388976 261.630551 
L 415.388976 43.8 
" style="fill:none;stroke:#000000;stroke-linecap:square;stroke-linejoin:miter;stroke-width:0.8;"/>
   </g>
   <g id="patch_5">
    <path d="M 56.597402 261.630551 
L 415.388976 261.630551 
" style="fill:none;stroke:#000000;stroke-linecap:square;stroke-linejoin:miter;stroke-width:0.8;"/>
   </g>
   <g id="patch_6">
    <path d="M 56.597402 43.8 
L 415.388976 43.8 
" style="fill:none;stroke:#000000;stroke-linecap:square;stroke-linejoin:miter;stroke-width:0.8;"/>
   </g>
   <g id="text_20">
    <!-- Saída do sistema com rejeição de -->
    <defs>
     <path d="M 53.515625 70.515625 
L 53.515625 60.890625 
Q 47.90625 63.578125 42.921875 64.890625 
Q 37.9375 66.21875 33.296875 66.21875 
Q 25.25 66.21875 20.875 63.09375 
Q 16.5 59.96875 16.5 54.203125 
Q 16.5 49.359375 19.40625 46.890625 
Q 22.3125 44.4375 30.421875 42.921875 
L 36.375 41.703125 
Q 47.40625 39.59375 52.65625 34.296875 
Q 57.90625 29 57.90625 20.125 
Q 57.90625 9.515625 50.796875 4.046875 
Q 43.703125 -1.421875 29.984375 -1.421875 
Q 24.8125 -1.421875 18.96875 -0.25 
Q 13.140625 0.921875 6.890625 3.21875 
L 6.890625 13.375 
Q 12.890625 10.015625 18.65625 8.296875 
Q 24.421875 6.59375 29.984375 6.59375 
Q 38.421875 6.59375 43.015625 9.90625 
Q 47.609375 13.234375 47.609375 19.390625 
Q 47.609375 24.75 44.3125 27.78125 
Q 41.015625 30.8125 33.5 32.328125 
L 27.484375 33.5 
Q 16.453125 35.6875 11.515625 40.375 
Q 6.59375 45.0625 6.59375 53.421875 
Q 6.59375 63.09375 13.40625 68.65625 
Q 20.21875 74.21875 32.171875 74.21875 
Q 37.3125 74.21875 42.625 73.28125 
Q 47.953125 72.359375 53.515625 70.515625 
z
" id="DejaVuSans-83"/>
     <path d="M 20.703125 79.984375 
L 30.421875 79.984375 
L 14.5 61.625 
L 7.03125 61.625 
z
M 9.421875 54.6875 
L 18.40625 54.6875 
L 18.40625 0 
L 9.421875 0 
z
M 13.921875 56 
z
" id="DejaVuSans-237"/>
     <path d="M 45.40625 46.390625 
L 45.40625 75.984375 
L 54.390625 75.984375 
L 54.390625 0 
L 45.40625 0 
L 45.40625 8.203125 
Q 42.578125 3.328125 38.25 0.953125 
Q 33.9375 -1.421875 27.875 -1.421875 
Q 17.96875 -1.421875 11.734375 6.484375 
Q 5.515625 14.40625 5.515625 27.296875 
Q 5.515625 40.1875 11.734375 48.09375 
Q 17.96875 56 27.875 56 
Q 33.9375 56 38.25 53.625 
Q 42.578125 51.265625 45.40625 46.390625 
z
M 14.796875 27.296875 
Q 14.796875 17.390625 18.875 11.75 
Q 22.953125 6.109375 30.078125 6.109375 
Q 37.203125 6.109375 41.296875 11.75 
Q 45.40625 17.390625 45.40625 27.296875 
Q 45.40625 37.203125 41.296875 42.84375 
Q 37.203125 48.484375 30.078125 48.484375 
Q 22.953125 48.484375 18.875 42.84375 
Q 14.796875 37.203125 14.796875 27.296875 
z
" id="DejaVuSans-100"/>
     <path d="M 9.421875 54.6875 
L 18.40625 54.6875 
L 18.40625 0 
L 9.421875 0 
z
M 9.421875 75.984375 
L 18.40625 75.984375 
L 18.40625 64.59375 
L 9.421875 64.59375 
z
" id="DejaVuSans-105"/>
     <path d="M 18.3125 70.21875 
L 18.3125 54.6875 
L 36.8125 54.6875 
L 36.8125 47.703125 
L 18.3125 47.703125 
L 18.3125 18.015625 
Q 18.3125 11.328125 20.140625 9.421875 
Q 21.96875 7.515625 27.59375 7.515625 
L 36.8125 7.515625 
L 36.8125 0 
L 27.59375 0 
Q 17.1875 0 13.234375 3.875 
Q 9.28125 7.765625 9.28125 18.015625 
L 9.28125 47.703125 
L 2.6875 47.703125 
L 2.6875 54.6875 
L 9.28125 54.6875 
L 9.28125 70.21875 
z
" id="DejaVuSans-116"/>
     <path d="M 48.78125 52.59375 
L 48.78125 44.1875 
Q 44.96875 46.296875 41.140625 47.34375 
Q 37.3125 48.390625 33.40625 48.390625 
Q 24.65625 48.390625 19.8125 42.84375 
Q 14.984375 37.3125 14.984375 27.296875 
Q 14.984375 17.28125 19.8125 11.734375 
Q 24.65625 6.203125 33.40625 6.203125 
Q 37.3125 6.203125 41.140625 7.25 
Q 44.96875 8.296875 48.78125 10.40625 
L 48.78125 2.09375 
Q 45.015625 0.34375 40.984375 -0.53125 
Q 36.96875 -1.421875 32.421875 -1.421875 
Q 20.0625 -1.421875 12.78125 6.34375 
Q 5.515625 14.109375 5.515625 27.296875 
Q 5.515625 40.671875 12.859375 48.328125 
Q 20.21875 56 33.015625 56 
Q 37.15625 56 41.109375 55.140625 
Q 45.0625 54.296875 48.78125 52.59375 
z
" id="DejaVuSans-99"/>
     <path d="M 9.421875 54.6875 
L 18.40625 54.6875 
L 18.40625 -0.984375 
Q 18.40625 -11.421875 14.421875 -16.109375 
Q 10.453125 -20.796875 1.609375 -20.796875 
L -1.8125 -20.796875 
L -1.8125 -13.1875 
L 0.59375 -13.1875 
Q 5.71875 -13.1875 7.5625 -10.8125 
Q 9.421875 -8.453125 9.421875 -0.984375 
z
M 9.421875 75.984375 
L 18.40625 75.984375 
L 18.40625 64.59375 
L 9.421875 64.59375 
z
" id="DejaVuSans-106"/>
     <path d="M 48.78125 52.59375 
L 48.78125 44.1875 
Q 44.96875 46.296875 41.140625 47.34375 
Q 37.3125 48.390625 33.40625 48.390625 
Q 24.65625 48.390625 19.8125 42.84375 
Q 14.984375 37.3125 14.984375 27.296875 
Q 14.984375 17.28125 19.8125 11.734375 
Q 24.65625 6.203125 33.40625 6.203125 
Q 37.3125 6.203125 41.140625 7.25 
Q 44.96875 8.296875 48.78125 10.40625 
L 48.78125 2.09375 
Q 45.015625 0.34375 40.984375 -0.53125 
Q 36.96875 -1.421875 32.421875 -1.421875 
Q 20.0625 -1.421875 12.78125 6.34375 
Q 5.515625 14.109375 5.515625 27.296875 
Q 5.515625 40.671875 12.859375 48.328125 
Q 20.21875 56 33.015625 56 
Q 37.15625 56 41.109375 55.140625 
Q 45.0625 54.296875 48.78125 52.59375 
z
M 36.078125 0 
Q 38.765625 -3.03125 40.078125 -5.59375 
Q 41.40625 -8.15625 41.40625 -10.5 
Q 41.40625 -14.84375 38.46875 -17.0625 
Q 35.546875 -19.28125 29.78125 -19.28125 
Q 27.546875 -19.28125 25.421875 -18.984375 
Q 23.296875 -18.703125 21.1875 -18.109375 
L 21.1875 -11.71875 
Q 22.859375 -12.546875 24.65625 -12.90625 
Q 26.46875 -13.28125 28.765625 -13.28125 
Q 31.640625 -13.28125 33.109375 -12.109375 
Q 34.578125 -10.9375 34.578125 -8.6875 
Q 34.578125 -7.234375 33.515625 -5.109375 
Q 32.46875 -2.984375 30.28125 0 
z
" id="DejaVuSans-231"/>
     <path d="M 34.28125 27.484375 
Q 23.390625 27.484375 19.1875 25 
Q 14.984375 22.515625 14.984375 16.5 
Q 14.984375 11.71875 18.140625 8.90625 
Q 21.296875 6.109375 26.703125 6.109375 
Q 34.1875 6.109375 38.703125 11.40625 
Q 43.21875 16.703125 43.21875 25.484375 
L 43.21875 27.484375 
z
M 52.203125 31.203125 
L 52.203125 0 
L 43.21875 0 
L 43.21875 8.296875 
Q 40.140625 3.328125 35.546875 0.953125 
Q 30.953125 -1.421875 24.3125 -1.421875 
Q 15.921875 -1.421875 10.953125 3.296875 
Q 6 8.015625 6 15.921875 
Q 6 25.140625 12.171875 29.828125 
Q 18.359375 34.515625 30.609375 34.515625 
L 43.21875 34.515625 
L 43.21875 35.40625 
Q 43.21875 41.609375 39.140625 45 
Q 35.0625 48.390625 27.6875 48.390625 
Q 23 48.390625 18.546875 47.265625 
Q 14.109375 46.140625 10.015625 43.890625 
L 10.015625 52.203125 
Q 14.9375 54.109375 19.578125 55.046875 
Q 24.21875 56 28.609375 56 
Q 40.484375 56 46.34375 49.84375 
Q 52.203125 43.703125 52.203125 31.203125 
z
M 28.8125 66.890625 
L 26.03125 69.578125 
Q 24.953125 70.5625 24.140625 71.015625 
Q 23.34375 71.484375 22.703125 71.484375 
Q 20.84375 71.484375 19.96875 69.703125 
Q 19.09375 67.921875 19 63.921875 
L 12.890625 63.921875 
Q 12.984375 70.515625 15.46875 74.09375 
Q 17.96875 77.6875 22.40625 77.6875 
Q 24.265625 77.6875 25.828125 77 
Q 27.390625 76.3125 29.203125 74.703125 
L 31.984375 72.015625 
Q 33.0625 71.046875 33.859375 70.578125 
Q 34.671875 70.125 35.296875 70.125 
Q 37.15625 70.125 38.03125 71.90625 
Q 38.921875 73.6875 39.015625 77.6875 
L 45.125 77.6875 
Q 45.015625 71.09375 42.53125 67.5 
Q 40.046875 63.921875 35.59375 63.921875 
Q 33.734375 63.921875 32.171875 64.59375 
Q 30.609375 65.28125 28.8125 66.890625 
z
" id="DejaVuSans-227"/>
    </defs>
    <g transform="translate(117.986314 21.836938)scale(0.14 -0.14)">
     <use xlink:href="#DejaVuSans-83"/>
     <use x="63.476562" xlink:href="#DejaVuSans-97"/>
     <use x="124.755859" xlink:href="#DejaVuSans-237"/>
     <use x="152.539062" xlink:href="#DejaVuSans-100"/>
     <use x="216.015625" xlink:href="#DejaVuSans-97"/>
     <use x="277.294922" xlink:href="#DejaVuSans-32"/>
     <use x="309.082031" xlink:href="#DejaVuSans-100"/>
     <use x="372.558594" xlink:href="#DejaVuSans-111"/>
     <use x="433.740234" xlink:href="#DejaVuSans-32"/>
     <use x="465.527344" xlink:href="#DejaVuSans-115"/>
     <use x="517.626953" xlink:href="#DejaVuSans-105"/>
     <use x="545.410156" xlink:href="#DejaVuSans-115"/>
     <use x="597.509766" xlink:href="#DejaVuSans-116"/>
     <use x="636.71875" xlink:href="#DejaVuSans-101"/>
     <use x="698.242188" xlink:href="#DejaVuSans-109"/>
     <use x="795.654297" xlink:href="#DejaVuSans-97"/>
     <use x="856.933594" xlink:href="#DejaVuSans-32"/>
     <use x="888.720703" xlink:href="#DejaVuSans-99"/>
     <use x="943.701172" xlink:href="#DejaVuSans-111"/>
     <use x="1004.882812" xlink:href="#DejaVuSans-109"/>
     <use x="1102.294922" xlink:href="#DejaVuSans-32"/>
     <use x="1134.082031" xlink:href="#DejaVuSans-114"/>
     <use x="1172.945312" xlink:href="#DejaVuSans-101"/>
     <use x="1234.46875" xlink:href="#DejaVuSans-106"/>
     <use x="1262.251953" xlink:href="#DejaVuSans-101"/>
     <use x="1323.775391" xlink:href="#DejaVuSans-105"/>
     <use x="1351.558594" xlink:href="#DejaVuSans-231"/>
     <use x="1406.539062" xlink:href="#DejaVuSans-227"/>
     <use x="1467.818359" xlink:href="#DejaVuSans-111"/>
     <use x="1529" xlink:href="#DejaVuSans-32"/>
     <use x="1560.787109" xlink:href="#DejaVuSans-100"/>
     <use x="1624.263672" xlink:href="#DejaVuSans-101"/>
    </g>
    <!-- perturbações do tipo degrau -->
    <defs>
     <path d="M 8.5 21.578125 
L 8.5 54.6875 
L 17.484375 54.6875 
L 17.484375 21.921875 
Q 17.484375 14.15625 20.5 10.265625 
Q 23.53125 6.390625 29.59375 6.390625 
Q 36.859375 6.390625 41.078125 11.03125 
Q 45.3125 15.671875 45.3125 23.6875 
L 45.3125 54.6875 
L 54.296875 54.6875 
L 54.296875 0 
L 45.3125 0 
L 45.3125 8.40625 
Q 42.046875 3.421875 37.71875 1 
Q 33.40625 -1.421875 27.6875 -1.421875 
Q 18.265625 -1.421875 13.375 4.4375 
Q 8.5 10.296875 8.5 21.578125 
z
M 31.109375 56 
z
" id="DejaVuSans-117"/>
     <path d="M 48.6875 27.296875 
Q 48.6875 37.203125 44.609375 42.84375 
Q 40.53125 48.484375 33.40625 48.484375 
Q 26.265625 48.484375 22.1875 42.84375 
Q 18.109375 37.203125 18.109375 27.296875 
Q 18.109375 17.390625 22.1875 11.75 
Q 26.265625 6.109375 33.40625 6.109375 
Q 40.53125 6.109375 44.609375 11.75 
Q 48.6875 17.390625 48.6875 27.296875 
z
M 18.109375 46.390625 
Q 20.953125 51.265625 25.265625 53.625 
Q 29.59375 56 35.59375 56 
Q 45.5625 56 51.78125 48.09375 
Q 58.015625 40.1875 58.015625 27.296875 
Q 58.015625 14.40625 51.78125 6.484375 
Q 45.5625 -1.421875 35.59375 -1.421875 
Q 29.59375 -1.421875 25.265625 0.953125 
Q 20.953125 3.328125 18.109375 8.203125 
L 18.109375 0 
L 9.078125 0 
L 9.078125 75.984375 
L 18.109375 75.984375 
z
" id="DejaVuSans-98"/>
     <path d="M 30.609375 48.390625 
Q 23.390625 48.390625 19.1875 42.75 
Q 14.984375 37.109375 14.984375 27.296875 
Q 14.984375 17.484375 19.15625 11.84375 
Q 23.34375 6.203125 30.609375 6.203125 
Q 37.796875 6.203125 41.984375 11.859375 
Q 46.1875 17.53125 46.1875 27.296875 
Q 46.1875 37.015625 41.984375 42.703125 
Q 37.796875 48.390625 30.609375 48.390625 
z
M 30.609375 56 
Q 42.328125 56 49.015625 48.375 
Q 55.71875 40.765625 55.71875 27.296875 
Q 55.71875 13.875 49.015625 6.21875 
Q 42.328125 -1.421875 30.609375 -1.421875 
Q 18.84375 -1.421875 12.171875 6.21875 
Q 5.515625 13.875 5.515625 27.296875 
Q 5.515625 40.765625 12.171875 48.375 
Q 18.84375 56 30.609375 56 
z
M 30.421875 66.890625 
L 27.640625 69.578125 
Q 26.5625 70.5625 25.75 71.015625 
Q 24.953125 71.484375 24.3125 71.484375 
Q 22.46875 71.484375 21.578125 69.703125 
Q 20.703125 67.921875 20.609375 63.921875 
L 14.5 63.921875 
Q 14.59375 70.515625 17.078125 74.09375 
Q 19.578125 77.6875 24.03125 77.6875 
Q 25.875 77.6875 27.4375 77 
Q 29 76.3125 30.8125 74.703125 
L 33.59375 72.015625 
Q 34.671875 71.046875 35.46875 70.578125 
Q 36.28125 70.125 36.921875 70.125 
Q 38.765625 70.125 39.640625 71.90625 
Q 40.53125 73.6875 40.625 77.6875 
L 46.734375 77.6875 
Q 46.625 71.09375 44.140625 67.5 
Q 41.65625 63.921875 37.203125 63.921875 
Q 35.359375 63.921875 33.796875 64.59375 
Q 32.234375 65.28125 30.421875 66.890625 
z
" id="DejaVuSans-245"/>
     <path d="M 45.40625 27.984375 
Q 45.40625 37.75 41.375 43.109375 
Q 37.359375 48.484375 30.078125 48.484375 
Q 22.859375 48.484375 18.828125 43.109375 
Q 14.796875 37.75 14.796875 27.984375 
Q 14.796875 18.265625 18.828125 12.890625 
Q 22.859375 7.515625 30.078125 7.515625 
Q 37.359375 7.515625 41.375 12.890625 
Q 45.40625 18.265625 45.40625 27.984375 
z
M 54.390625 6.78125 
Q 54.390625 -7.171875 48.1875 -13.984375 
Q 42 -20.796875 29.203125 -20.796875 
Q 24.46875 -20.796875 20.265625 -20.09375 
Q 16.0625 -19.390625 12.109375 -17.921875 
L 12.109375 -9.1875 
Q 16.0625 -11.328125 19.921875 -12.34375 
Q 23.78125 -13.375 27.78125 -13.375 
Q 36.625 -13.375 41.015625 -8.765625 
Q 45.40625 -4.15625 45.40625 5.171875 
L 45.40625 9.625 
Q 42.625 4.78125 38.28125 2.390625 
Q 33.9375 0 27.875 0 
Q 17.828125 0 11.671875 7.65625 
Q 5.515625 15.328125 5.515625 27.984375 
Q 5.515625 40.671875 11.671875 48.328125 
Q 17.828125 56 27.875 56 
Q 33.9375 56 38.28125 53.609375 
Q 42.625 51.21875 45.40625 46.390625 
L 45.40625 54.6875 
L 54.390625 54.6875 
z
" id="DejaVuSans-103"/>
    </defs>
    <g transform="translate(135.871314 37.8)scale(0.14 -0.14)">
     <use xlink:href="#DejaVuSans-112"/>
     <use x="63.476562" xlink:href="#DejaVuSans-101"/>
     <use x="125" xlink:href="#DejaVuSans-114"/>
     <use x="166.113281" xlink:href="#DejaVuSans-116"/>
     <use x="205.322266" xlink:href="#DejaVuSans-117"/>
     <use x="268.701172" xlink:href="#DejaVuSans-114"/>
     <use x="309.814453" xlink:href="#DejaVuSans-98"/>
     <use x="373.291016" xlink:href="#DejaVuSans-97"/>
     <use x="434.570312" xlink:href="#DejaVuSans-231"/>
     <use x="489.550781" xlink:href="#DejaVuSans-245"/>
     <use x="550.732422" xlink:href="#DejaVuSans-101"/>
     <use x="612.255859" xlink:href="#DejaVuSans-115"/>
     <use x="664.355469" xlink:href="#DejaVuSans-32"/>
     <use x="696.142578" xlink:href="#DejaVuSans-100"/>
     <use x="759.619141" xlink:href="#DejaVuSans-111"/>
     <use x="820.800781" xlink:href="#DejaVuSans-32"/>
     <use x="852.587891" xlink:href="#DejaVuSans-116"/>
     <use x="891.796875" xlink:href="#DejaVuSans-105"/>
     <use x="919.580078" xlink:href="#DejaVuSans-112"/>
     <use x="983.056641" xlink:href="#DejaVuSans-111"/>
     <use x="1044.238281" xlink:href="#DejaVuSans-32"/>
     <use x="1076.025391" xlink:href="#DejaVuSans-100"/>
     <use x="1139.501953" xlink:href="#DejaVuSans-101"/>
     <use x="1201.025391" xlink:href="#DejaVuSans-103"/>
     <use x="1264.501953" xlink:href="#DejaVuSans-114"/>
     <use x="1305.615234" xlink:href="#DejaVuSans-97"/>
     <use x="1366.894531" xlink:href="#DejaVuSans-117"/>
    </g>
   </g>
   <g id="legend_1">
    <g id="patch_7">
     <path d="M 173.132251 256.630551 
L 298.854126 256.630551 
Q 300.854126 256.630551 300.854126 254.630551 
L 300.854126 211.577426 
Q 300.854126 209.577426 298.854126 209.577426 
L 173.132251 209.577426 
Q 171.132251 209.577426 171.132251 211.577426 
L 171.132251 254.630551 
Q 171.132251 256.630551 173.132251 256.630551 
z
" style="fill:#ffffff;opacity:0.8;stroke:#cccccc;stroke-linejoin:miter;"/>
    </g>
    <g id="line2d_38">
     <path d="M 175.132251 217.694614 
L 195.132251 217.694614 
" style="fill:none;stroke:#ff0000;stroke-dasharray:3.7,1.6;stroke-dashoffset:0;"/>
    </g>
    <g id="line2d_39"/>
    <g id="text_21">
     <!-- Perturbação -->
     <defs>
      <path d="M 19.671875 64.796875 
L 19.671875 37.40625 
L 32.078125 37.40625 
Q 38.96875 37.40625 42.71875 40.96875 
Q 46.484375 44.53125 46.484375 51.125 
Q 46.484375 57.671875 42.71875 61.234375 
Q 38.96875 64.796875 32.078125 64.796875 
z
M 9.8125 72.90625 
L 32.078125 72.90625 
Q 44.34375 72.90625 50.609375 67.359375 
Q 56.890625 61.8125 56.890625 51.125 
Q 56.890625 40.328125 50.609375 34.8125 
Q 44.34375 29.296875 32.078125 29.296875 
L 19.671875 29.296875 
L 19.671875 0 
L 9.8125 0 
z
" id="DejaVuSans-80"/>
     </defs>
     <g transform="translate(203.132251 221.194614)scale(0.1 -0.1)">
      <use xlink:href="#DejaVuSans-80"/>
      <use x="56.677734" xlink:href="#DejaVuSans-101"/>
      <use x="118.201172" xlink:href="#DejaVuSans-114"/>
      <use x="159.314453" xlink:href="#DejaVuSans-116"/>
      <use x="198.523438" xlink:href="#DejaVuSans-117"/>
      <use x="261.902344" xlink:href="#DejaVuSans-114"/>
      <use x="303.015625" xlink:href="#DejaVuSans-98"/>
      <use x="366.492188" xlink:href="#DejaVuSans-97"/>
      <use x="427.771484" xlink:href="#DejaVuSans-231"/>
      <use x="482.751953" xlink:href="#DejaVuSans-227"/>
      <use x="544.03125" xlink:href="#DejaVuSans-111"/>
     </g>
    </g>
    <g id="line2d_40">
     <path d="M 175.132251 232.372739 
L 195.132251 232.372739 
" style="fill:none;stroke:#008000;stroke-dasharray:3.7,1.6;stroke-dashoffset:0;"/>
    </g>
    <g id="line2d_41"/>
    <g id="text_22">
     <!-- Sinal de referência -->
     <defs>
      <path d="M 54.890625 33.015625 
L 54.890625 0 
L 45.90625 0 
L 45.90625 32.71875 
Q 45.90625 40.484375 42.875 44.328125 
Q 39.84375 48.1875 33.796875 48.1875 
Q 26.515625 48.1875 22.3125 43.546875 
Q 18.109375 38.921875 18.109375 30.90625 
L 18.109375 0 
L 9.078125 0 
L 9.078125 54.6875 
L 18.109375 54.6875 
L 18.109375 46.1875 
Q 21.34375 51.125 25.703125 53.5625 
Q 30.078125 56 35.796875 56 
Q 45.21875 56 50.046875 50.171875 
Q 54.890625 44.34375 54.890625 33.015625 
z
" id="DejaVuSans-110"/>
      <path d="M 37.109375 75.984375 
L 37.109375 68.5 
L 28.515625 68.5 
Q 23.6875 68.5 21.796875 66.546875 
Q 19.921875 64.59375 19.921875 59.515625 
L 19.921875 54.6875 
L 34.71875 54.6875 
L 34.71875 47.703125 
L 19.921875 47.703125 
L 19.921875 0 
L 10.890625 0 
L 10.890625 47.703125 
L 2.296875 47.703125 
L 2.296875 54.6875 
L 10.890625 54.6875 
L 10.890625 58.5 
Q 10.890625 67.625 15.140625 71.796875 
Q 19.390625 75.984375 28.609375 75.984375 
z
" id="DejaVuSans-102"/>
      <path d="M 56.203125 29.59375 
L 56.203125 25.203125 
L 14.890625 25.203125 
Q 15.484375 15.921875 20.484375 11.0625 
Q 25.484375 6.203125 34.421875 6.203125 
Q 39.59375 6.203125 44.453125 7.46875 
Q 49.3125 8.734375 54.109375 11.28125 
L 54.109375 2.78125 
Q 49.265625 0.734375 44.1875 -0.34375 
Q 39.109375 -1.421875 33.890625 -1.421875 
Q 20.796875 -1.421875 13.15625 6.1875 
Q 5.515625 13.8125 5.515625 26.8125 
Q 5.515625 40.234375 12.765625 48.109375 
Q 20.015625 56 32.328125 56 
Q 43.359375 56 49.78125 48.890625 
Q 56.203125 41.796875 56.203125 29.59375 
z
M 47.21875 32.234375 
Q 47.125 39.59375 43.09375 43.984375 
Q 39.0625 48.390625 32.421875 48.390625 
Q 24.90625 48.390625 20.390625 44.140625 
Q 15.875 39.890625 15.1875 32.171875 
z
M 28.171875 79.984375 
L 35.40625 79.984375 
L 47.359375 61.625 
L 40.578125 61.625 
L 31.78125 73.578125 
L 23 61.625 
L 16.21875 61.625 
z
" id="DejaVuSans-234"/>
     </defs>
     <g transform="translate(203.132251 235.872739)scale(0.1 -0.1)">
      <use xlink:href="#DejaVuSans-83"/>
      <use x="63.476562" xlink:href="#DejaVuSans-105"/>
      <use x="91.259766" xlink:href="#DejaVuSans-110"/>
      <use x="154.638672" xlink:href="#DejaVuSans-97"/>
      <use x="215.917969" xlink:href="#DejaVuSans-108"/>
      <use x="243.701172" xlink:href="#DejaVuSans-32"/>
      <use x="275.488281" xlink:href="#DejaVuSans-100"/>
      <use x="338.964844" xlink:href="#DejaVuSans-101"/>
      <use x="400.488281" xlink:href="#DejaVuSans-32"/>
      <use x="432.275391" xlink:href="#DejaVuSans-114"/>
      <use x="471.138672" xlink:href="#DejaVuSans-101"/>
      <use x="532.662109" xlink:href="#DejaVuSans-102"/>
      <use x="567.867188" xlink:href="#DejaVuSans-101"/>
      <use x="629.390625" xlink:href="#DejaVuSans-114"/>
      <use x="668.253906" xlink:href="#DejaVuSans-234"/>
      <use x="729.777344" xlink:href="#DejaVuSans-110"/>
      <use x="793.15625" xlink:href="#DejaVuSans-99"/>
      <use x="848.136719" xlink:href="#DejaVuSans-105"/>
      <use x="875.919922" xlink:href="#DejaVuSans-97"/>
     </g>
    </g>
    <g id="line2d_42">
     <path d="M 175.132251 247.050864 
L 195.132251 247.050864 
" style="fill:none;stroke:#0000ff;stroke-linecap:square;"/>
    </g>
    <g id="line2d_43"/>
    <g id="text_23">
     <!-- Saída -->
     <g transform="translate(203.132251 250.550864)scale(0.1 -0.1)">
      <use xlink:href="#DejaVuSans-83"/>
      <use x="63.476562" xlink:href="#DejaVuSans-97"/>
      <use x="124.755859" xlink:href="#DejaVuSans-237"/>
      <use x="152.539062" xlink:href="#DejaVuSans-100"/>
      <use x="216.015625" xlink:href="#DejaVuSans-97"/>
     </g>
    </g>
   </g>
  </g>
 </g>
 <defs>
  <clipPath id="pc8b4b81fda">
   <rect height="217.830551" width="358.791575" x="56.597402" y="43.8"/>
  </clipPath>
 </defs>
</svg>
