<?xml version="1.0" encoding="utf-8" standalone="no"?>
<!DOCTYPE svg PUBLIC "-//W3C//DTD SVG 1.1//EN"
  "http://www.w3.org/Graphics/SVG/1.1/DTD/svg11.dtd">
<!-- Created with matplotlib (https://matplotlib.org/) -->
<svg height="297.637795pt" version="1.1" viewBox="0 0 439.370079 297.637795" width="439.370079pt" xmlns="http://www.w3.org/2000/svg" xmlns:xlink="http://www.w3.org/1999/xlink">
 <defs>
  <style type="text/css">
*{stroke-linecap:butt;stroke-linejoin:round;}
  </style>
 </defs>
 <g id="figure_1">
  <g id="patch_1">
   <path d="M 0 297.637795 
L 439.370079 297.637795 
L 439.370079 0 
L 0 0 
z
" style="fill:#ffffff;"/>
  </g>
  <g id="axes_1">
   <g id="patch_2">
    <path d="M 56.597402 261.630551 
L 415.388976 261.630551 
L 415.388976 27.6 
L 56.597402 27.6 
z
" style="fill:#ffffff;"/>
   </g>
   <g id="matplotlib.axis_1">
    <g id="xtick_1">
     <g id="line2d_1">
      <path clip-path="url(#p0231d3e60c)" d="M 56.597402 261.630551 
L 56.597402 27.6 
" style="fill:none;stroke:#000000;stroke-dasharray:0.7,1.155;stroke-dashoffset:0;stroke-width:0.7;"/>
     </g>
     <g id="line2d_2">
      <defs>
       <path d="M 0 0 
L 0 3.5 
" id="md806146309" style="stroke:#000000;stroke-width:0.8;"/>
      </defs>
      <g>
       <use style="stroke:#000000;stroke-width:0.8;" x="56.597402" xlink:href="#md806146309" y="261.630551"/>
      </g>
     </g>
     <g id="text_1">
      <!-- 0 -->
      <defs>
       <path d="M 31.78125 66.40625 
Q 24.171875 66.40625 20.328125 58.90625 
Q 16.5 51.421875 16.5 36.375 
Q 16.5 21.390625 20.328125 13.890625 
Q 24.171875 6.390625 31.78125 6.390625 
Q 39.453125 6.390625 43.28125 13.890625 
Q 47.125 21.390625 47.125 36.375 
Q 47.125 51.421875 43.28125 58.90625 
Q 39.453125 66.40625 31.78125 66.40625 
z
M 31.78125 74.21875 
Q 44.046875 74.21875 50.515625 64.515625 
Q 56.984375 54.828125 56.984375 36.375 
Q 56.984375 17.96875 50.515625 8.265625 
Q 44.046875 -1.421875 31.78125 -1.421875 
Q 19.53125 -1.421875 13.0625 8.265625 
Q 6.59375 17.96875 6.59375 36.375 
Q 6.59375 54.828125 13.0625 64.515625 
Q 19.53125 74.21875 31.78125 74.21875 
z
" id="DejaVuSans-48"/>
      </defs>
      <g transform="translate(53.416152 276.228989)scale(0.1 -0.1)">
       <use xlink:href="#DejaVuSans-48"/>
      </g>
     </g>
    </g>
    <g id="xtick_2">
     <g id="line2d_3">
      <path clip-path="url(#p0231d3e60c)" d="M 101.50248 261.630551 
L 101.50248 27.6 
" style="fill:none;stroke:#000000;stroke-dasharray:0.7,1.155;stroke-dashoffset:0;stroke-width:0.7;"/>
     </g>
     <g id="line2d_4">
      <g>
       <use style="stroke:#000000;stroke-width:0.8;" x="101.50248" xlink:href="#md806146309" y="261.630551"/>
      </g>
     </g>
     <g id="text_2">
      <!-- 5 -->
      <defs>
       <path d="M 10.796875 72.90625 
L 49.515625 72.90625 
L 49.515625 64.59375 
L 19.828125 64.59375 
L 19.828125 46.734375 
Q 21.96875 47.46875 24.109375 47.828125 
Q 26.265625 48.1875 28.421875 48.1875 
Q 40.625 48.1875 47.75 41.5 
Q 54.890625 34.8125 54.890625 23.390625 
Q 54.890625 11.625 47.5625 5.09375 
Q 40.234375 -1.421875 26.90625 -1.421875 
Q 22.3125 -1.421875 17.546875 -0.640625 
Q 12.796875 0.140625 7.71875 1.703125 
L 7.71875 11.625 
Q 12.109375 9.234375 16.796875 8.0625 
Q 21.484375 6.890625 26.703125 6.890625 
Q 35.15625 6.890625 40.078125 11.328125 
Q 45.015625 15.765625 45.015625 23.390625 
Q 45.015625 31 40.078125 35.4375 
Q 35.15625 39.890625 26.703125 39.890625 
Q 22.75 39.890625 18.8125 39.015625 
Q 14.890625 38.140625 10.796875 36.28125 
z
" id="DejaVuSans-53"/>
      </defs>
      <g transform="translate(98.32123 276.228989)scale(0.1 -0.1)">
       <use xlink:href="#DejaVuSans-53"/>
      </g>
     </g>
    </g>
    <g id="xtick_3">
     <g id="line2d_5">
      <path clip-path="url(#p0231d3e60c)" d="M 146.407558 261.630551 
L 146.407558 27.6 
" style="fill:none;stroke:#000000;stroke-dasharray:0.7,1.155;stroke-dashoffset:0;stroke-width:0.7;"/>
     </g>
     <g id="line2d_6">
      <g>
       <use style="stroke:#000000;stroke-width:0.8;" x="146.407558" xlink:href="#md806146309" y="261.630551"/>
      </g>
     </g>
     <g id="text_3">
      <!-- 10 -->
      <defs>
       <path d="M 12.40625 8.296875 
L 28.515625 8.296875 
L 28.515625 63.921875 
L 10.984375 60.40625 
L 10.984375 69.390625 
L 28.421875 72.90625 
L 38.28125 72.90625 
L 38.28125 8.296875 
L 54.390625 8.296875 
L 54.390625 0 
L 12.40625 0 
z
" id="DejaVuSans-49"/>
      </defs>
      <g transform="translate(140.045058 276.228989)scale(0.1 -0.1)">
       <use xlink:href="#DejaVuSans-49"/>
       <use x="63.623047" xlink:href="#DejaVuSans-48"/>
      </g>
     </g>
    </g>
    <g id="xtick_4">
     <g id="line2d_7">
      <path clip-path="url(#p0231d3e60c)" d="M 191.312636 261.630551 
L 191.312636 27.6 
" style="fill:none;stroke:#000000;stroke-dasharray:0.7,1.155;stroke-dashoffset:0;stroke-width:0.7;"/>
     </g>
     <g id="line2d_8">
      <g>
       <use style="stroke:#000000;stroke-width:0.8;" x="191.312636" xlink:href="#md806146309" y="261.630551"/>
      </g>
     </g>
     <g id="text_4">
      <!-- 15 -->
      <g transform="translate(184.950136 276.228989)scale(0.1 -0.1)">
       <use xlink:href="#DejaVuSans-49"/>
       <use x="63.623047" xlink:href="#DejaVuSans-53"/>
      </g>
     </g>
    </g>
    <g id="xtick_5">
     <g id="line2d_9">
      <path clip-path="url(#p0231d3e60c)" d="M 236.217714 261.630551 
L 236.217714 27.6 
" style="fill:none;stroke:#000000;stroke-dasharray:0.7,1.155;stroke-dashoffset:0;stroke-width:0.7;"/>
     </g>
     <g id="line2d_10">
      <g>
       <use style="stroke:#000000;stroke-width:0.8;" x="236.217714" xlink:href="#md806146309" y="261.630551"/>
      </g>
     </g>
     <g id="text_5">
      <!-- 20 -->
      <defs>
       <path d="M 19.1875 8.296875 
L 53.609375 8.296875 
L 53.609375 0 
L 7.328125 0 
L 7.328125 8.296875 
Q 12.9375 14.109375 22.625 23.890625 
Q 32.328125 33.6875 34.8125 36.53125 
Q 39.546875 41.84375 41.421875 45.53125 
Q 43.3125 49.21875 43.3125 52.78125 
Q 43.3125 58.59375 39.234375 62.25 
Q 35.15625 65.921875 28.609375 65.921875 
Q 23.96875 65.921875 18.8125 64.3125 
Q 13.671875 62.703125 7.8125 59.421875 
L 7.8125 69.390625 
Q 13.765625 71.78125 18.9375 73 
Q 24.125 74.21875 28.421875 74.21875 
Q 39.75 74.21875 46.484375 68.546875 
Q 53.21875 62.890625 53.21875 53.421875 
Q 53.21875 48.921875 51.53125 44.890625 
Q 49.859375 40.875 45.40625 35.40625 
Q 44.1875 33.984375 37.640625 27.21875 
Q 31.109375 20.453125 19.1875 8.296875 
z
" id="DejaVuSans-50"/>
      </defs>
      <g transform="translate(229.855214 276.228989)scale(0.1 -0.1)">
       <use xlink:href="#DejaVuSans-50"/>
       <use x="63.623047" xlink:href="#DejaVuSans-48"/>
      </g>
     </g>
    </g>
    <g id="xtick_6">
     <g id="line2d_11">
      <path clip-path="url(#p0231d3e60c)" d="M 281.122793 261.630551 
L 281.122793 27.6 
" style="fill:none;stroke:#000000;stroke-dasharray:0.7,1.155;stroke-dashoffset:0;stroke-width:0.7;"/>
     </g>
     <g id="line2d_12">
      <g>
       <use style="stroke:#000000;stroke-width:0.8;" x="281.122793" xlink:href="#md806146309" y="261.630551"/>
      </g>
     </g>
     <g id="text_6">
      <!-- 25 -->
      <g transform="translate(274.760293 276.228989)scale(0.1 -0.1)">
       <use xlink:href="#DejaVuSans-50"/>
       <use x="63.623047" xlink:href="#DejaVuSans-53"/>
      </g>
     </g>
    </g>
    <g id="xtick_7">
     <g id="line2d_13">
      <path clip-path="url(#p0231d3e60c)" d="M 326.027871 261.630551 
L 326.027871 27.6 
" style="fill:none;stroke:#000000;stroke-dasharray:0.7,1.155;stroke-dashoffset:0;stroke-width:0.7;"/>
     </g>
     <g id="line2d_14">
      <g>
       <use style="stroke:#000000;stroke-width:0.8;" x="326.027871" xlink:href="#md806146309" y="261.630551"/>
      </g>
     </g>
     <g id="text_7">
      <!-- 30 -->
      <defs>
       <path d="M 40.578125 39.3125 
Q 47.65625 37.796875 51.625 33 
Q 55.609375 28.21875 55.609375 21.1875 
Q 55.609375 10.40625 48.1875 4.484375 
Q 40.765625 -1.421875 27.09375 -1.421875 
Q 22.515625 -1.421875 17.65625 -0.515625 
Q 12.796875 0.390625 7.625 2.203125 
L 7.625 11.71875 
Q 11.71875 9.328125 16.59375 8.109375 
Q 21.484375 6.890625 26.8125 6.890625 
Q 36.078125 6.890625 40.9375 10.546875 
Q 45.796875 14.203125 45.796875 21.1875 
Q 45.796875 27.640625 41.28125 31.265625 
Q 36.765625 34.90625 28.71875 34.90625 
L 20.21875 34.90625 
L 20.21875 43.015625 
L 29.109375 43.015625 
Q 36.375 43.015625 40.234375 45.921875 
Q 44.09375 48.828125 44.09375 54.296875 
Q 44.09375 59.90625 40.109375 62.90625 
Q 36.140625 65.921875 28.71875 65.921875 
Q 24.65625 65.921875 20.015625 65.03125 
Q 15.375 64.15625 9.8125 62.3125 
L 9.8125 71.09375 
Q 15.4375 72.65625 20.34375 73.4375 
Q 25.25 74.21875 29.59375 74.21875 
Q 40.828125 74.21875 47.359375 69.109375 
Q 53.90625 64.015625 53.90625 55.328125 
Q 53.90625 49.265625 50.4375 45.09375 
Q 46.96875 40.921875 40.578125 39.3125 
z
" id="DejaVuSans-51"/>
      </defs>
      <g transform="translate(319.665371 276.228989)scale(0.1 -0.1)">
       <use xlink:href="#DejaVuSans-51"/>
       <use x="63.623047" xlink:href="#DejaVuSans-48"/>
      </g>
     </g>
    </g>
    <g id="xtick_8">
     <g id="line2d_15">
      <path clip-path="url(#p0231d3e60c)" d="M 370.932949 261.630551 
L 370.932949 27.6 
" style="fill:none;stroke:#000000;stroke-dasharray:0.7,1.155;stroke-dashoffset:0;stroke-width:0.7;"/>
     </g>
     <g id="line2d_16">
      <g>
       <use style="stroke:#000000;stroke-width:0.8;" x="370.932949" xlink:href="#md806146309" y="261.630551"/>
      </g>
     </g>
     <g id="text_8">
      <!-- 35 -->
      <g transform="translate(364.570449 276.228989)scale(0.1 -0.1)">
       <use xlink:href="#DejaVuSans-51"/>
       <use x="63.623047" xlink:href="#DejaVuSans-53"/>
      </g>
     </g>
    </g>
    <g id="text_9">
     <!-- Tempo (s) -->
     <defs>
      <path d="M -0.296875 72.90625 
L 61.375 72.90625 
L 61.375 64.59375 
L 35.5 64.59375 
L 35.5 0 
L 25.59375 0 
L 25.59375 64.59375 
L -0.296875 64.59375 
z
" id="DejaVuSans-84"/>
      <path d="M 56.203125 29.59375 
L 56.203125 25.203125 
L 14.890625 25.203125 
Q 15.484375 15.921875 20.484375 11.0625 
Q 25.484375 6.203125 34.421875 6.203125 
Q 39.59375 6.203125 44.453125 7.46875 
Q 49.3125 8.734375 54.109375 11.28125 
L 54.109375 2.78125 
Q 49.265625 0.734375 44.1875 -0.34375 
Q 39.109375 -1.421875 33.890625 -1.421875 
Q 20.796875 -1.421875 13.15625 6.1875 
Q 5.515625 13.8125 5.515625 26.8125 
Q 5.515625 40.234375 12.765625 48.109375 
Q 20.015625 56 32.328125 56 
Q 43.359375 56 49.78125 48.890625 
Q 56.203125 41.796875 56.203125 29.59375 
z
M 47.21875 32.234375 
Q 47.125 39.59375 43.09375 43.984375 
Q 39.0625 48.390625 32.421875 48.390625 
Q 24.90625 48.390625 20.390625 44.140625 
Q 15.875 39.890625 15.1875 32.171875 
z
" id="DejaVuSans-101"/>
      <path d="M 52 44.1875 
Q 55.375 50.25 60.0625 53.125 
Q 64.75 56 71.09375 56 
Q 79.640625 56 84.28125 50.015625 
Q 88.921875 44.046875 88.921875 33.015625 
L 88.921875 0 
L 79.890625 0 
L 79.890625 32.71875 
Q 79.890625 40.578125 77.09375 44.375 
Q 74.3125 48.1875 68.609375 48.1875 
Q 61.625 48.1875 57.5625 43.546875 
Q 53.515625 38.921875 53.515625 30.90625 
L 53.515625 0 
L 44.484375 0 
L 44.484375 32.71875 
Q 44.484375 40.625 41.703125 44.40625 
Q 38.921875 48.1875 33.109375 48.1875 
Q 26.21875 48.1875 22.15625 43.53125 
Q 18.109375 38.875 18.109375 30.90625 
L 18.109375 0 
L 9.078125 0 
L 9.078125 54.6875 
L 18.109375 54.6875 
L 18.109375 46.1875 
Q 21.1875 51.21875 25.484375 53.609375 
Q 29.78125 56 35.6875 56 
Q 41.65625 56 45.828125 52.96875 
Q 50 49.953125 52 44.1875 
z
" id="DejaVuSans-109"/>
      <path d="M 18.109375 8.203125 
L 18.109375 -20.796875 
L 9.078125 -20.796875 
L 9.078125 54.6875 
L 18.109375 54.6875 
L 18.109375 46.390625 
Q 20.953125 51.265625 25.265625 53.625 
Q 29.59375 56 35.59375 56 
Q 45.5625 56 51.78125 48.09375 
Q 58.015625 40.1875 58.015625 27.296875 
Q 58.015625 14.40625 51.78125 6.484375 
Q 45.5625 -1.421875 35.59375 -1.421875 
Q 29.59375 -1.421875 25.265625 0.953125 
Q 20.953125 3.328125 18.109375 8.203125 
z
M 48.6875 27.296875 
Q 48.6875 37.203125 44.609375 42.84375 
Q 40.53125 48.484375 33.40625 48.484375 
Q 26.265625 48.484375 22.1875 42.84375 
Q 18.109375 37.203125 18.109375 27.296875 
Q 18.109375 17.390625 22.1875 11.75 
Q 26.265625 6.109375 33.40625 6.109375 
Q 40.53125 6.109375 44.609375 11.75 
Q 48.6875 17.390625 48.6875 27.296875 
z
" id="DejaVuSans-112"/>
      <path d="M 30.609375 48.390625 
Q 23.390625 48.390625 19.1875 42.75 
Q 14.984375 37.109375 14.984375 27.296875 
Q 14.984375 17.484375 19.15625 11.84375 
Q 23.34375 6.203125 30.609375 6.203125 
Q 37.796875 6.203125 41.984375 11.859375 
Q 46.1875 17.53125 46.1875 27.296875 
Q 46.1875 37.015625 41.984375 42.703125 
Q 37.796875 48.390625 30.609375 48.390625 
z
M 30.609375 56 
Q 42.328125 56 49.015625 48.375 
Q 55.71875 40.765625 55.71875 27.296875 
Q 55.71875 13.875 49.015625 6.21875 
Q 42.328125 -1.421875 30.609375 -1.421875 
Q 18.84375 -1.421875 12.171875 6.21875 
Q 5.515625 13.875 5.515625 27.296875 
Q 5.515625 40.765625 12.171875 48.375 
Q 18.84375 56 30.609375 56 
z
" id="DejaVuSans-111"/>
      <path id="DejaVuSans-32"/>
      <path d="M 31 75.875 
Q 24.46875 64.65625 21.28125 53.65625 
Q 18.109375 42.671875 18.109375 31.390625 
Q 18.109375 20.125 21.3125 9.0625 
Q 24.515625 -2 31 -13.1875 
L 23.1875 -13.1875 
Q 15.875 -1.703125 12.234375 9.375 
Q 8.59375 20.453125 8.59375 31.390625 
Q 8.59375 42.28125 12.203125 53.3125 
Q 15.828125 64.359375 23.1875 75.875 
z
" id="DejaVuSans-40"/>
      <path d="M 44.28125 53.078125 
L 44.28125 44.578125 
Q 40.484375 46.53125 36.375 47.5 
Q 32.28125 48.484375 27.875 48.484375 
Q 21.1875 48.484375 17.84375 46.4375 
Q 14.5 44.390625 14.5 40.28125 
Q 14.5 37.15625 16.890625 35.375 
Q 19.28125 33.59375 26.515625 31.984375 
L 29.59375 31.296875 
Q 39.15625 29.25 43.1875 25.515625 
Q 47.21875 21.78125 47.21875 15.09375 
Q 47.21875 7.46875 41.1875 3.015625 
Q 35.15625 -1.421875 24.609375 -1.421875 
Q 20.21875 -1.421875 15.453125 -0.5625 
Q 10.6875 0.296875 5.421875 2 
L 5.421875 11.28125 
Q 10.40625 8.6875 15.234375 7.390625 
Q 20.0625 6.109375 24.8125 6.109375 
Q 31.15625 6.109375 34.5625 8.28125 
Q 37.984375 10.453125 37.984375 14.40625 
Q 37.984375 18.0625 35.515625 20.015625 
Q 33.0625 21.96875 24.703125 23.78125 
L 21.578125 24.515625 
Q 13.234375 26.265625 9.515625 29.90625 
Q 5.8125 33.546875 5.8125 39.890625 
Q 5.8125 47.609375 11.28125 51.796875 
Q 16.75 56 26.8125 56 
Q 31.78125 56 36.171875 55.265625 
Q 40.578125 54.546875 44.28125 53.078125 
z
" id="DejaVuSans-115"/>
      <path d="M 8.015625 75.875 
L 15.828125 75.875 
Q 23.140625 64.359375 26.78125 53.3125 
Q 30.421875 42.28125 30.421875 31.390625 
Q 30.421875 20.453125 26.78125 9.375 
Q 23.140625 -1.703125 15.828125 -13.1875 
L 8.015625 -13.1875 
Q 14.5 -2 17.703125 9.0625 
Q 20.90625 20.125 20.90625 31.390625 
Q 20.90625 42.671875 17.703125 53.65625 
Q 14.5 64.65625 8.015625 75.875 
z
" id="DejaVuSans-41"/>
     </defs>
     <g transform="translate(211.513501 289.907114)scale(0.1 -0.1)">
      <use xlink:href="#DejaVuSans-84"/>
      <use x="44.083984" xlink:href="#DejaVuSans-101"/>
      <use x="105.607422" xlink:href="#DejaVuSans-109"/>
      <use x="203.019531" xlink:href="#DejaVuSans-112"/>
      <use x="266.496094" xlink:href="#DejaVuSans-111"/>
      <use x="327.677734" xlink:href="#DejaVuSans-32"/>
      <use x="359.464844" xlink:href="#DejaVuSans-40"/>
      <use x="398.478516" xlink:href="#DejaVuSans-115"/>
      <use x="450.578125" xlink:href="#DejaVuSans-41"/>
     </g>
    </g>
   </g>
   <g id="matplotlib.axis_2">
    <g id="ytick_1">
     <g id="line2d_17">
      <path clip-path="url(#p0231d3e60c)" d="M 56.597402 250.992799 
L 415.388976 250.992799 
" style="fill:none;stroke:#000000;stroke-dasharray:0.7,1.155;stroke-dashoffset:0;stroke-width:0.7;"/>
     </g>
     <g id="line2d_18">
      <defs>
       <path d="M 0 0 
L -3.5 0 
" id="m607e8c15e9" style="stroke:#000000;stroke-width:0.8;"/>
      </defs>
      <g>
       <use style="stroke:#000000;stroke-width:0.8;" x="56.597402" xlink:href="#m607e8c15e9" y="250.992799"/>
      </g>
     </g>
     <g id="text_10">
      <!-- 0.0 -->
      <defs>
       <path d="M 10.6875 12.40625 
L 21 12.40625 
L 21 0 
L 10.6875 0 
z
" id="DejaVuSans-46"/>
      </defs>
      <g transform="translate(33.694277 254.792018)scale(0.1 -0.1)">
       <use xlink:href="#DejaVuSans-48"/>
       <use x="63.623047" xlink:href="#DejaVuSans-46"/>
       <use x="95.410156" xlink:href="#DejaVuSans-48"/>
      </g>
     </g>
    </g>
    <g id="ytick_2">
     <g id="line2d_19">
      <path clip-path="url(#p0231d3e60c)" d="M 56.597402 222.625459 
L 415.388976 222.625459 
" style="fill:none;stroke:#000000;stroke-dasharray:0.7,1.155;stroke-dashoffset:0;stroke-width:0.7;"/>
     </g>
     <g id="line2d_20">
      <g>
       <use style="stroke:#000000;stroke-width:0.8;" x="56.597402" xlink:href="#m607e8c15e9" y="222.625459"/>
      </g>
     </g>
     <g id="text_11">
      <!-- 0.2 -->
      <g transform="translate(33.694277 226.424678)scale(0.1 -0.1)">
       <use xlink:href="#DejaVuSans-48"/>
       <use x="63.623047" xlink:href="#DejaVuSans-46"/>
       <use x="95.410156" xlink:href="#DejaVuSans-50"/>
      </g>
     </g>
    </g>
    <g id="ytick_3">
     <g id="line2d_21">
      <path clip-path="url(#p0231d3e60c)" d="M 56.597402 194.25812 
L 415.388976 194.25812 
" style="fill:none;stroke:#000000;stroke-dasharray:0.7,1.155;stroke-dashoffset:0;stroke-width:0.7;"/>
     </g>
     <g id="line2d_22">
      <g>
       <use style="stroke:#000000;stroke-width:0.8;" x="56.597402" xlink:href="#m607e8c15e9" y="194.25812"/>
      </g>
     </g>
     <g id="text_12">
      <!-- 0.4 -->
      <defs>
       <path d="M 37.796875 64.3125 
L 12.890625 25.390625 
L 37.796875 25.390625 
z
M 35.203125 72.90625 
L 47.609375 72.90625 
L 47.609375 25.390625 
L 58.015625 25.390625 
L 58.015625 17.1875 
L 47.609375 17.1875 
L 47.609375 0 
L 37.796875 0 
L 37.796875 17.1875 
L 4.890625 17.1875 
L 4.890625 26.703125 
z
" id="DejaVuSans-52"/>
      </defs>
      <g transform="translate(33.694277 198.057339)scale(0.1 -0.1)">
       <use xlink:href="#DejaVuSans-48"/>
       <use x="63.623047" xlink:href="#DejaVuSans-46"/>
       <use x="95.410156" xlink:href="#DejaVuSans-52"/>
      </g>
     </g>
    </g>
    <g id="ytick_4">
     <g id="line2d_23">
      <path clip-path="url(#p0231d3e60c)" d="M 56.597402 165.89078 
L 415.388976 165.89078 
" style="fill:none;stroke:#000000;stroke-dasharray:0.7,1.155;stroke-dashoffset:0;stroke-width:0.7;"/>
     </g>
     <g id="line2d_24">
      <g>
       <use style="stroke:#000000;stroke-width:0.8;" x="56.597402" xlink:href="#m607e8c15e9" y="165.89078"/>
      </g>
     </g>
     <g id="text_13">
      <!-- 0.6 -->
      <defs>
       <path d="M 33.015625 40.375 
Q 26.375 40.375 22.484375 35.828125 
Q 18.609375 31.296875 18.609375 23.390625 
Q 18.609375 15.53125 22.484375 10.953125 
Q 26.375 6.390625 33.015625 6.390625 
Q 39.65625 6.390625 43.53125 10.953125 
Q 47.40625 15.53125 47.40625 23.390625 
Q 47.40625 31.296875 43.53125 35.828125 
Q 39.65625 40.375 33.015625 40.375 
z
M 52.59375 71.296875 
L 52.59375 62.3125 
Q 48.875 64.0625 45.09375 64.984375 
Q 41.3125 65.921875 37.59375 65.921875 
Q 27.828125 65.921875 22.671875 59.328125 
Q 17.53125 52.734375 16.796875 39.40625 
Q 19.671875 43.65625 24.015625 45.921875 
Q 28.375 48.1875 33.59375 48.1875 
Q 44.578125 48.1875 50.953125 41.515625 
Q 57.328125 34.859375 57.328125 23.390625 
Q 57.328125 12.15625 50.6875 5.359375 
Q 44.046875 -1.421875 33.015625 -1.421875 
Q 20.359375 -1.421875 13.671875 8.265625 
Q 6.984375 17.96875 6.984375 36.375 
Q 6.984375 53.65625 15.1875 63.9375 
Q 23.390625 74.21875 37.203125 74.21875 
Q 40.921875 74.21875 44.703125 73.484375 
Q 48.484375 72.75 52.59375 71.296875 
z
" id="DejaVuSans-54"/>
      </defs>
      <g transform="translate(33.694277 169.689999)scale(0.1 -0.1)">
       <use xlink:href="#DejaVuSans-48"/>
       <use x="63.623047" xlink:href="#DejaVuSans-46"/>
       <use x="95.410156" xlink:href="#DejaVuSans-54"/>
      </g>
     </g>
    </g>
    <g id="ytick_5">
     <g id="line2d_25">
      <path clip-path="url(#p0231d3e60c)" d="M 56.597402 137.523441 
L 415.388976 137.523441 
" style="fill:none;stroke:#000000;stroke-dasharray:0.7,1.155;stroke-dashoffset:0;stroke-width:0.7;"/>
     </g>
     <g id="line2d_26">
      <g>
       <use style="stroke:#000000;stroke-width:0.8;" x="56.597402" xlink:href="#m607e8c15e9" y="137.523441"/>
      </g>
     </g>
     <g id="text_14">
      <!-- 0.8 -->
      <defs>
       <path d="M 31.78125 34.625 
Q 24.75 34.625 20.71875 30.859375 
Q 16.703125 27.09375 16.703125 20.515625 
Q 16.703125 13.921875 20.71875 10.15625 
Q 24.75 6.390625 31.78125 6.390625 
Q 38.8125 6.390625 42.859375 10.171875 
Q 46.921875 13.96875 46.921875 20.515625 
Q 46.921875 27.09375 42.890625 30.859375 
Q 38.875 34.625 31.78125 34.625 
z
M 21.921875 38.8125 
Q 15.578125 40.375 12.03125 44.71875 
Q 8.5 49.078125 8.5 55.328125 
Q 8.5 64.0625 14.71875 69.140625 
Q 20.953125 74.21875 31.78125 74.21875 
Q 42.671875 74.21875 48.875 69.140625 
Q 55.078125 64.0625 55.078125 55.328125 
Q 55.078125 49.078125 51.53125 44.71875 
Q 48 40.375 41.703125 38.8125 
Q 48.828125 37.15625 52.796875 32.3125 
Q 56.78125 27.484375 56.78125 20.515625 
Q 56.78125 9.90625 50.3125 4.234375 
Q 43.84375 -1.421875 31.78125 -1.421875 
Q 19.734375 -1.421875 13.25 4.234375 
Q 6.78125 9.90625 6.78125 20.515625 
Q 6.78125 27.484375 10.78125 32.3125 
Q 14.796875 37.15625 21.921875 38.8125 
z
M 18.3125 54.390625 
Q 18.3125 48.734375 21.84375 45.5625 
Q 25.390625 42.390625 31.78125 42.390625 
Q 38.140625 42.390625 41.71875 45.5625 
Q 45.3125 48.734375 45.3125 54.390625 
Q 45.3125 60.0625 41.71875 63.234375 
Q 38.140625 66.40625 31.78125 66.40625 
Q 25.390625 66.40625 21.84375 63.234375 
Q 18.3125 60.0625 18.3125 54.390625 
z
" id="DejaVuSans-56"/>
      </defs>
      <g transform="translate(33.694277 141.32266)scale(0.1 -0.1)">
       <use xlink:href="#DejaVuSans-48"/>
       <use x="63.623047" xlink:href="#DejaVuSans-46"/>
       <use x="95.410156" xlink:href="#DejaVuSans-56"/>
      </g>
     </g>
    </g>
    <g id="ytick_6">
     <g id="line2d_27">
      <path clip-path="url(#p0231d3e60c)" d="M 56.597402 109.156101 
L 415.388976 109.156101 
" style="fill:none;stroke:#000000;stroke-dasharray:0.7,1.155;stroke-dashoffset:0;stroke-width:0.7;"/>
     </g>
     <g id="line2d_28">
      <g>
       <use style="stroke:#000000;stroke-width:0.8;" x="56.597402" xlink:href="#m607e8c15e9" y="109.156101"/>
      </g>
     </g>
     <g id="text_15">
      <!-- 1.0 -->
      <g transform="translate(33.694277 112.95532)scale(0.1 -0.1)">
       <use xlink:href="#DejaVuSans-49"/>
       <use x="63.623047" xlink:href="#DejaVuSans-46"/>
       <use x="95.410156" xlink:href="#DejaVuSans-48"/>
      </g>
     </g>
    </g>
    <g id="ytick_7">
     <g id="line2d_29">
      <path clip-path="url(#p0231d3e60c)" d="M 56.597402 80.788762 
L 415.388976 80.788762 
" style="fill:none;stroke:#000000;stroke-dasharray:0.7,1.155;stroke-dashoffset:0;stroke-width:0.7;"/>
     </g>
     <g id="line2d_30">
      <g>
       <use style="stroke:#000000;stroke-width:0.8;" x="56.597402" xlink:href="#m607e8c15e9" y="80.788762"/>
      </g>
     </g>
     <g id="text_16">
      <!-- 1.2 -->
      <g transform="translate(33.694277 84.587981)scale(0.1 -0.1)">
       <use xlink:href="#DejaVuSans-49"/>
       <use x="63.623047" xlink:href="#DejaVuSans-46"/>
       <use x="95.410156" xlink:href="#DejaVuSans-50"/>
      </g>
     </g>
    </g>
    <g id="ytick_8">
     <g id="line2d_31">
      <path clip-path="url(#p0231d3e60c)" d="M 56.597402 52.421422 
L 415.388976 52.421422 
" style="fill:none;stroke:#000000;stroke-dasharray:0.7,1.155;stroke-dashoffset:0;stroke-width:0.7;"/>
     </g>
     <g id="line2d_32">
      <g>
       <use style="stroke:#000000;stroke-width:0.8;" x="56.597402" xlink:href="#m607e8c15e9" y="52.421422"/>
      </g>
     </g>
     <g id="text_17">
      <!-- 1.4 -->
      <g transform="translate(33.694277 56.220641)scale(0.1 -0.1)">
       <use xlink:href="#DejaVuSans-49"/>
       <use x="63.623047" xlink:href="#DejaVuSans-46"/>
       <use x="95.410156" xlink:href="#DejaVuSans-52"/>
      </g>
     </g>
    </g>
    <g id="text_18">
     <!-- Valor -->
     <defs>
      <path d="M 28.609375 0 
L 0.78125 72.90625 
L 11.078125 72.90625 
L 34.1875 11.53125 
L 57.328125 72.90625 
L 67.578125 72.90625 
L 39.796875 0 
z
" id="DejaVuSans-86"/>
      <path d="M 34.28125 27.484375 
Q 23.390625 27.484375 19.1875 25 
Q 14.984375 22.515625 14.984375 16.5 
Q 14.984375 11.71875 18.140625 8.90625 
Q 21.296875 6.109375 26.703125 6.109375 
Q 34.1875 6.109375 38.703125 11.40625 
Q 43.21875 16.703125 43.21875 25.484375 
L 43.21875 27.484375 
z
M 52.203125 31.203125 
L 52.203125 0 
L 43.21875 0 
L 43.21875 8.296875 
Q 40.140625 3.328125 35.546875 0.953125 
Q 30.953125 -1.421875 24.3125 -1.421875 
Q 15.921875 -1.421875 10.953125 3.296875 
Q 6 8.015625 6 15.921875 
Q 6 25.140625 12.171875 29.828125 
Q 18.359375 34.515625 30.609375 34.515625 
L 43.21875 34.515625 
L 43.21875 35.40625 
Q 43.21875 41.609375 39.140625 45 
Q 35.0625 48.390625 27.6875 48.390625 
Q 23 48.390625 18.546875 47.265625 
Q 14.109375 46.140625 10.015625 43.890625 
L 10.015625 52.203125 
Q 14.9375 54.109375 19.578125 55.046875 
Q 24.21875 56 28.609375 56 
Q 40.484375 56 46.34375 49.84375 
Q 52.203125 43.703125 52.203125 31.203125 
z
" id="DejaVuSans-97"/>
      <path d="M 9.421875 75.984375 
L 18.40625 75.984375 
L 18.40625 0 
L 9.421875 0 
z
" id="DejaVuSans-108"/>
      <path d="M 41.109375 46.296875 
Q 39.59375 47.171875 37.8125 47.578125 
Q 36.03125 48 33.890625 48 
Q 26.265625 48 22.1875 43.046875 
Q 18.109375 38.09375 18.109375 28.8125 
L 18.109375 0 
L 9.078125 0 
L 9.078125 54.6875 
L 18.109375 54.6875 
L 18.109375 46.1875 
Q 20.953125 51.171875 25.484375 53.578125 
Q 30.03125 56 36.53125 56 
Q 37.453125 56 38.578125 55.875 
Q 39.703125 55.765625 41.0625 55.515625 
z
" id="DejaVuSans-114"/>
     </defs>
     <g transform="translate(27.614589 157.216057)rotate(-90)scale(0.1 -0.1)">
      <use xlink:href="#DejaVuSans-86"/>
      <use x="60.658203" xlink:href="#DejaVuSans-97"/>
      <use x="121.9375" xlink:href="#DejaVuSans-108"/>
      <use x="149.720703" xlink:href="#DejaVuSans-111"/>
      <use x="210.902344" xlink:href="#DejaVuSans-114"/>
     </g>
    </g>
   </g>
   <g id="line2d_33">
    <path clip-path="url(#p0231d3e60c)" d="M 56.597402 250.992799 
L 57.046452 250.992799 
L 57.046452 245.821787 
L 57.495503 245.821787 
L 57.495503 218.284945 
L 57.944554 218.284945 
L 57.944554 192.083915 
L 58.393605 192.083915 
L 58.393605 169.972647 
L 58.842655 169.972647 
L 58.842655 151.3093 
L 59.291706 151.3093 
L 59.291706 135.648753 
L 59.740757 135.648753 
L 59.740757 122.61442 
L 60.189808 122.61442 
L 60.189808 111.877043 
L 60.638859 111.877043 
L 60.638859 103.146292 
L 61.087909 103.146292 
L 61.087909 96.16549 
L 61.53696 96.16549 
L 61.53696 90.707548 
L 61.986011 90.707548 
L 61.986011 86.571565 
L 62.435062 86.571565 
L 62.435062 83.579889 
L 62.884113 83.579889 
L 62.884113 81.575527 
L 63.333163 81.575527 
L 63.333163 80.41986 
L 63.782214 80.41986 
L 63.782214 79.990609 
L 64.231265 79.990609 
L 64.231265 80.180027 
L 64.680316 80.180027 
L 64.680316 80.893284 
L 65.129366 80.893284 
L 65.129366 82.047033 
L 65.578417 82.047033 
L 65.578417 83.568128 
L 66.027468 83.568128 
L 66.027468 85.39248 
L 66.476519 85.39248 
L 66.476519 87.464035 
L 66.92557 87.464035 
L 66.92557 89.733873 
L 67.37462 89.733873 
L 67.37462 92.159388 
L 67.823671 92.159388 
L 67.823671 94.703573 
L 68.272722 94.703573 
L 68.272722 97.334374 
L 68.721773 97.334374 
L 68.721773 100.024113 
L 69.170823 100.024113 
L 69.170823 102.748983 
L 69.619874 102.748983 
L 69.619874 105.48859 
L 70.068925 105.48859 
L 70.068925 108.22555 
L 70.517976 108.22555 
L 70.517976 110.945126 
L 70.967027 110.945126 
L 70.967027 113.634913 
L 71.416077 113.634913 
L 71.416077 116.284549 
L 71.865128 116.284549 
L 71.865128 118.885465 
L 72.314179 118.885465 
L 72.314179 121.430658 
L 72.76323 121.430658 
L 72.76323 123.914498 
L 73.212281 123.914498 
L 73.212281 126.332545 
L 73.661331 126.332545 
L 73.661331 128.681395 
L 74.110382 128.681395 
L 74.110382 130.958545 
L 74.559433 130.958545 
L 74.559433 133.162266 
L 75.008484 133.162266 
L 75.008484 135.291497 
L 75.457534 135.291497 
L 75.457534 137.345751 
L 75.906585 137.345751 
L 75.906585 139.325028 
L 76.355636 139.325028 
L 76.355636 141.229743 
L 76.804687 141.229743 
L 76.804687 143.060662 
L 77.253738 143.060662 
L 77.253738 144.818841 
L 77.702788 144.818841 
L 77.702788 146.505579 
L 78.151839 146.505579 
L 78.151839 148.122373 
L 78.60089 148.122373 
L 78.60089 149.670881 
L 79.049941 149.670881 
L 79.049941 151.152887 
L 79.498991 151.152887 
L 79.498991 152.57027 
L 79.948042 152.57027 
L 79.948042 153.924986 
L 80.397093 153.924986 
L 80.397093 155.219038 
L 80.846144 155.219038 
L 80.846144 156.454462 
L 81.295195 156.454462 
L 81.295195 157.63331 
L 81.744245 157.63331 
L 81.744245 158.757634 
L 82.193296 158.757634 
L 82.193296 159.82948 
L 82.642347 159.82948 
L 82.642347 160.850871 
L 83.091398 160.850871 
L 83.091398 161.823805 
L 83.540448 161.823805 
L 83.540448 162.750243 
L 83.989499 162.750243 
L 83.989499 163.632107 
L 84.43855 163.632107 
L 84.43855 164.471275 
L 84.887601 164.471275 
L 84.887601 165.269575 
L 85.336652 165.269575 
L 85.336652 166.028786 
L 85.785702 166.028786 
L 85.785702 166.750631 
L 86.234753 166.750631 
L 86.234753 167.436781 
L 86.683804 167.436781 
L 86.683804 168.08885 
L 87.132855 168.08885 
L 87.132855 168.708396 
L 87.581906 168.708396 
L 87.581906 169.296921 
L 88.030956 169.296921 
L 88.030956 169.855871 
L 88.480007 169.855871 
L 88.480007 170.386635 
L 88.929058 170.386635 
L 88.929058 170.890551 
L 89.378109 170.890551 
L 89.378109 171.368899 
L 89.827159 171.368899 
L 89.827159 171.822907 
L 90.27621 171.822907 
L 90.27621 172.253754 
L 90.725261 172.253754 
L 90.725261 172.662567 
L 91.174312 172.662567 
L 91.174312 173.050422 
L 91.623363 173.050422 
L 91.623363 173.418352 
L 92.072413 173.418352 
L 92.072413 173.76734 
L 92.521464 173.76734 
L 92.521464 174.098327 
L 92.970515 174.098327 
L 92.970515 174.412209 
L 93.419566 174.412209 
L 93.419566 174.709844 
L 93.868616 174.709844 
L 93.868616 174.992046 
L 94.317667 174.992046 
L 94.317667 175.259594 
L 94.766718 175.259594 
L 94.766718 175.513228 
L 95.215769 175.513228 
L 95.215769 175.753655 
L 95.66482 175.753655 
L 95.66482 175.981545 
L 96.11387 175.981545 
L 96.11387 176.197539 
L 96.562921 176.197539 
L 96.562921 176.402244 
L 97.011972 176.402244 
L 97.011972 176.596238 
L 97.461023 176.596238 
L 97.461023 176.780073 
L 97.910074 176.780073 
L 97.910074 176.95427 
L 98.359124 176.95427 
L 98.359124 177.119327 
L 98.808175 177.119327 
L 98.808175 177.275716 
L 99.257226 177.275716 
L 99.257226 177.423886 
L 99.706277 177.423886 
L 99.706277 177.564262 
L 100.155327 177.564262 
L 100.155327 177.697249 
L 100.604378 177.697249 
L 100.604378 177.823231 
L 101.053429 177.823231 
L 101.053429 177.942574 
L 101.50248 177.942574 
L 101.50248 178.055622 
L 102.400581 178.162705 
L 102.400581 178.264135 
L 103.298683 178.360207 
L 103.298683 178.451201 
L 104.196784 178.537385 
L 104.196784 178.619009 
L 105.094886 178.696314 
L 105.094886 178.769527 
L 105.992988 178.838862 
L 105.992988 178.904525 
L 106.891089 178.966707 
L 106.891089 179.025594 
L 108.238242 179.134164 
L 108.238242 179.184168 
L 109.585394 179.276357 
L 109.585394 179.318814 
L 110.932546 179.397084 
L 110.932546 179.433129 
L 112.728749 179.530174 
L 112.728749 179.559146 
L 114.974003 179.660427 
L 114.974003 179.682472 
L 118.117359 179.792185 
L 118.117359 179.807219 
L 122.607867 179.911177 
L 122.607867 179.919876 
L 133.385085 180.030582 
L 133.385085 180.032919 
L 147.30566 180.066419 
L 147.30566 172.709635 
L 147.75471 172.709635 
L 147.75471 166.11605 
L 148.203761 166.11605 
L 148.203761 160.206493 
L 148.652812 160.206493 
L 148.652812 154.910003 
L 149.101863 154.910003 
L 149.101863 150.162983 
L 149.550913 150.162983 
L 149.550913 145.908431 
L 149.999964 145.908431 
L 149.999964 142.095261 
L 150.449015 142.095261 
L 150.449015 138.677683 
L 150.898066 138.677683 
L 150.898066 135.614659 
L 151.347117 135.614659 
L 151.347117 132.869408 
L 151.796167 132.869408 
L 151.796167 130.408965 
L 152.245218 130.408965 
L 152.245218 128.203783 
L 152.694269 128.203783 
L 152.694269 126.227383 
L 153.14332 126.227383 
L 153.14332 124.456029 
L 153.59237 124.456029 
L 153.59237 122.86845 
L 154.041421 122.86845 
L 154.041421 121.445581 
L 154.490472 121.445581 
L 154.490472 120.170335 
L 154.939523 120.170335 
L 154.939523 119.027397 
L 155.388574 119.027397 
L 155.388574 118.003041 
L 155.837624 118.003041 
L 155.837624 117.084965 
L 156.286675 117.084965 
L 156.286675 116.262143 
L 156.735726 116.262143 
L 156.735726 115.524694 
L 157.184777 115.524694 
L 157.184777 114.863759 
L 157.633828 114.863759 
L 157.633828 114.271401 
L 158.082878 114.271401 
L 158.082878 113.740506 
L 158.531929 113.740506 
L 158.531929 113.264697 
L 158.98098 113.264697 
L 158.98098 112.838259 
L 159.430031 112.838259 
L 159.430031 112.456069 
L 159.879081 112.456069 
L 159.879081 112.113538 
L 160.328132 112.113538 
L 160.328132 111.80655 
L 160.777183 111.80655 
L 160.777183 111.531417 
L 161.226234 111.531417 
L 161.226234 111.284836 
L 161.675285 111.284836 
L 161.675285 111.063843 
L 162.124335 111.063843 
L 162.124335 110.865783 
L 162.573386 110.865783 
L 162.573386 110.688278 
L 163.022437 110.688278 
L 163.022437 110.529194 
L 163.471488 110.529194 
L 163.471488 110.38662 
L 163.920538 110.38662 
L 163.920538 110.258844 
L 164.369589 110.258844 
L 164.369589 110.144329 
L 165.267691 110.041699 
L 165.267691 109.949722 
L 166.165792 109.867292 
L 166.165792 109.793419 
L 167.063894 109.727214 
L 167.063894 109.667881 
L 168.411046 109.567056 
L 168.411046 109.52435 
L 170.207249 109.421046 
L 170.207249 109.393502 
L 172.901554 109.293193 
L 172.901554 109.278929 
L 182.780671 109.168241 
L 182.780671 109.166968 
L 237.115816 109.156101 
L 237.115816 112.834664 
L 237.564867 112.834664 
L 237.564867 116.131621 
L 238.013917 116.131621 
L 238.013917 119.08656 
L 238.462968 119.08656 
L 238.462968 121.734959 
L 238.912019 121.734959 
L 238.912019 124.108618 
L 239.36107 124.108618 
L 239.36107 126.236038 
L 239.810121 126.236038 
L 239.810121 128.142761 
L 240.259171 128.142761 
L 240.259171 129.851684 
L 240.708222 129.851684 
L 240.708222 131.383324 
L 241.157273 131.383324 
L 241.157273 132.756073 
L 241.606324 132.756073 
L 241.606324 133.986413 
L 242.055375 133.986413 
L 242.055375 135.089118 
L 242.504425 135.089118 
L 242.504425 136.077427 
L 242.953476 136.077427 
L 242.953476 136.963209 
L 243.402527 136.963209 
L 243.402527 137.757098 
L 243.851578 137.757098 
L 243.851578 138.468629 
L 244.300628 138.468629 
L 244.300628 139.106343 
L 244.749679 139.106343 
L 244.749679 139.6779 
L 245.19873 139.6779 
L 245.19873 140.190162 
L 245.647781 140.190162 
L 245.647781 140.64928 
L 246.096832 140.64928 
L 246.096832 141.060768 
L 246.545882 141.060768 
L 246.545882 141.429566 
L 246.994933 141.429566 
L 246.994933 141.760103 
L 247.443984 141.760103 
L 247.443984 142.056348 
L 247.893035 142.056348 
L 247.893035 142.321859 
L 248.342085 142.321859 
L 248.342085 142.559824 
L 248.791136 142.559824 
L 248.791136 142.773101 
L 249.240187 142.773101 
L 249.240187 142.964251 
L 249.689238 142.964251 
L 249.689238 143.135569 
L 250.138289 143.135569 
L 250.138289 143.289113 
L 250.587339 143.289113 
L 250.587339 143.426726 
L 251.03639 143.426726 
L 251.03639 143.550062 
L 251.934492 143.660602 
L 251.934492 143.759672 
L 252.832593 143.848464 
L 252.832593 143.928043 
L 253.730695 143.999365 
L 253.730695 144.063287 
L 255.077847 144.171921 
L 255.077847 144.217938 
L 256.425 144.296143 
L 256.425 144.32927 
L 258.670253 144.430788 
L 258.670253 144.449942 
L 263.609812 144.560052 
L 263.609812 144.56579 
L 326.925972 144.615276 
L 326.925972 133.579618 
L 327.375023 133.579618 
L 327.375023 123.688772 
L 327.824074 123.688772 
L 327.824074 114.823981 
L 328.273125 114.823981 
L 328.273125 106.878807 
L 328.722175 106.878807 
L 328.722175 99.75785 
L 329.171226 99.75785 
L 329.171226 93.375611 
L 329.620277 93.375611 
L 329.620277 87.655457 
L 330.069328 87.655457 
L 330.069328 82.528706 
L 330.518379 82.528706 
L 330.518379 77.9338 
L 330.967429 77.9338 
L 330.967429 73.815567 
L 331.41648 73.815567 
L 331.41648 70.124558 
L 331.865531 70.124558 
L 331.865531 66.816454 
L 332.314582 66.816454 
L 332.314582 63.851534 
L 332.763632 63.851534 
L 332.763632 61.194196 
L 333.212683 61.194196 
L 333.212683 58.812533 
L 333.661734 58.812533 
L 333.661734 56.677946 
L 334.110785 56.677946 
L 334.110785 54.764805 
L 334.559836 54.764805 
L 334.559836 53.050136 
L 335.008886 53.050136 
L 335.008886 51.513352 
L 335.457937 51.513352 
L 335.457937 50.135997 
L 335.906988 50.135997 
L 335.906988 48.901533 
L 336.356039 48.901533 
L 336.356039 47.795138 
L 336.80509 47.795138 
L 336.80509 46.803524 
L 337.25414 46.803524 
L 337.25414 45.914785 
L 337.703191 45.914785 
L 337.703191 45.118248 
L 338.152242 45.118248 
L 338.152242 44.404348 
L 338.601293 44.404348 
L 338.601293 43.764513 
L 339.050343 43.764513 
L 339.050343 43.191059 
L 339.499394 43.191059 
L 339.499394 42.677099 
L 339.948445 42.677099 
L 339.948445 42.216462 
L 340.397496 42.216462 
L 340.397496 41.803615 
L 340.846547 41.803615 
L 340.846547 41.433602 
L 341.295597 41.433602 
L 341.295597 41.101977 
L 341.744648 41.101977 
L 341.744648 40.804759 
L 342.193699 40.804759 
L 342.193699 40.538378 
L 342.64275 40.538378 
L 342.64275 40.299635 
L 343.0918 40.299635 
L 343.0918 40.085663 
L 343.540851 40.085663 
L 343.540851 39.893891 
L 343.989902 39.893891 
L 343.989902 39.722018 
L 344.438953 39.722018 
L 344.438953 39.567977 
L 344.888004 39.567977 
L 344.888004 39.42992 
L 345.337054 39.42992 
L 345.337054 39.306187 
L 346.235156 39.195293 
L 346.235156 39.095906 
L 347.133258 39.006832 
L 347.133258 38.927001 
L 348.031359 38.855454 
L 348.031359 38.791332 
L 349.378511 38.682358 
L 349.378511 38.636199 
L 350.725664 38.557754 
L 350.725664 38.524526 
L 352.970918 38.422704 
L 352.970918 38.403493 
L 357.910476 38.293075 
L 357.910476 38.287323 
L 415.388976 38.237752 
L 415.388976 38.237752 
" style="fill:none;stroke:#0000ff;stroke-linecap:square;"/>
   </g>
   <g id="line2d_34">
    <path clip-path="url(#p0231d3e60c)" d="M 56.597402 180.07445 
L 146.856609 180.07445 
L 146.856609 109.156101 
L 236.666765 109.156101 
L 236.666765 144.615276 
L 326.476922 144.615276 
L 326.476922 38.237753 
L 415.388976 38.237753 
L 415.388976 38.237753 
" style="fill:none;stroke:#008000;stroke-dasharray:3.7,1.6;stroke-dashoffset:0;"/>
   </g>
   <g id="patch_3">
    <path d="M 56.597402 261.630551 
L 56.597402 27.6 
" style="fill:none;stroke:#000000;stroke-linecap:square;stroke-linejoin:miter;stroke-width:0.8;"/>
   </g>
   <g id="patch_4">
    <path d="M 415.388976 261.630551 
L 415.388976 27.6 
" style="fill:none;stroke:#000000;stroke-linecap:square;stroke-linejoin:miter;stroke-width:0.8;"/>
   </g>
   <g id="patch_5">
    <path d="M 56.597402 261.630551 
L 415.388976 261.630551 
" style="fill:none;stroke:#000000;stroke-linecap:square;stroke-linejoin:miter;stroke-width:0.8;"/>
   </g>
   <g id="patch_6">
    <path d="M 56.597402 27.6 
L 415.388976 27.6 
" style="fill:none;stroke:#000000;stroke-linecap:square;stroke-linejoin:miter;stroke-width:0.8;"/>
   </g>
   <g id="text_19">
    <!-- Saída do sistema em malha fechada -->
    <defs>
     <path d="M 53.515625 70.515625 
L 53.515625 60.890625 
Q 47.90625 63.578125 42.921875 64.890625 
Q 37.9375 66.21875 33.296875 66.21875 
Q 25.25 66.21875 20.875 63.09375 
Q 16.5 59.96875 16.5 54.203125 
Q 16.5 49.359375 19.40625 46.890625 
Q 22.3125 44.4375 30.421875 42.921875 
L 36.375 41.703125 
Q 47.40625 39.59375 52.65625 34.296875 
Q 57.90625 29 57.90625 20.125 
Q 57.90625 9.515625 50.796875 4.046875 
Q 43.703125 -1.421875 29.984375 -1.421875 
Q 24.8125 -1.421875 18.96875 -0.25 
Q 13.140625 0.921875 6.890625 3.21875 
L 6.890625 13.375 
Q 12.890625 10.015625 18.65625 8.296875 
Q 24.421875 6.59375 29.984375 6.59375 
Q 38.421875 6.59375 43.015625 9.90625 
Q 47.609375 13.234375 47.609375 19.390625 
Q 47.609375 24.75 44.3125 27.78125 
Q 41.015625 30.8125 33.5 32.328125 
L 27.484375 33.5 
Q 16.453125 35.6875 11.515625 40.375 
Q 6.59375 45.0625 6.59375 53.421875 
Q 6.59375 63.09375 13.40625 68.65625 
Q 20.21875 74.21875 32.171875 74.21875 
Q 37.3125 74.21875 42.625 73.28125 
Q 47.953125 72.359375 53.515625 70.515625 
z
" id="DejaVuSans-83"/>
     <path d="M 20.703125 79.984375 
L 30.421875 79.984375 
L 14.5 61.625 
L 7.03125 61.625 
z
M 9.421875 54.6875 
L 18.40625 54.6875 
L 18.40625 0 
L 9.421875 0 
z
M 13.921875 56 
z
" id="DejaVuSans-237"/>
     <path d="M 45.40625 46.390625 
L 45.40625 75.984375 
L 54.390625 75.984375 
L 54.390625 0 
L 45.40625 0 
L 45.40625 8.203125 
Q 42.578125 3.328125 38.25 0.953125 
Q 33.9375 -1.421875 27.875 -1.421875 
Q 17.96875 -1.421875 11.734375 6.484375 
Q 5.515625 14.40625 5.515625 27.296875 
Q 5.515625 40.1875 11.734375 48.09375 
Q 17.96875 56 27.875 56 
Q 33.9375 56 38.25 53.625 
Q 42.578125 51.265625 45.40625 46.390625 
z
M 14.796875 27.296875 
Q 14.796875 17.390625 18.875 11.75 
Q 22.953125 6.109375 30.078125 6.109375 
Q 37.203125 6.109375 41.296875 11.75 
Q 45.40625 17.390625 45.40625 27.296875 
Q 45.40625 37.203125 41.296875 42.84375 
Q 37.203125 48.484375 30.078125 48.484375 
Q 22.953125 48.484375 18.875 42.84375 
Q 14.796875 37.203125 14.796875 27.296875 
z
" id="DejaVuSans-100"/>
     <path d="M 9.421875 54.6875 
L 18.40625 54.6875 
L 18.40625 0 
L 9.421875 0 
z
M 9.421875 75.984375 
L 18.40625 75.984375 
L 18.40625 64.59375 
L 9.421875 64.59375 
z
" id="DejaVuSans-105"/>
     <path d="M 18.3125 70.21875 
L 18.3125 54.6875 
L 36.8125 54.6875 
L 36.8125 47.703125 
L 18.3125 47.703125 
L 18.3125 18.015625 
Q 18.3125 11.328125 20.140625 9.421875 
Q 21.96875 7.515625 27.59375 7.515625 
L 36.8125 7.515625 
L 36.8125 0 
L 27.59375 0 
Q 17.1875 0 13.234375 3.875 
Q 9.28125 7.765625 9.28125 18.015625 
L 9.28125 47.703125 
L 2.6875 47.703125 
L 2.6875 54.6875 
L 9.28125 54.6875 
L 9.28125 70.21875 
z
" id="DejaVuSans-116"/>
     <path d="M 54.890625 33.015625 
L 54.890625 0 
L 45.90625 0 
L 45.90625 32.71875 
Q 45.90625 40.484375 42.875 44.328125 
Q 39.84375 48.1875 33.796875 48.1875 
Q 26.515625 48.1875 22.3125 43.546875 
Q 18.109375 38.921875 18.109375 30.90625 
L 18.109375 0 
L 9.078125 0 
L 9.078125 75.984375 
L 18.109375 75.984375 
L 18.109375 46.1875 
Q 21.34375 51.125 25.703125 53.5625 
Q 30.078125 56 35.796875 56 
Q 45.21875 56 50.046875 50.171875 
Q 54.890625 44.34375 54.890625 33.015625 
z
" id="DejaVuSans-104"/>
     <path d="M 37.109375 75.984375 
L 37.109375 68.5 
L 28.515625 68.5 
Q 23.6875 68.5 21.796875 66.546875 
Q 19.921875 64.59375 19.921875 59.515625 
L 19.921875 54.6875 
L 34.71875 54.6875 
L 34.71875 47.703125 
L 19.921875 47.703125 
L 19.921875 0 
L 10.890625 0 
L 10.890625 47.703125 
L 2.296875 47.703125 
L 2.296875 54.6875 
L 10.890625 54.6875 
L 10.890625 58.5 
Q 10.890625 67.625 15.140625 71.796875 
Q 19.390625 75.984375 28.609375 75.984375 
z
" id="DejaVuSans-102"/>
     <path d="M 48.78125 52.59375 
L 48.78125 44.1875 
Q 44.96875 46.296875 41.140625 47.34375 
Q 37.3125 48.390625 33.40625 48.390625 
Q 24.65625 48.390625 19.8125 42.84375 
Q 14.984375 37.3125 14.984375 27.296875 
Q 14.984375 17.28125 19.8125 11.734375 
Q 24.65625 6.203125 33.40625 6.203125 
Q 37.3125 6.203125 41.140625 7.25 
Q 44.96875 8.296875 48.78125 10.40625 
L 48.78125 2.09375 
Q 45.015625 0.34375 40.984375 -0.53125 
Q 36.96875 -1.421875 32.421875 -1.421875 
Q 20.0625 -1.421875 12.78125 6.34375 
Q 5.515625 14.109375 5.515625 27.296875 
Q 5.515625 40.671875 12.859375 48.328125 
Q 20.21875 56 33.015625 56 
Q 37.15625 56 41.109375 55.140625 
Q 45.0625 54.296875 48.78125 52.59375 
z
" id="DejaVuSans-99"/>
    </defs>
    <g transform="translate(108.349283 21.6)scale(0.14 -0.14)">
     <use xlink:href="#DejaVuSans-83"/>
     <use x="63.476562" xlink:href="#DejaVuSans-97"/>
     <use x="124.755859" xlink:href="#DejaVuSans-237"/>
     <use x="152.539062" xlink:href="#DejaVuSans-100"/>
     <use x="216.015625" xlink:href="#DejaVuSans-97"/>
     <use x="277.294922" xlink:href="#DejaVuSans-32"/>
     <use x="309.082031" xlink:href="#DejaVuSans-100"/>
     <use x="372.558594" xlink:href="#DejaVuSans-111"/>
     <use x="433.740234" xlink:href="#DejaVuSans-32"/>
     <use x="465.527344" xlink:href="#DejaVuSans-115"/>
     <use x="517.626953" xlink:href="#DejaVuSans-105"/>
     <use x="545.410156" xlink:href="#DejaVuSans-115"/>
     <use x="597.509766" xlink:href="#DejaVuSans-116"/>
     <use x="636.71875" xlink:href="#DejaVuSans-101"/>
     <use x="698.242188" xlink:href="#DejaVuSans-109"/>
     <use x="795.654297" xlink:href="#DejaVuSans-97"/>
     <use x="856.933594" xlink:href="#DejaVuSans-32"/>
     <use x="888.720703" xlink:href="#DejaVuSans-101"/>
     <use x="950.244141" xlink:href="#DejaVuSans-109"/>
     <use x="1047.65625" xlink:href="#DejaVuSans-32"/>
     <use x="1079.443359" xlink:href="#DejaVuSans-109"/>
     <use x="1176.855469" xlink:href="#DejaVuSans-97"/>
     <use x="1238.134766" xlink:href="#DejaVuSans-108"/>
     <use x="1265.917969" xlink:href="#DejaVuSans-104"/>
     <use x="1329.296875" xlink:href="#DejaVuSans-97"/>
     <use x="1390.576172" xlink:href="#DejaVuSans-32"/>
     <use x="1422.363281" xlink:href="#DejaVuSans-102"/>
     <use x="1457.568359" xlink:href="#DejaVuSans-101"/>
     <use x="1519.091797" xlink:href="#DejaVuSans-99"/>
     <use x="1574.072266" xlink:href="#DejaVuSans-104"/>
     <use x="1637.451172" xlink:href="#DejaVuSans-97"/>
     <use x="1698.730469" xlink:href="#DejaVuSans-100"/>
     <use x="1762.207031" xlink:href="#DejaVuSans-97"/>
    </g>
   </g>
   <g id="legend_1">
    <g id="patch_7">
     <path d="M 63.597402 64.95625 
L 189.319277 64.95625 
Q 191.319277 64.95625 191.319277 62.95625 
L 191.319277 34.6 
Q 191.319277 32.6 189.319277 32.6 
L 63.597402 32.6 
Q 61.597402 32.6 61.597402 34.6 
L 61.597402 62.95625 
Q 61.597402 64.95625 63.597402 64.95625 
z
" style="fill:#ffffff;opacity:0.8;stroke:#cccccc;stroke-linejoin:miter;"/>
    </g>
    <g id="line2d_35">
     <path d="M 65.597402 40.698438 
L 85.597402 40.698438 
" style="fill:none;stroke:#0000ff;stroke-linecap:square;"/>
    </g>
    <g id="line2d_36"/>
    <g id="text_20">
     <!-- Saída -->
     <g transform="translate(93.597402 44.198438)scale(0.1 -0.1)">
      <use xlink:href="#DejaVuSans-83"/>
      <use x="63.476562" xlink:href="#DejaVuSans-97"/>
      <use x="124.755859" xlink:href="#DejaVuSans-237"/>
      <use x="152.539062" xlink:href="#DejaVuSans-100"/>
      <use x="216.015625" xlink:href="#DejaVuSans-97"/>
     </g>
    </g>
    <g id="line2d_37">
     <path d="M 65.597402 55.376563 
L 85.597402 55.376563 
" style="fill:none;stroke:#008000;stroke-dasharray:3.7,1.6;stroke-dashoffset:0;"/>
    </g>
    <g id="line2d_38"/>
    <g id="text_21">
     <!-- Sinal de referência -->
     <defs>
      <path d="M 54.890625 33.015625 
L 54.890625 0 
L 45.90625 0 
L 45.90625 32.71875 
Q 45.90625 40.484375 42.875 44.328125 
Q 39.84375 48.1875 33.796875 48.1875 
Q 26.515625 48.1875 22.3125 43.546875 
Q 18.109375 38.921875 18.109375 30.90625 
L 18.109375 0 
L 9.078125 0 
L 9.078125 54.6875 
L 18.109375 54.6875 
L 18.109375 46.1875 
Q 21.34375 51.125 25.703125 53.5625 
Q 30.078125 56 35.796875 56 
Q 45.21875 56 50.046875 50.171875 
Q 54.890625 44.34375 54.890625 33.015625 
z
" id="DejaVuSans-110"/>
      <path d="M 56.203125 29.59375 
L 56.203125 25.203125 
L 14.890625 25.203125 
Q 15.484375 15.921875 20.484375 11.0625 
Q 25.484375 6.203125 34.421875 6.203125 
Q 39.59375 6.203125 44.453125 7.46875 
Q 49.3125 8.734375 54.109375 11.28125 
L 54.109375 2.78125 
Q 49.265625 0.734375 44.1875 -0.34375 
Q 39.109375 -1.421875 33.890625 -1.421875 
Q 20.796875 -1.421875 13.15625 6.1875 
Q 5.515625 13.8125 5.515625 26.8125 
Q 5.515625 40.234375 12.765625 48.109375 
Q 20.015625 56 32.328125 56 
Q 43.359375 56 49.78125 48.890625 
Q 56.203125 41.796875 56.203125 29.59375 
z
M 47.21875 32.234375 
Q 47.125 39.59375 43.09375 43.984375 
Q 39.0625 48.390625 32.421875 48.390625 
Q 24.90625 48.390625 20.390625 44.140625 
Q 15.875 39.890625 15.1875 32.171875 
z
M 28.171875 79.984375 
L 35.40625 79.984375 
L 47.359375 61.625 
L 40.578125 61.625 
L 31.78125 73.578125 
L 23 61.625 
L 16.21875 61.625 
z
" id="DejaVuSans-234"/>
     </defs>
     <g transform="translate(93.597402 58.876563)scale(0.1 -0.1)">
      <use xlink:href="#DejaVuSans-83"/>
      <use x="63.476562" xlink:href="#DejaVuSans-105"/>
      <use x="91.259766" xlink:href="#DejaVuSans-110"/>
      <use x="154.638672" xlink:href="#DejaVuSans-97"/>
      <use x="215.917969" xlink:href="#DejaVuSans-108"/>
      <use x="243.701172" xlink:href="#DejaVuSans-32"/>
      <use x="275.488281" xlink:href="#DejaVuSans-100"/>
      <use x="338.964844" xlink:href="#DejaVuSans-101"/>
      <use x="400.488281" xlink:href="#DejaVuSans-32"/>
      <use x="432.275391" xlink:href="#DejaVuSans-114"/>
      <use x="471.138672" xlink:href="#DejaVuSans-101"/>
      <use x="532.662109" xlink:href="#DejaVuSans-102"/>
      <use x="567.867188" xlink:href="#DejaVuSans-101"/>
      <use x="629.390625" xlink:href="#DejaVuSans-114"/>
      <use x="668.253906" xlink:href="#DejaVuSans-234"/>
      <use x="729.777344" xlink:href="#DejaVuSans-110"/>
      <use x="793.15625" xlink:href="#DejaVuSans-99"/>
      <use x="848.136719" xlink:href="#DejaVuSans-105"/>
      <use x="875.919922" xlink:href="#DejaVuSans-97"/>
     </g>
    </g>
   </g>
  </g>
 </g>
 <defs>
  <clipPath id="p0231d3e60c">
   <rect height="234.030551" width="358.791575" x="56.597402" y="27.6"/>
  </clipPath>
 </defs>
</svg>
