<?xml version="1.0" encoding="utf-8" standalone="no"?>
<!DOCTYPE svg PUBLIC "-//W3C//DTD SVG 1.1//EN"
  "http://www.w3.org/Graphics/SVG/1.1/DTD/svg11.dtd">
<!-- Created with matplotlib (https://matplotlib.org/) -->
<svg height="297.637795pt" version="1.1" viewBox="0 0 439.370079 297.637795" width="439.370079pt" xmlns="http://www.w3.org/2000/svg" xmlns:xlink="http://www.w3.org/1999/xlink">
 <defs>
  <style type="text/css">
*{stroke-linecap:butt;stroke-linejoin:round;}
  </style>
 </defs>
 <g id="figure_1">
  <g id="patch_1">
   <path d="M 0 297.637795 
L 439.370079 297.637795 
L 439.370079 0 
L 0 0 
z
" style="fill:#ffffff;"/>
  </g>
  <g id="axes_1">
   <g id="patch_2">
    <path d="M 56.597402 261.630551 
L 415.388976 261.630551 
L 415.388976 27.6 
L 56.597402 27.6 
z
" style="fill:#ffffff;"/>
   </g>
   <g id="matplotlib.axis_1">
    <g id="xtick_1">
     <g id="line2d_1">
      <path clip-path="url(#p9fcfc12036)" d="M 56.597402 261.630551 
L 56.597402 27.6 
" style="fill:none;stroke:#000000;stroke-dasharray:0.7,1.155;stroke-dashoffset:0;stroke-width:0.7;"/>
     </g>
     <g id="line2d_2">
      <defs>
       <path d="M 0 0 
L 0 3.5 
" id="m91e26d984c" style="stroke:#000000;stroke-width:0.8;"/>
      </defs>
      <g>
       <use style="stroke:#000000;stroke-width:0.8;" x="56.597402" xlink:href="#m91e26d984c" y="261.630551"/>
      </g>
     </g>
     <g id="text_1">
      <!-- 0 -->
      <defs>
       <path d="M 31.78125 66.40625 
Q 24.171875 66.40625 20.328125 58.90625 
Q 16.5 51.421875 16.5 36.375 
Q 16.5 21.390625 20.328125 13.890625 
Q 24.171875 6.390625 31.78125 6.390625 
Q 39.453125 6.390625 43.28125 13.890625 
Q 47.125 21.390625 47.125 36.375 
Q 47.125 51.421875 43.28125 58.90625 
Q 39.453125 66.40625 31.78125 66.40625 
z
M 31.78125 74.21875 
Q 44.046875 74.21875 50.515625 64.515625 
Q 56.984375 54.828125 56.984375 36.375 
Q 56.984375 17.96875 50.515625 8.265625 
Q 44.046875 -1.421875 31.78125 -1.421875 
Q 19.53125 -1.421875 13.0625 8.265625 
Q 6.59375 17.96875 6.59375 36.375 
Q 6.59375 54.828125 13.0625 64.515625 
Q 19.53125 74.21875 31.78125 74.21875 
z
" id="DejaVuSans-48"/>
      </defs>
      <g transform="translate(53.416152 276.228989)scale(0.1 -0.1)">
       <use xlink:href="#DejaVuSans-48"/>
      </g>
     </g>
    </g>
    <g id="xtick_2">
     <g id="line2d_3">
      <path clip-path="url(#p9fcfc12036)" d="M 101.50248 261.630551 
L 101.50248 27.6 
" style="fill:none;stroke:#000000;stroke-dasharray:0.7,1.155;stroke-dashoffset:0;stroke-width:0.7;"/>
     </g>
     <g id="line2d_4">
      <g>
       <use style="stroke:#000000;stroke-width:0.8;" x="101.50248" xlink:href="#m91e26d984c" y="261.630551"/>
      </g>
     </g>
     <g id="text_2">
      <!-- 5 -->
      <defs>
       <path d="M 10.796875 72.90625 
L 49.515625 72.90625 
L 49.515625 64.59375 
L 19.828125 64.59375 
L 19.828125 46.734375 
Q 21.96875 47.46875 24.109375 47.828125 
Q 26.265625 48.1875 28.421875 48.1875 
Q 40.625 48.1875 47.75 41.5 
Q 54.890625 34.8125 54.890625 23.390625 
Q 54.890625 11.625 47.5625 5.09375 
Q 40.234375 -1.421875 26.90625 -1.421875 
Q 22.3125 -1.421875 17.546875 -0.640625 
Q 12.796875 0.140625 7.71875 1.703125 
L 7.71875 11.625 
Q 12.109375 9.234375 16.796875 8.0625 
Q 21.484375 6.890625 26.703125 6.890625 
Q 35.15625 6.890625 40.078125 11.328125 
Q 45.015625 15.765625 45.015625 23.390625 
Q 45.015625 31 40.078125 35.4375 
Q 35.15625 39.890625 26.703125 39.890625 
Q 22.75 39.890625 18.8125 39.015625 
Q 14.890625 38.140625 10.796875 36.28125 
z
" id="DejaVuSans-53"/>
      </defs>
      <g transform="translate(98.32123 276.228989)scale(0.1 -0.1)">
       <use xlink:href="#DejaVuSans-53"/>
      </g>
     </g>
    </g>
    <g id="xtick_3">
     <g id="line2d_5">
      <path clip-path="url(#p9fcfc12036)" d="M 146.407558 261.630551 
L 146.407558 27.6 
" style="fill:none;stroke:#000000;stroke-dasharray:0.7,1.155;stroke-dashoffset:0;stroke-width:0.7;"/>
     </g>
     <g id="line2d_6">
      <g>
       <use style="stroke:#000000;stroke-width:0.8;" x="146.407558" xlink:href="#m91e26d984c" y="261.630551"/>
      </g>
     </g>
     <g id="text_3">
      <!-- 10 -->
      <defs>
       <path d="M 12.40625 8.296875 
L 28.515625 8.296875 
L 28.515625 63.921875 
L 10.984375 60.40625 
L 10.984375 69.390625 
L 28.421875 72.90625 
L 38.28125 72.90625 
L 38.28125 8.296875 
L 54.390625 8.296875 
L 54.390625 0 
L 12.40625 0 
z
" id="DejaVuSans-49"/>
      </defs>
      <g transform="translate(140.045058 276.228989)scale(0.1 -0.1)">
       <use xlink:href="#DejaVuSans-49"/>
       <use x="63.623047" xlink:href="#DejaVuSans-48"/>
      </g>
     </g>
    </g>
    <g id="xtick_4">
     <g id="line2d_7">
      <path clip-path="url(#p9fcfc12036)" d="M 191.312636 261.630551 
L 191.312636 27.6 
" style="fill:none;stroke:#000000;stroke-dasharray:0.7,1.155;stroke-dashoffset:0;stroke-width:0.7;"/>
     </g>
     <g id="line2d_8">
      <g>
       <use style="stroke:#000000;stroke-width:0.8;" x="191.312636" xlink:href="#m91e26d984c" y="261.630551"/>
      </g>
     </g>
     <g id="text_4">
      <!-- 15 -->
      <g transform="translate(184.950136 276.228989)scale(0.1 -0.1)">
       <use xlink:href="#DejaVuSans-49"/>
       <use x="63.623047" xlink:href="#DejaVuSans-53"/>
      </g>
     </g>
    </g>
    <g id="xtick_5">
     <g id="line2d_9">
      <path clip-path="url(#p9fcfc12036)" d="M 236.217714 261.630551 
L 236.217714 27.6 
" style="fill:none;stroke:#000000;stroke-dasharray:0.7,1.155;stroke-dashoffset:0;stroke-width:0.7;"/>
     </g>
     <g id="line2d_10">
      <g>
       <use style="stroke:#000000;stroke-width:0.8;" x="236.217714" xlink:href="#m91e26d984c" y="261.630551"/>
      </g>
     </g>
     <g id="text_5">
      <!-- 20 -->
      <defs>
       <path d="M 19.1875 8.296875 
L 53.609375 8.296875 
L 53.609375 0 
L 7.328125 0 
L 7.328125 8.296875 
Q 12.9375 14.109375 22.625 23.890625 
Q 32.328125 33.6875 34.8125 36.53125 
Q 39.546875 41.84375 41.421875 45.53125 
Q 43.3125 49.21875 43.3125 52.78125 
Q 43.3125 58.59375 39.234375 62.25 
Q 35.15625 65.921875 28.609375 65.921875 
Q 23.96875 65.921875 18.8125 64.3125 
Q 13.671875 62.703125 7.8125 59.421875 
L 7.8125 69.390625 
Q 13.765625 71.78125 18.9375 73 
Q 24.125 74.21875 28.421875 74.21875 
Q 39.75 74.21875 46.484375 68.546875 
Q 53.21875 62.890625 53.21875 53.421875 
Q 53.21875 48.921875 51.53125 44.890625 
Q 49.859375 40.875 45.40625 35.40625 
Q 44.1875 33.984375 37.640625 27.21875 
Q 31.109375 20.453125 19.1875 8.296875 
z
" id="DejaVuSans-50"/>
      </defs>
      <g transform="translate(229.855214 276.228989)scale(0.1 -0.1)">
       <use xlink:href="#DejaVuSans-50"/>
       <use x="63.623047" xlink:href="#DejaVuSans-48"/>
      </g>
     </g>
    </g>
    <g id="xtick_6">
     <g id="line2d_11">
      <path clip-path="url(#p9fcfc12036)" d="M 281.122793 261.630551 
L 281.122793 27.6 
" style="fill:none;stroke:#000000;stroke-dasharray:0.7,1.155;stroke-dashoffset:0;stroke-width:0.7;"/>
     </g>
     <g id="line2d_12">
      <g>
       <use style="stroke:#000000;stroke-width:0.8;" x="281.122793" xlink:href="#m91e26d984c" y="261.630551"/>
      </g>
     </g>
     <g id="text_6">
      <!-- 25 -->
      <g transform="translate(274.760293 276.228989)scale(0.1 -0.1)">
       <use xlink:href="#DejaVuSans-50"/>
       <use x="63.623047" xlink:href="#DejaVuSans-53"/>
      </g>
     </g>
    </g>
    <g id="xtick_7">
     <g id="line2d_13">
      <path clip-path="url(#p9fcfc12036)" d="M 326.027871 261.630551 
L 326.027871 27.6 
" style="fill:none;stroke:#000000;stroke-dasharray:0.7,1.155;stroke-dashoffset:0;stroke-width:0.7;"/>
     </g>
     <g id="line2d_14">
      <g>
       <use style="stroke:#000000;stroke-width:0.8;" x="326.027871" xlink:href="#m91e26d984c" y="261.630551"/>
      </g>
     </g>
     <g id="text_7">
      <!-- 30 -->
      <defs>
       <path d="M 40.578125 39.3125 
Q 47.65625 37.796875 51.625 33 
Q 55.609375 28.21875 55.609375 21.1875 
Q 55.609375 10.40625 48.1875 4.484375 
Q 40.765625 -1.421875 27.09375 -1.421875 
Q 22.515625 -1.421875 17.65625 -0.515625 
Q 12.796875 0.390625 7.625 2.203125 
L 7.625 11.71875 
Q 11.71875 9.328125 16.59375 8.109375 
Q 21.484375 6.890625 26.8125 6.890625 
Q 36.078125 6.890625 40.9375 10.546875 
Q 45.796875 14.203125 45.796875 21.1875 
Q 45.796875 27.640625 41.28125 31.265625 
Q 36.765625 34.90625 28.71875 34.90625 
L 20.21875 34.90625 
L 20.21875 43.015625 
L 29.109375 43.015625 
Q 36.375 43.015625 40.234375 45.921875 
Q 44.09375 48.828125 44.09375 54.296875 
Q 44.09375 59.90625 40.109375 62.90625 
Q 36.140625 65.921875 28.71875 65.921875 
Q 24.65625 65.921875 20.015625 65.03125 
Q 15.375 64.15625 9.8125 62.3125 
L 9.8125 71.09375 
Q 15.4375 72.65625 20.34375 73.4375 
Q 25.25 74.21875 29.59375 74.21875 
Q 40.828125 74.21875 47.359375 69.109375 
Q 53.90625 64.015625 53.90625 55.328125 
Q 53.90625 49.265625 50.4375 45.09375 
Q 46.96875 40.921875 40.578125 39.3125 
z
" id="DejaVuSans-51"/>
      </defs>
      <g transform="translate(319.665371 276.228989)scale(0.1 -0.1)">
       <use xlink:href="#DejaVuSans-51"/>
       <use x="63.623047" xlink:href="#DejaVuSans-48"/>
      </g>
     </g>
    </g>
    <g id="xtick_8">
     <g id="line2d_15">
      <path clip-path="url(#p9fcfc12036)" d="M 370.932949 261.630551 
L 370.932949 27.6 
" style="fill:none;stroke:#000000;stroke-dasharray:0.7,1.155;stroke-dashoffset:0;stroke-width:0.7;"/>
     </g>
     <g id="line2d_16">
      <g>
       <use style="stroke:#000000;stroke-width:0.8;" x="370.932949" xlink:href="#m91e26d984c" y="261.630551"/>
      </g>
     </g>
     <g id="text_8">
      <!-- 35 -->
      <g transform="translate(364.570449 276.228989)scale(0.1 -0.1)">
       <use xlink:href="#DejaVuSans-51"/>
       <use x="63.623047" xlink:href="#DejaVuSans-53"/>
      </g>
     </g>
    </g>
    <g id="text_9">
     <!-- Tempo (s) -->
     <defs>
      <path d="M -0.296875 72.90625 
L 61.375 72.90625 
L 61.375 64.59375 
L 35.5 64.59375 
L 35.5 0 
L 25.59375 0 
L 25.59375 64.59375 
L -0.296875 64.59375 
z
" id="DejaVuSans-84"/>
      <path d="M 56.203125 29.59375 
L 56.203125 25.203125 
L 14.890625 25.203125 
Q 15.484375 15.921875 20.484375 11.0625 
Q 25.484375 6.203125 34.421875 6.203125 
Q 39.59375 6.203125 44.453125 7.46875 
Q 49.3125 8.734375 54.109375 11.28125 
L 54.109375 2.78125 
Q 49.265625 0.734375 44.1875 -0.34375 
Q 39.109375 -1.421875 33.890625 -1.421875 
Q 20.796875 -1.421875 13.15625 6.1875 
Q 5.515625 13.8125 5.515625 26.8125 
Q 5.515625 40.234375 12.765625 48.109375 
Q 20.015625 56 32.328125 56 
Q 43.359375 56 49.78125 48.890625 
Q 56.203125 41.796875 56.203125 29.59375 
z
M 47.21875 32.234375 
Q 47.125 39.59375 43.09375 43.984375 
Q 39.0625 48.390625 32.421875 48.390625 
Q 24.90625 48.390625 20.390625 44.140625 
Q 15.875 39.890625 15.1875 32.171875 
z
" id="DejaVuSans-101"/>
      <path d="M 52 44.1875 
Q 55.375 50.25 60.0625 53.125 
Q 64.75 56 71.09375 56 
Q 79.640625 56 84.28125 50.015625 
Q 88.921875 44.046875 88.921875 33.015625 
L 88.921875 0 
L 79.890625 0 
L 79.890625 32.71875 
Q 79.890625 40.578125 77.09375 44.375 
Q 74.3125 48.1875 68.609375 48.1875 
Q 61.625 48.1875 57.5625 43.546875 
Q 53.515625 38.921875 53.515625 30.90625 
L 53.515625 0 
L 44.484375 0 
L 44.484375 32.71875 
Q 44.484375 40.625 41.703125 44.40625 
Q 38.921875 48.1875 33.109375 48.1875 
Q 26.21875 48.1875 22.15625 43.53125 
Q 18.109375 38.875 18.109375 30.90625 
L 18.109375 0 
L 9.078125 0 
L 9.078125 54.6875 
L 18.109375 54.6875 
L 18.109375 46.1875 
Q 21.1875 51.21875 25.484375 53.609375 
Q 29.78125 56 35.6875 56 
Q 41.65625 56 45.828125 52.96875 
Q 50 49.953125 52 44.1875 
z
" id="DejaVuSans-109"/>
      <path d="M 18.109375 8.203125 
L 18.109375 -20.796875 
L 9.078125 -20.796875 
L 9.078125 54.6875 
L 18.109375 54.6875 
L 18.109375 46.390625 
Q 20.953125 51.265625 25.265625 53.625 
Q 29.59375 56 35.59375 56 
Q 45.5625 56 51.78125 48.09375 
Q 58.015625 40.1875 58.015625 27.296875 
Q 58.015625 14.40625 51.78125 6.484375 
Q 45.5625 -1.421875 35.59375 -1.421875 
Q 29.59375 -1.421875 25.265625 0.953125 
Q 20.953125 3.328125 18.109375 8.203125 
z
M 48.6875 27.296875 
Q 48.6875 37.203125 44.609375 42.84375 
Q 40.53125 48.484375 33.40625 48.484375 
Q 26.265625 48.484375 22.1875 42.84375 
Q 18.109375 37.203125 18.109375 27.296875 
Q 18.109375 17.390625 22.1875 11.75 
Q 26.265625 6.109375 33.40625 6.109375 
Q 40.53125 6.109375 44.609375 11.75 
Q 48.6875 17.390625 48.6875 27.296875 
z
" id="DejaVuSans-112"/>
      <path d="M 30.609375 48.390625 
Q 23.390625 48.390625 19.1875 42.75 
Q 14.984375 37.109375 14.984375 27.296875 
Q 14.984375 17.484375 19.15625 11.84375 
Q 23.34375 6.203125 30.609375 6.203125 
Q 37.796875 6.203125 41.984375 11.859375 
Q 46.1875 17.53125 46.1875 27.296875 
Q 46.1875 37.015625 41.984375 42.703125 
Q 37.796875 48.390625 30.609375 48.390625 
z
M 30.609375 56 
Q 42.328125 56 49.015625 48.375 
Q 55.71875 40.765625 55.71875 27.296875 
Q 55.71875 13.875 49.015625 6.21875 
Q 42.328125 -1.421875 30.609375 -1.421875 
Q 18.84375 -1.421875 12.171875 6.21875 
Q 5.515625 13.875 5.515625 27.296875 
Q 5.515625 40.765625 12.171875 48.375 
Q 18.84375 56 30.609375 56 
z
" id="DejaVuSans-111"/>
      <path id="DejaVuSans-32"/>
      <path d="M 31 75.875 
Q 24.46875 64.65625 21.28125 53.65625 
Q 18.109375 42.671875 18.109375 31.390625 
Q 18.109375 20.125 21.3125 9.0625 
Q 24.515625 -2 31 -13.1875 
L 23.1875 -13.1875 
Q 15.875 -1.703125 12.234375 9.375 
Q 8.59375 20.453125 8.59375 31.390625 
Q 8.59375 42.28125 12.203125 53.3125 
Q 15.828125 64.359375 23.1875 75.875 
z
" id="DejaVuSans-40"/>
      <path d="M 44.28125 53.078125 
L 44.28125 44.578125 
Q 40.484375 46.53125 36.375 47.5 
Q 32.28125 48.484375 27.875 48.484375 
Q 21.1875 48.484375 17.84375 46.4375 
Q 14.5 44.390625 14.5 40.28125 
Q 14.5 37.15625 16.890625 35.375 
Q 19.28125 33.59375 26.515625 31.984375 
L 29.59375 31.296875 
Q 39.15625 29.25 43.1875 25.515625 
Q 47.21875 21.78125 47.21875 15.09375 
Q 47.21875 7.46875 41.1875 3.015625 
Q 35.15625 -1.421875 24.609375 -1.421875 
Q 20.21875 -1.421875 15.453125 -0.5625 
Q 10.6875 0.296875 5.421875 2 
L 5.421875 11.28125 
Q 10.40625 8.6875 15.234375 7.390625 
Q 20.0625 6.109375 24.8125 6.109375 
Q 31.15625 6.109375 34.5625 8.28125 
Q 37.984375 10.453125 37.984375 14.40625 
Q 37.984375 18.0625 35.515625 20.015625 
Q 33.0625 21.96875 24.703125 23.78125 
L 21.578125 24.515625 
Q 13.234375 26.265625 9.515625 29.90625 
Q 5.8125 33.546875 5.8125 39.890625 
Q 5.8125 47.609375 11.28125 51.796875 
Q 16.75 56 26.8125 56 
Q 31.78125 56 36.171875 55.265625 
Q 40.578125 54.546875 44.28125 53.078125 
z
" id="DejaVuSans-115"/>
      <path d="M 8.015625 75.875 
L 15.828125 75.875 
Q 23.140625 64.359375 26.78125 53.3125 
Q 30.421875 42.28125 30.421875 31.390625 
Q 30.421875 20.453125 26.78125 9.375 
Q 23.140625 -1.703125 15.828125 -13.1875 
L 8.015625 -13.1875 
Q 14.5 -2 17.703125 9.0625 
Q 20.90625 20.125 20.90625 31.390625 
Q 20.90625 42.671875 17.703125 53.65625 
Q 14.5 64.65625 8.015625 75.875 
z
" id="DejaVuSans-41"/>
     </defs>
     <g transform="translate(211.513501 289.907114)scale(0.1 -0.1)">
      <use xlink:href="#DejaVuSans-84"/>
      <use x="44.083984" xlink:href="#DejaVuSans-101"/>
      <use x="105.607422" xlink:href="#DejaVuSans-109"/>
      <use x="203.019531" xlink:href="#DejaVuSans-112"/>
      <use x="266.496094" xlink:href="#DejaVuSans-111"/>
      <use x="327.677734" xlink:href="#DejaVuSans-32"/>
      <use x="359.464844" xlink:href="#DejaVuSans-40"/>
      <use x="398.478516" xlink:href="#DejaVuSans-115"/>
      <use x="450.578125" xlink:href="#DejaVuSans-41"/>
     </g>
    </g>
   </g>
   <g id="matplotlib.axis_2">
    <g id="ytick_1">
     <g id="line2d_17">
      <path clip-path="url(#p9fcfc12036)" d="M 56.597402 232.046503 
L 415.388976 232.046503 
" style="fill:none;stroke:#000000;stroke-dasharray:0.7,1.155;stroke-dashoffset:0;stroke-width:0.7;"/>
     </g>
     <g id="line2d_18">
      <defs>
       <path d="M 0 0 
L -3.5 0 
" id="m546d25663b" style="stroke:#000000;stroke-width:0.8;"/>
      </defs>
      <g>
       <use style="stroke:#000000;stroke-width:0.8;" x="56.597402" xlink:href="#m546d25663b" y="232.046503"/>
      </g>
     </g>
     <g id="text_10">
      <!-- 0.2 -->
      <defs>
       <path d="M 10.6875 12.40625 
L 21 12.40625 
L 21 0 
L 10.6875 0 
z
" id="DejaVuSans-46"/>
      </defs>
      <g transform="translate(33.694277 235.845721)scale(0.1 -0.1)">
       <use xlink:href="#DejaVuSans-48"/>
       <use x="63.623047" xlink:href="#DejaVuSans-46"/>
       <use x="95.410156" xlink:href="#DejaVuSans-50"/>
      </g>
     </g>
    </g>
    <g id="ytick_2">
     <g id="line2d_19">
      <path clip-path="url(#p9fcfc12036)" d="M 56.597402 202.229772 
L 415.388976 202.229772 
" style="fill:none;stroke:#000000;stroke-dasharray:0.7,1.155;stroke-dashoffset:0;stroke-width:0.7;"/>
     </g>
     <g id="line2d_20">
      <g>
       <use style="stroke:#000000;stroke-width:0.8;" x="56.597402" xlink:href="#m546d25663b" y="202.229772"/>
      </g>
     </g>
     <g id="text_11">
      <!-- 0.4 -->
      <defs>
       <path d="M 37.796875 64.3125 
L 12.890625 25.390625 
L 37.796875 25.390625 
z
M 35.203125 72.90625 
L 47.609375 72.90625 
L 47.609375 25.390625 
L 58.015625 25.390625 
L 58.015625 17.1875 
L 47.609375 17.1875 
L 47.609375 0 
L 37.796875 0 
L 37.796875 17.1875 
L 4.890625 17.1875 
L 4.890625 26.703125 
z
" id="DejaVuSans-52"/>
      </defs>
      <g transform="translate(33.694277 206.028991)scale(0.1 -0.1)">
       <use xlink:href="#DejaVuSans-48"/>
       <use x="63.623047" xlink:href="#DejaVuSans-46"/>
       <use x="95.410156" xlink:href="#DejaVuSans-52"/>
      </g>
     </g>
    </g>
    <g id="ytick_3">
     <g id="line2d_21">
      <path clip-path="url(#p9fcfc12036)" d="M 56.597402 172.413041 
L 415.388976 172.413041 
" style="fill:none;stroke:#000000;stroke-dasharray:0.7,1.155;stroke-dashoffset:0;stroke-width:0.7;"/>
     </g>
     <g id="line2d_22">
      <g>
       <use style="stroke:#000000;stroke-width:0.8;" x="56.597402" xlink:href="#m546d25663b" y="172.413041"/>
      </g>
     </g>
     <g id="text_12">
      <!-- 0.6 -->
      <defs>
       <path d="M 33.015625 40.375 
Q 26.375 40.375 22.484375 35.828125 
Q 18.609375 31.296875 18.609375 23.390625 
Q 18.609375 15.53125 22.484375 10.953125 
Q 26.375 6.390625 33.015625 6.390625 
Q 39.65625 6.390625 43.53125 10.953125 
Q 47.40625 15.53125 47.40625 23.390625 
Q 47.40625 31.296875 43.53125 35.828125 
Q 39.65625 40.375 33.015625 40.375 
z
M 52.59375 71.296875 
L 52.59375 62.3125 
Q 48.875 64.0625 45.09375 64.984375 
Q 41.3125 65.921875 37.59375 65.921875 
Q 27.828125 65.921875 22.671875 59.328125 
Q 17.53125 52.734375 16.796875 39.40625 
Q 19.671875 43.65625 24.015625 45.921875 
Q 28.375 48.1875 33.59375 48.1875 
Q 44.578125 48.1875 50.953125 41.515625 
Q 57.328125 34.859375 57.328125 23.390625 
Q 57.328125 12.15625 50.6875 5.359375 
Q 44.046875 -1.421875 33.015625 -1.421875 
Q 20.359375 -1.421875 13.671875 8.265625 
Q 6.984375 17.96875 6.984375 36.375 
Q 6.984375 53.65625 15.1875 63.9375 
Q 23.390625 74.21875 37.203125 74.21875 
Q 40.921875 74.21875 44.703125 73.484375 
Q 48.484375 72.75 52.59375 71.296875 
z
" id="DejaVuSans-54"/>
      </defs>
      <g transform="translate(33.694277 176.21226)scale(0.1 -0.1)">
       <use xlink:href="#DejaVuSans-48"/>
       <use x="63.623047" xlink:href="#DejaVuSans-46"/>
       <use x="95.410156" xlink:href="#DejaVuSans-54"/>
      </g>
     </g>
    </g>
    <g id="ytick_4">
     <g id="line2d_23">
      <path clip-path="url(#p9fcfc12036)" d="M 56.597402 142.59631 
L 415.388976 142.59631 
" style="fill:none;stroke:#000000;stroke-dasharray:0.7,1.155;stroke-dashoffset:0;stroke-width:0.7;"/>
     </g>
     <g id="line2d_24">
      <g>
       <use style="stroke:#000000;stroke-width:0.8;" x="56.597402" xlink:href="#m546d25663b" y="142.59631"/>
      </g>
     </g>
     <g id="text_13">
      <!-- 0.8 -->
      <defs>
       <path d="M 31.78125 34.625 
Q 24.75 34.625 20.71875 30.859375 
Q 16.703125 27.09375 16.703125 20.515625 
Q 16.703125 13.921875 20.71875 10.15625 
Q 24.75 6.390625 31.78125 6.390625 
Q 38.8125 6.390625 42.859375 10.171875 
Q 46.921875 13.96875 46.921875 20.515625 
Q 46.921875 27.09375 42.890625 30.859375 
Q 38.875 34.625 31.78125 34.625 
z
M 21.921875 38.8125 
Q 15.578125 40.375 12.03125 44.71875 
Q 8.5 49.078125 8.5 55.328125 
Q 8.5 64.0625 14.71875 69.140625 
Q 20.953125 74.21875 31.78125 74.21875 
Q 42.671875 74.21875 48.875 69.140625 
Q 55.078125 64.0625 55.078125 55.328125 
Q 55.078125 49.078125 51.53125 44.71875 
Q 48 40.375 41.703125 38.8125 
Q 48.828125 37.15625 52.796875 32.3125 
Q 56.78125 27.484375 56.78125 20.515625 
Q 56.78125 9.90625 50.3125 4.234375 
Q 43.84375 -1.421875 31.78125 -1.421875 
Q 19.734375 -1.421875 13.25 4.234375 
Q 6.78125 9.90625 6.78125 20.515625 
Q 6.78125 27.484375 10.78125 32.3125 
Q 14.796875 37.15625 21.921875 38.8125 
z
M 18.3125 54.390625 
Q 18.3125 48.734375 21.84375 45.5625 
Q 25.390625 42.390625 31.78125 42.390625 
Q 38.140625 42.390625 41.71875 45.5625 
Q 45.3125 48.734375 45.3125 54.390625 
Q 45.3125 60.0625 41.71875 63.234375 
Q 38.140625 66.40625 31.78125 66.40625 
Q 25.390625 66.40625 21.84375 63.234375 
Q 18.3125 60.0625 18.3125 54.390625 
z
" id="DejaVuSans-56"/>
      </defs>
      <g transform="translate(33.694277 146.395529)scale(0.1 -0.1)">
       <use xlink:href="#DejaVuSans-48"/>
       <use x="63.623047" xlink:href="#DejaVuSans-46"/>
       <use x="95.410156" xlink:href="#DejaVuSans-56"/>
      </g>
     </g>
    </g>
    <g id="ytick_5">
     <g id="line2d_25">
      <path clip-path="url(#p9fcfc12036)" d="M 56.597402 112.779579 
L 415.388976 112.779579 
" style="fill:none;stroke:#000000;stroke-dasharray:0.7,1.155;stroke-dashoffset:0;stroke-width:0.7;"/>
     </g>
     <g id="line2d_26">
      <g>
       <use style="stroke:#000000;stroke-width:0.8;" x="56.597402" xlink:href="#m546d25663b" y="112.779579"/>
      </g>
     </g>
     <g id="text_14">
      <!-- 1.0 -->
      <g transform="translate(33.694277 116.578798)scale(0.1 -0.1)">
       <use xlink:href="#DejaVuSans-49"/>
       <use x="63.623047" xlink:href="#DejaVuSans-46"/>
       <use x="95.410156" xlink:href="#DejaVuSans-48"/>
      </g>
     </g>
    </g>
    <g id="ytick_6">
     <g id="line2d_27">
      <path clip-path="url(#p9fcfc12036)" d="M 56.597402 82.962849 
L 415.388976 82.962849 
" style="fill:none;stroke:#000000;stroke-dasharray:0.7,1.155;stroke-dashoffset:0;stroke-width:0.7;"/>
     </g>
     <g id="line2d_28">
      <g>
       <use style="stroke:#000000;stroke-width:0.8;" x="56.597402" xlink:href="#m546d25663b" y="82.962849"/>
      </g>
     </g>
     <g id="text_15">
      <!-- 1.2 -->
      <g transform="translate(33.694277 86.762067)scale(0.1 -0.1)">
       <use xlink:href="#DejaVuSans-49"/>
       <use x="63.623047" xlink:href="#DejaVuSans-46"/>
       <use x="95.410156" xlink:href="#DejaVuSans-50"/>
      </g>
     </g>
    </g>
    <g id="ytick_7">
     <g id="line2d_29">
      <path clip-path="url(#p9fcfc12036)" d="M 56.597402 53.146118 
L 415.388976 53.146118 
" style="fill:none;stroke:#000000;stroke-dasharray:0.7,1.155;stroke-dashoffset:0;stroke-width:0.7;"/>
     </g>
     <g id="line2d_30">
      <g>
       <use style="stroke:#000000;stroke-width:0.8;" x="56.597402" xlink:href="#m546d25663b" y="53.146118"/>
      </g>
     </g>
     <g id="text_16">
      <!-- 1.4 -->
      <g transform="translate(33.694277 56.945336)scale(0.1 -0.1)">
       <use xlink:href="#DejaVuSans-49"/>
       <use x="63.623047" xlink:href="#DejaVuSans-46"/>
       <use x="95.410156" xlink:href="#DejaVuSans-52"/>
      </g>
     </g>
    </g>
    <g id="text_17">
     <!-- Valor -->
     <defs>
      <path d="M 28.609375 0 
L 0.78125 72.90625 
L 11.078125 72.90625 
L 34.1875 11.53125 
L 57.328125 72.90625 
L 67.578125 72.90625 
L 39.796875 0 
z
" id="DejaVuSans-86"/>
      <path d="M 34.28125 27.484375 
Q 23.390625 27.484375 19.1875 25 
Q 14.984375 22.515625 14.984375 16.5 
Q 14.984375 11.71875 18.140625 8.90625 
Q 21.296875 6.109375 26.703125 6.109375 
Q 34.1875 6.109375 38.703125 11.40625 
Q 43.21875 16.703125 43.21875 25.484375 
L 43.21875 27.484375 
z
M 52.203125 31.203125 
L 52.203125 0 
L 43.21875 0 
L 43.21875 8.296875 
Q 40.140625 3.328125 35.546875 0.953125 
Q 30.953125 -1.421875 24.3125 -1.421875 
Q 15.921875 -1.421875 10.953125 3.296875 
Q 6 8.015625 6 15.921875 
Q 6 25.140625 12.171875 29.828125 
Q 18.359375 34.515625 30.609375 34.515625 
L 43.21875 34.515625 
L 43.21875 35.40625 
Q 43.21875 41.609375 39.140625 45 
Q 35.0625 48.390625 27.6875 48.390625 
Q 23 48.390625 18.546875 47.265625 
Q 14.109375 46.140625 10.015625 43.890625 
L 10.015625 52.203125 
Q 14.9375 54.109375 19.578125 55.046875 
Q 24.21875 56 28.609375 56 
Q 40.484375 56 46.34375 49.84375 
Q 52.203125 43.703125 52.203125 31.203125 
z
" id="DejaVuSans-97"/>
      <path d="M 9.421875 75.984375 
L 18.40625 75.984375 
L 18.40625 0 
L 9.421875 0 
z
" id="DejaVuSans-108"/>
      <path d="M 41.109375 46.296875 
Q 39.59375 47.171875 37.8125 47.578125 
Q 36.03125 48 33.890625 48 
Q 26.265625 48 22.1875 43.046875 
Q 18.109375 38.09375 18.109375 28.8125 
L 18.109375 0 
L 9.078125 0 
L 9.078125 54.6875 
L 18.109375 54.6875 
L 18.109375 46.1875 
Q 20.953125 51.171875 25.484375 53.578125 
Q 30.03125 56 36.53125 56 
Q 37.453125 56 38.578125 55.875 
Q 39.703125 55.765625 41.0625 55.515625 
z
" id="DejaVuSans-114"/>
     </defs>
     <g transform="translate(27.614589 157.216057)rotate(-90)scale(0.1 -0.1)">
      <use xlink:href="#DejaVuSans-86"/>
      <use x="60.658203" xlink:href="#DejaVuSans-97"/>
      <use x="121.9375" xlink:href="#DejaVuSans-108"/>
      <use x="149.720703" xlink:href="#DejaVuSans-111"/>
      <use x="210.902344" xlink:href="#DejaVuSans-114"/>
     </g>
    </g>
   </g>
   <g id="line2d_31">
    <path clip-path="url(#p9fcfc12036)" d="M 56.597402 250.992799 
L 57.046452 250.992799 
L 57.046452 247.948606 
L 57.495503 247.948606 
L 57.495503 245.066638 
L 57.944554 245.066638 
L 57.944554 242.338251 
L 58.393605 242.338251 
L 58.393605 239.755259 
L 58.842655 239.755259 
L 58.842655 237.309915 
L 59.291706 237.309915 
L 59.291706 234.994883 
L 59.740757 234.994883 
L 59.740757 232.803219 
L 60.189808 232.803219 
L 60.189808 230.728349 
L 60.638859 230.728349 
L 60.638859 228.764049 
L 61.087909 228.764049 
L 61.087909 226.904426 
L 61.53696 226.904426 
L 61.53696 225.143903 
L 61.986011 225.143903 
L 61.986011 223.477198 
L 62.435062 223.477198 
L 62.435062 221.899311 
L 62.884113 221.899311 
L 62.884113 220.40551 
L 63.333163 220.40551 
L 63.333163 218.991314 
L 63.782214 218.991314 
L 63.782214 217.652481 
L 64.231265 217.652481 
L 64.231265 216.384993 
L 64.680316 216.384993 
L 64.680316 215.185051 
L 65.129366 215.185051 
L 65.129366 214.049053 
L 65.578417 214.049053 
L 65.578417 212.973592 
L 66.027468 212.973592 
L 66.027468 211.955443 
L 66.476519 211.955443 
L 66.476519 210.991551 
L 66.92557 210.991551 
L 66.92557 210.079025 
L 67.37462 210.079025 
L 67.37462 209.215127 
L 67.823671 209.215127 
L 67.823671 208.397266 
L 68.272722 208.397266 
L 68.272722 207.62299 
L 68.721773 207.62299 
L 68.721773 206.889974 
L 69.170823 206.889974 
L 69.170823 206.196021 
L 69.619874 206.196021 
L 69.619874 205.539048 
L 70.068925 205.539048 
L 70.068925 204.917086 
L 70.517976 204.917086 
L 70.517976 204.328268 
L 70.967027 204.328268 
L 70.967027 203.770828 
L 71.416077 203.770828 
L 71.416077 203.243094 
L 71.865128 203.243094 
L 71.865128 202.743483 
L 72.314179 202.743483 
L 72.314179 202.270496 
L 72.76323 202.270496 
L 72.76323 201.822715 
L 73.212281 201.822715 
L 73.212281 201.398796 
L 73.661331 201.398796 
L 73.661331 200.997468 
L 74.110382 200.997468 
L 74.110382 200.617526 
L 74.559433 200.617526 
L 74.559433 200.257832 
L 75.008484 200.257832 
L 75.008484 199.917305 
L 75.457534 199.917305 
L 75.457534 199.594926 
L 75.906585 199.594926 
L 75.906585 199.289726 
L 76.355636 199.289726 
L 76.355636 199.00079 
L 76.804687 199.00079 
L 76.804687 198.727251 
L 77.253738 198.727251 
L 77.253738 198.468289 
L 77.702788 198.468289 
L 77.702788 198.223128 
L 78.151839 198.223128 
L 78.151839 197.991031 
L 78.60089 197.991031 
L 78.60089 197.771302 
L 79.049941 197.771302 
L 79.049941 197.563283 
L 79.498991 197.563283 
L 79.498991 197.366349 
L 79.948042 197.366349 
L 79.948042 197.17991 
L 80.397093 197.17991 
L 80.397093 197.003406 
L 80.846144 197.003406 
L 80.846144 196.836308 
L 81.295195 196.836308 
L 81.295195 196.678115 
L 81.744245 196.678115 
L 81.744245 196.528351 
L 82.193296 196.528351 
L 82.193296 196.386569 
L 82.642347 196.386569 
L 82.642347 196.252342 
L 83.091398 196.252342 
L 83.091398 196.125268 
L 83.540448 196.125268 
L 83.540448 196.004966 
L 83.989499 196.004966 
L 83.989499 195.891075 
L 84.887601 195.783253 
L 84.887601 195.681177 
L 85.785702 195.584541 
L 85.785702 195.493054 
L 86.683804 195.406443 
L 86.683804 195.324447 
L 87.581906 195.246821 
L 87.581906 195.173331 
L 88.480007 195.103758 
L 88.480007 195.037892 
L 89.378109 194.975536 
L 89.378109 194.916503 
L 90.725261 194.807708 
L 90.725261 194.757618 
L 92.072413 194.665306 
L 92.072413 194.622805 
L 93.419566 194.544478 
L 93.419566 194.508416 
L 95.215769 194.411357 
L 95.215769 194.382389 
L 97.461023 194.281154 
L 97.461023 194.259125 
L 100.604378 194.149526 
L 100.604378 194.134511 
L 105.094886 194.030716 
L 105.094886 194.022033 
L 115.872105 193.911548 
L 115.872105 193.909215 
L 147.30566 193.868718 
L 147.30566 190.245189 
L 147.75471 190.245189 
L 147.75471 186.814758 
L 148.203761 186.814758 
L 148.203761 183.567135 
L 148.652812 183.567135 
L 148.652812 180.492578 
L 149.101863 180.492578 
L 149.101863 177.581864 
L 149.550913 177.581864 
L 149.550913 174.826261 
L 149.999964 174.826261 
L 149.999964 172.217505 
L 150.449015 172.217505 
L 150.449015 169.74777 
L 150.898066 169.74777 
L 150.898066 167.409646 
L 151.347117 167.409646 
L 151.347117 165.196122 
L 151.796167 165.196122 
L 151.796167 163.100555 
L 152.245218 163.100555 
L 152.245218 161.116662 
L 152.694269 161.116662 
L 152.694269 159.238491 
L 153.14332 159.238491 
L 153.14332 157.460407 
L 153.59237 157.460407 
L 153.59237 155.777077 
L 154.041421 155.777077 
L 154.041421 154.183452 
L 154.490472 154.183452 
L 154.490472 152.674751 
L 154.939523 152.674751 
L 154.939523 151.246449 
L 155.388574 151.246449 
L 155.388574 149.894261 
L 155.837624 149.894261 
L 155.837624 148.614131 
L 156.286675 148.614131 
L 156.286675 147.402219 
L 156.735726 147.402219 
L 156.735726 146.25489 
L 157.184777 146.25489 
L 157.184777 145.168702 
L 157.633828 145.168702 
L 157.633828 144.140397 
L 158.082878 144.140397 
L 158.082878 143.166891 
L 158.531929 143.166891 
L 158.531929 142.245263 
L 158.98098 142.245263 
L 158.98098 141.372748 
L 159.430031 141.372748 
L 159.430031 140.546729 
L 159.879081 140.546729 
L 159.879081 139.76473 
L 160.328132 139.76473 
L 160.328132 139.024402 
L 160.777183 139.024402 
L 160.777183 138.323527 
L 161.226234 138.323527 
L 161.226234 137.660002 
L 161.675285 137.660002 
L 161.675285 137.031836 
L 162.124335 137.031836 
L 162.124335 136.437144 
L 162.573386 136.437144 
L 162.573386 135.874144 
L 163.022437 135.874144 
L 163.022437 135.341146 
L 163.471488 135.341146 
L 163.471488 134.836552 
L 163.920538 134.836552 
L 163.920538 134.358847 
L 164.369589 134.358847 
L 164.369589 133.9066 
L 164.81864 133.9066 
L 164.81864 133.478452 
L 165.267691 133.478452 
L 165.267691 133.073121 
L 165.716742 133.073121 
L 165.716742 132.68939 
L 166.165792 132.68939 
L 166.165792 132.326107 
L 166.614843 132.326107 
L 166.614843 131.982184 
L 167.063894 131.982184 
L 167.063894 131.656589 
L 167.512945 131.656589 
L 167.512945 131.348345 
L 167.961996 131.348345 
L 167.961996 131.056527 
L 168.411046 131.056527 
L 168.411046 130.78026 
L 168.860097 130.78026 
L 168.860097 130.518715 
L 169.309148 130.518715 
L 169.309148 130.271108 
L 169.758199 130.271108 
L 169.758199 130.036696 
L 170.207249 130.036696 
L 170.207249 129.814776 
L 170.6563 129.814776 
L 170.6563 129.604681 
L 171.105351 129.604681 
L 171.105351 129.405783 
L 171.554402 129.405783 
L 171.554402 129.217484 
L 172.003453 129.217484 
L 172.003453 129.03922 
L 172.452503 129.03922 
L 172.452503 128.870455 
L 172.901554 128.870455 
L 172.901554 128.710684 
L 173.350605 128.710684 
L 173.350605 128.559427 
L 173.799656 128.559427 
L 173.799656 128.41623 
L 174.248706 128.41623 
L 174.248706 128.280665 
L 174.697757 128.280665 
L 174.697757 128.152323 
L 175.146808 128.152323 
L 175.146808 128.030821 
L 175.595859 128.030821 
L 175.595859 127.915794 
L 176.49396 127.806897 
L 176.49396 127.703802 
L 177.392062 127.606202 
L 177.392062 127.513803 
L 178.290163 127.426328 
L 178.290163 127.343514 
L 179.188265 127.265113 
L 179.188265 127.190891 
L 180.086367 127.120623 
L 180.086367 127.054101 
L 180.984468 126.991123 
L 180.984468 126.931501 
L 182.331621 126.82162 
L 182.331621 126.771032 
L 183.678773 126.677798 
L 183.678773 126.634873 
L 185.025925 126.555765 
L 185.025925 126.519343 
L 186.822128 126.421316 
L 186.822128 126.392059 
L 189.067382 126.289815 
L 189.067382 126.267566 
L 192.210738 126.156873 
L 192.210738 126.141709 
L 196.701246 126.036878 
L 196.701246 126.028108 
L 207.029414 125.919011 
L 207.029414 125.916522 
L 237.115816 125.873499 
L 237.115816 127.685174 
L 237.564867 127.685174 
L 237.564867 129.400306 
L 238.013917 129.400306 
L 238.013917 131.024038 
L 238.462968 131.024038 
L 238.462968 132.561241 
L 238.912019 132.561241 
L 238.912019 134.016527 
L 239.36107 134.016527 
L 239.36107 135.394261 
L 239.810121 135.394261 
L 239.810121 136.698575 
L 240.259171 136.698575 
L 240.259171 137.933382 
L 240.708222 137.933382 
L 240.708222 139.102387 
L 241.157273 139.102387 
L 241.157273 140.209095 
L 241.606324 140.209095 
L 241.606324 141.256827 
L 242.055375 141.256827 
L 242.055375 142.248725 
L 242.504425 142.248725 
L 242.504425 143.187765 
L 242.953476 143.187765 
L 242.953476 144.076763 
L 243.402527 144.076763 
L 243.402527 144.918387 
L 243.851578 144.918387 
L 243.851578 145.71516 
L 244.300628 145.71516 
L 244.300628 146.469474 
L 244.749679 146.469474 
L 244.749679 147.18359 
L 245.19873 147.18359 
L 245.19873 147.859651 
L 245.647781 147.859651 
L 245.647781 148.499684 
L 246.096832 148.499684 
L 246.096832 149.105611 
L 246.545882 149.105611 
L 246.545882 149.679247 
L 246.994933 149.679247 
L 246.994933 150.222314 
L 247.443984 150.222314 
L 247.443984 150.736442 
L 247.893035 150.736442 
L 247.893035 151.223171 
L 248.342085 151.223171 
L 248.342085 151.683963 
L 248.791136 151.683963 
L 248.791136 152.120199 
L 249.240187 152.120199 
L 249.240187 152.533188 
L 249.689238 152.533188 
L 249.689238 152.924169 
L 250.138289 152.924169 
L 250.138289 153.294314 
L 250.587339 153.294314 
L 250.587339 153.644734 
L 251.03639 153.644734 
L 251.03639 153.976481 
L 251.485441 153.976481 
L 251.485441 154.290549 
L 251.934492 154.290549 
L 251.934492 154.58788 
L 252.383543 154.58788 
L 252.383543 154.869366 
L 252.832593 154.869366 
L 252.832593 155.135852 
L 253.281644 155.135852 
L 253.281644 155.388137 
L 253.730695 155.388137 
L 253.730695 155.626977 
L 254.179746 155.626977 
L 254.179746 155.85309 
L 254.628796 155.85309 
L 254.628796 156.067153 
L 255.077847 156.067153 
L 255.077847 156.269809 
L 255.526898 156.269809 
L 255.526898 156.461665 
L 255.975949 156.461665 
L 255.975949 156.643298 
L 256.425 156.643298 
L 256.425 156.815251 
L 256.87405 156.815251 
L 256.87405 156.97804 
L 257.323101 156.97804 
L 257.323101 157.132155 
L 257.772152 157.132155 
L 257.772152 157.278057 
L 258.221203 157.278057 
L 258.221203 157.416184 
L 258.670253 157.416184 
L 258.670253 157.54695 
L 259.119304 157.54695 
L 259.119304 157.670747 
L 259.568355 157.670747 
L 259.568355 157.787947 
L 260.466457 157.898902 
L 260.466457 158.003944 
L 261.364558 158.103388 
L 261.364558 158.197533 
L 262.26266 158.286661 
L 262.26266 158.371039 
L 263.160761 158.450921 
L 263.160761 158.526546 
L 264.058863 158.59814 
L 264.058863 158.66592 
L 264.956964 158.730087 
L 264.956964 158.790835 
L 265.855066 158.848346 
L 265.855066 158.902792 
L 267.202218 159.003135 
L 267.202218 159.049332 
L 268.549371 159.134472 
L 268.549371 159.173671 
L 270.345574 159.279172 
L 270.345574 159.310659 
L 272.590828 159.420699 
L 272.590828 159.444645 
L 275.285132 159.546537 
L 275.285132 159.563777 
L 279.326589 159.67242 
L 279.326589 159.682951 
L 286.960453 159.792143 
L 286.960453 159.796294 
L 326.925972 159.869444 
L 326.925972 154.434258 
L 327.375023 154.434258 
L 327.375023 149.288714 
L 327.824074 149.288714 
L 327.824074 144.417375 
L 328.273125 144.417375 
L 328.273125 139.80563 
L 328.722175 139.80563 
L 328.722175 135.439645 
L 329.171226 135.439645 
L 329.171226 131.306324 
L 329.620277 131.306324 
L 329.620277 127.393267 
L 330.069328 127.393267 
L 330.069328 123.688737 
L 330.518379 123.688737 
L 330.518379 120.181621 
L 330.967429 120.181621 
L 330.967429 116.8614 
L 331.41648 116.8614 
L 331.41648 113.718113 
L 331.865531 113.718113 
L 331.865531 110.742331 
L 332.314582 110.742331 
L 332.314582 107.92513 
L 332.763632 107.92513 
L 332.763632 105.258057 
L 333.212683 105.258057 
L 333.212683 102.733112 
L 333.661734 102.733112 
L 333.661734 100.342721 
L 334.110785 100.342721 
L 334.110785 98.079715 
L 334.559836 98.079715 
L 334.559836 95.937304 
L 335.008886 95.937304 
L 335.008886 93.909062 
L 335.457937 93.909062 
L 335.457937 91.988905 
L 335.906988 91.988905 
L 335.906988 90.171074 
L 336.356039 90.171074 
L 336.356039 88.450114 
L 336.80509 88.450114 
L 336.80509 86.820865 
L 337.25414 86.820865 
L 337.25414 85.278438 
L 337.703191 85.278438 
L 337.703191 83.818207 
L 338.152242 83.818207 
L 338.152242 82.435792 
L 338.601293 82.435792 
L 338.601293 81.127045 
L 339.050343 81.127045 
L 339.050343 79.888042 
L 339.499394 79.888042 
L 339.499394 78.715066 
L 339.948445 78.715066 
L 339.948445 77.604597 
L 340.397496 77.604597 
L 340.397496 76.553305 
L 340.846547 76.553305 
L 340.846547 75.558036 
L 341.295597 75.558036 
L 341.295597 74.615806 
L 341.744648 74.615806 
L 341.744648 73.723786 
L 342.193699 73.723786 
L 342.193699 72.879303 
L 342.64275 72.879303 
L 342.64275 72.079822 
L 343.0918 72.079822 
L 343.0918 71.322945 
L 343.540851 71.322945 
L 343.540851 70.606403 
L 343.989902 70.606403 
L 343.989902 69.928045 
L 344.438953 69.928045 
L 344.438953 69.285836 
L 344.888004 69.285836 
L 344.888004 68.677851 
L 345.337054 68.677851 
L 345.337054 68.102265 
L 345.786105 68.102265 
L 345.786105 67.557353 
L 346.235156 67.557353 
L 346.235156 67.041478 
L 346.684207 67.041478 
L 346.684207 66.553095 
L 347.133258 66.553095 
L 347.133258 66.090738 
L 347.582308 66.090738 
L 347.582308 65.653019 
L 348.031359 65.653019 
L 348.031359 65.238627 
L 348.48041 65.238627 
L 348.48041 64.846318 
L 348.929461 64.846318 
L 348.929461 64.474915 
L 349.378511 64.474915 
L 349.378511 64.123303 
L 349.827562 64.123303 
L 349.827562 63.79043 
L 350.276613 63.79043 
L 350.276613 63.475295 
L 350.725664 63.475295 
L 350.725664 63.176953 
L 351.174715 63.176953 
L 351.174715 62.894511 
L 351.623765 62.894511 
L 351.623765 62.627119 
L 352.072816 62.627119 
L 352.072816 62.373977 
L 352.521867 62.373977 
L 352.521867 62.134325 
L 352.970918 62.134325 
L 352.970918 61.907444 
L 353.419968 61.907444 
L 353.419968 61.692653 
L 353.869019 61.692653 
L 353.869019 61.489309 
L 354.31807 61.489309 
L 354.31807 61.296801 
L 354.767121 61.296801 
L 354.767121 61.114551 
L 355.216172 61.114551 
L 355.216172 60.942014 
L 355.665222 60.942014 
L 355.665222 60.778671 
L 356.114273 60.778671 
L 356.114273 60.624033 
L 356.563324 60.624033 
L 356.563324 60.477635 
L 357.012375 60.477635 
L 357.012375 60.339039 
L 357.461426 60.339039 
L 357.461426 60.207829 
L 357.910476 60.207829 
L 357.910476 60.083611 
L 358.359527 60.083611 
L 358.359527 59.966012 
L 358.808578 59.966012 
L 358.808578 59.85468 
L 359.706679 59.749281 
L 359.706679 59.649499 
L 360.604781 59.555035 
L 360.604781 59.465604 
L 361.502883 59.380939 
L 361.502883 59.300786 
L 362.400984 59.224904 
L 362.400984 59.153066 
L 363.299086 59.085056 
L 363.299086 59.020671 
L 364.197187 58.959716 
L 364.197187 58.90201 
L 365.54434 58.795659 
L 365.54434 58.746695 
L 366.891492 58.656457 
L 366.891492 58.614912 
L 368.238644 58.538344 
L 368.238644 58.503093 
L 370.034847 58.408215 
L 370.034847 58.379899 
L 372.280101 58.280939 
L 372.280101 58.259405 
L 375.423457 58.152268 
L 375.423457 58.137591 
L 380.363015 58.02764 
L 380.363015 58.019604 
L 392.936437 57.909388 
L 392.936437 57.907654 
L 415.388976 57.87895 
L 415.388976 57.878838 
" style="fill:none;stroke:#0000ff;stroke-linecap:square;"/>
   </g>
   <g id="line2d_32">
    <path clip-path="url(#p9fcfc12036)" d="M 56.597402 187.321406 
L 146.856609 187.321406 
L 146.856609 112.779579 
L 236.666765 112.779579 
L 236.666765 150.050493 
L 326.476922 150.050493 
L 326.476922 38.237752 
L 415.388976 38.237752 
L 415.388976 38.237752 
" style="fill:none;stroke:#008000;stroke-dasharray:3.7,1.6;stroke-dashoffset:0;"/>
   </g>
   <g id="patch_3">
    <path d="M 56.597402 261.630551 
L 56.597402 27.6 
" style="fill:none;stroke:#000000;stroke-linecap:square;stroke-linejoin:miter;stroke-width:0.8;"/>
   </g>
   <g id="patch_4">
    <path d="M 415.388976 261.630551 
L 415.388976 27.6 
" style="fill:none;stroke:#000000;stroke-linecap:square;stroke-linejoin:miter;stroke-width:0.8;"/>
   </g>
   <g id="patch_5">
    <path d="M 56.597402 261.630551 
L 415.388976 261.630551 
" style="fill:none;stroke:#000000;stroke-linecap:square;stroke-linejoin:miter;stroke-width:0.8;"/>
   </g>
   <g id="patch_6">
    <path d="M 56.597402 27.6 
L 415.388976 27.6 
" style="fill:none;stroke:#000000;stroke-linecap:square;stroke-linejoin:miter;stroke-width:0.8;"/>
   </g>
   <g id="text_18">
    <!-- Saída do sistema em malha aberta -->
    <defs>
     <path d="M 53.515625 70.515625 
L 53.515625 60.890625 
Q 47.90625 63.578125 42.921875 64.890625 
Q 37.9375 66.21875 33.296875 66.21875 
Q 25.25 66.21875 20.875 63.09375 
Q 16.5 59.96875 16.5 54.203125 
Q 16.5 49.359375 19.40625 46.890625 
Q 22.3125 44.4375 30.421875 42.921875 
L 36.375 41.703125 
Q 47.40625 39.59375 52.65625 34.296875 
Q 57.90625 29 57.90625 20.125 
Q 57.90625 9.515625 50.796875 4.046875 
Q 43.703125 -1.421875 29.984375 -1.421875 
Q 24.8125 -1.421875 18.96875 -0.25 
Q 13.140625 0.921875 6.890625 3.21875 
L 6.890625 13.375 
Q 12.890625 10.015625 18.65625 8.296875 
Q 24.421875 6.59375 29.984375 6.59375 
Q 38.421875 6.59375 43.015625 9.90625 
Q 47.609375 13.234375 47.609375 19.390625 
Q 47.609375 24.75 44.3125 27.78125 
Q 41.015625 30.8125 33.5 32.328125 
L 27.484375 33.5 
Q 16.453125 35.6875 11.515625 40.375 
Q 6.59375 45.0625 6.59375 53.421875 
Q 6.59375 63.09375 13.40625 68.65625 
Q 20.21875 74.21875 32.171875 74.21875 
Q 37.3125 74.21875 42.625 73.28125 
Q 47.953125 72.359375 53.515625 70.515625 
z
" id="DejaVuSans-83"/>
     <path d="M 20.703125 79.984375 
L 30.421875 79.984375 
L 14.5 61.625 
L 7.03125 61.625 
z
M 9.421875 54.6875 
L 18.40625 54.6875 
L 18.40625 0 
L 9.421875 0 
z
M 13.921875 56 
z
" id="DejaVuSans-237"/>
     <path d="M 45.40625 46.390625 
L 45.40625 75.984375 
L 54.390625 75.984375 
L 54.390625 0 
L 45.40625 0 
L 45.40625 8.203125 
Q 42.578125 3.328125 38.25 0.953125 
Q 33.9375 -1.421875 27.875 -1.421875 
Q 17.96875 -1.421875 11.734375 6.484375 
Q 5.515625 14.40625 5.515625 27.296875 
Q 5.515625 40.1875 11.734375 48.09375 
Q 17.96875 56 27.875 56 
Q 33.9375 56 38.25 53.625 
Q 42.578125 51.265625 45.40625 46.390625 
z
M 14.796875 27.296875 
Q 14.796875 17.390625 18.875 11.75 
Q 22.953125 6.109375 30.078125 6.109375 
Q 37.203125 6.109375 41.296875 11.75 
Q 45.40625 17.390625 45.40625 27.296875 
Q 45.40625 37.203125 41.296875 42.84375 
Q 37.203125 48.484375 30.078125 48.484375 
Q 22.953125 48.484375 18.875 42.84375 
Q 14.796875 37.203125 14.796875 27.296875 
z
" id="DejaVuSans-100"/>
     <path d="M 9.421875 54.6875 
L 18.40625 54.6875 
L 18.40625 0 
L 9.421875 0 
z
M 9.421875 75.984375 
L 18.40625 75.984375 
L 18.40625 64.59375 
L 9.421875 64.59375 
z
" id="DejaVuSans-105"/>
     <path d="M 18.3125 70.21875 
L 18.3125 54.6875 
L 36.8125 54.6875 
L 36.8125 47.703125 
L 18.3125 47.703125 
L 18.3125 18.015625 
Q 18.3125 11.328125 20.140625 9.421875 
Q 21.96875 7.515625 27.59375 7.515625 
L 36.8125 7.515625 
L 36.8125 0 
L 27.59375 0 
Q 17.1875 0 13.234375 3.875 
Q 9.28125 7.765625 9.28125 18.015625 
L 9.28125 47.703125 
L 2.6875 47.703125 
L 2.6875 54.6875 
L 9.28125 54.6875 
L 9.28125 70.21875 
z
" id="DejaVuSans-116"/>
     <path d="M 54.890625 33.015625 
L 54.890625 0 
L 45.90625 0 
L 45.90625 32.71875 
Q 45.90625 40.484375 42.875 44.328125 
Q 39.84375 48.1875 33.796875 48.1875 
Q 26.515625 48.1875 22.3125 43.546875 
Q 18.109375 38.921875 18.109375 30.90625 
L 18.109375 0 
L 9.078125 0 
L 9.078125 75.984375 
L 18.109375 75.984375 
L 18.109375 46.1875 
Q 21.34375 51.125 25.703125 53.5625 
Q 30.078125 56 35.796875 56 
Q 45.21875 56 50.046875 50.171875 
Q 54.890625 44.34375 54.890625 33.015625 
z
" id="DejaVuSans-104"/>
     <path d="M 48.6875 27.296875 
Q 48.6875 37.203125 44.609375 42.84375 
Q 40.53125 48.484375 33.40625 48.484375 
Q 26.265625 48.484375 22.1875 42.84375 
Q 18.109375 37.203125 18.109375 27.296875 
Q 18.109375 17.390625 22.1875 11.75 
Q 26.265625 6.109375 33.40625 6.109375 
Q 40.53125 6.109375 44.609375 11.75 
Q 48.6875 17.390625 48.6875 27.296875 
z
M 18.109375 46.390625 
Q 20.953125 51.265625 25.265625 53.625 
Q 29.59375 56 35.59375 56 
Q 45.5625 56 51.78125 48.09375 
Q 58.015625 40.1875 58.015625 27.296875 
Q 58.015625 14.40625 51.78125 6.484375 
Q 45.5625 -1.421875 35.59375 -1.421875 
Q 29.59375 -1.421875 25.265625 0.953125 
Q 20.953125 3.328125 18.109375 8.203125 
L 18.109375 0 
L 9.078125 0 
L 9.078125 75.984375 
L 18.109375 75.984375 
z
" id="DejaVuSans-98"/>
    </defs>
    <g transform="translate(113.476783 21.6)scale(0.14 -0.14)">
     <use xlink:href="#DejaVuSans-83"/>
     <use x="63.476562" xlink:href="#DejaVuSans-97"/>
     <use x="124.755859" xlink:href="#DejaVuSans-237"/>
     <use x="152.539062" xlink:href="#DejaVuSans-100"/>
     <use x="216.015625" xlink:href="#DejaVuSans-97"/>
     <use x="277.294922" xlink:href="#DejaVuSans-32"/>
     <use x="309.082031" xlink:href="#DejaVuSans-100"/>
     <use x="372.558594" xlink:href="#DejaVuSans-111"/>
     <use x="433.740234" xlink:href="#DejaVuSans-32"/>
     <use x="465.527344" xlink:href="#DejaVuSans-115"/>
     <use x="517.626953" xlink:href="#DejaVuSans-105"/>
     <use x="545.410156" xlink:href="#DejaVuSans-115"/>
     <use x="597.509766" xlink:href="#DejaVuSans-116"/>
     <use x="636.71875" xlink:href="#DejaVuSans-101"/>
     <use x="698.242188" xlink:href="#DejaVuSans-109"/>
     <use x="795.654297" xlink:href="#DejaVuSans-97"/>
     <use x="856.933594" xlink:href="#DejaVuSans-32"/>
     <use x="888.720703" xlink:href="#DejaVuSans-101"/>
     <use x="950.244141" xlink:href="#DejaVuSans-109"/>
     <use x="1047.65625" xlink:href="#DejaVuSans-32"/>
     <use x="1079.443359" xlink:href="#DejaVuSans-109"/>
     <use x="1176.855469" xlink:href="#DejaVuSans-97"/>
     <use x="1238.134766" xlink:href="#DejaVuSans-108"/>
     <use x="1265.917969" xlink:href="#DejaVuSans-104"/>
     <use x="1329.296875" xlink:href="#DejaVuSans-97"/>
     <use x="1390.576172" xlink:href="#DejaVuSans-32"/>
     <use x="1422.363281" xlink:href="#DejaVuSans-97"/>
     <use x="1483.642578" xlink:href="#DejaVuSans-98"/>
     <use x="1547.119141" xlink:href="#DejaVuSans-101"/>
     <use x="1608.642578" xlink:href="#DejaVuSans-114"/>
     <use x="1649.755859" xlink:href="#DejaVuSans-116"/>
     <use x="1688.964844" xlink:href="#DejaVuSans-97"/>
    </g>
   </g>
   <g id="legend_1">
    <g id="patch_7">
     <path d="M 63.597402 64.95625 
L 189.319277 64.95625 
Q 191.319277 64.95625 191.319277 62.95625 
L 191.319277 34.6 
Q 191.319277 32.6 189.319277 32.6 
L 63.597402 32.6 
Q 61.597402 32.6 61.597402 34.6 
L 61.597402 62.95625 
Q 61.597402 64.95625 63.597402 64.95625 
z
" style="fill:#ffffff;opacity:0.8;stroke:#cccccc;stroke-linejoin:miter;"/>
    </g>
    <g id="line2d_33">
     <path d="M 65.597402 40.698438 
L 85.597402 40.698438 
" style="fill:none;stroke:#0000ff;stroke-linecap:square;"/>
    </g>
    <g id="line2d_34"/>
    <g id="text_19">
     <!-- Saída -->
     <g transform="translate(93.597402 44.198438)scale(0.1 -0.1)">
      <use xlink:href="#DejaVuSans-83"/>
      <use x="63.476562" xlink:href="#DejaVuSans-97"/>
      <use x="124.755859" xlink:href="#DejaVuSans-237"/>
      <use x="152.539062" xlink:href="#DejaVuSans-100"/>
      <use x="216.015625" xlink:href="#DejaVuSans-97"/>
     </g>
    </g>
    <g id="line2d_35">
     <path d="M 65.597402 55.376563 
L 85.597402 55.376563 
" style="fill:none;stroke:#008000;stroke-dasharray:3.7,1.6;stroke-dashoffset:0;"/>
    </g>
    <g id="line2d_36"/>
    <g id="text_20">
     <!-- Sinal de referência -->
     <defs>
      <path d="M 54.890625 33.015625 
L 54.890625 0 
L 45.90625 0 
L 45.90625 32.71875 
Q 45.90625 40.484375 42.875 44.328125 
Q 39.84375 48.1875 33.796875 48.1875 
Q 26.515625 48.1875 22.3125 43.546875 
Q 18.109375 38.921875 18.109375 30.90625 
L 18.109375 0 
L 9.078125 0 
L 9.078125 54.6875 
L 18.109375 54.6875 
L 18.109375 46.1875 
Q 21.34375 51.125 25.703125 53.5625 
Q 30.078125 56 35.796875 56 
Q 45.21875 56 50.046875 50.171875 
Q 54.890625 44.34375 54.890625 33.015625 
z
" id="DejaVuSans-110"/>
      <path d="M 37.109375 75.984375 
L 37.109375 68.5 
L 28.515625 68.5 
Q 23.6875 68.5 21.796875 66.546875 
Q 19.921875 64.59375 19.921875 59.515625 
L 19.921875 54.6875 
L 34.71875 54.6875 
L 34.71875 47.703125 
L 19.921875 47.703125 
L 19.921875 0 
L 10.890625 0 
L 10.890625 47.703125 
L 2.296875 47.703125 
L 2.296875 54.6875 
L 10.890625 54.6875 
L 10.890625 58.5 
Q 10.890625 67.625 15.140625 71.796875 
Q 19.390625 75.984375 28.609375 75.984375 
z
" id="DejaVuSans-102"/>
      <path d="M 56.203125 29.59375 
L 56.203125 25.203125 
L 14.890625 25.203125 
Q 15.484375 15.921875 20.484375 11.0625 
Q 25.484375 6.203125 34.421875 6.203125 
Q 39.59375 6.203125 44.453125 7.46875 
Q 49.3125 8.734375 54.109375 11.28125 
L 54.109375 2.78125 
Q 49.265625 0.734375 44.1875 -0.34375 
Q 39.109375 -1.421875 33.890625 -1.421875 
Q 20.796875 -1.421875 13.15625 6.1875 
Q 5.515625 13.8125 5.515625 26.8125 
Q 5.515625 40.234375 12.765625 48.109375 
Q 20.015625 56 32.328125 56 
Q 43.359375 56 49.78125 48.890625 
Q 56.203125 41.796875 56.203125 29.59375 
z
M 47.21875 32.234375 
Q 47.125 39.59375 43.09375 43.984375 
Q 39.0625 48.390625 32.421875 48.390625 
Q 24.90625 48.390625 20.390625 44.140625 
Q 15.875 39.890625 15.1875 32.171875 
z
M 28.171875 79.984375 
L 35.40625 79.984375 
L 47.359375 61.625 
L 40.578125 61.625 
L 31.78125 73.578125 
L 23 61.625 
L 16.21875 61.625 
z
" id="DejaVuSans-234"/>
      <path d="M 48.78125 52.59375 
L 48.78125 44.1875 
Q 44.96875 46.296875 41.140625 47.34375 
Q 37.3125 48.390625 33.40625 48.390625 
Q 24.65625 48.390625 19.8125 42.84375 
Q 14.984375 37.3125 14.984375 27.296875 
Q 14.984375 17.28125 19.8125 11.734375 
Q 24.65625 6.203125 33.40625 6.203125 
Q 37.3125 6.203125 41.140625 7.25 
Q 44.96875 8.296875 48.78125 10.40625 
L 48.78125 2.09375 
Q 45.015625 0.34375 40.984375 -0.53125 
Q 36.96875 -1.421875 32.421875 -1.421875 
Q 20.0625 -1.421875 12.78125 6.34375 
Q 5.515625 14.109375 5.515625 27.296875 
Q 5.515625 40.671875 12.859375 48.328125 
Q 20.21875 56 33.015625 56 
Q 37.15625 56 41.109375 55.140625 
Q 45.0625 54.296875 48.78125 52.59375 
z
" id="DejaVuSans-99"/>
     </defs>
     <g transform="translate(93.597402 58.876563)scale(0.1 -0.1)">
      <use xlink:href="#DejaVuSans-83"/>
      <use x="63.476562" xlink:href="#DejaVuSans-105"/>
      <use x="91.259766" xlink:href="#DejaVuSans-110"/>
      <use x="154.638672" xlink:href="#DejaVuSans-97"/>
      <use x="215.917969" xlink:href="#DejaVuSans-108"/>
      <use x="243.701172" xlink:href="#DejaVuSans-32"/>
      <use x="275.488281" xlink:href="#DejaVuSans-100"/>
      <use x="338.964844" xlink:href="#DejaVuSans-101"/>
      <use x="400.488281" xlink:href="#DejaVuSans-32"/>
      <use x="432.275391" xlink:href="#DejaVuSans-114"/>
      <use x="471.138672" xlink:href="#DejaVuSans-101"/>
      <use x="532.662109" xlink:href="#DejaVuSans-102"/>
      <use x="567.867188" xlink:href="#DejaVuSans-101"/>
      <use x="629.390625" xlink:href="#DejaVuSans-114"/>
      <use x="668.253906" xlink:href="#DejaVuSans-234"/>
      <use x="729.777344" xlink:href="#DejaVuSans-110"/>
      <use x="793.15625" xlink:href="#DejaVuSans-99"/>
      <use x="848.136719" xlink:href="#DejaVuSans-105"/>
      <use x="875.919922" xlink:href="#DejaVuSans-97"/>
     </g>
    </g>
   </g>
  </g>
 </g>
 <defs>
  <clipPath id="p9fcfc12036">
   <rect height="234.030551" width="358.791575" x="56.597402" y="27.6"/>
  </clipPath>
 </defs>
</svg>
