<?xml version="1.0" encoding="utf-8" standalone="no"?>
<!DOCTYPE svg PUBLIC "-//W3C//DTD SVG 1.1//EN"
  "http://www.w3.org/Graphics/SVG/1.1/DTD/svg11.dtd">
<!-- Created with matplotlib (https://matplotlib.org/) -->
<svg height="297.637795pt" version="1.1" viewBox="0 0 439.370079 297.637795" width="439.370079pt" xmlns="http://www.w3.org/2000/svg" xmlns:xlink="http://www.w3.org/1999/xlink">
 <defs>
  <style type="text/css">
*{stroke-linecap:butt;stroke-linejoin:round;}
  </style>
 </defs>
 <g id="figure_1">
  <g id="patch_1">
   <path d="M 0 297.637795 
L 439.370079 297.637795 
L 439.370079 0 
L 0 0 
z
" style="fill:#ffffff;"/>
  </g>
  <g id="axes_1">
   <g id="patch_2">
    <path d="M 71.357402 261.630551 
L 415.388976 261.630551 
L 415.388976 45.7728 
L 71.357402 45.7728 
z
" style="fill:#ffffff;"/>
   </g>
   <g id="matplotlib.axis_1">
    <g id="xtick_1">
     <g id="line2d_1">
      <path clip-path="url(#pb46452eb3e)" d="M 71.357402 261.630551 
L 71.357402 45.7728 
" style="fill:none;stroke:#000000;stroke-dasharray:0.7,1.155;stroke-dashoffset:0;stroke-width:0.7;"/>
     </g>
     <g id="line2d_2">
      <defs>
       <path d="M 0 0 
L 0 3.5 
" id="m9a84adc166" style="stroke:#000000;stroke-width:0.8;"/>
      </defs>
      <g>
       <use style="stroke:#000000;stroke-width:0.8;" x="71.357402" xlink:href="#m9a84adc166" y="261.630551"/>
      </g>
     </g>
     <g id="text_1">
      <!-- 0 -->
      <defs>
       <path d="M 31.78125 66.40625 
Q 24.171875 66.40625 20.328125 58.90625 
Q 16.5 51.421875 16.5 36.375 
Q 16.5 21.390625 20.328125 13.890625 
Q 24.171875 6.390625 31.78125 6.390625 
Q 39.453125 6.390625 43.28125 13.890625 
Q 47.125 21.390625 47.125 36.375 
Q 47.125 51.421875 43.28125 58.90625 
Q 39.453125 66.40625 31.78125 66.40625 
z
M 31.78125 74.21875 
Q 44.046875 74.21875 50.515625 64.515625 
Q 56.984375 54.828125 56.984375 36.375 
Q 56.984375 17.96875 50.515625 8.265625 
Q 44.046875 -1.421875 31.78125 -1.421875 
Q 19.53125 -1.421875 13.0625 8.265625 
Q 6.59375 17.96875 6.59375 36.375 
Q 6.59375 54.828125 13.0625 64.515625 
Q 19.53125 74.21875 31.78125 74.21875 
z
" id="DejaVuSans-48"/>
      </defs>
      <g transform="translate(68.176152 276.228989)scale(0.1 -0.1)">
       <use xlink:href="#DejaVuSans-48"/>
      </g>
     </g>
    </g>
    <g id="xtick_2">
     <g id="line2d_3">
      <path clip-path="url(#pb46452eb3e)" d="M 114.577449 261.630551 
L 114.577449 45.7728 
" style="fill:none;stroke:#000000;stroke-dasharray:0.7,1.155;stroke-dashoffset:0;stroke-width:0.7;"/>
     </g>
     <g id="line2d_4">
      <g>
       <use style="stroke:#000000;stroke-width:0.8;" x="114.577449" xlink:href="#m9a84adc166" y="261.630551"/>
      </g>
     </g>
     <g id="text_2">
      <!-- 25 -->
      <defs>
       <path d="M 19.1875 8.296875 
L 53.609375 8.296875 
L 53.609375 0 
L 7.328125 0 
L 7.328125 8.296875 
Q 12.9375 14.109375 22.625 23.890625 
Q 32.328125 33.6875 34.8125 36.53125 
Q 39.546875 41.84375 41.421875 45.53125 
Q 43.3125 49.21875 43.3125 52.78125 
Q 43.3125 58.59375 39.234375 62.25 
Q 35.15625 65.921875 28.609375 65.921875 
Q 23.96875 65.921875 18.8125 64.3125 
Q 13.671875 62.703125 7.8125 59.421875 
L 7.8125 69.390625 
Q 13.765625 71.78125 18.9375 73 
Q 24.125 74.21875 28.421875 74.21875 
Q 39.75 74.21875 46.484375 68.546875 
Q 53.21875 62.890625 53.21875 53.421875 
Q 53.21875 48.921875 51.53125 44.890625 
Q 49.859375 40.875 45.40625 35.40625 
Q 44.1875 33.984375 37.640625 27.21875 
Q 31.109375 20.453125 19.1875 8.296875 
z
" id="DejaVuSans-50"/>
       <path d="M 10.796875 72.90625 
L 49.515625 72.90625 
L 49.515625 64.59375 
L 19.828125 64.59375 
L 19.828125 46.734375 
Q 21.96875 47.46875 24.109375 47.828125 
Q 26.265625 48.1875 28.421875 48.1875 
Q 40.625 48.1875 47.75 41.5 
Q 54.890625 34.8125 54.890625 23.390625 
Q 54.890625 11.625 47.5625 5.09375 
Q 40.234375 -1.421875 26.90625 -1.421875 
Q 22.3125 -1.421875 17.546875 -0.640625 
Q 12.796875 0.140625 7.71875 1.703125 
L 7.71875 11.625 
Q 12.109375 9.234375 16.796875 8.0625 
Q 21.484375 6.890625 26.703125 6.890625 
Q 35.15625 6.890625 40.078125 11.328125 
Q 45.015625 15.765625 45.015625 23.390625 
Q 45.015625 31 40.078125 35.4375 
Q 35.15625 39.890625 26.703125 39.890625 
Q 22.75 39.890625 18.8125 39.015625 
Q 14.890625 38.140625 10.796875 36.28125 
z
" id="DejaVuSans-53"/>
      </defs>
      <g transform="translate(108.214949 276.228989)scale(0.1 -0.1)">
       <use xlink:href="#DejaVuSans-50"/>
       <use x="63.623047" xlink:href="#DejaVuSans-53"/>
      </g>
     </g>
    </g>
    <g id="xtick_3">
     <g id="line2d_5">
      <path clip-path="url(#pb46452eb3e)" d="M 157.797496 261.630551 
L 157.797496 45.7728 
" style="fill:none;stroke:#000000;stroke-dasharray:0.7,1.155;stroke-dashoffset:0;stroke-width:0.7;"/>
     </g>
     <g id="line2d_6">
      <g>
       <use style="stroke:#000000;stroke-width:0.8;" x="157.797496" xlink:href="#m9a84adc166" y="261.630551"/>
      </g>
     </g>
     <g id="text_3">
      <!-- 50 -->
      <g transform="translate(151.434996 276.228989)scale(0.1 -0.1)">
       <use xlink:href="#DejaVuSans-53"/>
       <use x="63.623047" xlink:href="#DejaVuSans-48"/>
      </g>
     </g>
    </g>
    <g id="xtick_4">
     <g id="line2d_7">
      <path clip-path="url(#pb46452eb3e)" d="M 201.017543 261.630551 
L 201.017543 45.7728 
" style="fill:none;stroke:#000000;stroke-dasharray:0.7,1.155;stroke-dashoffset:0;stroke-width:0.7;"/>
     </g>
     <g id="line2d_8">
      <g>
       <use style="stroke:#000000;stroke-width:0.8;" x="201.017543" xlink:href="#m9a84adc166" y="261.630551"/>
      </g>
     </g>
     <g id="text_4">
      <!-- 75 -->
      <defs>
       <path d="M 8.203125 72.90625 
L 55.078125 72.90625 
L 55.078125 68.703125 
L 28.609375 0 
L 18.3125 0 
L 43.21875 64.59375 
L 8.203125 64.59375 
z
" id="DejaVuSans-55"/>
      </defs>
      <g transform="translate(194.655043 276.228989)scale(0.1 -0.1)">
       <use xlink:href="#DejaVuSans-55"/>
       <use x="63.623047" xlink:href="#DejaVuSans-53"/>
      </g>
     </g>
    </g>
    <g id="xtick_5">
     <g id="line2d_9">
      <path clip-path="url(#pb46452eb3e)" d="M 244.23759 261.630551 
L 244.23759 45.7728 
" style="fill:none;stroke:#000000;stroke-dasharray:0.7,1.155;stroke-dashoffset:0;stroke-width:0.7;"/>
     </g>
     <g id="line2d_10">
      <g>
       <use style="stroke:#000000;stroke-width:0.8;" x="244.23759" xlink:href="#m9a84adc166" y="261.630551"/>
      </g>
     </g>
     <g id="text_5">
      <!-- 100 -->
      <defs>
       <path d="M 12.40625 8.296875 
L 28.515625 8.296875 
L 28.515625 63.921875 
L 10.984375 60.40625 
L 10.984375 69.390625 
L 28.421875 72.90625 
L 38.28125 72.90625 
L 38.28125 8.296875 
L 54.390625 8.296875 
L 54.390625 0 
L 12.40625 0 
z
" id="DejaVuSans-49"/>
      </defs>
      <g transform="translate(234.69384 276.228989)scale(0.1 -0.1)">
       <use xlink:href="#DejaVuSans-49"/>
       <use x="63.623047" xlink:href="#DejaVuSans-48"/>
       <use x="127.246094" xlink:href="#DejaVuSans-48"/>
      </g>
     </g>
    </g>
    <g id="xtick_6">
     <g id="line2d_11">
      <path clip-path="url(#pb46452eb3e)" d="M 287.457637 261.630551 
L 287.457637 45.7728 
" style="fill:none;stroke:#000000;stroke-dasharray:0.7,1.155;stroke-dashoffset:0;stroke-width:0.7;"/>
     </g>
     <g id="line2d_12">
      <g>
       <use style="stroke:#000000;stroke-width:0.8;" x="287.457637" xlink:href="#m9a84adc166" y="261.630551"/>
      </g>
     </g>
     <g id="text_6">
      <!-- 125 -->
      <g transform="translate(277.913887 276.228989)scale(0.1 -0.1)">
       <use xlink:href="#DejaVuSans-49"/>
       <use x="63.623047" xlink:href="#DejaVuSans-50"/>
       <use x="127.246094" xlink:href="#DejaVuSans-53"/>
      </g>
     </g>
    </g>
    <g id="xtick_7">
     <g id="line2d_13">
      <path clip-path="url(#pb46452eb3e)" d="M 330.677684 261.630551 
L 330.677684 45.7728 
" style="fill:none;stroke:#000000;stroke-dasharray:0.7,1.155;stroke-dashoffset:0;stroke-width:0.7;"/>
     </g>
     <g id="line2d_14">
      <g>
       <use style="stroke:#000000;stroke-width:0.8;" x="330.677684" xlink:href="#m9a84adc166" y="261.630551"/>
      </g>
     </g>
     <g id="text_7">
      <!-- 150 -->
      <g transform="translate(321.133934 276.228989)scale(0.1 -0.1)">
       <use xlink:href="#DejaVuSans-49"/>
       <use x="63.623047" xlink:href="#DejaVuSans-53"/>
       <use x="127.246094" xlink:href="#DejaVuSans-48"/>
      </g>
     </g>
    </g>
    <g id="xtick_8">
     <g id="line2d_15">
      <path clip-path="url(#pb46452eb3e)" d="M 373.897731 261.630551 
L 373.897731 45.7728 
" style="fill:none;stroke:#000000;stroke-dasharray:0.7,1.155;stroke-dashoffset:0;stroke-width:0.7;"/>
     </g>
     <g id="line2d_16">
      <g>
       <use style="stroke:#000000;stroke-width:0.8;" x="373.897731" xlink:href="#m9a84adc166" y="261.630551"/>
      </g>
     </g>
     <g id="text_8">
      <!-- 175 -->
      <g transform="translate(364.353981 276.228989)scale(0.1 -0.1)">
       <use xlink:href="#DejaVuSans-49"/>
       <use x="63.623047" xlink:href="#DejaVuSans-55"/>
       <use x="127.246094" xlink:href="#DejaVuSans-53"/>
      </g>
     </g>
    </g>
    <g id="text_9">
     <!-- Amostra -->
     <defs>
      <path d="M 34.1875 63.1875 
L 20.796875 26.90625 
L 47.609375 26.90625 
z
M 28.609375 72.90625 
L 39.796875 72.90625 
L 67.578125 0 
L 57.328125 0 
L 50.6875 18.703125 
L 17.828125 18.703125 
L 11.1875 0 
L 0.78125 0 
z
" id="DejaVuSans-65"/>
      <path d="M 52 44.1875 
Q 55.375 50.25 60.0625 53.125 
Q 64.75 56 71.09375 56 
Q 79.640625 56 84.28125 50.015625 
Q 88.921875 44.046875 88.921875 33.015625 
L 88.921875 0 
L 79.890625 0 
L 79.890625 32.71875 
Q 79.890625 40.578125 77.09375 44.375 
Q 74.3125 48.1875 68.609375 48.1875 
Q 61.625 48.1875 57.5625 43.546875 
Q 53.515625 38.921875 53.515625 30.90625 
L 53.515625 0 
L 44.484375 0 
L 44.484375 32.71875 
Q 44.484375 40.625 41.703125 44.40625 
Q 38.921875 48.1875 33.109375 48.1875 
Q 26.21875 48.1875 22.15625 43.53125 
Q 18.109375 38.875 18.109375 30.90625 
L 18.109375 0 
L 9.078125 0 
L 9.078125 54.6875 
L 18.109375 54.6875 
L 18.109375 46.1875 
Q 21.1875 51.21875 25.484375 53.609375 
Q 29.78125 56 35.6875 56 
Q 41.65625 56 45.828125 52.96875 
Q 50 49.953125 52 44.1875 
z
" id="DejaVuSans-109"/>
      <path d="M 30.609375 48.390625 
Q 23.390625 48.390625 19.1875 42.75 
Q 14.984375 37.109375 14.984375 27.296875 
Q 14.984375 17.484375 19.15625 11.84375 
Q 23.34375 6.203125 30.609375 6.203125 
Q 37.796875 6.203125 41.984375 11.859375 
Q 46.1875 17.53125 46.1875 27.296875 
Q 46.1875 37.015625 41.984375 42.703125 
Q 37.796875 48.390625 30.609375 48.390625 
z
M 30.609375 56 
Q 42.328125 56 49.015625 48.375 
Q 55.71875 40.765625 55.71875 27.296875 
Q 55.71875 13.875 49.015625 6.21875 
Q 42.328125 -1.421875 30.609375 -1.421875 
Q 18.84375 -1.421875 12.171875 6.21875 
Q 5.515625 13.875 5.515625 27.296875 
Q 5.515625 40.765625 12.171875 48.375 
Q 18.84375 56 30.609375 56 
z
" id="DejaVuSans-111"/>
      <path d="M 44.28125 53.078125 
L 44.28125 44.578125 
Q 40.484375 46.53125 36.375 47.5 
Q 32.28125 48.484375 27.875 48.484375 
Q 21.1875 48.484375 17.84375 46.4375 
Q 14.5 44.390625 14.5 40.28125 
Q 14.5 37.15625 16.890625 35.375 
Q 19.28125 33.59375 26.515625 31.984375 
L 29.59375 31.296875 
Q 39.15625 29.25 43.1875 25.515625 
Q 47.21875 21.78125 47.21875 15.09375 
Q 47.21875 7.46875 41.1875 3.015625 
Q 35.15625 -1.421875 24.609375 -1.421875 
Q 20.21875 -1.421875 15.453125 -0.5625 
Q 10.6875 0.296875 5.421875 2 
L 5.421875 11.28125 
Q 10.40625 8.6875 15.234375 7.390625 
Q 20.0625 6.109375 24.8125 6.109375 
Q 31.15625 6.109375 34.5625 8.28125 
Q 37.984375 10.453125 37.984375 14.40625 
Q 37.984375 18.0625 35.515625 20.015625 
Q 33.0625 21.96875 24.703125 23.78125 
L 21.578125 24.515625 
Q 13.234375 26.265625 9.515625 29.90625 
Q 5.8125 33.546875 5.8125 39.890625 
Q 5.8125 47.609375 11.28125 51.796875 
Q 16.75 56 26.8125 56 
Q 31.78125 56 36.171875 55.265625 
Q 40.578125 54.546875 44.28125 53.078125 
z
" id="DejaVuSans-115"/>
      <path d="M 18.3125 70.21875 
L 18.3125 54.6875 
L 36.8125 54.6875 
L 36.8125 47.703125 
L 18.3125 47.703125 
L 18.3125 18.015625 
Q 18.3125 11.328125 20.140625 9.421875 
Q 21.96875 7.515625 27.59375 7.515625 
L 36.8125 7.515625 
L 36.8125 0 
L 27.59375 0 
Q 17.1875 0 13.234375 3.875 
Q 9.28125 7.765625 9.28125 18.015625 
L 9.28125 47.703125 
L 2.6875 47.703125 
L 2.6875 54.6875 
L 9.28125 54.6875 
L 9.28125 70.21875 
z
" id="DejaVuSans-116"/>
      <path d="M 41.109375 46.296875 
Q 39.59375 47.171875 37.8125 47.578125 
Q 36.03125 48 33.890625 48 
Q 26.265625 48 22.1875 43.046875 
Q 18.109375 38.09375 18.109375 28.8125 
L 18.109375 0 
L 9.078125 0 
L 9.078125 54.6875 
L 18.109375 54.6875 
L 18.109375 46.1875 
Q 20.953125 51.171875 25.484375 53.578125 
Q 30.03125 56 36.53125 56 
Q 37.453125 56 38.578125 55.875 
Q 39.703125 55.765625 41.0625 55.515625 
z
" id="DejaVuSans-114"/>
      <path d="M 34.28125 27.484375 
Q 23.390625 27.484375 19.1875 25 
Q 14.984375 22.515625 14.984375 16.5 
Q 14.984375 11.71875 18.140625 8.90625 
Q 21.296875 6.109375 26.703125 6.109375 
Q 34.1875 6.109375 38.703125 11.40625 
Q 43.21875 16.703125 43.21875 25.484375 
L 43.21875 27.484375 
z
M 52.203125 31.203125 
L 52.203125 0 
L 43.21875 0 
L 43.21875 8.296875 
Q 40.140625 3.328125 35.546875 0.953125 
Q 30.953125 -1.421875 24.3125 -1.421875 
Q 15.921875 -1.421875 10.953125 3.296875 
Q 6 8.015625 6 15.921875 
Q 6 25.140625 12.171875 29.828125 
Q 18.359375 34.515625 30.609375 34.515625 
L 43.21875 34.515625 
L 43.21875 35.40625 
Q 43.21875 41.609375 39.140625 45 
Q 35.0625 48.390625 27.6875 48.390625 
Q 23 48.390625 18.546875 47.265625 
Q 14.109375 46.140625 10.015625 43.890625 
L 10.015625 52.203125 
Q 14.9375 54.109375 19.578125 55.046875 
Q 24.21875 56 28.609375 56 
Q 40.484375 56 46.34375 49.84375 
Q 52.203125 43.703125 52.203125 31.203125 
z
" id="DejaVuSans-97"/>
     </defs>
     <g transform="translate(222.338814 289.907114)scale(0.1 -0.1)">
      <use xlink:href="#DejaVuSans-65"/>
      <use x="68.408203" xlink:href="#DejaVuSans-109"/>
      <use x="165.820312" xlink:href="#DejaVuSans-111"/>
      <use x="227.001953" xlink:href="#DejaVuSans-115"/>
      <use x="279.101562" xlink:href="#DejaVuSans-116"/>
      <use x="318.310547" xlink:href="#DejaVuSans-114"/>
      <use x="359.423828" xlink:href="#DejaVuSans-97"/>
     </g>
    </g>
   </g>
   <g id="matplotlib.axis_2">
    <g id="ytick_1">
     <g id="line2d_17">
      <path clip-path="url(#pb46452eb3e)" d="M 71.357402 244.207434 
L 415.388976 244.207434 
" style="fill:none;stroke:#000000;stroke-dasharray:0.7,1.155;stroke-dashoffset:0;stroke-width:0.7;"/>
     </g>
     <g id="line2d_18">
      <defs>
       <path d="M 0 0 
L -3.5 0 
" id="mc9b07c8760" style="stroke:#000000;stroke-width:0.8;"/>
      </defs>
      <g>
       <use style="stroke:#000000;stroke-width:0.8;" x="71.357402" xlink:href="#mc9b07c8760" y="244.207434"/>
      </g>
     </g>
     <g id="text_10">
      <!-- −1.25 -->
      <defs>
       <path d="M 10.59375 35.5 
L 73.1875 35.5 
L 73.1875 27.203125 
L 10.59375 27.203125 
z
" id="DejaVuSans-8722"/>
       <path d="M 10.6875 12.40625 
L 21 12.40625 
L 21 0 
L 10.6875 0 
z
" id="DejaVuSans-46"/>
      </defs>
      <g transform="translate(33.712089 248.006653)scale(0.1 -0.1)">
       <use xlink:href="#DejaVuSans-8722"/>
       <use x="83.789062" xlink:href="#DejaVuSans-49"/>
       <use x="147.412109" xlink:href="#DejaVuSans-46"/>
       <use x="179.199219" xlink:href="#DejaVuSans-50"/>
       <use x="242.822266" xlink:href="#DejaVuSans-53"/>
      </g>
     </g>
    </g>
    <g id="ytick_2">
     <g id="line2d_19">
      <path clip-path="url(#pb46452eb3e)" d="M 71.357402 217.208622 
L 415.388976 217.208622 
" style="fill:none;stroke:#000000;stroke-dasharray:0.7,1.155;stroke-dashoffset:0;stroke-width:0.7;"/>
     </g>
     <g id="line2d_20">
      <g>
       <use style="stroke:#000000;stroke-width:0.8;" x="71.357402" xlink:href="#mc9b07c8760" y="217.208622"/>
      </g>
     </g>
     <g id="text_11">
      <!-- −1.00 -->
      <g transform="translate(33.712089 221.00784)scale(0.1 -0.1)">
       <use xlink:href="#DejaVuSans-8722"/>
       <use x="83.789062" xlink:href="#DejaVuSans-49"/>
       <use x="147.412109" xlink:href="#DejaVuSans-46"/>
       <use x="179.199219" xlink:href="#DejaVuSans-48"/>
       <use x="242.822266" xlink:href="#DejaVuSans-48"/>
      </g>
     </g>
    </g>
    <g id="ytick_3">
     <g id="line2d_21">
      <path clip-path="url(#pb46452eb3e)" d="M 71.357402 190.209809 
L 415.388976 190.209809 
" style="fill:none;stroke:#000000;stroke-dasharray:0.7,1.155;stroke-dashoffset:0;stroke-width:0.7;"/>
     </g>
     <g id="line2d_22">
      <g>
       <use style="stroke:#000000;stroke-width:0.8;" x="71.357402" xlink:href="#mc9b07c8760" y="190.209809"/>
      </g>
     </g>
     <g id="text_12">
      <!-- −0.75 -->
      <g transform="translate(33.712089 194.009028)scale(0.1 -0.1)">
       <use xlink:href="#DejaVuSans-8722"/>
       <use x="83.789062" xlink:href="#DejaVuSans-48"/>
       <use x="147.412109" xlink:href="#DejaVuSans-46"/>
       <use x="179.199219" xlink:href="#DejaVuSans-55"/>
       <use x="242.822266" xlink:href="#DejaVuSans-53"/>
      </g>
     </g>
    </g>
    <g id="ytick_4">
     <g id="line2d_23">
      <path clip-path="url(#pb46452eb3e)" d="M 71.357402 163.210996 
L 415.388976 163.210996 
" style="fill:none;stroke:#000000;stroke-dasharray:0.7,1.155;stroke-dashoffset:0;stroke-width:0.7;"/>
     </g>
     <g id="line2d_24">
      <g>
       <use style="stroke:#000000;stroke-width:0.8;" x="71.357402" xlink:href="#mc9b07c8760" y="163.210996"/>
      </g>
     </g>
     <g id="text_13">
      <!-- −0.50 -->
      <g transform="translate(33.712089 167.010215)scale(0.1 -0.1)">
       <use xlink:href="#DejaVuSans-8722"/>
       <use x="83.789062" xlink:href="#DejaVuSans-48"/>
       <use x="147.412109" xlink:href="#DejaVuSans-46"/>
       <use x="179.199219" xlink:href="#DejaVuSans-53"/>
       <use x="242.822266" xlink:href="#DejaVuSans-48"/>
      </g>
     </g>
    </g>
    <g id="ytick_5">
     <g id="line2d_25">
      <path clip-path="url(#pb46452eb3e)" d="M 71.357402 136.212183 
L 415.388976 136.212183 
" style="fill:none;stroke:#000000;stroke-dasharray:0.7,1.155;stroke-dashoffset:0;stroke-width:0.7;"/>
     </g>
     <g id="line2d_26">
      <g>
       <use style="stroke:#000000;stroke-width:0.8;" x="71.357402" xlink:href="#mc9b07c8760" y="136.212183"/>
      </g>
     </g>
     <g id="text_14">
      <!-- −0.25 -->
      <g transform="translate(33.712089 140.011402)scale(0.1 -0.1)">
       <use xlink:href="#DejaVuSans-8722"/>
       <use x="83.789062" xlink:href="#DejaVuSans-48"/>
       <use x="147.412109" xlink:href="#DejaVuSans-46"/>
       <use x="179.199219" xlink:href="#DejaVuSans-50"/>
       <use x="242.822266" xlink:href="#DejaVuSans-53"/>
      </g>
     </g>
    </g>
    <g id="ytick_6">
     <g id="line2d_27">
      <path clip-path="url(#pb46452eb3e)" d="M 71.357402 109.213371 
L 415.388976 109.213371 
" style="fill:none;stroke:#000000;stroke-dasharray:0.7,1.155;stroke-dashoffset:0;stroke-width:0.7;"/>
     </g>
     <g id="line2d_28">
      <g>
       <use style="stroke:#000000;stroke-width:0.8;" x="71.357402" xlink:href="#mc9b07c8760" y="109.213371"/>
      </g>
     </g>
     <g id="text_15">
      <!-- 0.00 -->
      <g transform="translate(42.091777 113.012589)scale(0.1 -0.1)">
       <use xlink:href="#DejaVuSans-48"/>
       <use x="63.623047" xlink:href="#DejaVuSans-46"/>
       <use x="95.410156" xlink:href="#DejaVuSans-48"/>
       <use x="159.033203" xlink:href="#DejaVuSans-48"/>
      </g>
     </g>
    </g>
    <g id="ytick_7">
     <g id="line2d_29">
      <path clip-path="url(#pb46452eb3e)" d="M 71.357402 82.214558 
L 415.388976 82.214558 
" style="fill:none;stroke:#000000;stroke-dasharray:0.7,1.155;stroke-dashoffset:0;stroke-width:0.7;"/>
     </g>
     <g id="line2d_30">
      <g>
       <use style="stroke:#000000;stroke-width:0.8;" x="71.357402" xlink:href="#mc9b07c8760" y="82.214558"/>
      </g>
     </g>
     <g id="text_16">
      <!-- 0.25 -->
      <g transform="translate(42.091777 86.013777)scale(0.1 -0.1)">
       <use xlink:href="#DejaVuSans-48"/>
       <use x="63.623047" xlink:href="#DejaVuSans-46"/>
       <use x="95.410156" xlink:href="#DejaVuSans-50"/>
       <use x="159.033203" xlink:href="#DejaVuSans-53"/>
      </g>
     </g>
    </g>
    <g id="ytick_8">
     <g id="line2d_31">
      <path clip-path="url(#pb46452eb3e)" d="M 71.357402 55.215745 
L 415.388976 55.215745 
" style="fill:none;stroke:#000000;stroke-dasharray:0.7,1.155;stroke-dashoffset:0;stroke-width:0.7;"/>
     </g>
     <g id="line2d_32">
      <g>
       <use style="stroke:#000000;stroke-width:0.8;" x="71.357402" xlink:href="#mc9b07c8760" y="55.215745"/>
      </g>
     </g>
     <g id="text_17">
      <!-- 0.50 -->
      <g transform="translate(42.091777 59.014964)scale(0.1 -0.1)">
       <use xlink:href="#DejaVuSans-48"/>
       <use x="63.623047" xlink:href="#DejaVuSans-46"/>
       <use x="95.410156" xlink:href="#DejaVuSans-53"/>
       <use x="159.033203" xlink:href="#DejaVuSans-48"/>
      </g>
     </g>
    </g>
    <g id="text_18">
     <!-- Valor -->
     <defs>
      <path d="M 28.609375 0 
L 0.78125 72.90625 
L 11.078125 72.90625 
L 34.1875 11.53125 
L 57.328125 72.90625 
L 67.578125 72.90625 
L 39.796875 0 
z
" id="DejaVuSans-86"/>
      <path d="M 9.421875 75.984375 
L 18.40625 75.984375 
L 18.40625 0 
L 9.421875 0 
z
" id="DejaVuSans-108"/>
     </defs>
     <g transform="translate(27.632402 166.302457)rotate(-90)scale(0.1 -0.1)">
      <use xlink:href="#DejaVuSans-86"/>
      <use x="60.658203" xlink:href="#DejaVuSans-97"/>
      <use x="121.9375" xlink:href="#DejaVuSans-108"/>
      <use x="149.720703" xlink:href="#DejaVuSans-111"/>
      <use x="210.902344" xlink:href="#DejaVuSans-114"/>
     </g>
    </g>
   </g>
   <g id="line2d_33">
    <path clip-path="url(#pb46452eb3e)" d="M 71.357402 98.594472 
L 415.388976 98.594472 
L 415.388976 98.594472 
" style="fill:none;stroke:#0000ff;stroke-dasharray:3.7,1.6;stroke-dashoffset:0;"/>
   </g>
   <g id="line2d_34">
    <path clip-path="url(#pb46452eb3e)" d="M 71.357402 109.213371 
L 73.086203 109.213371 
L 73.086203 100.546416 
L 74.815005 100.546416 
L 74.815005 97.603288 
L 76.543807 97.603288 
L 76.543807 96.188963 
L 78.272609 96.188963 
L 78.272609 95.91985 
L 80.001411 95.91985 
L 80.001411 96.085051 
L 90.374222 96.035684 
L 90.374222 95.251248 
L 92.103024 95.251248 
L 92.103024 95.014921 
L 93.831826 95.014921 
L 93.831826 95.298589 
L 95.560628 95.298589 
L 95.560628 95.613019 
L 97.28943 95.613019 
L 97.28943 95.829362 
L 99.018232 95.829362 
L 99.018232 95.94485 
L 107.662241 96.016652 
L 107.662241 96.934496 
L 109.391043 96.934496 
L 109.391043 97.198877 
L 112.848647 97.166602 
L 112.848647 97.04903 
L 114.577449 97.04903 
L 114.577449 96.898721 
L 116.306251 96.898721 
L 116.306251 96.771204 
L 124.95026 96.80668 
L 124.95026 96.548404 
L 126.679062 96.548404 
L 126.679062 96.406407 
L 130.136666 96.506359 
L 130.136666 96.665226 
L 131.865467 96.665226 
L 131.865467 96.788669 
L 138.780675 96.899721 
L 138.780675 96.901306 
L 142.238279 96.900958 
L 142.238279 97.255613 
L 143.967081 97.255613 
L 143.967081 97.381976 
L 149.153486 97.323406 
L 149.153486 97.24899 
L 152.61109 97.181672 
L 152.61109 97.137275 
L 159.526298 97.196548 
L 159.526298 96.993984 
L 166.441505 97.059652 
L 166.441505 97.140109 
L 176.814316 97.21289 
L 176.814316 97.42286 
L 194.102335 97.400452 
L 194.102335 97.295509 
L 202.746345 97.394696 
L 202.746345 97.427823 
L 211.390354 97.447416 
L 211.390354 97.585809 
L 230.407175 97.4832 
L 230.407175 97.444777 
L 237.322382 97.553036 
L 237.322382 97.576635 
L 245.966392 97.591793 
L 245.966392 97.692325 
L 280.542429 97.699427 
L 280.542429 97.826358 
L 316.847269 97.912642 
L 316.847269 97.939823 
L 415.388976 98.037366 
L 415.388976 98.038442 
" style="fill:none;stroke:#0000ff;stroke-linecap:square;"/>
   </g>
   <g id="line2d_35">
    <path clip-path="url(#pb46452eb3e)" d="M 71.357402 100.813628 
L 415.388976 100.813628 
L 415.388976 100.813628 
" style="fill:none;stroke:#ffa500;stroke-dasharray:3.7,1.6;stroke-dashoffset:0;"/>
   </g>
   <g id="line2d_36">
    <path clip-path="url(#pb46452eb3e)" d="M 71.357402 109.213371 
L 74.815005 109.213371 
L 74.815005 91.565632 
L 76.543807 91.565632 
L 76.543807 83.171063 
L 78.272609 83.171063 
L 78.272609 81.675098 
L 80.001411 81.675098 
L 80.001411 82.716845 
L 81.730213 82.716845 
L 81.730213 83.228526 
L 85.187817 83.187122 
L 85.187817 82.939519 
L 86.916619 82.939519 
L 86.916619 82.65735 
L 88.64542 82.65735 
L 88.64542 82.428736 
L 90.374222 82.428736 
L 90.374222 83.076859 
L 92.103024 83.076859 
L 92.103024 85.127709 
L 93.831826 85.127709 
L 93.831826 83.667638 
L 95.560628 83.667638 
L 95.560628 82.704076 
L 97.28943 82.704076 
L 97.28943 82.397744 
L 102.475835 82.504202 
L 102.475835 82.590819 
L 107.662241 82.650532 
L 107.662241 81.861145 
L 109.391043 81.861145 
L 109.391043 84.336437 
L 111.119845 84.336437 
L 111.119845 84.131232 
L 112.848647 84.131232 
L 112.848647 83.835746 
L 124.95026 83.825987 
L 124.95026 84.087896 
L 126.679062 84.087896 
L 126.679062 85.238113 
L 128.407864 85.238113 
L 128.407864 84.878143 
L 130.136666 84.878143 
L 130.136666 84.652529 
L 133.594269 84.671388 
L 133.594269 84.793507 
L 135.323071 84.793507 
L 135.323071 84.907028 
L 142.238279 85.017266 
L 142.238279 84.706862 
L 143.967081 84.706862 
L 143.967081 86.076766 
L 147.424684 86.037443 
L 147.424684 85.928243 
L 159.526298 85.998889 
L 159.526298 86.214372 
L 161.2551 86.214372 
L 161.2551 86.909601 
L 162.983901 86.909601 
L 162.983901 86.753857 
L 168.170307 86.755585 
L 168.170307 86.874541 
L 171.627911 86.965745 
L 171.627911 87.016098 
L 176.814316 87.039557 
L 176.814316 86.854706 
L 178.543118 86.854706 
L 178.543118 87.778785 
L 194.102335 87.789293 
L 194.102335 87.902615 
L 195.831137 87.902615 
L 195.831137 88.431089 
L 199.288741 88.338901 
L 199.288741 88.313832 
L 202.746345 88.399517 
L 202.746345 88.504307 
L 206.203948 88.578115 
L 206.203948 88.617989 
L 213.119156 88.514653 
L 213.119156 89.190833 
L 228.678373 89.229066 
L 228.678373 89.33989 
L 230.407175 89.33989 
L 230.407175 89.703768 
L 239.051184 89.78904 
L 239.051184 89.847171 
L 247.695194 89.803391 
L 247.695194 90.328674 
L 264.983213 90.385855 
L 264.983213 90.483724 
L 266.712014 90.483724 
L 266.712014 90.755915 
L 275.356024 90.850579 
L 275.356024 90.898413 
L 282.271231 90.826733 
L 282.271231 91.272971 
L 297.830448 91.32636 
L 297.830448 91.384917 
L 299.55925 91.384917 
L 299.55925 91.609455 
L 308.20326 91.708352 
L 308.20326 91.751947 
L 316.847269 91.720999 
L 316.847269 92.064496 
L 334.135288 92.112872 
L 334.135288 92.176955 
L 335.86409 92.176955 
L 335.86409 92.368444 
L 344.508099 92.45927 
L 344.508099 92.494081 
L 351.423307 92.457012 
L 351.423307 92.758072 
L 368.711326 92.833415 
L 368.711326 93.000677 
L 379.084137 93.105659 
L 379.084137 93.12152 
L 385.999344 93.093817 
L 385.999344 93.32312 
L 405.016165 93.401109 
L 405.016165 93.534157 
L 415.388976 93.634927 
L 415.388976 93.645902 
L 415.388976 93.645902 
" style="fill:none;stroke:#ffa500;stroke-linecap:square;"/>
   </g>
   <g id="line2d_37">
    <path clip-path="url(#pb46452eb3e)" d="M 71.357402 251.818835 
L 415.388976 251.818835 
L 415.388976 251.818835 
" style="fill:none;stroke:#008000;stroke-dasharray:3.7,1.6;stroke-dashoffset:0;"/>
   </g>
   <g id="line2d_38">
    <path clip-path="url(#pb46452eb3e)" d="M 71.357402 109.213371 
L 74.815005 109.202243 
L 74.815005 110.920668 
L 76.543807 110.920668 
L 76.543807 125.155331 
L 78.272609 125.155331 
L 78.272609 143.647114 
L 80.001411 143.647114 
L 80.001411 151.519507 
L 81.730213 151.519507 
L 81.730213 153.109117 
L 85.187817 153.036575 
L 85.187817 152.803693 
L 92.103024 152.715125 
L 92.103024 154.119836 
L 93.831826 154.119836 
L 93.831826 154.905901 
L 95.560628 154.905901 
L 95.560628 157.393513 
L 97.28943 157.393513 
L 97.28943 159.985372 
L 99.018232 159.985372 
L 99.018232 161.79545 
L 100.747034 161.79545 
L 100.747034 162.834188 
L 102.475835 162.834188 
L 102.475835 163.318266 
L 104.204637 163.318266 
L 104.204637 163.472653 
L 107.662241 163.507667 
L 107.662241 163.674603 
L 109.391043 163.674603 
L 109.391043 167.202968 
L 112.848647 167.217522 
L 112.848647 168.080873 
L 114.577449 168.080873 
L 114.577449 169.127028 
L 116.306251 169.127028 
L 116.306251 169.763435 
L 118.035052 169.763435 
L 118.035052 169.959682 
L 123.221458 169.99386 
L 123.221458 170.105404 
L 126.679062 170.118127 
L 126.679062 171.603817 
L 128.407864 171.603817 
L 128.407864 171.927929 
L 130.136666 171.927929 
L 130.136666 173.498776 
L 131.865467 173.498776 
L 131.865467 175.31087 
L 133.594269 175.31087 
L 133.594269 176.686849 
L 135.323071 176.686849 
L 135.323071 177.468398 
L 137.051873 177.468398 
L 137.051873 177.819498 
L 138.780675 177.819498 
L 138.780675 177.935445 
L 143.967081 178.036622 
L 143.967081 180.592865 
L 147.424684 180.591661 
L 147.424684 181.088798 
L 149.153486 181.088798 
L 149.153486 181.757947 
L 150.882288 181.757947 
L 150.882288 182.160041 
L 152.61109 182.160041 
L 152.61109 182.293446 
L 157.797496 182.31878 
L 157.797496 182.411428 
L 161.2551 182.444297 
L 161.2551 183.540787 
L 162.983901 183.540787 
L 162.983901 183.733474 
L 164.712703 183.733474 
L 164.712703 184.828634 
L 166.441505 184.828634 
L 166.441505 186.176818 
L 168.170307 186.176818 
L 168.170307 187.18334 
L 169.899109 187.18334 
L 169.899109 187.749199 
L 171.627911 187.749199 
L 171.627911 187.996621 
L 176.814316 188.082006 
L 176.814316 188.13065 
L 178.543118 188.13065 
L 178.543118 190.098607 
L 182.000722 190.097021 
L 182.000722 190.424567 
L 183.729524 190.424567 
L 183.729524 190.870407 
L 185.458326 190.870407 
L 185.458326 191.169627 
L 190.644732 191.268543 
L 190.644732 191.284989 
L 195.831137 191.370896 
L 195.831137 192.31965 
L 197.559939 192.31965 
L 197.559939 192.43662 
L 199.288741 192.43662 
L 199.288741 193.280727 
L 201.017543 193.280727 
L 201.017543 194.337225 
L 202.746345 194.337225 
L 202.746345 195.127456 
L 204.475147 195.127456 
L 204.475147 195.562039 
L 206.203948 195.562039 
L 206.203948 195.755625 
L 213.119156 195.859449 
L 213.119156 197.408013 
L 216.57676 197.407419 
L 216.57676 197.666873 
L 218.305562 197.666873 
L 218.305562 198.028851 
L 220.034364 198.028851 
L 220.034364 198.257849 
L 226.949571 198.345368 
L 226.949571 198.415945 
L 230.407175 198.443146 
L 230.407175 199.136127 
L 233.864779 199.237198 
L 233.864779 199.853368 
L 235.593581 199.853368 
L 235.593581 200.599075 
L 237.322382 200.599075 
L 237.322382 201.178145 
L 239.051184 201.178145 
L 239.051184 201.515574 
L 240.779986 201.515574 
L 240.779986 201.672254 
L 247.695194 201.747515 
L 247.695194 203.01299 
L 251.152797 203.013888 
L 251.152797 203.205479 
L 252.881599 203.205479 
L 252.881599 203.498199 
L 254.610401 203.498199 
L 254.610401 203.694754 
L 263.254411 203.801403 
L 263.254411 203.883143 
L 266.712014 203.914433 
L 266.712014 204.455327 
L 270.169618 204.536175 
L 270.169618 205.032566 
L 271.89842 205.032566 
L 271.89842 205.653168 
L 273.627222 205.653168 
L 273.627222 206.11475 
L 275.356024 206.11475 
L 275.356024 206.38656 
L 277.084826 206.38656 
L 277.084826 206.498695 
L 282.271231 206.60249 
L 282.271231 207.730209 
L 285.728835 207.733087 
L 285.728835 207.889572 
L 287.457637 207.889572 
L 287.457637 208.131399 
L 289.186439 208.131399 
L 289.186439 208.293934 
L 297.830448 208.40267 
L 297.830448 208.417861 
L 299.55925 208.417861 
L 299.55925 208.883264 
L 303.016854 208.951985 
L 303.016854 209.384897 
L 304.745656 209.384897 
L 304.745656 209.919345 
L 306.474458 209.919345 
L 306.474458 210.327158 
L 308.20326 210.327158 
L 308.20326 210.568103 
L 311.660863 210.67728 
L 311.660863 210.714115 
L 316.847269 210.743357 
L 316.847269 211.62129 
L 320.304873 211.622356 
L 320.304873 211.743584 
L 322.033675 211.743584 
L 322.033675 211.932009 
L 323.762477 211.932009 
L 323.762477 212.060575 
L 332.406486 212.13967 
L 332.406486 212.18826 
L 335.86409 212.209763 
L 335.86409 212.614983 
L 339.321694 212.659266 
L 339.321694 213.009296 
L 341.050495 213.009296 
L 341.050495 213.440796 
L 342.779297 213.440796 
L 342.779297 213.789349 
L 344.508099 213.789349 
L 344.508099 213.979824 
L 349.694505 214.073099 
L 349.694505 214.104484 
L 351.423307 214.104484 
L 351.423307 214.894459 
L 354.88091 214.894468 
L 354.88091 215.008557 
L 356.609712 215.008557 
L 356.609712 215.169721 
L 358.338514 215.169721 
L 358.338514 215.28193 
L 368.711326 215.360031 
L 368.711326 215.724229 
L 372.168929 215.75209 
L 372.168929 216.028666 
L 373.897731 216.028666 
L 373.897731 216.368021 
L 375.626533 216.368021 
L 375.626533 216.635051 
L 377.355335 216.635051 
L 377.355335 216.8047 
L 384.270542 216.911998 
L 384.270542 216.925429 
L 385.999344 216.925429 
L 385.999344 217.530338 
L 391.18575 217.618279 
L 391.18575 217.7618 
L 394.643354 217.850864 
L 394.643354 217.879531 
L 405.016165 217.952464 
L 405.016165 218.246703 
L 408.473769 218.277122 
L 408.473769 218.523095 
L 410.202571 218.523095 
L 410.202571 218.858478 
L 411.931373 218.858478 
L 411.931373 219.10896 
L 413.660174 219.10896 
L 413.660174 219.237119 
L 415.388976 219.237119 
L 415.388976 219.289308 
" style="fill:none;stroke:#008000;stroke-linecap:square;"/>
   </g>
   <g id="line2d_39">
    <path clip-path="url(#pb46452eb3e)" d="M 71.357402 55.584516 
L 415.388976 55.584516 
L 415.388976 55.584516 
" style="fill:none;stroke:#ff0000;stroke-dasharray:3.7,1.6;stroke-dashoffset:0;"/>
   </g>
   <g id="line2d_40">
    <path clip-path="url(#pb46452eb3e)" d="M 71.357402 109.213371 
L 76.543807 109.190712 
L 76.543807 115.450254 
L 78.272609 115.450254 
L 78.272609 130.562991 
L 80.001411 130.562991 
L 80.001411 139.958496 
L 81.730213 139.958496 
L 81.730213 142.728916 
L 83.459015 142.728916 
L 83.459015 142.531585 
L 85.187817 142.531585 
L 85.187817 141.339075 
L 86.916619 141.339075 
L 86.916619 139.878457 
L 88.64542 139.878457 
L 88.64542 138.513416 
L 90.374222 138.513416 
L 90.374222 138.200298 
L 92.103024 138.200298 
L 92.103024 139.419066 
L 93.831826 139.419066 
L 93.831826 136.640109 
L 95.560628 136.640109 
L 95.560628 132.699354 
L 97.28943 132.699354 
L 97.28943 129.519327 
L 99.018232 129.519327 
L 99.018232 127.594724 
L 100.747034 127.594724 
L 100.747034 126.612197 
L 102.475835 126.612197 
L 102.475835 126.209161 
L 105.933439 126.101449 
L 105.933439 126.085742 
L 107.662241 126.085742 
L 107.662241 125.924033 
L 109.391043 125.924033 
L 109.391043 124.608574 
L 111.119845 124.608574 
L 111.119845 124.434151 
L 112.848647 124.434151 
L 112.848647 123.491031 
L 114.577449 123.491031 
L 114.577449 122.681595 
L 116.306251 122.681595 
L 116.306251 122.360416 
L 121.492656 122.362821 
L 121.492656 122.218322 
L 123.221458 122.218322 
L 123.221458 121.960933 
L 126.679062 121.899868 
L 126.679062 121.750388 
L 128.407864 121.750388 
L 128.407864 120.956162 
L 130.136666 120.956162 
L 130.136666 119.000646 
L 131.865467 119.000646 
L 131.865467 117.092796 
L 133.594269 117.092796 
L 133.594269 115.778501 
L 135.323071 115.778501 
L 135.323071 115.087039 
L 137.051873 115.087039 
L 137.051873 114.799691 
L 142.238279 114.699806 
L 142.238279 114.620181 
L 143.967081 114.620181 
L 143.967081 113.277862 
L 147.424684 113.248035 
L 147.424684 112.723011 
L 149.153486 112.723011 
L 149.153486 112.173218 
L 150.882288 112.173218 
L 150.882288 111.916457 
L 157.797496 111.833653 
L 157.797496 111.668736 
L 161.2551 111.611075 
L 161.2551 111.291516 
L 162.983901 111.291516 
L 162.983901 110.89703 
L 164.712703 110.89703 
L 164.712703 109.640692 
L 166.441505 109.640692 
L 166.441505 108.301087 
L 168.170307 108.301087 
L 168.170307 107.375651 
L 169.899109 107.375651 
L 169.899109 106.884994 
L 171.627911 106.884994 
L 171.627911 106.683204 
L 176.814316 106.620972 
L 176.814316 106.568776 
L 178.543118 106.568776 
L 178.543118 105.417205 
L 182.000722 105.409495 
L 182.000722 105.073722 
L 183.729524 105.073722 
L 183.729524 104.703433 
L 185.458326 104.703433 
L 185.458326 104.500001 
L 192.373533 104.422787 
L 192.373533 104.320931 
L 195.831137 104.291169 
L 195.831137 103.919487 
L 197.559939 103.919487 
L 197.559939 103.684267 
L 199.288741 103.684267 
L 199.288741 102.757442 
L 201.017543 102.757442 
L 201.017543 101.738319 
L 202.746345 101.738319 
L 202.746345 101.025035 
L 204.475147 101.025035 
L 204.475147 100.652243 
L 206.203948 100.652243 
L 206.203948 100.494605 
L 213.119156 100.406288 
L 213.119156 99.454429 
L 216.57676 99.452786 
L 216.57676 99.191598 
L 218.305562 99.191598 
L 218.305562 98.890346 
L 220.034364 98.890346 
L 220.034364 98.729233 
L 226.949571 98.662196 
L 226.949571 98.565694 
L 230.407175 98.531549 
L 230.407175 98.231233 
L 232.135977 98.231233 
L 232.135977 98.049027 
L 233.864779 98.049027 
L 233.864779 97.39526 
L 235.593581 97.39526 
L 235.593581 96.685316 
L 237.322382 96.685316 
L 237.322382 96.166109 
L 239.051184 96.166109 
L 239.051184 95.877524 
L 240.779986 95.877524 
L 240.779986 95.74967 
L 247.695194 95.68462 
L 247.695194 94.882868 
L 251.152797 94.884382 
L 251.152797 94.69341 
L 252.881599 94.69341 
L 252.881599 94.449356 
L 254.610401 94.449356 
L 254.610401 94.308019 
L 263.254411 94.217334 
L 263.254411 94.11752 
L 266.712014 94.082461 
L 266.712014 93.832443 
L 268.440816 93.832443 
L 268.440816 93.694775 
L 270.169618 93.694775 
L 270.169618 93.179253 
L 271.89842 93.179253 
L 271.89842 92.59705 
L 273.627222 92.59705 
L 273.627222 92.187924 
L 275.356024 92.187924 
L 275.356024 91.956867 
L 278.813628 91.865642 
L 278.813628 91.831663 
L 282.271231 91.775265 
L 282.271231 91.04314 
L 285.728835 91.046234 
L 285.728835 90.890104 
L 287.457637 90.890104 
L 287.457637 90.686822 
L 289.186439 90.686822 
L 289.186439 90.567067 
L 297.830448 90.473727 
L 297.830448 90.45553 
L 299.55925 90.45553 
L 299.55925 90.227914 
L 301.288052 90.227914 
L 301.288052 90.113329 
L 303.016854 90.113329 
L 303.016854 89.670283 
L 304.745656 89.670283 
L 304.745656 89.174016 
L 306.474458 89.174016 
L 306.474458 88.814793 
L 308.20326 88.814793 
L 308.20326 88.611026 
L 311.660863 88.522476 
L 311.660863 88.494211 
L 316.847269 88.46641 
L 316.847269 87.892219 
L 320.304873 87.893552 
L 320.304873 87.774669 
L 322.033675 87.774669 
L 322.033675 87.616928 
L 325.491278 87.522169 
L 325.491278 87.496902 
L 334.135288 87.39794 
L 334.135288 87.374773 
L 335.86409 87.374773 
L 335.86409 87.171305 
L 339.321694 87.09627 
L 339.321694 86.739534 
L 341.050495 86.739534 
L 341.050495 86.341451 
L 342.779297 86.341451 
L 342.779297 86.035464 
L 344.508099 86.035464 
L 344.508099 85.874866 
L 351.423307 85.770289 
L 351.423307 85.246981 
L 354.88091 85.246988 
L 354.88091 85.135759 
L 356.609712 85.135759 
L 356.609712 85.000698 
L 363.52492 84.895006 
L 363.52492 84.888833 
L 368.711326 84.846341 
L 368.711326 84.657347 
L 372.168929 84.610197 
L 372.168929 84.328225 
L 373.897731 84.328225 
L 373.897731 84.015224 
L 375.626533 84.015224 
L 375.626533 83.780353 
L 377.355335 83.780353 
L 377.355335 83.636632 
L 385.999344 83.536995 
L 385.999344 83.134766 
L 391.18575 83.05106 
L 391.18575 82.931145 
L 399.829759 82.844587 
L 399.829759 82.81933 
L 405.016165 82.764906 
L 405.016165 82.609551 
L 408.473769 82.560169 
L 408.473769 82.312956 
L 410.202571 82.312956 
L 410.202571 82.005843 
L 411.931373 82.005843 
L 411.931373 81.787602 
L 415.388976 81.679846 
L 415.388976 81.637497 
L 415.388976 81.637497 
" style="fill:none;stroke:#ff0000;stroke-linecap:square;"/>
   </g>
   <g id="patch_3">
    <path d="M 71.357402 261.630551 
L 71.357402 45.7728 
" style="fill:none;stroke:#000000;stroke-linecap:square;stroke-linejoin:miter;stroke-width:0.8;"/>
   </g>
   <g id="patch_4">
    <path d="M 415.388976 261.630551 
L 415.388976 45.7728 
" style="fill:none;stroke:#000000;stroke-linecap:square;stroke-linejoin:miter;stroke-width:0.8;"/>
   </g>
   <g id="patch_5">
    <path d="M 71.357402 261.630551 
L 415.388976 261.630551 
" style="fill:none;stroke:#000000;stroke-linecap:square;stroke-linejoin:miter;stroke-width:0.8;"/>
   </g>
   <g id="patch_6">
    <path d="M 71.357402 45.7728 
L 415.388976 45.7728 
" style="fill:none;stroke:#000000;stroke-linecap:square;stroke-linejoin:miter;stroke-width:0.8;"/>
   </g>
   <g id="text_19">
    <!-- Evolução temporal dos coeficientes estimados -->
    <defs>
     <path d="M 9.8125 72.90625 
L 55.90625 72.90625 
L 55.90625 64.59375 
L 19.671875 64.59375 
L 19.671875 43.015625 
L 54.390625 43.015625 
L 54.390625 34.71875 
L 19.671875 34.71875 
L 19.671875 8.296875 
L 56.78125 8.296875 
L 56.78125 0 
L 9.8125 0 
z
" id="DejaVuSans-69"/>
     <path d="M 2.984375 54.6875 
L 12.5 54.6875 
L 29.59375 8.796875 
L 46.6875 54.6875 
L 56.203125 54.6875 
L 35.6875 0 
L 23.484375 0 
z
" id="DejaVuSans-118"/>
     <path d="M 8.5 21.578125 
L 8.5 54.6875 
L 17.484375 54.6875 
L 17.484375 21.921875 
Q 17.484375 14.15625 20.5 10.265625 
Q 23.53125 6.390625 29.59375 6.390625 
Q 36.859375 6.390625 41.078125 11.03125 
Q 45.3125 15.671875 45.3125 23.6875 
L 45.3125 54.6875 
L 54.296875 54.6875 
L 54.296875 0 
L 45.3125 0 
L 45.3125 8.40625 
Q 42.046875 3.421875 37.71875 1 
Q 33.40625 -1.421875 27.6875 -1.421875 
Q 18.265625 -1.421875 13.375 4.4375 
Q 8.5 10.296875 8.5 21.578125 
z
M 31.109375 56 
z
" id="DejaVuSans-117"/>
     <path d="M 48.78125 52.59375 
L 48.78125 44.1875 
Q 44.96875 46.296875 41.140625 47.34375 
Q 37.3125 48.390625 33.40625 48.390625 
Q 24.65625 48.390625 19.8125 42.84375 
Q 14.984375 37.3125 14.984375 27.296875 
Q 14.984375 17.28125 19.8125 11.734375 
Q 24.65625 6.203125 33.40625 6.203125 
Q 37.3125 6.203125 41.140625 7.25 
Q 44.96875 8.296875 48.78125 10.40625 
L 48.78125 2.09375 
Q 45.015625 0.34375 40.984375 -0.53125 
Q 36.96875 -1.421875 32.421875 -1.421875 
Q 20.0625 -1.421875 12.78125 6.34375 
Q 5.515625 14.109375 5.515625 27.296875 
Q 5.515625 40.671875 12.859375 48.328125 
Q 20.21875 56 33.015625 56 
Q 37.15625 56 41.109375 55.140625 
Q 45.0625 54.296875 48.78125 52.59375 
z
M 36.078125 0 
Q 38.765625 -3.03125 40.078125 -5.59375 
Q 41.40625 -8.15625 41.40625 -10.5 
Q 41.40625 -14.84375 38.46875 -17.0625 
Q 35.546875 -19.28125 29.78125 -19.28125 
Q 27.546875 -19.28125 25.421875 -18.984375 
Q 23.296875 -18.703125 21.1875 -18.109375 
L 21.1875 -11.71875 
Q 22.859375 -12.546875 24.65625 -12.90625 
Q 26.46875 -13.28125 28.765625 -13.28125 
Q 31.640625 -13.28125 33.109375 -12.109375 
Q 34.578125 -10.9375 34.578125 -8.6875 
Q 34.578125 -7.234375 33.515625 -5.109375 
Q 32.46875 -2.984375 30.28125 0 
z
" id="DejaVuSans-231"/>
     <path d="M 34.28125 27.484375 
Q 23.390625 27.484375 19.1875 25 
Q 14.984375 22.515625 14.984375 16.5 
Q 14.984375 11.71875 18.140625 8.90625 
Q 21.296875 6.109375 26.703125 6.109375 
Q 34.1875 6.109375 38.703125 11.40625 
Q 43.21875 16.703125 43.21875 25.484375 
L 43.21875 27.484375 
z
M 52.203125 31.203125 
L 52.203125 0 
L 43.21875 0 
L 43.21875 8.296875 
Q 40.140625 3.328125 35.546875 0.953125 
Q 30.953125 -1.421875 24.3125 -1.421875 
Q 15.921875 -1.421875 10.953125 3.296875 
Q 6 8.015625 6 15.921875 
Q 6 25.140625 12.171875 29.828125 
Q 18.359375 34.515625 30.609375 34.515625 
L 43.21875 34.515625 
L 43.21875 35.40625 
Q 43.21875 41.609375 39.140625 45 
Q 35.0625 48.390625 27.6875 48.390625 
Q 23 48.390625 18.546875 47.265625 
Q 14.109375 46.140625 10.015625 43.890625 
L 10.015625 52.203125 
Q 14.9375 54.109375 19.578125 55.046875 
Q 24.21875 56 28.609375 56 
Q 40.484375 56 46.34375 49.84375 
Q 52.203125 43.703125 52.203125 31.203125 
z
M 28.8125 66.890625 
L 26.03125 69.578125 
Q 24.953125 70.5625 24.140625 71.015625 
Q 23.34375 71.484375 22.703125 71.484375 
Q 20.84375 71.484375 19.96875 69.703125 
Q 19.09375 67.921875 19 63.921875 
L 12.890625 63.921875 
Q 12.984375 70.515625 15.46875 74.09375 
Q 17.96875 77.6875 22.40625 77.6875 
Q 24.265625 77.6875 25.828125 77 
Q 27.390625 76.3125 29.203125 74.703125 
L 31.984375 72.015625 
Q 33.0625 71.046875 33.859375 70.578125 
Q 34.671875 70.125 35.296875 70.125 
Q 37.15625 70.125 38.03125 71.90625 
Q 38.921875 73.6875 39.015625 77.6875 
L 45.125 77.6875 
Q 45.015625 71.09375 42.53125 67.5 
Q 40.046875 63.921875 35.59375 63.921875 
Q 33.734375 63.921875 32.171875 64.59375 
Q 30.609375 65.28125 28.8125 66.890625 
z
" id="DejaVuSans-227"/>
     <path id="DejaVuSans-32"/>
     <path d="M 56.203125 29.59375 
L 56.203125 25.203125 
L 14.890625 25.203125 
Q 15.484375 15.921875 20.484375 11.0625 
Q 25.484375 6.203125 34.421875 6.203125 
Q 39.59375 6.203125 44.453125 7.46875 
Q 49.3125 8.734375 54.109375 11.28125 
L 54.109375 2.78125 
Q 49.265625 0.734375 44.1875 -0.34375 
Q 39.109375 -1.421875 33.890625 -1.421875 
Q 20.796875 -1.421875 13.15625 6.1875 
Q 5.515625 13.8125 5.515625 26.8125 
Q 5.515625 40.234375 12.765625 48.109375 
Q 20.015625 56 32.328125 56 
Q 43.359375 56 49.78125 48.890625 
Q 56.203125 41.796875 56.203125 29.59375 
z
M 47.21875 32.234375 
Q 47.125 39.59375 43.09375 43.984375 
Q 39.0625 48.390625 32.421875 48.390625 
Q 24.90625 48.390625 20.390625 44.140625 
Q 15.875 39.890625 15.1875 32.171875 
z
" id="DejaVuSans-101"/>
     <path d="M 18.109375 8.203125 
L 18.109375 -20.796875 
L 9.078125 -20.796875 
L 9.078125 54.6875 
L 18.109375 54.6875 
L 18.109375 46.390625 
Q 20.953125 51.265625 25.265625 53.625 
Q 29.59375 56 35.59375 56 
Q 45.5625 56 51.78125 48.09375 
Q 58.015625 40.1875 58.015625 27.296875 
Q 58.015625 14.40625 51.78125 6.484375 
Q 45.5625 -1.421875 35.59375 -1.421875 
Q 29.59375 -1.421875 25.265625 0.953125 
Q 20.953125 3.328125 18.109375 8.203125 
z
M 48.6875 27.296875 
Q 48.6875 37.203125 44.609375 42.84375 
Q 40.53125 48.484375 33.40625 48.484375 
Q 26.265625 48.484375 22.1875 42.84375 
Q 18.109375 37.203125 18.109375 27.296875 
Q 18.109375 17.390625 22.1875 11.75 
Q 26.265625 6.109375 33.40625 6.109375 
Q 40.53125 6.109375 44.609375 11.75 
Q 48.6875 17.390625 48.6875 27.296875 
z
" id="DejaVuSans-112"/>
     <path d="M 45.40625 46.390625 
L 45.40625 75.984375 
L 54.390625 75.984375 
L 54.390625 0 
L 45.40625 0 
L 45.40625 8.203125 
Q 42.578125 3.328125 38.25 0.953125 
Q 33.9375 -1.421875 27.875 -1.421875 
Q 17.96875 -1.421875 11.734375 6.484375 
Q 5.515625 14.40625 5.515625 27.296875 
Q 5.515625 40.1875 11.734375 48.09375 
Q 17.96875 56 27.875 56 
Q 33.9375 56 38.25 53.625 
Q 42.578125 51.265625 45.40625 46.390625 
z
M 14.796875 27.296875 
Q 14.796875 17.390625 18.875 11.75 
Q 22.953125 6.109375 30.078125 6.109375 
Q 37.203125 6.109375 41.296875 11.75 
Q 45.40625 17.390625 45.40625 27.296875 
Q 45.40625 37.203125 41.296875 42.84375 
Q 37.203125 48.484375 30.078125 48.484375 
Q 22.953125 48.484375 18.875 42.84375 
Q 14.796875 37.203125 14.796875 27.296875 
z
" id="DejaVuSans-100"/>
     <path d="M 48.78125 52.59375 
L 48.78125 44.1875 
Q 44.96875 46.296875 41.140625 47.34375 
Q 37.3125 48.390625 33.40625 48.390625 
Q 24.65625 48.390625 19.8125 42.84375 
Q 14.984375 37.3125 14.984375 27.296875 
Q 14.984375 17.28125 19.8125 11.734375 
Q 24.65625 6.203125 33.40625 6.203125 
Q 37.3125 6.203125 41.140625 7.25 
Q 44.96875 8.296875 48.78125 10.40625 
L 48.78125 2.09375 
Q 45.015625 0.34375 40.984375 -0.53125 
Q 36.96875 -1.421875 32.421875 -1.421875 
Q 20.0625 -1.421875 12.78125 6.34375 
Q 5.515625 14.109375 5.515625 27.296875 
Q 5.515625 40.671875 12.859375 48.328125 
Q 20.21875 56 33.015625 56 
Q 37.15625 56 41.109375 55.140625 
Q 45.0625 54.296875 48.78125 52.59375 
z
" id="DejaVuSans-99"/>
     <path d="M 37.109375 75.984375 
L 37.109375 68.5 
L 28.515625 68.5 
Q 23.6875 68.5 21.796875 66.546875 
Q 19.921875 64.59375 19.921875 59.515625 
L 19.921875 54.6875 
L 34.71875 54.6875 
L 34.71875 47.703125 
L 19.921875 47.703125 
L 19.921875 0 
L 10.890625 0 
L 10.890625 47.703125 
L 2.296875 47.703125 
L 2.296875 54.6875 
L 10.890625 54.6875 
L 10.890625 58.5 
Q 10.890625 67.625 15.140625 71.796875 
Q 19.390625 75.984375 28.609375 75.984375 
z
" id="DejaVuSans-102"/>
     <path d="M 9.421875 54.6875 
L 18.40625 54.6875 
L 18.40625 0 
L 9.421875 0 
z
M 9.421875 75.984375 
L 18.40625 75.984375 
L 18.40625 64.59375 
L 9.421875 64.59375 
z
" id="DejaVuSans-105"/>
     <path d="M 54.890625 33.015625 
L 54.890625 0 
L 45.90625 0 
L 45.90625 32.71875 
Q 45.90625 40.484375 42.875 44.328125 
Q 39.84375 48.1875 33.796875 48.1875 
Q 26.515625 48.1875 22.3125 43.546875 
Q 18.109375 38.921875 18.109375 30.90625 
L 18.109375 0 
L 9.078125 0 
L 9.078125 54.6875 
L 18.109375 54.6875 
L 18.109375 46.1875 
Q 21.34375 51.125 25.703125 53.5625 
Q 30.078125 56 35.796875 56 
Q 45.21875 56 50.046875 50.171875 
Q 54.890625 44.34375 54.890625 33.015625 
z
" id="DejaVuSans-110"/>
    </defs>
    <g transform="translate(80.532408 23.757238)scale(0.14 -0.14)">
     <use xlink:href="#DejaVuSans-69"/>
     <use x="63.183594" xlink:href="#DejaVuSans-118"/>
     <use x="122.363281" xlink:href="#DejaVuSans-111"/>
     <use x="183.544922" xlink:href="#DejaVuSans-108"/>
     <use x="211.328125" xlink:href="#DejaVuSans-117"/>
     <use x="274.707031" xlink:href="#DejaVuSans-231"/>
     <use x="329.6875" xlink:href="#DejaVuSans-227"/>
     <use x="390.966797" xlink:href="#DejaVuSans-111"/>
     <use x="452.148438" xlink:href="#DejaVuSans-32"/>
     <use x="483.935547" xlink:href="#DejaVuSans-116"/>
     <use x="523.144531" xlink:href="#DejaVuSans-101"/>
     <use x="584.667969" xlink:href="#DejaVuSans-109"/>
     <use x="682.080078" xlink:href="#DejaVuSans-112"/>
     <use x="745.556641" xlink:href="#DejaVuSans-111"/>
     <use x="806.738281" xlink:href="#DejaVuSans-114"/>
     <use x="847.851562" xlink:href="#DejaVuSans-97"/>
     <use x="909.130859" xlink:href="#DejaVuSans-108"/>
     <use x="936.914062" xlink:href="#DejaVuSans-32"/>
     <use x="968.701172" xlink:href="#DejaVuSans-100"/>
     <use x="1032.177734" xlink:href="#DejaVuSans-111"/>
     <use x="1093.359375" xlink:href="#DejaVuSans-115"/>
     <use x="1145.458984" xlink:href="#DejaVuSans-32"/>
     <use x="1177.246094" xlink:href="#DejaVuSans-99"/>
     <use x="1232.226562" xlink:href="#DejaVuSans-111"/>
     <use x="1293.408203" xlink:href="#DejaVuSans-101"/>
     <use x="1354.931641" xlink:href="#DejaVuSans-102"/>
     <use x="1390.136719" xlink:href="#DejaVuSans-105"/>
     <use x="1417.919922" xlink:href="#DejaVuSans-99"/>
     <use x="1472.900391" xlink:href="#DejaVuSans-105"/>
     <use x="1500.683594" xlink:href="#DejaVuSans-101"/>
     <use x="1562.207031" xlink:href="#DejaVuSans-110"/>
     <use x="1625.585938" xlink:href="#DejaVuSans-116"/>
     <use x="1664.794922" xlink:href="#DejaVuSans-101"/>
     <use x="1726.318359" xlink:href="#DejaVuSans-115"/>
     <use x="1778.417969" xlink:href="#DejaVuSans-32"/>
     <use x="1810.205078" xlink:href="#DejaVuSans-101"/>
     <use x="1871.728516" xlink:href="#DejaVuSans-115"/>
     <use x="1923.828125" xlink:href="#DejaVuSans-116"/>
     <use x="1963.037109" xlink:href="#DejaVuSans-105"/>
     <use x="1990.820312" xlink:href="#DejaVuSans-109"/>
     <use x="2088.232422" xlink:href="#DejaVuSans-97"/>
     <use x="2149.511719" xlink:href="#DejaVuSans-100"/>
     <use x="2212.988281" xlink:href="#DejaVuSans-111"/>
     <use x="2274.169922" xlink:href="#DejaVuSans-115"/>
    </g>
    <!-- para $\rho = 5$ (Estimação de $2^a$ Ordem) -->
    <defs>
     <path d="M 18.796875 44.921875 
Q 22.703125 49.90625 30.953125 54.296875 
Q 34.1875 56 43.0625 56 
Q 53.03125 56 57.71875 48.09375 
Q 62.40625 40.1875 59.90625 27.296875 
Q 57.375 14.40625 49.609375 6.484375 
Q 41.84375 -1.421875 31.890625 -1.421875 
Q 25.875 -1.421875 22.015625 0.984375 
Q 18.171875 3.328125 16.3125 8.203125 
L 10.640625 -20.796875 
L 1.609375 -20.796875 
L 10.890625 26.8125 
Q 13.09375 38.09375 18.796875 44.921875 
z
M 50.59375 27.296875 
Q 52.484375 37.203125 49.515625 42.875 
Q 46.53125 48.484375 39.40625 48.484375 
Q 32.28125 48.484375 27.09375 42.875 
Q 21.921875 37.203125 20.015625 27.296875 
Q 18.0625 17.390625 21.046875 11.71875 
Q 24.03125 6.109375 31.15625 6.109375 
Q 38.28125 6.109375 43.453125 11.71875 
Q 48.640625 17.390625 50.59375 27.296875 
z
" id="DejaVuSans-Oblique-961"/>
     <path d="M 10.59375 45.40625 
L 73.1875 45.40625 
L 73.1875 37.203125 
L 10.59375 37.203125 
z
M 10.59375 25.484375 
L 73.1875 25.484375 
L 73.1875 17.1875 
L 10.59375 17.1875 
z
" id="DejaVuSans-61"/>
     <path d="M 31 75.875 
Q 24.46875 64.65625 21.28125 53.65625 
Q 18.109375 42.671875 18.109375 31.390625 
Q 18.109375 20.125 21.3125 9.0625 
Q 24.515625 -2 31 -13.1875 
L 23.1875 -13.1875 
Q 15.875 -1.703125 12.234375 9.375 
Q 8.59375 20.453125 8.59375 31.390625 
Q 8.59375 42.28125 12.203125 53.3125 
Q 15.828125 64.359375 23.1875 75.875 
z
" id="DejaVuSans-40"/>
     <path d="M 53.71875 31.203125 
L 47.609375 0 
L 38.625 0 
L 40.28125 8.296875 
Q 36.328125 3.421875 31.265625 1 
Q 26.21875 -1.421875 20.015625 -1.421875 
Q 13.03125 -1.421875 8.5625 2.84375 
Q 4.109375 7.125 4.109375 13.8125 
Q 4.109375 23.390625 11.75 28.953125 
Q 19.390625 34.515625 32.8125 34.515625 
L 45.3125 34.515625 
L 45.796875 36.921875 
Q 45.90625 37.3125 45.953125 37.765625 
Q 46 38.234375 46 39.203125 
Q 46 43.5625 42.453125 45.96875 
Q 38.921875 48.390625 32.515625 48.390625 
Q 28.125 48.390625 23.5 47.265625 
Q 18.890625 46.140625 14.015625 43.890625 
L 15.578125 52.203125 
Q 20.65625 54.109375 25.515625 55.046875 
Q 30.375 56 34.90625 56 
Q 44.578125 56 49.625 51.796875 
Q 54.6875 47.609375 54.6875 39.59375 
Q 54.6875 37.984375 54.4375 35.8125 
Q 54.203125 33.640625 53.71875 31.203125 
z
M 44 27.484375 
L 35.015625 27.484375 
Q 23.96875 27.484375 18.671875 24.53125 
Q 13.375 21.578125 13.375 15.375 
Q 13.375 11.078125 16.078125 8.640625 
Q 18.796875 6.203125 23.578125 6.203125 
Q 30.90625 6.203125 36.375 11.453125 
Q 41.84375 16.703125 43.609375 25.484375 
z
" id="DejaVuSans-Oblique-97"/>
     <path d="M 39.40625 66.21875 
Q 28.65625 66.21875 22.328125 58.203125 
Q 16.015625 50.203125 16.015625 36.375 
Q 16.015625 22.609375 22.328125 14.59375 
Q 28.65625 6.59375 39.40625 6.59375 
Q 50.140625 6.59375 56.421875 14.59375 
Q 62.703125 22.609375 62.703125 36.375 
Q 62.703125 50.203125 56.421875 58.203125 
Q 50.140625 66.21875 39.40625 66.21875 
z
M 39.40625 74.21875 
Q 54.734375 74.21875 63.90625 63.9375 
Q 73.09375 53.65625 73.09375 36.375 
Q 73.09375 19.140625 63.90625 8.859375 
Q 54.734375 -1.421875 39.40625 -1.421875 
Q 24.03125 -1.421875 14.8125 8.828125 
Q 5.609375 19.09375 5.609375 36.375 
Q 5.609375 53.65625 14.8125 63.9375 
Q 24.03125 74.21875 39.40625 74.21875 
z
" id="DejaVuSans-79"/>
     <path d="M 8.015625 75.875 
L 15.828125 75.875 
Q 23.140625 64.359375 26.78125 53.3125 
Q 30.421875 42.28125 30.421875 31.390625 
Q 30.421875 20.453125 26.78125 9.375 
Q 23.140625 -1.703125 15.828125 -13.1875 
L 8.015625 -13.1875 
Q 14.5 -2 17.703125 9.0625 
Q 20.90625 20.125 20.90625 31.390625 
Q 20.90625 42.671875 17.703125 53.65625 
Q 14.5 64.65625 8.015625 75.875 
z
" id="DejaVuSans-41"/>
    </defs>
    <g transform="translate(116.673189 39.7728)scale(0.14 -0.14)">
     <use transform="translate(0 0.3125)" xlink:href="#DejaVuSans-112"/>
     <use transform="translate(63.476562 0.3125)" xlink:href="#DejaVuSans-97"/>
     <use transform="translate(124.755859 0.3125)" xlink:href="#DejaVuSans-114"/>
     <use transform="translate(165.869141 0.3125)" xlink:href="#DejaVuSans-97"/>
     <use transform="translate(227.148438 0.3125)" xlink:href="#DejaVuSans-32"/>
     <use transform="translate(258.935547 0.3125)" xlink:href="#DejaVuSans-Oblique-961"/>
     <use transform="translate(341.894531 0.3125)" xlink:href="#DejaVuSans-61"/>
     <use transform="translate(445.166016 0.3125)" xlink:href="#DejaVuSans-53"/>
     <use transform="translate(508.789062 0.3125)" xlink:href="#DejaVuSans-32"/>
     <use transform="translate(540.576172 0.3125)" xlink:href="#DejaVuSans-40"/>
     <use transform="translate(579.589844 0.3125)" xlink:href="#DejaVuSans-69"/>
     <use transform="translate(642.773438 0.3125)" xlink:href="#DejaVuSans-115"/>
     <use transform="translate(694.873047 0.3125)" xlink:href="#DejaVuSans-116"/>
     <use transform="translate(734.082031 0.3125)" xlink:href="#DejaVuSans-105"/>
     <use transform="translate(761.865234 0.3125)" xlink:href="#DejaVuSans-109"/>
     <use transform="translate(859.277344 0.3125)" xlink:href="#DejaVuSans-97"/>
     <use transform="translate(920.556641 0.3125)" xlink:href="#DejaVuSans-231"/>
     <use transform="translate(975.537109 0.3125)" xlink:href="#DejaVuSans-227"/>
     <use transform="translate(1036.816406 0.3125)" xlink:href="#DejaVuSans-111"/>
     <use transform="translate(1097.998047 0.3125)" xlink:href="#DejaVuSans-32"/>
     <use transform="translate(1129.785156 0.3125)" xlink:href="#DejaVuSans-100"/>
     <use transform="translate(1193.261719 0.3125)" xlink:href="#DejaVuSans-101"/>
     <use transform="translate(1254.785156 0.3125)" xlink:href="#DejaVuSans-32"/>
     <use transform="translate(1286.572266 0.3125)" xlink:href="#DejaVuSans-50"/>
     <use transform="translate(1351.152344 38.59375)scale(0.7)" xlink:href="#DejaVuSans-Oblique-97"/>
     <use transform="translate(1396.782227 0.3125)" xlink:href="#DejaVuSans-32"/>
     <use transform="translate(1428.569336 0.3125)" xlink:href="#DejaVuSans-79"/>
     <use transform="translate(1507.280273 0.3125)" xlink:href="#DejaVuSans-114"/>
     <use transform="translate(1548.393555 0.3125)" xlink:href="#DejaVuSans-100"/>
     <use transform="translate(1611.870117 0.3125)" xlink:href="#DejaVuSans-101"/>
     <use transform="translate(1673.393555 0.3125)" xlink:href="#DejaVuSans-109"/>
     <use transform="translate(1770.805664 0.3125)" xlink:href="#DejaVuSans-41"/>
    </g>
   </g>
   <g id="legend_1">
    <g id="patch_7">
     <path d="M 302.688976 184.557926 
L 408.388976 184.557926 
Q 410.388976 184.557926 410.388976 182.557926 
L 410.388976 124.845426 
Q 410.388976 122.845426 408.388976 122.845426 
L 302.688976 122.845426 
Q 300.688976 122.845426 300.688976 124.845426 
L 300.688976 182.557926 
Q 300.688976 184.557926 302.688976 184.557926 
z
" style="fill:#ffffff;opacity:0.8;stroke:#cccccc;stroke-linejoin:miter;"/>
    </g>
    <g id="line2d_41">
     <path d="M 304.688976 130.943863 
L 324.688976 130.943863 
" style="fill:none;stroke:#0000ff;stroke-linecap:square;"/>
    </g>
    <g id="line2d_42"/>
    <g id="text_20">
     <!-- Coeficiente $\bf{b1}$ -->
     <defs>
      <path d="M 64.40625 67.28125 
L 64.40625 56.890625 
Q 59.421875 61.53125 53.78125 63.8125 
Q 48.140625 66.109375 41.796875 66.109375 
Q 29.296875 66.109375 22.65625 58.46875 
Q 16.015625 50.828125 16.015625 36.375 
Q 16.015625 21.96875 22.65625 14.328125 
Q 29.296875 6.6875 41.796875 6.6875 
Q 48.140625 6.6875 53.78125 8.984375 
Q 59.421875 11.28125 64.40625 15.921875 
L 64.40625 5.609375 
Q 59.234375 2.09375 53.4375 0.328125 
Q 47.65625 -1.421875 41.21875 -1.421875 
Q 24.65625 -1.421875 15.125 8.703125 
Q 5.609375 18.84375 5.609375 36.375 
Q 5.609375 53.953125 15.125 64.078125 
Q 24.65625 74.21875 41.21875 74.21875 
Q 47.75 74.21875 53.53125 72.484375 
Q 59.328125 70.75 64.40625 67.28125 
z
" id="DejaVuSans-67"/>
      <path d="M 37.5 11.28125 
Q 43.109375 11.28125 46.0625 15.375 
Q 49.03125 19.484375 49.03125 27.296875 
Q 49.03125 35.109375 46.0625 39.203125 
Q 43.109375 43.3125 37.5 43.3125 
Q 31.890625 43.3125 28.875 39.1875 
Q 25.875 35.0625 25.875 27.296875 
Q 25.875 19.53125 28.875 15.40625 
Q 31.890625 11.28125 37.5 11.28125 
z
M 25.875 46.6875 
Q 29.5 51.46875 33.890625 53.734375 
Q 38.28125 56 44 56 
Q 54.109375 56 60.59375 47.96875 
Q 67.09375 39.9375 67.09375 27.296875 
Q 67.09375 14.65625 60.59375 6.609375 
Q 54.109375 -1.421875 44 -1.421875 
Q 38.28125 -1.421875 33.890625 0.84375 
Q 29.5 3.125 25.875 7.90625 
L 25.875 0 
L 8.40625 0 
L 8.40625 75.984375 
L 25.875 75.984375 
z
" id="DejaVuSans-Bold-98"/>
      <path d="M 11.71875 12.984375 
L 28.328125 12.984375 
L 28.328125 60.109375 
L 11.28125 56.59375 
L 11.28125 69.390625 
L 28.21875 72.90625 
L 46.09375 72.90625 
L 46.09375 12.984375 
L 62.703125 12.984375 
L 62.703125 0 
L 11.71875 0 
z
" id="DejaVuSans-Bold-49"/>
     </defs>
     <g transform="translate(332.688976 134.443863)scale(0.1 -0.1)">
      <use transform="translate(0 0.015625)" xlink:href="#DejaVuSans-67"/>
      <use transform="translate(69.824219 0.015625)" xlink:href="#DejaVuSans-111"/>
      <use transform="translate(131.005859 0.015625)" xlink:href="#DejaVuSans-101"/>
      <use transform="translate(192.529297 0.015625)" xlink:href="#DejaVuSans-102"/>
      <use transform="translate(227.734375 0.015625)" xlink:href="#DejaVuSans-105"/>
      <use transform="translate(255.517578 0.015625)" xlink:href="#DejaVuSans-99"/>
      <use transform="translate(310.498047 0.015625)" xlink:href="#DejaVuSans-105"/>
      <use transform="translate(338.28125 0.015625)" xlink:href="#DejaVuSans-101"/>
      <use transform="translate(399.804688 0.015625)" xlink:href="#DejaVuSans-110"/>
      <use transform="translate(463.183594 0.015625)" xlink:href="#DejaVuSans-116"/>
      <use transform="translate(502.392578 0.015625)" xlink:href="#DejaVuSans-101"/>
      <use transform="translate(563.916016 0.015625)" xlink:href="#DejaVuSans-32"/>
      <use transform="translate(595.703125 0.015625)" xlink:href="#DejaVuSans-Bold-98"/>
      <use transform="translate(667.285156 0.015625)" xlink:href="#DejaVuSans-Bold-49"/>
     </g>
    </g>
    <g id="line2d_43">
     <path d="M 304.688976 145.621988 
L 324.688976 145.621988 
" style="fill:none;stroke:#ffa500;stroke-linecap:square;"/>
    </g>
    <g id="line2d_44"/>
    <g id="text_21">
     <!-- Coeficiente $\bf{b2}$ -->
     <defs>
      <path d="M 28.8125 13.8125 
L 60.890625 13.8125 
L 60.890625 0 
L 7.90625 0 
L 7.90625 13.8125 
L 34.515625 37.3125 
Q 38.09375 40.53125 39.796875 43.609375 
Q 41.5 46.6875 41.5 50 
Q 41.5 55.125 38.0625 58.25 
Q 34.625 61.375 28.90625 61.375 
Q 24.515625 61.375 19.28125 59.5 
Q 14.0625 57.625 8.109375 53.90625 
L 8.109375 69.921875 
Q 14.453125 72.015625 20.65625 73.109375 
Q 26.859375 74.21875 32.8125 74.21875 
Q 45.90625 74.21875 53.15625 68.453125 
Q 60.40625 62.703125 60.40625 52.390625 
Q 60.40625 46.4375 57.328125 41.28125 
Q 54.25 36.140625 44.390625 27.484375 
z
" id="DejaVuSans-Bold-50"/>
     </defs>
     <g transform="translate(332.688976 149.121988)scale(0.1 -0.1)">
      <use transform="translate(0 0.015625)" xlink:href="#DejaVuSans-67"/>
      <use transform="translate(69.824219 0.015625)" xlink:href="#DejaVuSans-111"/>
      <use transform="translate(131.005859 0.015625)" xlink:href="#DejaVuSans-101"/>
      <use transform="translate(192.529297 0.015625)" xlink:href="#DejaVuSans-102"/>
      <use transform="translate(227.734375 0.015625)" xlink:href="#DejaVuSans-105"/>
      <use transform="translate(255.517578 0.015625)" xlink:href="#DejaVuSans-99"/>
      <use transform="translate(310.498047 0.015625)" xlink:href="#DejaVuSans-105"/>
      <use transform="translate(338.28125 0.015625)" xlink:href="#DejaVuSans-101"/>
      <use transform="translate(399.804688 0.015625)" xlink:href="#DejaVuSans-110"/>
      <use transform="translate(463.183594 0.015625)" xlink:href="#DejaVuSans-116"/>
      <use transform="translate(502.392578 0.015625)" xlink:href="#DejaVuSans-101"/>
      <use transform="translate(563.916016 0.015625)" xlink:href="#DejaVuSans-32"/>
      <use transform="translate(595.703125 0.015625)" xlink:href="#DejaVuSans-Bold-98"/>
      <use transform="translate(667.285156 0.015625)" xlink:href="#DejaVuSans-Bold-50"/>
     </g>
    </g>
    <g id="line2d_45">
     <path d="M 304.688976 160.300113 
L 324.688976 160.300113 
" style="fill:none;stroke:#008000;stroke-linecap:square;"/>
    </g>
    <g id="line2d_46"/>
    <g id="text_22">
     <!-- Coeficiente $\bf{a1}$ -->
     <defs>
      <path d="M 32.90625 24.609375 
Q 27.4375 24.609375 24.671875 22.75 
Q 21.921875 20.90625 21.921875 17.28125 
Q 21.921875 13.96875 24.140625 12.078125 
Q 26.375 10.203125 30.328125 10.203125 
Q 35.25 10.203125 38.625 13.734375 
Q 42 17.28125 42 22.609375 
L 42 24.609375 
z
M 59.625 31.203125 
L 59.625 0 
L 42 0 
L 42 8.109375 
Q 38.484375 3.125 34.078125 0.84375 
Q 29.6875 -1.421875 23.390625 -1.421875 
Q 14.890625 -1.421875 9.59375 3.53125 
Q 4.296875 8.5 4.296875 16.40625 
Q 4.296875 26.03125 10.90625 30.515625 
Q 17.53125 35.015625 31.6875 35.015625 
L 42 35.015625 
L 42 36.375 
Q 42 40.53125 38.71875 42.453125 
Q 35.453125 44.390625 28.515625 44.390625 
Q 22.90625 44.390625 18.0625 43.265625 
Q 13.234375 42.140625 9.078125 39.890625 
L 9.078125 53.21875 
Q 14.703125 54.59375 20.359375 55.296875 
Q 26.03125 56 31.6875 56 
Q 46.484375 56 53.046875 50.171875 
Q 59.625 44.34375 59.625 31.203125 
z
" id="DejaVuSans-Bold-97"/>
     </defs>
     <g transform="translate(332.688976 163.800113)scale(0.1 -0.1)">
      <use transform="translate(0 0.015625)" xlink:href="#DejaVuSans-67"/>
      <use transform="translate(69.824219 0.015625)" xlink:href="#DejaVuSans-111"/>
      <use transform="translate(131.005859 0.015625)" xlink:href="#DejaVuSans-101"/>
      <use transform="translate(192.529297 0.015625)" xlink:href="#DejaVuSans-102"/>
      <use transform="translate(227.734375 0.015625)" xlink:href="#DejaVuSans-105"/>
      <use transform="translate(255.517578 0.015625)" xlink:href="#DejaVuSans-99"/>
      <use transform="translate(310.498047 0.015625)" xlink:href="#DejaVuSans-105"/>
      <use transform="translate(338.28125 0.015625)" xlink:href="#DejaVuSans-101"/>
      <use transform="translate(399.804688 0.015625)" xlink:href="#DejaVuSans-110"/>
      <use transform="translate(463.183594 0.015625)" xlink:href="#DejaVuSans-116"/>
      <use transform="translate(502.392578 0.015625)" xlink:href="#DejaVuSans-101"/>
      <use transform="translate(563.916016 0.015625)" xlink:href="#DejaVuSans-32"/>
      <use transform="translate(595.703125 0.015625)" xlink:href="#DejaVuSans-Bold-97"/>
      <use transform="translate(663.183594 0.015625)" xlink:href="#DejaVuSans-Bold-49"/>
     </g>
    </g>
    <g id="line2d_47">
     <path d="M 304.688976 174.978238 
L 324.688976 174.978238 
" style="fill:none;stroke:#ff0000;stroke-linecap:square;"/>
    </g>
    <g id="line2d_48"/>
    <g id="text_23">
     <!-- Coeficiente $\bf{a2}$ -->
     <g transform="translate(332.688976 178.478238)scale(0.1 -0.1)">
      <use transform="translate(0 0.015625)" xlink:href="#DejaVuSans-67"/>
      <use transform="translate(69.824219 0.015625)" xlink:href="#DejaVuSans-111"/>
      <use transform="translate(131.005859 0.015625)" xlink:href="#DejaVuSans-101"/>
      <use transform="translate(192.529297 0.015625)" xlink:href="#DejaVuSans-102"/>
      <use transform="translate(227.734375 0.015625)" xlink:href="#DejaVuSans-105"/>
      <use transform="translate(255.517578 0.015625)" xlink:href="#DejaVuSans-99"/>
      <use transform="translate(310.498047 0.015625)" xlink:href="#DejaVuSans-105"/>
      <use transform="translate(338.28125 0.015625)" xlink:href="#DejaVuSans-101"/>
      <use transform="translate(399.804688 0.015625)" xlink:href="#DejaVuSans-110"/>
      <use transform="translate(463.183594 0.015625)" xlink:href="#DejaVuSans-116"/>
      <use transform="translate(502.392578 0.015625)" xlink:href="#DejaVuSans-101"/>
      <use transform="translate(563.916016 0.015625)" xlink:href="#DejaVuSans-32"/>
      <use transform="translate(595.703125 0.015625)" xlink:href="#DejaVuSans-Bold-97"/>
      <use transform="translate(663.183594 0.015625)" xlink:href="#DejaVuSans-Bold-50"/>
     </g>
    </g>
   </g>
  </g>
 </g>
 <defs>
  <clipPath id="pb46452eb3e">
   <rect height="215.857751" width="344.031575" x="71.357402" y="45.7728"/>
  </clipPath>
 </defs>
</svg>
