<?xml version="1.0" encoding="utf-8" standalone="no"?>
<!DOCTYPE svg PUBLIC "-//W3C//DTD SVG 1.1//EN"
  "http://www.w3.org/Graphics/SVG/1.1/DTD/svg11.dtd">
<!-- Created with matplotlib (https://matplotlib.org/) -->
<svg height="297.637795pt" version="1.1" viewBox="0 0 439.370079 297.637795" width="439.370079pt" xmlns="http://www.w3.org/2000/svg" xmlns:xlink="http://www.w3.org/1999/xlink">
 <defs>
  <style type="text/css">
*{stroke-linecap:butt;stroke-linejoin:round;}
  </style>
 </defs>
 <g id="figure_1">
  <g id="patch_1">
   <path d="M 0 297.637795 
L 439.370079 297.637795 
L 439.370079 0 
L 0 0 
z
" style="fill:#ffffff;"/>
  </g>
  <g id="axes_1">
   <g id="patch_2">
    <path d="M 64.967402 261.630551 
L 415.388976 261.630551 
L 415.388976 45.7728 
L 64.967402 45.7728 
z
" style="fill:#ffffff;"/>
   </g>
   <g id="matplotlib.axis_1">
    <g id="xtick_1">
     <g id="line2d_1">
      <path clip-path="url(#pdd245807f2)" d="M 64.967402 261.630551 
L 64.967402 45.7728 
" style="fill:none;stroke:#000000;stroke-dasharray:0.7,1.155;stroke-dashoffset:0;stroke-width:0.7;"/>
     </g>
     <g id="line2d_2">
      <defs>
       <path d="M 0 0 
L 0 3.5 
" id="m0333e1ebb0" style="stroke:#000000;stroke-width:0.8;"/>
      </defs>
      <g>
       <use style="stroke:#000000;stroke-width:0.8;" x="64.967402" xlink:href="#m0333e1ebb0" y="261.630551"/>
      </g>
     </g>
     <g id="text_1">
      <!-- 0 -->
      <defs>
       <path d="M 31.78125 66.40625 
Q 24.171875 66.40625 20.328125 58.90625 
Q 16.5 51.421875 16.5 36.375 
Q 16.5 21.390625 20.328125 13.890625 
Q 24.171875 6.390625 31.78125 6.390625 
Q 39.453125 6.390625 43.28125 13.890625 
Q 47.125 21.390625 47.125 36.375 
Q 47.125 51.421875 43.28125 58.90625 
Q 39.453125 66.40625 31.78125 66.40625 
z
M 31.78125 74.21875 
Q 44.046875 74.21875 50.515625 64.515625 
Q 56.984375 54.828125 56.984375 36.375 
Q 56.984375 17.96875 50.515625 8.265625 
Q 44.046875 -1.421875 31.78125 -1.421875 
Q 19.53125 -1.421875 13.0625 8.265625 
Q 6.59375 17.96875 6.59375 36.375 
Q 6.59375 54.828125 13.0625 64.515625 
Q 19.53125 74.21875 31.78125 74.21875 
z
" id="DejaVuSans-48"/>
      </defs>
      <g transform="translate(61.786152 276.228989)scale(0.1 -0.1)">
       <use xlink:href="#DejaVuSans-48"/>
      </g>
     </g>
    </g>
    <g id="xtick_2">
     <g id="line2d_3">
      <path clip-path="url(#pdd245807f2)" d="M 108.990212 261.630551 
L 108.990212 45.7728 
" style="fill:none;stroke:#000000;stroke-dasharray:0.7,1.155;stroke-dashoffset:0;stroke-width:0.7;"/>
     </g>
     <g id="line2d_4">
      <g>
       <use style="stroke:#000000;stroke-width:0.8;" x="108.990212" xlink:href="#m0333e1ebb0" y="261.630551"/>
      </g>
     </g>
     <g id="text_2">
      <!-- 25 -->
      <defs>
       <path d="M 19.1875 8.296875 
L 53.609375 8.296875 
L 53.609375 0 
L 7.328125 0 
L 7.328125 8.296875 
Q 12.9375 14.109375 22.625 23.890625 
Q 32.328125 33.6875 34.8125 36.53125 
Q 39.546875 41.84375 41.421875 45.53125 
Q 43.3125 49.21875 43.3125 52.78125 
Q 43.3125 58.59375 39.234375 62.25 
Q 35.15625 65.921875 28.609375 65.921875 
Q 23.96875 65.921875 18.8125 64.3125 
Q 13.671875 62.703125 7.8125 59.421875 
L 7.8125 69.390625 
Q 13.765625 71.78125 18.9375 73 
Q 24.125 74.21875 28.421875 74.21875 
Q 39.75 74.21875 46.484375 68.546875 
Q 53.21875 62.890625 53.21875 53.421875 
Q 53.21875 48.921875 51.53125 44.890625 
Q 49.859375 40.875 45.40625 35.40625 
Q 44.1875 33.984375 37.640625 27.21875 
Q 31.109375 20.453125 19.1875 8.296875 
z
" id="DejaVuSans-50"/>
       <path d="M 10.796875 72.90625 
L 49.515625 72.90625 
L 49.515625 64.59375 
L 19.828125 64.59375 
L 19.828125 46.734375 
Q 21.96875 47.46875 24.109375 47.828125 
Q 26.265625 48.1875 28.421875 48.1875 
Q 40.625 48.1875 47.75 41.5 
Q 54.890625 34.8125 54.890625 23.390625 
Q 54.890625 11.625 47.5625 5.09375 
Q 40.234375 -1.421875 26.90625 -1.421875 
Q 22.3125 -1.421875 17.546875 -0.640625 
Q 12.796875 0.140625 7.71875 1.703125 
L 7.71875 11.625 
Q 12.109375 9.234375 16.796875 8.0625 
Q 21.484375 6.890625 26.703125 6.890625 
Q 35.15625 6.890625 40.078125 11.328125 
Q 45.015625 15.765625 45.015625 23.390625 
Q 45.015625 31 40.078125 35.4375 
Q 35.15625 39.890625 26.703125 39.890625 
Q 22.75 39.890625 18.8125 39.015625 
Q 14.890625 38.140625 10.796875 36.28125 
z
" id="DejaVuSans-53"/>
      </defs>
      <g transform="translate(102.627712 276.228989)scale(0.1 -0.1)">
       <use xlink:href="#DejaVuSans-50"/>
       <use x="63.623047" xlink:href="#DejaVuSans-53"/>
      </g>
     </g>
    </g>
    <g id="xtick_3">
     <g id="line2d_5">
      <path clip-path="url(#pdd245807f2)" d="M 153.013023 261.630551 
L 153.013023 45.7728 
" style="fill:none;stroke:#000000;stroke-dasharray:0.7,1.155;stroke-dashoffset:0;stroke-width:0.7;"/>
     </g>
     <g id="line2d_6">
      <g>
       <use style="stroke:#000000;stroke-width:0.8;" x="153.013023" xlink:href="#m0333e1ebb0" y="261.630551"/>
      </g>
     </g>
     <g id="text_3">
      <!-- 50 -->
      <g transform="translate(146.650523 276.228989)scale(0.1 -0.1)">
       <use xlink:href="#DejaVuSans-53"/>
       <use x="63.623047" xlink:href="#DejaVuSans-48"/>
      </g>
     </g>
    </g>
    <g id="xtick_4">
     <g id="line2d_7">
      <path clip-path="url(#pdd245807f2)" d="M 197.035834 261.630551 
L 197.035834 45.7728 
" style="fill:none;stroke:#000000;stroke-dasharray:0.7,1.155;stroke-dashoffset:0;stroke-width:0.7;"/>
     </g>
     <g id="line2d_8">
      <g>
       <use style="stroke:#000000;stroke-width:0.8;" x="197.035834" xlink:href="#m0333e1ebb0" y="261.630551"/>
      </g>
     </g>
     <g id="text_4">
      <!-- 75 -->
      <defs>
       <path d="M 8.203125 72.90625 
L 55.078125 72.90625 
L 55.078125 68.703125 
L 28.609375 0 
L 18.3125 0 
L 43.21875 64.59375 
L 8.203125 64.59375 
z
" id="DejaVuSans-55"/>
      </defs>
      <g transform="translate(190.673334 276.228989)scale(0.1 -0.1)">
       <use xlink:href="#DejaVuSans-55"/>
       <use x="63.623047" xlink:href="#DejaVuSans-53"/>
      </g>
     </g>
    </g>
    <g id="xtick_5">
     <g id="line2d_9">
      <path clip-path="url(#pdd245807f2)" d="M 241.058645 261.630551 
L 241.058645 45.7728 
" style="fill:none;stroke:#000000;stroke-dasharray:0.7,1.155;stroke-dashoffset:0;stroke-width:0.7;"/>
     </g>
     <g id="line2d_10">
      <g>
       <use style="stroke:#000000;stroke-width:0.8;" x="241.058645" xlink:href="#m0333e1ebb0" y="261.630551"/>
      </g>
     </g>
     <g id="text_5">
      <!-- 100 -->
      <defs>
       <path d="M 12.40625 8.296875 
L 28.515625 8.296875 
L 28.515625 63.921875 
L 10.984375 60.40625 
L 10.984375 69.390625 
L 28.421875 72.90625 
L 38.28125 72.90625 
L 38.28125 8.296875 
L 54.390625 8.296875 
L 54.390625 0 
L 12.40625 0 
z
" id="DejaVuSans-49"/>
      </defs>
      <g transform="translate(231.514895 276.228989)scale(0.1 -0.1)">
       <use xlink:href="#DejaVuSans-49"/>
       <use x="63.623047" xlink:href="#DejaVuSans-48"/>
       <use x="127.246094" xlink:href="#DejaVuSans-48"/>
      </g>
     </g>
    </g>
    <g id="xtick_6">
     <g id="line2d_11">
      <path clip-path="url(#pdd245807f2)" d="M 285.081456 261.630551 
L 285.081456 45.7728 
" style="fill:none;stroke:#000000;stroke-dasharray:0.7,1.155;stroke-dashoffset:0;stroke-width:0.7;"/>
     </g>
     <g id="line2d_12">
      <g>
       <use style="stroke:#000000;stroke-width:0.8;" x="285.081456" xlink:href="#m0333e1ebb0" y="261.630551"/>
      </g>
     </g>
     <g id="text_6">
      <!-- 125 -->
      <g transform="translate(275.537706 276.228989)scale(0.1 -0.1)">
       <use xlink:href="#DejaVuSans-49"/>
       <use x="63.623047" xlink:href="#DejaVuSans-50"/>
       <use x="127.246094" xlink:href="#DejaVuSans-53"/>
      </g>
     </g>
    </g>
    <g id="xtick_7">
     <g id="line2d_13">
      <path clip-path="url(#pdd245807f2)" d="M 329.104267 261.630551 
L 329.104267 45.7728 
" style="fill:none;stroke:#000000;stroke-dasharray:0.7,1.155;stroke-dashoffset:0;stroke-width:0.7;"/>
     </g>
     <g id="line2d_14">
      <g>
       <use style="stroke:#000000;stroke-width:0.8;" x="329.104267" xlink:href="#m0333e1ebb0" y="261.630551"/>
      </g>
     </g>
     <g id="text_7">
      <!-- 150 -->
      <g transform="translate(319.560517 276.228989)scale(0.1 -0.1)">
       <use xlink:href="#DejaVuSans-49"/>
       <use x="63.623047" xlink:href="#DejaVuSans-53"/>
       <use x="127.246094" xlink:href="#DejaVuSans-48"/>
      </g>
     </g>
    </g>
    <g id="xtick_8">
     <g id="line2d_15">
      <path clip-path="url(#pdd245807f2)" d="M 373.127078 261.630551 
L 373.127078 45.7728 
" style="fill:none;stroke:#000000;stroke-dasharray:0.7,1.155;stroke-dashoffset:0;stroke-width:0.7;"/>
     </g>
     <g id="line2d_16">
      <g>
       <use style="stroke:#000000;stroke-width:0.8;" x="373.127078" xlink:href="#m0333e1ebb0" y="261.630551"/>
      </g>
     </g>
     <g id="text_8">
      <!-- 175 -->
      <g transform="translate(363.583328 276.228989)scale(0.1 -0.1)">
       <use xlink:href="#DejaVuSans-49"/>
       <use x="63.623047" xlink:href="#DejaVuSans-55"/>
       <use x="127.246094" xlink:href="#DejaVuSans-53"/>
      </g>
     </g>
    </g>
    <g id="text_9">
     <!-- Amostra -->
     <defs>
      <path d="M 34.1875 63.1875 
L 20.796875 26.90625 
L 47.609375 26.90625 
z
M 28.609375 72.90625 
L 39.796875 72.90625 
L 67.578125 0 
L 57.328125 0 
L 50.6875 18.703125 
L 17.828125 18.703125 
L 11.1875 0 
L 0.78125 0 
z
" id="DejaVuSans-65"/>
      <path d="M 52 44.1875 
Q 55.375 50.25 60.0625 53.125 
Q 64.75 56 71.09375 56 
Q 79.640625 56 84.28125 50.015625 
Q 88.921875 44.046875 88.921875 33.015625 
L 88.921875 0 
L 79.890625 0 
L 79.890625 32.71875 
Q 79.890625 40.578125 77.09375 44.375 
Q 74.3125 48.1875 68.609375 48.1875 
Q 61.625 48.1875 57.5625 43.546875 
Q 53.515625 38.921875 53.515625 30.90625 
L 53.515625 0 
L 44.484375 0 
L 44.484375 32.71875 
Q 44.484375 40.625 41.703125 44.40625 
Q 38.921875 48.1875 33.109375 48.1875 
Q 26.21875 48.1875 22.15625 43.53125 
Q 18.109375 38.875 18.109375 30.90625 
L 18.109375 0 
L 9.078125 0 
L 9.078125 54.6875 
L 18.109375 54.6875 
L 18.109375 46.1875 
Q 21.1875 51.21875 25.484375 53.609375 
Q 29.78125 56 35.6875 56 
Q 41.65625 56 45.828125 52.96875 
Q 50 49.953125 52 44.1875 
z
" id="DejaVuSans-109"/>
      <path d="M 30.609375 48.390625 
Q 23.390625 48.390625 19.1875 42.75 
Q 14.984375 37.109375 14.984375 27.296875 
Q 14.984375 17.484375 19.15625 11.84375 
Q 23.34375 6.203125 30.609375 6.203125 
Q 37.796875 6.203125 41.984375 11.859375 
Q 46.1875 17.53125 46.1875 27.296875 
Q 46.1875 37.015625 41.984375 42.703125 
Q 37.796875 48.390625 30.609375 48.390625 
z
M 30.609375 56 
Q 42.328125 56 49.015625 48.375 
Q 55.71875 40.765625 55.71875 27.296875 
Q 55.71875 13.875 49.015625 6.21875 
Q 42.328125 -1.421875 30.609375 -1.421875 
Q 18.84375 -1.421875 12.171875 6.21875 
Q 5.515625 13.875 5.515625 27.296875 
Q 5.515625 40.765625 12.171875 48.375 
Q 18.84375 56 30.609375 56 
z
" id="DejaVuSans-111"/>
      <path d="M 44.28125 53.078125 
L 44.28125 44.578125 
Q 40.484375 46.53125 36.375 47.5 
Q 32.28125 48.484375 27.875 48.484375 
Q 21.1875 48.484375 17.84375 46.4375 
Q 14.5 44.390625 14.5 40.28125 
Q 14.5 37.15625 16.890625 35.375 
Q 19.28125 33.59375 26.515625 31.984375 
L 29.59375 31.296875 
Q 39.15625 29.25 43.1875 25.515625 
Q 47.21875 21.78125 47.21875 15.09375 
Q 47.21875 7.46875 41.1875 3.015625 
Q 35.15625 -1.421875 24.609375 -1.421875 
Q 20.21875 -1.421875 15.453125 -0.5625 
Q 10.6875 0.296875 5.421875 2 
L 5.421875 11.28125 
Q 10.40625 8.6875 15.234375 7.390625 
Q 20.0625 6.109375 24.8125 6.109375 
Q 31.15625 6.109375 34.5625 8.28125 
Q 37.984375 10.453125 37.984375 14.40625 
Q 37.984375 18.0625 35.515625 20.015625 
Q 33.0625 21.96875 24.703125 23.78125 
L 21.578125 24.515625 
Q 13.234375 26.265625 9.515625 29.90625 
Q 5.8125 33.546875 5.8125 39.890625 
Q 5.8125 47.609375 11.28125 51.796875 
Q 16.75 56 26.8125 56 
Q 31.78125 56 36.171875 55.265625 
Q 40.578125 54.546875 44.28125 53.078125 
z
" id="DejaVuSans-115"/>
      <path d="M 18.3125 70.21875 
L 18.3125 54.6875 
L 36.8125 54.6875 
L 36.8125 47.703125 
L 18.3125 47.703125 
L 18.3125 18.015625 
Q 18.3125 11.328125 20.140625 9.421875 
Q 21.96875 7.515625 27.59375 7.515625 
L 36.8125 7.515625 
L 36.8125 0 
L 27.59375 0 
Q 17.1875 0 13.234375 3.875 
Q 9.28125 7.765625 9.28125 18.015625 
L 9.28125 47.703125 
L 2.6875 47.703125 
L 2.6875 54.6875 
L 9.28125 54.6875 
L 9.28125 70.21875 
z
" id="DejaVuSans-116"/>
      <path d="M 41.109375 46.296875 
Q 39.59375 47.171875 37.8125 47.578125 
Q 36.03125 48 33.890625 48 
Q 26.265625 48 22.1875 43.046875 
Q 18.109375 38.09375 18.109375 28.8125 
L 18.109375 0 
L 9.078125 0 
L 9.078125 54.6875 
L 18.109375 54.6875 
L 18.109375 46.1875 
Q 20.953125 51.171875 25.484375 53.578125 
Q 30.03125 56 36.53125 56 
Q 37.453125 56 38.578125 55.875 
Q 39.703125 55.765625 41.0625 55.515625 
z
" id="DejaVuSans-114"/>
      <path d="M 34.28125 27.484375 
Q 23.390625 27.484375 19.1875 25 
Q 14.984375 22.515625 14.984375 16.5 
Q 14.984375 11.71875 18.140625 8.90625 
Q 21.296875 6.109375 26.703125 6.109375 
Q 34.1875 6.109375 38.703125 11.40625 
Q 43.21875 16.703125 43.21875 25.484375 
L 43.21875 27.484375 
z
M 52.203125 31.203125 
L 52.203125 0 
L 43.21875 0 
L 43.21875 8.296875 
Q 40.140625 3.328125 35.546875 0.953125 
Q 30.953125 -1.421875 24.3125 -1.421875 
Q 15.921875 -1.421875 10.953125 3.296875 
Q 6 8.015625 6 15.921875 
Q 6 25.140625 12.171875 29.828125 
Q 18.359375 34.515625 30.609375 34.515625 
L 43.21875 34.515625 
L 43.21875 35.40625 
Q 43.21875 41.609375 39.140625 45 
Q 35.0625 48.390625 27.6875 48.390625 
Q 23 48.390625 18.546875 47.265625 
Q 14.109375 46.140625 10.015625 43.890625 
L 10.015625 52.203125 
Q 14.9375 54.109375 19.578125 55.046875 
Q 24.21875 56 28.609375 56 
Q 40.484375 56 46.34375 49.84375 
Q 52.203125 43.703125 52.203125 31.203125 
z
" id="DejaVuSans-97"/>
     </defs>
     <g transform="translate(219.143814 289.907114)scale(0.1 -0.1)">
      <use xlink:href="#DejaVuSans-65"/>
      <use x="68.408203" xlink:href="#DejaVuSans-109"/>
      <use x="165.820312" xlink:href="#DejaVuSans-111"/>
      <use x="227.001953" xlink:href="#DejaVuSans-115"/>
      <use x="279.101562" xlink:href="#DejaVuSans-116"/>
      <use x="318.310547" xlink:href="#DejaVuSans-114"/>
      <use x="359.423828" xlink:href="#DejaVuSans-97"/>
     </g>
    </g>
   </g>
   <g id="matplotlib.axis_2">
    <g id="ytick_1">
     <g id="line2d_17">
      <path clip-path="url(#pdd245807f2)" d="M 64.967402 261.512448 
L 415.388976 261.512448 
" style="fill:none;stroke:#000000;stroke-dasharray:0.7,1.155;stroke-dashoffset:0;stroke-width:0.7;"/>
     </g>
     <g id="line2d_18">
      <defs>
       <path d="M 0 0 
L -3.5 0 
" id="m1d40d2ac12" style="stroke:#000000;stroke-width:0.8;"/>
      </defs>
      <g>
       <use style="stroke:#000000;stroke-width:0.8;" x="64.967402" xlink:href="#m1d40d2ac12" y="261.512448"/>
      </g>
     </g>
     <g id="text_10">
      <!-- −1.0 -->
      <defs>
       <path d="M 10.59375 35.5 
L 73.1875 35.5 
L 73.1875 27.203125 
L 10.59375 27.203125 
z
" id="DejaVuSans-8722"/>
       <path d="M 10.6875 12.40625 
L 21 12.40625 
L 21 0 
L 10.6875 0 
z
" id="DejaVuSans-46"/>
      </defs>
      <g transform="translate(33.684589 265.311667)scale(0.1 -0.1)">
       <use xlink:href="#DejaVuSans-8722"/>
       <use x="83.789062" xlink:href="#DejaVuSans-49"/>
       <use x="147.412109" xlink:href="#DejaVuSans-46"/>
       <use x="179.199219" xlink:href="#DejaVuSans-48"/>
      </g>
     </g>
    </g>
    <g id="ytick_2">
     <g id="line2d_19">
      <path clip-path="url(#pdd245807f2)" d="M 64.967402 225.636559 
L 415.388976 225.636559 
" style="fill:none;stroke:#000000;stroke-dasharray:0.7,1.155;stroke-dashoffset:0;stroke-width:0.7;"/>
     </g>
     <g id="line2d_20">
      <g>
       <use style="stroke:#000000;stroke-width:0.8;" x="64.967402" xlink:href="#m1d40d2ac12" y="225.636559"/>
      </g>
     </g>
     <g id="text_11">
      <!-- −0.8 -->
      <defs>
       <path d="M 31.78125 34.625 
Q 24.75 34.625 20.71875 30.859375 
Q 16.703125 27.09375 16.703125 20.515625 
Q 16.703125 13.921875 20.71875 10.15625 
Q 24.75 6.390625 31.78125 6.390625 
Q 38.8125 6.390625 42.859375 10.171875 
Q 46.921875 13.96875 46.921875 20.515625 
Q 46.921875 27.09375 42.890625 30.859375 
Q 38.875 34.625 31.78125 34.625 
z
M 21.921875 38.8125 
Q 15.578125 40.375 12.03125 44.71875 
Q 8.5 49.078125 8.5 55.328125 
Q 8.5 64.0625 14.71875 69.140625 
Q 20.953125 74.21875 31.78125 74.21875 
Q 42.671875 74.21875 48.875 69.140625 
Q 55.078125 64.0625 55.078125 55.328125 
Q 55.078125 49.078125 51.53125 44.71875 
Q 48 40.375 41.703125 38.8125 
Q 48.828125 37.15625 52.796875 32.3125 
Q 56.78125 27.484375 56.78125 20.515625 
Q 56.78125 9.90625 50.3125 4.234375 
Q 43.84375 -1.421875 31.78125 -1.421875 
Q 19.734375 -1.421875 13.25 4.234375 
Q 6.78125 9.90625 6.78125 20.515625 
Q 6.78125 27.484375 10.78125 32.3125 
Q 14.796875 37.15625 21.921875 38.8125 
z
M 18.3125 54.390625 
Q 18.3125 48.734375 21.84375 45.5625 
Q 25.390625 42.390625 31.78125 42.390625 
Q 38.140625 42.390625 41.71875 45.5625 
Q 45.3125 48.734375 45.3125 54.390625 
Q 45.3125 60.0625 41.71875 63.234375 
Q 38.140625 66.40625 31.78125 66.40625 
Q 25.390625 66.40625 21.84375 63.234375 
Q 18.3125 60.0625 18.3125 54.390625 
z
" id="DejaVuSans-56"/>
      </defs>
      <g transform="translate(33.684589 229.435778)scale(0.1 -0.1)">
       <use xlink:href="#DejaVuSans-8722"/>
       <use x="83.789062" xlink:href="#DejaVuSans-48"/>
       <use x="147.412109" xlink:href="#DejaVuSans-46"/>
       <use x="179.199219" xlink:href="#DejaVuSans-56"/>
      </g>
     </g>
    </g>
    <g id="ytick_3">
     <g id="line2d_21">
      <path clip-path="url(#pdd245807f2)" d="M 64.967402 189.760671 
L 415.388976 189.760671 
" style="fill:none;stroke:#000000;stroke-dasharray:0.7,1.155;stroke-dashoffset:0;stroke-width:0.7;"/>
     </g>
     <g id="line2d_22">
      <g>
       <use style="stroke:#000000;stroke-width:0.8;" x="64.967402" xlink:href="#m1d40d2ac12" y="189.760671"/>
      </g>
     </g>
     <g id="text_12">
      <!-- −0.6 -->
      <defs>
       <path d="M 33.015625 40.375 
Q 26.375 40.375 22.484375 35.828125 
Q 18.609375 31.296875 18.609375 23.390625 
Q 18.609375 15.53125 22.484375 10.953125 
Q 26.375 6.390625 33.015625 6.390625 
Q 39.65625 6.390625 43.53125 10.953125 
Q 47.40625 15.53125 47.40625 23.390625 
Q 47.40625 31.296875 43.53125 35.828125 
Q 39.65625 40.375 33.015625 40.375 
z
M 52.59375 71.296875 
L 52.59375 62.3125 
Q 48.875 64.0625 45.09375 64.984375 
Q 41.3125 65.921875 37.59375 65.921875 
Q 27.828125 65.921875 22.671875 59.328125 
Q 17.53125 52.734375 16.796875 39.40625 
Q 19.671875 43.65625 24.015625 45.921875 
Q 28.375 48.1875 33.59375 48.1875 
Q 44.578125 48.1875 50.953125 41.515625 
Q 57.328125 34.859375 57.328125 23.390625 
Q 57.328125 12.15625 50.6875 5.359375 
Q 44.046875 -1.421875 33.015625 -1.421875 
Q 20.359375 -1.421875 13.671875 8.265625 
Q 6.984375 17.96875 6.984375 36.375 
Q 6.984375 53.65625 15.1875 63.9375 
Q 23.390625 74.21875 37.203125 74.21875 
Q 40.921875 74.21875 44.703125 73.484375 
Q 48.484375 72.75 52.59375 71.296875 
z
" id="DejaVuSans-54"/>
      </defs>
      <g transform="translate(33.684589 193.559889)scale(0.1 -0.1)">
       <use xlink:href="#DejaVuSans-8722"/>
       <use x="83.789062" xlink:href="#DejaVuSans-48"/>
       <use x="147.412109" xlink:href="#DejaVuSans-46"/>
       <use x="179.199219" xlink:href="#DejaVuSans-54"/>
      </g>
     </g>
    </g>
    <g id="ytick_4">
     <g id="line2d_23">
      <path clip-path="url(#pdd245807f2)" d="M 64.967402 153.884782 
L 415.388976 153.884782 
" style="fill:none;stroke:#000000;stroke-dasharray:0.7,1.155;stroke-dashoffset:0;stroke-width:0.7;"/>
     </g>
     <g id="line2d_24">
      <g>
       <use style="stroke:#000000;stroke-width:0.8;" x="64.967402" xlink:href="#m1d40d2ac12" y="153.884782"/>
      </g>
     </g>
     <g id="text_13">
      <!-- −0.4 -->
      <defs>
       <path d="M 37.796875 64.3125 
L 12.890625 25.390625 
L 37.796875 25.390625 
z
M 35.203125 72.90625 
L 47.609375 72.90625 
L 47.609375 25.390625 
L 58.015625 25.390625 
L 58.015625 17.1875 
L 47.609375 17.1875 
L 47.609375 0 
L 37.796875 0 
L 37.796875 17.1875 
L 4.890625 17.1875 
L 4.890625 26.703125 
z
" id="DejaVuSans-52"/>
      </defs>
      <g transform="translate(33.684589 157.684)scale(0.1 -0.1)">
       <use xlink:href="#DejaVuSans-8722"/>
       <use x="83.789062" xlink:href="#DejaVuSans-48"/>
       <use x="147.412109" xlink:href="#DejaVuSans-46"/>
       <use x="179.199219" xlink:href="#DejaVuSans-52"/>
      </g>
     </g>
    </g>
    <g id="ytick_5">
     <g id="line2d_25">
      <path clip-path="url(#pdd245807f2)" d="M 64.967402 118.008893 
L 415.388976 118.008893 
" style="fill:none;stroke:#000000;stroke-dasharray:0.7,1.155;stroke-dashoffset:0;stroke-width:0.7;"/>
     </g>
     <g id="line2d_26">
      <g>
       <use style="stroke:#000000;stroke-width:0.8;" x="64.967402" xlink:href="#m1d40d2ac12" y="118.008893"/>
      </g>
     </g>
     <g id="text_14">
      <!-- −0.2 -->
      <g transform="translate(33.684589 121.808112)scale(0.1 -0.1)">
       <use xlink:href="#DejaVuSans-8722"/>
       <use x="83.789062" xlink:href="#DejaVuSans-48"/>
       <use x="147.412109" xlink:href="#DejaVuSans-46"/>
       <use x="179.199219" xlink:href="#DejaVuSans-50"/>
      </g>
     </g>
    </g>
    <g id="ytick_6">
     <g id="line2d_27">
      <path clip-path="url(#pdd245807f2)" d="M 64.967402 82.133004 
L 415.388976 82.133004 
" style="fill:none;stroke:#000000;stroke-dasharray:0.7,1.155;stroke-dashoffset:0;stroke-width:0.7;"/>
     </g>
     <g id="line2d_28">
      <g>
       <use style="stroke:#000000;stroke-width:0.8;" x="64.967402" xlink:href="#m1d40d2ac12" y="82.133004"/>
      </g>
     </g>
     <g id="text_15">
      <!-- 0.0 -->
      <g transform="translate(42.064277 85.932223)scale(0.1 -0.1)">
       <use xlink:href="#DejaVuSans-48"/>
       <use x="63.623047" xlink:href="#DejaVuSans-46"/>
       <use x="95.410156" xlink:href="#DejaVuSans-48"/>
      </g>
     </g>
    </g>
    <g id="ytick_7">
     <g id="line2d_29">
      <path clip-path="url(#pdd245807f2)" d="M 64.967402 46.257115 
L 415.388976 46.257115 
" style="fill:none;stroke:#000000;stroke-dasharray:0.7,1.155;stroke-dashoffset:0;stroke-width:0.7;"/>
     </g>
     <g id="line2d_30">
      <g>
       <use style="stroke:#000000;stroke-width:0.8;" x="64.967402" xlink:href="#m1d40d2ac12" y="46.257115"/>
      </g>
     </g>
     <g id="text_16">
      <!-- 0.2 -->
      <g transform="translate(42.064277 50.056334)scale(0.1 -0.1)">
       <use xlink:href="#DejaVuSans-48"/>
       <use x="63.623047" xlink:href="#DejaVuSans-46"/>
       <use x="95.410156" xlink:href="#DejaVuSans-50"/>
      </g>
     </g>
    </g>
    <g id="text_17">
     <!-- Valor -->
     <defs>
      <path d="M 28.609375 0 
L 0.78125 72.90625 
L 11.078125 72.90625 
L 34.1875 11.53125 
L 57.328125 72.90625 
L 67.578125 72.90625 
L 39.796875 0 
z
" id="DejaVuSans-86"/>
      <path d="M 9.421875 75.984375 
L 18.40625 75.984375 
L 18.40625 0 
L 9.421875 0 
z
" id="DejaVuSans-108"/>
     </defs>
     <g transform="translate(27.604902 166.302457)rotate(-90)scale(0.1 -0.1)">
      <use xlink:href="#DejaVuSans-86"/>
      <use x="60.658203" xlink:href="#DejaVuSans-97"/>
      <use x="121.9375" xlink:href="#DejaVuSans-108"/>
      <use x="149.720703" xlink:href="#DejaVuSans-111"/>
      <use x="210.902344" xlink:href="#DejaVuSans-114"/>
     </g>
    </g>
   </g>
   <g id="line2d_31">
    <path clip-path="url(#pdd245807f2)" d="M 64.967402 82.133004 
L 66.728314 82.133004 
L 66.728314 76.234589 
L 68.489226 76.234589 
L 68.489226 71.767701 
L 70.250139 71.767701 
L 70.250139 67.764165 
L 72.011051 67.764165 
L 72.011051 64.16872 
L 73.771964 64.16872 
L 73.771964 61.20243 
L 75.532876 61.20243 
L 75.532876 58.886118 
L 77.293789 58.886118 
L 77.293789 57.22389 
L 79.054701 57.22389 
L 79.054701 56.189552 
L 80.815614 56.189552 
L 80.815614 55.67274 
L 84.337438 55.584516 
L 84.337438 61.431338 
L 86.098351 61.431338 
L 86.098351 64.231653 
L 87.859263 64.231653 
L 87.859263 65.819577 
L 89.620176 65.819577 
L 89.620176 66.870291 
L 91.381088 66.870291 
L 91.381088 67.60034 
L 93.142001 67.60034 
L 93.142001 68.136517 
L 94.902913 68.136517 
L 94.902913 68.560688 
L 96.663825 68.560688 
L 96.663825 68.892526 
L 98.424738 68.892526 
L 98.424738 69.157005 
L 100.18565 69.157005 
L 100.18565 69.361293 
L 103.707475 69.367454 
L 103.707475 69.182093 
L 105.468388 69.182093 
L 105.468388 69.004113 
L 107.2293 69.004113 
L 107.2293 68.81682 
L 108.990212 68.81682 
L 108.990212 68.653279 
L 110.751125 68.653279 
L 110.751125 68.490712 
L 112.512037 68.490712 
L 112.512037 68.365369 
L 116.033862 68.263156 
L 116.033862 68.180667 
L 119.555687 68.127786 
L 119.555687 69.083455 
L 121.3166 69.083455 
L 121.3166 69.6 
L 123.077512 69.6 
L 123.077512 69.969572 
L 124.838424 69.969572 
L 124.838424 70.239919 
L 126.599337 70.239919 
L 126.599337 70.459752 
L 128.360249 70.459752 
L 128.360249 70.635059 
L 130.121162 70.635059 
L 130.121162 70.776674 
L 131.882074 70.776674 
L 131.882074 70.895481 
L 135.403899 70.989477 
L 135.403899 71.073329 
L 145.969374 70.98431 
L 145.969374 70.939528 
L 151.252111 70.861775 
L 151.252111 70.822165 
L 154.773936 70.789828 
L 154.773936 71.090088 
L 156.534848 71.090088 
L 156.534848 71.262734 
L 158.295761 71.262734 
L 158.295761 71.403949 
L 161.817586 71.507371 
L 161.817586 71.590969 
L 165.33941 71.66176 
L 165.33941 71.728105 
L 170.622148 71.815622 
L 170.622148 71.85426 
L 188.231272 71.756716 
L 188.231272 71.74144 
L 189.992185 71.74144 
L 189.992185 71.891088 
L 193.514009 71.970475 
L 193.514009 72.029889 
L 198.796747 72.138058 
L 198.796747 72.175095 
L 207.601309 72.280072 
L 207.601309 72.315429 
L 230.493171 72.401062 
L 230.493171 72.432861 
L 242.819558 72.531927 
L 242.819558 72.562787 
L 272.755069 72.665705 
L 272.755069 72.679931 
L 302.69058 72.787775 
L 302.69058 72.797394 
L 341.430654 72.902325 
L 341.430654 72.912409 
L 381.93164 73.023502 
L 381.93164 73.024576 
L 415.388976 73.078692 
L 415.388976 73.083097 
" style="fill:none;stroke:#0000ff;stroke-linecap:square;"/>
   </g>
   <g id="line2d_32">
    <path clip-path="url(#pdd245807f2)" d="M 64.967402 82.133004 
L 68.489226 82.130888 
L 68.489226 83.196373 
L 70.250139 83.196373 
L 70.250139 86.313926 
L 72.011051 86.313926 
L 72.011051 91.826506 
L 73.771964 91.826506 
L 73.771964 99.637786 
L 75.532876 99.637786 
L 75.532876 109.243856 
L 77.293789 109.243856 
L 77.293789 120.147079 
L 79.054701 120.147079 
L 79.054701 131.620641 
L 80.815614 131.620641 
L 80.815614 143.143364 
L 82.576526 143.143364 
L 82.576526 154.31976 
L 84.337438 154.31976 
L 84.337438 186.1829 
L 86.098351 186.1829 
L 86.098351 201.443636 
L 87.859263 201.443636 
L 87.859263 210.097269 
L 89.620176 210.097269 
L 89.620176 215.823293 
L 91.381088 215.823293 
L 91.381088 219.801805 
L 93.142001 219.801805 
L 93.142001 222.723785 
L 94.902913 222.723785 
L 94.902913 225.035366 
L 96.663825 225.035366 
L 96.663825 226.843765 
L 98.424738 226.843765 
L 98.424738 228.285086 
L 100.18565 228.285086 
L 100.18565 229.398384 
L 103.707475 229.395434 
L 103.707475 229.534026 
L 105.468388 229.534026 
L 105.468388 229.747894 
L 107.2293 229.747894 
L 107.2293 230.071216 
L 108.990212 230.071216 
L 108.990212 230.463706 
L 110.751125 230.463706 
L 110.751125 230.987532 
L 112.512037 230.987532 
L 112.512037 231.542438 
L 114.27295 231.542438 
L 114.27295 232.156854 
L 116.033862 232.156854 
L 116.033862 232.854508 
L 117.794775 232.854508 
L 117.794775 233.549411 
L 119.555687 233.549411 
L 119.555687 236.925701 
L 121.3166 236.925701 
L 121.3166 238.750607 
L 123.077512 238.750607 
L 123.077512 240.05627 
L 124.838424 240.05627 
L 124.838424 241.011379 
L 126.599337 241.011379 
L 126.599337 241.788031 
L 128.360249 241.788031 
L 128.360249 242.407376 
L 130.121162 242.407376 
L 130.121162 242.907687 
L 131.882074 242.907687 
L 131.882074 243.32742 
L 133.642987 243.32742 
L 133.642987 243.659501 
L 135.403899 243.659501 
L 135.403899 243.955743 
L 145.969374 244.065806 
L 145.969374 244.141016 
L 149.491199 244.230818 
L 149.491199 244.329607 
L 151.252111 244.329607 
L 151.252111 244.465303 
L 153.013023 244.465303 
L 153.013023 244.608002 
L 154.773936 244.608002 
L 154.773936 245.496506 
L 156.534848 245.496506 
L 156.534848 246.007383 
L 158.295761 246.007383 
L 158.295761 246.425254 
L 160.056673 246.425254 
L 160.056673 246.731291 
L 161.817586 246.731291 
L 161.817586 246.978665 
L 163.578498 246.978665 
L 163.578498 247.188143 
L 165.33941 247.188143 
L 165.33941 247.384465 
L 167.100323 247.384465 
L 167.100323 247.521714 
L 168.861235 247.521714 
L 168.861235 247.643438 
L 170.622148 247.643438 
L 170.622148 247.757774 
L 186.47036 247.865932 
L 186.47036 247.908019 
L 189.992185 247.948833 
L 189.992185 248.35073 
L 191.753097 248.35073 
L 191.753097 248.563931 
L 193.514009 248.563931 
L 193.514009 248.723494 
L 195.274922 248.723494 
L 195.274922 248.894142 
L 197.035834 248.894142 
L 197.035834 249.013993 
L 200.557659 249.113458 
L 200.557659 249.201794 
L 204.079484 249.2727 
L 204.079484 249.333317 
L 221.688608 249.43875 
L 221.688608 249.459804 
L 225.210433 249.481326 
L 225.210433 249.713338 
L 226.971346 249.713338 
L 226.971346 249.832361 
L 230.493171 249.932654 
L 230.493171 250.013041 
L 235.775908 250.119649 
L 235.775908 250.161739 
L 251.62412 250.270553 
L 251.62412 250.275609 
L 262.189594 250.320098 
L 262.189594 250.488262 
L 265.711419 250.559002 
L 265.711419 250.602854 
L 270.994157 250.685099 
L 270.994157 250.726419 
L 293.886018 250.837372 
L 293.886018 250.846186 
L 295.646931 250.846186 
L 295.646931 250.964982 
L 300.929668 251.050407 
L 300.929668 251.079963 
L 327.343355 251.188839 
L 327.343355 251.195275 
L 334.387004 251.294041 
L 334.387004 251.334475 
L 344.952479 251.439236 
L 344.952479 251.457082 
L 366.083428 251.482785 
L 366.083428 251.568489 
L 392.497115 251.679495 
L 392.497115 251.679957 
L 410.106239 251.788304 
L 410.106239 251.798529 
L 415.388976 251.809176 
L 415.388976 251.818835 
" style="fill:none;stroke:#ff0000;stroke-linecap:square;"/>
   </g>
   <g id="patch_3">
    <path d="M 64.967402 261.630551 
L 64.967402 45.7728 
" style="fill:none;stroke:#000000;stroke-linecap:square;stroke-linejoin:miter;stroke-width:0.8;"/>
   </g>
   <g id="patch_4">
    <path d="M 415.388976 261.630551 
L 415.388976 45.7728 
" style="fill:none;stroke:#000000;stroke-linecap:square;stroke-linejoin:miter;stroke-width:0.8;"/>
   </g>
   <g id="patch_5">
    <path d="M 64.967402 261.630551 
L 415.388976 261.630551 
" style="fill:none;stroke:#000000;stroke-linecap:square;stroke-linejoin:miter;stroke-width:0.8;"/>
   </g>
   <g id="patch_6">
    <path d="M 64.967402 45.7728 
L 415.388976 45.7728 
" style="fill:none;stroke:#000000;stroke-linecap:square;stroke-linejoin:miter;stroke-width:0.8;"/>
   </g>
   <g id="text_18">
    <!-- Evolução temporal dos coeficientes estimados -->
    <defs>
     <path d="M 9.8125 72.90625 
L 55.90625 72.90625 
L 55.90625 64.59375 
L 19.671875 64.59375 
L 19.671875 43.015625 
L 54.390625 43.015625 
L 54.390625 34.71875 
L 19.671875 34.71875 
L 19.671875 8.296875 
L 56.78125 8.296875 
L 56.78125 0 
L 9.8125 0 
z
" id="DejaVuSans-69"/>
     <path d="M 2.984375 54.6875 
L 12.5 54.6875 
L 29.59375 8.796875 
L 46.6875 54.6875 
L 56.203125 54.6875 
L 35.6875 0 
L 23.484375 0 
z
" id="DejaVuSans-118"/>
     <path d="M 8.5 21.578125 
L 8.5 54.6875 
L 17.484375 54.6875 
L 17.484375 21.921875 
Q 17.484375 14.15625 20.5 10.265625 
Q 23.53125 6.390625 29.59375 6.390625 
Q 36.859375 6.390625 41.078125 11.03125 
Q 45.3125 15.671875 45.3125 23.6875 
L 45.3125 54.6875 
L 54.296875 54.6875 
L 54.296875 0 
L 45.3125 0 
L 45.3125 8.40625 
Q 42.046875 3.421875 37.71875 1 
Q 33.40625 -1.421875 27.6875 -1.421875 
Q 18.265625 -1.421875 13.375 4.4375 
Q 8.5 10.296875 8.5 21.578125 
z
M 31.109375 56 
z
" id="DejaVuSans-117"/>
     <path d="M 48.78125 52.59375 
L 48.78125 44.1875 
Q 44.96875 46.296875 41.140625 47.34375 
Q 37.3125 48.390625 33.40625 48.390625 
Q 24.65625 48.390625 19.8125 42.84375 
Q 14.984375 37.3125 14.984375 27.296875 
Q 14.984375 17.28125 19.8125 11.734375 
Q 24.65625 6.203125 33.40625 6.203125 
Q 37.3125 6.203125 41.140625 7.25 
Q 44.96875 8.296875 48.78125 10.40625 
L 48.78125 2.09375 
Q 45.015625 0.34375 40.984375 -0.53125 
Q 36.96875 -1.421875 32.421875 -1.421875 
Q 20.0625 -1.421875 12.78125 6.34375 
Q 5.515625 14.109375 5.515625 27.296875 
Q 5.515625 40.671875 12.859375 48.328125 
Q 20.21875 56 33.015625 56 
Q 37.15625 56 41.109375 55.140625 
Q 45.0625 54.296875 48.78125 52.59375 
z
M 36.078125 0 
Q 38.765625 -3.03125 40.078125 -5.59375 
Q 41.40625 -8.15625 41.40625 -10.5 
Q 41.40625 -14.84375 38.46875 -17.0625 
Q 35.546875 -19.28125 29.78125 -19.28125 
Q 27.546875 -19.28125 25.421875 -18.984375 
Q 23.296875 -18.703125 21.1875 -18.109375 
L 21.1875 -11.71875 
Q 22.859375 -12.546875 24.65625 -12.90625 
Q 26.46875 -13.28125 28.765625 -13.28125 
Q 31.640625 -13.28125 33.109375 -12.109375 
Q 34.578125 -10.9375 34.578125 -8.6875 
Q 34.578125 -7.234375 33.515625 -5.109375 
Q 32.46875 -2.984375 30.28125 0 
z
" id="DejaVuSans-231"/>
     <path d="M 34.28125 27.484375 
Q 23.390625 27.484375 19.1875 25 
Q 14.984375 22.515625 14.984375 16.5 
Q 14.984375 11.71875 18.140625 8.90625 
Q 21.296875 6.109375 26.703125 6.109375 
Q 34.1875 6.109375 38.703125 11.40625 
Q 43.21875 16.703125 43.21875 25.484375 
L 43.21875 27.484375 
z
M 52.203125 31.203125 
L 52.203125 0 
L 43.21875 0 
L 43.21875 8.296875 
Q 40.140625 3.328125 35.546875 0.953125 
Q 30.953125 -1.421875 24.3125 -1.421875 
Q 15.921875 -1.421875 10.953125 3.296875 
Q 6 8.015625 6 15.921875 
Q 6 25.140625 12.171875 29.828125 
Q 18.359375 34.515625 30.609375 34.515625 
L 43.21875 34.515625 
L 43.21875 35.40625 
Q 43.21875 41.609375 39.140625 45 
Q 35.0625 48.390625 27.6875 48.390625 
Q 23 48.390625 18.546875 47.265625 
Q 14.109375 46.140625 10.015625 43.890625 
L 10.015625 52.203125 
Q 14.9375 54.109375 19.578125 55.046875 
Q 24.21875 56 28.609375 56 
Q 40.484375 56 46.34375 49.84375 
Q 52.203125 43.703125 52.203125 31.203125 
z
M 28.8125 66.890625 
L 26.03125 69.578125 
Q 24.953125 70.5625 24.140625 71.015625 
Q 23.34375 71.484375 22.703125 71.484375 
Q 20.84375 71.484375 19.96875 69.703125 
Q 19.09375 67.921875 19 63.921875 
L 12.890625 63.921875 
Q 12.984375 70.515625 15.46875 74.09375 
Q 17.96875 77.6875 22.40625 77.6875 
Q 24.265625 77.6875 25.828125 77 
Q 27.390625 76.3125 29.203125 74.703125 
L 31.984375 72.015625 
Q 33.0625 71.046875 33.859375 70.578125 
Q 34.671875 70.125 35.296875 70.125 
Q 37.15625 70.125 38.03125 71.90625 
Q 38.921875 73.6875 39.015625 77.6875 
L 45.125 77.6875 
Q 45.015625 71.09375 42.53125 67.5 
Q 40.046875 63.921875 35.59375 63.921875 
Q 33.734375 63.921875 32.171875 64.59375 
Q 30.609375 65.28125 28.8125 66.890625 
z
" id="DejaVuSans-227"/>
     <path id="DejaVuSans-32"/>
     <path d="M 56.203125 29.59375 
L 56.203125 25.203125 
L 14.890625 25.203125 
Q 15.484375 15.921875 20.484375 11.0625 
Q 25.484375 6.203125 34.421875 6.203125 
Q 39.59375 6.203125 44.453125 7.46875 
Q 49.3125 8.734375 54.109375 11.28125 
L 54.109375 2.78125 
Q 49.265625 0.734375 44.1875 -0.34375 
Q 39.109375 -1.421875 33.890625 -1.421875 
Q 20.796875 -1.421875 13.15625 6.1875 
Q 5.515625 13.8125 5.515625 26.8125 
Q 5.515625 40.234375 12.765625 48.109375 
Q 20.015625 56 32.328125 56 
Q 43.359375 56 49.78125 48.890625 
Q 56.203125 41.796875 56.203125 29.59375 
z
M 47.21875 32.234375 
Q 47.125 39.59375 43.09375 43.984375 
Q 39.0625 48.390625 32.421875 48.390625 
Q 24.90625 48.390625 20.390625 44.140625 
Q 15.875 39.890625 15.1875 32.171875 
z
" id="DejaVuSans-101"/>
     <path d="M 18.109375 8.203125 
L 18.109375 -20.796875 
L 9.078125 -20.796875 
L 9.078125 54.6875 
L 18.109375 54.6875 
L 18.109375 46.390625 
Q 20.953125 51.265625 25.265625 53.625 
Q 29.59375 56 35.59375 56 
Q 45.5625 56 51.78125 48.09375 
Q 58.015625 40.1875 58.015625 27.296875 
Q 58.015625 14.40625 51.78125 6.484375 
Q 45.5625 -1.421875 35.59375 -1.421875 
Q 29.59375 -1.421875 25.265625 0.953125 
Q 20.953125 3.328125 18.109375 8.203125 
z
M 48.6875 27.296875 
Q 48.6875 37.203125 44.609375 42.84375 
Q 40.53125 48.484375 33.40625 48.484375 
Q 26.265625 48.484375 22.1875 42.84375 
Q 18.109375 37.203125 18.109375 27.296875 
Q 18.109375 17.390625 22.1875 11.75 
Q 26.265625 6.109375 33.40625 6.109375 
Q 40.53125 6.109375 44.609375 11.75 
Q 48.6875 17.390625 48.6875 27.296875 
z
" id="DejaVuSans-112"/>
     <path d="M 45.40625 46.390625 
L 45.40625 75.984375 
L 54.390625 75.984375 
L 54.390625 0 
L 45.40625 0 
L 45.40625 8.203125 
Q 42.578125 3.328125 38.25 0.953125 
Q 33.9375 -1.421875 27.875 -1.421875 
Q 17.96875 -1.421875 11.734375 6.484375 
Q 5.515625 14.40625 5.515625 27.296875 
Q 5.515625 40.1875 11.734375 48.09375 
Q 17.96875 56 27.875 56 
Q 33.9375 56 38.25 53.625 
Q 42.578125 51.265625 45.40625 46.390625 
z
M 14.796875 27.296875 
Q 14.796875 17.390625 18.875 11.75 
Q 22.953125 6.109375 30.078125 6.109375 
Q 37.203125 6.109375 41.296875 11.75 
Q 45.40625 17.390625 45.40625 27.296875 
Q 45.40625 37.203125 41.296875 42.84375 
Q 37.203125 48.484375 30.078125 48.484375 
Q 22.953125 48.484375 18.875 42.84375 
Q 14.796875 37.203125 14.796875 27.296875 
z
" id="DejaVuSans-100"/>
     <path d="M 48.78125 52.59375 
L 48.78125 44.1875 
Q 44.96875 46.296875 41.140625 47.34375 
Q 37.3125 48.390625 33.40625 48.390625 
Q 24.65625 48.390625 19.8125 42.84375 
Q 14.984375 37.3125 14.984375 27.296875 
Q 14.984375 17.28125 19.8125 11.734375 
Q 24.65625 6.203125 33.40625 6.203125 
Q 37.3125 6.203125 41.140625 7.25 
Q 44.96875 8.296875 48.78125 10.40625 
L 48.78125 2.09375 
Q 45.015625 0.34375 40.984375 -0.53125 
Q 36.96875 -1.421875 32.421875 -1.421875 
Q 20.0625 -1.421875 12.78125 6.34375 
Q 5.515625 14.109375 5.515625 27.296875 
Q 5.515625 40.671875 12.859375 48.328125 
Q 20.21875 56 33.015625 56 
Q 37.15625 56 41.109375 55.140625 
Q 45.0625 54.296875 48.78125 52.59375 
z
" id="DejaVuSans-99"/>
     <path d="M 37.109375 75.984375 
L 37.109375 68.5 
L 28.515625 68.5 
Q 23.6875 68.5 21.796875 66.546875 
Q 19.921875 64.59375 19.921875 59.515625 
L 19.921875 54.6875 
L 34.71875 54.6875 
L 34.71875 47.703125 
L 19.921875 47.703125 
L 19.921875 0 
L 10.890625 0 
L 10.890625 47.703125 
L 2.296875 47.703125 
L 2.296875 54.6875 
L 10.890625 54.6875 
L 10.890625 58.5 
Q 10.890625 67.625 15.140625 71.796875 
Q 19.390625 75.984375 28.609375 75.984375 
z
" id="DejaVuSans-102"/>
     <path d="M 9.421875 54.6875 
L 18.40625 54.6875 
L 18.40625 0 
L 9.421875 0 
z
M 9.421875 75.984375 
L 18.40625 75.984375 
L 18.40625 64.59375 
L 9.421875 64.59375 
z
" id="DejaVuSans-105"/>
     <path d="M 54.890625 33.015625 
L 54.890625 0 
L 45.90625 0 
L 45.90625 32.71875 
Q 45.90625 40.484375 42.875 44.328125 
Q 39.84375 48.1875 33.796875 48.1875 
Q 26.515625 48.1875 22.3125 43.546875 
Q 18.109375 38.921875 18.109375 30.90625 
L 18.109375 0 
L 9.078125 0 
L 9.078125 54.6875 
L 18.109375 54.6875 
L 18.109375 46.1875 
Q 21.34375 51.125 25.703125 53.5625 
Q 30.078125 56 35.796875 56 
Q 45.21875 56 50.046875 50.171875 
Q 54.890625 44.34375 54.890625 33.015625 
z
" id="DejaVuSans-110"/>
    </defs>
    <g transform="translate(77.337408 23.757238)scale(0.14 -0.14)">
     <use xlink:href="#DejaVuSans-69"/>
     <use x="63.183594" xlink:href="#DejaVuSans-118"/>
     <use x="122.363281" xlink:href="#DejaVuSans-111"/>
     <use x="183.544922" xlink:href="#DejaVuSans-108"/>
     <use x="211.328125" xlink:href="#DejaVuSans-117"/>
     <use x="274.707031" xlink:href="#DejaVuSans-231"/>
     <use x="329.6875" xlink:href="#DejaVuSans-227"/>
     <use x="390.966797" xlink:href="#DejaVuSans-111"/>
     <use x="452.148438" xlink:href="#DejaVuSans-32"/>
     <use x="483.935547" xlink:href="#DejaVuSans-116"/>
     <use x="523.144531" xlink:href="#DejaVuSans-101"/>
     <use x="584.667969" xlink:href="#DejaVuSans-109"/>
     <use x="682.080078" xlink:href="#DejaVuSans-112"/>
     <use x="745.556641" xlink:href="#DejaVuSans-111"/>
     <use x="806.738281" xlink:href="#DejaVuSans-114"/>
     <use x="847.851562" xlink:href="#DejaVuSans-97"/>
     <use x="909.130859" xlink:href="#DejaVuSans-108"/>
     <use x="936.914062" xlink:href="#DejaVuSans-32"/>
     <use x="968.701172" xlink:href="#DejaVuSans-100"/>
     <use x="1032.177734" xlink:href="#DejaVuSans-111"/>
     <use x="1093.359375" xlink:href="#DejaVuSans-115"/>
     <use x="1145.458984" xlink:href="#DejaVuSans-32"/>
     <use x="1177.246094" xlink:href="#DejaVuSans-99"/>
     <use x="1232.226562" xlink:href="#DejaVuSans-111"/>
     <use x="1293.408203" xlink:href="#DejaVuSans-101"/>
     <use x="1354.931641" xlink:href="#DejaVuSans-102"/>
     <use x="1390.136719" xlink:href="#DejaVuSans-105"/>
     <use x="1417.919922" xlink:href="#DejaVuSans-99"/>
     <use x="1472.900391" xlink:href="#DejaVuSans-105"/>
     <use x="1500.683594" xlink:href="#DejaVuSans-101"/>
     <use x="1562.207031" xlink:href="#DejaVuSans-110"/>
     <use x="1625.585938" xlink:href="#DejaVuSans-116"/>
     <use x="1664.794922" xlink:href="#DejaVuSans-101"/>
     <use x="1726.318359" xlink:href="#DejaVuSans-115"/>
     <use x="1778.417969" xlink:href="#DejaVuSans-32"/>
     <use x="1810.205078" xlink:href="#DejaVuSans-101"/>
     <use x="1871.728516" xlink:href="#DejaVuSans-115"/>
     <use x="1923.828125" xlink:href="#DejaVuSans-116"/>
     <use x="1963.037109" xlink:href="#DejaVuSans-105"/>
     <use x="1990.820312" xlink:href="#DejaVuSans-109"/>
     <use x="2088.232422" xlink:href="#DejaVuSans-97"/>
     <use x="2149.511719" xlink:href="#DejaVuSans-100"/>
     <use x="2212.988281" xlink:href="#DejaVuSans-111"/>
     <use x="2274.169922" xlink:href="#DejaVuSans-115"/>
    </g>
    <!-- para $\rho = 5$ (Estimação de $1^a$ Ordem) -->
    <defs>
     <path d="M 18.796875 44.921875 
Q 22.703125 49.90625 30.953125 54.296875 
Q 34.1875 56 43.0625 56 
Q 53.03125 56 57.71875 48.09375 
Q 62.40625 40.1875 59.90625 27.296875 
Q 57.375 14.40625 49.609375 6.484375 
Q 41.84375 -1.421875 31.890625 -1.421875 
Q 25.875 -1.421875 22.015625 0.984375 
Q 18.171875 3.328125 16.3125 8.203125 
L 10.640625 -20.796875 
L 1.609375 -20.796875 
L 10.890625 26.8125 
Q 13.09375 38.09375 18.796875 44.921875 
z
M 50.59375 27.296875 
Q 52.484375 37.203125 49.515625 42.875 
Q 46.53125 48.484375 39.40625 48.484375 
Q 32.28125 48.484375 27.09375 42.875 
Q 21.921875 37.203125 20.015625 27.296875 
Q 18.0625 17.390625 21.046875 11.71875 
Q 24.03125 6.109375 31.15625 6.109375 
Q 38.28125 6.109375 43.453125 11.71875 
Q 48.640625 17.390625 50.59375 27.296875 
z
" id="DejaVuSans-Oblique-961"/>
     <path d="M 10.59375 45.40625 
L 73.1875 45.40625 
L 73.1875 37.203125 
L 10.59375 37.203125 
z
M 10.59375 25.484375 
L 73.1875 25.484375 
L 73.1875 17.1875 
L 10.59375 17.1875 
z
" id="DejaVuSans-61"/>
     <path d="M 31 75.875 
Q 24.46875 64.65625 21.28125 53.65625 
Q 18.109375 42.671875 18.109375 31.390625 
Q 18.109375 20.125 21.3125 9.0625 
Q 24.515625 -2 31 -13.1875 
L 23.1875 -13.1875 
Q 15.875 -1.703125 12.234375 9.375 
Q 8.59375 20.453125 8.59375 31.390625 
Q 8.59375 42.28125 12.203125 53.3125 
Q 15.828125 64.359375 23.1875 75.875 
z
" id="DejaVuSans-40"/>
     <path d="M 53.71875 31.203125 
L 47.609375 0 
L 38.625 0 
L 40.28125 8.296875 
Q 36.328125 3.421875 31.265625 1 
Q 26.21875 -1.421875 20.015625 -1.421875 
Q 13.03125 -1.421875 8.5625 2.84375 
Q 4.109375 7.125 4.109375 13.8125 
Q 4.109375 23.390625 11.75 28.953125 
Q 19.390625 34.515625 32.8125 34.515625 
L 45.3125 34.515625 
L 45.796875 36.921875 
Q 45.90625 37.3125 45.953125 37.765625 
Q 46 38.234375 46 39.203125 
Q 46 43.5625 42.453125 45.96875 
Q 38.921875 48.390625 32.515625 48.390625 
Q 28.125 48.390625 23.5 47.265625 
Q 18.890625 46.140625 14.015625 43.890625 
L 15.578125 52.203125 
Q 20.65625 54.109375 25.515625 55.046875 
Q 30.375 56 34.90625 56 
Q 44.578125 56 49.625 51.796875 
Q 54.6875 47.609375 54.6875 39.59375 
Q 54.6875 37.984375 54.4375 35.8125 
Q 54.203125 33.640625 53.71875 31.203125 
z
M 44 27.484375 
L 35.015625 27.484375 
Q 23.96875 27.484375 18.671875 24.53125 
Q 13.375 21.578125 13.375 15.375 
Q 13.375 11.078125 16.078125 8.640625 
Q 18.796875 6.203125 23.578125 6.203125 
Q 30.90625 6.203125 36.375 11.453125 
Q 41.84375 16.703125 43.609375 25.484375 
z
" id="DejaVuSans-Oblique-97"/>
     <path d="M 39.40625 66.21875 
Q 28.65625 66.21875 22.328125 58.203125 
Q 16.015625 50.203125 16.015625 36.375 
Q 16.015625 22.609375 22.328125 14.59375 
Q 28.65625 6.59375 39.40625 6.59375 
Q 50.140625 6.59375 56.421875 14.59375 
Q 62.703125 22.609375 62.703125 36.375 
Q 62.703125 50.203125 56.421875 58.203125 
Q 50.140625 66.21875 39.40625 66.21875 
z
M 39.40625 74.21875 
Q 54.734375 74.21875 63.90625 63.9375 
Q 73.09375 53.65625 73.09375 36.375 
Q 73.09375 19.140625 63.90625 8.859375 
Q 54.734375 -1.421875 39.40625 -1.421875 
Q 24.03125 -1.421875 14.8125 8.828125 
Q 5.609375 19.09375 5.609375 36.375 
Q 5.609375 53.65625 14.8125 63.9375 
Q 24.03125 74.21875 39.40625 74.21875 
z
" id="DejaVuSans-79"/>
     <path d="M 8.015625 75.875 
L 15.828125 75.875 
Q 23.140625 64.359375 26.78125 53.3125 
Q 30.421875 42.28125 30.421875 31.390625 
Q 30.421875 20.453125 26.78125 9.375 
Q 23.140625 -1.703125 15.828125 -13.1875 
L 8.015625 -13.1875 
Q 14.5 -2 17.703125 9.0625 
Q 20.90625 20.125 20.90625 31.390625 
Q 20.90625 42.671875 17.703125 53.65625 
Q 14.5 64.65625 8.015625 75.875 
z
" id="DejaVuSans-41"/>
    </defs>
    <g transform="translate(113.478189 39.7728)scale(0.14 -0.14)">
     <use transform="translate(0 0.3125)" xlink:href="#DejaVuSans-112"/>
     <use transform="translate(63.476562 0.3125)" xlink:href="#DejaVuSans-97"/>
     <use transform="translate(124.755859 0.3125)" xlink:href="#DejaVuSans-114"/>
     <use transform="translate(165.869141 0.3125)" xlink:href="#DejaVuSans-97"/>
     <use transform="translate(227.148438 0.3125)" xlink:href="#DejaVuSans-32"/>
     <use transform="translate(258.935547 0.3125)" xlink:href="#DejaVuSans-Oblique-961"/>
     <use transform="translate(341.894531 0.3125)" xlink:href="#DejaVuSans-61"/>
     <use transform="translate(445.166016 0.3125)" xlink:href="#DejaVuSans-53"/>
     <use transform="translate(508.789062 0.3125)" xlink:href="#DejaVuSans-32"/>
     <use transform="translate(540.576172 0.3125)" xlink:href="#DejaVuSans-40"/>
     <use transform="translate(579.589844 0.3125)" xlink:href="#DejaVuSans-69"/>
     <use transform="translate(642.773438 0.3125)" xlink:href="#DejaVuSans-115"/>
     <use transform="translate(694.873047 0.3125)" xlink:href="#DejaVuSans-116"/>
     <use transform="translate(734.082031 0.3125)" xlink:href="#DejaVuSans-105"/>
     <use transform="translate(761.865234 0.3125)" xlink:href="#DejaVuSans-109"/>
     <use transform="translate(859.277344 0.3125)" xlink:href="#DejaVuSans-97"/>
     <use transform="translate(920.556641 0.3125)" xlink:href="#DejaVuSans-231"/>
     <use transform="translate(975.537109 0.3125)" xlink:href="#DejaVuSans-227"/>
     <use transform="translate(1036.816406 0.3125)" xlink:href="#DejaVuSans-111"/>
     <use transform="translate(1097.998047 0.3125)" xlink:href="#DejaVuSans-32"/>
     <use transform="translate(1129.785156 0.3125)" xlink:href="#DejaVuSans-100"/>
     <use transform="translate(1193.261719 0.3125)" xlink:href="#DejaVuSans-101"/>
     <use transform="translate(1254.785156 0.3125)" xlink:href="#DejaVuSans-32"/>
     <use transform="translate(1286.572266 0.3125)" xlink:href="#DejaVuSans-49"/>
     <use transform="translate(1351.152344 38.59375)scale(0.7)" xlink:href="#DejaVuSans-Oblique-97"/>
     <use transform="translate(1396.782227 0.3125)" xlink:href="#DejaVuSans-32"/>
     <use transform="translate(1428.569336 0.3125)" xlink:href="#DejaVuSans-79"/>
     <use transform="translate(1507.280273 0.3125)" xlink:href="#DejaVuSans-114"/>
     <use transform="translate(1548.393555 0.3125)" xlink:href="#DejaVuSans-100"/>
     <use transform="translate(1611.870117 0.3125)" xlink:href="#DejaVuSans-101"/>
     <use transform="translate(1673.393555 0.3125)" xlink:href="#DejaVuSans-109"/>
     <use transform="translate(1770.805664 0.3125)" xlink:href="#DejaVuSans-41"/>
    </g>
   </g>
   <g id="legend_1">
    <g id="patch_7">
     <path d="M 302.688976 169.879801 
L 408.388976 169.879801 
Q 410.388976 169.879801 410.388976 167.879801 
L 410.388976 139.523551 
Q 410.388976 137.523551 408.388976 137.523551 
L 302.688976 137.523551 
Q 300.688976 137.523551 300.688976 139.523551 
L 300.688976 167.879801 
Q 300.688976 169.879801 302.688976 169.879801 
z
" style="fill:#ffffff;opacity:0.8;stroke:#cccccc;stroke-linejoin:miter;"/>
    </g>
    <g id="line2d_33">
     <path d="M 304.688976 145.621988 
L 324.688976 145.621988 
" style="fill:none;stroke:#0000ff;stroke-linecap:square;"/>
    </g>
    <g id="line2d_34"/>
    <g id="text_19">
     <!-- Coeficiente $\bf{b1}$ -->
     <defs>
      <path d="M 64.40625 67.28125 
L 64.40625 56.890625 
Q 59.421875 61.53125 53.78125 63.8125 
Q 48.140625 66.109375 41.796875 66.109375 
Q 29.296875 66.109375 22.65625 58.46875 
Q 16.015625 50.828125 16.015625 36.375 
Q 16.015625 21.96875 22.65625 14.328125 
Q 29.296875 6.6875 41.796875 6.6875 
Q 48.140625 6.6875 53.78125 8.984375 
Q 59.421875 11.28125 64.40625 15.921875 
L 64.40625 5.609375 
Q 59.234375 2.09375 53.4375 0.328125 
Q 47.65625 -1.421875 41.21875 -1.421875 
Q 24.65625 -1.421875 15.125 8.703125 
Q 5.609375 18.84375 5.609375 36.375 
Q 5.609375 53.953125 15.125 64.078125 
Q 24.65625 74.21875 41.21875 74.21875 
Q 47.75 74.21875 53.53125 72.484375 
Q 59.328125 70.75 64.40625 67.28125 
z
" id="DejaVuSans-67"/>
      <path d="M 37.5 11.28125 
Q 43.109375 11.28125 46.0625 15.375 
Q 49.03125 19.484375 49.03125 27.296875 
Q 49.03125 35.109375 46.0625 39.203125 
Q 43.109375 43.3125 37.5 43.3125 
Q 31.890625 43.3125 28.875 39.1875 
Q 25.875 35.0625 25.875 27.296875 
Q 25.875 19.53125 28.875 15.40625 
Q 31.890625 11.28125 37.5 11.28125 
z
M 25.875 46.6875 
Q 29.5 51.46875 33.890625 53.734375 
Q 38.28125 56 44 56 
Q 54.109375 56 60.59375 47.96875 
Q 67.09375 39.9375 67.09375 27.296875 
Q 67.09375 14.65625 60.59375 6.609375 
Q 54.109375 -1.421875 44 -1.421875 
Q 38.28125 -1.421875 33.890625 0.84375 
Q 29.5 3.125 25.875 7.90625 
L 25.875 0 
L 8.40625 0 
L 8.40625 75.984375 
L 25.875 75.984375 
z
" id="DejaVuSans-Bold-98"/>
      <path d="M 11.71875 12.984375 
L 28.328125 12.984375 
L 28.328125 60.109375 
L 11.28125 56.59375 
L 11.28125 69.390625 
L 28.21875 72.90625 
L 46.09375 72.90625 
L 46.09375 12.984375 
L 62.703125 12.984375 
L 62.703125 0 
L 11.71875 0 
z
" id="DejaVuSans-Bold-49"/>
     </defs>
     <g transform="translate(332.688976 149.121988)scale(0.1 -0.1)">
      <use transform="translate(0 0.015625)" xlink:href="#DejaVuSans-67"/>
      <use transform="translate(69.824219 0.015625)" xlink:href="#DejaVuSans-111"/>
      <use transform="translate(131.005859 0.015625)" xlink:href="#DejaVuSans-101"/>
      <use transform="translate(192.529297 0.015625)" xlink:href="#DejaVuSans-102"/>
      <use transform="translate(227.734375 0.015625)" xlink:href="#DejaVuSans-105"/>
      <use transform="translate(255.517578 0.015625)" xlink:href="#DejaVuSans-99"/>
      <use transform="translate(310.498047 0.015625)" xlink:href="#DejaVuSans-105"/>
      <use transform="translate(338.28125 0.015625)" xlink:href="#DejaVuSans-101"/>
      <use transform="translate(399.804688 0.015625)" xlink:href="#DejaVuSans-110"/>
      <use transform="translate(463.183594 0.015625)" xlink:href="#DejaVuSans-116"/>
      <use transform="translate(502.392578 0.015625)" xlink:href="#DejaVuSans-101"/>
      <use transform="translate(563.916016 0.015625)" xlink:href="#DejaVuSans-32"/>
      <use transform="translate(595.703125 0.015625)" xlink:href="#DejaVuSans-Bold-98"/>
      <use transform="translate(667.285156 0.015625)" xlink:href="#DejaVuSans-Bold-49"/>
     </g>
    </g>
    <g id="line2d_35">
     <path d="M 304.688976 160.300113 
L 324.688976 160.300113 
" style="fill:none;stroke:#ff0000;stroke-linecap:square;"/>
    </g>
    <g id="line2d_36"/>
    <g id="text_20">
     <!-- Coeficiente $\bf{a1}$ -->
     <defs>
      <path d="M 32.90625 24.609375 
Q 27.4375 24.609375 24.671875 22.75 
Q 21.921875 20.90625 21.921875 17.28125 
Q 21.921875 13.96875 24.140625 12.078125 
Q 26.375 10.203125 30.328125 10.203125 
Q 35.25 10.203125 38.625 13.734375 
Q 42 17.28125 42 22.609375 
L 42 24.609375 
z
M 59.625 31.203125 
L 59.625 0 
L 42 0 
L 42 8.109375 
Q 38.484375 3.125 34.078125 0.84375 
Q 29.6875 -1.421875 23.390625 -1.421875 
Q 14.890625 -1.421875 9.59375 3.53125 
Q 4.296875 8.5 4.296875 16.40625 
Q 4.296875 26.03125 10.90625 30.515625 
Q 17.53125 35.015625 31.6875 35.015625 
L 42 35.015625 
L 42 36.375 
Q 42 40.53125 38.71875 42.453125 
Q 35.453125 44.390625 28.515625 44.390625 
Q 22.90625 44.390625 18.0625 43.265625 
Q 13.234375 42.140625 9.078125 39.890625 
L 9.078125 53.21875 
Q 14.703125 54.59375 20.359375 55.296875 
Q 26.03125 56 31.6875 56 
Q 46.484375 56 53.046875 50.171875 
Q 59.625 44.34375 59.625 31.203125 
z
" id="DejaVuSans-Bold-97"/>
     </defs>
     <g transform="translate(332.688976 163.800113)scale(0.1 -0.1)">
      <use transform="translate(0 0.015625)" xlink:href="#DejaVuSans-67"/>
      <use transform="translate(69.824219 0.015625)" xlink:href="#DejaVuSans-111"/>
      <use transform="translate(131.005859 0.015625)" xlink:href="#DejaVuSans-101"/>
      <use transform="translate(192.529297 0.015625)" xlink:href="#DejaVuSans-102"/>
      <use transform="translate(227.734375 0.015625)" xlink:href="#DejaVuSans-105"/>
      <use transform="translate(255.517578 0.015625)" xlink:href="#DejaVuSans-99"/>
      <use transform="translate(310.498047 0.015625)" xlink:href="#DejaVuSans-105"/>
      <use transform="translate(338.28125 0.015625)" xlink:href="#DejaVuSans-101"/>
      <use transform="translate(399.804688 0.015625)" xlink:href="#DejaVuSans-110"/>
      <use transform="translate(463.183594 0.015625)" xlink:href="#DejaVuSans-116"/>
      <use transform="translate(502.392578 0.015625)" xlink:href="#DejaVuSans-101"/>
      <use transform="translate(563.916016 0.015625)" xlink:href="#DejaVuSans-32"/>
      <use transform="translate(595.703125 0.015625)" xlink:href="#DejaVuSans-Bold-97"/>
      <use transform="translate(663.183594 0.015625)" xlink:href="#DejaVuSans-Bold-49"/>
     </g>
    </g>
   </g>
  </g>
 </g>
 <defs>
  <clipPath id="pdd245807f2">
   <rect height="215.857751" width="350.421575" x="64.967402" y="45.7728"/>
  </clipPath>
 </defs>
</svg>
