<?xml version="1.0" encoding="utf-8" standalone="no"?>
<!DOCTYPE svg PUBLIC "-//W3C//DTD SVG 1.1//EN"
  "http://www.w3.org/Graphics/SVG/1.1/DTD/svg11.dtd">
<!-- Created with matplotlib (https://matplotlib.org/) -->
<svg height="297.637795pt" version="1.1" viewBox="0 0 439.370079 297.637795" width="439.370079pt" xmlns="http://www.w3.org/2000/svg" xmlns:xlink="http://www.w3.org/1999/xlink">
 <defs>
  <style type="text/css">
*{stroke-linecap:butt;stroke-linejoin:round;}
  </style>
 </defs>
 <g id="figure_1">
  <g id="patch_1">
   <path d="M 0 297.637795 
L 439.370079 297.637795 
L 439.370079 0 
L 0 0 
z
" style="fill:#ffffff;"/>
  </g>
  <g id="axes_1">
   <g id="patch_2">
    <path d="M 71.357402 261.630551 
L 415.388976 261.630551 
L 415.388976 45.168 
L 71.357402 45.168 
z
" style="fill:#ffffff;"/>
   </g>
   <g id="matplotlib.axis_1">
    <g id="xtick_1">
     <g id="line2d_1">
      <path clip-path="url(#pee62000d4e)" d="M 71.357402 261.630551 
L 71.357402 45.168 
" style="fill:none;stroke:#000000;stroke-dasharray:0.7,1.155;stroke-dashoffset:0;stroke-width:0.7;"/>
     </g>
     <g id="line2d_2">
      <defs>
       <path d="M 0 0 
L 0 3.5 
" id="m2b9c890164" style="stroke:#000000;stroke-width:0.8;"/>
      </defs>
      <g>
       <use style="stroke:#000000;stroke-width:0.8;" x="71.357402" xlink:href="#m2b9c890164" y="261.630551"/>
      </g>
     </g>
     <g id="text_1">
      <!-- 0 -->
      <defs>
       <path d="M 31.78125 66.40625 
Q 24.171875 66.40625 20.328125 58.90625 
Q 16.5 51.421875 16.5 36.375 
Q 16.5 21.390625 20.328125 13.890625 
Q 24.171875 6.390625 31.78125 6.390625 
Q 39.453125 6.390625 43.28125 13.890625 
Q 47.125 21.390625 47.125 36.375 
Q 47.125 51.421875 43.28125 58.90625 
Q 39.453125 66.40625 31.78125 66.40625 
z
M 31.78125 74.21875 
Q 44.046875 74.21875 50.515625 64.515625 
Q 56.984375 54.828125 56.984375 36.375 
Q 56.984375 17.96875 50.515625 8.265625 
Q 44.046875 -1.421875 31.78125 -1.421875 
Q 19.53125 -1.421875 13.0625 8.265625 
Q 6.59375 17.96875 6.59375 36.375 
Q 6.59375 54.828125 13.0625 64.515625 
Q 19.53125 74.21875 31.78125 74.21875 
z
" id="DejaVuSans-48"/>
      </defs>
      <g transform="translate(68.176152 276.228989)scale(0.1 -0.1)">
       <use xlink:href="#DejaVuSans-48"/>
      </g>
     </g>
    </g>
    <g id="xtick_2">
     <g id="line2d_3">
      <path clip-path="url(#pee62000d4e)" d="M 114.415171 261.630551 
L 114.415171 45.168 
" style="fill:none;stroke:#000000;stroke-dasharray:0.7,1.155;stroke-dashoffset:0;stroke-width:0.7;"/>
     </g>
     <g id="line2d_4">
      <g>
       <use style="stroke:#000000;stroke-width:0.8;" x="114.415171" xlink:href="#m2b9c890164" y="261.630551"/>
      </g>
     </g>
     <g id="text_2">
      <!-- 100 -->
      <defs>
       <path d="M 12.40625 8.296875 
L 28.515625 8.296875 
L 28.515625 63.921875 
L 10.984375 60.40625 
L 10.984375 69.390625 
L 28.421875 72.90625 
L 38.28125 72.90625 
L 38.28125 8.296875 
L 54.390625 8.296875 
L 54.390625 0 
L 12.40625 0 
z
" id="DejaVuSans-49"/>
      </defs>
      <g transform="translate(104.871421 276.228989)scale(0.1 -0.1)">
       <use xlink:href="#DejaVuSans-49"/>
       <use x="63.623047" xlink:href="#DejaVuSans-48"/>
       <use x="127.246094" xlink:href="#DejaVuSans-48"/>
      </g>
     </g>
    </g>
    <g id="xtick_3">
     <g id="line2d_5">
      <path clip-path="url(#pee62000d4e)" d="M 157.47294 261.630551 
L 157.47294 45.168 
" style="fill:none;stroke:#000000;stroke-dasharray:0.7,1.155;stroke-dashoffset:0;stroke-width:0.7;"/>
     </g>
     <g id="line2d_6">
      <g>
       <use style="stroke:#000000;stroke-width:0.8;" x="157.47294" xlink:href="#m2b9c890164" y="261.630551"/>
      </g>
     </g>
     <g id="text_3">
      <!-- 200 -->
      <defs>
       <path d="M 19.1875 8.296875 
L 53.609375 8.296875 
L 53.609375 0 
L 7.328125 0 
L 7.328125 8.296875 
Q 12.9375 14.109375 22.625 23.890625 
Q 32.328125 33.6875 34.8125 36.53125 
Q 39.546875 41.84375 41.421875 45.53125 
Q 43.3125 49.21875 43.3125 52.78125 
Q 43.3125 58.59375 39.234375 62.25 
Q 35.15625 65.921875 28.609375 65.921875 
Q 23.96875 65.921875 18.8125 64.3125 
Q 13.671875 62.703125 7.8125 59.421875 
L 7.8125 69.390625 
Q 13.765625 71.78125 18.9375 73 
Q 24.125 74.21875 28.421875 74.21875 
Q 39.75 74.21875 46.484375 68.546875 
Q 53.21875 62.890625 53.21875 53.421875 
Q 53.21875 48.921875 51.53125 44.890625 
Q 49.859375 40.875 45.40625 35.40625 
Q 44.1875 33.984375 37.640625 27.21875 
Q 31.109375 20.453125 19.1875 8.296875 
z
" id="DejaVuSans-50"/>
      </defs>
      <g transform="translate(147.92919 276.228989)scale(0.1 -0.1)">
       <use xlink:href="#DejaVuSans-50"/>
       <use x="63.623047" xlink:href="#DejaVuSans-48"/>
       <use x="127.246094" xlink:href="#DejaVuSans-48"/>
      </g>
     </g>
    </g>
    <g id="xtick_4">
     <g id="line2d_7">
      <path clip-path="url(#pee62000d4e)" d="M 200.530709 261.630551 
L 200.530709 45.168 
" style="fill:none;stroke:#000000;stroke-dasharray:0.7,1.155;stroke-dashoffset:0;stroke-width:0.7;"/>
     </g>
     <g id="line2d_8">
      <g>
       <use style="stroke:#000000;stroke-width:0.8;" x="200.530709" xlink:href="#m2b9c890164" y="261.630551"/>
      </g>
     </g>
     <g id="text_4">
      <!-- 300 -->
      <defs>
       <path d="M 40.578125 39.3125 
Q 47.65625 37.796875 51.625 33 
Q 55.609375 28.21875 55.609375 21.1875 
Q 55.609375 10.40625 48.1875 4.484375 
Q 40.765625 -1.421875 27.09375 -1.421875 
Q 22.515625 -1.421875 17.65625 -0.515625 
Q 12.796875 0.390625 7.625 2.203125 
L 7.625 11.71875 
Q 11.71875 9.328125 16.59375 8.109375 
Q 21.484375 6.890625 26.8125 6.890625 
Q 36.078125 6.890625 40.9375 10.546875 
Q 45.796875 14.203125 45.796875 21.1875 
Q 45.796875 27.640625 41.28125 31.265625 
Q 36.765625 34.90625 28.71875 34.90625 
L 20.21875 34.90625 
L 20.21875 43.015625 
L 29.109375 43.015625 
Q 36.375 43.015625 40.234375 45.921875 
Q 44.09375 48.828125 44.09375 54.296875 
Q 44.09375 59.90625 40.109375 62.90625 
Q 36.140625 65.921875 28.71875 65.921875 
Q 24.65625 65.921875 20.015625 65.03125 
Q 15.375 64.15625 9.8125 62.3125 
L 9.8125 71.09375 
Q 15.4375 72.65625 20.34375 73.4375 
Q 25.25 74.21875 29.59375 74.21875 
Q 40.828125 74.21875 47.359375 69.109375 
Q 53.90625 64.015625 53.90625 55.328125 
Q 53.90625 49.265625 50.4375 45.09375 
Q 46.96875 40.921875 40.578125 39.3125 
z
" id="DejaVuSans-51"/>
      </defs>
      <g transform="translate(190.986959 276.228989)scale(0.1 -0.1)">
       <use xlink:href="#DejaVuSans-51"/>
       <use x="63.623047" xlink:href="#DejaVuSans-48"/>
       <use x="127.246094" xlink:href="#DejaVuSans-48"/>
      </g>
     </g>
    </g>
    <g id="xtick_5">
     <g id="line2d_9">
      <path clip-path="url(#pee62000d4e)" d="M 243.588478 261.630551 
L 243.588478 45.168 
" style="fill:none;stroke:#000000;stroke-dasharray:0.7,1.155;stroke-dashoffset:0;stroke-width:0.7;"/>
     </g>
     <g id="line2d_10">
      <g>
       <use style="stroke:#000000;stroke-width:0.8;" x="243.588478" xlink:href="#m2b9c890164" y="261.630551"/>
      </g>
     </g>
     <g id="text_5">
      <!-- 400 -->
      <defs>
       <path d="M 37.796875 64.3125 
L 12.890625 25.390625 
L 37.796875 25.390625 
z
M 35.203125 72.90625 
L 47.609375 72.90625 
L 47.609375 25.390625 
L 58.015625 25.390625 
L 58.015625 17.1875 
L 47.609375 17.1875 
L 47.609375 0 
L 37.796875 0 
L 37.796875 17.1875 
L 4.890625 17.1875 
L 4.890625 26.703125 
z
" id="DejaVuSans-52"/>
      </defs>
      <g transform="translate(234.044728 276.228989)scale(0.1 -0.1)">
       <use xlink:href="#DejaVuSans-52"/>
       <use x="63.623047" xlink:href="#DejaVuSans-48"/>
       <use x="127.246094" xlink:href="#DejaVuSans-48"/>
      </g>
     </g>
    </g>
    <g id="xtick_6">
     <g id="line2d_11">
      <path clip-path="url(#pee62000d4e)" d="M 286.646247 261.630551 
L 286.646247 45.168 
" style="fill:none;stroke:#000000;stroke-dasharray:0.7,1.155;stroke-dashoffset:0;stroke-width:0.7;"/>
     </g>
     <g id="line2d_12">
      <g>
       <use style="stroke:#000000;stroke-width:0.8;" x="286.646247" xlink:href="#m2b9c890164" y="261.630551"/>
      </g>
     </g>
     <g id="text_6">
      <!-- 500 -->
      <defs>
       <path d="M 10.796875 72.90625 
L 49.515625 72.90625 
L 49.515625 64.59375 
L 19.828125 64.59375 
L 19.828125 46.734375 
Q 21.96875 47.46875 24.109375 47.828125 
Q 26.265625 48.1875 28.421875 48.1875 
Q 40.625 48.1875 47.75 41.5 
Q 54.890625 34.8125 54.890625 23.390625 
Q 54.890625 11.625 47.5625 5.09375 
Q 40.234375 -1.421875 26.90625 -1.421875 
Q 22.3125 -1.421875 17.546875 -0.640625 
Q 12.796875 0.140625 7.71875 1.703125 
L 7.71875 11.625 
Q 12.109375 9.234375 16.796875 8.0625 
Q 21.484375 6.890625 26.703125 6.890625 
Q 35.15625 6.890625 40.078125 11.328125 
Q 45.015625 15.765625 45.015625 23.390625 
Q 45.015625 31 40.078125 35.4375 
Q 35.15625 39.890625 26.703125 39.890625 
Q 22.75 39.890625 18.8125 39.015625 
Q 14.890625 38.140625 10.796875 36.28125 
z
" id="DejaVuSans-53"/>
      </defs>
      <g transform="translate(277.102497 276.228989)scale(0.1 -0.1)">
       <use xlink:href="#DejaVuSans-53"/>
       <use x="63.623047" xlink:href="#DejaVuSans-48"/>
       <use x="127.246094" xlink:href="#DejaVuSans-48"/>
      </g>
     </g>
    </g>
    <g id="xtick_7">
     <g id="line2d_13">
      <path clip-path="url(#pee62000d4e)" d="M 329.704016 261.630551 
L 329.704016 45.168 
" style="fill:none;stroke:#000000;stroke-dasharray:0.7,1.155;stroke-dashoffset:0;stroke-width:0.7;"/>
     </g>
     <g id="line2d_14">
      <g>
       <use style="stroke:#000000;stroke-width:0.8;" x="329.704016" xlink:href="#m2b9c890164" y="261.630551"/>
      </g>
     </g>
     <g id="text_7">
      <!-- 600 -->
      <defs>
       <path d="M 33.015625 40.375 
Q 26.375 40.375 22.484375 35.828125 
Q 18.609375 31.296875 18.609375 23.390625 
Q 18.609375 15.53125 22.484375 10.953125 
Q 26.375 6.390625 33.015625 6.390625 
Q 39.65625 6.390625 43.53125 10.953125 
Q 47.40625 15.53125 47.40625 23.390625 
Q 47.40625 31.296875 43.53125 35.828125 
Q 39.65625 40.375 33.015625 40.375 
z
M 52.59375 71.296875 
L 52.59375 62.3125 
Q 48.875 64.0625 45.09375 64.984375 
Q 41.3125 65.921875 37.59375 65.921875 
Q 27.828125 65.921875 22.671875 59.328125 
Q 17.53125 52.734375 16.796875 39.40625 
Q 19.671875 43.65625 24.015625 45.921875 
Q 28.375 48.1875 33.59375 48.1875 
Q 44.578125 48.1875 50.953125 41.515625 
Q 57.328125 34.859375 57.328125 23.390625 
Q 57.328125 12.15625 50.6875 5.359375 
Q 44.046875 -1.421875 33.015625 -1.421875 
Q 20.359375 -1.421875 13.671875 8.265625 
Q 6.984375 17.96875 6.984375 36.375 
Q 6.984375 53.65625 15.1875 63.9375 
Q 23.390625 74.21875 37.203125 74.21875 
Q 40.921875 74.21875 44.703125 73.484375 
Q 48.484375 72.75 52.59375 71.296875 
z
" id="DejaVuSans-54"/>
      </defs>
      <g transform="translate(320.160266 276.228989)scale(0.1 -0.1)">
       <use xlink:href="#DejaVuSans-54"/>
       <use x="63.623047" xlink:href="#DejaVuSans-48"/>
       <use x="127.246094" xlink:href="#DejaVuSans-48"/>
      </g>
     </g>
    </g>
    <g id="xtick_8">
     <g id="line2d_15">
      <path clip-path="url(#pee62000d4e)" d="M 372.761785 261.630551 
L 372.761785 45.168 
" style="fill:none;stroke:#000000;stroke-dasharray:0.7,1.155;stroke-dashoffset:0;stroke-width:0.7;"/>
     </g>
     <g id="line2d_16">
      <g>
       <use style="stroke:#000000;stroke-width:0.8;" x="372.761785" xlink:href="#m2b9c890164" y="261.630551"/>
      </g>
     </g>
     <g id="text_8">
      <!-- 700 -->
      <defs>
       <path d="M 8.203125 72.90625 
L 55.078125 72.90625 
L 55.078125 68.703125 
L 28.609375 0 
L 18.3125 0 
L 43.21875 64.59375 
L 8.203125 64.59375 
z
" id="DejaVuSans-55"/>
      </defs>
      <g transform="translate(363.218035 276.228989)scale(0.1 -0.1)">
       <use xlink:href="#DejaVuSans-55"/>
       <use x="63.623047" xlink:href="#DejaVuSans-48"/>
       <use x="127.246094" xlink:href="#DejaVuSans-48"/>
      </g>
     </g>
    </g>
    <g id="text_9">
     <!-- Amostra -->
     <defs>
      <path d="M 34.1875 63.1875 
L 20.796875 26.90625 
L 47.609375 26.90625 
z
M 28.609375 72.90625 
L 39.796875 72.90625 
L 67.578125 0 
L 57.328125 0 
L 50.6875 18.703125 
L 17.828125 18.703125 
L 11.1875 0 
L 0.78125 0 
z
" id="DejaVuSans-65"/>
      <path d="M 52 44.1875 
Q 55.375 50.25 60.0625 53.125 
Q 64.75 56 71.09375 56 
Q 79.640625 56 84.28125 50.015625 
Q 88.921875 44.046875 88.921875 33.015625 
L 88.921875 0 
L 79.890625 0 
L 79.890625 32.71875 
Q 79.890625 40.578125 77.09375 44.375 
Q 74.3125 48.1875 68.609375 48.1875 
Q 61.625 48.1875 57.5625 43.546875 
Q 53.515625 38.921875 53.515625 30.90625 
L 53.515625 0 
L 44.484375 0 
L 44.484375 32.71875 
Q 44.484375 40.625 41.703125 44.40625 
Q 38.921875 48.1875 33.109375 48.1875 
Q 26.21875 48.1875 22.15625 43.53125 
Q 18.109375 38.875 18.109375 30.90625 
L 18.109375 0 
L 9.078125 0 
L 9.078125 54.6875 
L 18.109375 54.6875 
L 18.109375 46.1875 
Q 21.1875 51.21875 25.484375 53.609375 
Q 29.78125 56 35.6875 56 
Q 41.65625 56 45.828125 52.96875 
Q 50 49.953125 52 44.1875 
z
" id="DejaVuSans-109"/>
      <path d="M 30.609375 48.390625 
Q 23.390625 48.390625 19.1875 42.75 
Q 14.984375 37.109375 14.984375 27.296875 
Q 14.984375 17.484375 19.15625 11.84375 
Q 23.34375 6.203125 30.609375 6.203125 
Q 37.796875 6.203125 41.984375 11.859375 
Q 46.1875 17.53125 46.1875 27.296875 
Q 46.1875 37.015625 41.984375 42.703125 
Q 37.796875 48.390625 30.609375 48.390625 
z
M 30.609375 56 
Q 42.328125 56 49.015625 48.375 
Q 55.71875 40.765625 55.71875 27.296875 
Q 55.71875 13.875 49.015625 6.21875 
Q 42.328125 -1.421875 30.609375 -1.421875 
Q 18.84375 -1.421875 12.171875 6.21875 
Q 5.515625 13.875 5.515625 27.296875 
Q 5.515625 40.765625 12.171875 48.375 
Q 18.84375 56 30.609375 56 
z
" id="DejaVuSans-111"/>
      <path d="M 44.28125 53.078125 
L 44.28125 44.578125 
Q 40.484375 46.53125 36.375 47.5 
Q 32.28125 48.484375 27.875 48.484375 
Q 21.1875 48.484375 17.84375 46.4375 
Q 14.5 44.390625 14.5 40.28125 
Q 14.5 37.15625 16.890625 35.375 
Q 19.28125 33.59375 26.515625 31.984375 
L 29.59375 31.296875 
Q 39.15625 29.25 43.1875 25.515625 
Q 47.21875 21.78125 47.21875 15.09375 
Q 47.21875 7.46875 41.1875 3.015625 
Q 35.15625 -1.421875 24.609375 -1.421875 
Q 20.21875 -1.421875 15.453125 -0.5625 
Q 10.6875 0.296875 5.421875 2 
L 5.421875 11.28125 
Q 10.40625 8.6875 15.234375 7.390625 
Q 20.0625 6.109375 24.8125 6.109375 
Q 31.15625 6.109375 34.5625 8.28125 
Q 37.984375 10.453125 37.984375 14.40625 
Q 37.984375 18.0625 35.515625 20.015625 
Q 33.0625 21.96875 24.703125 23.78125 
L 21.578125 24.515625 
Q 13.234375 26.265625 9.515625 29.90625 
Q 5.8125 33.546875 5.8125 39.890625 
Q 5.8125 47.609375 11.28125 51.796875 
Q 16.75 56 26.8125 56 
Q 31.78125 56 36.171875 55.265625 
Q 40.578125 54.546875 44.28125 53.078125 
z
" id="DejaVuSans-115"/>
      <path d="M 18.3125 70.21875 
L 18.3125 54.6875 
L 36.8125 54.6875 
L 36.8125 47.703125 
L 18.3125 47.703125 
L 18.3125 18.015625 
Q 18.3125 11.328125 20.140625 9.421875 
Q 21.96875 7.515625 27.59375 7.515625 
L 36.8125 7.515625 
L 36.8125 0 
L 27.59375 0 
Q 17.1875 0 13.234375 3.875 
Q 9.28125 7.765625 9.28125 18.015625 
L 9.28125 47.703125 
L 2.6875 47.703125 
L 2.6875 54.6875 
L 9.28125 54.6875 
L 9.28125 70.21875 
z
" id="DejaVuSans-116"/>
      <path d="M 41.109375 46.296875 
Q 39.59375 47.171875 37.8125 47.578125 
Q 36.03125 48 33.890625 48 
Q 26.265625 48 22.1875 43.046875 
Q 18.109375 38.09375 18.109375 28.8125 
L 18.109375 0 
L 9.078125 0 
L 9.078125 54.6875 
L 18.109375 54.6875 
L 18.109375 46.1875 
Q 20.953125 51.171875 25.484375 53.578125 
Q 30.03125 56 36.53125 56 
Q 37.453125 56 38.578125 55.875 
Q 39.703125 55.765625 41.0625 55.515625 
z
" id="DejaVuSans-114"/>
      <path d="M 34.28125 27.484375 
Q 23.390625 27.484375 19.1875 25 
Q 14.984375 22.515625 14.984375 16.5 
Q 14.984375 11.71875 18.140625 8.90625 
Q 21.296875 6.109375 26.703125 6.109375 
Q 34.1875 6.109375 38.703125 11.40625 
Q 43.21875 16.703125 43.21875 25.484375 
L 43.21875 27.484375 
z
M 52.203125 31.203125 
L 52.203125 0 
L 43.21875 0 
L 43.21875 8.296875 
Q 40.140625 3.328125 35.546875 0.953125 
Q 30.953125 -1.421875 24.3125 -1.421875 
Q 15.921875 -1.421875 10.953125 3.296875 
Q 6 8.015625 6 15.921875 
Q 6 25.140625 12.171875 29.828125 
Q 18.359375 34.515625 30.609375 34.515625 
L 43.21875 34.515625 
L 43.21875 35.40625 
Q 43.21875 41.609375 39.140625 45 
Q 35.0625 48.390625 27.6875 48.390625 
Q 23 48.390625 18.546875 47.265625 
Q 14.109375 46.140625 10.015625 43.890625 
L 10.015625 52.203125 
Q 14.9375 54.109375 19.578125 55.046875 
Q 24.21875 56 28.609375 56 
Q 40.484375 56 46.34375 49.84375 
Q 52.203125 43.703125 52.203125 31.203125 
z
" id="DejaVuSans-97"/>
     </defs>
     <g transform="translate(222.338814 289.907114)scale(0.1 -0.1)">
      <use xlink:href="#DejaVuSans-65"/>
      <use x="68.408203" xlink:href="#DejaVuSans-109"/>
      <use x="165.820312" xlink:href="#DejaVuSans-111"/>
      <use x="227.001953" xlink:href="#DejaVuSans-115"/>
      <use x="279.101562" xlink:href="#DejaVuSans-116"/>
      <use x="318.310547" xlink:href="#DejaVuSans-114"/>
      <use x="359.423828" xlink:href="#DejaVuSans-97"/>
     </g>
    </g>
   </g>
   <g id="matplotlib.axis_2">
    <g id="ytick_1">
     <g id="line2d_17">
      <path clip-path="url(#pee62000d4e)" d="M 71.357402 261.195383 
L 415.388976 261.195383 
" style="fill:none;stroke:#000000;stroke-dasharray:0.7,1.155;stroke-dashoffset:0;stroke-width:0.7;"/>
     </g>
     <g id="line2d_18">
      <defs>
       <path d="M 0 0 
L -3.5 0 
" id="m7138e9a0c6" style="stroke:#000000;stroke-width:0.8;"/>
      </defs>
      <g>
       <use style="stroke:#000000;stroke-width:0.8;" x="71.357402" xlink:href="#m7138e9a0c6" y="261.195383"/>
      </g>
     </g>
     <g id="text_10">
      <!-- −1.50 -->
      <defs>
       <path d="M 10.59375 35.5 
L 73.1875 35.5 
L 73.1875 27.203125 
L 10.59375 27.203125 
z
" id="DejaVuSans-8722"/>
       <path d="M 10.6875 12.40625 
L 21 12.40625 
L 21 0 
L 10.6875 0 
z
" id="DejaVuSans-46"/>
      </defs>
      <g transform="translate(33.712089 264.994601)scale(0.1 -0.1)">
       <use xlink:href="#DejaVuSans-8722"/>
       <use x="83.789062" xlink:href="#DejaVuSans-49"/>
       <use x="147.412109" xlink:href="#DejaVuSans-46"/>
       <use x="179.199219" xlink:href="#DejaVuSans-53"/>
       <use x="242.822266" xlink:href="#DejaVuSans-48"/>
      </g>
     </g>
    </g>
    <g id="ytick_2">
     <g id="line2d_19">
      <path clip-path="url(#pee62000d4e)" d="M 71.357402 236.322376 
L 415.388976 236.322376 
" style="fill:none;stroke:#000000;stroke-dasharray:0.7,1.155;stroke-dashoffset:0;stroke-width:0.7;"/>
     </g>
     <g id="line2d_20">
      <g>
       <use style="stroke:#000000;stroke-width:0.8;" x="71.357402" xlink:href="#m7138e9a0c6" y="236.322376"/>
      </g>
     </g>
     <g id="text_11">
      <!-- −1.25 -->
      <g transform="translate(33.712089 240.121594)scale(0.1 -0.1)">
       <use xlink:href="#DejaVuSans-8722"/>
       <use x="83.789062" xlink:href="#DejaVuSans-49"/>
       <use x="147.412109" xlink:href="#DejaVuSans-46"/>
       <use x="179.199219" xlink:href="#DejaVuSans-50"/>
       <use x="242.822266" xlink:href="#DejaVuSans-53"/>
      </g>
     </g>
    </g>
    <g id="ytick_3">
     <g id="line2d_21">
      <path clip-path="url(#pee62000d4e)" d="M 71.357402 211.449369 
L 415.388976 211.449369 
" style="fill:none;stroke:#000000;stroke-dasharray:0.7,1.155;stroke-dashoffset:0;stroke-width:0.7;"/>
     </g>
     <g id="line2d_22">
      <g>
       <use style="stroke:#000000;stroke-width:0.8;" x="71.357402" xlink:href="#m7138e9a0c6" y="211.449369"/>
      </g>
     </g>
     <g id="text_12">
      <!-- −1.00 -->
      <g transform="translate(33.712089 215.248587)scale(0.1 -0.1)">
       <use xlink:href="#DejaVuSans-8722"/>
       <use x="83.789062" xlink:href="#DejaVuSans-49"/>
       <use x="147.412109" xlink:href="#DejaVuSans-46"/>
       <use x="179.199219" xlink:href="#DejaVuSans-48"/>
       <use x="242.822266" xlink:href="#DejaVuSans-48"/>
      </g>
     </g>
    </g>
    <g id="ytick_4">
     <g id="line2d_23">
      <path clip-path="url(#pee62000d4e)" d="M 71.357402 186.576362 
L 415.388976 186.576362 
" style="fill:none;stroke:#000000;stroke-dasharray:0.7,1.155;stroke-dashoffset:0;stroke-width:0.7;"/>
     </g>
     <g id="line2d_24">
      <g>
       <use style="stroke:#000000;stroke-width:0.8;" x="71.357402" xlink:href="#m7138e9a0c6" y="186.576362"/>
      </g>
     </g>
     <g id="text_13">
      <!-- −0.75 -->
      <g transform="translate(33.712089 190.37558)scale(0.1 -0.1)">
       <use xlink:href="#DejaVuSans-8722"/>
       <use x="83.789062" xlink:href="#DejaVuSans-48"/>
       <use x="147.412109" xlink:href="#DejaVuSans-46"/>
       <use x="179.199219" xlink:href="#DejaVuSans-55"/>
       <use x="242.822266" xlink:href="#DejaVuSans-53"/>
      </g>
     </g>
    </g>
    <g id="ytick_5">
     <g id="line2d_25">
      <path clip-path="url(#pee62000d4e)" d="M 71.357402 161.703355 
L 415.388976 161.703355 
" style="fill:none;stroke:#000000;stroke-dasharray:0.7,1.155;stroke-dashoffset:0;stroke-width:0.7;"/>
     </g>
     <g id="line2d_26">
      <g>
       <use style="stroke:#000000;stroke-width:0.8;" x="71.357402" xlink:href="#m7138e9a0c6" y="161.703355"/>
      </g>
     </g>
     <g id="text_14">
      <!-- −0.50 -->
      <g transform="translate(33.712089 165.502573)scale(0.1 -0.1)">
       <use xlink:href="#DejaVuSans-8722"/>
       <use x="83.789062" xlink:href="#DejaVuSans-48"/>
       <use x="147.412109" xlink:href="#DejaVuSans-46"/>
       <use x="179.199219" xlink:href="#DejaVuSans-53"/>
       <use x="242.822266" xlink:href="#DejaVuSans-48"/>
      </g>
     </g>
    </g>
    <g id="ytick_6">
     <g id="line2d_27">
      <path clip-path="url(#pee62000d4e)" d="M 71.357402 136.830348 
L 415.388976 136.830348 
" style="fill:none;stroke:#000000;stroke-dasharray:0.7,1.155;stroke-dashoffset:0;stroke-width:0.7;"/>
     </g>
     <g id="line2d_28">
      <g>
       <use style="stroke:#000000;stroke-width:0.8;" x="71.357402" xlink:href="#m7138e9a0c6" y="136.830348"/>
      </g>
     </g>
     <g id="text_15">
      <!-- −0.25 -->
      <g transform="translate(33.712089 140.629566)scale(0.1 -0.1)">
       <use xlink:href="#DejaVuSans-8722"/>
       <use x="83.789062" xlink:href="#DejaVuSans-48"/>
       <use x="147.412109" xlink:href="#DejaVuSans-46"/>
       <use x="179.199219" xlink:href="#DejaVuSans-50"/>
       <use x="242.822266" xlink:href="#DejaVuSans-53"/>
      </g>
     </g>
    </g>
    <g id="ytick_7">
     <g id="line2d_29">
      <path clip-path="url(#pee62000d4e)" d="M 71.357402 111.957341 
L 415.388976 111.957341 
" style="fill:none;stroke:#000000;stroke-dasharray:0.7,1.155;stroke-dashoffset:0;stroke-width:0.7;"/>
     </g>
     <g id="line2d_30">
      <g>
       <use style="stroke:#000000;stroke-width:0.8;" x="71.357402" xlink:href="#m7138e9a0c6" y="111.957341"/>
      </g>
     </g>
     <g id="text_16">
      <!-- 0.00 -->
      <g transform="translate(42.091777 115.756559)scale(0.1 -0.1)">
       <use xlink:href="#DejaVuSans-48"/>
       <use x="63.623047" xlink:href="#DejaVuSans-46"/>
       <use x="95.410156" xlink:href="#DejaVuSans-48"/>
       <use x="159.033203" xlink:href="#DejaVuSans-48"/>
      </g>
     </g>
    </g>
    <g id="ytick_8">
     <g id="line2d_31">
      <path clip-path="url(#pee62000d4e)" d="M 71.357402 87.084334 
L 415.388976 87.084334 
" style="fill:none;stroke:#000000;stroke-dasharray:0.7,1.155;stroke-dashoffset:0;stroke-width:0.7;"/>
     </g>
     <g id="line2d_32">
      <g>
       <use style="stroke:#000000;stroke-width:0.8;" x="71.357402" xlink:href="#m7138e9a0c6" y="87.084334"/>
      </g>
     </g>
     <g id="text_17">
      <!-- 0.25 -->
      <g transform="translate(42.091777 90.883552)scale(0.1 -0.1)">
       <use xlink:href="#DejaVuSans-48"/>
       <use x="63.623047" xlink:href="#DejaVuSans-46"/>
       <use x="95.410156" xlink:href="#DejaVuSans-50"/>
       <use x="159.033203" xlink:href="#DejaVuSans-53"/>
      </g>
     </g>
    </g>
    <g id="ytick_9">
     <g id="line2d_33">
      <path clip-path="url(#pee62000d4e)" d="M 71.357402 62.211327 
L 415.388976 62.211327 
" style="fill:none;stroke:#000000;stroke-dasharray:0.7,1.155;stroke-dashoffset:0;stroke-width:0.7;"/>
     </g>
     <g id="line2d_34">
      <g>
       <use style="stroke:#000000;stroke-width:0.8;" x="71.357402" xlink:href="#m7138e9a0c6" y="62.211327"/>
      </g>
     </g>
     <g id="text_18">
      <!-- 0.50 -->
      <g transform="translate(42.091777 66.010545)scale(0.1 -0.1)">
       <use xlink:href="#DejaVuSans-48"/>
       <use x="63.623047" xlink:href="#DejaVuSans-46"/>
       <use x="95.410156" xlink:href="#DejaVuSans-53"/>
       <use x="159.033203" xlink:href="#DejaVuSans-48"/>
      </g>
     </g>
    </g>
    <g id="text_19">
     <!-- Valor -->
     <defs>
      <path d="M 28.609375 0 
L 0.78125 72.90625 
L 11.078125 72.90625 
L 34.1875 11.53125 
L 57.328125 72.90625 
L 67.578125 72.90625 
L 39.796875 0 
z
" id="DejaVuSans-86"/>
      <path d="M 9.421875 75.984375 
L 18.40625 75.984375 
L 18.40625 0 
L 9.421875 0 
z
" id="DejaVuSans-108"/>
     </defs>
     <g transform="translate(27.632402 166.000057)rotate(-90)scale(0.1 -0.1)">
      <use xlink:href="#DejaVuSans-86"/>
      <use x="60.658203" xlink:href="#DejaVuSans-97"/>
      <use x="121.9375" xlink:href="#DejaVuSans-108"/>
      <use x="149.720703" xlink:href="#DejaVuSans-111"/>
      <use x="210.902344" xlink:href="#DejaVuSans-114"/>
     </g>
    </g>
   </g>
   <g id="line2d_35">
    <path clip-path="url(#pee62000d4e)" d="M 71.357402 102.174542 
L 244.019056 102.174542 
L 244.019056 103.221299 
L 415.388976 103.221299 
L 415.388976 103.221299 
" style="fill:none;stroke:#0000ff;stroke-dasharray:3.7,1.6;stroke-dashoffset:0;"/>
   </g>
   <g id="line2d_36">
    <path clip-path="url(#pee62000d4e)" d="M 71.357402 111.957341 
L 71.787979 111.957341 
L 71.787979 102.226068 
L 72.649135 102.219789 
L 72.649135 102.114373 
L 76.524334 102.015966 
L 76.524334 101.998108 
L 80.399533 102.052672 
L 80.399533 102.14568 
L 98.053218 102.255028 
L 98.053218 102.263036 
L 102.789573 102.160526 
L 102.789573 102.136083 
L 106.234195 102.148102 
L 106.234195 102.344231 
L 110.539971 102.322847 
L 110.539971 102.180664 
L 132.068856 102.121364 
L 132.068856 102.028864 
L 136.805211 102.039792 
L 136.805211 102.237983 
L 154.028318 102.147068 
L 154.028318 102.118412 
L 157.903517 102.14992 
L 157.903517 102.281613 
L 171.251426 102.210279 
L 171.251426 102.117427 
L 179.432402 102.104191 
L 179.432402 102.330317 
L 196.65551 102.27882 
L 196.65551 102.165515 
L 206.989374 102.064347 
L 206.989374 102.040982 
L 226.795948 102.131958 
L 226.795948 102.211924 
L 244.019056 102.295678 
L 244.019056 102.912249 
L 250.047143 103.012407 
L 250.047143 103.04553 
L 259.519852 103.147781 
L 259.519852 103.165547 
L 266.839673 103.275831 
L 266.839673 103.294191 
L 274.159494 103.250652 
L 274.159494 103.41313 
L 278.465271 103.402509 
L 278.465271 103.272354 
L 293.104912 103.173971 
L 293.104912 103.151317 
L 300.424733 103.258916 
L 300.424733 103.262919 
L 304.73051 103.210488 
L 304.73051 103.064819 
L 321.52304 103.168906 
L 321.52304 103.262162 
L 327.981705 103.365177 
L 327.981705 103.375992 
L 334.440371 103.284499 
L 334.440371 103.260027 
L 339.176725 103.218855 
L 339.176725 103.129168 
L 360.70561 103.113405 
L 360.70561 103.278702 
L 373.62294 103.234718 
L 373.62294 103.15639 
L 395.151825 103.181448 
L 395.151825 103.270808 
L 415.388976 103.339246 
L 415.388976 103.339688 
" style="fill:none;stroke:#0000ff;stroke-linecap:square;"/>
   </g>
   <g id="line2d_37">
    <path clip-path="url(#pee62000d4e)" d="M 71.357402 104.218969 
L 244.019056 104.218969 
L 244.019056 104.740037 
L 415.388976 104.740037 
L 415.388976 104.740037 
" style="fill:none;stroke:#ffa500;stroke-dasharray:3.7,1.6;stroke-dashoffset:0;"/>
   </g>
   <g id="line2d_38">
    <path clip-path="url(#pee62000d4e)" d="M 71.357402 111.957341 
L 72.218557 111.957341 
L 72.218557 91.320562 
L 72.649135 91.320562 
L 72.649135 99.642663 
L 73.079712 99.642663 
L 73.079712 102.881146 
L 73.51029 102.881146 
L 73.51029 103.521589 
L 73.940868 103.521589 
L 73.940868 103.746354 
L 74.802023 103.841377 
L 74.802023 103.903502 
L 75.232601 103.903502 
L 75.232601 104.049048 
L 76.524334 104.131767 
L 76.524334 104.399353 
L 83.844155 104.293836 
L 83.844155 104.284952 
L 86.858198 104.215566 
L 86.858198 104.172165 
L 96.330908 104.063892 
L 96.330908 104.037636 
L 98.053218 104.02303 
L 98.053218 104.250178 
L 101.928418 104.252382 
L 101.928418 104.395782 
L 106.234195 104.332682 
L 106.234195 104.175596 
L 110.970549 104.285965 
L 110.970549 104.332276 
L 112.69286 104.234045 
L 112.69286 104.200299 
L 114.845748 104.138025 
L 114.845748 104.086454 
L 115.276326 104.086454 
L 115.276326 104.322365 
L 128.193657 104.272431 
L 128.193657 104.17675 
L 132.499434 104.240744 
L 132.499434 104.330846 
L 134.221744 104.409922 
L 134.221744 104.45345 
L 136.805211 104.416404 
L 136.805211 104.186209 
L 145.416764 104.212905 
L 145.416764 104.068467 
L 156.181207 104.145348 
L 156.181207 104.195252 
L 172.112581 104.303173 
L 172.112581 104.307098 
L 175.557203 104.24687 
L 175.557203 104.189576 
L 179.432402 104.122483 
L 179.432402 103.855654 
L 184.168757 103.857884 
L 184.168757 103.97259 
L 188.474533 104.053871 
L 188.474533 104.165144 
L 190.627422 104.196729 
L 190.627422 104.286023 
L 201.391864 104.329482 
L 201.391864 104.412219 
L 206.128219 104.343221 
L 206.128219 104.244056 
L 223.351326 104.177334 
L 223.351326 103.941957 
L 228.948836 104.037932 
L 228.948836 104.093044 
L 236.268657 104.035591 
L 236.268657 104.215026 
L 240.574434 104.134573 
L 240.574434 104.088435 
L 244.019056 104.084871 
L 244.019056 103.615093 
L 244.449633 103.615093 
L 244.449633 104.196312 
L 247.894255 104.266143 
L 247.894255 104.347456 
L 248.75541 104.443225 
L 248.75541 104.522946 
L 250.908299 104.568016 
L 250.908299 104.641076 
L 253.061187 104.713325 
L 253.061187 104.819817 
L 265.54794 104.776571 
L 265.54794 104.677918 
L 269.423139 104.788837 
L 269.423139 104.795304 
L 274.159494 104.741582 
L 274.159494 104.553569 
L 278.895848 104.656256 
L 278.895848 104.720653 
L 291.813179 104.667258 
L 291.813179 104.841886 
L 296.549534 104.919883 
L 296.549534 104.960815 
L 301.716466 104.860668 
L 301.716466 104.842155 
L 302.577621 104.789202 
L 302.577621 104.726582 
L 304.73051 104.72218 
L 304.73051 104.842703 
L 309.036287 104.812497 
L 309.036287 104.967347 
L 317.647841 104.942652 
L 317.647841 104.849832 
L 324.106506 104.745385 
L 324.106506 104.732876 
L 326.259394 104.695524 
L 326.259394 104.584374 
L 330.565171 104.636119 
L 330.565171 104.719412 
L 339.607303 104.803154 
L 339.607303 104.874018 
L 346.065968 104.795514 
L 346.065968 104.753171 
L 353.816367 104.858773 
L 353.816367 104.870812 
L 360.70561 104.87584 
L 360.70561 104.679477 
L 361.136187 104.679477 
L 361.136187 104.837761 
L 389.123737 104.757495 
L 389.123737 104.724665 
L 395.151825 104.625236 
L 395.151825 104.519623 
L 396.01298 104.625102 
L 396.01298 104.636789 
L 398.165869 104.70064 
L 398.165869 104.755282 
L 408.499733 104.724124 
L 408.499733 104.872792 
L 412.374933 104.800575 
L 412.374933 104.739235 
L 415.388976 104.698709 
L 415.388976 104.71314 
" style="fill:none;stroke:#ffa500;stroke-linecap:square;"/>
   </g>
   <g id="line2d_39">
    <path clip-path="url(#pee62000d4e)" d="M 71.357402 243.334477 
L 244.019056 243.334477 
L 244.019056 250.921645 
L 415.388976 250.921645 
L 415.388976 250.921645 
" style="fill:none;stroke:#008000;stroke-dasharray:3.7,1.6;stroke-dashoffset:0;"/>
   </g>
   <g id="line2d_40">
    <path clip-path="url(#pee62000d4e)" d="M 71.357402 111.957341 
L 72.218557 111.945128 
L 72.218557 113.98986 
L 72.649135 113.98986 
L 72.649135 199.197499 
L 73.079712 199.197499 
L 73.079712 232.768685 
L 73.51029 232.768685 
L 73.51029 238.504807 
L 73.940868 238.504807 
L 73.940868 240.288115 
L 74.371445 240.288115 
L 74.371445 240.973435 
L 74.802023 240.973435 
L 74.802023 241.387688 
L 75.232601 241.387688 
L 75.232601 242.294902 
L 75.663178 242.294902 
L 75.663178 242.45185 
L 76.524334 242.511973 
L 76.524334 243.104187 
L 76.954912 243.104187 
L 76.954912 243.841384 
L 77.816067 243.769655 
L 77.816067 244.057637 
L 82.552422 243.967287 
L 82.552422 243.803687 
L 83.413577 243.762922 
L 83.413577 243.617579 
L 85.135888 243.624754 
L 85.135888 243.463149 
L 85.566465 243.463149 
L 85.566465 243.338088 
L 85.997043 243.338088 
L 85.997043 243.546009 
L 86.858198 243.457129 
L 86.858198 243.228876 
L 89.872242 243.237381 
L 89.872242 243.343602 
L 90.30282 243.343602 
L 90.30282 243.176122 
L 96.330908 243.138809 
L 96.330908 243.025558 
L 98.053218 243.077209 
L 98.053218 243.649542 
L 101.49784 243.627591 
L 101.49784 243.775295 
L 102.358995 243.862159 
L 102.358995 243.616576 
L 102.789573 243.616576 
L 102.789573 243.313295 
L 104.081306 243.396338 
L 104.081306 243.503021 
L 104.942461 243.606125 
L 104.942461 243.650183 
L 108.387083 243.717282 
L 108.387083 243.874394 
L 111.401127 243.970676 
L 111.401127 244.113604 
L 111.831704 244.113604 
L 111.831704 243.511993 
L 112.262282 243.511993 
L 112.262282 243.368646 
L 112.69286 243.368646 
L 112.69286 243.190002 
L 113.123438 243.190002 
L 113.123438 242.930482 
L 115.276326 242.92351 
L 115.276326 243.521505 
L 116.137481 243.564306 
L 116.137481 243.693718 
L 116.568059 243.693718 
L 116.568059 243.562256 
L 119.582103 243.66399 
L 119.582103 243.704102 
L 121.734991 243.642507 
L 121.734991 243.330511 
L 122.596147 243.266733 
L 122.596147 243.174812 
L 124.318458 243.182259 
L 124.318458 243.335556 
L 128.193657 243.237996 
L 128.193657 243.006945 
L 129.054812 243.040417 
L 129.054812 242.851764 
L 131.207701 242.881754 
L 131.207701 243.051248 
L 131.638278 243.051248 
L 131.638278 242.921784 
L 132.499434 242.894688 
L 132.499434 243.12082 
L 132.930011 243.12082 
L 132.930011 242.984294 
L 133.360589 242.984294 
L 133.360589 243.131323 
L 133.791167 243.131323 
L 133.791167 243.356792 
L 134.221744 243.356792 
L 134.221744 243.565413 
L 135.944055 243.513628 
L 135.944055 243.443359 
L 138.958099 243.376802 
L 138.958099 243.258841 
L 139.388677 243.258841 
L 139.388677 243.104526 
L 141.541565 243.152633 
L 141.541565 243.251065 
L 142.402721 243.226203 
L 142.402721 243.051914 
L 142.833298 243.051914 
L 142.833298 243.243869 
L 144.555609 243.313022 
L 144.555609 243.373284 
L 145.416764 243.392704 
L 145.416764 243.045173 
L 146.27792 243.026945 
L 146.27792 242.828474 
L 147.139075 242.814347 
L 147.139075 243.095494 
L 147.569653 243.095494 
L 147.569653 242.83147 
L 151.444852 242.846338 
L 151.444852 242.634228 
L 155.320051 242.68015 
L 155.320051 242.879864 
L 155.750629 242.879864 
L 155.750629 243.00191 
L 156.181207 243.00191 
L 156.181207 243.267249 
L 156.611784 243.267249 
L 156.611784 243.387624 
L 157.47294 243.48832 
L 157.47294 243.590369 
L 159.19525 243.533683 
L 159.19525 243.390308 
L 159.625828 243.390308 
L 159.625828 243.701718 
L 160.056406 243.701718 
L 160.056406 243.534623 
L 161.778717 243.487428 
L 161.778717 243.364257 
L 162.639872 243.410813 
L 162.639872 243.494333 
L 164.362183 243.434439 
L 164.362183 243.32633 
L 168.237382 243.401907 
L 168.237382 243.592254 
L 169.098537 243.502906 
L 169.098537 243.373646 
L 172.112581 243.36492 
L 172.112581 243.581521 
L 172.543159 243.581521 
L 172.543159 243.286473 
L 172.973737 243.286473 
L 172.973737 243.113177 
L 175.557203 243.120612 
L 175.557203 242.976413 
L 176.418358 242.99022 
L 176.418358 242.760111 
L 176.848936 242.760111 
L 176.848936 242.606411 
L 179.001824 242.587549 
L 179.001824 242.479754 
L 179.432402 242.479754 
L 179.432402 242.314169 
L 179.86298 242.314169 
L 179.86298 242.114421 
L 180.293557 242.114421 
L 180.293557 242.241702 
L 180.724135 242.241702 
L 180.724135 242.503116 
L 181.58529 242.483757 
L 181.58529 242.36302 
L 182.446446 242.407963 
L 182.446446 242.60224 
L 184.168757 242.603443 
L 184.168757 242.892023 
L 185.029912 242.838062 
L 185.029912 242.75055 
L 185.46049 242.75055 
L 185.46049 242.944559 
L 186.321645 243.051829 
L 186.321645 243.07014 
L 188.043956 243.155793 
L 188.043956 243.225318 
L 188.905111 243.289879 
L 188.905111 243.481621 
L 189.335689 243.481621 
L 189.335689 243.615586 
L 189.766266 243.615586 
L 189.766266 243.324985 
L 190.627422 243.264307 
L 190.627422 243.745721 
L 191.058 243.745721 
L 191.058 243.961731 
L 192.78031 244.024756 
L 192.78031 243.766204 
L 197.947243 243.83634 
L 197.947243 243.970202 
L 198.808398 243.932929 
L 198.808398 243.815729 
L 199.238976 243.815729 
L 199.238976 243.549657 
L 199.669553 243.549657 
L 199.669553 243.720421 
L 201.822442 243.730897 
L 201.822442 243.530442 
L 203.114175 243.633503 
L 203.114175 243.799504 
L 204.405908 243.725097 
L 204.405908 243.676089 
L 206.128219 243.720542 
L 206.128219 243.48026 
L 206.558796 243.48026 
L 206.558796 243.3426 
L 206.989374 243.3426 
L 206.989374 242.892259 
L 207.419952 242.892259 
L 207.419952 243.231233 
L 209.142263 243.321562 
L 209.142263 243.381702 
L 210.864573 243.361869 
L 210.864573 243.645593 
L 211.295151 243.645593 
L 211.295151 243.264763 
L 211.725729 243.264763 
L 211.725729 243.442212 
L 214.739773 243.509287 
L 214.739773 243.264744 
L 215.17035 243.264744 
L 215.17035 243.098177 
L 215.600928 243.098177 
L 215.600928 243.378373 
L 216.462083 243.344844 
L 216.462083 243.517489 
L 216.892661 243.517489 
L 216.892661 243.403151 
L 219.045549 243.406643 
L 219.045549 243.527644 
L 219.476127 243.527644 
L 219.476127 243.156473 
L 219.906705 243.156473 
L 219.906705 242.951026 
L 220.337283 242.951026 
L 220.337283 243.138218 
L 221.629016 243.147418 
L 221.629016 243.007471 
L 223.351326 243.011252 
L 223.351326 242.422338 
L 223.781904 242.422338 
L 223.781904 242.792961 
L 224.212482 242.792961 
L 224.212482 242.526756 
L 224.643059 242.526756 
L 224.643059 242.377128 
L 225.504215 242.381621 
L 225.504215 242.49879 
L 227.226526 242.514589 
L 227.226526 242.82258 
L 227.657103 242.82258 
L 227.657103 242.602822 
L 228.087681 242.602822 
L 228.087681 242.738548 
L 228.948836 242.77564 
L 228.948836 243.042575 
L 231.96288 242.97371 
L 231.96288 242.896617 
L 233.685191 242.882352 
L 233.685191 243.040615 
L 234.115769 243.040615 
L 234.115769 242.897666 
L 234.546346 242.897666 
L 234.546346 242.778339 
L 236.268657 242.819107 
L 236.268657 243.272731 
L 238.421546 243.167736 
L 238.421546 243.160845 
L 241.005012 243.095927 
L 241.005012 243.020532 
L 241.435589 243.020532 
L 241.435589 243.415931 
L 241.866167 243.415931 
L 241.866167 243.236863 
L 242.296745 243.236863 
L 242.296745 243.120471 
L 244.019056 243.128177 
L 244.019056 243.43083 
L 244.449633 243.43083 
L 244.449633 244.924692 
L 244.880211 244.924692 
L 244.880211 245.09741 
L 245.310789 245.09741 
L 245.310789 245.824521 
L 245.741366 245.824521 
L 245.741366 246.379793 
L 247.463677 246.393597 
L 247.463677 246.624344 
L 247.894255 246.624344 
L 247.894255 247.118618 
L 248.324832 247.118618 
L 248.324832 247.634948 
L 249.185988 247.691048 
L 249.185988 247.507017 
L 249.616565 247.507017 
L 249.616565 248.377178 
L 250.047143 248.377178 
L 250.047143 249.005005 
L 250.477721 249.005005 
L 250.477721 249.471492 
L 250.908299 249.471492 
L 250.908299 249.8582 
L 251.769454 249.943536 
L 251.769454 250.174816 
L 253.061187 250.236621 
L 253.061187 250.478728 
L 255.214075 250.449874 
L 255.214075 250.358377 
L 258.658697 250.338492 
L 258.658697 250.495177 
L 259.519852 250.423596 
L 259.519852 250.898316 
L 260.811585 250.972288 
L 260.811585 250.710046 
L 262.103319 250.665242 
L 262.103319 250.997554 
L 262.533896 250.997554 
L 262.533896 251.147984 
L 262.964474 251.147984 
L 262.964474 250.913028 
L 263.395052 250.913028 
L 263.395052 250.758518 
L 263.825629 250.758518 
L 263.825629 250.646989 
L 265.54794 250.538223 
L 265.54794 250.49389 
L 266.839673 250.412141 
L 266.839673 250.705046 
L 267.270251 250.705046 
L 267.270251 251.229642 
L 267.700828 251.229642 
L 267.700828 250.998486 
L 268.131406 250.998486 
L 268.131406 251.294218 
L 270.714872 251.330755 
L 270.714872 251.064047 
L 271.576028 251.027564 
L 271.576028 250.830328 
L 275.020649 250.922528 
L 275.020649 250.959916 
L 275.881805 250.983742 
L 275.881805 250.815143 
L 276.312382 250.815143 
L 276.312382 250.609709 
L 277.173538 250.670406 
L 277.173538 250.802919 
L 278.465271 250.723036 
L 278.465271 250.682052 
L 278.895848 250.682052 
L 278.895848 250.829614 
L 279.757004 250.880082 
L 279.757004 250.960695 
L 282.34047 250.900025 
L 282.34047 250.789225 
L 282.771048 250.789225 
L 282.771048 250.946703 
L 285.354514 251.023356 
L 285.354514 251.213638 
L 286.215669 251.196908 
L 286.215669 251.082495 
L 288.368558 251.052847 
L 288.368558 250.814149 
L 290.521446 250.852595 
L 290.521446 251.02206 
L 292.243757 251.120096 
L 292.243757 251.208702 
L 292.674335 251.208702 
L 292.674335 251.328408 
L 293.104912 251.328408 
L 293.104912 250.941997 
L 293.53549 250.941997 
L 293.53549 251.365353 
L 293.966068 251.365353 
L 293.966068 251.509007 
L 296.549534 251.481693 
L 296.549534 251.384653 
L 297.841267 251.488632 
L 297.841267 251.534961 
L 299.133 251.609946 
L 299.133 251.657886 
L 299.563578 251.657886 
L 299.563578 251.791344 
L 300.424733 251.727992 
L 300.424733 251.617077 
L 300.855311 251.617077 
L 300.855311 251.48955 
L 301.285888 251.48955 
L 301.285888 251.295743 
L 301.716466 251.295743 
L 301.716466 251.178713 
L 302.147044 251.178713 
L 302.147044 250.899679 
L 302.577621 250.899679 
L 302.577621 250.611924 
L 305.161088 250.559226 
L 305.161088 250.42179 
L 306.022243 250.411771 
L 306.022243 250.676414 
L 306.883398 250.603458 
L 306.883398 250.43929 
L 309.036287 250.50255 
L 309.036287 250.834909 
L 309.466864 250.834909 
L 309.466864 251.124237 
L 309.897442 251.124237 
L 309.897442 250.760173 
L 310.32802 250.760173 
L 310.32802 251.067547 
L 311.189175 251.172614 
L 311.189175 251.223841 
L 311.619753 251.223841 
L 311.619753 251.000555 
L 312.480908 251.039824 
L 312.480908 251.111964 
L 314.203219 251.106421 
L 314.203219 251.390401 
L 315.064374 251.405734 
L 315.064374 251.14294 
L 317.217263 251.242337 
L 317.217263 251.272828 
L 318.939574 251.379305 
L 318.939574 251.395397 
L 319.370151 251.395397 
L 319.370151 251.186436 
L 320.661884 251.26367 
L 320.661884 251.308411 
L 323.245351 251.298245 
L 323.245351 251.107834 
L 324.967661 251.098491 
L 324.967661 250.994969 
L 325.828817 250.952022 
L 325.828817 250.859761 
L 326.689972 250.796692 
L 326.689972 250.698874 
L 327.12055 250.698874 
L 327.12055 250.56255 
L 327.551127 250.56255 
L 327.551127 250.873354 
L 327.981705 250.873354 
L 327.981705 251.106589 
L 328.412283 251.106589 
L 328.412283 251.336723 
L 328.842861 251.336723 
L 328.842861 251.497434 
L 329.704016 251.411531 
L 329.704016 251.320359 
L 331.426327 251.24089 
L 331.426327 251.194893 
L 331.856904 251.194893 
L 331.856904 251.346589 
L 332.287482 251.346589 
L 332.287482 251.096005 
L 332.71806 251.096005 
L 332.71806 251.247862 
L 334.870948 251.303843 
L 334.870948 251.389988 
L 335.732104 251.288803 
L 335.732104 250.887897 
L 339.176725 250.791154 
L 339.176725 250.772418 
L 339.607303 250.772418 
L 339.607303 250.936178 
L 340.468458 250.949921 
L 340.468458 251.197895 
L 340.899036 251.197895 
L 340.899036 251.385729 
L 341.329614 251.385729 
L 341.329614 251.521633 
L 342.621347 251.565892 
L 342.621347 251.63736 
L 344.343657 251.721117 
L 344.343657 251.330451 
L 344.774235 251.330451 
L 344.774235 251.181324 
L 345.204813 251.181324 
L 345.204813 251.062884 
L 346.065968 251.085172 
L 346.065968 250.91765 
L 348.649434 250.968621 
L 348.649434 250.734772 
L 349.080012 250.734772 
L 349.080012 250.912684 
L 350.802323 250.860517 
L 350.802323 250.795373 
L 352.955211 250.754228 
L 352.955211 250.625587 
L 353.385789 250.625587 
L 353.385789 251.07321 
L 355.1081 251.110229 
L 355.1081 250.93718 
L 357.260988 250.893076 
L 357.260988 251.21832 
L 357.691566 251.21832 
L 357.691566 251.079795 
L 360.70561 251.020606 
L 360.70561 250.906686 
L 361.136187 250.906686 
L 361.136187 251.269788 
L 361.997343 251.26251 
L 361.997343 251.135483 
L 362.42792 251.135483 
L 362.42792 251.426908 
L 363.289076 251.38833 
L 363.289076 251.092742 
L 365.011387 250.986295 
L 365.011387 250.918353 
L 365.872542 250.941749 
L 365.872542 251.189511 
L 368.456008 251.220506 
L 368.456008 251.317178 
L 374.484096 251.231888 
L 374.484096 251.196766 
L 375.345251 251.122052 
L 375.345251 250.940942 
L 375.775829 250.940942 
L 375.775829 251.075044 
L 377.928717 251.026175 
L 377.928717 250.936333 
L 378.789873 251.022458 
L 378.789873 251.087403 
L 379.22045 251.087403 
L 379.22045 251.459755 
L 379.651028 251.459755 
L 379.651028 251.622693 
L 380.081606 251.622693 
L 380.081606 251.420111 
L 382.234494 251.439591 
L 382.234494 251.186235 
L 383.09565 251.152018 
L 383.09565 250.941489 
L 386.109693 250.959396 
L 386.109693 251.359096 
L 387.832004 251.294288 
L 387.832004 251.03801 
L 388.262582 251.03801 
L 388.262582 251.164818 
L 389.123737 251.193289 
L 389.123737 251.040013 
L 390.846048 251.019189 
L 390.846048 250.923842 
L 392.137781 250.834325 
L 392.137781 250.581644 
L 394.29067 250.524035 
L 394.29067 250.393236 
L 395.582403 250.307457 
L 395.582403 250.549364 
L 396.01298 250.549364 
L 396.01298 250.372284 
L 396.443558 250.372284 
L 396.443558 250.734359 
L 397.735291 250.795974 
L 397.735291 250.874441 
L 398.165869 250.874441 
L 398.165869 251.097757 
L 399.88818 251.078383 
L 399.88818 250.841191 
L 400.749335 250.737899 
L 400.749335 250.714837 
L 401.179913 250.714837 
L 401.179913 250.558344 
L 402.041068 250.641707 
L 402.041068 250.672502 
L 403.763379 250.720912 
L 403.763379 250.874714 
L 404.193956 250.874714 
L 404.193956 251.042893 
L 405.055112 251.152665 
L 405.055112 251.239452 
L 405.485689 251.239452 
L 405.485689 250.666217 
L 408.499733 250.628364 
L 408.499733 250.972928 
L 409.360889 250.956243 
L 409.360889 251.142795 
L 410.222044 251.241104 
L 410.222044 251.341047 
L 412.374933 251.340283 
L 412.374933 251.208165 
L 412.80551 251.208165 
L 412.80551 251.4303 
L 413.236088 251.4303 
L 413.236088 251.601042 
L 413.666666 251.601042 
L 413.666666 251.744461 
L 414.097243 251.744461 
L 414.097243 251.193323 
L 415.388976 251.28851 
L 415.388976 251.337277 
L 415.388976 251.337277 
" style="fill:none;stroke:#008000;stroke-linecap:square;"/>
   </g>
   <g id="line2d_41">
    <path clip-path="url(#pee62000d4e)" d="M 71.357402 62.551062 
L 244.019056 62.551062 
L 244.019056 55.692068 
L 415.388976 55.692068 
L 415.388976 55.692068 
" style="fill:none;stroke:#ff0000;stroke-dasharray:3.7,1.6;stroke-dashoffset:0;"/>
   </g>
   <g id="line2d_42">
    <path clip-path="url(#pee62000d4e)" d="M 71.357402 111.957341 
L 72.649135 111.931442 
L 72.649135 152.630733 
L 73.079712 152.630733 
L 73.079712 76.842549 
L 73.51029 76.842549 
L 73.51029 67.890193 
L 73.940868 67.890193 
L 73.940868 65.567629 
L 74.371445 65.567629 
L 74.371445 64.767224 
L 74.802023 64.767224 
L 74.802023 64.317718 
L 75.232601 64.317718 
L 75.232601 63.384386 
L 75.663178 63.384386 
L 75.663178 63.229973 
L 76.524334 63.172667 
L 76.524334 62.845485 
L 76.954912 62.845485 
L 76.954912 62.144514 
L 77.816067 62.207615 
L 77.816067 61.96357 
L 82.552422 62.009873 
L 82.552422 62.110694 
L 83.413577 62.097743 
L 83.413577 62.300595 
L 85.566465 62.395008 
L 85.566465 62.519874 
L 85.997043 62.519874 
L 85.997043 62.335135 
L 86.858198 62.410656 
L 86.858198 62.59882 
L 89.872242 62.594011 
L 89.872242 62.483059 
L 90.30282 62.483059 
L 90.30282 62.622126 
L 96.330908 62.673069 
L 96.330908 62.761581 
L 98.053218 62.720666 
L 98.053218 62.333266 
L 101.49784 62.328032 
L 101.49784 62.178788 
L 102.789573 62.243589 
L 102.789573 62.547284 
L 104.081306 62.474165 
L 104.081306 62.386266 
L 104.942461 62.303569 
L 104.942461 62.269213 
L 107.525928 62.159564 
L 107.525928 62.12692 
L 109.678816 62.033202 
L 109.678816 62.006806 
L 110.109394 62.006806 
L 110.109394 62.14542 
L 110.970549 62.060161 
L 110.970549 61.994459 
L 111.401127 61.994459 
L 111.401127 61.850466 
L 111.831704 61.850466 
L 111.831704 62.385128 
L 112.262282 62.385128 
L 112.262282 62.507082 
L 112.69286 62.507082 
L 112.69286 62.654487 
L 113.123438 62.654487 
L 113.123438 62.863109 
L 115.276326 62.864253 
L 115.276326 62.458878 
L 116.137481 62.413242 
L 116.137481 62.305469 
L 118.29037 62.346935 
L 118.29037 62.495783 
L 118.720948 62.495783 
L 118.720948 62.374618 
L 121.734991 62.386336 
L 121.734991 62.642868 
L 122.596147 62.694001 
L 122.596147 62.765763 
L 124.318458 62.759334 
L 124.318458 62.594451 
L 128.193657 62.691789 
L 128.193657 62.829674 
L 129.054812 62.795846 
L 129.054812 62.963869 
L 131.207701 62.94004 
L 131.207701 62.811896 
L 132.068856 62.905136 
L 132.068856 62.93112 
L 132.499434 62.93112 
L 132.499434 62.778429 
L 132.930011 62.778429 
L 132.930011 62.921163 
L 133.360589 62.921163 
L 133.360589 62.798908 
L 133.791167 62.798908 
L 133.791167 62.628465 
L 134.221744 62.628465 
L 134.221744 62.49493 
L 138.527521 62.594204 
L 138.527521 62.610096 
L 139.388677 62.707264 
L 139.388677 62.831147 
L 141.541565 62.795889 
L 141.541565 62.689907 
L 142.402721 62.7108 
L 142.402721 62.844771 
L 142.833298 62.844771 
L 142.833298 62.717337 
L 144.555609 62.631188 
L 144.555609 62.569598 
L 145.416764 62.55176 
L 145.416764 62.758496 
L 146.27792 62.776904 
L 146.27792 62.953717 
L 147.139075 62.96575 
L 147.139075 62.733493 
L 147.569653 62.733493 
L 147.569653 62.945716 
L 151.444852 62.949184 
L 151.444852 63.083609 
L 155.320051 63.039893 
L 155.320051 62.8629 
L 156.181207 62.759579 
L 156.181207 62.541782 
L 157.042362 62.445638 
L 157.042362 62.367454 
L 157.903517 62.291015 
L 157.903517 62.232711 
L 158.764673 62.26638 
L 158.764673 62.346697 
L 159.19525 62.346697 
L 159.19525 62.467293 
L 159.625828 62.467293 
L 159.625828 62.228384 
L 160.056406 62.228384 
L 160.056406 62.340126 
L 161.778717 62.4232 
L 161.778717 62.550489 
L 168.237382 62.532561 
L 168.237382 62.374828 
L 169.098537 62.442046 
L 169.098537 62.522071 
L 172.112581 62.54449 
L 172.112581 62.327686 
L 172.543159 62.327686 
L 172.543159 62.589608 
L 172.973737 62.589608 
L 172.973737 62.736939 
L 176.418358 62.815871 
L 176.418358 63.008115 
L 176.848936 63.008115 
L 176.848936 63.124736 
L 179.001824 63.167043 
L 179.001824 63.277417 
L 179.432402 63.277417 
L 179.432402 63.429647 
L 179.86298 63.429647 
L 179.86298 63.550392 
L 180.293557 63.550392 
L 180.293557 63.421101 
L 180.724135 63.421101 
L 180.724135 63.187567 
L 181.58529 63.204086 
L 181.58529 63.304022 
L 182.446446 63.267778 
L 182.446446 63.11536 
L 184.168757 63.115363 
L 184.168757 62.919859 
L 185.029912 62.976607 
L 185.029912 63.049493 
L 185.46049 63.049493 
L 185.46049 62.902958 
L 186.752223 62.832973 
L 186.752223 62.735785 
L 188.474533 62.650251 
L 188.474533 62.592695 
L 188.905111 62.592695 
L 188.905111 62.476972 
L 189.335689 62.476972 
L 189.335689 62.341259 
L 189.766266 62.341259 
L 189.766266 62.599138 
L 190.627422 62.650627 
L 190.627422 62.254407 
L 191.058 62.254407 
L 191.058 62.081499 
L 192.78031 62.030842 
L 192.78031 62.204153 
L 197.947243 62.122995 
L 197.947243 62.003749 
L 198.808398 62.035449 
L 198.808398 62.132068 
L 199.238976 62.132068 
L 199.238976 62.345601 
L 199.669553 62.345601 
L 199.669553 62.21232 
L 201.822442 62.20967 
L 201.822442 62.344655 
L 203.114175 62.257547 
L 203.114175 62.13318 
L 206.128219 62.178963 
L 206.128219 62.321944 
L 206.558796 62.321944 
L 206.558796 62.459191 
L 206.989374 62.459191 
L 206.989374 62.858521 
L 207.419952 62.858521 
L 207.419952 62.570662 
L 209.142263 62.504127 
L 209.142263 62.458845 
L 210.864573 62.485335 
L 210.864573 62.248164 
L 211.295151 62.248164 
L 211.295151 62.537747 
L 211.725729 62.537747 
L 211.725729 62.424463 
L 214.739773 62.400178 
L 214.739773 62.648248 
L 215.17035 62.648248 
L 215.17035 62.796869 
L 215.600928 62.796869 
L 215.600928 62.558023 
L 216.462083 62.585714 
L 216.462083 62.446832 
L 219.476127 62.398303 
L 219.476127 62.706689 
L 219.906705 62.706689 
L 219.906705 62.861418 
L 220.337283 62.861418 
L 220.337283 62.745063 
L 221.629016 62.713169 
L 221.629016 62.86818 
L 223.351326 62.860597 
L 223.351326 63.218818 
L 223.781904 63.218818 
L 223.781904 62.846945 
L 224.212482 62.846945 
L 224.212482 63.082343 
L 224.643059 63.082343 
L 224.643059 63.208977 
L 225.934793 63.111596 
L 225.934793 63.092336 
L 227.226526 63.094551 
L 227.226526 62.888069 
L 227.657103 62.888069 
L 227.657103 63.124803 
L 228.087681 63.124803 
L 228.087681 63.0107 
L 228.948836 62.982254 
L 228.948836 62.805087 
L 233.254613 62.897319 
L 233.254613 62.923056 
L 233.685191 62.923056 
L 233.685191 62.795699 
L 234.115769 62.795699 
L 234.115769 62.907581 
L 236.268657 62.970799 
L 236.268657 62.663376 
L 241.005012 62.731433 
L 241.005012 62.806938 
L 241.435589 62.806938 
L 241.435589 62.455251 
L 241.866167 62.455251 
L 241.866167 62.607503 
L 244.019056 62.694901 
L 244.019056 62.427163 
L 244.449633 62.427163 
L 244.449633 61.408037 
L 244.880211 61.408037 
L 244.880211 61.202145 
L 245.310789 61.202145 
L 245.310789 60.586914 
L 245.741366 60.586914 
L 245.741366 60.158709 
L 247.033099 60.18461 
L 247.033099 59.982274 
L 247.463677 59.982274 
L 247.463677 59.725191 
L 247.894255 59.725191 
L 247.894255 59.230294 
L 248.324832 59.230294 
L 248.324832 58.742567 
L 249.616565 58.79933 
L 249.616565 57.899852 
L 250.047143 57.899852 
L 250.047143 57.343381 
L 250.477721 57.343381 
L 250.477721 56.950821 
L 250.908299 56.950821 
L 250.908299 56.637323 
L 251.769454 56.570525 
L 251.769454 56.39658 
L 253.061187 56.351211 
L 253.061187 56.197295 
L 259.519852 56.179468 
L 259.519852 55.793757 
L 260.811585 55.735071 
L 260.811585 55.92105 
L 262.103319 55.946093 
L 262.103319 55.735859 
L 262.533896 55.735859 
L 262.533896 55.563446 
L 262.964474 55.563446 
L 262.964474 55.761262 
L 263.395052 55.761262 
L 263.395052 55.878475 
L 265.117362 55.949556 
L 265.117362 56.062086 
L 266.839673 56.145542 
L 266.839673 55.88222 
L 267.270251 55.88222 
L 267.270251 55.435074 
L 267.700828 55.435074 
L 267.700828 55.624558 
L 268.131406 55.624558 
L 268.131406 55.390625 
L 270.714872 55.361967 
L 270.714872 55.53568 
L 271.576028 55.576341 
L 271.576028 55.739829 
L 276.312382 55.773167 
L 276.312382 55.941935 
L 277.173538 55.893798 
L 277.173538 55.792899 
L 279.757004 55.730995 
L 279.757004 55.663743 
L 282.34047 55.72907 
L 282.34047 55.840063 
L 282.771048 55.840063 
L 282.771048 55.690236 
L 285.354514 55.610452 
L 285.354514 55.456185 
L 287.507402 55.535274 
L 287.507402 55.585781 
L 288.368558 55.556709 
L 288.368558 55.759659 
L 290.521446 55.805198 
L 290.521446 55.602337 
L 292.243757 55.524276 
L 292.243757 55.475961 
L 292.674335 55.475961 
L 292.674335 55.349358 
L 293.104912 55.349358 
L 293.104912 55.693817 
L 293.53549 55.693817 
L 293.53549 55.336887 
L 293.966068 55.336887 
L 293.966068 55.220571 
L 296.549534 55.239073 
L 296.549534 55.355598 
L 297.841267 55.272709 
L 297.841267 55.242079 
L 299.563578 55.156986 
L 299.563578 55.020564 
L 300.424733 55.077269 
L 300.424733 55.136739 
L 300.855311 55.136739 
L 300.855311 55.269958 
L 301.285888 55.269958 
L 301.285888 55.443414 
L 302.147044 55.542557 
L 302.147044 55.769972 
L 302.577621 55.769972 
L 302.577621 55.996338 
L 305.161088 56.044841 
L 305.161088 56.133648 
L 306.022243 56.144811 
L 306.022243 55.924295 
L 306.883398 55.978806 
L 306.883398 56.079225 
L 309.036287 56.019102 
L 309.036287 55.841194 
L 309.466864 55.841194 
L 309.466864 55.544665 
L 309.897442 55.544665 
L 309.897442 55.870382 
L 310.32802 55.870382 
L 310.32802 55.60892 
L 311.189175 55.522894 
L 311.189175 55.482417 
L 311.619753 55.482417 
L 311.619753 55.651782 
L 314.203219 55.580431 
L 314.203219 55.343199 
L 315.064374 55.331782 
L 315.064374 55.490376 
L 318.508996 55.404783 
L 318.508996 55.332795 
L 319.370151 55.318455 
L 319.370151 55.494506 
L 324.967661 55.488066 
L 324.967661 55.607051 
L 325.828817 55.650883 
L 325.828817 55.739346 
L 327.12055 55.847906 
L 327.12055 55.993034 
L 327.551127 55.993034 
L 327.551127 55.714606 
L 327.981705 55.714606 
L 327.981705 55.517543 
L 328.412283 55.517543 
L 328.412283 55.330745 
L 328.842861 55.330745 
L 328.842861 55.20503 
L 329.704016 55.269477 
L 329.704016 55.333654 
L 332.287482 55.315172 
L 332.287482 55.505302 
L 333.579215 55.405948 
L 333.579215 55.386292 
L 335.732104 55.40639 
L 335.732104 55.766619 
L 340.468458 55.732126 
L 340.468458 55.526332 
L 340.899036 55.526332 
L 340.899036 55.387454 
L 342.190769 55.30284 
L 342.190769 55.200449 
L 343.91308 55.168934 
L 343.91308 55.007207 
L 344.343657 55.007207 
L 344.343657 55.356841 
L 344.774235 55.356841 
L 344.774235 55.48375 
L 346.065968 55.563196 
L 346.065968 55.690358 
L 348.649434 55.671552 
L 348.649434 55.86658 
L 349.080012 55.86658 
L 349.080012 55.735091 
L 352.524634 55.840818 
L 352.524634 55.85054 
L 352.955211 55.85054 
L 352.955211 55.985515 
L 353.385789 55.985515 
L 353.385789 55.586519 
L 355.538677 55.686264 
L 355.538677 55.702492 
L 357.260988 55.760324 
L 357.260988 55.484038 
L 358.983299 55.59316 
L 358.983299 55.608103 
L 359.844454 55.567553 
L 359.844454 55.425576 
L 360.275032 55.425576 
L 360.275032 55.578484 
L 362.42792 55.596048 
L 362.42792 55.349599 
L 363.289076 55.380935 
L 363.289076 55.612509 
L 365.011387 55.692888 
L 365.011387 55.735927 
L 365.872542 55.708116 
L 365.872542 55.49743 
L 368.456008 55.437888 
L 368.456008 55.33967 
L 374.484096 55.419051 
L 374.484096 55.458468 
L 375.345251 55.5208 
L 375.345251 55.655867 
L 378.789873 55.58004 
L 378.789873 55.521879 
L 379.22045 55.521879 
L 379.22045 55.205192 
L 379.651028 55.205192 
L 379.651028 55.071868 
L 380.081606 55.071868 
L 380.081606 55.231694 
L 382.234494 55.222413 
L 382.234494 55.386808 
L 383.09565 55.426304 
L 383.09565 55.601931 
L 386.109693 55.618403 
L 386.109693 55.239399 
L 387.832004 55.279392 
L 387.832004 55.507238 
L 388.69316 55.400596 
L 388.69316 55.377587 
L 389.123737 55.377587 
L 389.123737 55.496994 
L 391.707203 55.528306 
L 391.707203 55.63889 
L 392.137781 55.63889 
L 392.137781 55.831426 
L 394.29067 55.880896 
L 394.29067 56.013738 
L 396.01298 55.955706 
L 396.01298 56.144949 
L 396.443558 56.144949 
L 396.443558 55.820667 
L 397.735291 55.768958 
L 397.735291 55.707571 
L 398.165869 55.707571 
L 398.165869 55.539925 
L 399.88818 55.557031 
L 399.88818 55.706181 
L 400.318757 55.706181 
L 400.318757 55.821812 
L 401.179913 55.841232 
L 401.179913 55.959835 
L 403.763379 55.869291 
L 403.763379 55.786369 
L 404.193956 55.786369 
L 404.193956 55.612381 
L 405.055112 55.51382 
L 405.055112 55.439904 
L 405.485689 55.439904 
L 405.485689 55.90976 
L 408.499733 55.935822 
L 408.499733 55.709918 
L 409.360889 55.729095 
L 409.360889 55.574122 
L 410.222044 55.501444 
L 410.222044 55.442182 
L 412.80551 55.511275 
L 412.80551 55.284095 
L 413.236088 55.284095 
L 413.236088 55.130907 
L 413.666666 55.130907 
L 413.666666 55.008678 
L 414.097243 55.008678 
L 414.097243 55.460781 
L 415.388976 55.386732 
L 415.388976 55.351914 
" style="fill:none;stroke:#ff0000;stroke-linecap:square;"/>
   </g>
   <g id="patch_3">
    <path d="M 71.357402 261.630551 
L 71.357402 45.168 
" style="fill:none;stroke:#000000;stroke-linecap:square;stroke-linejoin:miter;stroke-width:0.8;"/>
   </g>
   <g id="patch_4">
    <path d="M 415.388976 261.630551 
L 415.388976 45.168 
" style="fill:none;stroke:#000000;stroke-linecap:square;stroke-linejoin:miter;stroke-width:0.8;"/>
   </g>
   <g id="patch_5">
    <path d="M 71.357402 261.630551 
L 415.388976 261.630551 
" style="fill:none;stroke:#000000;stroke-linecap:square;stroke-linejoin:miter;stroke-width:0.8;"/>
   </g>
   <g id="patch_6">
    <path d="M 71.357402 45.168 
L 415.388976 45.168 
" style="fill:none;stroke:#000000;stroke-linecap:square;stroke-linejoin:miter;stroke-width:0.8;"/>
   </g>
   <g id="text_20">
    <!-- Evolução temporal dos coeficientes estimados -->
    <defs>
     <path d="M 9.8125 72.90625 
L 55.90625 72.90625 
L 55.90625 64.59375 
L 19.671875 64.59375 
L 19.671875 43.015625 
L 54.390625 43.015625 
L 54.390625 34.71875 
L 19.671875 34.71875 
L 19.671875 8.296875 
L 56.78125 8.296875 
L 56.78125 0 
L 9.8125 0 
z
" id="DejaVuSans-69"/>
     <path d="M 2.984375 54.6875 
L 12.5 54.6875 
L 29.59375 8.796875 
L 46.6875 54.6875 
L 56.203125 54.6875 
L 35.6875 0 
L 23.484375 0 
z
" id="DejaVuSans-118"/>
     <path d="M 8.5 21.578125 
L 8.5 54.6875 
L 17.484375 54.6875 
L 17.484375 21.921875 
Q 17.484375 14.15625 20.5 10.265625 
Q 23.53125 6.390625 29.59375 6.390625 
Q 36.859375 6.390625 41.078125 11.03125 
Q 45.3125 15.671875 45.3125 23.6875 
L 45.3125 54.6875 
L 54.296875 54.6875 
L 54.296875 0 
L 45.3125 0 
L 45.3125 8.40625 
Q 42.046875 3.421875 37.71875 1 
Q 33.40625 -1.421875 27.6875 -1.421875 
Q 18.265625 -1.421875 13.375 4.4375 
Q 8.5 10.296875 8.5 21.578125 
z
M 31.109375 56 
z
" id="DejaVuSans-117"/>
     <path d="M 48.78125 52.59375 
L 48.78125 44.1875 
Q 44.96875 46.296875 41.140625 47.34375 
Q 37.3125 48.390625 33.40625 48.390625 
Q 24.65625 48.390625 19.8125 42.84375 
Q 14.984375 37.3125 14.984375 27.296875 
Q 14.984375 17.28125 19.8125 11.734375 
Q 24.65625 6.203125 33.40625 6.203125 
Q 37.3125 6.203125 41.140625 7.25 
Q 44.96875 8.296875 48.78125 10.40625 
L 48.78125 2.09375 
Q 45.015625 0.34375 40.984375 -0.53125 
Q 36.96875 -1.421875 32.421875 -1.421875 
Q 20.0625 -1.421875 12.78125 6.34375 
Q 5.515625 14.109375 5.515625 27.296875 
Q 5.515625 40.671875 12.859375 48.328125 
Q 20.21875 56 33.015625 56 
Q 37.15625 56 41.109375 55.140625 
Q 45.0625 54.296875 48.78125 52.59375 
z
M 36.078125 0 
Q 38.765625 -3.03125 40.078125 -5.59375 
Q 41.40625 -8.15625 41.40625 -10.5 
Q 41.40625 -14.84375 38.46875 -17.0625 
Q 35.546875 -19.28125 29.78125 -19.28125 
Q 27.546875 -19.28125 25.421875 -18.984375 
Q 23.296875 -18.703125 21.1875 -18.109375 
L 21.1875 -11.71875 
Q 22.859375 -12.546875 24.65625 -12.90625 
Q 26.46875 -13.28125 28.765625 -13.28125 
Q 31.640625 -13.28125 33.109375 -12.109375 
Q 34.578125 -10.9375 34.578125 -8.6875 
Q 34.578125 -7.234375 33.515625 -5.109375 
Q 32.46875 -2.984375 30.28125 0 
z
" id="DejaVuSans-231"/>
     <path d="M 34.28125 27.484375 
Q 23.390625 27.484375 19.1875 25 
Q 14.984375 22.515625 14.984375 16.5 
Q 14.984375 11.71875 18.140625 8.90625 
Q 21.296875 6.109375 26.703125 6.109375 
Q 34.1875 6.109375 38.703125 11.40625 
Q 43.21875 16.703125 43.21875 25.484375 
L 43.21875 27.484375 
z
M 52.203125 31.203125 
L 52.203125 0 
L 43.21875 0 
L 43.21875 8.296875 
Q 40.140625 3.328125 35.546875 0.953125 
Q 30.953125 -1.421875 24.3125 -1.421875 
Q 15.921875 -1.421875 10.953125 3.296875 
Q 6 8.015625 6 15.921875 
Q 6 25.140625 12.171875 29.828125 
Q 18.359375 34.515625 30.609375 34.515625 
L 43.21875 34.515625 
L 43.21875 35.40625 
Q 43.21875 41.609375 39.140625 45 
Q 35.0625 48.390625 27.6875 48.390625 
Q 23 48.390625 18.546875 47.265625 
Q 14.109375 46.140625 10.015625 43.890625 
L 10.015625 52.203125 
Q 14.9375 54.109375 19.578125 55.046875 
Q 24.21875 56 28.609375 56 
Q 40.484375 56 46.34375 49.84375 
Q 52.203125 43.703125 52.203125 31.203125 
z
M 28.8125 66.890625 
L 26.03125 69.578125 
Q 24.953125 70.5625 24.140625 71.015625 
Q 23.34375 71.484375 22.703125 71.484375 
Q 20.84375 71.484375 19.96875 69.703125 
Q 19.09375 67.921875 19 63.921875 
L 12.890625 63.921875 
Q 12.984375 70.515625 15.46875 74.09375 
Q 17.96875 77.6875 22.40625 77.6875 
Q 24.265625 77.6875 25.828125 77 
Q 27.390625 76.3125 29.203125 74.703125 
L 31.984375 72.015625 
Q 33.0625 71.046875 33.859375 70.578125 
Q 34.671875 70.125 35.296875 70.125 
Q 37.15625 70.125 38.03125 71.90625 
Q 38.921875 73.6875 39.015625 77.6875 
L 45.125 77.6875 
Q 45.015625 71.09375 42.53125 67.5 
Q 40.046875 63.921875 35.59375 63.921875 
Q 33.734375 63.921875 32.171875 64.59375 
Q 30.609375 65.28125 28.8125 66.890625 
z
" id="DejaVuSans-227"/>
     <path id="DejaVuSans-32"/>
     <path d="M 56.203125 29.59375 
L 56.203125 25.203125 
L 14.890625 25.203125 
Q 15.484375 15.921875 20.484375 11.0625 
Q 25.484375 6.203125 34.421875 6.203125 
Q 39.59375 6.203125 44.453125 7.46875 
Q 49.3125 8.734375 54.109375 11.28125 
L 54.109375 2.78125 
Q 49.265625 0.734375 44.1875 -0.34375 
Q 39.109375 -1.421875 33.890625 -1.421875 
Q 20.796875 -1.421875 13.15625 6.1875 
Q 5.515625 13.8125 5.515625 26.8125 
Q 5.515625 40.234375 12.765625 48.109375 
Q 20.015625 56 32.328125 56 
Q 43.359375 56 49.78125 48.890625 
Q 56.203125 41.796875 56.203125 29.59375 
z
M 47.21875 32.234375 
Q 47.125 39.59375 43.09375 43.984375 
Q 39.0625 48.390625 32.421875 48.390625 
Q 24.90625 48.390625 20.390625 44.140625 
Q 15.875 39.890625 15.1875 32.171875 
z
" id="DejaVuSans-101"/>
     <path d="M 18.109375 8.203125 
L 18.109375 -20.796875 
L 9.078125 -20.796875 
L 9.078125 54.6875 
L 18.109375 54.6875 
L 18.109375 46.390625 
Q 20.953125 51.265625 25.265625 53.625 
Q 29.59375 56 35.59375 56 
Q 45.5625 56 51.78125 48.09375 
Q 58.015625 40.1875 58.015625 27.296875 
Q 58.015625 14.40625 51.78125 6.484375 
Q 45.5625 -1.421875 35.59375 -1.421875 
Q 29.59375 -1.421875 25.265625 0.953125 
Q 20.953125 3.328125 18.109375 8.203125 
z
M 48.6875 27.296875 
Q 48.6875 37.203125 44.609375 42.84375 
Q 40.53125 48.484375 33.40625 48.484375 
Q 26.265625 48.484375 22.1875 42.84375 
Q 18.109375 37.203125 18.109375 27.296875 
Q 18.109375 17.390625 22.1875 11.75 
Q 26.265625 6.109375 33.40625 6.109375 
Q 40.53125 6.109375 44.609375 11.75 
Q 48.6875 17.390625 48.6875 27.296875 
z
" id="DejaVuSans-112"/>
     <path d="M 45.40625 46.390625 
L 45.40625 75.984375 
L 54.390625 75.984375 
L 54.390625 0 
L 45.40625 0 
L 45.40625 8.203125 
Q 42.578125 3.328125 38.25 0.953125 
Q 33.9375 -1.421875 27.875 -1.421875 
Q 17.96875 -1.421875 11.734375 6.484375 
Q 5.515625 14.40625 5.515625 27.296875 
Q 5.515625 40.1875 11.734375 48.09375 
Q 17.96875 56 27.875 56 
Q 33.9375 56 38.25 53.625 
Q 42.578125 51.265625 45.40625 46.390625 
z
M 14.796875 27.296875 
Q 14.796875 17.390625 18.875 11.75 
Q 22.953125 6.109375 30.078125 6.109375 
Q 37.203125 6.109375 41.296875 11.75 
Q 45.40625 17.390625 45.40625 27.296875 
Q 45.40625 37.203125 41.296875 42.84375 
Q 37.203125 48.484375 30.078125 48.484375 
Q 22.953125 48.484375 18.875 42.84375 
Q 14.796875 37.203125 14.796875 27.296875 
z
" id="DejaVuSans-100"/>
     <path d="M 48.78125 52.59375 
L 48.78125 44.1875 
Q 44.96875 46.296875 41.140625 47.34375 
Q 37.3125 48.390625 33.40625 48.390625 
Q 24.65625 48.390625 19.8125 42.84375 
Q 14.984375 37.3125 14.984375 27.296875 
Q 14.984375 17.28125 19.8125 11.734375 
Q 24.65625 6.203125 33.40625 6.203125 
Q 37.3125 6.203125 41.140625 7.25 
Q 44.96875 8.296875 48.78125 10.40625 
L 48.78125 2.09375 
Q 45.015625 0.34375 40.984375 -0.53125 
Q 36.96875 -1.421875 32.421875 -1.421875 
Q 20.0625 -1.421875 12.78125 6.34375 
Q 5.515625 14.109375 5.515625 27.296875 
Q 5.515625 40.671875 12.859375 48.328125 
Q 20.21875 56 33.015625 56 
Q 37.15625 56 41.109375 55.140625 
Q 45.0625 54.296875 48.78125 52.59375 
z
" id="DejaVuSans-99"/>
     <path d="M 37.109375 75.984375 
L 37.109375 68.5 
L 28.515625 68.5 
Q 23.6875 68.5 21.796875 66.546875 
Q 19.921875 64.59375 19.921875 59.515625 
L 19.921875 54.6875 
L 34.71875 54.6875 
L 34.71875 47.703125 
L 19.921875 47.703125 
L 19.921875 0 
L 10.890625 0 
L 10.890625 47.703125 
L 2.296875 47.703125 
L 2.296875 54.6875 
L 10.890625 54.6875 
L 10.890625 58.5 
Q 10.890625 67.625 15.140625 71.796875 
Q 19.390625 75.984375 28.609375 75.984375 
z
" id="DejaVuSans-102"/>
     <path d="M 9.421875 54.6875 
L 18.40625 54.6875 
L 18.40625 0 
L 9.421875 0 
z
M 9.421875 75.984375 
L 18.40625 75.984375 
L 18.40625 64.59375 
L 9.421875 64.59375 
z
" id="DejaVuSans-105"/>
     <path d="M 54.890625 33.015625 
L 54.890625 0 
L 45.90625 0 
L 45.90625 32.71875 
Q 45.90625 40.484375 42.875 44.328125 
Q 39.84375 48.1875 33.796875 48.1875 
Q 26.515625 48.1875 22.3125 43.546875 
Q 18.109375 38.921875 18.109375 30.90625 
L 18.109375 0 
L 9.078125 0 
L 9.078125 54.6875 
L 18.109375 54.6875 
L 18.109375 46.1875 
Q 21.34375 51.125 25.703125 53.5625 
Q 30.078125 56 35.796875 56 
Q 45.21875 56 50.046875 50.171875 
Q 54.890625 44.34375 54.890625 33.015625 
z
" id="DejaVuSans-110"/>
    </defs>
    <g transform="translate(80.532408 23.488438)scale(0.14 -0.14)">
     <use xlink:href="#DejaVuSans-69"/>
     <use x="63.183594" xlink:href="#DejaVuSans-118"/>
     <use x="122.363281" xlink:href="#DejaVuSans-111"/>
     <use x="183.544922" xlink:href="#DejaVuSans-108"/>
     <use x="211.328125" xlink:href="#DejaVuSans-117"/>
     <use x="274.707031" xlink:href="#DejaVuSans-231"/>
     <use x="329.6875" xlink:href="#DejaVuSans-227"/>
     <use x="390.966797" xlink:href="#DejaVuSans-111"/>
     <use x="452.148438" xlink:href="#DejaVuSans-32"/>
     <use x="483.935547" xlink:href="#DejaVuSans-116"/>
     <use x="523.144531" xlink:href="#DejaVuSans-101"/>
     <use x="584.667969" xlink:href="#DejaVuSans-109"/>
     <use x="682.080078" xlink:href="#DejaVuSans-112"/>
     <use x="745.556641" xlink:href="#DejaVuSans-111"/>
     <use x="806.738281" xlink:href="#DejaVuSans-114"/>
     <use x="847.851562" xlink:href="#DejaVuSans-97"/>
     <use x="909.130859" xlink:href="#DejaVuSans-108"/>
     <use x="936.914062" xlink:href="#DejaVuSans-32"/>
     <use x="968.701172" xlink:href="#DejaVuSans-100"/>
     <use x="1032.177734" xlink:href="#DejaVuSans-111"/>
     <use x="1093.359375" xlink:href="#DejaVuSans-115"/>
     <use x="1145.458984" xlink:href="#DejaVuSans-32"/>
     <use x="1177.246094" xlink:href="#DejaVuSans-99"/>
     <use x="1232.226562" xlink:href="#DejaVuSans-111"/>
     <use x="1293.408203" xlink:href="#DejaVuSans-101"/>
     <use x="1354.931641" xlink:href="#DejaVuSans-102"/>
     <use x="1390.136719" xlink:href="#DejaVuSans-105"/>
     <use x="1417.919922" xlink:href="#DejaVuSans-99"/>
     <use x="1472.900391" xlink:href="#DejaVuSans-105"/>
     <use x="1500.683594" xlink:href="#DejaVuSans-101"/>
     <use x="1562.207031" xlink:href="#DejaVuSans-110"/>
     <use x="1625.585938" xlink:href="#DejaVuSans-116"/>
     <use x="1664.794922" xlink:href="#DejaVuSans-101"/>
     <use x="1726.318359" xlink:href="#DejaVuSans-115"/>
     <use x="1778.417969" xlink:href="#DejaVuSans-32"/>
     <use x="1810.205078" xlink:href="#DejaVuSans-101"/>
     <use x="1871.728516" xlink:href="#DejaVuSans-115"/>
     <use x="1923.828125" xlink:href="#DejaVuSans-116"/>
     <use x="1963.037109" xlink:href="#DejaVuSans-105"/>
     <use x="1990.820312" xlink:href="#DejaVuSans-109"/>
     <use x="2088.232422" xlink:href="#DejaVuSans-97"/>
     <use x="2149.511719" xlink:href="#DejaVuSans-100"/>
     <use x="2212.988281" xlink:href="#DejaVuSans-111"/>
     <use x="2274.169922" xlink:href="#DejaVuSans-115"/>
    </g>
    <!-- para MQR com fator de esquecimento ($\lambda$ = 0.9) -->
    <defs>
     <path d="M 9.8125 72.90625 
L 24.515625 72.90625 
L 43.109375 23.296875 
L 61.8125 72.90625 
L 76.515625 72.90625 
L 76.515625 0 
L 66.890625 0 
L 66.890625 64.015625 
L 48.09375 14.015625 
L 38.1875 14.015625 
L 19.390625 64.015625 
L 19.390625 0 
L 9.8125 0 
z
" id="DejaVuSans-77"/>
     <path d="M 39.40625 66.21875 
Q 28.65625 66.21875 22.328125 58.203125 
Q 16.015625 50.203125 16.015625 36.375 
Q 16.015625 22.609375 22.328125 14.59375 
Q 28.65625 6.59375 39.40625 6.59375 
Q 50.140625 6.59375 56.421875 14.59375 
Q 62.703125 22.609375 62.703125 36.375 
Q 62.703125 50.203125 56.421875 58.203125 
Q 50.140625 66.21875 39.40625 66.21875 
z
M 53.21875 1.3125 
L 66.21875 -12.890625 
L 54.296875 -12.890625 
L 43.5 -1.21875 
Q 41.890625 -1.3125 41.03125 -1.359375 
Q 40.1875 -1.421875 39.40625 -1.421875 
Q 24.03125 -1.421875 14.8125 8.859375 
Q 5.609375 19.140625 5.609375 36.375 
Q 5.609375 53.65625 14.8125 63.9375 
Q 24.03125 74.21875 39.40625 74.21875 
Q 54.734375 74.21875 63.90625 63.9375 
Q 73.09375 53.65625 73.09375 36.375 
Q 73.09375 23.6875 67.984375 14.640625 
Q 62.890625 5.609375 53.21875 1.3125 
z
" id="DejaVuSans-81"/>
     <path d="M 44.390625 34.1875 
Q 47.5625 33.109375 50.5625 29.59375 
Q 53.5625 26.078125 56.59375 19.921875 
L 66.609375 0 
L 56 0 
L 46.6875 18.703125 
Q 43.0625 26.03125 39.671875 28.421875 
Q 36.28125 30.8125 30.421875 30.8125 
L 19.671875 30.8125 
L 19.671875 0 
L 9.8125 0 
L 9.8125 72.90625 
L 32.078125 72.90625 
Q 44.578125 72.90625 50.734375 67.671875 
Q 56.890625 62.453125 56.890625 51.90625 
Q 56.890625 45.015625 53.6875 40.46875 
Q 50.484375 35.9375 44.390625 34.1875 
z
M 19.671875 64.796875 
L 19.671875 38.921875 
L 32.078125 38.921875 
Q 39.203125 38.921875 42.84375 42.21875 
Q 46.484375 45.515625 46.484375 51.90625 
Q 46.484375 58.296875 42.84375 61.546875 
Q 39.203125 64.796875 32.078125 64.796875 
z
" id="DejaVuSans-82"/>
     <path d="M 14.796875 27.296875 
Q 14.796875 17.390625 18.875 11.75 
Q 22.953125 6.109375 30.078125 6.109375 
Q 37.203125 6.109375 41.296875 11.75 
Q 45.40625 17.390625 45.40625 27.296875 
Q 45.40625 37.203125 41.296875 42.84375 
Q 37.203125 48.484375 30.078125 48.484375 
Q 22.953125 48.484375 18.875 42.84375 
Q 14.796875 37.203125 14.796875 27.296875 
z
M 45.40625 8.203125 
Q 42.578125 3.328125 38.25 0.953125 
Q 33.9375 -1.421875 27.875 -1.421875 
Q 17.96875 -1.421875 11.734375 6.484375 
Q 5.515625 14.40625 5.515625 27.296875 
Q 5.515625 40.1875 11.734375 48.09375 
Q 17.96875 56 27.875 56 
Q 33.9375 56 38.25 53.625 
Q 42.578125 51.265625 45.40625 46.390625 
L 45.40625 54.6875 
L 54.390625 54.6875 
L 54.390625 -20.796875 
L 45.40625 -20.796875 
z
" id="DejaVuSans-113"/>
     <path d="M 31 75.875 
Q 24.46875 64.65625 21.28125 53.65625 
Q 18.109375 42.671875 18.109375 31.390625 
Q 18.109375 20.125 21.3125 9.0625 
Q 24.515625 -2 31 -13.1875 
L 23.1875 -13.1875 
Q 15.875 -1.703125 12.234375 9.375 
Q 8.59375 20.453125 8.59375 31.390625 
Q 8.59375 42.28125 12.203125 53.3125 
Q 15.828125 64.359375 23.1875 75.875 
z
" id="DejaVuSans-40"/>
     <path d="M 36.71875 67.4375 
L 48.828125 0 
L 39.3125 0 
L 31.84375 40.4375 
L 5.125 0 
L -4.390625 0 
L 29.734375 52.4375 
L 28.03125 62.109375 
Q 26.953125 68.265625 21.734375 68.265625 
L 17.046875 68.265625 
L 18.5 75.984375 
L 24.21875 75.875 
Q 35.203125 75.734375 36.71875 67.4375 
z
" id="DejaVuSans-Oblique-955"/>
     <path d="M 10.59375 45.40625 
L 73.1875 45.40625 
L 73.1875 37.203125 
L 10.59375 37.203125 
z
M 10.59375 25.484375 
L 73.1875 25.484375 
L 73.1875 17.1875 
L 10.59375 17.1875 
z
" id="DejaVuSans-61"/>
     <path d="M 10.984375 1.515625 
L 10.984375 10.5 
Q 14.703125 8.734375 18.5 7.8125 
Q 22.3125 6.890625 25.984375 6.890625 
Q 35.75 6.890625 40.890625 13.453125 
Q 46.046875 20.015625 46.78125 33.40625 
Q 43.953125 29.203125 39.59375 26.953125 
Q 35.25 24.703125 29.984375 24.703125 
Q 19.046875 24.703125 12.671875 31.3125 
Q 6.296875 37.9375 6.296875 49.421875 
Q 6.296875 60.640625 12.9375 67.421875 
Q 19.578125 74.21875 30.609375 74.21875 
Q 43.265625 74.21875 49.921875 64.515625 
Q 56.59375 54.828125 56.59375 36.375 
Q 56.59375 19.140625 48.40625 8.859375 
Q 40.234375 -1.421875 26.421875 -1.421875 
Q 22.703125 -1.421875 18.890625 -0.6875 
Q 15.09375 0.046875 10.984375 1.515625 
z
M 30.609375 32.421875 
Q 37.25 32.421875 41.125 36.953125 
Q 45.015625 41.5 45.015625 49.421875 
Q 45.015625 57.28125 41.125 61.84375 
Q 37.25 66.40625 30.609375 66.40625 
Q 23.96875 66.40625 20.09375 61.84375 
Q 16.21875 57.28125 16.21875 49.421875 
Q 16.21875 41.5 20.09375 36.953125 
Q 23.96875 32.421875 30.609375 32.421875 
z
" id="DejaVuSans-57"/>
     <path d="M 8.015625 75.875 
L 15.828125 75.875 
Q 23.140625 64.359375 26.78125 53.3125 
Q 30.421875 42.28125 30.421875 31.390625 
Q 30.421875 20.453125 26.78125 9.375 
Q 23.140625 -1.703125 15.828125 -13.1875 
L 8.015625 -13.1875 
Q 14.5 -2 17.703125 9.0625 
Q 20.90625 20.125 20.90625 31.390625 
Q 20.90625 42.671875 17.703125 53.65625 
Q 14.5 64.65625 8.015625 75.875 
z
" id="DejaVuSans-41"/>
    </defs>
    <g transform="translate(76.773189 39.168)scale(0.14 -0.14)">
     <use transform="translate(0 0.015625)" xlink:href="#DejaVuSans-112"/>
     <use transform="translate(63.476562 0.015625)" xlink:href="#DejaVuSans-97"/>
     <use transform="translate(124.755859 0.015625)" xlink:href="#DejaVuSans-114"/>
     <use transform="translate(165.869141 0.015625)" xlink:href="#DejaVuSans-97"/>
     <use transform="translate(227.148438 0.015625)" xlink:href="#DejaVuSans-32"/>
     <use transform="translate(258.935547 0.015625)" xlink:href="#DejaVuSans-77"/>
     <use transform="translate(345.214844 0.015625)" xlink:href="#DejaVuSans-81"/>
     <use transform="translate(423.925781 0.015625)" xlink:href="#DejaVuSans-82"/>
     <use transform="translate(493.408203 0.015625)" xlink:href="#DejaVuSans-32"/>
     <use transform="translate(525.195312 0.015625)" xlink:href="#DejaVuSans-99"/>
     <use transform="translate(580.175781 0.015625)" xlink:href="#DejaVuSans-111"/>
     <use transform="translate(641.357422 0.015625)" xlink:href="#DejaVuSans-109"/>
     <use transform="translate(738.769531 0.015625)" xlink:href="#DejaVuSans-32"/>
     <use transform="translate(770.556641 0.015625)" xlink:href="#DejaVuSans-102"/>
     <use transform="translate(805.761719 0.015625)" xlink:href="#DejaVuSans-97"/>
     <use transform="translate(867.041016 0.015625)" xlink:href="#DejaVuSans-116"/>
     <use transform="translate(906.25 0.015625)" xlink:href="#DejaVuSans-111"/>
     <use transform="translate(967.431641 0.015625)" xlink:href="#DejaVuSans-114"/>
     <use transform="translate(1008.544922 0.015625)" xlink:href="#DejaVuSans-32"/>
     <use transform="translate(1040.332031 0.015625)" xlink:href="#DejaVuSans-100"/>
     <use transform="translate(1103.808594 0.015625)" xlink:href="#DejaVuSans-101"/>
     <use transform="translate(1165.332031 0.015625)" xlink:href="#DejaVuSans-32"/>
     <use transform="translate(1197.119141 0.015625)" xlink:href="#DejaVuSans-101"/>
     <use transform="translate(1258.642578 0.015625)" xlink:href="#DejaVuSans-115"/>
     <use transform="translate(1310.742188 0.015625)" xlink:href="#DejaVuSans-113"/>
     <use transform="translate(1374.21875 0.015625)" xlink:href="#DejaVuSans-117"/>
     <use transform="translate(1437.597656 0.015625)" xlink:href="#DejaVuSans-101"/>
     <use transform="translate(1499.121094 0.015625)" xlink:href="#DejaVuSans-99"/>
     <use transform="translate(1554.101562 0.015625)" xlink:href="#DejaVuSans-105"/>
     <use transform="translate(1581.884766 0.015625)" xlink:href="#DejaVuSans-109"/>
     <use transform="translate(1679.296875 0.015625)" xlink:href="#DejaVuSans-101"/>
     <use transform="translate(1740.820312 0.015625)" xlink:href="#DejaVuSans-110"/>
     <use transform="translate(1804.199219 0.015625)" xlink:href="#DejaVuSans-116"/>
     <use transform="translate(1843.408203 0.015625)" xlink:href="#DejaVuSans-111"/>
     <use transform="translate(1904.589844 0.015625)" xlink:href="#DejaVuSans-32"/>
     <use transform="translate(1936.376953 0.015625)" xlink:href="#DejaVuSans-40"/>
     <use transform="translate(1975.390625 0.015625)" xlink:href="#DejaVuSans-Oblique-955"/>
     <use transform="translate(2034.570312 0.015625)" xlink:href="#DejaVuSans-32"/>
     <use transform="translate(2066.357422 0.015625)" xlink:href="#DejaVuSans-61"/>
     <use transform="translate(2150.146484 0.015625)" xlink:href="#DejaVuSans-32"/>
     <use transform="translate(2181.933594 0.015625)" xlink:href="#DejaVuSans-48"/>
     <use transform="translate(2245.556641 0.015625)" xlink:href="#DejaVuSans-46"/>
     <use transform="translate(2277.34375 0.015625)" xlink:href="#DejaVuSans-57"/>
     <use transform="translate(2340.966797 0.015625)" xlink:href="#DejaVuSans-41"/>
    </g>
   </g>
   <g id="legend_1">
    <g id="patch_7">
     <path d="M 302.688976 184.255526 
L 408.388976 184.255526 
Q 410.388976 184.255526 410.388976 182.255526 
L 410.388976 124.543026 
Q 410.388976 122.543026 408.388976 122.543026 
L 302.688976 122.543026 
Q 300.688976 122.543026 300.688976 124.543026 
L 300.688976 182.255526 
Q 300.688976 184.255526 302.688976 184.255526 
z
" style="fill:#ffffff;opacity:0.8;stroke:#cccccc;stroke-linejoin:miter;"/>
    </g>
    <g id="line2d_43">
     <path d="M 304.688976 130.641463 
L 324.688976 130.641463 
" style="fill:none;stroke:#0000ff;stroke-linecap:square;"/>
    </g>
    <g id="line2d_44"/>
    <g id="text_21">
     <!-- Coeficiente $\bf{b1}$ -->
     <defs>
      <path d="M 64.40625 67.28125 
L 64.40625 56.890625 
Q 59.421875 61.53125 53.78125 63.8125 
Q 48.140625 66.109375 41.796875 66.109375 
Q 29.296875 66.109375 22.65625 58.46875 
Q 16.015625 50.828125 16.015625 36.375 
Q 16.015625 21.96875 22.65625 14.328125 
Q 29.296875 6.6875 41.796875 6.6875 
Q 48.140625 6.6875 53.78125 8.984375 
Q 59.421875 11.28125 64.40625 15.921875 
L 64.40625 5.609375 
Q 59.234375 2.09375 53.4375 0.328125 
Q 47.65625 -1.421875 41.21875 -1.421875 
Q 24.65625 -1.421875 15.125 8.703125 
Q 5.609375 18.84375 5.609375 36.375 
Q 5.609375 53.953125 15.125 64.078125 
Q 24.65625 74.21875 41.21875 74.21875 
Q 47.75 74.21875 53.53125 72.484375 
Q 59.328125 70.75 64.40625 67.28125 
z
" id="DejaVuSans-67"/>
      <path d="M 37.5 11.28125 
Q 43.109375 11.28125 46.0625 15.375 
Q 49.03125 19.484375 49.03125 27.296875 
Q 49.03125 35.109375 46.0625 39.203125 
Q 43.109375 43.3125 37.5 43.3125 
Q 31.890625 43.3125 28.875 39.1875 
Q 25.875 35.0625 25.875 27.296875 
Q 25.875 19.53125 28.875 15.40625 
Q 31.890625 11.28125 37.5 11.28125 
z
M 25.875 46.6875 
Q 29.5 51.46875 33.890625 53.734375 
Q 38.28125 56 44 56 
Q 54.109375 56 60.59375 47.96875 
Q 67.09375 39.9375 67.09375 27.296875 
Q 67.09375 14.65625 60.59375 6.609375 
Q 54.109375 -1.421875 44 -1.421875 
Q 38.28125 -1.421875 33.890625 0.84375 
Q 29.5 3.125 25.875 7.90625 
L 25.875 0 
L 8.40625 0 
L 8.40625 75.984375 
L 25.875 75.984375 
z
" id="DejaVuSans-Bold-98"/>
      <path d="M 11.71875 12.984375 
L 28.328125 12.984375 
L 28.328125 60.109375 
L 11.28125 56.59375 
L 11.28125 69.390625 
L 28.21875 72.90625 
L 46.09375 72.90625 
L 46.09375 12.984375 
L 62.703125 12.984375 
L 62.703125 0 
L 11.71875 0 
z
" id="DejaVuSans-Bold-49"/>
     </defs>
     <g transform="translate(332.688976 134.141463)scale(0.1 -0.1)">
      <use transform="translate(0 0.015625)" xlink:href="#DejaVuSans-67"/>
      <use transform="translate(69.824219 0.015625)" xlink:href="#DejaVuSans-111"/>
      <use transform="translate(131.005859 0.015625)" xlink:href="#DejaVuSans-101"/>
      <use transform="translate(192.529297 0.015625)" xlink:href="#DejaVuSans-102"/>
      <use transform="translate(227.734375 0.015625)" xlink:href="#DejaVuSans-105"/>
      <use transform="translate(255.517578 0.015625)" xlink:href="#DejaVuSans-99"/>
      <use transform="translate(310.498047 0.015625)" xlink:href="#DejaVuSans-105"/>
      <use transform="translate(338.28125 0.015625)" xlink:href="#DejaVuSans-101"/>
      <use transform="translate(399.804688 0.015625)" xlink:href="#DejaVuSans-110"/>
      <use transform="translate(463.183594 0.015625)" xlink:href="#DejaVuSans-116"/>
      <use transform="translate(502.392578 0.015625)" xlink:href="#DejaVuSans-101"/>
      <use transform="translate(563.916016 0.015625)" xlink:href="#DejaVuSans-32"/>
      <use transform="translate(595.703125 0.015625)" xlink:href="#DejaVuSans-Bold-98"/>
      <use transform="translate(667.285156 0.015625)" xlink:href="#DejaVuSans-Bold-49"/>
     </g>
    </g>
    <g id="line2d_45">
     <path d="M 304.688976 145.319588 
L 324.688976 145.319588 
" style="fill:none;stroke:#ffa500;stroke-linecap:square;"/>
    </g>
    <g id="line2d_46"/>
    <g id="text_22">
     <!-- Coeficiente $\bf{b2}$ -->
     <defs>
      <path d="M 28.8125 13.8125 
L 60.890625 13.8125 
L 60.890625 0 
L 7.90625 0 
L 7.90625 13.8125 
L 34.515625 37.3125 
Q 38.09375 40.53125 39.796875 43.609375 
Q 41.5 46.6875 41.5 50 
Q 41.5 55.125 38.0625 58.25 
Q 34.625 61.375 28.90625 61.375 
Q 24.515625 61.375 19.28125 59.5 
Q 14.0625 57.625 8.109375 53.90625 
L 8.109375 69.921875 
Q 14.453125 72.015625 20.65625 73.109375 
Q 26.859375 74.21875 32.8125 74.21875 
Q 45.90625 74.21875 53.15625 68.453125 
Q 60.40625 62.703125 60.40625 52.390625 
Q 60.40625 46.4375 57.328125 41.28125 
Q 54.25 36.140625 44.390625 27.484375 
z
" id="DejaVuSans-Bold-50"/>
     </defs>
     <g transform="translate(332.688976 148.819588)scale(0.1 -0.1)">
      <use transform="translate(0 0.015625)" xlink:href="#DejaVuSans-67"/>
      <use transform="translate(69.824219 0.015625)" xlink:href="#DejaVuSans-111"/>
      <use transform="translate(131.005859 0.015625)" xlink:href="#DejaVuSans-101"/>
      <use transform="translate(192.529297 0.015625)" xlink:href="#DejaVuSans-102"/>
      <use transform="translate(227.734375 0.015625)" xlink:href="#DejaVuSans-105"/>
      <use transform="translate(255.517578 0.015625)" xlink:href="#DejaVuSans-99"/>
      <use transform="translate(310.498047 0.015625)" xlink:href="#DejaVuSans-105"/>
      <use transform="translate(338.28125 0.015625)" xlink:href="#DejaVuSans-101"/>
      <use transform="translate(399.804688 0.015625)" xlink:href="#DejaVuSans-110"/>
      <use transform="translate(463.183594 0.015625)" xlink:href="#DejaVuSans-116"/>
      <use transform="translate(502.392578 0.015625)" xlink:href="#DejaVuSans-101"/>
      <use transform="translate(563.916016 0.015625)" xlink:href="#DejaVuSans-32"/>
      <use transform="translate(595.703125 0.015625)" xlink:href="#DejaVuSans-Bold-98"/>
      <use transform="translate(667.285156 0.015625)" xlink:href="#DejaVuSans-Bold-50"/>
     </g>
    </g>
    <g id="line2d_47">
     <path d="M 304.688976 159.997713 
L 324.688976 159.997713 
" style="fill:none;stroke:#008000;stroke-linecap:square;"/>
    </g>
    <g id="line2d_48"/>
    <g id="text_23">
     <!-- Coeficiente $\bf{a1}$ -->
     <defs>
      <path d="M 32.90625 24.609375 
Q 27.4375 24.609375 24.671875 22.75 
Q 21.921875 20.90625 21.921875 17.28125 
Q 21.921875 13.96875 24.140625 12.078125 
Q 26.375 10.203125 30.328125 10.203125 
Q 35.25 10.203125 38.625 13.734375 
Q 42 17.28125 42 22.609375 
L 42 24.609375 
z
M 59.625 31.203125 
L 59.625 0 
L 42 0 
L 42 8.109375 
Q 38.484375 3.125 34.078125 0.84375 
Q 29.6875 -1.421875 23.390625 -1.421875 
Q 14.890625 -1.421875 9.59375 3.53125 
Q 4.296875 8.5 4.296875 16.40625 
Q 4.296875 26.03125 10.90625 30.515625 
Q 17.53125 35.015625 31.6875 35.015625 
L 42 35.015625 
L 42 36.375 
Q 42 40.53125 38.71875 42.453125 
Q 35.453125 44.390625 28.515625 44.390625 
Q 22.90625 44.390625 18.0625 43.265625 
Q 13.234375 42.140625 9.078125 39.890625 
L 9.078125 53.21875 
Q 14.703125 54.59375 20.359375 55.296875 
Q 26.03125 56 31.6875 56 
Q 46.484375 56 53.046875 50.171875 
Q 59.625 44.34375 59.625 31.203125 
z
" id="DejaVuSans-Bold-97"/>
     </defs>
     <g transform="translate(332.688976 163.497713)scale(0.1 -0.1)">
      <use transform="translate(0 0.015625)" xlink:href="#DejaVuSans-67"/>
      <use transform="translate(69.824219 0.015625)" xlink:href="#DejaVuSans-111"/>
      <use transform="translate(131.005859 0.015625)" xlink:href="#DejaVuSans-101"/>
      <use transform="translate(192.529297 0.015625)" xlink:href="#DejaVuSans-102"/>
      <use transform="translate(227.734375 0.015625)" xlink:href="#DejaVuSans-105"/>
      <use transform="translate(255.517578 0.015625)" xlink:href="#DejaVuSans-99"/>
      <use transform="translate(310.498047 0.015625)" xlink:href="#DejaVuSans-105"/>
      <use transform="translate(338.28125 0.015625)" xlink:href="#DejaVuSans-101"/>
      <use transform="translate(399.804688 0.015625)" xlink:href="#DejaVuSans-110"/>
      <use transform="translate(463.183594 0.015625)" xlink:href="#DejaVuSans-116"/>
      <use transform="translate(502.392578 0.015625)" xlink:href="#DejaVuSans-101"/>
      <use transform="translate(563.916016 0.015625)" xlink:href="#DejaVuSans-32"/>
      <use transform="translate(595.703125 0.015625)" xlink:href="#DejaVuSans-Bold-97"/>
      <use transform="translate(663.183594 0.015625)" xlink:href="#DejaVuSans-Bold-49"/>
     </g>
    </g>
    <g id="line2d_49">
     <path d="M 304.688976 174.675838 
L 324.688976 174.675838 
" style="fill:none;stroke:#ff0000;stroke-linecap:square;"/>
    </g>
    <g id="line2d_50"/>
    <g id="text_24">
     <!-- Coeficiente $\bf{a2}$ -->
     <g transform="translate(332.688976 178.175838)scale(0.1 -0.1)">
      <use transform="translate(0 0.015625)" xlink:href="#DejaVuSans-67"/>
      <use transform="translate(69.824219 0.015625)" xlink:href="#DejaVuSans-111"/>
      <use transform="translate(131.005859 0.015625)" xlink:href="#DejaVuSans-101"/>
      <use transform="translate(192.529297 0.015625)" xlink:href="#DejaVuSans-102"/>
      <use transform="translate(227.734375 0.015625)" xlink:href="#DejaVuSans-105"/>
      <use transform="translate(255.517578 0.015625)" xlink:href="#DejaVuSans-99"/>
      <use transform="translate(310.498047 0.015625)" xlink:href="#DejaVuSans-105"/>
      <use transform="translate(338.28125 0.015625)" xlink:href="#DejaVuSans-101"/>
      <use transform="translate(399.804688 0.015625)" xlink:href="#DejaVuSans-110"/>
      <use transform="translate(463.183594 0.015625)" xlink:href="#DejaVuSans-116"/>
      <use transform="translate(502.392578 0.015625)" xlink:href="#DejaVuSans-101"/>
      <use transform="translate(563.916016 0.015625)" xlink:href="#DejaVuSans-32"/>
      <use transform="translate(595.703125 0.015625)" xlink:href="#DejaVuSans-Bold-97"/>
      <use transform="translate(663.183594 0.015625)" xlink:href="#DejaVuSans-Bold-50"/>
     </g>
    </g>
   </g>
  </g>
 </g>
 <defs>
  <clipPath id="pee62000d4e">
   <rect height="216.462551" width="344.031575" x="71.357402" y="45.168"/>
  </clipPath>
 </defs>
</svg>
