<?xml version="1.0" encoding="utf-8" standalone="no"?>
<!DOCTYPE svg PUBLIC "-//W3C//DTD SVG 1.1//EN"
  "http://www.w3.org/Graphics/SVG/1.1/DTD/svg11.dtd">
<!-- Created with matplotlib (https://matplotlib.org/) -->
<svg height="297.637795pt" version="1.1" viewBox="0 0 439.370079 297.637795" width="439.370079pt" xmlns="http://www.w3.org/2000/svg" xmlns:xlink="http://www.w3.org/1999/xlink">
 <defs>
  <style type="text/css">
*{stroke-linecap:butt;stroke-linejoin:round;}
  </style>
 </defs>
 <g id="figure_1">
  <g id="patch_1">
   <path d="M 0 297.637795 
L 439.370079 297.637795 
L 439.370079 0 
L 0 0 
z
" style="fill:#ffffff;"/>
  </g>
  <g id="axes_1">
   <g id="patch_2">
    <path d="M 71.357402 261.630551 
L 415.388976 261.630551 
L 415.388976 45.168 
L 71.357402 45.168 
z
" style="fill:#ffffff;"/>
   </g>
   <g id="matplotlib.axis_1">
    <g id="xtick_1">
     <g id="line2d_1">
      <path clip-path="url(#pfd7d1b39d3)" d="M 71.357402 261.630551 
L 71.357402 45.168 
" style="fill:none;stroke:#000000;stroke-dasharray:0.7,1.155;stroke-dashoffset:0;stroke-width:0.7;"/>
     </g>
     <g id="line2d_2">
      <defs>
       <path d="M 0 0 
L 0 3.5 
" id="m42393d8482" style="stroke:#000000;stroke-width:0.8;"/>
      </defs>
      <g>
       <use style="stroke:#000000;stroke-width:0.8;" x="71.357402" xlink:href="#m42393d8482" y="261.630551"/>
      </g>
     </g>
     <g id="text_1">
      <!-- 0 -->
      <defs>
       <path d="M 31.78125 66.40625 
Q 24.171875 66.40625 20.328125 58.90625 
Q 16.5 51.421875 16.5 36.375 
Q 16.5 21.390625 20.328125 13.890625 
Q 24.171875 6.390625 31.78125 6.390625 
Q 39.453125 6.390625 43.28125 13.890625 
Q 47.125 21.390625 47.125 36.375 
Q 47.125 51.421875 43.28125 58.90625 
Q 39.453125 66.40625 31.78125 66.40625 
z
M 31.78125 74.21875 
Q 44.046875 74.21875 50.515625 64.515625 
Q 56.984375 54.828125 56.984375 36.375 
Q 56.984375 17.96875 50.515625 8.265625 
Q 44.046875 -1.421875 31.78125 -1.421875 
Q 19.53125 -1.421875 13.0625 8.265625 
Q 6.59375 17.96875 6.59375 36.375 
Q 6.59375 54.828125 13.0625 64.515625 
Q 19.53125 74.21875 31.78125 74.21875 
z
" id="DejaVuSans-48"/>
      </defs>
      <g transform="translate(68.176152 276.228989)scale(0.1 -0.1)">
       <use xlink:href="#DejaVuSans-48"/>
      </g>
     </g>
    </g>
    <g id="xtick_2">
     <g id="line2d_3">
      <path clip-path="url(#pfd7d1b39d3)" d="M 114.415171 261.630551 
L 114.415171 45.168 
" style="fill:none;stroke:#000000;stroke-dasharray:0.7,1.155;stroke-dashoffset:0;stroke-width:0.7;"/>
     </g>
     <g id="line2d_4">
      <g>
       <use style="stroke:#000000;stroke-width:0.8;" x="114.415171" xlink:href="#m42393d8482" y="261.630551"/>
      </g>
     </g>
     <g id="text_2">
      <!-- 100 -->
      <defs>
       <path d="M 12.40625 8.296875 
L 28.515625 8.296875 
L 28.515625 63.921875 
L 10.984375 60.40625 
L 10.984375 69.390625 
L 28.421875 72.90625 
L 38.28125 72.90625 
L 38.28125 8.296875 
L 54.390625 8.296875 
L 54.390625 0 
L 12.40625 0 
z
" id="DejaVuSans-49"/>
      </defs>
      <g transform="translate(104.871421 276.228989)scale(0.1 -0.1)">
       <use xlink:href="#DejaVuSans-49"/>
       <use x="63.623047" xlink:href="#DejaVuSans-48"/>
       <use x="127.246094" xlink:href="#DejaVuSans-48"/>
      </g>
     </g>
    </g>
    <g id="xtick_3">
     <g id="line2d_5">
      <path clip-path="url(#pfd7d1b39d3)" d="M 157.47294 261.630551 
L 157.47294 45.168 
" style="fill:none;stroke:#000000;stroke-dasharray:0.7,1.155;stroke-dashoffset:0;stroke-width:0.7;"/>
     </g>
     <g id="line2d_6">
      <g>
       <use style="stroke:#000000;stroke-width:0.8;" x="157.47294" xlink:href="#m42393d8482" y="261.630551"/>
      </g>
     </g>
     <g id="text_3">
      <!-- 200 -->
      <defs>
       <path d="M 19.1875 8.296875 
L 53.609375 8.296875 
L 53.609375 0 
L 7.328125 0 
L 7.328125 8.296875 
Q 12.9375 14.109375 22.625 23.890625 
Q 32.328125 33.6875 34.8125 36.53125 
Q 39.546875 41.84375 41.421875 45.53125 
Q 43.3125 49.21875 43.3125 52.78125 
Q 43.3125 58.59375 39.234375 62.25 
Q 35.15625 65.921875 28.609375 65.921875 
Q 23.96875 65.921875 18.8125 64.3125 
Q 13.671875 62.703125 7.8125 59.421875 
L 7.8125 69.390625 
Q 13.765625 71.78125 18.9375 73 
Q 24.125 74.21875 28.421875 74.21875 
Q 39.75 74.21875 46.484375 68.546875 
Q 53.21875 62.890625 53.21875 53.421875 
Q 53.21875 48.921875 51.53125 44.890625 
Q 49.859375 40.875 45.40625 35.40625 
Q 44.1875 33.984375 37.640625 27.21875 
Q 31.109375 20.453125 19.1875 8.296875 
z
" id="DejaVuSans-50"/>
      </defs>
      <g transform="translate(147.92919 276.228989)scale(0.1 -0.1)">
       <use xlink:href="#DejaVuSans-50"/>
       <use x="63.623047" xlink:href="#DejaVuSans-48"/>
       <use x="127.246094" xlink:href="#DejaVuSans-48"/>
      </g>
     </g>
    </g>
    <g id="xtick_4">
     <g id="line2d_7">
      <path clip-path="url(#pfd7d1b39d3)" d="M 200.530709 261.630551 
L 200.530709 45.168 
" style="fill:none;stroke:#000000;stroke-dasharray:0.7,1.155;stroke-dashoffset:0;stroke-width:0.7;"/>
     </g>
     <g id="line2d_8">
      <g>
       <use style="stroke:#000000;stroke-width:0.8;" x="200.530709" xlink:href="#m42393d8482" y="261.630551"/>
      </g>
     </g>
     <g id="text_4">
      <!-- 300 -->
      <defs>
       <path d="M 40.578125 39.3125 
Q 47.65625 37.796875 51.625 33 
Q 55.609375 28.21875 55.609375 21.1875 
Q 55.609375 10.40625 48.1875 4.484375 
Q 40.765625 -1.421875 27.09375 -1.421875 
Q 22.515625 -1.421875 17.65625 -0.515625 
Q 12.796875 0.390625 7.625 2.203125 
L 7.625 11.71875 
Q 11.71875 9.328125 16.59375 8.109375 
Q 21.484375 6.890625 26.8125 6.890625 
Q 36.078125 6.890625 40.9375 10.546875 
Q 45.796875 14.203125 45.796875 21.1875 
Q 45.796875 27.640625 41.28125 31.265625 
Q 36.765625 34.90625 28.71875 34.90625 
L 20.21875 34.90625 
L 20.21875 43.015625 
L 29.109375 43.015625 
Q 36.375 43.015625 40.234375 45.921875 
Q 44.09375 48.828125 44.09375 54.296875 
Q 44.09375 59.90625 40.109375 62.90625 
Q 36.140625 65.921875 28.71875 65.921875 
Q 24.65625 65.921875 20.015625 65.03125 
Q 15.375 64.15625 9.8125 62.3125 
L 9.8125 71.09375 
Q 15.4375 72.65625 20.34375 73.4375 
Q 25.25 74.21875 29.59375 74.21875 
Q 40.828125 74.21875 47.359375 69.109375 
Q 53.90625 64.015625 53.90625 55.328125 
Q 53.90625 49.265625 50.4375 45.09375 
Q 46.96875 40.921875 40.578125 39.3125 
z
" id="DejaVuSans-51"/>
      </defs>
      <g transform="translate(190.986959 276.228989)scale(0.1 -0.1)">
       <use xlink:href="#DejaVuSans-51"/>
       <use x="63.623047" xlink:href="#DejaVuSans-48"/>
       <use x="127.246094" xlink:href="#DejaVuSans-48"/>
      </g>
     </g>
    </g>
    <g id="xtick_5">
     <g id="line2d_9">
      <path clip-path="url(#pfd7d1b39d3)" d="M 243.588478 261.630551 
L 243.588478 45.168 
" style="fill:none;stroke:#000000;stroke-dasharray:0.7,1.155;stroke-dashoffset:0;stroke-width:0.7;"/>
     </g>
     <g id="line2d_10">
      <g>
       <use style="stroke:#000000;stroke-width:0.8;" x="243.588478" xlink:href="#m42393d8482" y="261.630551"/>
      </g>
     </g>
     <g id="text_5">
      <!-- 400 -->
      <defs>
       <path d="M 37.796875 64.3125 
L 12.890625 25.390625 
L 37.796875 25.390625 
z
M 35.203125 72.90625 
L 47.609375 72.90625 
L 47.609375 25.390625 
L 58.015625 25.390625 
L 58.015625 17.1875 
L 47.609375 17.1875 
L 47.609375 0 
L 37.796875 0 
L 37.796875 17.1875 
L 4.890625 17.1875 
L 4.890625 26.703125 
z
" id="DejaVuSans-52"/>
      </defs>
      <g transform="translate(234.044728 276.228989)scale(0.1 -0.1)">
       <use xlink:href="#DejaVuSans-52"/>
       <use x="63.623047" xlink:href="#DejaVuSans-48"/>
       <use x="127.246094" xlink:href="#DejaVuSans-48"/>
      </g>
     </g>
    </g>
    <g id="xtick_6">
     <g id="line2d_11">
      <path clip-path="url(#pfd7d1b39d3)" d="M 286.646247 261.630551 
L 286.646247 45.168 
" style="fill:none;stroke:#000000;stroke-dasharray:0.7,1.155;stroke-dashoffset:0;stroke-width:0.7;"/>
     </g>
     <g id="line2d_12">
      <g>
       <use style="stroke:#000000;stroke-width:0.8;" x="286.646247" xlink:href="#m42393d8482" y="261.630551"/>
      </g>
     </g>
     <g id="text_6">
      <!-- 500 -->
      <defs>
       <path d="M 10.796875 72.90625 
L 49.515625 72.90625 
L 49.515625 64.59375 
L 19.828125 64.59375 
L 19.828125 46.734375 
Q 21.96875 47.46875 24.109375 47.828125 
Q 26.265625 48.1875 28.421875 48.1875 
Q 40.625 48.1875 47.75 41.5 
Q 54.890625 34.8125 54.890625 23.390625 
Q 54.890625 11.625 47.5625 5.09375 
Q 40.234375 -1.421875 26.90625 -1.421875 
Q 22.3125 -1.421875 17.546875 -0.640625 
Q 12.796875 0.140625 7.71875 1.703125 
L 7.71875 11.625 
Q 12.109375 9.234375 16.796875 8.0625 
Q 21.484375 6.890625 26.703125 6.890625 
Q 35.15625 6.890625 40.078125 11.328125 
Q 45.015625 15.765625 45.015625 23.390625 
Q 45.015625 31 40.078125 35.4375 
Q 35.15625 39.890625 26.703125 39.890625 
Q 22.75 39.890625 18.8125 39.015625 
Q 14.890625 38.140625 10.796875 36.28125 
z
" id="DejaVuSans-53"/>
      </defs>
      <g transform="translate(277.102497 276.228989)scale(0.1 -0.1)">
       <use xlink:href="#DejaVuSans-53"/>
       <use x="63.623047" xlink:href="#DejaVuSans-48"/>
       <use x="127.246094" xlink:href="#DejaVuSans-48"/>
      </g>
     </g>
    </g>
    <g id="xtick_7">
     <g id="line2d_13">
      <path clip-path="url(#pfd7d1b39d3)" d="M 329.704016 261.630551 
L 329.704016 45.168 
" style="fill:none;stroke:#000000;stroke-dasharray:0.7,1.155;stroke-dashoffset:0;stroke-width:0.7;"/>
     </g>
     <g id="line2d_14">
      <g>
       <use style="stroke:#000000;stroke-width:0.8;" x="329.704016" xlink:href="#m42393d8482" y="261.630551"/>
      </g>
     </g>
     <g id="text_7">
      <!-- 600 -->
      <defs>
       <path d="M 33.015625 40.375 
Q 26.375 40.375 22.484375 35.828125 
Q 18.609375 31.296875 18.609375 23.390625 
Q 18.609375 15.53125 22.484375 10.953125 
Q 26.375 6.390625 33.015625 6.390625 
Q 39.65625 6.390625 43.53125 10.953125 
Q 47.40625 15.53125 47.40625 23.390625 
Q 47.40625 31.296875 43.53125 35.828125 
Q 39.65625 40.375 33.015625 40.375 
z
M 52.59375 71.296875 
L 52.59375 62.3125 
Q 48.875 64.0625 45.09375 64.984375 
Q 41.3125 65.921875 37.59375 65.921875 
Q 27.828125 65.921875 22.671875 59.328125 
Q 17.53125 52.734375 16.796875 39.40625 
Q 19.671875 43.65625 24.015625 45.921875 
Q 28.375 48.1875 33.59375 48.1875 
Q 44.578125 48.1875 50.953125 41.515625 
Q 57.328125 34.859375 57.328125 23.390625 
Q 57.328125 12.15625 50.6875 5.359375 
Q 44.046875 -1.421875 33.015625 -1.421875 
Q 20.359375 -1.421875 13.671875 8.265625 
Q 6.984375 17.96875 6.984375 36.375 
Q 6.984375 53.65625 15.1875 63.9375 
Q 23.390625 74.21875 37.203125 74.21875 
Q 40.921875 74.21875 44.703125 73.484375 
Q 48.484375 72.75 52.59375 71.296875 
z
" id="DejaVuSans-54"/>
      </defs>
      <g transform="translate(320.160266 276.228989)scale(0.1 -0.1)">
       <use xlink:href="#DejaVuSans-54"/>
       <use x="63.623047" xlink:href="#DejaVuSans-48"/>
       <use x="127.246094" xlink:href="#DejaVuSans-48"/>
      </g>
     </g>
    </g>
    <g id="xtick_8">
     <g id="line2d_15">
      <path clip-path="url(#pfd7d1b39d3)" d="M 372.761785 261.630551 
L 372.761785 45.168 
" style="fill:none;stroke:#000000;stroke-dasharray:0.7,1.155;stroke-dashoffset:0;stroke-width:0.7;"/>
     </g>
     <g id="line2d_16">
      <g>
       <use style="stroke:#000000;stroke-width:0.8;" x="372.761785" xlink:href="#m42393d8482" y="261.630551"/>
      </g>
     </g>
     <g id="text_8">
      <!-- 700 -->
      <defs>
       <path d="M 8.203125 72.90625 
L 55.078125 72.90625 
L 55.078125 68.703125 
L 28.609375 0 
L 18.3125 0 
L 43.21875 64.59375 
L 8.203125 64.59375 
z
" id="DejaVuSans-55"/>
      </defs>
      <g transform="translate(363.218035 276.228989)scale(0.1 -0.1)">
       <use xlink:href="#DejaVuSans-55"/>
       <use x="63.623047" xlink:href="#DejaVuSans-48"/>
       <use x="127.246094" xlink:href="#DejaVuSans-48"/>
      </g>
     </g>
    </g>
    <g id="text_9">
     <!-- Amostra -->
     <defs>
      <path d="M 34.1875 63.1875 
L 20.796875 26.90625 
L 47.609375 26.90625 
z
M 28.609375 72.90625 
L 39.796875 72.90625 
L 67.578125 0 
L 57.328125 0 
L 50.6875 18.703125 
L 17.828125 18.703125 
L 11.1875 0 
L 0.78125 0 
z
" id="DejaVuSans-65"/>
      <path d="M 52 44.1875 
Q 55.375 50.25 60.0625 53.125 
Q 64.75 56 71.09375 56 
Q 79.640625 56 84.28125 50.015625 
Q 88.921875 44.046875 88.921875 33.015625 
L 88.921875 0 
L 79.890625 0 
L 79.890625 32.71875 
Q 79.890625 40.578125 77.09375 44.375 
Q 74.3125 48.1875 68.609375 48.1875 
Q 61.625 48.1875 57.5625 43.546875 
Q 53.515625 38.921875 53.515625 30.90625 
L 53.515625 0 
L 44.484375 0 
L 44.484375 32.71875 
Q 44.484375 40.625 41.703125 44.40625 
Q 38.921875 48.1875 33.109375 48.1875 
Q 26.21875 48.1875 22.15625 43.53125 
Q 18.109375 38.875 18.109375 30.90625 
L 18.109375 0 
L 9.078125 0 
L 9.078125 54.6875 
L 18.109375 54.6875 
L 18.109375 46.1875 
Q 21.1875 51.21875 25.484375 53.609375 
Q 29.78125 56 35.6875 56 
Q 41.65625 56 45.828125 52.96875 
Q 50 49.953125 52 44.1875 
z
" id="DejaVuSans-109"/>
      <path d="M 30.609375 48.390625 
Q 23.390625 48.390625 19.1875 42.75 
Q 14.984375 37.109375 14.984375 27.296875 
Q 14.984375 17.484375 19.15625 11.84375 
Q 23.34375 6.203125 30.609375 6.203125 
Q 37.796875 6.203125 41.984375 11.859375 
Q 46.1875 17.53125 46.1875 27.296875 
Q 46.1875 37.015625 41.984375 42.703125 
Q 37.796875 48.390625 30.609375 48.390625 
z
M 30.609375 56 
Q 42.328125 56 49.015625 48.375 
Q 55.71875 40.765625 55.71875 27.296875 
Q 55.71875 13.875 49.015625 6.21875 
Q 42.328125 -1.421875 30.609375 -1.421875 
Q 18.84375 -1.421875 12.171875 6.21875 
Q 5.515625 13.875 5.515625 27.296875 
Q 5.515625 40.765625 12.171875 48.375 
Q 18.84375 56 30.609375 56 
z
" id="DejaVuSans-111"/>
      <path d="M 44.28125 53.078125 
L 44.28125 44.578125 
Q 40.484375 46.53125 36.375 47.5 
Q 32.28125 48.484375 27.875 48.484375 
Q 21.1875 48.484375 17.84375 46.4375 
Q 14.5 44.390625 14.5 40.28125 
Q 14.5 37.15625 16.890625 35.375 
Q 19.28125 33.59375 26.515625 31.984375 
L 29.59375 31.296875 
Q 39.15625 29.25 43.1875 25.515625 
Q 47.21875 21.78125 47.21875 15.09375 
Q 47.21875 7.46875 41.1875 3.015625 
Q 35.15625 -1.421875 24.609375 -1.421875 
Q 20.21875 -1.421875 15.453125 -0.5625 
Q 10.6875 0.296875 5.421875 2 
L 5.421875 11.28125 
Q 10.40625 8.6875 15.234375 7.390625 
Q 20.0625 6.109375 24.8125 6.109375 
Q 31.15625 6.109375 34.5625 8.28125 
Q 37.984375 10.453125 37.984375 14.40625 
Q 37.984375 18.0625 35.515625 20.015625 
Q 33.0625 21.96875 24.703125 23.78125 
L 21.578125 24.515625 
Q 13.234375 26.265625 9.515625 29.90625 
Q 5.8125 33.546875 5.8125 39.890625 
Q 5.8125 47.609375 11.28125 51.796875 
Q 16.75 56 26.8125 56 
Q 31.78125 56 36.171875 55.265625 
Q 40.578125 54.546875 44.28125 53.078125 
z
" id="DejaVuSans-115"/>
      <path d="M 18.3125 70.21875 
L 18.3125 54.6875 
L 36.8125 54.6875 
L 36.8125 47.703125 
L 18.3125 47.703125 
L 18.3125 18.015625 
Q 18.3125 11.328125 20.140625 9.421875 
Q 21.96875 7.515625 27.59375 7.515625 
L 36.8125 7.515625 
L 36.8125 0 
L 27.59375 0 
Q 17.1875 0 13.234375 3.875 
Q 9.28125 7.765625 9.28125 18.015625 
L 9.28125 47.703125 
L 2.6875 47.703125 
L 2.6875 54.6875 
L 9.28125 54.6875 
L 9.28125 70.21875 
z
" id="DejaVuSans-116"/>
      <path d="M 41.109375 46.296875 
Q 39.59375 47.171875 37.8125 47.578125 
Q 36.03125 48 33.890625 48 
Q 26.265625 48 22.1875 43.046875 
Q 18.109375 38.09375 18.109375 28.8125 
L 18.109375 0 
L 9.078125 0 
L 9.078125 54.6875 
L 18.109375 54.6875 
L 18.109375 46.1875 
Q 20.953125 51.171875 25.484375 53.578125 
Q 30.03125 56 36.53125 56 
Q 37.453125 56 38.578125 55.875 
Q 39.703125 55.765625 41.0625 55.515625 
z
" id="DejaVuSans-114"/>
      <path d="M 34.28125 27.484375 
Q 23.390625 27.484375 19.1875 25 
Q 14.984375 22.515625 14.984375 16.5 
Q 14.984375 11.71875 18.140625 8.90625 
Q 21.296875 6.109375 26.703125 6.109375 
Q 34.1875 6.109375 38.703125 11.40625 
Q 43.21875 16.703125 43.21875 25.484375 
L 43.21875 27.484375 
z
M 52.203125 31.203125 
L 52.203125 0 
L 43.21875 0 
L 43.21875 8.296875 
Q 40.140625 3.328125 35.546875 0.953125 
Q 30.953125 -1.421875 24.3125 -1.421875 
Q 15.921875 -1.421875 10.953125 3.296875 
Q 6 8.015625 6 15.921875 
Q 6 25.140625 12.171875 29.828125 
Q 18.359375 34.515625 30.609375 34.515625 
L 43.21875 34.515625 
L 43.21875 35.40625 
Q 43.21875 41.609375 39.140625 45 
Q 35.0625 48.390625 27.6875 48.390625 
Q 23 48.390625 18.546875 47.265625 
Q 14.109375 46.140625 10.015625 43.890625 
L 10.015625 52.203125 
Q 14.9375 54.109375 19.578125 55.046875 
Q 24.21875 56 28.609375 56 
Q 40.484375 56 46.34375 49.84375 
Q 52.203125 43.703125 52.203125 31.203125 
z
" id="DejaVuSans-97"/>
     </defs>
     <g transform="translate(222.338814 289.907114)scale(0.1 -0.1)">
      <use xlink:href="#DejaVuSans-65"/>
      <use x="68.408203" xlink:href="#DejaVuSans-109"/>
      <use x="165.820312" xlink:href="#DejaVuSans-111"/>
      <use x="227.001953" xlink:href="#DejaVuSans-115"/>
      <use x="279.101562" xlink:href="#DejaVuSans-116"/>
      <use x="318.310547" xlink:href="#DejaVuSans-114"/>
      <use x="359.423828" xlink:href="#DejaVuSans-97"/>
     </g>
    </g>
   </g>
   <g id="matplotlib.axis_2">
    <g id="ytick_1">
     <g id="line2d_17">
      <path clip-path="url(#pfd7d1b39d3)" d="M 71.357402 261.521853 
L 415.388976 261.521853 
" style="fill:none;stroke:#000000;stroke-dasharray:0.7,1.155;stroke-dashoffset:0;stroke-width:0.7;"/>
     </g>
     <g id="line2d_18">
      <defs>
       <path d="M 0 0 
L -3.5 0 
" id="me02f9d6c51" style="stroke:#000000;stroke-width:0.8;"/>
      </defs>
      <g>
       <use style="stroke:#000000;stroke-width:0.8;" x="71.357402" xlink:href="#me02f9d6c51" y="261.521853"/>
      </g>
     </g>
     <g id="text_10">
      <!-- −1.50 -->
      <defs>
       <path d="M 10.59375 35.5 
L 73.1875 35.5 
L 73.1875 27.203125 
L 10.59375 27.203125 
z
" id="DejaVuSans-8722"/>
       <path d="M 10.6875 12.40625 
L 21 12.40625 
L 21 0 
L 10.6875 0 
z
" id="DejaVuSans-46"/>
      </defs>
      <g transform="translate(33.712089 265.321072)scale(0.1 -0.1)">
       <use xlink:href="#DejaVuSans-8722"/>
       <use x="83.789062" xlink:href="#DejaVuSans-49"/>
       <use x="147.412109" xlink:href="#DejaVuSans-46"/>
       <use x="179.199219" xlink:href="#DejaVuSans-53"/>
       <use x="242.822266" xlink:href="#DejaVuSans-48"/>
      </g>
     </g>
    </g>
    <g id="ytick_2">
     <g id="line2d_19">
      <path clip-path="url(#pfd7d1b39d3)" d="M 71.357402 236.580962 
L 415.388976 236.580962 
" style="fill:none;stroke:#000000;stroke-dasharray:0.7,1.155;stroke-dashoffset:0;stroke-width:0.7;"/>
     </g>
     <g id="line2d_20">
      <g>
       <use style="stroke:#000000;stroke-width:0.8;" x="71.357402" xlink:href="#me02f9d6c51" y="236.580962"/>
      </g>
     </g>
     <g id="text_11">
      <!-- −1.25 -->
      <g transform="translate(33.712089 240.380181)scale(0.1 -0.1)">
       <use xlink:href="#DejaVuSans-8722"/>
       <use x="83.789062" xlink:href="#DejaVuSans-49"/>
       <use x="147.412109" xlink:href="#DejaVuSans-46"/>
       <use x="179.199219" xlink:href="#DejaVuSans-50"/>
       <use x="242.822266" xlink:href="#DejaVuSans-53"/>
      </g>
     </g>
    </g>
    <g id="ytick_3">
     <g id="line2d_21">
      <path clip-path="url(#pfd7d1b39d3)" d="M 71.357402 211.64007 
L 415.388976 211.64007 
" style="fill:none;stroke:#000000;stroke-dasharray:0.7,1.155;stroke-dashoffset:0;stroke-width:0.7;"/>
     </g>
     <g id="line2d_22">
      <g>
       <use style="stroke:#000000;stroke-width:0.8;" x="71.357402" xlink:href="#me02f9d6c51" y="211.64007"/>
      </g>
     </g>
     <g id="text_12">
      <!-- −1.00 -->
      <g transform="translate(33.712089 215.439289)scale(0.1 -0.1)">
       <use xlink:href="#DejaVuSans-8722"/>
       <use x="83.789062" xlink:href="#DejaVuSans-49"/>
       <use x="147.412109" xlink:href="#DejaVuSans-46"/>
       <use x="179.199219" xlink:href="#DejaVuSans-48"/>
       <use x="242.822266" xlink:href="#DejaVuSans-48"/>
      </g>
     </g>
    </g>
    <g id="ytick_4">
     <g id="line2d_23">
      <path clip-path="url(#pfd7d1b39d3)" d="M 71.357402 186.699179 
L 415.388976 186.699179 
" style="fill:none;stroke:#000000;stroke-dasharray:0.7,1.155;stroke-dashoffset:0;stroke-width:0.7;"/>
     </g>
     <g id="line2d_24">
      <g>
       <use style="stroke:#000000;stroke-width:0.8;" x="71.357402" xlink:href="#me02f9d6c51" y="186.699179"/>
      </g>
     </g>
     <g id="text_13">
      <!-- −0.75 -->
      <g transform="translate(33.712089 190.498398)scale(0.1 -0.1)">
       <use xlink:href="#DejaVuSans-8722"/>
       <use x="83.789062" xlink:href="#DejaVuSans-48"/>
       <use x="147.412109" xlink:href="#DejaVuSans-46"/>
       <use x="179.199219" xlink:href="#DejaVuSans-55"/>
       <use x="242.822266" xlink:href="#DejaVuSans-53"/>
      </g>
     </g>
    </g>
    <g id="ytick_5">
     <g id="line2d_25">
      <path clip-path="url(#pfd7d1b39d3)" d="M 71.357402 161.758287 
L 415.388976 161.758287 
" style="fill:none;stroke:#000000;stroke-dasharray:0.7,1.155;stroke-dashoffset:0;stroke-width:0.7;"/>
     </g>
     <g id="line2d_26">
      <g>
       <use style="stroke:#000000;stroke-width:0.8;" x="71.357402" xlink:href="#me02f9d6c51" y="161.758287"/>
      </g>
     </g>
     <g id="text_14">
      <!-- −0.50 -->
      <g transform="translate(33.712089 165.557506)scale(0.1 -0.1)">
       <use xlink:href="#DejaVuSans-8722"/>
       <use x="83.789062" xlink:href="#DejaVuSans-48"/>
       <use x="147.412109" xlink:href="#DejaVuSans-46"/>
       <use x="179.199219" xlink:href="#DejaVuSans-53"/>
       <use x="242.822266" xlink:href="#DejaVuSans-48"/>
      </g>
     </g>
    </g>
    <g id="ytick_6">
     <g id="line2d_27">
      <path clip-path="url(#pfd7d1b39d3)" d="M 71.357402 136.817396 
L 415.388976 136.817396 
" style="fill:none;stroke:#000000;stroke-dasharray:0.7,1.155;stroke-dashoffset:0;stroke-width:0.7;"/>
     </g>
     <g id="line2d_28">
      <g>
       <use style="stroke:#000000;stroke-width:0.8;" x="71.357402" xlink:href="#me02f9d6c51" y="136.817396"/>
      </g>
     </g>
     <g id="text_15">
      <!-- −0.25 -->
      <g transform="translate(33.712089 140.616615)scale(0.1 -0.1)">
       <use xlink:href="#DejaVuSans-8722"/>
       <use x="83.789062" xlink:href="#DejaVuSans-48"/>
       <use x="147.412109" xlink:href="#DejaVuSans-46"/>
       <use x="179.199219" xlink:href="#DejaVuSans-50"/>
       <use x="242.822266" xlink:href="#DejaVuSans-53"/>
      </g>
     </g>
    </g>
    <g id="ytick_7">
     <g id="line2d_29">
      <path clip-path="url(#pfd7d1b39d3)" d="M 71.357402 111.876504 
L 415.388976 111.876504 
" style="fill:none;stroke:#000000;stroke-dasharray:0.7,1.155;stroke-dashoffset:0;stroke-width:0.7;"/>
     </g>
     <g id="line2d_30">
      <g>
       <use style="stroke:#000000;stroke-width:0.8;" x="71.357402" xlink:href="#me02f9d6c51" y="111.876504"/>
      </g>
     </g>
     <g id="text_16">
      <!-- 0.00 -->
      <g transform="translate(42.091777 115.675723)scale(0.1 -0.1)">
       <use xlink:href="#DejaVuSans-48"/>
       <use x="63.623047" xlink:href="#DejaVuSans-46"/>
       <use x="95.410156" xlink:href="#DejaVuSans-48"/>
       <use x="159.033203" xlink:href="#DejaVuSans-48"/>
      </g>
     </g>
    </g>
    <g id="ytick_8">
     <g id="line2d_31">
      <path clip-path="url(#pfd7d1b39d3)" d="M 71.357402 86.935613 
L 415.388976 86.935613 
" style="fill:none;stroke:#000000;stroke-dasharray:0.7,1.155;stroke-dashoffset:0;stroke-width:0.7;"/>
     </g>
     <g id="line2d_32">
      <g>
       <use style="stroke:#000000;stroke-width:0.8;" x="71.357402" xlink:href="#me02f9d6c51" y="86.935613"/>
      </g>
     </g>
     <g id="text_17">
      <!-- 0.25 -->
      <g transform="translate(42.091777 90.734832)scale(0.1 -0.1)">
       <use xlink:href="#DejaVuSans-48"/>
       <use x="63.623047" xlink:href="#DejaVuSans-46"/>
       <use x="95.410156" xlink:href="#DejaVuSans-50"/>
       <use x="159.033203" xlink:href="#DejaVuSans-53"/>
      </g>
     </g>
    </g>
    <g id="ytick_9">
     <g id="line2d_33">
      <path clip-path="url(#pfd7d1b39d3)" d="M 71.357402 61.994721 
L 415.388976 61.994721 
" style="fill:none;stroke:#000000;stroke-dasharray:0.7,1.155;stroke-dashoffset:0;stroke-width:0.7;"/>
     </g>
     <g id="line2d_34">
      <g>
       <use style="stroke:#000000;stroke-width:0.8;" x="71.357402" xlink:href="#me02f9d6c51" y="61.994721"/>
      </g>
     </g>
     <g id="text_18">
      <!-- 0.50 -->
      <g transform="translate(42.091777 65.79394)scale(0.1 -0.1)">
       <use xlink:href="#DejaVuSans-48"/>
       <use x="63.623047" xlink:href="#DejaVuSans-46"/>
       <use x="95.410156" xlink:href="#DejaVuSans-53"/>
       <use x="159.033203" xlink:href="#DejaVuSans-48"/>
      </g>
     </g>
    </g>
    <g id="text_19">
     <!-- Valor -->
     <defs>
      <path d="M 28.609375 0 
L 0.78125 72.90625 
L 11.078125 72.90625 
L 34.1875 11.53125 
L 57.328125 72.90625 
L 67.578125 72.90625 
L 39.796875 0 
z
" id="DejaVuSans-86"/>
      <path d="M 9.421875 75.984375 
L 18.40625 75.984375 
L 18.40625 0 
L 9.421875 0 
z
" id="DejaVuSans-108"/>
     </defs>
     <g transform="translate(27.632402 166.000057)rotate(-90)scale(0.1 -0.1)">
      <use xlink:href="#DejaVuSans-86"/>
      <use x="60.658203" xlink:href="#DejaVuSans-97"/>
      <use x="121.9375" xlink:href="#DejaVuSans-108"/>
      <use x="149.720703" xlink:href="#DejaVuSans-111"/>
      <use x="210.902344" xlink:href="#DejaVuSans-114"/>
     </g>
    </g>
   </g>
   <g id="line2d_35">
    <path clip-path="url(#pfd7d1b39d3)" d="M 71.357402 102.067006 
L 244.019056 102.067006 
L 244.019056 103.116619 
L 415.388976 103.116619 
L 415.388976 103.116619 
" style="fill:none;stroke:#0000ff;stroke-dasharray:3.7,1.6;stroke-dashoffset:0;"/>
   </g>
   <g id="line2d_36">
    <path clip-path="url(#pfd7d1b39d3)" d="M 71.357402 111.876504 
L 71.787979 111.876504 
L 71.787979 102.118771 
L 72.649135 102.112267 
L 72.649135 102.006732 
L 76.524334 101.903534 
L 76.524334 101.883916 
L 80.399533 101.939976 
L 80.399533 102.013711 
L 98.053218 102.122832 
L 98.053218 102.129942 
L 132.068856 102.03222 
L 132.068856 101.966215 
L 140.68041 102.066273 
L 140.68041 102.092095 
L 209.57284 101.992473 
L 209.57284 101.975279 
L 237.990968 102.086357 
L 237.990968 102.089198 
L 244.019056 102.142327 
L 244.019056 102.552394 
L 249.616565 102.622419 
L 249.616565 102.669901 
L 252.630609 102.757143 
L 252.630609 102.86844 
L 261.672741 102.952831 
L 261.672741 103.001892 
L 268.131406 103.108076 
L 268.131406 103.113713 
L 308.605709 103.019787 
L 308.605709 102.9784 
L 321.52304 103.036877 
L 321.52304 103.10751 
L 415.388976 103.187488 
L 415.388976 103.187717 
" style="fill:none;stroke:#0000ff;stroke-linecap:square;"/>
   </g>
   <g id="line2d_37">
    <path clip-path="url(#pfd7d1b39d3)" d="M 71.357402 104.117013 
L 244.019056 104.117013 
L 244.019056 104.639503 
L 415.388976 104.639503 
L 415.388976 104.639503 
" style="fill:none;stroke:#ffa500;stroke-dasharray:3.7,1.6;stroke-dashoffset:0;"/>
   </g>
   <g id="line2d_38">
    <path clip-path="url(#pfd7d1b39d3)" d="M 71.357402 111.876504 
L 72.218557 111.876504 
L 72.218557 91.18389 
L 72.649135 91.18389 
L 72.649135 99.514091 
L 73.079712 99.514091 
L 73.079712 102.63959 
L 73.51029 102.63959 
L 73.51029 103.322401 
L 73.940868 103.322401 
L 73.940868 103.571754 
L 74.802023 103.681844 
L 74.802023 103.751697 
L 75.232601 103.751697 
L 75.232601 103.885193 
L 76.524334 103.984128 
L 76.524334 104.199032 
L 78.677222 104.307488 
L 78.677222 104.318816 
L 84.70531 104.216436 
L 84.70531 104.18743 
L 89.872242 104.087712 
L 89.872242 104.068051 
L 101.928418 104.106769 
L 101.928418 104.197921 
L 106.234195 104.175564 
L 106.234195 104.082012 
L 119.582103 104.174767 
L 119.582103 104.219547 
L 129.48539 104.110419 
L 129.48539 104.096912 
L 132.930011 104.191719 
L 132.930011 104.216472 
L 141.541565 104.110793 
L 141.541565 104.092062 
L 179.432402 104.062961 
L 179.432402 103.900227 
L 188.905111 103.99494 
L 188.905111 104.048306 
L 196.65551 104.084538 
L 196.65551 104.170039 
L 223.351326 104.113393 
L 223.351326 103.98257 
L 244.019056 104.005743 
L 244.019056 103.685021 
L 244.449633 103.685021 
L 244.449633 104.088838 
L 248.324832 104.161778 
L 248.324832 104.22506 
L 250.477721 104.256559 
L 250.477721 104.36391 
L 251.338876 104.454613 
L 251.338876 104.49368 
L 259.089275 104.58546 
L 259.089275 104.606356 
L 262.103319 104.619402 
L 262.103319 104.727169 
L 265.54794 104.650393 
L 265.54794 104.592347 
L 293.53549 104.675475 
L 293.53549 104.708386 
L 299.563578 104.813665 
L 299.563578 104.819977 
L 302.577621 104.7181 
L 302.577621 104.682524 
L 309.036287 104.735948 
L 309.036287 104.808986 
L 324.106506 104.70296 
L 324.106506 104.693879 
L 326.689972 104.586624 
L 326.689972 104.555132 
L 334.870948 104.65274 
L 334.870948 104.674305 
L 395.151825 104.587789 
L 395.151825 104.523025 
L 399.457602 104.631207 
L 399.457602 104.662396 
L 415.388976 104.647034 
L 415.388976 104.654162 
" style="fill:none;stroke:#ffa500;stroke-linecap:square;"/>
   </g>
   <g id="line2d_39">
    <path clip-path="url(#pfd7d1b39d3)" d="M 71.357402 243.612201 
L 244.019056 243.612201 
L 244.019056 251.220077 
L 415.388976 251.220077 
L 415.388976 251.220077 
" style="fill:none;stroke:#008000;stroke-dasharray:3.7,1.6;stroke-dashoffset:0;"/>
   </g>
   <g id="line2d_40">
    <path clip-path="url(#pfd7d1b39d3)" d="M 71.357402 111.876504 
L 72.218557 111.864259 
L 72.218557 113.914522 
L 72.649135 113.914522 
L 72.649135 199.285433 
L 73.079712 199.285433 
L 73.079712 231.900254 
L 73.51029 231.900254 
L 73.51029 238.074485 
L 73.940868 238.074485 
L 73.940868 240.082307 
L 74.371445 240.082307 
L 74.371445 240.892239 
L 74.802023 240.892239 
L 74.802023 241.369773 
L 75.232601 241.369773 
L 75.232601 242.227236 
L 75.663178 242.227236 
L 75.663178 242.430666 
L 76.524334 242.519393 
L 76.524334 242.958208 
L 76.954912 242.958208 
L 76.954912 243.574505 
L 77.816067 243.679773 
L 77.816067 243.999478 
L 80.399533 244.096182 
L 80.399533 244.126897 
L 82.552422 244.127186 
L 82.552422 244.004292 
L 83.844155 243.90761 
L 83.844155 243.875794 
L 85.566465 243.796084 
L 85.566465 243.74014 
L 87.288776 243.639507 
L 87.288776 243.622071 
L 94.178019 243.549029 
L 94.178019 243.50688 
L 98.053218 243.458876 
L 98.053218 243.828657 
L 102.789573 243.771837 
L 102.789573 243.674255 
L 104.511884 243.757579 
L 104.511884 243.816517 
L 108.387083 243.905422 
L 108.387083 244.005301 
L 111.401127 244.066065 
L 111.401127 244.12729 
L 111.831704 244.12729 
L 111.831704 243.868236 
L 112.69286 243.773971 
L 112.69286 243.65817 
L 113.123438 243.65817 
L 113.123438 243.503456 
L 115.276326 243.487187 
L 115.276326 243.838303 
L 120.012681 243.882128 
L 120.012681 243.957657 
L 121.734991 243.864306 
L 121.734991 243.688299 
L 128.193657 243.617306 
L 128.193657 243.48144 
L 129.48539 243.389458 
L 129.48539 243.304585 
L 131.207701 243.341834 
L 131.207701 243.423759 
L 133.791167 243.442683 
L 133.791167 243.557325 
L 134.221744 243.557325 
L 134.221744 243.699089 
L 136.805211 243.621763 
L 136.805211 243.552552 
L 139.819254 243.442424 
L 139.819254 243.428385 
L 143.263876 243.533512 
L 143.263876 243.563519 
L 145.416764 243.58557 
L 145.416764 243.370722 
L 148.430808 243.273597 
L 148.430808 243.237719 
L 151.444852 243.213405 
L 151.444852 243.080788 
L 155.750629 243.176106 
L 155.750629 243.253141 
L 156.181207 243.253141 
L 156.181207 243.40968 
L 157.042362 243.48556 
L 157.042362 243.543298 
L 158.334095 243.644416 
L 158.334095 243.667261 
L 165.223338 243.603726 
L 165.223338 243.553281 
L 168.237382 243.635244 
L 168.237382 243.724594 
L 170.820848 243.635284 
L 170.820848 243.59157 
L 172.112581 243.643879 
L 172.112581 243.719691 
L 172.543159 243.719691 
L 172.543159 243.604176 
L 173.834892 243.523465 
L 173.834892 243.470495 
L 176.418358 243.366809 
L 176.418358 243.258842 
L 177.279513 243.154463 
L 177.279513 243.126993 
L 179.432402 243.086118 
L 179.432402 242.995764 
L 179.86298 242.995764 
L 179.86298 242.860967 
L 180.724135 242.89219 
L 180.724135 242.986595 
L 184.168757 242.999177 
L 184.168757 243.140743 
L 186.321645 243.232968 
L 186.321645 243.256495 
L 188.905111 243.336998 
L 188.905111 243.470173 
L 190.627422 243.401805 
L 190.627422 243.676142 
L 191.058 243.676142 
L 191.058 243.812373 
L 197.947243 243.896942 
L 197.947243 244.000624 
L 199.238976 243.977354 
L 199.238976 243.838676 
L 200.530709 243.940009 
L 200.530709 243.950223 
L 201.822442 243.925906 
L 201.822442 243.794459 
L 203.114175 243.857626 
L 203.114175 243.965226 
L 206.128219 243.949846 
L 206.128219 243.78709 
L 206.989374 243.76054 
L 206.989374 243.538876 
L 207.419952 243.538876 
L 207.419952 243.680089 
L 210.864573 243.682764 
L 210.864573 243.817838 
L 211.295151 243.817838 
L 211.295151 243.630892 
L 212.156306 243.735477 
L 212.156306 243.766169 
L 215.17035 243.687975 
L 215.17035 243.562371 
L 215.600928 243.562371 
L 215.600928 243.673639 
L 219.906705 243.566468 
L 219.906705 243.449229 
L 223.351326 243.465475 
L 223.351326 243.137694 
L 223.781904 243.137694 
L 223.781904 243.281085 
L 224.643059 243.174614 
L 224.643059 243.071859 
L 227.226526 243.104678 
L 227.226526 243.194305 
L 229.379414 243.304026 
L 229.379414 243.335403 
L 233.254613 243.225273 
L 233.254613 243.201899 
L 236.268657 243.171845 
L 236.268657 243.466666 
L 239.282701 243.359048 
L 239.282701 243.350118 
L 241.435589 243.305885 
L 241.435589 243.500132 
L 242.296745 243.436132 
L 242.296745 243.381091 
L 244.019056 243.391614 
L 244.019056 243.626666 
L 244.449633 243.626666 
L 244.449633 244.77136 
L 245.310789 244.769848 
L 245.310789 245.082385 
L 245.741366 245.082385 
L 245.741366 245.448393 
L 247.894255 245.559248 
L 247.894255 245.836401 
L 248.324832 245.836401 
L 248.324832 246.194497 
L 249.616565 246.103382 
L 249.616565 246.573487 
L 250.047143 246.573487 
L 250.047143 247.347759 
L 250.477721 247.347759 
L 250.477721 248.022399 
L 250.908299 248.022399 
L 250.908299 248.506568 
L 251.338876 248.506568 
L 251.338876 248.691368 
L 251.769454 248.691368 
L 251.769454 248.870357 
L 253.061187 248.976994 
L 253.061187 249.311611 
L 254.35292 249.370013 
L 254.35292 249.490556 
L 255.214075 249.446976 
L 255.214075 249.35332 
L 256.936386 249.424905 
L 256.936386 249.498883 
L 258.658697 249.559749 
L 258.658697 249.823865 
L 259.089275 249.823865 
L 259.089275 249.961016 
L 259.519852 249.961016 
L 259.519852 250.330097 
L 259.95043 250.330097 
L 259.95043 250.452229 
L 261.242163 250.346389 
L 261.242163 250.325133 
L 262.103319 250.339186 
L 262.103319 250.617908 
L 263.825629 250.518741 
L 263.825629 250.439797 
L 265.978518 250.379602 
L 265.978518 250.298892 
L 266.839673 250.343327 
L 266.839673 250.570951 
L 267.270251 250.570951 
L 267.270251 250.95522 
L 268.131406 250.907929 
L 268.131406 251.109864 
L 271.576028 251.03062 
L 271.576028 250.962217 
L 279.757004 251.061588 
L 279.757004 251.108477 
L 285.354514 251.208966 
L 285.354514 251.329346 
L 288.368558 251.245056 
L 288.368558 251.153232 
L 291.813179 251.248456 
L 291.813179 251.311475 
L 293.53549 251.252148 
L 293.53549 251.47373 
L 294.396645 251.574356 
L 294.396645 251.608089 
L 298.271845 251.665672 
L 298.271845 251.726914 
L 301.285888 251.691751 
L 301.285888 251.604388 
L 302.147044 251.533694 
L 302.147044 251.369015 
L 302.577621 251.369015 
L 302.577621 251.198784 
L 305.161088 251.157588 
L 305.161088 251.019639 
L 309.036287 251.039338 
L 309.036287 251.202842 
L 310.758598 251.283108 
L 310.758598 251.351613 
L 314.203219 251.345678 
L 314.203219 251.473589 
L 315.064374 251.510059 
L 315.064374 251.36201 
L 318.508996 251.460572 
L 318.508996 251.489377 
L 324.967661 251.393736 
L 324.967661 251.368414 
L 326.689972 251.264597 
L 326.689972 251.19233 
L 327.981705 251.26045 
L 327.981705 251.377852 
L 328.412283 251.377852 
L 328.412283 251.511399 
L 335.732104 251.542867 
L 335.732104 251.346206 
L 337.884992 251.250454 
L 337.884992 251.222335 
L 340.468458 251.303288 
L 340.468458 251.404706 
L 340.899036 251.404706 
L 340.899036 251.524433 
L 341.329614 251.524433 
L 341.329614 251.639937 
L 344.774235 251.576143 
L 344.774235 251.507659 
L 346.065968 251.446114 
L 346.065968 251.353126 
L 348.649434 251.34923 
L 348.649434 251.239898 
L 353.816367 251.339133 
L 353.816367 251.384709 
L 355.538677 251.280526 
L 355.538677 251.26872 
L 357.260988 251.280986 
L 357.260988 251.408747 
L 358.552721 251.37689 
L 358.552721 251.286131 
L 361.136187 251.259874 
L 361.136187 251.440851 
L 364.150231 251.339963 
L 364.150231 251.322271 
L 368.02543 251.423551 
L 368.02543 251.43714 
L 370.608897 251.512617 
L 370.608897 251.555191 
L 375.345251 251.458909 
L 375.345251 251.356767 
L 379.22045 251.407929 
L 379.22045 251.615436 
L 379.651028 251.615436 
L 379.651028 251.731 
L 382.234494 251.644093 
L 382.234494 251.473818 
L 385.248538 251.400234 
L 385.248538 251.351816 
L 386.109693 251.375961 
L 386.109693 251.550681 
L 387.832004 251.515672 
L 387.832004 251.419328 
L 391.707203 251.315613 
L 391.707203 251.263576 
L 392.137781 251.263576 
L 392.137781 251.117799 
L 394.721247 251.009406 
L 394.721247 250.993115 
L 397.735291 251.097061 
L 397.735291 251.138113 
L 398.165869 251.138113 
L 398.165869 251.256049 
L 399.88818 251.250927 
L 399.88818 251.133664 
L 401.179913 251.098676 
L 401.179913 251.005137 
L 403.763379 251.08937 
L 403.763379 251.20891 
L 405.055112 251.293558 
L 405.055112 251.35606 
L 405.485689 251.35606 
L 405.485689 251.047339 
L 408.499733 251.020104 
L 408.499733 251.237398 
L 409.791466 251.298629 
L 409.791466 251.355587 
L 410.652622 251.431574 
L 410.652622 251.47251 
L 413.236088 251.474865 
L 413.236088 251.599337 
L 413.666666 251.599337 
L 413.666666 251.732685 
L 414.097243 251.732685 
L 414.097243 251.458315 
L 415.388976 251.51663 
L 415.388976 251.542156 
" style="fill:none;stroke:#008000;stroke-linecap:square;"/>
   </g>
   <g id="line2d_41">
    <path clip-path="url(#pfd7d1b39d3)" d="M 71.357402 62.335384 
L 244.019056 62.335384 
L 244.019056 55.45767 
L 415.388976 55.45767 
L 415.388976 55.45767 
" style="fill:none;stroke:#ff0000;stroke-dasharray:3.7,1.6;stroke-dashoffset:0;"/>
   </g>
   <g id="line2d_42">
    <path clip-path="url(#pfd7d1b39d3)" d="M 71.357402 111.876504 
L 72.649135 111.850536 
L 72.649135 152.627436 
L 73.079712 152.627436 
L 73.079712 78.246378 
L 73.51029 78.246378 
L 73.51029 68.515514 
L 73.940868 68.515514 
L 73.940868 65.869521 
L 74.371445 65.869521 
L 74.371445 64.910428 
L 74.802023 64.910428 
L 74.802023 64.383988 
L 75.232601 64.383988 
L 75.232601 63.485879 
L 75.663178 63.485879 
L 75.663178 63.281612 
L 76.524334 63.195096 
L 76.524334 62.975228 
L 76.954912 62.975228 
L 76.954912 62.377985 
L 77.816067 62.284156 
L 77.816067 62.009622 
L 81.691266 61.926357 
L 81.691266 61.875859 
L 82.982999 61.979532 
L 82.982999 62.002119 
L 85.135888 62.082524 
L 85.135888 62.144456 
L 86.858198 62.155148 
L 86.858198 62.282072 
L 95.90033 62.331634 
L 95.90033 62.399696 
L 98.053218 62.423789 
L 98.053218 62.167211 
L 107.525928 62.059494 
L 107.525928 62.032061 
L 111.401127 61.930251 
L 111.401127 61.862407 
L 111.831704 61.862407 
L 111.831704 62.098171 
L 112.69286 62.179698 
L 112.69286 62.276748 
L 113.123438 62.276748 
L 113.123438 62.403162 
L 115.276326 62.414228 
L 115.276326 62.170348 
L 121.734991 62.186395 
L 121.734991 62.333476 
L 128.193657 62.382814 
L 128.193657 62.464517 
L 129.48539 62.545702 
L 129.48539 62.619121 
L 133.791167 62.535676 
L 133.791167 62.444356 
L 139.819254 62.553785 
L 139.819254 62.564955 
L 143.694454 62.456387 
L 143.694454 62.450431 
L 146.27792 62.528429 
L 146.27792 62.602233 
L 151.444852 62.672556 
L 151.444852 62.76789 
L 155.320051 62.745142 
L 155.320051 62.655301 
L 156.181207 62.588977 
L 156.181207 62.458412 
L 157.47294 62.351119 
L 157.47294 62.311482 
L 172.973737 62.344873 
L 172.973737 62.429878 
L 176.418358 62.527929 
L 176.418358 62.62245 
L 179.001824 62.729468 
L 179.001824 62.778559 
L 179.86298 62.864087 
L 179.86298 62.945947 
L 180.724135 62.910987 
L 180.724135 62.824679 
L 185.891067 62.714601 
L 185.891067 62.665557 
L 188.905111 62.561867 
L 188.905111 62.481738 
L 190.627422 62.532947 
L 190.627422 62.303431 
L 191.488577 62.192508 
L 191.488577 62.145263 
L 197.947243 62.096669 
L 197.947243 62.002097 
L 199.238976 62.021012 
L 199.238976 62.134088 
L 203.114175 62.102176 
L 203.114175 62.016862 
L 206.558796 62.122517 
L 206.558796 62.15163 
L 206.989374 62.15163 
L 206.989374 62.353094 
L 207.419952 62.353094 
L 207.419952 62.231131 
L 210.864573 62.235686 
L 210.864573 62.117258 
L 211.295151 62.117258 
L 211.295151 62.266401 
L 215.17035 62.283446 
L 215.17035 62.398302 
L 216.462083 62.325375 
L 216.462083 62.251392 
L 219.476127 62.24796 
L 219.476127 62.37534 
L 223.351326 62.480576 
L 223.351326 62.679083 
L 223.781904 62.679083 
L 223.781904 62.520948 
L 224.643059 62.617352 
L 224.643059 62.705784 
L 228.948836 62.677657 
L 228.948836 62.573259 
L 234.546346 62.655481 
L 234.546346 62.700694 
L 236.268657 62.686655 
L 236.268657 62.482257 
L 244.019056 62.500076 
L 244.019056 62.287707 
L 244.449633 62.287707 
L 244.449633 61.486851 
L 245.310789 61.462584 
L 245.310789 61.184166 
L 245.741366 61.184166 
L 245.741366 60.888995 
L 247.463677 60.828073 
L 247.463677 60.702722 
L 247.894255 60.702722 
L 247.894255 60.418483 
L 248.324832 60.418483 
L 248.324832 60.075031 
L 249.616565 60.118656 
L 249.616565 59.586766 
L 250.047143 59.586766 
L 250.047143 58.8861 
L 250.477721 58.8861 
L 250.477721 58.309654 
L 250.908299 58.309654 
L 250.908299 57.910729 
L 251.338876 57.910729 
L 251.338876 57.763273 
L 251.769454 57.763273 
L 251.769454 57.625492 
L 253.061187 57.539225 
L 253.061187 57.315672 
L 254.35292 57.25336 
L 254.35292 57.15599 
L 258.228119 57.087138 
L 258.228119 56.987312 
L 258.658697 56.987312 
L 258.658697 56.745117 
L 259.089275 56.745117 
L 259.089275 56.627261 
L 259.519852 56.627261 
L 259.519852 56.322227 
L 262.103319 56.300092 
L 262.103319 56.116174 
L 264.256207 56.225053 
L 264.256207 56.240705 
L 266.839673 56.260808 
L 266.839673 56.050613 
L 267.270251 56.050613 
L 267.270251 55.717901 
L 268.131406 55.757224 
L 268.131406 55.594948 
L 276.312382 55.629465 
L 276.312382 55.714395 
L 279.757004 55.603301 
L 279.757004 55.561709 
L 285.354514 55.475557 
L 285.354514 55.376027 
L 288.368558 55.425322 
L 288.368558 55.507903 
L 291.813179 55.438424 
L 291.813179 55.382778 
L 293.53549 55.444039 
L 293.53549 55.253412 
L 297.841267 55.14868 
L 297.841267 55.127371 
L 301.716466 55.188304 
L 301.716466 55.249344 
L 302.147044 55.249344 
L 302.147044 55.385909 
L 302.577621 55.385909 
L 302.577621 55.52229 
L 305.161088 55.560232 
L 305.161088 55.652107 
L 309.036287 55.612373 
L 309.036287 55.523041 
L 310.758598 55.437302 
L 310.758598 55.380302 
L 314.633797 55.277825 
L 314.633797 55.248953 
L 316.356108 55.340055 
L 316.356108 55.366726 
L 318.939574 55.258001 
L 318.939574 55.226396 
L 325.398239 55.329677 
L 325.398239 55.341998 
L 326.689972 55.427318 
L 326.689972 55.467371 
L 327.981705 55.418202 
L 327.981705 55.317077 
L 328.842861 55.20672 
L 328.842861 55.128633 
L 332.287482 55.17629 
L 332.287482 55.270393 
L 336.162681 55.379792 
L 336.162681 55.388666 
L 340.899036 55.337919 
L 340.899036 55.243421 
L 342.621347 55.150296 
L 342.621347 55.126934 
L 345.204813 55.234034 
L 345.204813 55.291538 
L 348.649434 55.368183 
L 348.649434 55.465297 
L 353.816367 55.377636 
L 353.816367 55.338442 
L 370.178319 55.265898 
L 370.178319 55.2165 
L 375.345251 55.263683 
L 375.345251 55.344775 
L 379.22045 55.282906 
L 379.22045 55.103273 
L 383.09565 55.19941 
L 383.09565 55.279065 
L 386.109693 55.292551 
L 386.109693 55.121951 
L 390.41547 55.219983 
L 390.41547 55.235182 
L 392.137781 55.3241 
L 392.137781 55.440946 
L 395.151825 55.546861 
L 395.151825 55.579752 
L 398.165869 55.477891 
L 398.165869 55.387467 
L 400.318757 55.470098 
L 400.318757 55.500146 
L 405.055112 55.391406 
L 405.055112 55.337263 
L 405.485689 55.337263 
L 405.485689 55.594119 
L 408.499733 55.614393 
L 408.499733 55.468394 
L 410.222044 55.376772 
L 410.222044 55.323796 
L 413.236088 55.26764 
L 413.236088 55.152659 
L 413.666666 55.152659 
L 413.666666 55.036985 
L 414.097243 55.036985 
L 414.097243 55.265683 
L 415.388976 55.219453 
L 415.388976 55.200811 
" style="fill:none;stroke:#ff0000;stroke-linecap:square;"/>
   </g>
   <g id="patch_3">
    <path d="M 71.357402 261.630551 
L 71.357402 45.168 
" style="fill:none;stroke:#000000;stroke-linecap:square;stroke-linejoin:miter;stroke-width:0.8;"/>
   </g>
   <g id="patch_4">
    <path d="M 415.388976 261.630551 
L 415.388976 45.168 
" style="fill:none;stroke:#000000;stroke-linecap:square;stroke-linejoin:miter;stroke-width:0.8;"/>
   </g>
   <g id="patch_5">
    <path d="M 71.357402 261.630551 
L 415.388976 261.630551 
" style="fill:none;stroke:#000000;stroke-linecap:square;stroke-linejoin:miter;stroke-width:0.8;"/>
   </g>
   <g id="patch_6">
    <path d="M 71.357402 45.168 
L 415.388976 45.168 
" style="fill:none;stroke:#000000;stroke-linecap:square;stroke-linejoin:miter;stroke-width:0.8;"/>
   </g>
   <g id="text_20">
    <!-- Evolução temporal dos coeficientes estimados -->
    <defs>
     <path d="M 9.8125 72.90625 
L 55.90625 72.90625 
L 55.90625 64.59375 
L 19.671875 64.59375 
L 19.671875 43.015625 
L 54.390625 43.015625 
L 54.390625 34.71875 
L 19.671875 34.71875 
L 19.671875 8.296875 
L 56.78125 8.296875 
L 56.78125 0 
L 9.8125 0 
z
" id="DejaVuSans-69"/>
     <path d="M 2.984375 54.6875 
L 12.5 54.6875 
L 29.59375 8.796875 
L 46.6875 54.6875 
L 56.203125 54.6875 
L 35.6875 0 
L 23.484375 0 
z
" id="DejaVuSans-118"/>
     <path d="M 8.5 21.578125 
L 8.5 54.6875 
L 17.484375 54.6875 
L 17.484375 21.921875 
Q 17.484375 14.15625 20.5 10.265625 
Q 23.53125 6.390625 29.59375 6.390625 
Q 36.859375 6.390625 41.078125 11.03125 
Q 45.3125 15.671875 45.3125 23.6875 
L 45.3125 54.6875 
L 54.296875 54.6875 
L 54.296875 0 
L 45.3125 0 
L 45.3125 8.40625 
Q 42.046875 3.421875 37.71875 1 
Q 33.40625 -1.421875 27.6875 -1.421875 
Q 18.265625 -1.421875 13.375 4.4375 
Q 8.5 10.296875 8.5 21.578125 
z
M 31.109375 56 
z
" id="DejaVuSans-117"/>
     <path d="M 48.78125 52.59375 
L 48.78125 44.1875 
Q 44.96875 46.296875 41.140625 47.34375 
Q 37.3125 48.390625 33.40625 48.390625 
Q 24.65625 48.390625 19.8125 42.84375 
Q 14.984375 37.3125 14.984375 27.296875 
Q 14.984375 17.28125 19.8125 11.734375 
Q 24.65625 6.203125 33.40625 6.203125 
Q 37.3125 6.203125 41.140625 7.25 
Q 44.96875 8.296875 48.78125 10.40625 
L 48.78125 2.09375 
Q 45.015625 0.34375 40.984375 -0.53125 
Q 36.96875 -1.421875 32.421875 -1.421875 
Q 20.0625 -1.421875 12.78125 6.34375 
Q 5.515625 14.109375 5.515625 27.296875 
Q 5.515625 40.671875 12.859375 48.328125 
Q 20.21875 56 33.015625 56 
Q 37.15625 56 41.109375 55.140625 
Q 45.0625 54.296875 48.78125 52.59375 
z
M 36.078125 0 
Q 38.765625 -3.03125 40.078125 -5.59375 
Q 41.40625 -8.15625 41.40625 -10.5 
Q 41.40625 -14.84375 38.46875 -17.0625 
Q 35.546875 -19.28125 29.78125 -19.28125 
Q 27.546875 -19.28125 25.421875 -18.984375 
Q 23.296875 -18.703125 21.1875 -18.109375 
L 21.1875 -11.71875 
Q 22.859375 -12.546875 24.65625 -12.90625 
Q 26.46875 -13.28125 28.765625 -13.28125 
Q 31.640625 -13.28125 33.109375 -12.109375 
Q 34.578125 -10.9375 34.578125 -8.6875 
Q 34.578125 -7.234375 33.515625 -5.109375 
Q 32.46875 -2.984375 30.28125 0 
z
" id="DejaVuSans-231"/>
     <path d="M 34.28125 27.484375 
Q 23.390625 27.484375 19.1875 25 
Q 14.984375 22.515625 14.984375 16.5 
Q 14.984375 11.71875 18.140625 8.90625 
Q 21.296875 6.109375 26.703125 6.109375 
Q 34.1875 6.109375 38.703125 11.40625 
Q 43.21875 16.703125 43.21875 25.484375 
L 43.21875 27.484375 
z
M 52.203125 31.203125 
L 52.203125 0 
L 43.21875 0 
L 43.21875 8.296875 
Q 40.140625 3.328125 35.546875 0.953125 
Q 30.953125 -1.421875 24.3125 -1.421875 
Q 15.921875 -1.421875 10.953125 3.296875 
Q 6 8.015625 6 15.921875 
Q 6 25.140625 12.171875 29.828125 
Q 18.359375 34.515625 30.609375 34.515625 
L 43.21875 34.515625 
L 43.21875 35.40625 
Q 43.21875 41.609375 39.140625 45 
Q 35.0625 48.390625 27.6875 48.390625 
Q 23 48.390625 18.546875 47.265625 
Q 14.109375 46.140625 10.015625 43.890625 
L 10.015625 52.203125 
Q 14.9375 54.109375 19.578125 55.046875 
Q 24.21875 56 28.609375 56 
Q 40.484375 56 46.34375 49.84375 
Q 52.203125 43.703125 52.203125 31.203125 
z
M 28.8125 66.890625 
L 26.03125 69.578125 
Q 24.953125 70.5625 24.140625 71.015625 
Q 23.34375 71.484375 22.703125 71.484375 
Q 20.84375 71.484375 19.96875 69.703125 
Q 19.09375 67.921875 19 63.921875 
L 12.890625 63.921875 
Q 12.984375 70.515625 15.46875 74.09375 
Q 17.96875 77.6875 22.40625 77.6875 
Q 24.265625 77.6875 25.828125 77 
Q 27.390625 76.3125 29.203125 74.703125 
L 31.984375 72.015625 
Q 33.0625 71.046875 33.859375 70.578125 
Q 34.671875 70.125 35.296875 70.125 
Q 37.15625 70.125 38.03125 71.90625 
Q 38.921875 73.6875 39.015625 77.6875 
L 45.125 77.6875 
Q 45.015625 71.09375 42.53125 67.5 
Q 40.046875 63.921875 35.59375 63.921875 
Q 33.734375 63.921875 32.171875 64.59375 
Q 30.609375 65.28125 28.8125 66.890625 
z
" id="DejaVuSans-227"/>
     <path id="DejaVuSans-32"/>
     <path d="M 56.203125 29.59375 
L 56.203125 25.203125 
L 14.890625 25.203125 
Q 15.484375 15.921875 20.484375 11.0625 
Q 25.484375 6.203125 34.421875 6.203125 
Q 39.59375 6.203125 44.453125 7.46875 
Q 49.3125 8.734375 54.109375 11.28125 
L 54.109375 2.78125 
Q 49.265625 0.734375 44.1875 -0.34375 
Q 39.109375 -1.421875 33.890625 -1.421875 
Q 20.796875 -1.421875 13.15625 6.1875 
Q 5.515625 13.8125 5.515625 26.8125 
Q 5.515625 40.234375 12.765625 48.109375 
Q 20.015625 56 32.328125 56 
Q 43.359375 56 49.78125 48.890625 
Q 56.203125 41.796875 56.203125 29.59375 
z
M 47.21875 32.234375 
Q 47.125 39.59375 43.09375 43.984375 
Q 39.0625 48.390625 32.421875 48.390625 
Q 24.90625 48.390625 20.390625 44.140625 
Q 15.875 39.890625 15.1875 32.171875 
z
" id="DejaVuSans-101"/>
     <path d="M 18.109375 8.203125 
L 18.109375 -20.796875 
L 9.078125 -20.796875 
L 9.078125 54.6875 
L 18.109375 54.6875 
L 18.109375 46.390625 
Q 20.953125 51.265625 25.265625 53.625 
Q 29.59375 56 35.59375 56 
Q 45.5625 56 51.78125 48.09375 
Q 58.015625 40.1875 58.015625 27.296875 
Q 58.015625 14.40625 51.78125 6.484375 
Q 45.5625 -1.421875 35.59375 -1.421875 
Q 29.59375 -1.421875 25.265625 0.953125 
Q 20.953125 3.328125 18.109375 8.203125 
z
M 48.6875 27.296875 
Q 48.6875 37.203125 44.609375 42.84375 
Q 40.53125 48.484375 33.40625 48.484375 
Q 26.265625 48.484375 22.1875 42.84375 
Q 18.109375 37.203125 18.109375 27.296875 
Q 18.109375 17.390625 22.1875 11.75 
Q 26.265625 6.109375 33.40625 6.109375 
Q 40.53125 6.109375 44.609375 11.75 
Q 48.6875 17.390625 48.6875 27.296875 
z
" id="DejaVuSans-112"/>
     <path d="M 45.40625 46.390625 
L 45.40625 75.984375 
L 54.390625 75.984375 
L 54.390625 0 
L 45.40625 0 
L 45.40625 8.203125 
Q 42.578125 3.328125 38.25 0.953125 
Q 33.9375 -1.421875 27.875 -1.421875 
Q 17.96875 -1.421875 11.734375 6.484375 
Q 5.515625 14.40625 5.515625 27.296875 
Q 5.515625 40.1875 11.734375 48.09375 
Q 17.96875 56 27.875 56 
Q 33.9375 56 38.25 53.625 
Q 42.578125 51.265625 45.40625 46.390625 
z
M 14.796875 27.296875 
Q 14.796875 17.390625 18.875 11.75 
Q 22.953125 6.109375 30.078125 6.109375 
Q 37.203125 6.109375 41.296875 11.75 
Q 45.40625 17.390625 45.40625 27.296875 
Q 45.40625 37.203125 41.296875 42.84375 
Q 37.203125 48.484375 30.078125 48.484375 
Q 22.953125 48.484375 18.875 42.84375 
Q 14.796875 37.203125 14.796875 27.296875 
z
" id="DejaVuSans-100"/>
     <path d="M 48.78125 52.59375 
L 48.78125 44.1875 
Q 44.96875 46.296875 41.140625 47.34375 
Q 37.3125 48.390625 33.40625 48.390625 
Q 24.65625 48.390625 19.8125 42.84375 
Q 14.984375 37.3125 14.984375 27.296875 
Q 14.984375 17.28125 19.8125 11.734375 
Q 24.65625 6.203125 33.40625 6.203125 
Q 37.3125 6.203125 41.140625 7.25 
Q 44.96875 8.296875 48.78125 10.40625 
L 48.78125 2.09375 
Q 45.015625 0.34375 40.984375 -0.53125 
Q 36.96875 -1.421875 32.421875 -1.421875 
Q 20.0625 -1.421875 12.78125 6.34375 
Q 5.515625 14.109375 5.515625 27.296875 
Q 5.515625 40.671875 12.859375 48.328125 
Q 20.21875 56 33.015625 56 
Q 37.15625 56 41.109375 55.140625 
Q 45.0625 54.296875 48.78125 52.59375 
z
" id="DejaVuSans-99"/>
     <path d="M 37.109375 75.984375 
L 37.109375 68.5 
L 28.515625 68.5 
Q 23.6875 68.5 21.796875 66.546875 
Q 19.921875 64.59375 19.921875 59.515625 
L 19.921875 54.6875 
L 34.71875 54.6875 
L 34.71875 47.703125 
L 19.921875 47.703125 
L 19.921875 0 
L 10.890625 0 
L 10.890625 47.703125 
L 2.296875 47.703125 
L 2.296875 54.6875 
L 10.890625 54.6875 
L 10.890625 58.5 
Q 10.890625 67.625 15.140625 71.796875 
Q 19.390625 75.984375 28.609375 75.984375 
z
" id="DejaVuSans-102"/>
     <path d="M 9.421875 54.6875 
L 18.40625 54.6875 
L 18.40625 0 
L 9.421875 0 
z
M 9.421875 75.984375 
L 18.40625 75.984375 
L 18.40625 64.59375 
L 9.421875 64.59375 
z
" id="DejaVuSans-105"/>
     <path d="M 54.890625 33.015625 
L 54.890625 0 
L 45.90625 0 
L 45.90625 32.71875 
Q 45.90625 40.484375 42.875 44.328125 
Q 39.84375 48.1875 33.796875 48.1875 
Q 26.515625 48.1875 22.3125 43.546875 
Q 18.109375 38.921875 18.109375 30.90625 
L 18.109375 0 
L 9.078125 0 
L 9.078125 54.6875 
L 18.109375 54.6875 
L 18.109375 46.1875 
Q 21.34375 51.125 25.703125 53.5625 
Q 30.078125 56 35.796875 56 
Q 45.21875 56 50.046875 50.171875 
Q 54.890625 44.34375 54.890625 33.015625 
z
" id="DejaVuSans-110"/>
    </defs>
    <g transform="translate(80.532408 23.488438)scale(0.14 -0.14)">
     <use xlink:href="#DejaVuSans-69"/>
     <use x="63.183594" xlink:href="#DejaVuSans-118"/>
     <use x="122.363281" xlink:href="#DejaVuSans-111"/>
     <use x="183.544922" xlink:href="#DejaVuSans-108"/>
     <use x="211.328125" xlink:href="#DejaVuSans-117"/>
     <use x="274.707031" xlink:href="#DejaVuSans-231"/>
     <use x="329.6875" xlink:href="#DejaVuSans-227"/>
     <use x="390.966797" xlink:href="#DejaVuSans-111"/>
     <use x="452.148438" xlink:href="#DejaVuSans-32"/>
     <use x="483.935547" xlink:href="#DejaVuSans-116"/>
     <use x="523.144531" xlink:href="#DejaVuSans-101"/>
     <use x="584.667969" xlink:href="#DejaVuSans-109"/>
     <use x="682.080078" xlink:href="#DejaVuSans-112"/>
     <use x="745.556641" xlink:href="#DejaVuSans-111"/>
     <use x="806.738281" xlink:href="#DejaVuSans-114"/>
     <use x="847.851562" xlink:href="#DejaVuSans-97"/>
     <use x="909.130859" xlink:href="#DejaVuSans-108"/>
     <use x="936.914062" xlink:href="#DejaVuSans-32"/>
     <use x="968.701172" xlink:href="#DejaVuSans-100"/>
     <use x="1032.177734" xlink:href="#DejaVuSans-111"/>
     <use x="1093.359375" xlink:href="#DejaVuSans-115"/>
     <use x="1145.458984" xlink:href="#DejaVuSans-32"/>
     <use x="1177.246094" xlink:href="#DejaVuSans-99"/>
     <use x="1232.226562" xlink:href="#DejaVuSans-111"/>
     <use x="1293.408203" xlink:href="#DejaVuSans-101"/>
     <use x="1354.931641" xlink:href="#DejaVuSans-102"/>
     <use x="1390.136719" xlink:href="#DejaVuSans-105"/>
     <use x="1417.919922" xlink:href="#DejaVuSans-99"/>
     <use x="1472.900391" xlink:href="#DejaVuSans-105"/>
     <use x="1500.683594" xlink:href="#DejaVuSans-101"/>
     <use x="1562.207031" xlink:href="#DejaVuSans-110"/>
     <use x="1625.585938" xlink:href="#DejaVuSans-116"/>
     <use x="1664.794922" xlink:href="#DejaVuSans-101"/>
     <use x="1726.318359" xlink:href="#DejaVuSans-115"/>
     <use x="1778.417969" xlink:href="#DejaVuSans-32"/>
     <use x="1810.205078" xlink:href="#DejaVuSans-101"/>
     <use x="1871.728516" xlink:href="#DejaVuSans-115"/>
     <use x="1923.828125" xlink:href="#DejaVuSans-116"/>
     <use x="1963.037109" xlink:href="#DejaVuSans-105"/>
     <use x="1990.820312" xlink:href="#DejaVuSans-109"/>
     <use x="2088.232422" xlink:href="#DejaVuSans-97"/>
     <use x="2149.511719" xlink:href="#DejaVuSans-100"/>
     <use x="2212.988281" xlink:href="#DejaVuSans-111"/>
     <use x="2274.169922" xlink:href="#DejaVuSans-115"/>
    </g>
    <!-- para MQR com fator de esquecimento ($\lambda$ = 0.95) -->
    <defs>
     <path d="M 9.8125 72.90625 
L 24.515625 72.90625 
L 43.109375 23.296875 
L 61.8125 72.90625 
L 76.515625 72.90625 
L 76.515625 0 
L 66.890625 0 
L 66.890625 64.015625 
L 48.09375 14.015625 
L 38.1875 14.015625 
L 19.390625 64.015625 
L 19.390625 0 
L 9.8125 0 
z
" id="DejaVuSans-77"/>
     <path d="M 39.40625 66.21875 
Q 28.65625 66.21875 22.328125 58.203125 
Q 16.015625 50.203125 16.015625 36.375 
Q 16.015625 22.609375 22.328125 14.59375 
Q 28.65625 6.59375 39.40625 6.59375 
Q 50.140625 6.59375 56.421875 14.59375 
Q 62.703125 22.609375 62.703125 36.375 
Q 62.703125 50.203125 56.421875 58.203125 
Q 50.140625 66.21875 39.40625 66.21875 
z
M 53.21875 1.3125 
L 66.21875 -12.890625 
L 54.296875 -12.890625 
L 43.5 -1.21875 
Q 41.890625 -1.3125 41.03125 -1.359375 
Q 40.1875 -1.421875 39.40625 -1.421875 
Q 24.03125 -1.421875 14.8125 8.859375 
Q 5.609375 19.140625 5.609375 36.375 
Q 5.609375 53.65625 14.8125 63.9375 
Q 24.03125 74.21875 39.40625 74.21875 
Q 54.734375 74.21875 63.90625 63.9375 
Q 73.09375 53.65625 73.09375 36.375 
Q 73.09375 23.6875 67.984375 14.640625 
Q 62.890625 5.609375 53.21875 1.3125 
z
" id="DejaVuSans-81"/>
     <path d="M 44.390625 34.1875 
Q 47.5625 33.109375 50.5625 29.59375 
Q 53.5625 26.078125 56.59375 19.921875 
L 66.609375 0 
L 56 0 
L 46.6875 18.703125 
Q 43.0625 26.03125 39.671875 28.421875 
Q 36.28125 30.8125 30.421875 30.8125 
L 19.671875 30.8125 
L 19.671875 0 
L 9.8125 0 
L 9.8125 72.90625 
L 32.078125 72.90625 
Q 44.578125 72.90625 50.734375 67.671875 
Q 56.890625 62.453125 56.890625 51.90625 
Q 56.890625 45.015625 53.6875 40.46875 
Q 50.484375 35.9375 44.390625 34.1875 
z
M 19.671875 64.796875 
L 19.671875 38.921875 
L 32.078125 38.921875 
Q 39.203125 38.921875 42.84375 42.21875 
Q 46.484375 45.515625 46.484375 51.90625 
Q 46.484375 58.296875 42.84375 61.546875 
Q 39.203125 64.796875 32.078125 64.796875 
z
" id="DejaVuSans-82"/>
     <path d="M 14.796875 27.296875 
Q 14.796875 17.390625 18.875 11.75 
Q 22.953125 6.109375 30.078125 6.109375 
Q 37.203125 6.109375 41.296875 11.75 
Q 45.40625 17.390625 45.40625 27.296875 
Q 45.40625 37.203125 41.296875 42.84375 
Q 37.203125 48.484375 30.078125 48.484375 
Q 22.953125 48.484375 18.875 42.84375 
Q 14.796875 37.203125 14.796875 27.296875 
z
M 45.40625 8.203125 
Q 42.578125 3.328125 38.25 0.953125 
Q 33.9375 -1.421875 27.875 -1.421875 
Q 17.96875 -1.421875 11.734375 6.484375 
Q 5.515625 14.40625 5.515625 27.296875 
Q 5.515625 40.1875 11.734375 48.09375 
Q 17.96875 56 27.875 56 
Q 33.9375 56 38.25 53.625 
Q 42.578125 51.265625 45.40625 46.390625 
L 45.40625 54.6875 
L 54.390625 54.6875 
L 54.390625 -20.796875 
L 45.40625 -20.796875 
z
" id="DejaVuSans-113"/>
     <path d="M 31 75.875 
Q 24.46875 64.65625 21.28125 53.65625 
Q 18.109375 42.671875 18.109375 31.390625 
Q 18.109375 20.125 21.3125 9.0625 
Q 24.515625 -2 31 -13.1875 
L 23.1875 -13.1875 
Q 15.875 -1.703125 12.234375 9.375 
Q 8.59375 20.453125 8.59375 31.390625 
Q 8.59375 42.28125 12.203125 53.3125 
Q 15.828125 64.359375 23.1875 75.875 
z
" id="DejaVuSans-40"/>
     <path d="M 36.71875 67.4375 
L 48.828125 0 
L 39.3125 0 
L 31.84375 40.4375 
L 5.125 0 
L -4.390625 0 
L 29.734375 52.4375 
L 28.03125 62.109375 
Q 26.953125 68.265625 21.734375 68.265625 
L 17.046875 68.265625 
L 18.5 75.984375 
L 24.21875 75.875 
Q 35.203125 75.734375 36.71875 67.4375 
z
" id="DejaVuSans-Oblique-955"/>
     <path d="M 10.59375 45.40625 
L 73.1875 45.40625 
L 73.1875 37.203125 
L 10.59375 37.203125 
z
M 10.59375 25.484375 
L 73.1875 25.484375 
L 73.1875 17.1875 
L 10.59375 17.1875 
z
" id="DejaVuSans-61"/>
     <path d="M 10.984375 1.515625 
L 10.984375 10.5 
Q 14.703125 8.734375 18.5 7.8125 
Q 22.3125 6.890625 25.984375 6.890625 
Q 35.75 6.890625 40.890625 13.453125 
Q 46.046875 20.015625 46.78125 33.40625 
Q 43.953125 29.203125 39.59375 26.953125 
Q 35.25 24.703125 29.984375 24.703125 
Q 19.046875 24.703125 12.671875 31.3125 
Q 6.296875 37.9375 6.296875 49.421875 
Q 6.296875 60.640625 12.9375 67.421875 
Q 19.578125 74.21875 30.609375 74.21875 
Q 43.265625 74.21875 49.921875 64.515625 
Q 56.59375 54.828125 56.59375 36.375 
Q 56.59375 19.140625 48.40625 8.859375 
Q 40.234375 -1.421875 26.421875 -1.421875 
Q 22.703125 -1.421875 18.890625 -0.6875 
Q 15.09375 0.046875 10.984375 1.515625 
z
M 30.609375 32.421875 
Q 37.25 32.421875 41.125 36.953125 
Q 45.015625 41.5 45.015625 49.421875 
Q 45.015625 57.28125 41.125 61.84375 
Q 37.25 66.40625 30.609375 66.40625 
Q 23.96875 66.40625 20.09375 61.84375 
Q 16.21875 57.28125 16.21875 49.421875 
Q 16.21875 41.5 20.09375 36.953125 
Q 23.96875 32.421875 30.609375 32.421875 
z
" id="DejaVuSans-57"/>
     <path d="M 8.015625 75.875 
L 15.828125 75.875 
Q 23.140625 64.359375 26.78125 53.3125 
Q 30.421875 42.28125 30.421875 31.390625 
Q 30.421875 20.453125 26.78125 9.375 
Q 23.140625 -1.703125 15.828125 -13.1875 
L 8.015625 -13.1875 
Q 14.5 -2 17.703125 9.0625 
Q 20.90625 20.125 20.90625 31.390625 
Q 20.90625 42.671875 17.703125 53.65625 
Q 14.5 64.65625 8.015625 75.875 
z
" id="DejaVuSans-41"/>
    </defs>
    <g transform="translate(72.293189 39.168)scale(0.14 -0.14)">
     <use transform="translate(0 0.015625)" xlink:href="#DejaVuSans-112"/>
     <use transform="translate(63.476562 0.015625)" xlink:href="#DejaVuSans-97"/>
     <use transform="translate(124.755859 0.015625)" xlink:href="#DejaVuSans-114"/>
     <use transform="translate(165.869141 0.015625)" xlink:href="#DejaVuSans-97"/>
     <use transform="translate(227.148438 0.015625)" xlink:href="#DejaVuSans-32"/>
     <use transform="translate(258.935547 0.015625)" xlink:href="#DejaVuSans-77"/>
     <use transform="translate(345.214844 0.015625)" xlink:href="#DejaVuSans-81"/>
     <use transform="translate(423.925781 0.015625)" xlink:href="#DejaVuSans-82"/>
     <use transform="translate(493.408203 0.015625)" xlink:href="#DejaVuSans-32"/>
     <use transform="translate(525.195312 0.015625)" xlink:href="#DejaVuSans-99"/>
     <use transform="translate(580.175781 0.015625)" xlink:href="#DejaVuSans-111"/>
     <use transform="translate(641.357422 0.015625)" xlink:href="#DejaVuSans-109"/>
     <use transform="translate(738.769531 0.015625)" xlink:href="#DejaVuSans-32"/>
     <use transform="translate(770.556641 0.015625)" xlink:href="#DejaVuSans-102"/>
     <use transform="translate(805.761719 0.015625)" xlink:href="#DejaVuSans-97"/>
     <use transform="translate(867.041016 0.015625)" xlink:href="#DejaVuSans-116"/>
     <use transform="translate(906.25 0.015625)" xlink:href="#DejaVuSans-111"/>
     <use transform="translate(967.431641 0.015625)" xlink:href="#DejaVuSans-114"/>
     <use transform="translate(1008.544922 0.015625)" xlink:href="#DejaVuSans-32"/>
     <use transform="translate(1040.332031 0.015625)" xlink:href="#DejaVuSans-100"/>
     <use transform="translate(1103.808594 0.015625)" xlink:href="#DejaVuSans-101"/>
     <use transform="translate(1165.332031 0.015625)" xlink:href="#DejaVuSans-32"/>
     <use transform="translate(1197.119141 0.015625)" xlink:href="#DejaVuSans-101"/>
     <use transform="translate(1258.642578 0.015625)" xlink:href="#DejaVuSans-115"/>
     <use transform="translate(1310.742188 0.015625)" xlink:href="#DejaVuSans-113"/>
     <use transform="translate(1374.21875 0.015625)" xlink:href="#DejaVuSans-117"/>
     <use transform="translate(1437.597656 0.015625)" xlink:href="#DejaVuSans-101"/>
     <use transform="translate(1499.121094 0.015625)" xlink:href="#DejaVuSans-99"/>
     <use transform="translate(1554.101562 0.015625)" xlink:href="#DejaVuSans-105"/>
     <use transform="translate(1581.884766 0.015625)" xlink:href="#DejaVuSans-109"/>
     <use transform="translate(1679.296875 0.015625)" xlink:href="#DejaVuSans-101"/>
     <use transform="translate(1740.820312 0.015625)" xlink:href="#DejaVuSans-110"/>
     <use transform="translate(1804.199219 0.015625)" xlink:href="#DejaVuSans-116"/>
     <use transform="translate(1843.408203 0.015625)" xlink:href="#DejaVuSans-111"/>
     <use transform="translate(1904.589844 0.015625)" xlink:href="#DejaVuSans-32"/>
     <use transform="translate(1936.376953 0.015625)" xlink:href="#DejaVuSans-40"/>
     <use transform="translate(1975.390625 0.015625)" xlink:href="#DejaVuSans-Oblique-955"/>
     <use transform="translate(2034.570312 0.015625)" xlink:href="#DejaVuSans-32"/>
     <use transform="translate(2066.357422 0.015625)" xlink:href="#DejaVuSans-61"/>
     <use transform="translate(2150.146484 0.015625)" xlink:href="#DejaVuSans-32"/>
     <use transform="translate(2181.933594 0.015625)" xlink:href="#DejaVuSans-48"/>
     <use transform="translate(2245.556641 0.015625)" xlink:href="#DejaVuSans-46"/>
     <use transform="translate(2277.34375 0.015625)" xlink:href="#DejaVuSans-57"/>
     <use transform="translate(2340.966797 0.015625)" xlink:href="#DejaVuSans-53"/>
     <use transform="translate(2404.589844 0.015625)" xlink:href="#DejaVuSans-41"/>
    </g>
   </g>
   <g id="legend_1">
    <g id="patch_7">
     <path d="M 302.688976 184.255526 
L 408.388976 184.255526 
Q 410.388976 184.255526 410.388976 182.255526 
L 410.388976 124.543026 
Q 410.388976 122.543026 408.388976 122.543026 
L 302.688976 122.543026 
Q 300.688976 122.543026 300.688976 124.543026 
L 300.688976 182.255526 
Q 300.688976 184.255526 302.688976 184.255526 
z
" style="fill:#ffffff;opacity:0.8;stroke:#cccccc;stroke-linejoin:miter;"/>
    </g>
    <g id="line2d_43">
     <path d="M 304.688976 130.641463 
L 324.688976 130.641463 
" style="fill:none;stroke:#0000ff;stroke-linecap:square;"/>
    </g>
    <g id="line2d_44"/>
    <g id="text_21">
     <!-- Coeficiente $\bf{b1}$ -->
     <defs>
      <path d="M 64.40625 67.28125 
L 64.40625 56.890625 
Q 59.421875 61.53125 53.78125 63.8125 
Q 48.140625 66.109375 41.796875 66.109375 
Q 29.296875 66.109375 22.65625 58.46875 
Q 16.015625 50.828125 16.015625 36.375 
Q 16.015625 21.96875 22.65625 14.328125 
Q 29.296875 6.6875 41.796875 6.6875 
Q 48.140625 6.6875 53.78125 8.984375 
Q 59.421875 11.28125 64.40625 15.921875 
L 64.40625 5.609375 
Q 59.234375 2.09375 53.4375 0.328125 
Q 47.65625 -1.421875 41.21875 -1.421875 
Q 24.65625 -1.421875 15.125 8.703125 
Q 5.609375 18.84375 5.609375 36.375 
Q 5.609375 53.953125 15.125 64.078125 
Q 24.65625 74.21875 41.21875 74.21875 
Q 47.75 74.21875 53.53125 72.484375 
Q 59.328125 70.75 64.40625 67.28125 
z
" id="DejaVuSans-67"/>
      <path d="M 37.5 11.28125 
Q 43.109375 11.28125 46.0625 15.375 
Q 49.03125 19.484375 49.03125 27.296875 
Q 49.03125 35.109375 46.0625 39.203125 
Q 43.109375 43.3125 37.5 43.3125 
Q 31.890625 43.3125 28.875 39.1875 
Q 25.875 35.0625 25.875 27.296875 
Q 25.875 19.53125 28.875 15.40625 
Q 31.890625 11.28125 37.5 11.28125 
z
M 25.875 46.6875 
Q 29.5 51.46875 33.890625 53.734375 
Q 38.28125 56 44 56 
Q 54.109375 56 60.59375 47.96875 
Q 67.09375 39.9375 67.09375 27.296875 
Q 67.09375 14.65625 60.59375 6.609375 
Q 54.109375 -1.421875 44 -1.421875 
Q 38.28125 -1.421875 33.890625 0.84375 
Q 29.5 3.125 25.875 7.90625 
L 25.875 0 
L 8.40625 0 
L 8.40625 75.984375 
L 25.875 75.984375 
z
" id="DejaVuSans-Bold-98"/>
      <path d="M 11.71875 12.984375 
L 28.328125 12.984375 
L 28.328125 60.109375 
L 11.28125 56.59375 
L 11.28125 69.390625 
L 28.21875 72.90625 
L 46.09375 72.90625 
L 46.09375 12.984375 
L 62.703125 12.984375 
L 62.703125 0 
L 11.71875 0 
z
" id="DejaVuSans-Bold-49"/>
     </defs>
     <g transform="translate(332.688976 134.141463)scale(0.1 -0.1)">
      <use transform="translate(0 0.015625)" xlink:href="#DejaVuSans-67"/>
      <use transform="translate(69.824219 0.015625)" xlink:href="#DejaVuSans-111"/>
      <use transform="translate(131.005859 0.015625)" xlink:href="#DejaVuSans-101"/>
      <use transform="translate(192.529297 0.015625)" xlink:href="#DejaVuSans-102"/>
      <use transform="translate(227.734375 0.015625)" xlink:href="#DejaVuSans-105"/>
      <use transform="translate(255.517578 0.015625)" xlink:href="#DejaVuSans-99"/>
      <use transform="translate(310.498047 0.015625)" xlink:href="#DejaVuSans-105"/>
      <use transform="translate(338.28125 0.015625)" xlink:href="#DejaVuSans-101"/>
      <use transform="translate(399.804688 0.015625)" xlink:href="#DejaVuSans-110"/>
      <use transform="translate(463.183594 0.015625)" xlink:href="#DejaVuSans-116"/>
      <use transform="translate(502.392578 0.015625)" xlink:href="#DejaVuSans-101"/>
      <use transform="translate(563.916016 0.015625)" xlink:href="#DejaVuSans-32"/>
      <use transform="translate(595.703125 0.015625)" xlink:href="#DejaVuSans-Bold-98"/>
      <use transform="translate(667.285156 0.015625)" xlink:href="#DejaVuSans-Bold-49"/>
     </g>
    </g>
    <g id="line2d_45">
     <path d="M 304.688976 145.319588 
L 324.688976 145.319588 
" style="fill:none;stroke:#ffa500;stroke-linecap:square;"/>
    </g>
    <g id="line2d_46"/>
    <g id="text_22">
     <!-- Coeficiente $\bf{b2}$ -->
     <defs>
      <path d="M 28.8125 13.8125 
L 60.890625 13.8125 
L 60.890625 0 
L 7.90625 0 
L 7.90625 13.8125 
L 34.515625 37.3125 
Q 38.09375 40.53125 39.796875 43.609375 
Q 41.5 46.6875 41.5 50 
Q 41.5 55.125 38.0625 58.25 
Q 34.625 61.375 28.90625 61.375 
Q 24.515625 61.375 19.28125 59.5 
Q 14.0625 57.625 8.109375 53.90625 
L 8.109375 69.921875 
Q 14.453125 72.015625 20.65625 73.109375 
Q 26.859375 74.21875 32.8125 74.21875 
Q 45.90625 74.21875 53.15625 68.453125 
Q 60.40625 62.703125 60.40625 52.390625 
Q 60.40625 46.4375 57.328125 41.28125 
Q 54.25 36.140625 44.390625 27.484375 
z
" id="DejaVuSans-Bold-50"/>
     </defs>
     <g transform="translate(332.688976 148.819588)scale(0.1 -0.1)">
      <use transform="translate(0 0.015625)" xlink:href="#DejaVuSans-67"/>
      <use transform="translate(69.824219 0.015625)" xlink:href="#DejaVuSans-111"/>
      <use transform="translate(131.005859 0.015625)" xlink:href="#DejaVuSans-101"/>
      <use transform="translate(192.529297 0.015625)" xlink:href="#DejaVuSans-102"/>
      <use transform="translate(227.734375 0.015625)" xlink:href="#DejaVuSans-105"/>
      <use transform="translate(255.517578 0.015625)" xlink:href="#DejaVuSans-99"/>
      <use transform="translate(310.498047 0.015625)" xlink:href="#DejaVuSans-105"/>
      <use transform="translate(338.28125 0.015625)" xlink:href="#DejaVuSans-101"/>
      <use transform="translate(399.804688 0.015625)" xlink:href="#DejaVuSans-110"/>
      <use transform="translate(463.183594 0.015625)" xlink:href="#DejaVuSans-116"/>
      <use transform="translate(502.392578 0.015625)" xlink:href="#DejaVuSans-101"/>
      <use transform="translate(563.916016 0.015625)" xlink:href="#DejaVuSans-32"/>
      <use transform="translate(595.703125 0.015625)" xlink:href="#DejaVuSans-Bold-98"/>
      <use transform="translate(667.285156 0.015625)" xlink:href="#DejaVuSans-Bold-50"/>
     </g>
    </g>
    <g id="line2d_47">
     <path d="M 304.688976 159.997713 
L 324.688976 159.997713 
" style="fill:none;stroke:#008000;stroke-linecap:square;"/>
    </g>
    <g id="line2d_48"/>
    <g id="text_23">
     <!-- Coeficiente $\bf{a1}$ -->
     <defs>
      <path d="M 32.90625 24.609375 
Q 27.4375 24.609375 24.671875 22.75 
Q 21.921875 20.90625 21.921875 17.28125 
Q 21.921875 13.96875 24.140625 12.078125 
Q 26.375 10.203125 30.328125 10.203125 
Q 35.25 10.203125 38.625 13.734375 
Q 42 17.28125 42 22.609375 
L 42 24.609375 
z
M 59.625 31.203125 
L 59.625 0 
L 42 0 
L 42 8.109375 
Q 38.484375 3.125 34.078125 0.84375 
Q 29.6875 -1.421875 23.390625 -1.421875 
Q 14.890625 -1.421875 9.59375 3.53125 
Q 4.296875 8.5 4.296875 16.40625 
Q 4.296875 26.03125 10.90625 30.515625 
Q 17.53125 35.015625 31.6875 35.015625 
L 42 35.015625 
L 42 36.375 
Q 42 40.53125 38.71875 42.453125 
Q 35.453125 44.390625 28.515625 44.390625 
Q 22.90625 44.390625 18.0625 43.265625 
Q 13.234375 42.140625 9.078125 39.890625 
L 9.078125 53.21875 
Q 14.703125 54.59375 20.359375 55.296875 
Q 26.03125 56 31.6875 56 
Q 46.484375 56 53.046875 50.171875 
Q 59.625 44.34375 59.625 31.203125 
z
" id="DejaVuSans-Bold-97"/>
     </defs>
     <g transform="translate(332.688976 163.497713)scale(0.1 -0.1)">
      <use transform="translate(0 0.015625)" xlink:href="#DejaVuSans-67"/>
      <use transform="translate(69.824219 0.015625)" xlink:href="#DejaVuSans-111"/>
      <use transform="translate(131.005859 0.015625)" xlink:href="#DejaVuSans-101"/>
      <use transform="translate(192.529297 0.015625)" xlink:href="#DejaVuSans-102"/>
      <use transform="translate(227.734375 0.015625)" xlink:href="#DejaVuSans-105"/>
      <use transform="translate(255.517578 0.015625)" xlink:href="#DejaVuSans-99"/>
      <use transform="translate(310.498047 0.015625)" xlink:href="#DejaVuSans-105"/>
      <use transform="translate(338.28125 0.015625)" xlink:href="#DejaVuSans-101"/>
      <use transform="translate(399.804688 0.015625)" xlink:href="#DejaVuSans-110"/>
      <use transform="translate(463.183594 0.015625)" xlink:href="#DejaVuSans-116"/>
      <use transform="translate(502.392578 0.015625)" xlink:href="#DejaVuSans-101"/>
      <use transform="translate(563.916016 0.015625)" xlink:href="#DejaVuSans-32"/>
      <use transform="translate(595.703125 0.015625)" xlink:href="#DejaVuSans-Bold-97"/>
      <use transform="translate(663.183594 0.015625)" xlink:href="#DejaVuSans-Bold-49"/>
     </g>
    </g>
    <g id="line2d_49">
     <path d="M 304.688976 174.675838 
L 324.688976 174.675838 
" style="fill:none;stroke:#ff0000;stroke-linecap:square;"/>
    </g>
    <g id="line2d_50"/>
    <g id="text_24">
     <!-- Coeficiente $\bf{a2}$ -->
     <g transform="translate(332.688976 178.175838)scale(0.1 -0.1)">
      <use transform="translate(0 0.015625)" xlink:href="#DejaVuSans-67"/>
      <use transform="translate(69.824219 0.015625)" xlink:href="#DejaVuSans-111"/>
      <use transform="translate(131.005859 0.015625)" xlink:href="#DejaVuSans-101"/>
      <use transform="translate(192.529297 0.015625)" xlink:href="#DejaVuSans-102"/>
      <use transform="translate(227.734375 0.015625)" xlink:href="#DejaVuSans-105"/>
      <use transform="translate(255.517578 0.015625)" xlink:href="#DejaVuSans-99"/>
      <use transform="translate(310.498047 0.015625)" xlink:href="#DejaVuSans-105"/>
      <use transform="translate(338.28125 0.015625)" xlink:href="#DejaVuSans-101"/>
      <use transform="translate(399.804688 0.015625)" xlink:href="#DejaVuSans-110"/>
      <use transform="translate(463.183594 0.015625)" xlink:href="#DejaVuSans-116"/>
      <use transform="translate(502.392578 0.015625)" xlink:href="#DejaVuSans-101"/>
      <use transform="translate(563.916016 0.015625)" xlink:href="#DejaVuSans-32"/>
      <use transform="translate(595.703125 0.015625)" xlink:href="#DejaVuSans-Bold-97"/>
      <use transform="translate(663.183594 0.015625)" xlink:href="#DejaVuSans-Bold-50"/>
     </g>
    </g>
   </g>
  </g>
 </g>
 <defs>
  <clipPath id="pfd7d1b39d3">
   <rect height="216.462551" width="344.031575" x="71.357402" y="45.168"/>
  </clipPath>
 </defs>
</svg>
