<?xml version="1.0" encoding="utf-8" standalone="no"?>
<!DOCTYPE svg PUBLIC "-//W3C//DTD SVG 1.1//EN"
  "http://www.w3.org/Graphics/SVG/1.1/DTD/svg11.dtd">
<!-- Created with matplotlib (https://matplotlib.org/) -->
<svg height="297.637795pt" version="1.1" viewBox="0 0 439.370079 297.637795" width="439.370079pt" xmlns="http://www.w3.org/2000/svg" xmlns:xlink="http://www.w3.org/1999/xlink">
 <defs>
  <style type="text/css">
*{stroke-linecap:butt;stroke-linejoin:round;}
  </style>
 </defs>
 <g id="figure_1">
  <g id="patch_1">
   <path d="M 0 297.637795 
L 439.370079 297.637795 
L 439.370079 0 
L 0 0 
z
" style="fill:#ffffff;"/>
  </g>
  <g id="axes_1">
   <g id="patch_2">
    <path d="M 71.357402 261.630551 
L 415.388976 261.630551 
L 415.388976 43.44 
L 71.357402 43.44 
z
" style="fill:#ffffff;"/>
   </g>
   <g id="matplotlib.axis_1">
    <g id="xtick_1">
     <g id="line2d_1">
      <path clip-path="url(#pd3b829320e)" d="M 71.357402 261.630551 
L 71.357402 43.44 
" style="fill:none;stroke:#000000;stroke-dasharray:0.7,1.155;stroke-dashoffset:0;stroke-width:0.7;"/>
     </g>
     <g id="line2d_2">
      <defs>
       <path d="M 0 0 
L 0 3.5 
" id="ma9928ef8dd" style="stroke:#000000;stroke-width:0.8;"/>
      </defs>
      <g>
       <use style="stroke:#000000;stroke-width:0.8;" x="71.357402" xlink:href="#ma9928ef8dd" y="261.630551"/>
      </g>
     </g>
     <g id="text_1">
      <!-- 0 -->
      <defs>
       <path d="M 31.78125 66.40625 
Q 24.171875 66.40625 20.328125 58.90625 
Q 16.5 51.421875 16.5 36.375 
Q 16.5 21.390625 20.328125 13.890625 
Q 24.171875 6.390625 31.78125 6.390625 
Q 39.453125 6.390625 43.28125 13.890625 
Q 47.125 21.390625 47.125 36.375 
Q 47.125 51.421875 43.28125 58.90625 
Q 39.453125 66.40625 31.78125 66.40625 
z
M 31.78125 74.21875 
Q 44.046875 74.21875 50.515625 64.515625 
Q 56.984375 54.828125 56.984375 36.375 
Q 56.984375 17.96875 50.515625 8.265625 
Q 44.046875 -1.421875 31.78125 -1.421875 
Q 19.53125 -1.421875 13.0625 8.265625 
Q 6.59375 17.96875 6.59375 36.375 
Q 6.59375 54.828125 13.0625 64.515625 
Q 19.53125 74.21875 31.78125 74.21875 
z
" id="DejaVuSans-48"/>
      </defs>
      <g transform="translate(68.176152 276.228989)scale(0.1 -0.1)">
       <use xlink:href="#DejaVuSans-48"/>
      </g>
     </g>
    </g>
    <g id="xtick_2">
     <g id="line2d_3">
      <path clip-path="url(#pd3b829320e)" d="M 114.415171 261.630551 
L 114.415171 43.44 
" style="fill:none;stroke:#000000;stroke-dasharray:0.7,1.155;stroke-dashoffset:0;stroke-width:0.7;"/>
     </g>
     <g id="line2d_4">
      <g>
       <use style="stroke:#000000;stroke-width:0.8;" x="114.415171" xlink:href="#ma9928ef8dd" y="261.630551"/>
      </g>
     </g>
     <g id="text_2">
      <!-- 100 -->
      <defs>
       <path d="M 12.40625 8.296875 
L 28.515625 8.296875 
L 28.515625 63.921875 
L 10.984375 60.40625 
L 10.984375 69.390625 
L 28.421875 72.90625 
L 38.28125 72.90625 
L 38.28125 8.296875 
L 54.390625 8.296875 
L 54.390625 0 
L 12.40625 0 
z
" id="DejaVuSans-49"/>
      </defs>
      <g transform="translate(104.871421 276.228989)scale(0.1 -0.1)">
       <use xlink:href="#DejaVuSans-49"/>
       <use x="63.623047" xlink:href="#DejaVuSans-48"/>
       <use x="127.246094" xlink:href="#DejaVuSans-48"/>
      </g>
     </g>
    </g>
    <g id="xtick_3">
     <g id="line2d_5">
      <path clip-path="url(#pd3b829320e)" d="M 157.47294 261.630551 
L 157.47294 43.44 
" style="fill:none;stroke:#000000;stroke-dasharray:0.7,1.155;stroke-dashoffset:0;stroke-width:0.7;"/>
     </g>
     <g id="line2d_6">
      <g>
       <use style="stroke:#000000;stroke-width:0.8;" x="157.47294" xlink:href="#ma9928ef8dd" y="261.630551"/>
      </g>
     </g>
     <g id="text_3">
      <!-- 200 -->
      <defs>
       <path d="M 19.1875 8.296875 
L 53.609375 8.296875 
L 53.609375 0 
L 7.328125 0 
L 7.328125 8.296875 
Q 12.9375 14.109375 22.625 23.890625 
Q 32.328125 33.6875 34.8125 36.53125 
Q 39.546875 41.84375 41.421875 45.53125 
Q 43.3125 49.21875 43.3125 52.78125 
Q 43.3125 58.59375 39.234375 62.25 
Q 35.15625 65.921875 28.609375 65.921875 
Q 23.96875 65.921875 18.8125 64.3125 
Q 13.671875 62.703125 7.8125 59.421875 
L 7.8125 69.390625 
Q 13.765625 71.78125 18.9375 73 
Q 24.125 74.21875 28.421875 74.21875 
Q 39.75 74.21875 46.484375 68.546875 
Q 53.21875 62.890625 53.21875 53.421875 
Q 53.21875 48.921875 51.53125 44.890625 
Q 49.859375 40.875 45.40625 35.40625 
Q 44.1875 33.984375 37.640625 27.21875 
Q 31.109375 20.453125 19.1875 8.296875 
z
" id="DejaVuSans-50"/>
      </defs>
      <g transform="translate(147.92919 276.228989)scale(0.1 -0.1)">
       <use xlink:href="#DejaVuSans-50"/>
       <use x="63.623047" xlink:href="#DejaVuSans-48"/>
       <use x="127.246094" xlink:href="#DejaVuSans-48"/>
      </g>
     </g>
    </g>
    <g id="xtick_4">
     <g id="line2d_7">
      <path clip-path="url(#pd3b829320e)" d="M 200.530709 261.630551 
L 200.530709 43.44 
" style="fill:none;stroke:#000000;stroke-dasharray:0.7,1.155;stroke-dashoffset:0;stroke-width:0.7;"/>
     </g>
     <g id="line2d_8">
      <g>
       <use style="stroke:#000000;stroke-width:0.8;" x="200.530709" xlink:href="#ma9928ef8dd" y="261.630551"/>
      </g>
     </g>
     <g id="text_4">
      <!-- 300 -->
      <defs>
       <path d="M 40.578125 39.3125 
Q 47.65625 37.796875 51.625 33 
Q 55.609375 28.21875 55.609375 21.1875 
Q 55.609375 10.40625 48.1875 4.484375 
Q 40.765625 -1.421875 27.09375 -1.421875 
Q 22.515625 -1.421875 17.65625 -0.515625 
Q 12.796875 0.390625 7.625 2.203125 
L 7.625 11.71875 
Q 11.71875 9.328125 16.59375 8.109375 
Q 21.484375 6.890625 26.8125 6.890625 
Q 36.078125 6.890625 40.9375 10.546875 
Q 45.796875 14.203125 45.796875 21.1875 
Q 45.796875 27.640625 41.28125 31.265625 
Q 36.765625 34.90625 28.71875 34.90625 
L 20.21875 34.90625 
L 20.21875 43.015625 
L 29.109375 43.015625 
Q 36.375 43.015625 40.234375 45.921875 
Q 44.09375 48.828125 44.09375 54.296875 
Q 44.09375 59.90625 40.109375 62.90625 
Q 36.140625 65.921875 28.71875 65.921875 
Q 24.65625 65.921875 20.015625 65.03125 
Q 15.375 64.15625 9.8125 62.3125 
L 9.8125 71.09375 
Q 15.4375 72.65625 20.34375 73.4375 
Q 25.25 74.21875 29.59375 74.21875 
Q 40.828125 74.21875 47.359375 69.109375 
Q 53.90625 64.015625 53.90625 55.328125 
Q 53.90625 49.265625 50.4375 45.09375 
Q 46.96875 40.921875 40.578125 39.3125 
z
" id="DejaVuSans-51"/>
      </defs>
      <g transform="translate(190.986959 276.228989)scale(0.1 -0.1)">
       <use xlink:href="#DejaVuSans-51"/>
       <use x="63.623047" xlink:href="#DejaVuSans-48"/>
       <use x="127.246094" xlink:href="#DejaVuSans-48"/>
      </g>
     </g>
    </g>
    <g id="xtick_5">
     <g id="line2d_9">
      <path clip-path="url(#pd3b829320e)" d="M 243.588478 261.630551 
L 243.588478 43.44 
" style="fill:none;stroke:#000000;stroke-dasharray:0.7,1.155;stroke-dashoffset:0;stroke-width:0.7;"/>
     </g>
     <g id="line2d_10">
      <g>
       <use style="stroke:#000000;stroke-width:0.8;" x="243.588478" xlink:href="#ma9928ef8dd" y="261.630551"/>
      </g>
     </g>
     <g id="text_5">
      <!-- 400 -->
      <defs>
       <path d="M 37.796875 64.3125 
L 12.890625 25.390625 
L 37.796875 25.390625 
z
M 35.203125 72.90625 
L 47.609375 72.90625 
L 47.609375 25.390625 
L 58.015625 25.390625 
L 58.015625 17.1875 
L 47.609375 17.1875 
L 47.609375 0 
L 37.796875 0 
L 37.796875 17.1875 
L 4.890625 17.1875 
L 4.890625 26.703125 
z
" id="DejaVuSans-52"/>
      </defs>
      <g transform="translate(234.044728 276.228989)scale(0.1 -0.1)">
       <use xlink:href="#DejaVuSans-52"/>
       <use x="63.623047" xlink:href="#DejaVuSans-48"/>
       <use x="127.246094" xlink:href="#DejaVuSans-48"/>
      </g>
     </g>
    </g>
    <g id="xtick_6">
     <g id="line2d_11">
      <path clip-path="url(#pd3b829320e)" d="M 286.646247 261.630551 
L 286.646247 43.44 
" style="fill:none;stroke:#000000;stroke-dasharray:0.7,1.155;stroke-dashoffset:0;stroke-width:0.7;"/>
     </g>
     <g id="line2d_12">
      <g>
       <use style="stroke:#000000;stroke-width:0.8;" x="286.646247" xlink:href="#ma9928ef8dd" y="261.630551"/>
      </g>
     </g>
     <g id="text_6">
      <!-- 500 -->
      <defs>
       <path d="M 10.796875 72.90625 
L 49.515625 72.90625 
L 49.515625 64.59375 
L 19.828125 64.59375 
L 19.828125 46.734375 
Q 21.96875 47.46875 24.109375 47.828125 
Q 26.265625 48.1875 28.421875 48.1875 
Q 40.625 48.1875 47.75 41.5 
Q 54.890625 34.8125 54.890625 23.390625 
Q 54.890625 11.625 47.5625 5.09375 
Q 40.234375 -1.421875 26.90625 -1.421875 
Q 22.3125 -1.421875 17.546875 -0.640625 
Q 12.796875 0.140625 7.71875 1.703125 
L 7.71875 11.625 
Q 12.109375 9.234375 16.796875 8.0625 
Q 21.484375 6.890625 26.703125 6.890625 
Q 35.15625 6.890625 40.078125 11.328125 
Q 45.015625 15.765625 45.015625 23.390625 
Q 45.015625 31 40.078125 35.4375 
Q 35.15625 39.890625 26.703125 39.890625 
Q 22.75 39.890625 18.8125 39.015625 
Q 14.890625 38.140625 10.796875 36.28125 
z
" id="DejaVuSans-53"/>
      </defs>
      <g transform="translate(277.102497 276.228989)scale(0.1 -0.1)">
       <use xlink:href="#DejaVuSans-53"/>
       <use x="63.623047" xlink:href="#DejaVuSans-48"/>
       <use x="127.246094" xlink:href="#DejaVuSans-48"/>
      </g>
     </g>
    </g>
    <g id="xtick_7">
     <g id="line2d_13">
      <path clip-path="url(#pd3b829320e)" d="M 329.704016 261.630551 
L 329.704016 43.44 
" style="fill:none;stroke:#000000;stroke-dasharray:0.7,1.155;stroke-dashoffset:0;stroke-width:0.7;"/>
     </g>
     <g id="line2d_14">
      <g>
       <use style="stroke:#000000;stroke-width:0.8;" x="329.704016" xlink:href="#ma9928ef8dd" y="261.630551"/>
      </g>
     </g>
     <g id="text_7">
      <!-- 600 -->
      <defs>
       <path d="M 33.015625 40.375 
Q 26.375 40.375 22.484375 35.828125 
Q 18.609375 31.296875 18.609375 23.390625 
Q 18.609375 15.53125 22.484375 10.953125 
Q 26.375 6.390625 33.015625 6.390625 
Q 39.65625 6.390625 43.53125 10.953125 
Q 47.40625 15.53125 47.40625 23.390625 
Q 47.40625 31.296875 43.53125 35.828125 
Q 39.65625 40.375 33.015625 40.375 
z
M 52.59375 71.296875 
L 52.59375 62.3125 
Q 48.875 64.0625 45.09375 64.984375 
Q 41.3125 65.921875 37.59375 65.921875 
Q 27.828125 65.921875 22.671875 59.328125 
Q 17.53125 52.734375 16.796875 39.40625 
Q 19.671875 43.65625 24.015625 45.921875 
Q 28.375 48.1875 33.59375 48.1875 
Q 44.578125 48.1875 50.953125 41.515625 
Q 57.328125 34.859375 57.328125 23.390625 
Q 57.328125 12.15625 50.6875 5.359375 
Q 44.046875 -1.421875 33.015625 -1.421875 
Q 20.359375 -1.421875 13.671875 8.265625 
Q 6.984375 17.96875 6.984375 36.375 
Q 6.984375 53.65625 15.1875 63.9375 
Q 23.390625 74.21875 37.203125 74.21875 
Q 40.921875 74.21875 44.703125 73.484375 
Q 48.484375 72.75 52.59375 71.296875 
z
" id="DejaVuSans-54"/>
      </defs>
      <g transform="translate(320.160266 276.228989)scale(0.1 -0.1)">
       <use xlink:href="#DejaVuSans-54"/>
       <use x="63.623047" xlink:href="#DejaVuSans-48"/>
       <use x="127.246094" xlink:href="#DejaVuSans-48"/>
      </g>
     </g>
    </g>
    <g id="xtick_8">
     <g id="line2d_15">
      <path clip-path="url(#pd3b829320e)" d="M 372.761785 261.630551 
L 372.761785 43.44 
" style="fill:none;stroke:#000000;stroke-dasharray:0.7,1.155;stroke-dashoffset:0;stroke-width:0.7;"/>
     </g>
     <g id="line2d_16">
      <g>
       <use style="stroke:#000000;stroke-width:0.8;" x="372.761785" xlink:href="#ma9928ef8dd" y="261.630551"/>
      </g>
     </g>
     <g id="text_8">
      <!-- 700 -->
      <defs>
       <path d="M 8.203125 72.90625 
L 55.078125 72.90625 
L 55.078125 68.703125 
L 28.609375 0 
L 18.3125 0 
L 43.21875 64.59375 
L 8.203125 64.59375 
z
" id="DejaVuSans-55"/>
      </defs>
      <g transform="translate(363.218035 276.228989)scale(0.1 -0.1)">
       <use xlink:href="#DejaVuSans-55"/>
       <use x="63.623047" xlink:href="#DejaVuSans-48"/>
       <use x="127.246094" xlink:href="#DejaVuSans-48"/>
      </g>
     </g>
    </g>
    <g id="text_9">
     <!-- Amostra -->
     <defs>
      <path d="M 34.1875 63.1875 
L 20.796875 26.90625 
L 47.609375 26.90625 
z
M 28.609375 72.90625 
L 39.796875 72.90625 
L 67.578125 0 
L 57.328125 0 
L 50.6875 18.703125 
L 17.828125 18.703125 
L 11.1875 0 
L 0.78125 0 
z
" id="DejaVuSans-65"/>
      <path d="M 52 44.1875 
Q 55.375 50.25 60.0625 53.125 
Q 64.75 56 71.09375 56 
Q 79.640625 56 84.28125 50.015625 
Q 88.921875 44.046875 88.921875 33.015625 
L 88.921875 0 
L 79.890625 0 
L 79.890625 32.71875 
Q 79.890625 40.578125 77.09375 44.375 
Q 74.3125 48.1875 68.609375 48.1875 
Q 61.625 48.1875 57.5625 43.546875 
Q 53.515625 38.921875 53.515625 30.90625 
L 53.515625 0 
L 44.484375 0 
L 44.484375 32.71875 
Q 44.484375 40.625 41.703125 44.40625 
Q 38.921875 48.1875 33.109375 48.1875 
Q 26.21875 48.1875 22.15625 43.53125 
Q 18.109375 38.875 18.109375 30.90625 
L 18.109375 0 
L 9.078125 0 
L 9.078125 54.6875 
L 18.109375 54.6875 
L 18.109375 46.1875 
Q 21.1875 51.21875 25.484375 53.609375 
Q 29.78125 56 35.6875 56 
Q 41.65625 56 45.828125 52.96875 
Q 50 49.953125 52 44.1875 
z
" id="DejaVuSans-109"/>
      <path d="M 30.609375 48.390625 
Q 23.390625 48.390625 19.1875 42.75 
Q 14.984375 37.109375 14.984375 27.296875 
Q 14.984375 17.484375 19.15625 11.84375 
Q 23.34375 6.203125 30.609375 6.203125 
Q 37.796875 6.203125 41.984375 11.859375 
Q 46.1875 17.53125 46.1875 27.296875 
Q 46.1875 37.015625 41.984375 42.703125 
Q 37.796875 48.390625 30.609375 48.390625 
z
M 30.609375 56 
Q 42.328125 56 49.015625 48.375 
Q 55.71875 40.765625 55.71875 27.296875 
Q 55.71875 13.875 49.015625 6.21875 
Q 42.328125 -1.421875 30.609375 -1.421875 
Q 18.84375 -1.421875 12.171875 6.21875 
Q 5.515625 13.875 5.515625 27.296875 
Q 5.515625 40.765625 12.171875 48.375 
Q 18.84375 56 30.609375 56 
z
" id="DejaVuSans-111"/>
      <path d="M 44.28125 53.078125 
L 44.28125 44.578125 
Q 40.484375 46.53125 36.375 47.5 
Q 32.28125 48.484375 27.875 48.484375 
Q 21.1875 48.484375 17.84375 46.4375 
Q 14.5 44.390625 14.5 40.28125 
Q 14.5 37.15625 16.890625 35.375 
Q 19.28125 33.59375 26.515625 31.984375 
L 29.59375 31.296875 
Q 39.15625 29.25 43.1875 25.515625 
Q 47.21875 21.78125 47.21875 15.09375 
Q 47.21875 7.46875 41.1875 3.015625 
Q 35.15625 -1.421875 24.609375 -1.421875 
Q 20.21875 -1.421875 15.453125 -0.5625 
Q 10.6875 0.296875 5.421875 2 
L 5.421875 11.28125 
Q 10.40625 8.6875 15.234375 7.390625 
Q 20.0625 6.109375 24.8125 6.109375 
Q 31.15625 6.109375 34.5625 8.28125 
Q 37.984375 10.453125 37.984375 14.40625 
Q 37.984375 18.0625 35.515625 20.015625 
Q 33.0625 21.96875 24.703125 23.78125 
L 21.578125 24.515625 
Q 13.234375 26.265625 9.515625 29.90625 
Q 5.8125 33.546875 5.8125 39.890625 
Q 5.8125 47.609375 11.28125 51.796875 
Q 16.75 56 26.8125 56 
Q 31.78125 56 36.171875 55.265625 
Q 40.578125 54.546875 44.28125 53.078125 
z
" id="DejaVuSans-115"/>
      <path d="M 18.3125 70.21875 
L 18.3125 54.6875 
L 36.8125 54.6875 
L 36.8125 47.703125 
L 18.3125 47.703125 
L 18.3125 18.015625 
Q 18.3125 11.328125 20.140625 9.421875 
Q 21.96875 7.515625 27.59375 7.515625 
L 36.8125 7.515625 
L 36.8125 0 
L 27.59375 0 
Q 17.1875 0 13.234375 3.875 
Q 9.28125 7.765625 9.28125 18.015625 
L 9.28125 47.703125 
L 2.6875 47.703125 
L 2.6875 54.6875 
L 9.28125 54.6875 
L 9.28125 70.21875 
z
" id="DejaVuSans-116"/>
      <path d="M 41.109375 46.296875 
Q 39.59375 47.171875 37.8125 47.578125 
Q 36.03125 48 33.890625 48 
Q 26.265625 48 22.1875 43.046875 
Q 18.109375 38.09375 18.109375 28.8125 
L 18.109375 0 
L 9.078125 0 
L 9.078125 54.6875 
L 18.109375 54.6875 
L 18.109375 46.1875 
Q 20.953125 51.171875 25.484375 53.578125 
Q 30.03125 56 36.53125 56 
Q 37.453125 56 38.578125 55.875 
Q 39.703125 55.765625 41.0625 55.515625 
z
" id="DejaVuSans-114"/>
      <path d="M 34.28125 27.484375 
Q 23.390625 27.484375 19.1875 25 
Q 14.984375 22.515625 14.984375 16.5 
Q 14.984375 11.71875 18.140625 8.90625 
Q 21.296875 6.109375 26.703125 6.109375 
Q 34.1875 6.109375 38.703125 11.40625 
Q 43.21875 16.703125 43.21875 25.484375 
L 43.21875 27.484375 
z
M 52.203125 31.203125 
L 52.203125 0 
L 43.21875 0 
L 43.21875 8.296875 
Q 40.140625 3.328125 35.546875 0.953125 
Q 30.953125 -1.421875 24.3125 -1.421875 
Q 15.921875 -1.421875 10.953125 3.296875 
Q 6 8.015625 6 15.921875 
Q 6 25.140625 12.171875 29.828125 
Q 18.359375 34.515625 30.609375 34.515625 
L 43.21875 34.515625 
L 43.21875 35.40625 
Q 43.21875 41.609375 39.140625 45 
Q 35.0625 48.390625 27.6875 48.390625 
Q 23 48.390625 18.546875 47.265625 
Q 14.109375 46.140625 10.015625 43.890625 
L 10.015625 52.203125 
Q 14.9375 54.109375 19.578125 55.046875 
Q 24.21875 56 28.609375 56 
Q 40.484375 56 46.34375 49.84375 
Q 52.203125 43.703125 52.203125 31.203125 
z
" id="DejaVuSans-97"/>
     </defs>
     <g transform="translate(222.338814 289.907114)scale(0.1 -0.1)">
      <use xlink:href="#DejaVuSans-65"/>
      <use x="68.408203" xlink:href="#DejaVuSans-109"/>
      <use x="165.820312" xlink:href="#DejaVuSans-111"/>
      <use x="227.001953" xlink:href="#DejaVuSans-115"/>
      <use x="279.101562" xlink:href="#DejaVuSans-116"/>
      <use x="318.310547" xlink:href="#DejaVuSans-114"/>
      <use x="359.423828" xlink:href="#DejaVuSans-97"/>
     </g>
    </g>
   </g>
   <g id="matplotlib.axis_2">
    <g id="ytick_1">
     <g id="line2d_17">
      <path clip-path="url(#pd3b829320e)" d="M 71.357402 236.688188 
L 415.388976 236.688188 
" style="fill:none;stroke:#000000;stroke-dasharray:0.7,1.155;stroke-dashoffset:0;stroke-width:0.7;"/>
     </g>
     <g id="line2d_18">
      <defs>
       <path d="M 0 0 
L -3.5 0 
" id="mbf42697fb1" style="stroke:#000000;stroke-width:0.8;"/>
      </defs>
      <g>
       <use style="stroke:#000000;stroke-width:0.8;" x="71.357402" xlink:href="#mbf42697fb1" y="236.688188"/>
      </g>
     </g>
     <g id="text_10">
      <!-- −1.25 -->
      <defs>
       <path d="M 10.59375 35.5 
L 73.1875 35.5 
L 73.1875 27.203125 
L 10.59375 27.203125 
z
" id="DejaVuSans-8722"/>
       <path d="M 10.6875 12.40625 
L 21 12.40625 
L 21 0 
L 10.6875 0 
z
" id="DejaVuSans-46"/>
      </defs>
      <g transform="translate(33.712089 240.487407)scale(0.1 -0.1)">
       <use xlink:href="#DejaVuSans-8722"/>
       <use x="83.789062" xlink:href="#DejaVuSans-49"/>
       <use x="147.412109" xlink:href="#DejaVuSans-46"/>
       <use x="179.199219" xlink:href="#DejaVuSans-50"/>
       <use x="242.822266" xlink:href="#DejaVuSans-53"/>
      </g>
     </g>
    </g>
    <g id="ytick_2">
     <g id="line2d_19">
      <path clip-path="url(#pd3b829320e)" d="M 71.357402 211.477387 
L 415.388976 211.477387 
" style="fill:none;stroke:#000000;stroke-dasharray:0.7,1.155;stroke-dashoffset:0;stroke-width:0.7;"/>
     </g>
     <g id="line2d_20">
      <g>
       <use style="stroke:#000000;stroke-width:0.8;" x="71.357402" xlink:href="#mbf42697fb1" y="211.477387"/>
      </g>
     </g>
     <g id="text_11">
      <!-- −1.00 -->
      <g transform="translate(33.712089 215.276606)scale(0.1 -0.1)">
       <use xlink:href="#DejaVuSans-8722"/>
       <use x="83.789062" xlink:href="#DejaVuSans-49"/>
       <use x="147.412109" xlink:href="#DejaVuSans-46"/>
       <use x="179.199219" xlink:href="#DejaVuSans-48"/>
       <use x="242.822266" xlink:href="#DejaVuSans-48"/>
      </g>
     </g>
    </g>
    <g id="ytick_3">
     <g id="line2d_21">
      <path clip-path="url(#pd3b829320e)" d="M 71.357402 186.266586 
L 415.388976 186.266586 
" style="fill:none;stroke:#000000;stroke-dasharray:0.7,1.155;stroke-dashoffset:0;stroke-width:0.7;"/>
     </g>
     <g id="line2d_22">
      <g>
       <use style="stroke:#000000;stroke-width:0.8;" x="71.357402" xlink:href="#mbf42697fb1" y="186.266586"/>
      </g>
     </g>
     <g id="text_12">
      <!-- −0.75 -->
      <g transform="translate(33.712089 190.065805)scale(0.1 -0.1)">
       <use xlink:href="#DejaVuSans-8722"/>
       <use x="83.789062" xlink:href="#DejaVuSans-48"/>
       <use x="147.412109" xlink:href="#DejaVuSans-46"/>
       <use x="179.199219" xlink:href="#DejaVuSans-55"/>
       <use x="242.822266" xlink:href="#DejaVuSans-53"/>
      </g>
     </g>
    </g>
    <g id="ytick_4">
     <g id="line2d_23">
      <path clip-path="url(#pd3b829320e)" d="M 71.357402 161.055785 
L 415.388976 161.055785 
" style="fill:none;stroke:#000000;stroke-dasharray:0.7,1.155;stroke-dashoffset:0;stroke-width:0.7;"/>
     </g>
     <g id="line2d_24">
      <g>
       <use style="stroke:#000000;stroke-width:0.8;" x="71.357402" xlink:href="#mbf42697fb1" y="161.055785"/>
      </g>
     </g>
     <g id="text_13">
      <!-- −0.50 -->
      <g transform="translate(33.712089 164.855003)scale(0.1 -0.1)">
       <use xlink:href="#DejaVuSans-8722"/>
       <use x="83.789062" xlink:href="#DejaVuSans-48"/>
       <use x="147.412109" xlink:href="#DejaVuSans-46"/>
       <use x="179.199219" xlink:href="#DejaVuSans-53"/>
       <use x="242.822266" xlink:href="#DejaVuSans-48"/>
      </g>
     </g>
    </g>
    <g id="ytick_5">
     <g id="line2d_25">
      <path clip-path="url(#pd3b829320e)" d="M 71.357402 135.844983 
L 415.388976 135.844983 
" style="fill:none;stroke:#000000;stroke-dasharray:0.7,1.155;stroke-dashoffset:0;stroke-width:0.7;"/>
     </g>
     <g id="line2d_26">
      <g>
       <use style="stroke:#000000;stroke-width:0.8;" x="71.357402" xlink:href="#mbf42697fb1" y="135.844983"/>
      </g>
     </g>
     <g id="text_14">
      <!-- −0.25 -->
      <g transform="translate(33.712089 139.644202)scale(0.1 -0.1)">
       <use xlink:href="#DejaVuSans-8722"/>
       <use x="83.789062" xlink:href="#DejaVuSans-48"/>
       <use x="147.412109" xlink:href="#DejaVuSans-46"/>
       <use x="179.199219" xlink:href="#DejaVuSans-50"/>
       <use x="242.822266" xlink:href="#DejaVuSans-53"/>
      </g>
     </g>
    </g>
    <g id="ytick_6">
     <g id="line2d_27">
      <path clip-path="url(#pd3b829320e)" d="M 71.357402 110.634182 
L 415.388976 110.634182 
" style="fill:none;stroke:#000000;stroke-dasharray:0.7,1.155;stroke-dashoffset:0;stroke-width:0.7;"/>
     </g>
     <g id="line2d_28">
      <g>
       <use style="stroke:#000000;stroke-width:0.8;" x="71.357402" xlink:href="#mbf42697fb1" y="110.634182"/>
      </g>
     </g>
     <g id="text_15">
      <!-- 0.00 -->
      <g transform="translate(42.091777 114.433401)scale(0.1 -0.1)">
       <use xlink:href="#DejaVuSans-48"/>
       <use x="63.623047" xlink:href="#DejaVuSans-46"/>
       <use x="95.410156" xlink:href="#DejaVuSans-48"/>
       <use x="159.033203" xlink:href="#DejaVuSans-48"/>
      </g>
     </g>
    </g>
    <g id="ytick_7">
     <g id="line2d_29">
      <path clip-path="url(#pd3b829320e)" d="M 71.357402 85.423381 
L 415.388976 85.423381 
" style="fill:none;stroke:#000000;stroke-dasharray:0.7,1.155;stroke-dashoffset:0;stroke-width:0.7;"/>
     </g>
     <g id="line2d_30">
      <g>
       <use style="stroke:#000000;stroke-width:0.8;" x="71.357402" xlink:href="#mbf42697fb1" y="85.423381"/>
      </g>
     </g>
     <g id="text_16">
      <!-- 0.25 -->
      <g transform="translate(42.091777 89.2226)scale(0.1 -0.1)">
       <use xlink:href="#DejaVuSans-48"/>
       <use x="63.623047" xlink:href="#DejaVuSans-46"/>
       <use x="95.410156" xlink:href="#DejaVuSans-50"/>
       <use x="159.033203" xlink:href="#DejaVuSans-53"/>
      </g>
     </g>
    </g>
    <g id="ytick_8">
     <g id="line2d_31">
      <path clip-path="url(#pd3b829320e)" d="M 71.357402 60.21258 
L 415.388976 60.21258 
" style="fill:none;stroke:#000000;stroke-dasharray:0.7,1.155;stroke-dashoffset:0;stroke-width:0.7;"/>
     </g>
     <g id="line2d_32">
      <g>
       <use style="stroke:#000000;stroke-width:0.8;" x="71.357402" xlink:href="#mbf42697fb1" y="60.21258"/>
      </g>
     </g>
     <g id="text_17">
      <!-- 0.50 -->
      <g transform="translate(42.091777 64.011799)scale(0.1 -0.1)">
       <use xlink:href="#DejaVuSans-48"/>
       <use x="63.623047" xlink:href="#DejaVuSans-46"/>
       <use x="95.410156" xlink:href="#DejaVuSans-53"/>
       <use x="159.033203" xlink:href="#DejaVuSans-48"/>
      </g>
     </g>
    </g>
    <g id="text_18">
     <!-- Valor -->
     <defs>
      <path d="M 28.609375 0 
L 0.78125 72.90625 
L 11.078125 72.90625 
L 34.1875 11.53125 
L 57.328125 72.90625 
L 67.578125 72.90625 
L 39.796875 0 
z
" id="DejaVuSans-86"/>
      <path d="M 9.421875 75.984375 
L 18.40625 75.984375 
L 18.40625 0 
L 9.421875 0 
z
" id="DejaVuSans-108"/>
     </defs>
     <g transform="translate(27.632402 165.136057)rotate(-90)scale(0.1 -0.1)">
      <use xlink:href="#DejaVuSans-86"/>
      <use x="60.658203" xlink:href="#DejaVuSans-97"/>
      <use x="121.9375" xlink:href="#DejaVuSans-108"/>
      <use x="149.720703" xlink:href="#DejaVuSans-111"/>
      <use x="210.902344" xlink:href="#DejaVuSans-114"/>
     </g>
    </g>
   </g>
   <g id="line2d_33">
    <path clip-path="url(#pd3b829320e)" d="M 71.357402 100.718526 
L 244.019056 100.718526 
L 244.019056 101.779498 
L 415.388976 101.779498 
L 415.388976 101.779498 
" style="fill:none;stroke:#0000ff;stroke-dasharray:3.7,1.6;stroke-dashoffset:0;"/>
   </g>
   <g id="line2d_34">
    <path clip-path="url(#pd3b829320e)" d="M 71.357402 110.634182 
L 71.787979 110.634182 
L 71.787979 100.770949 
L 72.649135 100.764167 
L 72.649135 100.657667 
L 76.524334 100.551903 
L 76.524334 100.533935 
L 82.982999 100.639752 
L 82.982999 100.645966 
L 246.602522 100.682608 
L 246.602522 99.868831 
L 247.463677 99.978075 
L 247.463677 99.658417 
L 247.894255 99.658417 
L 247.894255 100.506716 
L 248.324832 100.506716 
L 248.324832 101.070788 
L 248.75541 101.070788 
L 248.75541 101.689358 
L 274.159494 101.779664 
L 274.159494 101.813669 
L 415.388976 101.769973 
L 415.388976 101.769986 
" style="fill:none;stroke:#0000ff;stroke-linecap:square;"/>
   </g>
   <g id="line2d_35">
    <path clip-path="url(#pd3b829320e)" d="M 71.357402 102.790718 
L 244.019056 102.790718 
L 244.019056 103.318862 
L 415.388976 103.318862 
L 415.388976 103.318862 
" style="fill:none;stroke:#ffa500;stroke-dasharray:3.7,1.6;stroke-dashoffset:0;"/>
   </g>
   <g id="line2d_36">
    <path clip-path="url(#pd3b829320e)" d="M 71.357402 110.634182 
L 72.218557 110.634182 
L 72.218557 89.718146 
L 72.649135 89.718146 
L 72.649135 98.122729 
L 73.079712 98.122729 
L 73.079712 101.153014 
L 73.51029 101.153014 
L 73.51029 101.88453 
L 73.940868 101.88453 
L 73.940868 102.161206 
L 74.371445 102.161206 
L 74.371445 102.287516 
L 75.232601 102.366018 
L 75.232601 102.491821 
L 76.093756 102.5312 
L 76.093756 102.603663 
L 76.524334 102.603663 
L 76.524334 102.765766 
L 77.816067 102.826844 
L 77.816067 102.880801 
L 93.316864 102.794712 
L 93.316864 102.769134 
L 246.602522 102.706332 
L 246.602522 101.892554 
L 247.463677 102.001798 
L 247.463677 101.68214 
L 247.894255 101.68214 
L 247.894255 102.530439 
L 248.324832 102.530439 
L 248.324832 103.094511 
L 248.75541 103.094511 
L 248.75541 102.496957 
L 249.185988 102.496957 
L 249.185988 103.280458 
L 253.491765 103.385834 
L 253.491765 103.394475 
L 415.388976 103.365039 
L 415.388976 103.365433 
" style="fill:none;stroke:#ffa500;stroke-linecap:square;"/>
   </g>
   <g id="line2d_37">
    <path clip-path="url(#pd3b829320e)" d="M 71.357402 243.79552 
L 244.019056 243.79552 
L 244.019056 251.485727 
L 415.388976 251.485727 
L 415.388976 251.485727 
" style="fill:none;stroke:#008000;stroke-dasharray:3.7,1.6;stroke-dashoffset:0;"/>
   </g>
   <g id="line2d_38">
    <path clip-path="url(#pd3b829320e)" d="M 71.357402 110.634182 
L 72.218557 110.621804 
L 72.218557 112.694205 
L 72.649135 112.694205 
L 72.649135 198.912962 
L 73.079712 198.912962 
L 73.079712 230.760372 
L 73.51029 230.760372 
L 73.51029 237.436218 
L 73.940868 237.436218 
L 73.940868 239.695136 
L 74.371445 239.695136 
L 74.371445 240.64175 
L 74.802023 240.64175 
L 74.802023 241.190927 
L 75.232601 241.190927 
L 75.232601 242.021639 
L 75.663178 242.021639 
L 75.663178 242.267337 
L 76.093756 242.267337 
L 76.093756 242.38883 
L 76.524334 242.38883 
L 76.524334 242.6873 
L 76.954912 242.6873 
L 76.954912 243.206768 
L 77.385489 243.206768 
L 77.385489 243.425269 
L 77.816067 243.425269 
L 77.816067 243.762293 
L 78.677222 243.830155 
L 78.677222 243.89647 
L 81.691266 243.997166 
L 81.691266 244.041497 
L 82.982999 243.969539 
L 82.982999 243.923525 
L 87.719354 243.813287 
L 87.719354 243.800184 
L 106.664772 243.889227 
L 106.664772 243.912876 
L 146.27792 243.804144 
L 146.27792 243.791537 
L 246.171944 243.855379 
L 246.171944 243.912847 
L 246.602522 243.912847 
L 246.602522 243.239138 
L 247.033099 243.239138 
L 247.033099 244.939594 
L 247.463677 244.939594 
L 247.463677 243.189637 
L 247.894255 243.189637 
L 247.894255 247.20687 
L 248.324832 247.20687 
L 248.324832 249.658119 
L 249.185988 249.696181 
L 249.185988 251.193702 
L 249.616565 251.193702 
L 249.616565 251.712799 
L 250.047143 251.712799 
L 250.047143 251.160684 
L 251.769454 251.154477 
L 251.769454 251.325159 
L 253.061187 251.32402 
L 253.061187 251.555361 
L 255.214075 251.446093 
L 255.214075 251.373882 
L 262.103319 251.366252 
L 262.103319 251.500176 
L 263.825629 251.406028 
L 263.825629 251.359501 
L 268.131406 251.428484 
L 268.131406 251.507221 
L 343.91308 251.616815 
L 343.91308 251.620512 
L 415.388976 251.610303 
L 415.388976 251.61179 
" style="fill:none;stroke:#008000;stroke-linecap:square;"/>
   </g>
   <g id="line2d_39">
    <path clip-path="url(#pd3b829320e)" d="M 71.357402 60.556929 
L 244.019056 60.556929 
L 244.019056 53.604785 
L 415.388976 53.604785 
L 415.388976 53.604785 
" style="fill:none;stroke:#ff0000;stroke-dasharray:3.7,1.6;stroke-dashoffset:0;"/>
   </g>
   <g id="line2d_40">
    <path clip-path="url(#pd3b829320e)" d="M 71.357402 110.634182 
L 72.649135 110.607933 
L 72.649135 151.7894 
L 73.079712 151.7894 
L 73.079712 78.341912 
L 73.51029 78.341912 
L 73.51029 67.716922 
L 73.940868 67.716922 
L 73.940868 64.705457 
L 74.371445 64.705457 
L 74.371445 63.569357 
L 74.802023 63.569357 
L 74.802023 62.954578 
L 75.232601 62.954578 
L 75.232601 62.069301 
L 75.663178 62.069301 
L 75.663178 61.81772 
L 76.093756 61.81772 
L 76.093756 61.696657 
L 76.524334 61.696657 
L 76.524334 61.571716 
L 76.954912 61.571716 
L 76.954912 61.058294 
L 77.385489 61.058294 
L 77.385489 60.860478 
L 77.816067 60.860478 
L 77.816067 60.566527 
L 78.677222 60.508928 
L 78.677222 60.453958 
L 81.691266 60.374697 
L 81.691266 60.335487 
L 83.844155 60.43569 
L 83.844155 60.4513 
L 95.90033 60.537875 
L 95.90033 60.563371 
L 106.234195 60.463332 
L 106.234195 60.449648 
L 146.27792 60.557941 
L 146.27792 60.569781 
L 246.602522 60.558006 
L 246.602522 59.051393 
L 247.033099 59.051393 
L 247.033099 57.308122 
L 247.463677 57.308122 
L 247.463677 58.537985 
L 247.894255 58.537985 
L 247.894255 56.0144 
L 248.324832 56.0144 
L 248.324832 54.591955 
L 249.185988 54.574071 
L 249.185988 53.873356 
L 249.616565 53.873356 
L 249.616565 53.357752 
L 250.047143 53.357752 
L 250.047143 53.841851 
L 251.769454 53.849488 
L 251.769454 53.722157 
L 253.061187 53.72453 
L 253.061187 53.579918 
L 255.214075 53.681705 
L 255.214075 53.730141 
L 268.561984 53.621508 
L 268.561984 53.615167 
L 379.22045 53.515869 
L 379.22045 53.501599 
L 415.388976 53.507865 
L 415.388976 53.506761 
" style="fill:none;stroke:#ff0000;stroke-linecap:square;"/>
   </g>
   <g id="patch_3">
    <path d="M 71.357402 261.630551 
L 71.357402 43.44 
" style="fill:none;stroke:#000000;stroke-linecap:square;stroke-linejoin:miter;stroke-width:0.8;"/>
   </g>
   <g id="patch_4">
    <path d="M 415.388976 261.630551 
L 415.388976 43.44 
" style="fill:none;stroke:#000000;stroke-linecap:square;stroke-linejoin:miter;stroke-width:0.8;"/>
   </g>
   <g id="patch_5">
    <path d="M 71.357402 261.630551 
L 415.388976 261.630551 
" style="fill:none;stroke:#000000;stroke-linecap:square;stroke-linejoin:miter;stroke-width:0.8;"/>
   </g>
   <g id="patch_6">
    <path d="M 71.357402 43.44 
L 415.388976 43.44 
" style="fill:none;stroke:#000000;stroke-linecap:square;stroke-linejoin:miter;stroke-width:0.8;"/>
   </g>
   <g id="text_19">
    <!-- Evolução temporal dos coeficientes estimados -->
    <defs>
     <path d="M 9.8125 72.90625 
L 55.90625 72.90625 
L 55.90625 64.59375 
L 19.671875 64.59375 
L 19.671875 43.015625 
L 54.390625 43.015625 
L 54.390625 34.71875 
L 19.671875 34.71875 
L 19.671875 8.296875 
L 56.78125 8.296875 
L 56.78125 0 
L 9.8125 0 
z
" id="DejaVuSans-69"/>
     <path d="M 2.984375 54.6875 
L 12.5 54.6875 
L 29.59375 8.796875 
L 46.6875 54.6875 
L 56.203125 54.6875 
L 35.6875 0 
L 23.484375 0 
z
" id="DejaVuSans-118"/>
     <path d="M 8.5 21.578125 
L 8.5 54.6875 
L 17.484375 54.6875 
L 17.484375 21.921875 
Q 17.484375 14.15625 20.5 10.265625 
Q 23.53125 6.390625 29.59375 6.390625 
Q 36.859375 6.390625 41.078125 11.03125 
Q 45.3125 15.671875 45.3125 23.6875 
L 45.3125 54.6875 
L 54.296875 54.6875 
L 54.296875 0 
L 45.3125 0 
L 45.3125 8.40625 
Q 42.046875 3.421875 37.71875 1 
Q 33.40625 -1.421875 27.6875 -1.421875 
Q 18.265625 -1.421875 13.375 4.4375 
Q 8.5 10.296875 8.5 21.578125 
z
M 31.109375 56 
z
" id="DejaVuSans-117"/>
     <path d="M 48.78125 52.59375 
L 48.78125 44.1875 
Q 44.96875 46.296875 41.140625 47.34375 
Q 37.3125 48.390625 33.40625 48.390625 
Q 24.65625 48.390625 19.8125 42.84375 
Q 14.984375 37.3125 14.984375 27.296875 
Q 14.984375 17.28125 19.8125 11.734375 
Q 24.65625 6.203125 33.40625 6.203125 
Q 37.3125 6.203125 41.140625 7.25 
Q 44.96875 8.296875 48.78125 10.40625 
L 48.78125 2.09375 
Q 45.015625 0.34375 40.984375 -0.53125 
Q 36.96875 -1.421875 32.421875 -1.421875 
Q 20.0625 -1.421875 12.78125 6.34375 
Q 5.515625 14.109375 5.515625 27.296875 
Q 5.515625 40.671875 12.859375 48.328125 
Q 20.21875 56 33.015625 56 
Q 37.15625 56 41.109375 55.140625 
Q 45.0625 54.296875 48.78125 52.59375 
z
M 36.078125 0 
Q 38.765625 -3.03125 40.078125 -5.59375 
Q 41.40625 -8.15625 41.40625 -10.5 
Q 41.40625 -14.84375 38.46875 -17.0625 
Q 35.546875 -19.28125 29.78125 -19.28125 
Q 27.546875 -19.28125 25.421875 -18.984375 
Q 23.296875 -18.703125 21.1875 -18.109375 
L 21.1875 -11.71875 
Q 22.859375 -12.546875 24.65625 -12.90625 
Q 26.46875 -13.28125 28.765625 -13.28125 
Q 31.640625 -13.28125 33.109375 -12.109375 
Q 34.578125 -10.9375 34.578125 -8.6875 
Q 34.578125 -7.234375 33.515625 -5.109375 
Q 32.46875 -2.984375 30.28125 0 
z
" id="DejaVuSans-231"/>
     <path d="M 34.28125 27.484375 
Q 23.390625 27.484375 19.1875 25 
Q 14.984375 22.515625 14.984375 16.5 
Q 14.984375 11.71875 18.140625 8.90625 
Q 21.296875 6.109375 26.703125 6.109375 
Q 34.1875 6.109375 38.703125 11.40625 
Q 43.21875 16.703125 43.21875 25.484375 
L 43.21875 27.484375 
z
M 52.203125 31.203125 
L 52.203125 0 
L 43.21875 0 
L 43.21875 8.296875 
Q 40.140625 3.328125 35.546875 0.953125 
Q 30.953125 -1.421875 24.3125 -1.421875 
Q 15.921875 -1.421875 10.953125 3.296875 
Q 6 8.015625 6 15.921875 
Q 6 25.140625 12.171875 29.828125 
Q 18.359375 34.515625 30.609375 34.515625 
L 43.21875 34.515625 
L 43.21875 35.40625 
Q 43.21875 41.609375 39.140625 45 
Q 35.0625 48.390625 27.6875 48.390625 
Q 23 48.390625 18.546875 47.265625 
Q 14.109375 46.140625 10.015625 43.890625 
L 10.015625 52.203125 
Q 14.9375 54.109375 19.578125 55.046875 
Q 24.21875 56 28.609375 56 
Q 40.484375 56 46.34375 49.84375 
Q 52.203125 43.703125 52.203125 31.203125 
z
M 28.8125 66.890625 
L 26.03125 69.578125 
Q 24.953125 70.5625 24.140625 71.015625 
Q 23.34375 71.484375 22.703125 71.484375 
Q 20.84375 71.484375 19.96875 69.703125 
Q 19.09375 67.921875 19 63.921875 
L 12.890625 63.921875 
Q 12.984375 70.515625 15.46875 74.09375 
Q 17.96875 77.6875 22.40625 77.6875 
Q 24.265625 77.6875 25.828125 77 
Q 27.390625 76.3125 29.203125 74.703125 
L 31.984375 72.015625 
Q 33.0625 71.046875 33.859375 70.578125 
Q 34.671875 70.125 35.296875 70.125 
Q 37.15625 70.125 38.03125 71.90625 
Q 38.921875 73.6875 39.015625 77.6875 
L 45.125 77.6875 
Q 45.015625 71.09375 42.53125 67.5 
Q 40.046875 63.921875 35.59375 63.921875 
Q 33.734375 63.921875 32.171875 64.59375 
Q 30.609375 65.28125 28.8125 66.890625 
z
" id="DejaVuSans-227"/>
     <path id="DejaVuSans-32"/>
     <path d="M 56.203125 29.59375 
L 56.203125 25.203125 
L 14.890625 25.203125 
Q 15.484375 15.921875 20.484375 11.0625 
Q 25.484375 6.203125 34.421875 6.203125 
Q 39.59375 6.203125 44.453125 7.46875 
Q 49.3125 8.734375 54.109375 11.28125 
L 54.109375 2.78125 
Q 49.265625 0.734375 44.1875 -0.34375 
Q 39.109375 -1.421875 33.890625 -1.421875 
Q 20.796875 -1.421875 13.15625 6.1875 
Q 5.515625 13.8125 5.515625 26.8125 
Q 5.515625 40.234375 12.765625 48.109375 
Q 20.015625 56 32.328125 56 
Q 43.359375 56 49.78125 48.890625 
Q 56.203125 41.796875 56.203125 29.59375 
z
M 47.21875 32.234375 
Q 47.125 39.59375 43.09375 43.984375 
Q 39.0625 48.390625 32.421875 48.390625 
Q 24.90625 48.390625 20.390625 44.140625 
Q 15.875 39.890625 15.1875 32.171875 
z
" id="DejaVuSans-101"/>
     <path d="M 18.109375 8.203125 
L 18.109375 -20.796875 
L 9.078125 -20.796875 
L 9.078125 54.6875 
L 18.109375 54.6875 
L 18.109375 46.390625 
Q 20.953125 51.265625 25.265625 53.625 
Q 29.59375 56 35.59375 56 
Q 45.5625 56 51.78125 48.09375 
Q 58.015625 40.1875 58.015625 27.296875 
Q 58.015625 14.40625 51.78125 6.484375 
Q 45.5625 -1.421875 35.59375 -1.421875 
Q 29.59375 -1.421875 25.265625 0.953125 
Q 20.953125 3.328125 18.109375 8.203125 
z
M 48.6875 27.296875 
Q 48.6875 37.203125 44.609375 42.84375 
Q 40.53125 48.484375 33.40625 48.484375 
Q 26.265625 48.484375 22.1875 42.84375 
Q 18.109375 37.203125 18.109375 27.296875 
Q 18.109375 17.390625 22.1875 11.75 
Q 26.265625 6.109375 33.40625 6.109375 
Q 40.53125 6.109375 44.609375 11.75 
Q 48.6875 17.390625 48.6875 27.296875 
z
" id="DejaVuSans-112"/>
     <path d="M 45.40625 46.390625 
L 45.40625 75.984375 
L 54.390625 75.984375 
L 54.390625 0 
L 45.40625 0 
L 45.40625 8.203125 
Q 42.578125 3.328125 38.25 0.953125 
Q 33.9375 -1.421875 27.875 -1.421875 
Q 17.96875 -1.421875 11.734375 6.484375 
Q 5.515625 14.40625 5.515625 27.296875 
Q 5.515625 40.1875 11.734375 48.09375 
Q 17.96875 56 27.875 56 
Q 33.9375 56 38.25 53.625 
Q 42.578125 51.265625 45.40625 46.390625 
z
M 14.796875 27.296875 
Q 14.796875 17.390625 18.875 11.75 
Q 22.953125 6.109375 30.078125 6.109375 
Q 37.203125 6.109375 41.296875 11.75 
Q 45.40625 17.390625 45.40625 27.296875 
Q 45.40625 37.203125 41.296875 42.84375 
Q 37.203125 48.484375 30.078125 48.484375 
Q 22.953125 48.484375 18.875 42.84375 
Q 14.796875 37.203125 14.796875 27.296875 
z
" id="DejaVuSans-100"/>
     <path d="M 48.78125 52.59375 
L 48.78125 44.1875 
Q 44.96875 46.296875 41.140625 47.34375 
Q 37.3125 48.390625 33.40625 48.390625 
Q 24.65625 48.390625 19.8125 42.84375 
Q 14.984375 37.3125 14.984375 27.296875 
Q 14.984375 17.28125 19.8125 11.734375 
Q 24.65625 6.203125 33.40625 6.203125 
Q 37.3125 6.203125 41.140625 7.25 
Q 44.96875 8.296875 48.78125 10.40625 
L 48.78125 2.09375 
Q 45.015625 0.34375 40.984375 -0.53125 
Q 36.96875 -1.421875 32.421875 -1.421875 
Q 20.0625 -1.421875 12.78125 6.34375 
Q 5.515625 14.109375 5.515625 27.296875 
Q 5.515625 40.671875 12.859375 48.328125 
Q 20.21875 56 33.015625 56 
Q 37.15625 56 41.109375 55.140625 
Q 45.0625 54.296875 48.78125 52.59375 
z
" id="DejaVuSans-99"/>
     <path d="M 37.109375 75.984375 
L 37.109375 68.5 
L 28.515625 68.5 
Q 23.6875 68.5 21.796875 66.546875 
Q 19.921875 64.59375 19.921875 59.515625 
L 19.921875 54.6875 
L 34.71875 54.6875 
L 34.71875 47.703125 
L 19.921875 47.703125 
L 19.921875 0 
L 10.890625 0 
L 10.890625 47.703125 
L 2.296875 47.703125 
L 2.296875 54.6875 
L 10.890625 54.6875 
L 10.890625 58.5 
Q 10.890625 67.625 15.140625 71.796875 
Q 19.390625 75.984375 28.609375 75.984375 
z
" id="DejaVuSans-102"/>
     <path d="M 9.421875 54.6875 
L 18.40625 54.6875 
L 18.40625 0 
L 9.421875 0 
z
M 9.421875 75.984375 
L 18.40625 75.984375 
L 18.40625 64.59375 
L 9.421875 64.59375 
z
" id="DejaVuSans-105"/>
     <path d="M 54.890625 33.015625 
L 54.890625 0 
L 45.90625 0 
L 45.90625 32.71875 
Q 45.90625 40.484375 42.875 44.328125 
Q 39.84375 48.1875 33.796875 48.1875 
Q 26.515625 48.1875 22.3125 43.546875 
Q 18.109375 38.921875 18.109375 30.90625 
L 18.109375 0 
L 9.078125 0 
L 9.078125 54.6875 
L 18.109375 54.6875 
L 18.109375 46.1875 
Q 21.34375 51.125 25.703125 53.5625 
Q 30.078125 56 35.796875 56 
Q 45.21875 56 50.046875 50.171875 
Q 54.890625 44.34375 54.890625 33.015625 
z
" id="DejaVuSans-110"/>
    </defs>
    <g transform="translate(80.532408 21.476938)scale(0.14 -0.14)">
     <use xlink:href="#DejaVuSans-69"/>
     <use x="63.183594" xlink:href="#DejaVuSans-118"/>
     <use x="122.363281" xlink:href="#DejaVuSans-111"/>
     <use x="183.544922" xlink:href="#DejaVuSans-108"/>
     <use x="211.328125" xlink:href="#DejaVuSans-117"/>
     <use x="274.707031" xlink:href="#DejaVuSans-231"/>
     <use x="329.6875" xlink:href="#DejaVuSans-227"/>
     <use x="390.966797" xlink:href="#DejaVuSans-111"/>
     <use x="452.148438" xlink:href="#DejaVuSans-32"/>
     <use x="483.935547" xlink:href="#DejaVuSans-116"/>
     <use x="523.144531" xlink:href="#DejaVuSans-101"/>
     <use x="584.667969" xlink:href="#DejaVuSans-109"/>
     <use x="682.080078" xlink:href="#DejaVuSans-112"/>
     <use x="745.556641" xlink:href="#DejaVuSans-111"/>
     <use x="806.738281" xlink:href="#DejaVuSans-114"/>
     <use x="847.851562" xlink:href="#DejaVuSans-97"/>
     <use x="909.130859" xlink:href="#DejaVuSans-108"/>
     <use x="936.914062" xlink:href="#DejaVuSans-32"/>
     <use x="968.701172" xlink:href="#DejaVuSans-100"/>
     <use x="1032.177734" xlink:href="#DejaVuSans-111"/>
     <use x="1093.359375" xlink:href="#DejaVuSans-115"/>
     <use x="1145.458984" xlink:href="#DejaVuSans-32"/>
     <use x="1177.246094" xlink:href="#DejaVuSans-99"/>
     <use x="1232.226562" xlink:href="#DejaVuSans-111"/>
     <use x="1293.408203" xlink:href="#DejaVuSans-101"/>
     <use x="1354.931641" xlink:href="#DejaVuSans-102"/>
     <use x="1390.136719" xlink:href="#DejaVuSans-105"/>
     <use x="1417.919922" xlink:href="#DejaVuSans-99"/>
     <use x="1472.900391" xlink:href="#DejaVuSans-105"/>
     <use x="1500.683594" xlink:href="#DejaVuSans-101"/>
     <use x="1562.207031" xlink:href="#DejaVuSans-110"/>
     <use x="1625.585938" xlink:href="#DejaVuSans-116"/>
     <use x="1664.794922" xlink:href="#DejaVuSans-101"/>
     <use x="1726.318359" xlink:href="#DejaVuSans-115"/>
     <use x="1778.417969" xlink:href="#DejaVuSans-32"/>
     <use x="1810.205078" xlink:href="#DejaVuSans-101"/>
     <use x="1871.728516" xlink:href="#DejaVuSans-115"/>
     <use x="1923.828125" xlink:href="#DejaVuSans-116"/>
     <use x="1963.037109" xlink:href="#DejaVuSans-105"/>
     <use x="1990.820312" xlink:href="#DejaVuSans-109"/>
     <use x="2088.232422" xlink:href="#DejaVuSans-97"/>
     <use x="2149.511719" xlink:href="#DejaVuSans-100"/>
     <use x="2212.988281" xlink:href="#DejaVuSans-111"/>
     <use x="2274.169922" xlink:href="#DejaVuSans-115"/>
    </g>
    <!-- para MQR com reinicialização (limiar = 0.004) -->
    <defs>
     <path d="M 9.8125 72.90625 
L 24.515625 72.90625 
L 43.109375 23.296875 
L 61.8125 72.90625 
L 76.515625 72.90625 
L 76.515625 0 
L 66.890625 0 
L 66.890625 64.015625 
L 48.09375 14.015625 
L 38.1875 14.015625 
L 19.390625 64.015625 
L 19.390625 0 
L 9.8125 0 
z
" id="DejaVuSans-77"/>
     <path d="M 39.40625 66.21875 
Q 28.65625 66.21875 22.328125 58.203125 
Q 16.015625 50.203125 16.015625 36.375 
Q 16.015625 22.609375 22.328125 14.59375 
Q 28.65625 6.59375 39.40625 6.59375 
Q 50.140625 6.59375 56.421875 14.59375 
Q 62.703125 22.609375 62.703125 36.375 
Q 62.703125 50.203125 56.421875 58.203125 
Q 50.140625 66.21875 39.40625 66.21875 
z
M 53.21875 1.3125 
L 66.21875 -12.890625 
L 54.296875 -12.890625 
L 43.5 -1.21875 
Q 41.890625 -1.3125 41.03125 -1.359375 
Q 40.1875 -1.421875 39.40625 -1.421875 
Q 24.03125 -1.421875 14.8125 8.859375 
Q 5.609375 19.140625 5.609375 36.375 
Q 5.609375 53.65625 14.8125 63.9375 
Q 24.03125 74.21875 39.40625 74.21875 
Q 54.734375 74.21875 63.90625 63.9375 
Q 73.09375 53.65625 73.09375 36.375 
Q 73.09375 23.6875 67.984375 14.640625 
Q 62.890625 5.609375 53.21875 1.3125 
z
" id="DejaVuSans-81"/>
     <path d="M 44.390625 34.1875 
Q 47.5625 33.109375 50.5625 29.59375 
Q 53.5625 26.078125 56.59375 19.921875 
L 66.609375 0 
L 56 0 
L 46.6875 18.703125 
Q 43.0625 26.03125 39.671875 28.421875 
Q 36.28125 30.8125 30.421875 30.8125 
L 19.671875 30.8125 
L 19.671875 0 
L 9.8125 0 
L 9.8125 72.90625 
L 32.078125 72.90625 
Q 44.578125 72.90625 50.734375 67.671875 
Q 56.890625 62.453125 56.890625 51.90625 
Q 56.890625 45.015625 53.6875 40.46875 
Q 50.484375 35.9375 44.390625 34.1875 
z
M 19.671875 64.796875 
L 19.671875 38.921875 
L 32.078125 38.921875 
Q 39.203125 38.921875 42.84375 42.21875 
Q 46.484375 45.515625 46.484375 51.90625 
Q 46.484375 58.296875 42.84375 61.546875 
Q 39.203125 64.796875 32.078125 64.796875 
z
" id="DejaVuSans-82"/>
     <path d="M 5.515625 54.6875 
L 48.1875 54.6875 
L 48.1875 46.484375 
L 14.40625 7.171875 
L 48.1875 7.171875 
L 48.1875 0 
L 4.296875 0 
L 4.296875 8.203125 
L 38.09375 47.515625 
L 5.515625 47.515625 
z
" id="DejaVuSans-122"/>
     <path d="M 31 75.875 
Q 24.46875 64.65625 21.28125 53.65625 
Q 18.109375 42.671875 18.109375 31.390625 
Q 18.109375 20.125 21.3125 9.0625 
Q 24.515625 -2 31 -13.1875 
L 23.1875 -13.1875 
Q 15.875 -1.703125 12.234375 9.375 
Q 8.59375 20.453125 8.59375 31.390625 
Q 8.59375 42.28125 12.203125 53.3125 
Q 15.828125 64.359375 23.1875 75.875 
z
" id="DejaVuSans-40"/>
     <path d="M 10.59375 45.40625 
L 73.1875 45.40625 
L 73.1875 37.203125 
L 10.59375 37.203125 
z
M 10.59375 25.484375 
L 73.1875 25.484375 
L 73.1875 17.1875 
L 10.59375 17.1875 
z
" id="DejaVuSans-61"/>
     <path d="M 8.015625 75.875 
L 15.828125 75.875 
Q 23.140625 64.359375 26.78125 53.3125 
Q 30.421875 42.28125 30.421875 31.390625 
Q 30.421875 20.453125 26.78125 9.375 
Q 23.140625 -1.703125 15.828125 -13.1875 
L 8.015625 -13.1875 
Q 14.5 -2 17.703125 9.0625 
Q 20.90625 20.125 20.90625 31.390625 
Q 20.90625 42.671875 17.703125 53.65625 
Q 14.5 64.65625 8.015625 75.875 
z
" id="DejaVuSans-41"/>
    </defs>
    <g transform="translate(81.861314 37.44)scale(0.14 -0.14)">
     <use xlink:href="#DejaVuSans-112"/>
     <use x="63.476562" xlink:href="#DejaVuSans-97"/>
     <use x="124.755859" xlink:href="#DejaVuSans-114"/>
     <use x="165.869141" xlink:href="#DejaVuSans-97"/>
     <use x="227.148438" xlink:href="#DejaVuSans-32"/>
     <use x="258.935547" xlink:href="#DejaVuSans-77"/>
     <use x="345.214844" xlink:href="#DejaVuSans-81"/>
     <use x="423.925781" xlink:href="#DejaVuSans-82"/>
     <use x="493.408203" xlink:href="#DejaVuSans-32"/>
     <use x="525.195312" xlink:href="#DejaVuSans-99"/>
     <use x="580.175781" xlink:href="#DejaVuSans-111"/>
     <use x="641.357422" xlink:href="#DejaVuSans-109"/>
     <use x="738.769531" xlink:href="#DejaVuSans-32"/>
     <use x="770.556641" xlink:href="#DejaVuSans-114"/>
     <use x="809.419922" xlink:href="#DejaVuSans-101"/>
     <use x="870.943359" xlink:href="#DejaVuSans-105"/>
     <use x="898.726562" xlink:href="#DejaVuSans-110"/>
     <use x="962.105469" xlink:href="#DejaVuSans-105"/>
     <use x="989.888672" xlink:href="#DejaVuSans-99"/>
     <use x="1044.869141" xlink:href="#DejaVuSans-105"/>
     <use x="1072.652344" xlink:href="#DejaVuSans-97"/>
     <use x="1133.931641" xlink:href="#DejaVuSans-108"/>
     <use x="1161.714844" xlink:href="#DejaVuSans-105"/>
     <use x="1189.498047" xlink:href="#DejaVuSans-122"/>
     <use x="1241.988281" xlink:href="#DejaVuSans-97"/>
     <use x="1303.267578" xlink:href="#DejaVuSans-231"/>
     <use x="1358.248047" xlink:href="#DejaVuSans-227"/>
     <use x="1419.527344" xlink:href="#DejaVuSans-111"/>
     <use x="1480.708984" xlink:href="#DejaVuSans-32"/>
     <use x="1512.496094" xlink:href="#DejaVuSans-40"/>
     <use x="1551.509766" xlink:href="#DejaVuSans-108"/>
     <use x="1579.292969" xlink:href="#DejaVuSans-105"/>
     <use x="1607.076172" xlink:href="#DejaVuSans-109"/>
     <use x="1704.488281" xlink:href="#DejaVuSans-105"/>
     <use x="1732.271484" xlink:href="#DejaVuSans-97"/>
     <use x="1793.550781" xlink:href="#DejaVuSans-114"/>
     <use x="1834.664062" xlink:href="#DejaVuSans-32"/>
     <use x="1866.451172" xlink:href="#DejaVuSans-61"/>
     <use x="1950.240234" xlink:href="#DejaVuSans-32"/>
     <use x="1982.027344" xlink:href="#DejaVuSans-48"/>
     <use x="2045.650391" xlink:href="#DejaVuSans-46"/>
     <use x="2077.4375" xlink:href="#DejaVuSans-48"/>
     <use x="2141.060547" xlink:href="#DejaVuSans-48"/>
     <use x="2204.683594" xlink:href="#DejaVuSans-52"/>
     <use x="2268.306641" xlink:href="#DejaVuSans-41"/>
    </g>
   </g>
   <g id="legend_1">
    <g id="patch_7">
     <path d="M 302.688976 183.391526 
L 408.388976 183.391526 
Q 410.388976 183.391526 410.388976 181.391526 
L 410.388976 123.679026 
Q 410.388976 121.679026 408.388976 121.679026 
L 302.688976 121.679026 
Q 300.688976 121.679026 300.688976 123.679026 
L 300.688976 181.391526 
Q 300.688976 183.391526 302.688976 183.391526 
z
" style="fill:#ffffff;opacity:0.8;stroke:#cccccc;stroke-linejoin:miter;"/>
    </g>
    <g id="line2d_41">
     <path d="M 304.688976 129.777463 
L 324.688976 129.777463 
" style="fill:none;stroke:#0000ff;stroke-linecap:square;"/>
    </g>
    <g id="line2d_42"/>
    <g id="text_20">
     <!-- Coeficiente $\bf{b1}$ -->
     <defs>
      <path d="M 64.40625 67.28125 
L 64.40625 56.890625 
Q 59.421875 61.53125 53.78125 63.8125 
Q 48.140625 66.109375 41.796875 66.109375 
Q 29.296875 66.109375 22.65625 58.46875 
Q 16.015625 50.828125 16.015625 36.375 
Q 16.015625 21.96875 22.65625 14.328125 
Q 29.296875 6.6875 41.796875 6.6875 
Q 48.140625 6.6875 53.78125 8.984375 
Q 59.421875 11.28125 64.40625 15.921875 
L 64.40625 5.609375 
Q 59.234375 2.09375 53.4375 0.328125 
Q 47.65625 -1.421875 41.21875 -1.421875 
Q 24.65625 -1.421875 15.125 8.703125 
Q 5.609375 18.84375 5.609375 36.375 
Q 5.609375 53.953125 15.125 64.078125 
Q 24.65625 74.21875 41.21875 74.21875 
Q 47.75 74.21875 53.53125 72.484375 
Q 59.328125 70.75 64.40625 67.28125 
z
" id="DejaVuSans-67"/>
      <path d="M 37.5 11.28125 
Q 43.109375 11.28125 46.0625 15.375 
Q 49.03125 19.484375 49.03125 27.296875 
Q 49.03125 35.109375 46.0625 39.203125 
Q 43.109375 43.3125 37.5 43.3125 
Q 31.890625 43.3125 28.875 39.1875 
Q 25.875 35.0625 25.875 27.296875 
Q 25.875 19.53125 28.875 15.40625 
Q 31.890625 11.28125 37.5 11.28125 
z
M 25.875 46.6875 
Q 29.5 51.46875 33.890625 53.734375 
Q 38.28125 56 44 56 
Q 54.109375 56 60.59375 47.96875 
Q 67.09375 39.9375 67.09375 27.296875 
Q 67.09375 14.65625 60.59375 6.609375 
Q 54.109375 -1.421875 44 -1.421875 
Q 38.28125 -1.421875 33.890625 0.84375 
Q 29.5 3.125 25.875 7.90625 
L 25.875 0 
L 8.40625 0 
L 8.40625 75.984375 
L 25.875 75.984375 
z
" id="DejaVuSans-Bold-98"/>
      <path d="M 11.71875 12.984375 
L 28.328125 12.984375 
L 28.328125 60.109375 
L 11.28125 56.59375 
L 11.28125 69.390625 
L 28.21875 72.90625 
L 46.09375 72.90625 
L 46.09375 12.984375 
L 62.703125 12.984375 
L 62.703125 0 
L 11.71875 0 
z
" id="DejaVuSans-Bold-49"/>
     </defs>
     <g transform="translate(332.688976 133.277463)scale(0.1 -0.1)">
      <use transform="translate(0 0.015625)" xlink:href="#DejaVuSans-67"/>
      <use transform="translate(69.824219 0.015625)" xlink:href="#DejaVuSans-111"/>
      <use transform="translate(131.005859 0.015625)" xlink:href="#DejaVuSans-101"/>
      <use transform="translate(192.529297 0.015625)" xlink:href="#DejaVuSans-102"/>
      <use transform="translate(227.734375 0.015625)" xlink:href="#DejaVuSans-105"/>
      <use transform="translate(255.517578 0.015625)" xlink:href="#DejaVuSans-99"/>
      <use transform="translate(310.498047 0.015625)" xlink:href="#DejaVuSans-105"/>
      <use transform="translate(338.28125 0.015625)" xlink:href="#DejaVuSans-101"/>
      <use transform="translate(399.804688 0.015625)" xlink:href="#DejaVuSans-110"/>
      <use transform="translate(463.183594 0.015625)" xlink:href="#DejaVuSans-116"/>
      <use transform="translate(502.392578 0.015625)" xlink:href="#DejaVuSans-101"/>
      <use transform="translate(563.916016 0.015625)" xlink:href="#DejaVuSans-32"/>
      <use transform="translate(595.703125 0.015625)" xlink:href="#DejaVuSans-Bold-98"/>
      <use transform="translate(667.285156 0.015625)" xlink:href="#DejaVuSans-Bold-49"/>
     </g>
    </g>
    <g id="line2d_43">
     <path d="M 304.688976 144.455588 
L 324.688976 144.455588 
" style="fill:none;stroke:#ffa500;stroke-linecap:square;"/>
    </g>
    <g id="line2d_44"/>
    <g id="text_21">
     <!-- Coeficiente $\bf{b2}$ -->
     <defs>
      <path d="M 28.8125 13.8125 
L 60.890625 13.8125 
L 60.890625 0 
L 7.90625 0 
L 7.90625 13.8125 
L 34.515625 37.3125 
Q 38.09375 40.53125 39.796875 43.609375 
Q 41.5 46.6875 41.5 50 
Q 41.5 55.125 38.0625 58.25 
Q 34.625 61.375 28.90625 61.375 
Q 24.515625 61.375 19.28125 59.5 
Q 14.0625 57.625 8.109375 53.90625 
L 8.109375 69.921875 
Q 14.453125 72.015625 20.65625 73.109375 
Q 26.859375 74.21875 32.8125 74.21875 
Q 45.90625 74.21875 53.15625 68.453125 
Q 60.40625 62.703125 60.40625 52.390625 
Q 60.40625 46.4375 57.328125 41.28125 
Q 54.25 36.140625 44.390625 27.484375 
z
" id="DejaVuSans-Bold-50"/>
     </defs>
     <g transform="translate(332.688976 147.955588)scale(0.1 -0.1)">
      <use transform="translate(0 0.015625)" xlink:href="#DejaVuSans-67"/>
      <use transform="translate(69.824219 0.015625)" xlink:href="#DejaVuSans-111"/>
      <use transform="translate(131.005859 0.015625)" xlink:href="#DejaVuSans-101"/>
      <use transform="translate(192.529297 0.015625)" xlink:href="#DejaVuSans-102"/>
      <use transform="translate(227.734375 0.015625)" xlink:href="#DejaVuSans-105"/>
      <use transform="translate(255.517578 0.015625)" xlink:href="#DejaVuSans-99"/>
      <use transform="translate(310.498047 0.015625)" xlink:href="#DejaVuSans-105"/>
      <use transform="translate(338.28125 0.015625)" xlink:href="#DejaVuSans-101"/>
      <use transform="translate(399.804688 0.015625)" xlink:href="#DejaVuSans-110"/>
      <use transform="translate(463.183594 0.015625)" xlink:href="#DejaVuSans-116"/>
      <use transform="translate(502.392578 0.015625)" xlink:href="#DejaVuSans-101"/>
      <use transform="translate(563.916016 0.015625)" xlink:href="#DejaVuSans-32"/>
      <use transform="translate(595.703125 0.015625)" xlink:href="#DejaVuSans-Bold-98"/>
      <use transform="translate(667.285156 0.015625)" xlink:href="#DejaVuSans-Bold-50"/>
     </g>
    </g>
    <g id="line2d_45">
     <path d="M 304.688976 159.133713 
L 324.688976 159.133713 
" style="fill:none;stroke:#008000;stroke-linecap:square;"/>
    </g>
    <g id="line2d_46"/>
    <g id="text_22">
     <!-- Coeficiente $\bf{a1}$ -->
     <defs>
      <path d="M 32.90625 24.609375 
Q 27.4375 24.609375 24.671875 22.75 
Q 21.921875 20.90625 21.921875 17.28125 
Q 21.921875 13.96875 24.140625 12.078125 
Q 26.375 10.203125 30.328125 10.203125 
Q 35.25 10.203125 38.625 13.734375 
Q 42 17.28125 42 22.609375 
L 42 24.609375 
z
M 59.625 31.203125 
L 59.625 0 
L 42 0 
L 42 8.109375 
Q 38.484375 3.125 34.078125 0.84375 
Q 29.6875 -1.421875 23.390625 -1.421875 
Q 14.890625 -1.421875 9.59375 3.53125 
Q 4.296875 8.5 4.296875 16.40625 
Q 4.296875 26.03125 10.90625 30.515625 
Q 17.53125 35.015625 31.6875 35.015625 
L 42 35.015625 
L 42 36.375 
Q 42 40.53125 38.71875 42.453125 
Q 35.453125 44.390625 28.515625 44.390625 
Q 22.90625 44.390625 18.0625 43.265625 
Q 13.234375 42.140625 9.078125 39.890625 
L 9.078125 53.21875 
Q 14.703125 54.59375 20.359375 55.296875 
Q 26.03125 56 31.6875 56 
Q 46.484375 56 53.046875 50.171875 
Q 59.625 44.34375 59.625 31.203125 
z
" id="DejaVuSans-Bold-97"/>
     </defs>
     <g transform="translate(332.688976 162.633713)scale(0.1 -0.1)">
      <use transform="translate(0 0.015625)" xlink:href="#DejaVuSans-67"/>
      <use transform="translate(69.824219 0.015625)" xlink:href="#DejaVuSans-111"/>
      <use transform="translate(131.005859 0.015625)" xlink:href="#DejaVuSans-101"/>
      <use transform="translate(192.529297 0.015625)" xlink:href="#DejaVuSans-102"/>
      <use transform="translate(227.734375 0.015625)" xlink:href="#DejaVuSans-105"/>
      <use transform="translate(255.517578 0.015625)" xlink:href="#DejaVuSans-99"/>
      <use transform="translate(310.498047 0.015625)" xlink:href="#DejaVuSans-105"/>
      <use transform="translate(338.28125 0.015625)" xlink:href="#DejaVuSans-101"/>
      <use transform="translate(399.804688 0.015625)" xlink:href="#DejaVuSans-110"/>
      <use transform="translate(463.183594 0.015625)" xlink:href="#DejaVuSans-116"/>
      <use transform="translate(502.392578 0.015625)" xlink:href="#DejaVuSans-101"/>
      <use transform="translate(563.916016 0.015625)" xlink:href="#DejaVuSans-32"/>
      <use transform="translate(595.703125 0.015625)" xlink:href="#DejaVuSans-Bold-97"/>
      <use transform="translate(663.183594 0.015625)" xlink:href="#DejaVuSans-Bold-49"/>
     </g>
    </g>
    <g id="line2d_47">
     <path d="M 304.688976 173.811838 
L 324.688976 173.811838 
" style="fill:none;stroke:#ff0000;stroke-linecap:square;"/>
    </g>
    <g id="line2d_48"/>
    <g id="text_23">
     <!-- Coeficiente $\bf{a2}$ -->
     <g transform="translate(332.688976 177.311838)scale(0.1 -0.1)">
      <use transform="translate(0 0.015625)" xlink:href="#DejaVuSans-67"/>
      <use transform="translate(69.824219 0.015625)" xlink:href="#DejaVuSans-111"/>
      <use transform="translate(131.005859 0.015625)" xlink:href="#DejaVuSans-101"/>
      <use transform="translate(192.529297 0.015625)" xlink:href="#DejaVuSans-102"/>
      <use transform="translate(227.734375 0.015625)" xlink:href="#DejaVuSans-105"/>
      <use transform="translate(255.517578 0.015625)" xlink:href="#DejaVuSans-99"/>
      <use transform="translate(310.498047 0.015625)" xlink:href="#DejaVuSans-105"/>
      <use transform="translate(338.28125 0.015625)" xlink:href="#DejaVuSans-101"/>
      <use transform="translate(399.804688 0.015625)" xlink:href="#DejaVuSans-110"/>
      <use transform="translate(463.183594 0.015625)" xlink:href="#DejaVuSans-116"/>
      <use transform="translate(502.392578 0.015625)" xlink:href="#DejaVuSans-101"/>
      <use transform="translate(563.916016 0.015625)" xlink:href="#DejaVuSans-32"/>
      <use transform="translate(595.703125 0.015625)" xlink:href="#DejaVuSans-Bold-97"/>
      <use transform="translate(663.183594 0.015625)" xlink:href="#DejaVuSans-Bold-50"/>
     </g>
    </g>
   </g>
  </g>
 </g>
 <defs>
  <clipPath id="pd3b829320e">
   <rect height="218.190551" width="344.031575" x="71.357402" y="43.44"/>
  </clipPath>
 </defs>
</svg>
